<?xml version="1.0" encoding="UTF-8"?>
<svg xmlns="http://www.w3.org/2000/svg" xmlns:xlink="http://www.w3.org/1999/xlink" width="216px" height="216px" viewBox="0 0 216 216" version="1.1">
<g id="surface1">
<path style=" stroke:none;fill-rule:nonzero;fill:rgb(14.117647%,21.176471%,29.803922%);fill-opacity:1;" d="M 71.039062 157.75 C 71.148438 157.824219 71.253906 157.90625 71.347656 157.996094 C 81.117188 167.085938 92.59375 172.222656 103.664062 172.464844 C 109.863281 172.605469 118.898438 171.546875 125.664062 168.175781 C 135.964844 163.054688 144.542969 154.910156 150.480469 144.621094 C 150.492188 144.605469 150.5 144.585938 150.511719 144.570312 C 151.316406 143.25 151.695312 142.414062 151.699219 142.402344 C 151.71875 142.359375 151.742188 142.308594 151.765625 142.265625 C 155.21875 135.632812 157.464844 128.433594 158.433594 120.871094 C 158.707031 118.707031 158.925781 116.480469 159.082031 114.257812 C 159.082031 114.21875 159.085938 114.179688 159.089844 114.144531 L 159.101562 113.96875 C 159.125 113.597656 159.148438 113.226562 159.167969 112.855469 C 159.191406 112.460938 159.210938 112.066406 159.226562 111.675781 C 159.25 111.210938 159.265625 110.746094 159.28125 110.285156 C 159.296875 109.808594 159.308594 109.335938 159.316406 108.859375 C 159.320312 108.589844 159.324219 108.320312 159.328125 108.050781 C 159.335938 107.371094 159.335938 106.691406 159.328125 106.015625 L 159.324219 105.867188 C 159.3125 105.160156 159.292969 104.453125 159.265625 103.746094 L 159.246094 103.25 C 159.214844 102.511719 159.175781 101.773438 159.121094 101.039062 C 159.121094 101.011719 159.121094 100.988281 159.117188 100.960938 C 159.082031 100.050781 158.980469 99.21875 158.980469 99.210938 C 158.976562 99.183594 158.972656 99.15625 158.96875 99.132812 C 158.332031 92.285156 156.816406 85.851562 154.464844 80.003906 C 149.058594 66.546875 137.398438 55.734375 122.464844 50.339844 L 117.738281 48.847656 C 113.507812 47.71875 109.300781 47.113281 105.230469 47.042969 C 99.507812 46.941406 93.6875 47.765625 88.84375 49.382812 C 71.171875 55.292969 57.621094 69.289062 52.605469 86.824219 C 49.976562 96.027344 48.714844 105.75 49.230469 112.824219 C 49.339844 114.433594 49.539062 116.125 49.835938 118.003906 C 49.835938 118.019531 49.839844 118.035156 49.839844 118.054688 C 49.84375 118.070312 50.082031 119.777344 50.632812 122.074219 C 53.339844 134.046875 60.347656 146.777344 69.394531 156.164062 C 69.410156 156.179688 69.425781 156.199219 69.441406 156.214844 C 70.425781 157.296875 70.984375 157.710938 71.039062 157.75 Z M 72.652344 103.890625 C 72.652344 103.886719 72.652344 103.886719 72.652344 103.882812 C 72.976562 100.96875 73.5 98.136719 74.210938 95.46875 L 74.234375 95.386719 C 74.34375 94.976562 74.453125 94.585938 74.566406 94.195312 C 78.074219 82.265625 85.449219 73.421875 94.289062 70.542969 C 101.957031 68.03125 109.65625 68.960938 115.433594 73.082031 C 116.570312 73.726562 117.628906 74.386719 118.578125 75.046875 C 128.636719 82.015625 135.136719 93.53125 135.964844 105.847656 C 135.992188 106.253906 136.007812 106.660156 136.023438 107.070312 L 136.027344 107.207031 C 136.035156 107.28125 136.039062 107.355469 136.039062 107.429688 C 136.460938 119.425781 132.546875 131.367188 125.304688 140.1875 C 119 147.867188 110.828125 152.144531 102.613281 152.144531 C 101.941406 152.144531 101.265625 152.117188 100.59375 152.058594 C 100.566406 152.054688 100.542969 152.054688 100.515625 152.050781 C 99.210938 151.886719 98.222656 151.730469 98.222656 151.730469 C 98.203125 151.726562 98.183594 151.722656 98.167969 151.71875 C 89.59375 150.105469 82.285156 143.941406 77.589844 134.367188 C 73.300781 125.621094 71.5 114.511719 72.652344 103.890625 Z M 72.652344 103.890625 "/>
</g>
</svg>
