<?xml version="1.0" encoding="UTF-8"?>
<svg xmlns="http://www.w3.org/2000/svg" xmlns:xlink="http://www.w3.org/1999/xlink" width="216" height="216" viewBox="0 0 216 216" version="1.1">
<g id="surface1">
<path style=" stroke:none;fill-rule:nonzero;fill:rgb(14.117647%,21.176471%,29.803922%);fill-opacity:1;" d="M 101.761719 166.449219 C 101.730469 169.292969 104.070312 171.589844 106.910156 171.503906 C 111.753906 171.359375 117.378906 171.226562 122.269531 171.109375 C 124.0625 171.066406 125.875 171.023438 127.546875 170.980469 C 130.3125 170.914062 132.492188 168.613281 132.417969 165.851562 C 131.859375 145.3125 129.84375 70.941406 129.210938 49.484375 C 129.125 46.558594 126.558594 44.335938 123.652344 44.664062 C 117.355469 45.378906 107.386719 46.492188 101.699219 47.058594 C 99.347656 47.292969 97.1875 48.4375 95.675781 50.25 C 89.589844 57.554688 74.582031 75.707031 68.398438 83.105469 C 67.023438 84.75 66.855469 87.085938 67.96875 88.921875 C 70.40625 92.933594 72.917969 96.898438 75.480469 100.863281 C 77.222656 103.558594 81.023438 103.933594 83.261719 101.632812 L 83.605469 101.28125 C 86.78125 98.015625 90.382812 94.316406 93.261719 91.40625 C 94.847656 89.804688 96.03125 88.621094 96.894531 87.789062 C 98.515625 86.214844 99.5 85.261719 101.09375 85.902344 C 102.035156 86.277344 102.660156 87.195312 102.671875 88.207031 C 102.691406 90.582031 102.703125 92.953125 102.707031 95.324219 C 102.710938 100.773438 101.960938 149.65625 101.761719 166.449219 Z M 101.761719 166.449219 "/>
</g>
</svg>
