<?xml version="1.0" encoding="UTF-8"?>
<svg xmlns="http://www.w3.org/2000/svg" xmlns:xlink="http://www.w3.org/1999/xlink" width="216" height="216" viewBox="0 0 216 216" version="1.1">
<g id="surface1">
<path style=" stroke:none;fill-rule:nonzero;fill:rgb(14.117647%,21.176471%,29.803922%);fill-opacity:1;" d="M 68.015625 173.269531 C 86.429688 173.210938 126.125 172.796875 140.058594 172.648438 C 142.878906 172.617188 145.210938 170.460938 145.472656 167.65625 C 145.65625 165.6875 145.824219 163.90625 145.824219 163.90625 C 146.253906 159.007812 146.664062 153.777344 146.925781 149.664062 C 147.101562 146.894531 144.753906 144.628906 141.992188 144.898438 C 141.460938 144.949219 141.078125 144.988281 140.921875 145.003906 L 136.949219 145.378906 C 136.941406 145.378906 126.4375 146.34375 115.929688 147.304688 C 110.675781 147.78125 105.421875 148.257812 101.480469 148.613281 C 99.503906 148.789062 97.859375 148.933594 96.707031 149.035156 C 96.125 149.082031 95.667969 149.121094 95.355469 149.148438 C 93.238281 149.316406 92.503906 148.246094 92.261719 147.320312 C 91.953125 146.140625 92.542969 144.910156 93.652344 144.410156 C 99.175781 141.914062 124.84375 121.863281 133.230469 114.207031 C 133.234375 114.207031 133.234375 114.203125 133.238281 114.203125 C 133.238281 114.199219 133.242188 114.199219 133.242188 114.195312 C 133.253906 114.1875 133.265625 114.175781 133.277344 114.164062 C 133.652344 113.824219 134.003906 113.5 134.300781 113.207031 C 141.539062 106.246094 146.304688 95.796875 147.398438 84.515625 C 147.839844 79.957031 147.585938 75.554688 146.640625 71.433594 C 146.628906 71.371094 146.617188 71.3125 146.605469 71.25 C 146.507812 70.605469 146.023438 69.03125 145.710938 68.121094 C 144.28125 63.910156 142.089844 60.289062 139.199219 57.339844 C 129.316406 47.25 115.164062 43.828125 100.363281 47.941406 L 99.789062 48.101562 C 95.003906 49.492188 90.390625 51.636719 86.109375 54.464844 C 78.921875 59.210938 71.976562 65.652344 64.878906 74.164062 C 64.71875 74.363281 64.515625 74.609375 64.320312 74.84375 L 64.1875 74.988281 C 62.65625 76.554688 62.15625 77.414062 62.148438 77.421875 C 62.074219 77.566406 62.003906 77.660156 61.902344 77.785156 C 61.1875 78.667969 60.527344 79.496094 59.90625 80.285156 C 58.144531 82.53125 58.394531 85.75 60.484375 87.699219 C 62.1875 89.28125 64.113281 91.058594 65.828125 92.636719 C 68.109375 94.738281 71.707031 94.566406 73.714844 92.203125 C 77.347656 87.914062 81.648438 84.550781 86.285156 82.4375 C 91.4375 80.085938 97.28125 79.140625 102.738281 79.78125 C 108.945312 80.507812 114.15625 83.191406 117.8125 87.542969 C 121.9375 92.46875 123.09375 97.898438 121.15625 103.246094 C 119.59375 107.5625 115.804688 110.878906 112.625 113.300781 C 112.300781 113.636719 111.972656 113.953125 111.679688 114.238281 C 111.464844 114.449219 111.253906 114.648438 111.042969 114.84375 C 109.914062 115.890625 108.617188 116.984375 106.964844 118.285156 C 105.652344 119.3125 103.066406 121.222656 102.957031 121.300781 L 100.964844 122.773438 C 100.949219 122.785156 100.933594 122.796875 100.914062 122.808594 C 100.8125 122.878906 90.816406 129.871094 85.992188 133.507812 C 78.902344 138.847656 71.765625 144.867188 67.597656 152.679688 C 66.335938 155.046875 64.957031 158.800781 63.921875 161.878906 C 63.585938 162.871094 63.121094 164.605469 62.664062 166.4375 C 61.800781 169.914062 64.429688 173.28125 68.015625 173.269531 Z M 68.015625 173.269531 "/>
</g>
</svg>
