<?xml version="1.0" encoding="UTF-8"?>
<svg xmlns="http://www.w3.org/2000/svg" xmlns:xlink="http://www.w3.org/1999/xlink" width="216" height="216" viewBox="0 0 108 108" version="1.1">
<g id="surface1">
<path style=" stroke:none;fill-rule:nonzero;fill:rgb(14.117647%,21.176471%,29.803922%);fill-opacity:1;" d="M 33.097656 64.402344 C 31.679688 64.433594 30.480469 65.457031 30.214844 66.847656 C 29.53125 70.445312 29.992188 74.214844 31.574219 77.390625 L 31.589844 77.425781 C 31.804688 77.859375 32.429688 79.019531 33.644531 80.4375 C 36.074219 83.191406 39.753906 85.226562 43.996094 86.167969 C 48.128906 86.828125 52.753906 86.609375 56.6875 85.574219 C 61.984375 84.179688 66.875 81.335938 69.777344 77.960938 C 73.089844 74.109375 78.414062 66.46875 76.851562 58.582031 C 76.816406 58.417969 76.785156 58.257812 76.746094 58.097656 C 76.746094 58.082031 76.742188 58.070312 76.738281 58.054688 C 76.710938 57.917969 76.515625 57.242188 76.238281 56.382812 C 74.957031 52.6875 73.074219 50.191406 70.308594 48.523438 C 69.199219 47.851562 67.945312 47.320312 66.578125 46.949219 C 66.445312 46.910156 66.257812 46.855469 66.039062 46.789062 C 64.480469 46.324219 63.496094 46.105469 63.113281 46.144531 C 63.109375 46.144531 63.105469 46.144531 63.101562 46.144531 C 61.535156 45.761719 61.25 45.382812 61.34375 44.820312 C 61.398438 44.457031 61.613281 44.125 61.953125 43.925781 C 64.175781 42.640625 69.578125 39.3125 72.171875 37.710938 C 73.058594 37.164062 73.597656 36.195312 73.59375 35.152344 C 73.585938 32.941406 73.570312 29.019531 73.558594 26.308594 C 73.554688 24.664062 72.226562 23.332031 70.585938 23.320312 C 62.894531 23.257812 45.6875 23.1875 38.328125 23.21875 C 36.679688 23.226562 35.347656 24.5625 35.34375 26.210938 C 35.335938 29.152344 35.328125 33.566406 35.367188 36.90625 C 35.386719 38.660156 36.90625 40.023438 38.65625 39.855469 C 44.179688 39.320312 52.898438 38.429688 54.597656 38.167969 C 55.195312 38.066406 55.773438 38.421875 55.972656 38.992188 C 56.167969 39.558594 55.933594 40.191406 55.410156 40.488281 C 55.367188 40.511719 51.96875 42.300781 49.449219 43.589844 C 48.394531 44.128906 47.757812 45.230469 47.820312 46.414062 C 47.859375 47.15625 47.894531 47.953125 47.933594 48.734375 C 48.007812 50.398438 49.421875 51.675781 51.085938 51.59375 C 53.289062 51.492188 56.328125 51.691406 58.917969 53.109375 C 58.953125 53.125 58.988281 53.140625 59.019531 53.160156 C 62.269531 54.949219 64.5625 57.742188 65.308594 60.820312 C 65.980469 63.582031 65.394531 66.445312 63.613281 69.097656 C 61.46875 72.289062 57.851562 74.636719 53.945312 75.371094 C 50.601562 76 47.34375 75.367188 44.777344 73.585938 C 42.421875 71.949219 40.796875 69.40625 40.210938 66.667969 C 39.914062 65.265625 38.65625 64.277344 37.222656 64.308594 C 35.878906 64.339844 34.332031 64.371094 33.097656 64.402344 Z M 33.097656 64.402344 "/>
</g>
</svg>
