<?xml version="1.0" encoding="UTF-8"?>
<svg xmlns="http://www.w3.org/2000/svg" xmlns:xlink="http://www.w3.org/1999/xlink" width="216" height="216" viewBox="0 0 216 216" version="1.1">
<g id="surface1">
<path style=" stroke:none;fill-rule:nonzero;fill:rgb(14.117647%,21.176471%,29.803922%);fill-opacity:1;" d="M 141.992188 130.175781 L 153.621094 130.289062 C 157.113281 130.320312 160.007812 127.589844 160.175781 124.101562 L 160.761719 112.027344 C 160.941406 108.351562 158.035156 105.261719 154.359375 105.210938 L 140.59375 105.03125 C 139.265625 105.011719 138.183594 103.957031 138.132812 102.625 L 136.320312 52.503906 C 136.195312 49.007812 133.324219 46.238281 129.824219 46.238281 L 111.300781 46.238281 C 111.285156 46.238281 111.265625 46.238281 111.246094 46.238281 C 110.089844 46.210938 109.003906 46.1875 108.023438 46.164062 C 105.789062 46.109375 103.6875 47.203125 102.453125 49.066406 L 75.964844 88.96875 C 75.964844 88.96875 65.457031 104.792969 58.851562 114.742188 C 54.84375 120.601562 56.539062 129.3125 67.453125 129.3125 C 80.1875 129.457031 113.234375 129.859375 113.234375 129.859375 C 113.90625 129.863281 114.542969 130.140625 115.007812 130.621094 C 115.476562 131.101562 115.726562 131.75 115.710938 132.417969 L 114.894531 166.695312 C 114.804688 170.34375 117.742188 173.351562 121.390625 173.351562 L 134.296875 173.351562 C 137.988281 173.351562 140.9375 170.28125 140.792969 166.597656 L 139.472656 132.773438 C 139.445312 132.089844 139.699219 131.425781 140.175781 130.933594 C 140.652344 130.445312 141.320312 130.167969 141.992188 130.175781 Z M 116.9375 102.183594 C 116.90625 103.542969 115.792969 104.625 114.4375 104.625 L 114.40625 104.625 L 96.5625 104.390625 C 95.664062 104.375 94.839844 103.882812 94.40625 103.097656 C 93.972656 102.308594 93.992188 101.347656 94.460938 100.582031 L 113.03125 66.238281 C 113.621094 65.273438 114.785156 64.828125 115.867188 65.148438 C 116.953125 65.46875 117.6875 66.476562 117.660156 67.605469 Z M 116.9375 102.183594 "/>
</g>
</svg>
