<?xml version="1.0" encoding="UTF-8"?>
<svg xmlns="http://www.w3.org/2000/svg" xmlns:xlink="http://www.w3.org/1999/xlink" width="216" height="216" viewBox="0 0 216 216" version="1.1">
<g id="surface1">
<path style=" stroke:none;fill-rule:nonzero;fill:rgb(14.117647%,21.176471%,29.803922%);fill-opacity:1;" d="M 118.386719 72.109375 C 123.011719 71.714844 132.972656 70.890625 142.007812 70.3125 C 145.105469 70.113281 147.539062 67.578125 147.613281 64.476562 C 147.636719 63.667969 147.65625 62.835938 147.679688 62 C 147.738281 59.632812 147.804688 57.144531 147.839844 54.792969 C 147.898438 51.191406 145.023438 48.226562 141.417969 48.183594 L 76.347656 47.402344 C 72.652344 47.359375 69.664062 50.402344 69.773438 54.097656 C 70.140625 66.222656 70.726562 84.71875 70.734375 84.972656 L 70.867188 88.375 C 70.867188 88.375 71.09375 94.03125 71.210938 96.625 C 71.253906 97.574219 71.296875 98.484375 71.339844 99.355469 C 71.535156 103.386719 75.316406 106.273438 79.25 105.378906 C 82.59375 104.617188 86.144531 103.972656 89.890625 103.453125 C 97.410156 102.398438 103.902344 102.390625 109.734375 103.429688 C 122.726562 105.726562 130.535156 113.539062 130.625 124.324219 C 130.683594 131.132812 128.664062 136.519531 124.621094 140.34375 C 120.34375 144.386719 114.800781 146.542969 109.421875 146.257812 C 103.054688 145.921875 97.40625 142.859375 93.925781 137.851562 C 91.621094 134.527344 90.378906 130.867188 89.714844 127.394531 C 89.089844 124.105469 86.097656 121.816406 82.765625 122.109375 C 77.25 122.59375 69.351562 123.324219 63.398438 124.078125 C 60.136719 124.488281 57.703125 127.273438 57.71875 130.5625 C 57.742188 135.746094 58.058594 143.128906 59.5625 146.800781 C 59.65625 147.042969 59.757812 147.25 59.859375 147.453125 L 59.957031 147.660156 C 60.152344 148.0625 60.296875 148.386719 60.433594 148.691406 C 60.683594 149.265625 60.867188 149.675781 61.492188 150.730469 C 61.5 150.746094 61.511719 150.761719 61.519531 150.773438 C 64.226562 155.546875 68.0625 159.820312 72.929688 163.472656 C 79.265625 168.234375 85.046875 171.238281 90.601562 172.652344 C 116.542969 179.246094 146.285156 173.984375 154.253906 147.347656 C 156.21875 140.8125 157.90625 131.316406 156.757812 124.246094 C 156.085938 120.066406 154.847656 116.0625 153.082031 112.339844 C 153.054688 112.277344 153.027344 112.214844 153.003906 112.148438 C 153.003906 112.148438 152.738281 111.472656 152.183594 110.550781 C 152.164062 110.519531 152.148438 110.484375 152.128906 110.453125 C 149.082031 104.804688 144.785156 100.117188 139.703125 96.890625 C 131.4375 91.648438 110.652344 92.003906 103.824219 92.121094 C 102.964844 92.132812 102.277344 92.148438 101.808594 92.144531 C 99.929688 92.144531 98.859375 91.421875 98.625 90 L 98.5 89.179688 C 97.597656 83.34375 97.542969 82.992188 97.253906 76.539062 C 97.226562 75.878906 97.460938 75.230469 97.902344 74.742188 C 98.742188 73.8125 98.800781 73.773438 118.386719 72.109375 Z M 118.386719 72.109375 "/>
</g>
</svg>
