<?xml version="1.0" encoding="UTF-8"?>
<svg xmlns="http://www.w3.org/2000/svg" xmlns:xlink="http://www.w3.org/1999/xlink" width="216" height="216" viewBox="0 0 216 216" version="1.1">
<g id="surface1">
<path style=" stroke:none;fill-rule:nonzero;fill:rgb(14.117647%,21.176471%,29.803922%);fill-opacity:1;" d="M 154.5625 125.527344 C 154.566406 125.300781 154.574219 125.070312 154.574219 124.84375 C 154.488281 118.644531 153.414062 113.394531 151.386719 109.273438 C 151.382812 109.265625 151.359375 109.222656 151.359375 109.214844 C 151.234375 108.964844 151.09375 108.695312 150.949219 108.425781 C 150.945312 108.421875 150.925781 108.382812 150.921875 108.378906 C 150.582031 107.761719 150.246094 107.207031 149.898438 106.6875 C 149.71875 106.417969 149.550781 106.183594 149.378906 105.949219 L 149.253906 105.789062 C 149.105469 105.585938 148.957031 105.394531 148.804688 105.207031 L 148.660156 105.03125 C 148.480469 104.8125 148.292969 104.597656 148.097656 104.382812 C 148.085938 104.367188 148.050781 104.328125 148.035156 104.3125 C 147.847656 104.105469 147.632812 103.882812 147.410156 103.664062 L 147.238281 103.496094 C 147.078125 103.339844 146.910156 103.179688 146.738281 103.023438 C 146.664062 102.957031 146.589844 102.890625 146.511719 102.824219 C 146.335938 102.667969 146.167969 102.527344 145.996094 102.382812 L 145.773438 102.203125 C 145.523438 102.003906 145.273438 101.8125 145.011719 101.625 C 135.792969 94.988281 123.203125 95.78125 114.492188 98.738281 C 112.484375 99.417969 110.46875 100.175781 108.492188 100.996094 C 108.40625 101.046875 108.320312 101.09375 108.230469 101.132812 C 108.210938 101.140625 108.195312 101.144531 108.179688 101.152344 C 107.753906 101.328125 107.394531 101.472656 107.070312 101.601562 C 106.28125 101.917969 105.804688 102.109375 105.113281 102.480469 C 105.074219 102.503906 105.03125 102.523438 104.992188 102.542969 C 100.613281 104.59375 96.75 106.894531 93.507812 109.378906 C 92.4375 110.195312 90.871094 110.089844 90.003906 109.058594 C 89.5 108.457031 89.324219 107.695312 89.460938 106.984375 C 89.398438 106.136719 88.980469 103.679688 88.769531 102.453125 C 88.484375 100.785156 88.382812 100.167969 88.363281 99.773438 C 88.1875 96.871094 88.265625 93.988281 88.597656 91.207031 C 89.222656 85.988281 91.125 70.105469 102.453125 66.675781 C 107.300781 65.203125 113.019531 66.398438 117.742188 69.871094 C 120.539062 71.929688 122.699219 74.535156 124.050781 77.367188 C 125.148438 79.679688 127.578125 81.050781 130.125 80.773438 C 134.074219 80.339844 139.660156 79.726562 144.066406 79.242188 C 147.699219 78.84375 150.136719 75.3125 149.21875 71.773438 C 149.023438 71.03125 148.886719 70.511719 148.863281 70.4375 C 146.550781 63.191406 143.640625 57.867188 139.972656 54.15625 C 134.203125 48.3125 125.070312 46.015625 116.078125 46.015625 C 111.117188 46.015625 106.203125 46.714844 101.917969 47.902344 C 91.257812 50.859375 81.804688 56.996094 74.574219 65.65625 C 71.839844 68.925781 69.390625 72.28125 67.296875 75.625 C 67.265625 75.679688 67.230469 75.730469 67.191406 75.78125 C 67.191406 75.78125 66.863281 76.234375 66.554688 76.816406 C 66.535156 76.851562 66.515625 76.886719 66.496094 76.917969 C 60.976562 86.144531 58.0625 95.488281 57.582031 105.492188 C 57.34375 110.492188 57.519531 115.542969 57.722656 119.824219 C 57.746094 120.324219 57.777344 120.824219 57.808594 121.320312 C 58.46875 131.6875 60.699219 140.132812 64.632812 147.144531 C 65.285156 148.320312 65.8125 149.128906 66.238281 149.777344 L 66.480469 150.144531 C 67.21875 151.246094 67.972656 152.265625 68.761719 153.230469 C 77.359375 163.714844 92.597656 173.492188 108.242188 173.496094 C 110.882812 173.496094 113.535156 173.214844 116.167969 172.613281 C 120.75 171.566406 125.324219 169.546875 130.15625 166.441406 C 132.273438 165.082031 134.445312 163.523438 136.988281 161.53125 L 137.304688 161.28125 C 141.058594 158.347656 144.023438 156.035156 146.410156 152.097656 C 150.707031 145.015625 153.335938 137.878906 154.21875 130.878906 C 154.222656 130.839844 154.230469 130.804688 154.234375 130.765625 C 154.582031 128.757812 154.574219 127.3125 154.558594 125.644531 C 154.558594 125.617188 154.558594 125.589844 154.5625 125.5625 Z M 135.078125 133.402344 C 134.539062 137.839844 132.71875 142.328125 129.949219 146.042969 C 124.394531 153.511719 115.40625 158.253906 106.898438 158.253906 C 106.6875 158.253906 106.476562 158.253906 106.265625 158.246094 C 106.226562 158.246094 105.113281 158.214844 103.351562 157.96875 C 103.316406 157.964844 103.285156 157.957031 103.253906 157.953125 C 94.1875 156.324219 87.929688 148.433594 88.039062 138.769531 C 88.199219 125.960938 100.066406 115.964844 111.445312 113.699219 C 116.238281 112.746094 123.15625 112.507812 128.910156 116.792969 C 130.136719 117.707031 131.113281 118.792969 131.820312 120.03125 C 134.570312 123.667969 135.695312 128.285156 135.078125 133.402344 Z M 135.078125 133.402344 "/>
</g>
</svg>
