<?xml version="1.0" encoding="UTF-8"?>
<svg xmlns="http://www.w3.org/2000/svg" xmlns:xlink="http://www.w3.org/1999/xlink" width="216" height="216" viewBox="0 0 216 216" version="1.1">
<g id="surface1">
<path style=" stroke:none;fill-rule:nonzero;fill:rgb(14.117647%,21.176471%,29.803922%);fill-opacity:1;" d="M 128.585938 114.25 C 128.609375 114.203125 128.632812 114.15625 128.660156 114.109375 C 131.574219 108.257812 140.46875 90.5625 143.34375 84.84375 C 143.855469 83.824219 144.1875 82.730469 144.332031 81.601562 C 144.785156 77.980469 145.804688 69.582031 146.664062 62.410156 C 147.359375 56.601562 142.945312 51.441406 137.097656 51.230469 C 121.824219 50.683594 94.746094 49.726562 79.5625 49.277344 C 73.667969 49.101562 68.902344 54.035156 69.285156 59.921875 C 69.484375 62.976562 69.703125 66.277344 69.90625 69.261719 C 70.277344 74.660156 74.871094 78.785156 80.28125 78.570312 C 85.871094 78.347656 92.753906 78.046875 97.675781 77.722656 C 104.359375 77.285156 110.675781 76.875 115.253906 76.765625 C 116.121094 76.746094 116.9375 77.175781 117.410156 77.90625 C 117.882812 78.636719 117.941406 79.558594 117.566406 80.34375 C 117.527344 80.425781 117.476562 80.523438 117.425781 80.632812 C 117.425781 80.632812 117.402344 80.675781 117.402344 80.679688 L 117.199219 81.078125 C 116.011719 83.394531 89.277344 132.59375 75.144531 158.960938 C 71.472656 165.816406 76.691406 174.058594 84.460938 173.671875 L 94.316406 173.179688 C 97.980469 172.996094 101.246094 170.824219 102.835938 167.519531 C 108.988281 154.707031 124.15625 123.160156 128.585938 114.25 Z M 128.585938 114.25 "/>
</g>
</svg>
