<?xml version="1.0" encoding="UTF-8"?>
<svg xmlns="http://www.w3.org/2000/svg" xmlns:xlink="http://www.w3.org/1999/xlink" width="216" height="216" viewBox="0 0 216 216" version="1.1">
<g id="surface1">
<path style=" stroke:none;fill-rule:nonzero;fill:rgb(14.117647%,21.176471%,29.803922%);fill-opacity:1;" d="M 152.765625 147.460938 C 152.796875 147.375 152.835938 147.292969 152.875 147.210938 C 153.09375 146.78125 153.34375 145.894531 153.542969 145.183594 L 153.667969 144.75 C 155.53125 138.230469 155.316406 131.546875 153.074219 126.40625 C 150.359375 120.167969 146.972656 117.316406 141.28125 113.953125 L 141.074219 113.828125 C 140.714844 113.617188 140.34375 113.402344 139.96875 113.1875 L 138.648438 112.429688 C 136.84375 111.394531 134.976562 110.324219 132.945312 109.046875 C 132.222656 108.59375 131.78125 107.800781 131.777344 106.945312 C 131.773438 106.089844 132.207031 105.292969 132.925781 104.828125 C 137.671875 101.773438 141.601562 98.289062 144.929688 94.179688 C 144.949219 94.15625 144.96875 94.132812 144.988281 94.109375 C 146.140625 92.785156 146.441406 92.277344 147.097656 91.164062 C 147.226562 90.953125 147.363281 90.71875 147.515625 90.460938 C 153.007812 80.695312 150.878906 67.296875 145.933594 59.097656 C 139.851562 49 127.984375 43.015625 113.367188 42.675781 C 112.207031 42.667969 111.71875 42.667969 110.707031 42.667969 C 108.914062 42.710938 107.152344 42.832031 105.472656 43.027344 C 92.039062 44.605469 74.859375 49.730469 69.3125 65.179688 C 66.71875 72.394531 66.835938 79.835938 69.652344 87.296875 C 69.917969 88 70.128906 88.542969 70.609375 89.621094 C 71.105469 90.714844 71.664062 91.832031 72.269531 92.929688 C 76.652344 98.953125 82.445312 104.039062 89.035156 107.640625 C 89.855469 108.089844 90.359375 108.960938 90.335938 109.894531 C 90.3125 110.832031 89.769531 111.675781 88.925781 112.082031 C 88.304688 112.386719 87.683594 112.695312 87.070312 113.011719 C 85.214844 113.976562 83.425781 115.015625 81.753906 116.101562 C 81.746094 116.105469 81.742188 116.109375 81.734375 116.117188 C 81.21875 116.453125 80.6875 116.8125 80.109375 117.21875 C 80.101562 117.226562 80.050781 117.257812 80.042969 117.265625 C 79.570312 117.597656 79.085938 117.953125 78.539062 118.371094 L 78.332031 118.53125 C 77.890625 118.867188 77.460938 119.21875 77.027344 119.578125 L 76.664062 119.875 C 76.300781 120.183594 75.933594 120.507812 75.570312 120.835938 C 75.5 120.902344 75.429688 120.960938 75.355469 121.023438 C 75.347656 121.03125 75.339844 121.035156 75.332031 121.042969 C 75.300781 121.078125 75.265625 121.109375 75.230469 121.144531 C 75.140625 121.222656 75.054688 121.304688 74.964844 121.382812 C 74.871094 121.46875 74.773438 121.550781 74.683594 121.636719 C 67.34375 128.585938 63.492188 142.53125 66.441406 151.488281 C 66.765625 152.484375 67.210938 153.515625 67.832031 154.738281 C 68.664062 156.328125 69 156.839844 69.683594 157.792969 C 72.179688 161.210938 79.914062 169.296875 97.371094 170.140625 C 115.261719 171.007812 130.4375 167.828125 142.476562 160.695312 C 146.789062 158.136719 150.542969 153.3125 152.765625 147.460938 Z M 126.8125 150.128906 C 122.847656 155.777344 116.277344 158.960938 109.164062 158.960938 C 107.292969 158.960938 105.390625 158.742188 103.484375 158.289062 C 94.867188 156.246094 88.761719 149.867188 87.550781 141.644531 C 87.546875 141.640625 87.546875 141.640625 87.546875 141.640625 C 87.375 140.4375 87.308594 139.203125 87.351562 137.972656 C 87.355469 137.894531 87.363281 137.816406 87.375 137.738281 C 87.425781 137.328125 87.46875 136.953125 87.511719 136.582031 C 87.566406 136.074219 87.625 135.570312 87.707031 134.984375 C 87.710938 134.941406 87.71875 134.898438 87.726562 134.859375 C 89.160156 127.492188 94.414062 121.324219 101.4375 118.757812 C 109.710938 115.722656 120.355469 114.683594 125.613281 120.773438 C 133.394531 127.222656 132.679688 141.777344 126.8125 150.128906 Z M 131.371094 76.777344 C 130.875 82.074219 128.414062 87.671875 124.617188 92.140625 C 120.472656 97.023438 115.222656 100 109.84375 100.523438 C 109.320312 100.574219 108.785156 100.601562 108.210938 100.601562 C 107.683594 100.601562 107.128906 100.578125 106.523438 100.535156 C 106.480469 100.53125 106.433594 100.527344 106.386719 100.523438 C 106.097656 100.484375 105.882812 100.464844 105.695312 100.449219 C 105.335938 100.414062 104.96875 100.382812 104.5 100.269531 C 94.332031 98.421875 86.871094 89.351562 87.5 79.585938 C 87.734375 76.039062 88.839844 72.535156 90.625 69.691406 C 93.613281 63.566406 100.308594 59.0625 108.128906 57.917969 C 114.808594 56.9375 121.792969 59.023438 126.363281 63.359375 C 130.074219 66.882812 131.855469 71.648438 131.371094 76.777344 Z M 131.371094 76.777344 "/>
</g>
</svg>
