<?xml version="1.0" encoding="UTF-8"?>
<svg xmlns="http://www.w3.org/2000/svg" xmlns:xlink="http://www.w3.org/1999/xlink" width="216" height="216" viewBox="0 0 216 216" version="1.1">
<g id="surface1">
<path style=" stroke:none;fill-rule:nonzero;fill:rgb(14.117647%,21.176471%,29.803922%);fill-opacity:1;" d="M 106.96875 171.484375 C 118.75 169.007812 129.398438 161.875 137.765625 150.851562 C 145.492188 140.664062 150.515625 128.121094 151.902344 115.53125 C 152.332031 111.636719 152.550781 107.664062 152.542969 103.726562 C 152.542969 103.683594 152.546875 103.640625 152.546875 103.597656 C 152.585938 102.816406 152.558594 102.261719 152.515625 101.339844 C 152.5 101.019531 152.484375 100.667969 152.46875 100.261719 C 152.066406 89.660156 149.988281 80.300781 146.296875 72.4375 C 142.066406 63.425781 135.785156 56.652344 127.625 52.296875 C 123.210938 49.9375 117.785156 48.125 113.097656 47.449219 C 111.34375 47.261719 111.171875 47.242188 109.496094 47.140625 C 95.382812 46.777344 82.519531 53.664062 75.074219 65.5625 C 73.527344 68.035156 72.25 70.71875 71.285156 73.546875 C 70.496094 75.785156 70.203125 76.613281 69.824219 79.117188 C 69.820312 79.140625 69.816406 79.167969 69.8125 79.191406 C 69.734375 79.613281 69.667969 80.039062 69.605469 80.460938 L 69.542969 80.902344 C 69.503906 81.1875 69.464844 81.476562 69.433594 81.765625 L 69.378906 82.242188 C 69.339844 82.621094 69.304688 83 69.277344 83.382812 C 69.265625 83.546875 69.253906 83.703125 69.246094 83.863281 L 69.234375 84.042969 C 69.226562 84.226562 69.214844 84.410156 69.207031 84.59375 C 69.195312 84.855469 69.1875 85.113281 69.179688 85.367188 L 69.175781 85.675781 C 68.949219 99.738281 76.167969 112.453125 88.015625 118.855469 C 100.0625 125.355469 114.367188 122.136719 122.027344 111.199219 C 122.675781 110.269531 123.871094 109.894531 124.933594 110.285156 C 126 110.675781 126.667969 111.734375 126.5625 112.863281 C 126.246094 116.308594 125.875 119.355469 125.433594 122.175781 C 124.660156 129.203125 123.613281 136.597656 120.121094 143.027344 C 116.027344 150.609375 111.097656 154.355469 105.046875 154.472656 C 102.71875 154.519531 100.507812 154.304688 98.472656 153.828125 C 98.449219 153.824219 98.425781 153.816406 98.402344 153.8125 C 98.175781 153.753906 97.976562 153.703125 97.789062 153.65625 C 96.839844 153.417969 96.089844 153.230469 94.675781 152.542969 C 92.09375 151.347656 90.027344 149.632812 88.527344 147.4375 C 87.398438 145.796875 86.675781 143.929688 86.363281 141.851562 C 85.851562 138.488281 82.984375 135.996094 79.585938 135.929688 C 76.640625 135.871094 73.4375 135.789062 70.660156 135.707031 C 66.257812 135.574219 62.777344 139.5 63.539062 143.835938 C 64.261719 147.945312 65.929688 152.125 68.496094 156.15625 C 68.703125 156.386719 68.867188 156.609375 68.984375 156.765625 C 69.289062 157.171875 69.6875 157.71875 70.082031 158.269531 C 70.726562 159.167969 71.367188 160.070312 71.5625 160.351562 C 79.164062 169.355469 94.363281 174.136719 106.96875 171.484375 Z M 115.308594 97.519531 C 114.332031 98.253906 113.320312 98.902344 112.300781 99.457031 C 108.425781 101.535156 104.058594 102.464844 99.984375 102.082031 C 99.726562 102.066406 99.5 102.050781 99.300781 102.027344 C 98.777344 101.972656 98.421875 101.890625 98.058594 101.796875 C 97.882812 101.753906 97.777344 101.726562 97.59375 101.699219 C 97.515625 101.6875 97.4375 101.671875 97.359375 101.652344 C 91.859375 100.289062 87.839844 96.449219 86.042969 90.839844 C 84.230469 85.199219 87.300781 75.550781 91.050781 71.324219 C 95.453125 66.359375 102.847656 64.363281 109.886719 66.234375 C 116.480469 67.996094 121.171875 72.910156 122.441406 79.386719 C 123.78125 86.226562 121.046875 93.171875 115.308594 97.519531 Z M 115.308594 97.519531 "/>
</g>
</svg>
