<?xml version="1.0" encoding="UTF-8"?>
<svg xmlns="http://www.w3.org/2000/svg" xmlns:xlink="http://www.w3.org/1999/xlink" width="216" height="216" viewBox="0 0 216 216" version="1.1">
<g id="surface1">
<path style=" stroke:none;fill-rule:nonzero;fill:rgb(8.627451%,13.333333%,18.039216%);fill-opacity:1;" d="M 149.878906 148.703125 C 136.769531 120.144531 134.566406 89.457031 133.84375 63.105469 C 129.707031 60.203125 125.113281 61.484375 122.375 65.582031 C 122.367188 68.683594 122.425781 71.855469 122.539062 75.082031 C 120.703125 74.003906 118.746094 73.054688 116.289062 72.300781 C 116.289062 72.304688 116.289062 72.304688 116.289062 72.308594 C 86.527344 61.433594 59.589844 95.789062 67.191406 125.488281 C 74.820312 155.300781 115.667969 165.074219 133.789062 140.585938 C 135.308594 144.960938 136.988281 149.144531 138.839844 153.070312 C 140.492188 156.570312 151.761719 152.796875 149.878906 148.703125 Z M 76.597656 120.488281 C 71.800781 99.59375 90.292969 66.597656 112.796875 81.050781 C 112.902344 81.121094 113.019531 81.183594 113.136719 81.242188 C 117.261719 83.269531 120.699219 86.078125 123.441406 89.394531 C 124.5 101.226562 126.378906 113.316406 129.160156 124.742188 C 128.480469 126.609375 127.652344 128.425781 126.65625 130.164062 C 125.257812 132.601562 124.527344 133.683594 122.882812 136.042969 C 122.78125 136.171875 122.6875 136.304688 122.605469 136.441406 C 108.894531 159.539062 81.210938 140.570312 76.597656 120.488281 Z M 76.597656 120.488281 "/>
<path style=" stroke:none;fill-rule:nonzero;fill:rgb(8.627451%,13.333333%,18.039216%);fill-opacity:1;" d="M 105.789062 156.550781 C 103.085938 156.550781 100.324219 156.28125 97.53125 155.734375 C 81.460938 152.589844 69.0625 141.195312 65.175781 126.003906 C 60.925781 109.390625 66.910156 90.230469 80.070312 78.320312 C 90.765625 68.644531 104.164062 65.726562 116.851562 70.296875 L 116.898438 70.3125 C 118.101562 70.679688 119.234375 71.101562 120.359375 71.605469 C 120.3125 69.554688 120.289062 67.535156 120.292969 65.578125 L 120.296875 64.949219 L 120.644531 64.425781 C 122.386719 61.820312 124.828125 60.109375 127.515625 59.609375 C 130.082031 59.128906 132.679688 59.75 135.039062 61.402344 L 135.894531 62.003906 L 135.921875 63.050781 C 136.6875 90.816406 139.132812 120.308594 151.769531 147.832031 C 153.015625 150.542969 151.351562 153.441406 147.53125 155.21875 C 143.5625 157.0625 138.511719 157.246094 136.957031 153.957031 C 135.601562 151.078125 134.300781 147.988281 133.078125 144.730469 C 126.113281 152.390625 116.421875 156.550781 105.789062 156.550781 Z M 134.460938 136.179688 L 135.757812 139.902344 C 137.285156 144.304688 138.957031 148.4375 140.722656 152.179688 C 141.300781 152.691406 144.789062 152.367188 147.066406 150.699219 C 147.734375 150.210938 148.066406 149.734375 147.988281 149.570312 C 135.214844 121.738281 132.605469 92.167969 131.796875 64.289062 C 130.632812 63.6875 129.433594 63.480469 128.28125 63.699219 C 126.859375 63.960938 125.519531 64.863281 124.457031 66.25 C 124.457031 69.074219 124.511719 72.015625 124.621094 75.007812 L 124.753906 78.789062 L 121.488281 76.875 C 120.054688 76.035156 118.726562 75.386719 117.339844 74.859375 L 117.320312 74.898438 L 115.574219 74.261719 C 104.339844 70.15625 92.417969 72.761719 82.859375 81.40625 C 70.816406 92.308594 65.328125 109.8125 69.207031 124.96875 C 72.691406 138.59375 83.851562 148.816406 98.332031 151.652344 C 111.828125 154.292969 124.460938 149.691406 132.117188 139.347656 Z M 106 149.121094 C 104.894531 149.121094 103.773438 149.03125 102.625 148.851562 C 90.246094 146.917969 77.660156 134.402344 74.570312 120.953125 C 71.261719 106.546875 78.199219 87.535156 89.722656 79.433594 C 97.234375 74.152344 105.828125 74.105469 113.921875 79.300781 C 113.960938 79.328125 114.007812 79.351562 114.054688 79.375 C 118.300781 81.460938 121.996094 84.382812 125.042969 88.066406 L 125.453125 88.566406 L 125.511719 89.207031 C 126.621094 101.574219 128.527344 113.363281 131.179688 124.25 L 131.332031 124.859375 L 131.113281 125.453125 C 130.375 127.484375 129.480469 129.417969 128.457031 131.199219 C 127.027344 133.695312 126.261719 134.835938 124.589844 137.234375 L 124.5 137.347656 C 124.460938 137.398438 124.425781 137.445312 124.394531 137.5 C 119.894531 145.082031 113.449219 149.121094 106 149.121094 Z M 78.625 120.023438 C 81.320312 131.753906 92.605469 143.074219 103.269531 144.742188 C 110.445312 145.863281 116.515625 142.625 120.816406 135.378906 C 120.929688 135.183594 121.0625 134.988281 121.214844 134.796875 C 122.816406 132.503906 123.507812 131.472656 124.847656 129.128906 C 125.65625 127.722656 126.375 126.207031 126.988281 124.609375 C 124.410156 113.890625 122.542969 102.335938 121.425781 90.234375 C 118.839844 87.234375 115.746094 84.839844 112.21875 83.109375 C 112.03125 83.015625 111.847656 82.914062 111.675781 82.804688 C 103.246094 77.390625 96.386719 79.832031 92.117188 82.835938 C 82.011719 89.941406 75.707031 107.316406 78.625 120.023438 Z M 78.625 120.023438 "/>
</g>
</svg>
