<svg xmlns="http://www.w3.org/2000/svg" width="216" height="216" viewBox="0 0 216 216" version="1.1">
<g id="surface1">
<path style=" stroke:none;fill-rule:nonzero;fill:rgb(8.627451%,13.333333%,18.039216%);fill-opacity:1;" d="M 145.53125 125.34375 C 146.253906 106.355469 132.75 93.777344 115.339844 90.363281 C 105.117188 88.363281 93.132812 89.777344 84.480469 95.710938 C 83.015625 76.496094 81.902344 60.171875 80.675781 40.992188 C 80.394531 36.605469 70.167969 37.097656 70.449219 41.480469 C 71.90625 64.214844 79.039062 153.050781 81.535156 175.078125 C 82.035156 179.484375 92.242188 178.742188 91.757812 174.429688 C 91.597656 172.980469 91.445312 171.527344 91.289062 170.070312 C 100.566406 172.199219 113.949219 169.292969 119.769531 167.484375 C 138.222656 161.753906 144.863281 142.960938 145.53125 125.34375 Z M 122.789062 156.761719 C 118.765625 161.566406 112.957031 163.585938 107.046875 164.898438 C 105.742188 165.191406 91.476562 165.976562 89.640625 161.519531 C 87.816406 144.210938 86.246094 126.859375 84.855469 109.5 C 90.734375 96.984375 106.179688 94.933594 117.808594 100.640625 C 128.4375 105.855469 131.660156 116.652344 132.507812 127.582031 C 133.304688 137.832031 129.308594 148.984375 122.789062 156.761719 Z M 122.789062 156.761719 " />
<path style=" stroke:none;fill-rule:nonzero;fill:rgb(8.627451%,13.333333%,18.039216%);fill-opacity:1;" d="M 86.40625 180.230469 C 83.011719 180.230469 79.746094 178.65625 79.367188 175.324219 C 76.847656 153.085938 69.683594 63.667969 68.269531 41.621094 C 68.15625 39.851562 69.015625 38.222656 70.628906 37.152344 C 71.800781 36.375 73.378906 35.886719 75.0625 35.777344 C 76.800781 35.667969 78.488281 35.960938 79.820312 36.609375 C 81.632812 37.496094 82.738281 39.039062 82.855469 40.851562 C 84.128906 60.738281 85.171875 75.855469 86.386719 92.007812 C 94.644531 87.601562 105.339844 86.179688 115.757812 88.222656 C 135.878906 92.164062 148.421875 106.769531 147.710938 125.425781 C 146.84375 148.363281 136.894531 164.453125 120.417969 169.570312 C 114.582031 171.382812 103.023438 173.851562 93.765625 172.710938 C 93.820312 173.203125 93.871094 173.695312 93.925781 174.1875 C 94.269531 177.246094 91.691406 179.703125 87.65625 180.160156 C 87.242188 180.203125 86.824219 180.230469 86.40625 180.230469 Z M 75.773438 40.121094 C 75.632812 40.121094 75.488281 40.125 75.34375 40.132812 C 74.433594 40.191406 73.574219 40.4375 73.042969 40.792969 C 72.609375 41.078125 72.621094 41.253906 72.628906 41.339844 C 74.039062 63.359375 81.191406 152.640625 83.703125 174.835938 C 83.773438 175.449219 85.335938 176.027344 87.164062 175.820312 C 88.679688 175.648438 89.628906 175.015625 89.589844 174.671875 C 89.476562 173.664062 89.367188 172.652344 89.261719 171.640625 L 88.789062 167.257812 L 91.777344 167.945312 C 100.5 169.941406 113.476562 167.15625 119.121094 165.402344 C 139.859375 158.960938 142.972656 135.183594 143.347656 125.257812 C 143.972656 108.867188 132.816406 96.011719 114.917969 92.503906 C 104.40625 90.445312 93.21875 92.363281 85.714844 97.511719 L 82.589844 99.652344 L 82.304688 95.875 C 80.964844 78.339844 79.863281 62.480469 78.496094 41.128906 C 78.492188 41.050781 78.476562 40.8125 77.902344 40.535156 C 77.359375 40.269531 76.585938 40.121094 75.773438 40.121094 Z M 102.148438 167.296875 C 96.863281 167.296875 89.34375 166.527344 87.621094 162.351562 L 87.503906 162.0625 L 87.46875 161.75 C 85.738281 145.289062 84.167969 128.257812 82.679688 109.675781 L 82.632812 109.097656 L 82.878906 108.574219 C 85.488281 103.015625 89.972656 98.984375 95.84375 96.921875 C 102.90625 94.441406 111.476562 95.097656 118.769531 98.679688 C 128.339844 103.375 133.546875 112.773438 134.6875 127.414062 C 135.5 137.886719 131.582031 149.671875 124.460938 158.164062 C 119.835938 163.6875 113.304688 165.746094 107.519531 167.03125 C 107.460938 167.042969 105.167969 167.296875 102.148438 167.296875 Z M 91.769531 160.882812 C 93.207031 162.882812 103.417969 163.355469 106.589844 162.765625 C 111.640625 161.644531 117.328125 159.882812 121.117188 155.359375 C 127.527344 147.707031 131.0625 137.128906 130.332031 127.75 C 129.308594 114.601562 125.023438 106.613281 116.847656 102.597656 C 110.582031 99.523438 103.269531 98.941406 97.292969 101.042969 C 92.730469 102.644531 89.210938 105.707031 87.078125 109.921875 C 88.539062 128.082031 90.074219 144.761719 91.769531 160.882812 Z M 91.769531 160.882812 " />
</g>
</svg>