<svg xmlns="http://www.w3.org/2000/svg" width="216" height="216" viewBox="0 0 216 216" version="1.1">
<g id="surface1">
<path style=" stroke:none;fill-rule:nonzero;fill:rgb(8.627451%,13.333333%,18.039216%);fill-opacity:1;" d="M 130.597656 133.261719 C 116.210938 157.5 87.164062 137.597656 82.320312 116.523438 C 77.285156 94.601562 96.691406 59.976562 120.304688 75.140625 C 124.445312 77.800781 137.917969 73.742188 132.3125 70.144531 C 98.03125 48.125 63.769531 87.84375 72.449219 121.769531 C 80.777344 154.316406 126.839844 164.109375 144.523438 134.328125 C 147.339844 129.574219 133.304688 128.699219 130.597656 133.261719 Z M 130.597656 133.261719 " />
<path style=" stroke:none;fill-rule:nonzero;fill:rgb(8.627451%,13.333333%,18.039216%);fill-opacity:1;" d="M 112.992188 154.363281 C 110.878906 154.363281 108.726562 154.207031 106.542969 153.894531 C 88.804688 151.347656 74.59375 138.949219 70.335938 122.308594 C 65.441406 103.183594 73.664062 80.804688 89.882812 69.097656 C 103.300781 59.414062 119.195312 59.125 133.492188 68.308594 C 135.515625 69.605469 135.886719 71.101562 135.835938 72.125 C 135.785156 73.257812 135.160156 74.898438 132.484375 76.277344 C 129.210938 77.96875 122.570312 79.191406 119.125 76.980469 C 110.285156 71.300781 103.085938 73.863281 98.605469 77.015625 C 88 84.46875 81.386719 102.703125 84.449219 116.035156 C 87.277344 128.347656 99.121094 140.226562 110.308594 141.972656 C 117.839844 143.148438 124.207031 139.75 128.71875 132.148438 C 131.425781 127.582031 140.835938 127.136719 144.761719 129.464844 C 147.054688 130.824219 147.714844 133.226562 146.402344 135.4375 C 139.203125 147.5625 127.007812 154.363281 112.992188 154.363281 Z M 112.007812 66.027344 C 105.226562 66.027344 98.539062 68.234375 92.4375 72.636719 C 77.613281 83.335938 70.097656 103.769531 74.566406 121.226562 C 78.382812 136.152344 91.179688 147.277344 107.164062 149.574219 C 122.015625 151.707031 135.261719 145.609375 142.617188 133.261719 C 142.03125 132.878906 140.242188 132.300781 137.585938 132.476562 C 134.734375 132.664062 132.9375 133.59375 132.472656 134.378906 C 127.050781 143.511719 118.941406 147.738281 109.632812 146.285156 C 96.640625 144.257812 83.4375 131.125 80.195312 117.011719 C 76.722656 101.894531 84.003906 81.945312 96.09375 73.445312 C 103.976562 67.902344 112.996094 67.851562 121.484375 73.304688 C 122.332031 73.847656 124.675781 74.0625 127.515625 73.421875 C 129.386719 73 130.578125 72.40625 131.15625 71.996094 C 131.148438 71.992188 131.140625 71.988281 131.132812 71.984375 C 124.953125 68.011719 118.4375 66.027344 112.007812 66.027344 Z M 112.007812 66.027344 " />
</g>
</svg>