<svg xmlns="http://www.w3.org/2000/svg" width="216" height="216" viewBox="0 0 216 216" version="1.1">
<g id="surface1">
<path style=" stroke:none;fill-rule:nonzero;fill:rgb(8.627451%,13.333333%,18.039216%);fill-opacity:1;" d="M 141.007812 26.113281 C 138.691406 26.015625 137.09375 26.867188 135.824219 28.171875 C 134.285156 47.03125 131.933594 70.804688 130.96875 81.757812 C 122.476562 77.511719 114.699219 75.308594 103.652344 77.929688 C 85.390625 82.257812 71.960938 96.679688 69.648438 113.617188 C 64.296875 152.785156 97.988281 170.53125 123.496094 159.011719 C 123.472656 159.140625 123.460938 159.273438 123.445312 159.402344 C 122.644531 165.886719 132.78125 166.824219 133.574219 160.433594 C 135.925781 141.316406 143.550781 69.070312 146.875 30.269531 C 146.058594 27.894531 144.070312 26.242188 141.007812 26.113281 Z M 124.476562 146.371094 C 123.617188 146.550781 108.707031 160.9375 91.324219 150.863281 C 79.730469 144.140625 76.097656 131.855469 77.269531 119.589844 C 79.503906 96.066406 103.652344 72.050781 129.046875 89.3125 C 129.273438 89.464844 129.511719 89.691406 129.824219 89.863281 C 128.242188 108.695312 126.535156 127.589844 124.476562 146.371094 Z M 124.476562 146.371094 " />
<path style=" stroke:none;fill-rule:nonzero;fill:rgb(8.627451%,13.333333%,18.039216%);fill-opacity:1;" d="M 128.460938 166.953125 C 128.132812 166.953125 127.808594 166.933594 127.488281 166.894531 C 124.851562 166.570312 122.355469 164.902344 121.515625 162.171875 C 108.59375 166.886719 94.167969 164.898438 83.207031 156.714844 C 70.71875 147.394531 64.988281 131.578125 67.484375 113.320312 C 69.9375 95.355469 84.269531 80.28125 103.148438 75.804688 C 113.578125 73.332031 121.28125 74.941406 129.074219 78.441406 C 129.382812 75.089844 129.765625 70.996094 130.191406 66.457031 C 131.28125 54.832031 132.640625 40.367188 133.648438 27.992188 L 133.710938 27.210938 L 134.261719 26.648438 C 136.152344 24.703125 138.390625 23.828125 141.101562 23.929688 C 144.851562 24.089844 147.78125 26.195312 148.9375 29.558594 L 149.089844 29.996094 L 149.050781 30.453125 C 145.707031 69.46875 138.074219 141.730469 135.742188 160.699219 C 135.222656 164.902344 131.769531 166.953125 128.460938 166.953125 Z M 126.285156 155.355469 L 125.652344 159.355469 C 125.636719 159.4375 125.628906 159.523438 125.621094 159.609375 C 125.320312 162.039062 127.386719 162.484375 128.023438 162.5625 C 129.15625 162.703125 131.136719 162.355469 131.410156 160.164062 C 133.730469 141.304688 141.296875 69.675781 144.65625 30.589844 C 144.015625 29.160156 142.730469 28.371094 140.917969 28.292969 L 140.914062 28.292969 C 139.71875 28.246094 138.789062 28.519531 137.929688 29.199219 C 136.925781 41.40625 135.605469 55.496094 134.539062 66.867188 C 133.96875 72.925781 133.476562 78.191406 133.144531 81.949219 L 132.863281 85.148438 L 129.992188 83.710938 C 121.796875 79.613281 114.617188 77.570312 104.15625 80.054688 C 87.019531 84.117188 74.019531 97.722656 71.808594 113.910156 C 68.699219 136.6875 79.25 148.3125 85.820312 153.214844 C 96.332031 161.058594 110.421875 162.519531 122.597656 157.023438 Z M 104.007812 156.605469 C 99.625 156.605469 94.984375 155.507812 90.230469 152.75 C 79.195312 146.351562 73.679688 134.1875 75.097656 119.378906 C 76.507812 104.511719 86.191406 90.035156 98.648438 84.175781 C 108.835938 79.382812 120.066406 80.566406 130.273438 87.507812 C 130.394531 87.585938 130.519531 87.679688 130.644531 87.78125 C 130.710938 87.835938 130.78125 87.898438 130.867188 87.945312 L 132.121094 88.628906 L 132 90.046875 C 130.078125 112.9375 128.425781 130.382812 126.648438 146.609375 L 126.472656 148.1875 L 125.289062 148.433594 C 125.167969 148.523438 125.015625 148.636719 124.835938 148.773438 C 119.449219 152.789062 112.179688 156.605469 104.007812 156.605469 Z M 111.449219 85.621094 C 107.140625 85.621094 103.425781 86.753906 100.503906 88.128906 C 89.378906 93.359375 80.71875 106.382812 79.445312 119.792969 C 78.710938 127.457031 79.421875 141.4375 92.417969 148.972656 C 101.695312 154.351562 111.722656 153.105469 122.222656 145.273438 C 122.292969 145.222656 122.355469 145.171875 122.417969 145.128906 C 124.117188 129.519531 125.707031 112.703125 127.542969 90.929688 C 121.644531 86.992188 116.1875 85.621094 111.449219 85.621094 Z M 111.449219 85.621094 " />
</g>
</svg>