<svg xmlns="http://www.w3.org/2000/svg" width="216" height="216" viewBox="0 0 216 216" version="1.1">
<g id="surface1">
<path style=" stroke:none;fill-rule:nonzero;fill:rgb(8.627451%,13.333333%,18.039216%);fill-opacity:1;" d="M 130.148438 125.757812 C 125.824219 139.601562 111.738281 147.867188 96.65625 138.351562 C 87.214844 132.394531 87 122.144531 86.484375 111.890625 C 91.011719 111.078125 116.710938 107.980469 125.652344 107.027344 C 128.449219 106.726562 135.582031 105.246094 135.28125 101.703125 C 134.175781 88.855469 130.230469 59.863281 107.996094 65.441406 C 87.078125 70.691406 77.675781 88.167969 75.316406 106.722656 C 73.011719 124.816406 80.058594 148.5625 102.953125 151.03125 C 121.75 153.0625 136.210938 138.839844 140.949219 123.6875 C 142.460938 118.824219 131.175781 122.472656 130.148438 125.757812 Z M 113.125 74.921875 C 122.15625 79.382812 122.878906 91.089844 123.632812 100.253906 C 118.980469 100.636719 114.28125 101.339844 109.964844 101.945312 C 102.242188 103.039062 94.019531 104.042969 86.347656 105.742188 C 86.527344 95.039062 99.839844 68.363281 113.125 74.921875 Z M 113.125 74.921875 " />
<path style=" stroke:none;fill-rule:nonzero;fill:rgb(8.627451%,13.333333%,18.039216%);fill-opacity:1;" d="M 106.5 153.410156 C 105.257812 153.410156 103.996094 153.339844 102.714844 153.203125 C 93.945312 152.257812 86.820312 148.382812 81.535156 141.6875 C 73.359375 131.335938 71.84375 116.695312 73.152344 106.445312 C 77.097656 75.429688 96.34375 66.113281 107.464844 63.324219 C 113.734375 61.75 119.203125 62.585938 123.722656 65.8125 C 131.367188 71.261719 135.855469 82.9375 137.457031 101.515625 C 137.546875 102.582031 137.414062 107.957031 125.886719 109.195312 C 117.90625 110.046875 96.210938 112.652344 88.761719 113.738281 C 89.226562 122.933594 89.917969 131.519531 97.820312 136.503906 C 103.871094 140.324219 110.011719 141.261719 115.582031 139.207031 C 121.382812 137.074219 125.929688 131.933594 128.0625 125.105469 L 128.0625 125.101562 C 129.25 121.3125 136.996094 118.253906 140.644531 119.394531 C 142.785156 120.066406 143.742188 122.050781 143.03125 124.335938 C 138.359375 139.277344 124.535156 153.410156 106.5 153.410156 Z M 113.363281 66.914062 C 111.847656 66.914062 110.242188 67.128906 108.527344 67.558594 C 85.136719 73.429688 79.035156 94.789062 77.480469 107 C 76.289062 116.367188 77.625 129.691406 84.960938 138.980469 C 89.492188 144.722656 95.625 148.046875 103.183594 148.863281 C 120.527344 150.734375 134.117188 137.582031 138.722656 123.480469 C 136.828125 123.515625 132.742188 125.269531 132.226562 126.421875 C 129.683594 134.550781 124.167969 140.703125 117.089844 143.304688 C 110.296875 145.808594 102.628906 144.703125 95.488281 140.195312 C 85.386719 133.824219 84.859375 123.21875 84.351562 112.964844 L 84.207031 110.078125 L 86.097656 109.742188 C 90.71875 108.910156 116.285156 105.828125 125.421875 104.855469 C 129.761719 104.386719 133.175781 102.726562 133.105469 101.886719 C 131.644531 84.90625 127.632812 73.960938 121.1875 69.367188 C 118.894531 67.726562 116.304688 66.914062 113.363281 66.914062 Z M 84.121094 108.472656 L 84.167969 105.707031 C 84.308594 97.320312 91.902344 79.882812 101.710938 73.902344 C 105.890625 71.355469 110.171875 71.03125 114.09375 72.964844 C 123.992188 77.855469 124.96875 89.769531 125.75 99.34375 L 125.988281 102.25 L 123.8125 102.429688 C 119.769531 102.761719 115.726562 103.335938 111.8125 103.890625 L 110.269531 104.105469 C 108.957031 104.292969 107.628906 104.476562 106.289062 104.660156 C 99.804688 105.554688 93.105469 106.480469 86.820312 107.875 Z M 108.859375 76.082031 C 107.296875 76.082031 105.679688 76.597656 103.984375 77.632812 C 96.5625 82.15625 90.234375 94.957031 88.824219 102.996094 C 94.378906 101.898438 100.117188 101.105469 105.691406 100.335938 C 107.023438 100.152344 108.351562 99.96875 109.660156 99.785156 L 111.199219 99.566406 C 114.480469 99.101562 117.855469 98.625 121.28125 98.277344 C 120.5625 89.730469 119.4375 80.476562 112.160156 76.882812 C 111.078125 76.347656 109.980469 76.082031 108.859375 76.082031 Z M 108.859375 76.082031 " />
</g>
</svg>