<svg xmlns="http://www.w3.org/2000/svg" width="216" height="216" viewBox="0 0 216 216" version="1.1">
<g id="surface1">
<path style=" stroke:none;fill-rule:nonzero;fill:rgb(8.627451%,13.333333%,18.039216%);fill-opacity:1;" d="M 133.398438 49.117188 C 129.671875 39.902344 121.832031 31.476562 110.851562 34.414062 C 98.605469 37.703125 94.035156 50.066406 92.941406 61.523438 C 92.242188 68.863281 92.351562 76.421875 92.75 84.023438 C 92.351562 84.027344 91.953125 84.039062 91.554688 84.023438 C 89.335938 83.9375 86.640625 84.335938 84.613281 85.28125 C 84.199219 85.378906 83.800781 85.523438 83.539062 85.714844 C 82.390625 86.550781 82.320312 88.320312 82.476562 89.601562 C 82.746094 91.722656 84.640625 91.078125 86.375 91.027344 C 86.511719 91.023438 86.660156 91.011719 86.800781 91.007812 C 88.921875 90.988281 91.039062 90.9375 93.15625 90.867188 C 93.742188 99.195312 94.523438 107.511719 94.914062 115.558594 C 95.765625 133.285156 97.441406 151.019531 98.011719 168.746094 C 98.171875 173.601562 107.816406 171.953125 107.679688 167.925781 C 106.9375 144.703125 104.714844 121.527344 104.058594 98.292969 C 103.992188 96.015625 103.871094 93.742188 103.742188 91.46875 L 103.765625 91.46875 C 106.820312 91.503906 110.898438 92.429688 113.828125 91.445312 C 114.796875 91.121094 115.742188 90.480469 116.5 89.71875 C 116.636719 89.621094 116.792969 89.554688 116.914062 89.445312 C 117.472656 88.964844 117.761719 88.414062 117.808594 87.902344 C 118.585938 86.210938 118.117188 84.566406 115.007812 84.457031 C 111.089844 84.320312 107.175781 84.136719 103.265625 84.03125 C 102.808594 77.296875 102.34375 70.5625 102.464844 63.820312 C 102.558594 58.304688 102.585938 55.945312 104.589844 50.808594 C 109.613281 37.949219 120.351562 43.085938 123.828125 51.683594 C 125.496094 55.800781 134.984375 53.042969 133.398438 49.117188 Z M 133.398438 49.117188 " />
<path style=" stroke:none;fill-rule:nonzero;fill:rgb(8.627451%,13.333333%,18.039216%);fill-opacity:1;" d="M 101.976562 173.921875 C 100.765625 173.921875 99.558594 173.679688 98.503906 173.117188 C 96.839844 172.230469 95.894531 170.703125 95.832031 168.816406 C 95.503906 158.691406 94.804688 148.375 94.125 138.398438 C 93.621094 130.949219 93.097656 123.25 92.730469 115.664062 C 92.480469 110.4375 92.050781 104.96875 91.632812 99.679688 C 91.460938 97.496094 91.289062 95.304688 91.128906 93.113281 C 89.621094 93.152344 88.199219 93.179688 86.820312 93.1875 L 86.742188 93.195312 C 86.632812 93.203125 86.523438 93.207031 86.417969 93.210938 C 86.171875 93.214844 85.898438 93.242188 85.628906 93.265625 C 80.789062 93.707031 80.429688 90.820312 80.3125 89.875 C 79.984375 87.199219 80.675781 85.097656 82.253906 83.949219 C 82.679688 83.640625 83.230469 83.390625 83.886719 83.214844 C 85.746094 82.386719 88.121094 81.894531 90.460938 81.835938 C 90.097656 73.6875 90.199219 67.28125 90.769531 61.316406 C 92.269531 45.582031 99.199219 35.28125 110.289062 32.308594 C 118.429688 30.128906 129.308594 33.183594 135.421875 48.300781 C 136.515625 51.007812 134.953125 53.757812 131.527344 55.144531 C 127.871094 56.621094 123.234375 56.039062 121.804688 52.503906 C 120.097656 48.28125 116.515625 45.230469 113.277344 45.230469 L 113.25 45.230469 C 109.824219 45.25 107.753906 48.707031 106.625 51.605469 C 104.777344 56.335938 104.742188 58.347656 104.648438 63.722656 L 104.644531 63.855469 C 104.539062 69.847656 104.90625 75.953125 105.308594 81.90625 C 107.085938 81.964844 108.863281 82.035156 110.644531 82.109375 C 112.125 82.167969 113.605469 82.226562 115.085938 82.277344 C 117.875 82.375 119.15625 83.523438 119.738281 84.46875 C 120.445312 85.617188 120.507812 87.039062 119.921875 88.507812 C 119.730469 89.472656 119.175781 90.382812 118.332031 91.105469 C 118.171875 91.25 117.988281 91.367188 117.851562 91.449219 C 116.851562 92.398438 115.679688 93.128906 114.519531 93.515625 C 112.054688 94.34375 109.15625 94.078125 106.597656 93.84375 C 106.414062 93.828125 106.234375 93.8125 106.054688 93.796875 C 106.132812 95.246094 106.199219 96.738281 106.242188 98.230469 C 106.578125 110.140625 107.339844 122.25 108.078125 133.964844 C 108.777344 145.0625 109.5 156.539062 109.863281 167.855469 C 109.925781 169.671875 108.910156 171.367188 107.085938 172.503906 C 105.730469 173.347656 103.847656 173.921875 101.976562 173.921875 Z M 95.183594 88.613281 L 95.332031 90.714844 C 95.535156 93.59375 95.761719 96.46875 95.988281 99.335938 C 96.40625 104.65625 96.835938 110.160156 97.09375 115.453125 C 97.457031 122.996094 97.976562 130.675781 98.484375 138.101562 C 99.164062 148.117188 99.867188 158.472656 100.195312 168.675781 C 100.207031 168.988281 100.289062 169.121094 100.5625 169.265625 C 101.535156 169.789062 103.546875 169.566406 104.777344 168.796875 C 105.214844 168.523438 105.503906 168.203125 105.5 168 C 105.140625 156.746094 104.417969 145.304688 103.722656 134.238281 C 102.980469 122.488281 102.214844 110.339844 101.878906 98.355469 C 101.8125 96.066406 101.6875 93.753906 101.5625 91.59375 L 101.429688 89.285156 L 103.742188 89.285156 C 104.8125 89.296875 105.871094 89.394531 106.992188 89.496094 C 109.226562 89.699219 111.535156 89.910156 113.132812 89.375 C 113.730469 89.175781 114.394531 88.738281 114.953125 88.175781 L 115.226562 87.945312 C 115.328125 87.871094 115.433594 87.804688 115.542969 87.742188 C 115.59375 87.691406 115.625 87.652344 115.640625 87.632812 L 115.667969 87.335938 L 115.824219 86.992188 C 115.863281 86.910156 115.890625 86.835938 115.910156 86.777344 C 115.734375 86.722656 115.429688 86.65625 114.933594 86.640625 C 113.445312 86.589844 111.957031 86.527344 110.46875 86.46875 C 108.046875 86.375 105.628906 86.277344 103.210938 86.214844 L 101.222656 86.160156 L 101.078125 84 C 100.625 77.390625 100.160156 70.558594 100.28125 63.777344 L 100.28125 63.644531 C 100.378906 58.207031 100.425781 55.476562 102.554688 50.015625 C 105.65625 42.089844 110.570312 40.878906 113.222656 40.863281 L 113.277344 40.863281 C 118.304688 40.863281 123.46875 44.96875 125.851562 50.867188 C 126.089844 51.453125 127.246094 51.613281 128.222656 51.511719 C 130.066406 51.316406 131.328125 50.359375 131.394531 49.992188 L 133.398438 49.117188 L 131.375 49.9375 C 129.769531 45.96875 123.585938 33.269531 111.417969 36.523438 C 99.003906 39.851562 95.875 53.746094 95.117188 61.730469 C 94.515625 68.027344 94.457031 74.867188 94.929688 83.910156 L 95.050781 86.179688 L 92.585938 86.210938 C 92.210938 86.214844 91.839844 86.21875 91.46875 86.207031 C 89.410156 86.121094 87.082031 86.539062 85.539062 87.261719 L 85.335938 87.355469 L 85.117188 87.40625 C 84.867188 87.464844 84.765625 87.515625 84.765625 87.515625 C 84.730469 87.5625 84.550781 88.042969 84.609375 88.96875 C 84.816406 88.957031 85.050781 88.9375 85.238281 88.917969 C 85.59375 88.886719 85.953125 88.855469 86.308594 88.84375 L 86.722656 88.824219 C 88.746094 88.808594 90.808594 88.761719 93.082031 88.683594 Z M 115.492188 87.789062 C 115.480469 87.800781 115.464844 87.8125 115.453125 87.824219 C 115.464844 87.8125 115.480469 87.800781 115.492188 87.789062 Z M 115.492188 87.789062 " />
</g>
</svg>