<svg xmlns="http://www.w3.org/2000/svg" width="216" height="216" viewBox="0 0 216 216" version="1.1">
<g id="surface1">
<path style=" stroke:none;fill-rule:nonzero;fill:rgb(8.627451%,13.333333%,18.039216%);fill-opacity:1;" d="M 139.214844 40.019531 C 138.988281 34.890625 127.84375 36.316406 128.078125 41.597656 C 128.136719 43.078125 128.167969 44.554688 128.21875 46.035156 C 122.242188 43.613281 110.957031 43.53125 104.4375 45.574219 C 89.609375 50.207031 79.863281 65.164062 78.53125 80.488281 C 76.996094 98.144531 82.710938 116.242188 101.835938 119.5 C 110.097656 120.910156 121.855469 118.140625 127.671875 113.101562 C 127.582031 126.105469 127.082031 139.203125 124.191406 151.90625 C 122.203125 160.625 91.46875 171.339844 90.308594 144.160156 C 90.066406 138.425781 79.785156 138.773438 79.28125 143.644531 C 77.730469 158.699219 84.445312 171.8125 98.925781 174.183594 C 114.609375 176.75 128.652344 168.355469 133.496094 157.304688 C 140.875 140.488281 140.097656 60 139.214844 40.019531 Z M 97.785156 107.804688 C 91.410156 102.257812 88.699219 95.601562 87.289062 87.992188 C 82.871094 64.171875 111.214844 38.109375 128.460938 57.550781 C 128.59375 71.363281 128.15625 85.203125 128 99.015625 C 127.253906 101.910156 108.046875 116.722656 97.785156 107.804688 Z M 97.785156 107.804688 " />
<path style=" stroke:none;fill-rule:nonzero;fill:rgb(8.627451%,13.333333%,18.039216%);fill-opacity:1;" d="M 104.667969 176.839844 C 102.648438 176.839844 100.613281 176.671875 98.574219 176.339844 C 83.953125 173.945312 75.328125 160.714844 77.109375 143.417969 C 77.511719 139.542969 81.453125 137.617188 85.140625 137.746094 C 89.382812 137.875 92.335938 140.414062 92.492188 144.066406 C 92.886719 153.339844 96.996094 158.59375 104.371094 159.265625 C 112.402344 160.007812 121.269531 154.90625 122.0625 151.421875 C 124.609375 140.226562 125.265625 128.503906 125.441406 117.28125 C 118.792969 121.023438 108.984375 122.929688 101.46875 121.652344 C 80.613281 118.097656 74.820312 97.960938 76.355469 80.296875 C 77.867188 62.9375 88.886719 48.144531 103.785156 43.488281 C 109.925781 41.570312 119.410156 41.460938 125.945312 43.039062 C 125.929688 42.589844 125.914062 42.136719 125.894531 41.6875 C 125.800781 39.53125 126.929688 37.539062 128.988281 36.222656 C 131.785156 34.441406 135.878906 34.128906 138.507812 35.496094 C 140.285156 36.421875 141.3125 37.992188 141.394531 39.921875 C 142.285156 60.082031 143.078125 140.898438 135.496094 158.183594 C 132.855469 164.207031 127.804688 169.394531 121.285156 172.789062 C 116.125 175.46875 110.46875 176.839844 104.667969 176.839844 Z M 84.835938 142.105469 C 83.265625 142.105469 81.566406 142.757812 81.453125 143.867188 C 79.898438 158.949219 86.894531 170.003906 99.277344 172.03125 C 110.757812 173.90625 125.953125 169.078125 131.496094 156.429688 C 138.667969 140.085938 137.882812 59.289062 137.03125 40.113281 C 137.023438 39.863281 136.972656 39.621094 136.492188 39.371094 C 135.226562 38.710938 132.816406 38.960938 131.335938 39.90625 C 130.59375 40.378906 130.234375 40.914062 130.257812 41.5 C 130.296875 42.398438 130.320312 43.289062 130.347656 44.179688 C 130.363281 44.773438 130.378906 45.367188 130.402344 45.957031 L 130.515625 49.316406 L 127.398438 48.054688 C 122.113281 45.917969 111.269531 45.722656 105.089844 47.65625 C 92.070312 51.726562 82.042969 65.304688 80.707031 80.675781 C 80.042969 88.308594 79.632812 113.5 102.203125 117.347656 C 110.011719 118.683594 121.015625 115.976562 126.242188 111.453125 L 129.886719 108.292969 L 129.855469 113.117188 C 129.765625 125.828125 129.28125 139.386719 126.320312 152.390625 C 124.878906 158.703125 113.398438 164.460938 103.976562 163.613281 C 94.390625 162.742188 88.617188 155.683594 88.128906 144.25 C 88.046875 142.300781 85.515625 142.125 85.007812 142.109375 C 84.953125 142.109375 84.894531 142.105469 84.835938 142.105469 Z M 105.824219 112.804688 C 102.125 112.804688 98.917969 111.679688 96.355469 109.453125 L 96.351562 109.449219 C 90.328125 104.210938 86.871094 97.714844 85.144531 88.390625 C 82.164062 72.328125 92.53125 56.789062 104.273438 51.050781 C 113.734375 46.429688 123.144531 48.269531 130.09375 56.101562 L 130.636719 56.710938 L 130.644531 57.527344 C 130.734375 66.851562 130.5625 76.324219 130.398438 85.484375 C 130.316406 90.003906 130.234375 94.523438 130.183594 99.039062 L 130.179688 99.304688 L 130.113281 99.558594 C 129.3125 102.667969 120.558594 109.226562 112.707031 111.667969 C 110.269531 112.429688 107.964844 112.804688 105.824219 112.804688 Z M 99.21875 106.15625 C 101.636719 108.257812 104.933594 108.914062 109.027344 108.109375 C 117.011719 106.539062 124.585938 100.304688 125.820312 98.507812 C 125.875 94.140625 125.953125 89.773438 126.03125 85.40625 C 126.191406 76.550781 126.359375 67.398438 126.285156 58.40625 C 118.824219 50.546875 110.53125 52.851562 106.191406 54.976562 C 96.136719 59.890625 86.871094 73.757812 89.4375 87.597656 C 90.992188 95.996094 93.917969 101.546875 99.21875 106.15625 Z M 99.21875 106.15625 " />
</g>
</svg>