<svg xmlns="http://www.w3.org/2000/svg" width="216" height="216" viewBox="0 0 216 216" version="1.1">
<g id="surface1">
<path style=" stroke:none;fill-rule:nonzero;fill:rgb(8.627451%,13.333333%,18.039216%);fill-opacity:1;" d="M 137.304688 99.898438 C 125.546875 91.46875 110.121094 93.289062 99.980469 101.832031 C 99.5625 76.394531 99.214844 50.957031 98.65625 25.53125 C 98.597656 22.847656 88.476562 24.523438 88.554688 28.011719 C 89.210938 57.992188 91.023438 163.660156 91.8125 185.878906 C 91.90625 188.59375 102.035156 186.867188 101.914062 183.398438 C 101.132812 161.320312 100.640625 139.242188 100.25 117.15625 C 102.558594 106.953125 111.152344 98.46875 122.421875 101.261719 C 134.417969 104.238281 134.863281 114.941406 134.132812 124.921875 C 132.726562 144.109375 131.445312 163.132812 131.039062 182.398438 C 130.9375 187.15625 141.085938 185.46875 141.171875 181.59375 C 141.523438 164.996094 141.875 148.382812 143.566406 131.875 C 144.691406 120.8125 147.898438 107.5 137.304688 99.898438 Z M 137.304688 99.898438 " />
<path style=" stroke:none;fill-rule:nonzero;fill:rgb(8.627451%,13.333333%,18.039216%);fill-opacity:1;" d="M 94.628906 189.398438 C 93.421875 189.398438 92.304688 189.199219 91.457031 188.75 C 90.335938 188.152344 89.671875 187.136719 89.628906 185.957031 C 89.101562 171.078125 88.117188 118.902344 87.324219 76.976562 C 86.929688 56.054688 86.589844 37.984375 86.371094 28.058594 C 86.351562 27.105469 86.679688 25.289062 89.109375 23.8125 C 91.800781 22.183594 96.632812 21.359375 99.070312 22.695312 C 100.167969 23.296875 100.8125 24.3125 100.835938 25.484375 C 101.257812 44.46875 101.558594 63.769531 101.855469 82.441406 C 101.933594 87.480469 102.011719 92.519531 102.09375 97.5625 C 113.335938 90.316406 127.789062 90.390625 138.574219 98.125 C 148.9375 105.558594 147.488281 117.5 146.207031 128.035156 C 146.039062 129.410156 145.871094 130.769531 145.738281 132.097656 C 144.0625 148.449219 143.703125 165.21875 143.359375 181.4375 L 143.355469 181.640625 C 143.273438 185.242188 138.863281 187.566406 134.765625 187.480469 C 131.167969 187.402344 128.792969 185.34375 128.855469 182.355469 C 129.277344 162.535156 130.617188 143.035156 131.953125 124.761719 C 132.792969 113.308594 131.402344 105.738281 121.894531 103.382812 C 117.953125 102.402344 114.125 102.960938 110.828125 104.996094 C 106.824219 107.464844 103.703125 112.085938 102.4375 117.390625 C 102.910156 143.882812 103.417969 164.226562 104.09375 183.320312 C 104.128906 184.261719 103.832031 186.058594 101.464844 187.542969 C 99.707031 188.644531 96.988281 189.398438 94.628906 189.398438 Z M 93.964844 185.023438 C 95.5625 185.265625 99.148438 184.296875 99.726562 183.371094 C 99.050781 164.21875 98.539062 143.800781 98.070312 117.195312 L 98.0625 116.933594 L 98.121094 116.675781 C 99.621094 110.046875 103.417969 104.4375 108.535156 101.28125 C 112.855469 98.617188 117.839844 97.878906 122.945312 99.144531 C 137.9375 102.859375 136.835938 117.867188 136.308594 125.082031 C 134.976562 143.296875 133.636719 162.730469 133.21875 182.445312 C 133.207031 183.050781 134.582031 183.109375 134.859375 183.113281 C 137.207031 183.160156 138.980469 181.933594 138.988281 181.546875 L 138.992188 181.34375 C 139.339844 165.039062 139.699219 148.179688 141.394531 131.652344 C 141.53125 130.300781 141.699219 128.914062 141.871094 127.507812 C 143.0625 117.71875 144.292969 107.597656 136.03125 101.671875 C 125.703125 94.265625 111.457031 95.019531 101.386719 103.5 L 97.875 106.460938 L 97.796875 101.867188 C 97.691406 95.414062 97.589844 88.960938 97.488281 82.507812 C 97.199219 64.113281 96.898438 45.101562 96.488281 26.390625 C 94.867188 26.15625 91.292969 27.132812 90.738281 28.054688 C 90.957031 38.007812 91.296875 56.03125 91.691406 76.890625 C 92.46875 118.097656 93.433594 169.210938 93.964844 185.023438 Z M 93.964844 185.023438 " />
</g>
</svg>