<svg xmlns="http://www.w3.org/2000/svg" width="216" height="216" viewBox="0 0 216 216" version="1.1">
<g id="surface1">
<path style=" stroke:none;fill-rule:nonzero;fill:rgb(8.627451%,13.333333%,18.039216%);fill-opacity:1;" d="M 108.410156 82.277344 C 108.253906 78.378906 96.242188 80.929688 96.441406 85.722656 C 97.554688 112.609375 100.636719 139.664062 103.15625 166.464844 C 103.535156 170.507812 115.566406 167.722656 115.128906 163.015625 C 112.609375 136.214844 109.527344 109.164062 108.410156 82.277344 Z M 108.410156 82.277344 " />
<path style=" stroke:none;fill-rule:nonzero;fill:rgb(8.627451%,13.333333%,18.039216%);fill-opacity:1;" d="M 106.578125 170.597656 C 102.746094 170.597656 101.160156 168.554688 100.984375 166.667969 C 100.441406 160.886719 99.871094 155.09375 99.300781 149.289062 C 97.253906 128.480469 95.136719 106.957031 94.261719 85.8125 C 94.175781 83.722656 95.378906 81.777344 97.65625 80.335938 C 100.601562 78.46875 105.558594 77.386719 108.433594 78.894531 C 109.75 79.582031 110.535156 80.78125 110.59375 82.1875 C 111.464844 103.175781 113.570312 124.601562 115.605469 145.316406 C 116.179688 151.160156 116.753906 156.992188 117.300781 162.8125 C 117.691406 166.996094 112.621094 170.082031 107.699219 170.542969 C 107.304688 170.578125 106.933594 170.597656 106.578125 170.597656 Z M 105.3125 166.058594 C 106.128906 166.441406 108.914062 166.28125 111.238281 164.996094 C 112.46875 164.3125 112.988281 163.597656 112.953125 163.21875 C 112.410156 157.40625 111.835938 151.578125 111.261719 145.746094 C 109.230469 125.070312 107.128906 103.695312 106.242188 82.683594 C 105.335938 82.363281 102.621094 82.566406 100.386719 83.789062 C 99.292969 84.390625 98.601562 85.113281 98.625 85.628906 C 99.492188 106.65625 101.605469 128.113281 103.644531 148.863281 C 104.210938 154.605469 104.773438 160.335938 105.3125 166.058594 Z M 106.230469 82.367188 Z M 106.230469 82.367188 " />
<path style=" stroke:none;fill-rule:nonzero;fill:rgb(8.627451%,13.333333%,18.039216%);fill-opacity:1;" d="M 107.878906 48.191406 C 100.628906 45.242188 86.375 53.253906 90.480469 64.691406 C 95.710938 79.226562 114.996094 66.5 113.007812 53.5625 C 112.617188 51.03125 110.308594 49.179688 107.878906 48.191406 Z M 107.878906 48.191406 " />
<path style=" stroke:none;fill-rule:nonzero;fill:rgb(8.627451%,13.333333%,18.039216%);fill-opacity:1;" d="M 98.476562 73.351562 C 93.910156 73.351562 90.265625 70.542969 88.425781 65.429688 C 86.507812 60.089844 87.863281 54.671875 92.140625 50.566406 C 96.785156 46.109375 103.90625 44.21875 108.703125 46.167969 C 112.34375 47.652344 114.699219 50.226562 115.164062 53.230469 C 116.542969 62.1875 109.136719 71.027344 101.589844 72.945312 C 100.515625 73.21875 99.472656 73.351562 98.476562 73.351562 Z M 104.46875 49.757812 C 101.433594 49.757812 97.726562 51.253906 95.164062 53.714844 C 93.414062 55.394531 90.742188 58.960938 92.535156 63.953125 C 94.386719 69.09375 97.894531 69.382812 100.515625 68.714844 C 106.128906 67.285156 111.867188 60.5 110.847656 53.894531 C 110.589844 52.214844 108.71875 50.890625 107.054688 50.210938 C 106.296875 49.902344 105.414062 49.757812 104.46875 49.757812 Z M 104.46875 49.757812 " />
</g>
</svg>