<svg xmlns="http://www.w3.org/2000/svg" width="216" height="216" viewBox="0 0 216 216" version="1.1">
<g id="surface1">
<path style=" stroke:none;fill-rule:nonzero;fill:rgb(8.627451%,13.333333%,18.039216%);fill-opacity:1;" d="M 133.503906 23.304688 C 126.25 20.359375 111.996094 28.371094 116.105469 39.804688 C 121.332031 54.339844 140.621094 41.617188 138.628906 28.679688 C 138.238281 26.148438 135.933594 24.292969 133.503906 23.304688 Z M 133.503906 23.304688 " />
<path style=" stroke:none;fill-rule:nonzero;fill:rgb(8.627451%,13.333333%,18.039216%);fill-opacity:1;" d="M 124.097656 48.46875 C 119.53125 48.46875 115.890625 45.660156 114.050781 40.546875 C 112.132812 35.203125 113.484375 29.785156 117.761719 25.679688 C 122.40625 21.222656 129.527344 19.332031 134.324219 21.28125 L 134.328125 21.28125 C 137.96875 22.765625 140.324219 25.339844 140.789062 28.347656 C 142.164062 37.304688 134.757812 46.140625 127.214844 48.0625 C 126.136719 48.332031 125.09375 48.46875 124.097656 48.46875 Z M 130.089844 24.871094 C 127.058594 24.871094 123.351562 26.371094 120.785156 28.832031 C 119.035156 30.511719 116.367188 34.074219 118.160156 39.070312 C 120.007812 44.210938 123.515625 44.5 126.136719 43.828125 C 131.75 42.402344 137.488281 35.617188 136.472656 29.011719 C 136.210938 27.328125 134.34375 26.003906 132.679688 25.328125 C 131.917969 25.019531 131.039062 24.871094 130.089844 24.871094 Z M 130.089844 24.871094 " />
<path style=" stroke:none;fill-rule:nonzero;fill:rgb(8.627451%,13.333333%,18.039216%);fill-opacity:1;" d="M 130.371094 58.679688 C 130.144531 53.554688 118.996094 54.976562 119.230469 60.261719 C 119.296875 61.742188 119.546875 76.132812 119.617188 76.210938 C 119.75 90.023438 119.316406 103.863281 119.15625 117.675781 C 119 118.277344 118.238281 157.867188 115.347656 170.570312 C 113.359375 179.289062 86.917969 190.003906 85.757812 162.820312 C 85.515625 157.089844 75.234375 157.4375 74.734375 162.304688 C 73.179688 177.363281 79.894531 190.476562 94.375 192.847656 C 110.0625 195.414062 119.804688 187.019531 124.652344 175.96875 C 132.027344 159.148438 131.253906 78.660156 130.371094 58.679688 Z M 130.371094 58.679688 " />
<path style=" stroke:none;fill-rule:nonzero;fill:rgb(8.627451%,13.333333%,18.039216%);fill-opacity:1;" d="M 99.765625 195.480469 C 97.90625 195.480469 95.992188 195.324219 94.023438 195 C 79.402344 192.609375 70.777344 179.378906 72.5625 162.082031 C 72.960938 158.210938 76.898438 156.308594 80.585938 156.410156 C 84.832031 156.535156 87.785156 159.074219 87.941406 162.726562 C 88.339844 172.109375 91.902344 177.371094 98.242188 177.945312 C 105.128906 178.582031 112.441406 173.488281 113.21875 170.082031 C 115.515625 159.988281 116.457031 132.160156 116.808594 121.683594 C 116.902344 118.890625 116.9375 117.949219 116.972656 117.53125 C 117.027344 113.078125 117.105469 108.617188 117.1875 104.15625 C 117.351562 94.996094 117.523438 85.523438 117.4375 76.230469 L 117.492188 76.230469 C 117.371094 75 117.316406 72.492188 117.199219 66.867188 C 117.136719 63.820312 117.074219 60.945312 117.050781 60.359375 C 116.953125 58.195312 118.082031 56.203125 120.144531 54.886719 C 122.941406 53.105469 127.03125 52.792969 129.664062 54.160156 C 131.441406 55.085938 132.464844 56.65625 132.550781 58.585938 C 133.441406 78.742188 134.234375 159.554688 126.652344 176.84375 C 121.363281 188.902344 111.742188 195.480469 99.765625 195.480469 Z M 80.289062 160.769531 C 78.714844 160.769531 77.019531 161.421875 76.90625 162.527344 C 75.347656 177.613281 82.34375 188.667969 94.726562 190.691406 C 96.542969 190.988281 98.253906 191.128906 99.867188 191.128906 C 113.433594 191.128906 119.898438 181.375 122.652344 175.089844 C 129.824219 158.742188 129.035156 77.949219 128.1875 58.777344 C 128.175781 58.527344 128.128906 58.285156 127.648438 58.035156 C 126.382812 57.375 123.96875 57.625 122.488281 58.570312 C 121.75 59.042969 121.386719 59.578125 121.410156 60.164062 C 121.4375 60.804688 121.496094 63.570312 121.566406 66.773438 C 121.628906 69.796875 121.710938 73.742188 121.761719 75.324219 L 121.792969 75.363281 L 121.800781 76.191406 C 121.890625 85.542969 121.71875 95.046875 121.550781 104.234375 C 121.472656 108.726562 121.390625 113.214844 121.335938 117.703125 L 121.3125 118.050781 C 121.285156 118.527344 121.234375 120.070312 121.171875 121.832031 C 120.816406 132.421875 119.867188 160.550781 117.472656 171.054688 C 116.035156 177.375 106.125 183.050781 97.84375 182.296875 C 85.667969 181.1875 83.8125 168.371094 83.578125 162.914062 C 83.496094 160.964844 80.960938 160.789062 80.457031 160.773438 C 80.398438 160.769531 80.34375 160.769531 80.289062 160.769531 Z M 80.289062 160.769531 " />
</g>
</svg>