<svg xmlns="http://www.w3.org/2000/svg" width="216" height="216" viewBox="0 0 216 216" version="1.1">
<g id="surface1">
<path style=" stroke:none;fill-rule:nonzero;fill:rgb(8.627451%,13.333333%,18.039216%);fill-opacity:1;" d="M 139.132812 170.898438 C 126.710938 156.769531 115.015625 139.402344 103.882812 124.894531 C 108.742188 118.53125 123.886719 97.851562 132.855469 90.476562 C 136.769531 87.253906 128.929688 85.339844 125.695312 87.167969 C 117.375 91.886719 98.417969 115.972656 93.800781 121.863281 C 93.503906 118.367188 90.257812 64.777344 86.769531 43.652344 C 86.449219 41.699219 76.78125 41.65625 76.78125 43.636719 C 76.769531 67.609375 85.253906 152.140625 86.042969 173.121094 C 86.113281 174.886719 97.089844 173.085938 97.003906 170.921875 C 96.507812 157.71875 95.917969 144.371094 95.027344 131.078125 C 106.621094 143.0625 116.050781 159.328125 126.984375 171.769531 C 128.367188 173.351562 140.355469 172.289062 139.132812 170.898438 Z M 139.132812 170.898438 " />
<path style=" stroke:none;fill-rule:nonzero;fill:rgb(8.627451%,13.333333%,18.039216%);fill-opacity:1;" d="M 88.292969 176.015625 C 84.742188 176.015625 83.914062 174.507812 83.863281 173.207031 C 83.542969 164.664062 81.890625 144.953125 80.140625 124.085938 C 77.539062 93.054688 74.589844 57.882812 74.597656 43.636719 C 74.597656 42.203125 75.535156 40.417969 80.007812 40.050781 C 81.390625 39.941406 88.308594 39.558594 88.925781 43.296875 C 91.839844 60.957031 94.597656 101.347656 95.589844 116.082031 C 105.84375 103.234375 118.085938 88.972656 124.621094 85.269531 C 127.636719 83.5625 133.5625 84.015625 135.484375 86.816406 C 136.402344 88.152344 136.554688 90.257812 134.242188 92.164062 C 126.519531 98.515625 113.816406 115.355469 107.710938 123.449219 C 107.324219 123.964844 106.960938 124.445312 106.625 124.890625 C 109.980469 129.296875 113.335938 133.875 116.867188 138.699219 C 124.5625 149.207031 132.519531 160.070312 140.769531 169.460938 C 141.367188 170.136719 141.554688 171.042969 141.273438 171.875 C 140.773438 173.347656 139.160156 173.859375 137.488281 174.191406 C 137.390625 174.210938 127.726562 175.933594 125.34375 173.207031 C 120.375 167.554688 115.65625 161.042969 111.089844 154.746094 C 106.761719 148.773438 102.316406 142.640625 97.601562 137.152344 C 98.347656 149.53125 98.832031 161.464844 99.183594 170.839844 C 99.367188 175.457031 88.941406 176 88.835938 176.003906 C 88.648438 176.011719 88.464844 176.015625 88.292969 176.015625 Z M 88.167969 171.671875 C 88.1875 171.675781 88.207031 171.675781 88.230469 171.675781 C 90.09375 171.675781 93.527344 170.96875 94.796875 170.285156 C 94.386719 159.464844 93.796875 145.394531 92.851562 131.222656 L 92.566406 126.976562 L 92.097656 127.574219 L 91.625 122.050781 C 91.582031 121.523438 91.472656 119.886719 91.304688 117.40625 C 90.390625 103.847656 87.636719 62.949219 84.730469 44.703125 C 83.464844 44.289062 80.390625 44.242188 78.96875 44.59375 C 79.085938 59.238281 81.953125 93.453125 84.492188 123.71875 C 86.230469 144.460938 87.742188 162.515625 88.167969 171.671875 Z M 94.820312 171 C 94.824219 171.003906 94.824219 171.003906 94.824219 171.007812 C 94.824219 171.003906 94.824219 171.003906 94.820312 171 Z M 128.445312 170.121094 C 129.613281 170.523438 133.117188 170.421875 135.550781 170.101562 C 127.871094 161.113281 120.496094 151.042969 113.34375 141.28125 C 109.472656 135.992188 105.8125 130.996094 102.152344 126.222656 L 101.132812 124.898438 L 102.148438 123.570312 C 102.710938 122.832031 103.410156 121.902344 104.226562 120.820312 C 110.375 112.671875 123.105469 95.789062 131.242188 88.980469 C 130.082031 88.589844 127.917969 88.417969 126.773438 89.066406 C 121.636719 91.976562 110.246094 104.421875 95.519531 123.210938 L 93.253906 126.101562 L 96.597656 129.558594 C 103.101562 136.285156 108.960938 144.367188 114.625 152.183594 C 119.074219 158.324219 123.675781 164.667969 128.445312 170.121094 Z M 128.621094 170.324219 C 128.621094 170.324219 128.625 170.328125 128.625 170.328125 C 128.625 170.328125 128.621094 170.324219 128.621094 170.324219 Z M 128.621094 170.324219 " />
</g>
</svg>