<svg xmlns="http://www.w3.org/2000/svg" width="216" height="216" viewBox="0 0 216 216" version="1.1">
<g id="surface1">
<path style=" stroke:none;fill-rule:nonzero;fill:rgb(8.627451%,13.333333%,18.039216%);fill-opacity:1;" d="M 103.101562 47.308594 C 103.101562 88.835938 101.53125 130.273438 101.53125 171.824219 C 101.53125 173.511719 112.902344 171.902344 112.902344 168.695312 C 112.902344 127.148438 114.46875 85.707031 114.46875 44.179688 C 114.46875 42.484375 103.101562 44.101562 103.101562 47.308594 Z M 103.101562 47.308594 " />
<path style=" stroke:none;fill-rule:nonzero;fill:rgb(8.627451%,13.333333%,18.039216%);fill-opacity:1;" d="M 103.644531 174.6875 C 102.773438 174.6875 102.066406 174.601562 101.492188 174.429688 C 99.914062 173.953125 99.347656 172.773438 99.347656 171.824219 C 99.347656 151.027344 99.75 129.917969 100.136719 109.507812 C 100.519531 89.125 100.921875 68.050781 100.921875 47.308594 C 100.921875 42.378906 110.085938 41.3125 112.355469 41.3125 C 113.226562 41.3125 113.933594 41.398438 114.511719 41.574219 C 116.089844 42.046875 116.652344 43.230469 116.652344 44.179688 C 116.652344 64.960938 116.253906 86.058594 115.867188 106.464844 C 115.484375 126.851562 115.085938 147.9375 115.085938 168.691406 C 115.085938 173.621094 105.914062 174.6875 103.644531 174.6875 Z M 103.714844 170.367188 C 103.738281 170.367188 103.761719 170.367188 103.78125 170.367188 C 106.011719 170.367188 109.894531 169.265625 110.71875 168.441406 C 110.722656 147.726562 111.117188 126.710938 111.503906 106.378906 C 111.878906 86.472656 112.265625 65.902344 112.285156 45.632812 C 110.050781 45.585938 106.117188 46.726562 105.285156 47.5625 C 105.28125 68.261719 104.886719 89.269531 104.5 109.589844 C 104.125 129.503906 103.734375 150.082031 103.714844 170.367188 Z M 103.714844 170.367188 " />
</g>
</svg>