<svg xmlns="http://www.w3.org/2000/svg" width="216" height="216" viewBox="0 0 216 216" version="1.1">
<g id="surface1">
<path style=" stroke:none;fill-rule:nonzero;fill:rgb(8.627451%,13.333333%,18.039216%);fill-opacity:1;" d="M 148.5625 68.859375 C 141.789062 63.160156 126.429688 60.140625 115.84375 67.628906 C 112.914062 69.699219 110.476562 71.988281 108.632812 74.722656 C 107.628906 73.027344 106.433594 71.449219 104.964844 70.054688 C 96.769531 62.304688 78.902344 60.734375 69.707031 69.160156 C 67.570312 71.121094 64.84375 75.351562 63.113281 77.371094 C 63.230469 72.214844 63.632812 67.691406 63.472656 64.792969 C 62.84375 64.792969 54.554688 64.890625 54.179688 65.75 C 53.488281 67.328125 55.003906 82.265625 55.253906 84.941406 C 55.761719 90.304688 59.554688 136.390625 60.066406 151.046875 C 62.21875 153.746094 67.148438 153.066406 69.792969 151.257812 C 70.164062 151.003906 70.449219 150.640625 70.707031 150.238281 C 70.019531 137.164062 63.046875 83.375 74.1875 75.851562 C 82.109375 70.5 94.710938 71.34375 99.148438 79.082031 C 101.796875 83.703125 101.832031 89.800781 102.128906 94.953125 C 103.214844 113.753906 102.492188 132.546875 102.492188 151.355469 C 102.492188 154.101562 113.050781 152.265625 113.050781 148.527344 C 113.050781 135.585938 113.355469 122.613281 113.355469 109.65625 C 113.355469 105.6875 113.507812 101.246094 113.421875 96.6875 C 113.25 90.523438 114.316406 81.304688 120.222656 77.277344 C 126.179688 73.210938 134.390625 74.777344 137.746094 77.3125 C 141.605469 80.226562 142.960938 85.691406 143.40625 90.253906 C 143.679688 93.136719 143.519531 95.996094 143.46875 98.882812 C 143.167969 115.832031 140.175781 132.832031 138.910156 149.765625 C 138.96875 149.859375 139.054688 149.902344 139.09375 150.015625 C 140.679688 154.105469 145.910156 152.953125 149.605469 150.550781 C 152.34375 132.320312 163.257812 81.203125 148.5625 68.859375 Z M 148.5625 68.859375 " />
<path style=" stroke:none;fill-rule:nonzero;fill:rgb(8.627451%,13.333333%,18.039216%);fill-opacity:1;" d="M 64.425781 155.015625 C 62.125 155.015625 59.859375 154.289062 58.359375 152.410156 L 57.910156 151.84375 L 57.882812 151.125 C 57.375 136.457031 53.59375 90.558594 53.082031 85.148438 L 53.003906 84.3125 C 51.441406 68.183594 51.722656 65.914062 52.179688 64.875 C 52.660156 63.78125 53.15625 62.648438 63.464844 62.609375 L 65.539062 62.601562 L 65.652344 64.671875 C 65.742188 66.269531 65.671875 68.261719 65.570312 70.550781 C 66.464844 69.410156 67.375 68.339844 68.230469 67.550781 C 78.421875 58.210938 97.773438 60.246094 106.464844 68.46875 C 107.285156 69.246094 108.042969 70.085938 108.75 71.003906 C 110.34375 69.1875 112.269531 67.480469 114.582031 65.847656 C 126.402344 57.488281 143.007812 61.332031 149.96875 67.1875 C 163.820312 78.832031 157.089844 118.933594 153.066406 142.894531 C 152.542969 145.992188 152.09375 148.667969 151.761719 150.875 L 151.617188 151.847656 L 150.792969 152.382812 C 147.347656 154.621094 143.671875 155.4375 140.949219 154.558594 C 139.226562 154 137.929688 152.808594 137.179688 151.097656 C 137.136719 151.039062 137.089844 150.972656 137.046875 150.898438 L 136.683594 150.300781 L 136.734375 149.605469 C 137.230469 142.945312 138.003906 136.183594 138.75 129.644531 C 139.90625 119.527344 141.105469 109.066406 141.285156 98.84375 C 141.296875 98.253906 141.308594 97.660156 141.324219 97.070312 C 141.382812 94.785156 141.4375 92.625 141.230469 90.464844 C 140.859375 86.632812 139.726562 81.542969 136.429688 79.054688 C 133.882812 77.132812 126.703125 75.496094 121.453125 79.082031 C 115.835938 82.910156 115.492188 92.628906 115.605469 96.628906 C 115.660156 99.519531 115.621094 102.3125 115.582031 105.011719 C 115.5625 106.613281 115.539062 108.167969 115.539062 109.65625 C 115.539062 116.148438 115.460938 122.746094 115.386719 129.128906 C 115.3125 135.492188 115.234375 142.070312 115.234375 148.527344 C 115.234375 153 108.703125 154.855469 105.210938 154.855469 C 104.085938 154.855469 103.136719 154.683594 102.382812 154.351562 C 101.085938 153.773438 100.308594 152.652344 100.308594 151.355469 C 100.308594 145.972656 100.371094 140.511719 100.425781 135.230469 C 100.570312 122.058594 100.722656 108.4375 99.949219 95.078125 C 99.917969 94.535156 99.890625 93.980469 99.859375 93.421875 C 99.628906 88.9375 99.367188 83.851562 97.253906 80.167969 C 95.820312 77.667969 93.152344 75.855469 89.738281 75.066406 C 84.921875 73.949219 79.433594 74.941406 75.410156 77.660156 C 67.15625 83.234375 70.652344 123.539062 72.148438 140.75 C 72.496094 144.773438 72.773438 147.949219 72.886719 150.125 L 72.921875 150.820312 L 72.546875 151.410156 C 72.253906 151.871094 71.777344 152.550781 71.023438 153.0625 C 69.367188 154.191406 66.875 155.015625 64.425781 155.015625 Z M 137.058594 150.804688 C 137.066406 150.828125 137.074219 150.847656 137.085938 150.871094 Z M 62.214844 150.09375 C 63.675781 151.09375 66.679688 150.6875 68.476562 149.511719 C 68.347656 147.449219 68.097656 144.609375 67.796875 141.128906 C 65.273438 112.0625 63.386719 80.511719 72.964844 74.042969 C 77.960938 70.667969 84.765625 69.433594 90.726562 70.8125 C 95.335938 71.882812 99 74.433594 101.042969 77.996094 C 103.675781 82.585938 103.964844 88.222656 104.222656 93.199219 C 104.25 93.75 104.277344 94.292969 104.308594 94.824219 C 105.089844 108.335938 104.9375 122.03125 104.792969 135.277344 C 104.738281 140.257812 104.683594 145.402344 104.675781 150.472656 C 105.617188 150.5625 107.425781 150.382812 109.113281 149.675781 C 110.417969 149.128906 110.835938 148.589844 110.875 148.476562 C 110.867188 142.042969 110.945312 135.453125 111.019531 129.074219 C 111.097656 122.707031 111.171875 116.125 111.171875 109.65625 C 111.171875 108.148438 111.195312 106.574219 111.21875 104.949219 C 111.253906 102.285156 111.292969 99.53125 111.238281 96.730469 C 111.074219 90.890625 111.863281 80.339844 118.988281 75.472656 C 125.828125 70.808594 135.039062 72.53125 139.0625 75.570312 C 142.722656 78.335938 144.914062 83.203125 145.578125 90.042969 C 145.808594 92.472656 145.75 94.867188 145.691406 97.179688 C 145.675781 97.761719 145.660156 98.339844 145.648438 98.921875 C 145.464844 109.351562 144.257812 119.921875 143.089844 130.140625 C 142.371094 136.414062 141.632812 142.894531 141.140625 149.253906 L 141.144531 149.265625 C 141.375 149.859375 141.734375 150.222656 142.292969 150.402344 C 143.515625 150.796875 145.609375 150.308594 147.601562 149.210938 C 147.917969 147.183594 148.3125 144.832031 148.757812 142.171875 C 152.117188 122.175781 159.105469 80.566406 147.160156 70.53125 C 141.125 65.453125 126.769531 62.574219 117.101562 69.410156 C 114.203125 71.464844 112.023438 73.597656 110.445312 75.945312 L 108.519531 78.804688 L 106.757812 75.839844 C 105.777344 74.1875 104.699219 72.8125 103.460938 71.636719 C 96.253906 64.824219 79.609375 63.046875 71.183594 70.769531 C 69.992188 71.863281 68.46875 73.921875 67.121094 75.742188 C 66.269531 76.894531 65.460938 77.984375 64.769531 78.789062 L 60.789062 83.433594 L 60.929688 77.320312 C 60.976562 75.273438 61.070312 73.300781 61.152344 71.558594 C 61.230469 69.878906 61.300781 68.339844 61.324219 67.015625 C 59.4375 67.078125 57.375 67.203125 56.179688 67.371094 C 56.148438 69.035156 56.320312 73.246094 57.347656 83.894531 L 57.429688 84.734375 C 57.933594 90.058594 61.589844 134.480469 62.214844 150.09375 Z M 62.214844 150.09375 " />
</g>
</svg>