<svg xmlns="http://www.w3.org/2000/svg" width="216" height="216" viewBox="0 0 216 216" version="1.1">
<g id="surface1">
<path style=" stroke:none;fill-rule:nonzero;fill:rgb(8.627451%,13.333333%,18.039216%);fill-opacity:1;" d="M 128.113281 149.527344 C 128.730469 151.308594 130.203125 152.414062 133.515625 152.019531 C 140.648438 151.167969 139.699219 144.921875 140.023438 139.136719 C 140.4375 131.640625 140.925781 124.183594 141.109375 116.671875 C 141.210938 112.636719 141.191406 108.59375 141.128906 104.558594 C 140.910156 89.316406 140.503906 80.835938 125.894531 71.371094 C 118.082031 66.320312 105.222656 66.402344 96.585938 69.617188 C 94.675781 70.332031 92.984375 71.207031 91.457031 72.195312 C 91.324219 70.246094 91.183594 68.261719 91.050781 66.300781 C 90.738281 61.683594 76.464844 64.414062 76.824219 69.667969 C 78.605469 96.070312 80.417969 122.917969 83.324219 149.332031 C 83.375 149.375 83.441406 149.378906 83.484375 149.429688 C 85.691406 151.832031 90.84375 151.839844 93.710938 150.601562 C 94.515625 150.253906 95 149.480469 95.3125 148.546875 C 93.03125 130.140625 90.769531 110.65625 91.605469 93.296875 C 91.777344 93.027344 93.546875 66.421875 117.304688 77.296875 C 127.992188 82.191406 128.132812 95.222656 128.132812 105.90625 C 128.132812 118.316406 128.386719 130.738281 127.824219 143.140625 C 127.722656 145.390625 127.507812 147.78125 128.113281 149.527344 Z M 128.113281 149.527344 " />
<path style=" stroke:none;fill-rule:nonzero;fill:rgb(8.627451%,13.333333%,18.039216%);fill-opacity:1;" d="M 132.277344 154.28125 C 128.332031 154.28125 126.710938 152.148438 126.050781 150.242188 C 125.378906 148.304688 125.492188 146.039062 125.605469 143.851562 L 125.644531 143.042969 C 126.070312 133.632812 126.023438 124.027344 125.980469 114.734375 C 125.964844 111.792969 125.949219 108.847656 125.949219 105.90625 C 125.949219 95.992188 125.949219 83.65625 116.394531 79.28125 C 110.332031 76.503906 105.386719 76.125 101.703125 78.15625 C 97.640625 80.390625 94.847656 85.730469 93.832031 93.191406 C 93.816406 93.324219 93.800781 93.445312 93.78125 93.5625 C 92.996094 110.203125 95.082031 128.9375 97.480469 148.277344 L 97.542969 148.769531 L 97.382812 149.238281 C 96.820312 150.914062 95.878906 152.046875 94.574219 152.605469 C 91.320312 154.015625 85.273438 154.25 82.117188 151.152344 C 82.0625 151.117188 82.003906 151.074219 81.945312 151.027344 L 81.25 150.460938 L 81.152344 149.570312 C 78.246094 123.117188 76.414062 96.027344 74.644531 69.832031 C 74.503906 67.753906 75.636719 65.804688 77.832031 64.328125 C 81.117188 62.121094 87.203125 60.84375 90.671875 62.542969 C 92.214844 63.300781 93.121094 64.582031 93.230469 66.15625 L 93.398438 68.605469 C 94.183594 68.226562 94.992188 67.882812 95.824219 67.574219 C 104.722656 64.257812 118.316406 63.871094 127.082031 69.539062 C 142.960938 79.828125 143.101562 89.652344 143.3125 104.527344 C 143.386719 109.449219 143.378906 113.210938 143.289062 116.726562 C 143.144531 122.765625 142.796875 128.859375 142.457031 134.753906 C 142.371094 136.253906 142.285156 137.753906 142.203125 139.257812 C 142.160156 140.019531 142.140625 140.785156 142.121094 141.550781 C 141.992188 146.476562 141.820312 153.226562 133.777344 154.1875 C 133.242188 154.25 132.742188 154.28125 132.277344 154.28125 Z M 81.878906 150.90625 C 81.882812 150.914062 81.890625 150.921875 81.898438 150.929688 C 81.890625 150.921875 81.882812 150.914062 81.878906 150.90625 Z M 107.003906 72.5 C 110.375 72.5 114.121094 73.441406 118.214844 75.3125 C 130.316406 80.851562 130.316406 95.332031 130.316406 105.90625 C 130.316406 108.839844 130.332031 111.777344 130.34375 114.714844 C 130.390625 124.058594 130.4375 133.722656 130.007812 143.238281 L 129.964844 144.070312 C 129.875 145.84375 129.78125 147.679688 130.175781 148.8125 C 130.351562 149.320312 130.644531 150.15625 133.257812 149.851562 C 137.183594 149.382812 137.609375 147.171875 137.757812 141.4375 C 137.777344 140.628906 137.796875 139.820312 137.84375 139.015625 C 137.925781 137.511719 138.011719 136.007812 138.097656 134.503906 C 138.433594 128.644531 138.78125 122.585938 138.925781 116.617188 C 139.011719 113.164062 139.019531 109.453125 138.945312 104.589844 C 138.742188 90.167969 138.628906 82.222656 124.707031 73.203125 C 117.234375 68.371094 105.035156 68.804688 97.347656 71.664062 C 95.679688 72.285156 94.140625 73.058594 92.640625 74.027344 L 89.527344 76.039062 L 88.878906 66.53125 C 88.164062 65.949219 84.777344 65.839844 81.632812 67.214844 C 79.773438 68.03125 78.964844 68.980469 79 69.519531 C 80.75 95.40625 82.554688 122.144531 85.398438 148.234375 C 87 149.476562 90.730469 149.511719 92.847656 148.597656 C 92.851562 148.59375 92.945312 148.53125 93.078125 148.261719 C 90.679688 128.863281 88.613281 110.0625 89.425781 93.191406 L 89.453125 92.621094 L 89.519531 92.519531 C 90.734375 83.699219 94.3125 77.242188 99.597656 74.332031 C 101.8125 73.113281 104.285156 72.5 107.003906 72.5 Z M 107.003906 72.5 " />
</g>
</svg>