<svg xmlns="http://www.w3.org/2000/svg" width="216" height="216" viewBox="0 0 216 216" version="1.1">
<g id="surface1">
<path style=" stroke:none;fill-rule:nonzero;fill:rgb(8.627451%,13.333333%,18.039216%);fill-opacity:1;" d="M 144.917969 99.695312 C 143.085938 88.917969 137.523438 78.890625 128.265625 72.730469 C 123.628906 69.640625 116.582031 66.21875 110.972656 65.628906 C 97.394531 64.199219 80.339844 71.078125 72.359375 82.050781 C 59.332031 99.964844 65.484375 125.242188 80.714844 139.742188 C 85.988281 144.761719 92.5 148.855469 99.761719 150.097656 C 115.003906 152.691406 130.800781 145.269531 138.386719 131.808594 C 143.871094 122.066406 146.804688 110.8125 144.917969 99.695312 Z M 128.207031 127.027344 C 125.164062 132.34375 120.542969 136.570312 114.269531 138.753906 C 96.6875 144.828125 79.796875 134.863281 74.507812 117.804688 C 67.652344 95.695312 84.40625 69.507812 108.507812 74.027344 C 130.867188 78.226562 138.628906 108.90625 128.207031 127.027344 Z M 128.207031 127.027344 " />
<path style=" stroke:none;fill-rule:nonzero;fill:rgb(8.627451%,13.333333%,18.039216%);fill-opacity:1;" d="M 105.777344 152.785156 C 103.652344 152.785156 101.519531 152.609375 99.394531 152.25 C 92.453125 151.0625 85.472656 147.285156 79.210938 141.320312 C 63.914062 126.765625 56.511719 100.132812 70.59375 80.765625 C 78.765625 69.523438 96.601562 61.917969 111.203125 63.457031 C 117.410156 64.109375 124.925781 67.882812 129.476562 70.914062 C 138.757812 77.089844 145.003906 87.183594 147.070312 99.332031 C 148.90625 110.140625 146.5625 121.742188 140.289062 132.878906 C 133.367188 145.164062 119.777344 152.785156 105.777344 152.785156 Z M 107.25 67.621094 C 94.824219 67.621094 80.832031 74.109375 74.125 83.332031 C 61.449219 100.761719 68.289062 124.898438 82.21875 138.160156 C 87.851562 143.523438 94.046875 146.90625 100.128906 147.945312 C 114.449219 150.375 129.402344 143.308594 136.484375 130.734375 C 140.511719 123.585938 144.871094 112.457031 142.765625 100.0625 C 140.902344 89.113281 135.324219 80.050781 127.058594 74.546875 C 122.59375 71.574219 115.816406 68.332031 110.746094 67.800781 C 109.601562 67.679688 108.433594 67.621094 107.25 67.621094 Z M 103.867188 142.714844 C 98.910156 142.714844 94.054688 141.582031 89.605469 139.328125 C 81.414062 135.183594 75.3125 127.765625 72.421875 118.449219 C 68.554688 105.984375 71.679688 91.617188 80.378906 81.855469 C 87.8125 73.511719 98.210938 69.875 108.910156 71.882812 C 118.539062 73.691406 126.378906 80.1875 130.980469 90.179688 C 136.550781 102.269531 136.195312 117.515625 130.101562 128.113281 C 126.617188 134.195312 121.390625 138.589844 114.984375 140.816406 C 111.3125 142.085938 107.5625 142.714844 103.867188 142.714844 Z M 103.050781 75.695312 C 95.691406 75.695312 88.929688 78.816406 83.636719 84.757812 C 75.9375 93.40625 73.171875 106.121094 76.59375 117.15625 C 79.128906 125.332031 84.449219 131.824219 91.578125 135.433594 C 98.277344 138.824219 106.082031 139.273438 113.554688 136.6875 C 119.023438 134.789062 123.320312 131.171875 126.3125 125.941406 L 126.316406 125.9375 C 131.738281 116.507812 132.019531 102.871094 127.015625 92.003906 C 123.019531 83.335938 116.304688 77.714844 108.101562 76.175781 C 106.394531 75.851562 104.707031 75.695312 103.050781 75.695312 Z M 103.050781 75.695312 " />
</g>
</svg>