<svg xmlns="http://www.w3.org/2000/svg" width="216" height="216" viewBox="0 0 216 216" version="1.1">
<g id="surface1">
<path style=" stroke:none;fill-rule:nonzero;fill:rgb(8.627451%,13.333333%,18.039216%);fill-opacity:1;" d="M 152.070312 85.863281 C 150.601562 66.464844 144.527344 50.949219 125.1875 46.199219 C 114.125 43.480469 103.925781 45.074219 95.492188 50.445312 C 95.457031 48.875 95.460938 47.300781 95.433594 45.734375 C 95.296875 40.371094 82.34375 42.03125 82.488281 47.707031 C 82.941406 66.101562 82.1875 128.882812 81.242188 170.890625 C 82.453125 174.625 90.675781 174.074219 93.011719 171.753906 C 93.660156 171.109375 94.117188 170.296875 94.488281 169.410156 C 94.675781 155.453125 94.574219 141.472656 94.859375 127.5625 C 120.261719 139.40625 154.996094 124.53125 152.070312 85.863281 Z M 144.339844 86.527344 C 143.957031 95.871094 142.484375 105.902344 135.90625 113.03125 C 129.800781 119.652344 119.140625 123.597656 110.101562 122.796875 C 100.214844 121.921875 96.632812 113.132812 95.507812 104.589844 C 94.074219 93.695312 92.628906 81.265625 95.394531 70.46875 C 96.609375 65.726562 99.730469 59.691406 103.910156 56.824219 C 107.976562 54.035156 116.8125 53.21875 121.625 53.429688 C 126.980469 53.660156 131.945312 55.726562 135.714844 59.566406 C 142.152344 66.125 144.648438 76.433594 144.378906 85.292969 C 144.371094 85.699219 144.355469 86.113281 144.339844 86.527344 Z M 144.339844 86.527344 " />
<path style=" stroke:none;fill-rule:nonzero;fill:rgb(8.627451%,13.333333%,18.039216%);fill-opacity:1;" d="M 86.867188 175.765625 C 85.820312 175.765625 84.808594 175.660156 83.925781 175.445312 C 81.472656 174.851562 79.78125 173.472656 79.164062 171.5625 L 79.050781 171.210938 L 79.058594 170.839844 C 80.003906 128.839844 80.753906 65.925781 80.304688 47.761719 C 80.191406 43.242188 85.191406 40.414062 90.089844 40.289062 C 94.488281 40.164062 97.53125 42.34375 97.613281 45.679688 C 97.621094 46.027344 97.625 46.375 97.628906 46.722656 C 105.980469 42.515625 115.605469 41.597656 125.707031 44.078125 C 148.898438 49.773438 153.101562 70.5625 154.246094 85.699219 C 155.578125 103.308594 149.457031 117.746094 137.011719 126.355469 C 125.675781 134.191406 110.292969 135.835938 96.980469 130.824219 C 96.867188 137.726562 96.835938 144.71875 96.808594 151.503906 C 96.78125 157.382812 96.753906 163.460938 96.671875 169.441406 L 96.667969 169.867188 L 96.5 170.261719 C 95.953125 171.558594 95.332031 172.523438 94.554688 173.300781 C 92.882812 174.960938 89.726562 175.765625 86.867188 175.765625 Z M 83.4375 170.433594 C 83.679688 170.746094 84.222656 171.023438 84.957031 171.199219 C 87.484375 171.8125 90.65625 171.019531 91.472656 170.207031 C 91.773438 169.90625 92.046875 169.496094 92.3125 168.933594 C 92.386719 163.117188 92.414062 157.207031 92.441406 151.484375 C 92.476562 143.625 92.511719 135.496094 92.675781 127.519531 L 92.746094 124.167969 L 95.78125 125.585938 C 108.359375 131.449219 123.566406 130.34375 134.527344 122.765625 C 145.648438 115.074219 151.105469 102.027344 149.894531 86.03125 C 148.214844 63.824219 140.433594 52.191406 124.667969 48.320312 C 114.386719 45.792969 104.703125 47.164062 96.664062 52.285156 L 93.398438 54.367188 L 93.308594 50.492188 C 93.289062 49.644531 93.285156 48.796875 93.277344 47.949219 C 93.269531 47.222656 93.261719 46.5 93.25 45.777344 C 93.230469 45.003906 91.660156 44.621094 90.199219 44.65625 C 87.609375 44.71875 84.628906 46.042969 84.667969 47.652344 C 85.117188 65.800781 84.375 128.382812 83.4375 170.433594 Z M 112.449219 125.082031 C 111.59375 125.082031 110.746094 125.042969 109.910156 124.96875 C 103.484375 124.402344 95.394531 120.453125 93.34375 104.875 C 91.730469 92.617188 90.515625 80.71875 93.277344 69.929688 C 94.585938 64.820312 98 58.230469 102.675781 55.027344 C 107.308594 51.847656 116.605469 51.027344 121.71875 51.25 C 127.792969 51.511719 133.171875 53.859375 137.273438 58.035156 C 143.417969 64.296875 146.890625 74.511719 146.5625 85.359375 C 146.554688 85.765625 146.539062 86.1875 146.519531 86.617188 C 146.160156 95.449219 144.808594 106.601562 137.511719 114.511719 C 131.589844 120.933594 121.589844 125.082031 112.449219 125.082031 Z M 120.144531 55.582031 C 115.445312 55.582031 108.300781 56.460938 105.144531 58.625 C 101.425781 61.175781 98.578125 66.835938 97.507812 71.011719 C 94.9375 81.046875 96.117188 92.488281 97.671875 104.304688 C 99.015625 114.511719 103.261719 120 110.292969 120.621094 C 118.8125 121.375 128.679688 117.648438 134.304688 111.550781 C 140.636719 104.6875 141.828125 94.527344 142.15625 86.441406 L 142.15625 86.4375 C 142.171875 86.035156 142.1875 85.636719 142.199219 85.242188 C 142.492188 75.546875 139.484375 66.523438 134.15625 61.09375 C 130.84375 57.722656 126.476562 55.824219 121.53125 55.609375 C 121.101562 55.59375 120.632812 55.582031 120.144531 55.582031 Z M 120.144531 55.582031 " />
</g>
</svg>