<svg xmlns="http://www.w3.org/2000/svg" width="216" height="216" viewBox="0 0 216 216" version="1.1">
<g id="surface1">
<path style=" stroke:none;fill-rule:nonzero;fill:rgb(8.627451%,13.333333%,18.039216%);fill-opacity:1;" d="M 162.03125 147.675781 C 161.53125 142.808594 151.25 142.460938 151.007812 148.191406 C 149.847656 175.375 123.40625 164.660156 121.417969 155.941406 C 120.417969 151.539062 119.671875 143.90625 119.117188 135.789062 C 118.09375 135.988281 117.058594 136.136719 116.027344 136.246094 C 117.109375 135.832031 118.167969 135.355469 119.179688 134.710938 C 118.476562 124.789062 117.960938 119.035156 117.511719 109.109375 C 116.507812 86.667969 116.730469 63.914062 117.59375 41.496094 C 117.765625 37.070312 106.566406 35.671875 106.398438 39.765625 C 106.253906 43.695312 106.15625 47.640625 106.050781 51.582031 C 98.824219 47.703125 89.359375 46.890625 82.054688 49.109375 C 62.027344 55.203125 51.820312 72.882812 49.574219 92.84375 C 45.828125 126.179688 85.480469 138.378906 107.027344 120.847656 C 107.257812 125.695312 107.5625 131.300781 107.839844 135.835938 C 107.800781 135.828125 107.765625 135.824219 107.730469 135.816406 C 108.691406 147.386719 110.097656 156.742188 112.113281 161.339844 C 116.960938 172.390625 126.703125 180.785156 142.390625 178.21875 C 156.871094 175.847656 163.585938 162.734375 162.03125 147.675781 Z M 105.585938 106.222656 C 100.15625 117.335938 88.089844 127.832031 74.863281 122.355469 C 66.191406 118.753906 62.679688 109.4375 61.171875 101.011719 C 59.226562 90.183594 63.519531 78.238281 69.136719 69.21875 C 75.210938 59.457031 98.125 43.636719 104.839844 62.066406 C 105 62.535156 105.734375 105.921875 105.585938 106.222656 Z M 105.585938 106.222656 " />
<path style=" stroke:none;fill-rule:nonzero;fill:rgb(8.627451%,13.333333%,18.039216%);fill-opacity:1;" d="M 136.996094 180.851562 C 125.019531 180.855469 115.402344 174.273438 110.113281 162.214844 C 108.320312 158.128906 106.925781 150.6875 105.867188 139.527344 L 99.691406 140.183594 L 105.714844 137.871094 C 105.660156 137.257812 105.605469 136.628906 105.554688 135.996094 L 105.304688 133.011719 L 105.488281 133.050781 C 105.335938 130.4375 105.183594 127.648438 105.042969 124.960938 C 93.191406 132.5 77.023438 133.125 64.320312 126.1875 C 51.929688 119.421875 45.765625 107.179688 47.40625 92.601562 C 50.015625 69.414062 62.414062 52.804688 81.421875 47.023438 C 88.398438 44.898438 96.902344 45.394531 103.957031 48.203125 C 104.03125 45.363281 104.113281 42.519531 104.21875 39.6875 C 104.335938 36.769531 107.050781 34.996094 111.125 35.15625 C 115.433594 35.328125 119.925781 37.636719 119.773438 41.578125 C 118.808594 66.632812 118.78125 88.691406 119.691406 109.011719 C 120.03125 116.480469 120.402344 121.523438 120.871094 127.90625 C 121.023438 129.957031 121.183594 132.132812 121.355469 134.558594 L 121.449219 135.859375 L 121.316406 135.941406 C 121.953125 145.179688 122.703125 151.746094 123.546875 155.457031 C 124.324219 158.859375 131.644531 163.929688 138.523438 163.320312 C 144.863281 162.742188 148.425781 157.480469 148.824219 148.097656 C 148.980469 144.445312 151.933594 141.90625 156.179688 141.78125 C 159.859375 141.664062 163.804688 143.582031 164.203125 147.453125 C 165.988281 164.75 157.363281 177.980469 142.742188 180.371094 C 140.777344 180.695312 138.859375 180.851562 136.996094 180.851562 Z M 110.207031 139.0625 C 111.214844 149.648438 112.523438 156.839844 114.113281 160.460938 C 117.195312 167.492188 124.917969 178.859375 142.039062 176.0625 C 154.421875 174.039062 161.414062 162.984375 159.859375 147.902344 L 159.859375 147.898438 C 159.742188 146.753906 157.9375 146.09375 156.308594 146.144531 C 155.800781 146.160156 153.269531 146.335938 153.1875 148.285156 C 152.953125 153.742188 151.097656 166.558594 138.921875 167.667969 C 130.636719 168.433594 120.730469 162.746094 119.289062 156.425781 C 118.460938 152.789062 117.730469 146.707031 117.109375 138.320312 C 116.832031 138.355469 116.546875 138.386719 116.257812 138.417969 Z M 109 116.425781 L 109.207031 120.742188 C 109.433594 125.496094 109.738281 131.085938 110.019531 135.703125 L 110.046875 136.207031 L 115.246094 134.210938 C 115.867188 133.972656 116.410156 133.734375 116.902344 133.488281 C 116.765625 131.609375 116.640625 129.878906 116.519531 128.226562 C 116.046875 121.808594 115.671875 116.742188 115.332031 109.207031 C 114.414062 88.765625 114.441406 66.589844 115.410156 41.410156 C 115.421875 41.101562 114.851562 40.535156 113.765625 40.101562 C 111.59375 39.230469 109.121094 39.472656 108.578125 39.929688 C 108.457031 43.152344 108.371094 46.390625 108.289062 49.628906 L 108.136719 55.175781 L 105.019531 53.503906 C 98.445312 49.976562 89.683594 49.074219 82.691406 51.199219 C 65.429688 56.449219 54.148438 71.71875 51.742188 93.089844 C 50.3125 105.816406 55.660156 116.484375 66.414062 122.355469 C 78.847656 129.148438 94.980469 127.832031 105.648438 119.152344 Z M 82.199219 126.039062 C 79.457031 126.039062 76.71875 125.488281 74.027344 124.371094 C 66.222656 121.132812 61.171875 113.402344 59.023438 101.398438 C 57.246094 91.5 60.253906 79.351562 67.28125 68.0625 C 71.9375 60.582031 85.226562 50.398438 95.445312 51.457031 C 99.167969 51.84375 104.175781 53.867188 106.890625 61.320312 C 107.042969 61.765625 107.136719 62.035156 107.511719 84.171875 C 107.886719 106.480469 107.855469 106.542969 107.550781 107.175781 L 107.546875 107.183594 C 104.453125 113.519531 99.625 119.050781 94.300781 122.363281 C 90.371094 124.808594 86.285156 126.039062 82.199219 126.039062 Z M 93.890625 55.742188 C 85.820312 55.742188 74.828125 64.203125 70.988281 70.371094 C 67.929688 75.28125 61.0625 88.0625 63.320312 100.628906 C 65.191406 111.074219 69.359375 117.707031 75.699219 120.339844 C 83.863281 123.714844 95.96875 120.542969 103.421875 105.675781 C 103.460938 101.394531 102.859375 66.019531 102.6875 62.539062 C 101.113281 58.390625 98.589844 56.171875 94.992188 55.800781 C 94.632812 55.761719 94.265625 55.742188 93.890625 55.742188 Z M 93.890625 55.742188 " />
</g>
</svg>