<svg xmlns="http://www.w3.org/2000/svg" width="216" height="216" viewBox="0 0 216 216" version="1.1">
<g id="surface1">
<path style=" stroke:none;fill-rule:nonzero;fill:rgb(8.627451%,13.333333%,18.039216%);fill-opacity:1;" d="M 137.601562 72.535156 C 129.066406 55.941406 109.550781 66.542969 100.210938 76.792969 C 100.195312 74.523438 100.195312 72.257812 100.191406 69.996094 C 96.847656 67.121094 90.1875 67.410156 88.625 71.652344 C 88.671875 85.21875 88.824219 131.601562 88.964844 139.953125 C 88.964844 143.066406 88.984375 146.179688 88.984375 149.285156 C 88.984375 154.316406 100.554688 151.898438 100.554688 147.914062 C 100.554688 145.523438 100.539062 143.136719 100.53125 140.746094 C 100.53125 140.726562 100.539062 140.707031 100.539062 140.675781 C 100.539062 128.75 100.539062 116.722656 101.535156 104.832031 C 102.003906 99.21875 103.199219 93.761719 104.574219 88.3125 C 106.277344 81.59375 119.136719 62.1875 126.054688 75.632812 C 128.066406 79.550781 139.273438 75.785156 137.601562 72.535156 Z M 137.601562 72.535156 " />
<path style=" stroke:none;fill-rule:nonzero;fill:rgb(8.627451%,13.333333%,18.039216%);fill-opacity:1;" d="M 93.078125 154.308594 C 91.472656 154.308594 90.117188 153.976562 89.050781 153.320312 C 87.601562 152.429688 86.800781 150.996094 86.800781 149.285156 C 86.800781 147.734375 86.796875 146.183594 86.792969 144.632812 C 86.785156 143.074219 86.78125 141.515625 86.78125 139.953125 C 86.644531 131.765625 86.496094 87.070312 86.445312 72.386719 L 86.441406 71.265625 L 86.578125 70.898438 C 87.425781 68.59375 89.351562 66.945312 92.007812 66.253906 C 95.308594 65.402344 99.171875 66.238281 101.617188 68.34375 L 102.371094 68.992188 L 102.378906 71.621094 C 109.277344 65.5625 118.585938 60.773438 126.765625 61.859375 C 132.242188 62.585938 136.660156 65.933594 139.542969 71.539062 C 140.167969 72.753906 140.074219 74.148438 139.285156 75.371094 C 137.570312 78.039062 132.730469 79.65625 129.304688 79.476562 C 126.835938 79.355469 124.992188 78.34375 124.113281 76.628906 C 122.203125 72.917969 120.328125 73.132812 119.710938 73.203125 C 114.703125 73.773438 107.910156 84.046875 106.691406 88.851562 C 105.484375 93.625 104.1875 99.277344 103.710938 105.011719 C 102.722656 116.8125 102.722656 128.945312 102.722656 140.675781 L 102.71875 141.800781 C 102.726562 143.839844 102.734375 145.875 102.734375 147.914062 C 102.734375 152.085938 97.125 154.308594 93.078125 154.308594 Z M 90.808594 72.097656 L 90.8125 72.371094 C 90.859375 87.050781 91.011719 131.722656 91.148438 139.917969 C 91.148438 141.507812 91.152344 143.0625 91.15625 144.617188 C 91.164062 146.175781 91.167969 147.730469 91.167969 149.285156 C 91.167969 149.601562 91.578125 149.808594 92.386719 149.902344 C 95.136719 150.222656 98.199219 148.613281 98.371094 147.894531 C 98.371094 145.882812 98.359375 143.851562 98.351562 141.820312 L 98.347656 140.503906 L 98.355469 140.453125 C 98.355469 128.703125 98.363281 116.558594 99.359375 104.648438 C 99.863281 98.601562 101.210938 92.726562 102.460938 87.777344 C 103.746094 82.695312 111.210938 69.777344 119.214844 68.863281 C 121.722656 68.578125 125.277344 69.347656 127.996094 74.632812 C 128.101562 74.832031 128.667969 75.125 129.824219 75.125 L 129.859375 75.125 C 132.296875 75.113281 134.789062 73.933594 135.480469 73.191406 C 133.257812 69.066406 130.136719 66.710938 126.191406 66.1875 C 117.996094 65.09375 107.820312 71.683594 101.824219 78.261719 L 98.066406 82.386719 L 98.027344 76.808594 C 98.015625 75.101562 98.015625 73.398438 98.011719 71.699219 L 98.011719 71.125 C 96.625 70.339844 94.703125 70.066406 93.101562 70.480469 C 92.316406 70.6875 91.3125 71.132812 90.808594 72.097656 Z M 90.808594 72.097656 " />
</g>
</svg>