<svg xmlns="http://www.w3.org/2000/svg" width="216" height="216" viewBox="0 0 216 216" version="1.1">
<g id="surface1">
<path style=" stroke:none;fill-rule:nonzero;fill:rgb(8.627451%,13.333333%,18.039216%);fill-opacity:1;" d="M 113.855469 105.371094 C 107.53125 100.996094 100.816406 96.855469 97.398438 90.46875 C 94.117188 84.335938 97.617188 71.429688 106.332031 72.824219 C 111.878906 73.707031 119.34375 77.695312 122.117188 82.78125 C 123.652344 85.589844 135.28125 78.726562 130.066406 73.074219 C 126.707031 69.4375 116.804688 64.875 112.175781 64.425781 C 105.488281 63.773438 98.488281 65.464844 93.574219 69.824219 C 81.898438 80.179688 84.851562 93.527344 95.152344 103.445312 C 102.183594 110.210938 112.503906 114.441406 118.035156 122.664062 C 125.09375 133.160156 117.621094 143.09375 107.003906 144.402344 C 102.238281 144.992188 96.617188 142.359375 91.925781 138.800781 C 87.863281 135.730469 84.179688 124.65625 76.40625 130.464844 C 70.859375 134.609375 83.761719 145.589844 86.546875 147.390625 C 100.726562 156.574219 133.082031 152.496094 128.304688 123.28125 C 126.949219 115.011719 120.628906 110.054688 113.855469 105.371094 Z M 113.855469 105.371094 " />
<path style=" stroke:none;fill-rule:nonzero;fill:rgb(8.627451%,13.333333%,18.039216%);fill-opacity:1;" d="M 103.132812 153.910156 C 96.363281 153.910156 89.832031 152.117188 85.359375 149.222656 C 83.753906 148.1875 73.074219 139.828125 72.855469 133.371094 C 72.792969 131.46875 73.570312 129.859375 75.101562 128.714844 C 82.476562 123.207031 87.375 129.742188 90.304688 133.648438 C 91.367188 135.0625 92.367188 136.398438 93.242188 137.0625 C 98.171875 140.800781 103.09375 142.695312 106.738281 142.238281 C 111.757812 141.617188 115.972656 138.832031 117.738281 134.960938 C 119.308594 131.523438 118.785156 127.691406 116.222656 123.882812 C 113.121094 119.269531 108.371094 115.988281 103.339844 112.515625 C 100.007812 110.210938 96.558594 107.828125 93.636719 105.015625 C 87.1875 98.808594 83.714844 91.554688 83.855469 84.597656 C 83.980469 78.554688 86.839844 72.878906 92.125 68.1875 C 97.234375 63.660156 104.617188 61.492188 112.390625 62.253906 C 117.390625 62.738281 127.839844 67.445312 131.671875 71.59375 C 133.597656 73.683594 134.09375 76.230469 133.066406 78.773438 C 131.578125 82.460938 126.964844 85.421875 123.835938 85.601562 C 122.199219 85.695312 120.871094 85.050781 120.203125 83.828125 C 117.773438 79.375 110.933594 75.769531 105.988281 74.976562 C 103.820312 74.632812 101.988281 75.472656 100.554688 77.488281 C 98.234375 80.746094 97.660156 86.328125 99.324219 89.4375 C 102.148438 94.714844 107.507812 98.378906 113.179688 102.257812 C 113.820312 102.695312 114.460938 103.132812 115.097656 103.574219 C 122.054688 108.390625 128.972656 113.851562 130.457031 122.929688 C 132.335938 134.414062 128.820312 143.71875 120.550781 149.125 C 115.425781 152.476562 109.183594 153.910156 103.132812 153.910156 Z M 80.65625 130.988281 C 79.769531 130.988281 78.824219 131.382812 77.714844 132.214844 C 77.335938 132.496094 77.207031 132.761719 77.222656 133.226562 C 77.335938 136.6875 84.667969 143.574219 87.730469 145.558594 C 95.082031 150.320312 109.066406 151.417969 118.164062 145.472656 C 124.992188 141.003906 127.753906 133.453125 126.148438 123.632812 C 124.9375 116.238281 119.054688 111.625 112.613281 107.164062 C 111.984375 106.730469 111.351562 106.296875 110.714844 105.863281 C 104.859375 101.859375 98.804688 97.714844 95.472656 91.5 C 93.007812 86.886719 93.675781 79.621094 97 74.953125 C 99.40625 71.574219 102.84375 70.054688 106.679688 70.667969 C 112.519531 71.601562 120.359375 75.597656 123.75 81.238281 C 124.90625 81.078125 127.722656 79.601562 128.839844 77.515625 C 129.445312 76.382812 129.332031 75.5 128.460938 74.554688 C 125.410156 71.253906 116.027344 66.992188 111.964844 66.597656 C 105.402344 65.960938 99.226562 67.730469 95.023438 71.457031 C 90.609375 75.371094 88.320312 79.824219 88.222656 84.6875 C 88.105469 90.414062 91.105469 96.515625 96.664062 101.871094 C 99.332031 104.4375 102.484375 106.617188 105.820312 108.921875 C 110.964844 112.472656 116.285156 116.148438 119.847656 121.445312 C 123.25 126.507812 123.910156 131.949219 121.710938 136.773438 C 119.320312 142.015625 113.785156 145.765625 107.273438 146.570312 C 100.75 147.382812 94.03125 143.136719 90.605469 140.542969 C 89.242188 139.511719 88.0625 137.933594 86.8125 136.265625 C 84.269531 132.878906 82.597656 130.988281 80.65625 130.988281 Z M 80.65625 130.988281 " />
</g>
</svg>