<?xml version='1.0' encoding='utf-8'?>
<svg viewBox="0 0 432 432" width="432px" height="432px" xmlns="http://www.w3.org/2000/svg" xmlns:xlink="http://www.w3.org/1999/xlink" version="1.1"><g isolation="isolate"><g id="Layer_1"><path d="m236.428993,227.687783l4.490543,11.873479,6.621224-8.098546,2.721675-6.659384-4.516972-1.127276-.594683-5.683229-1.64735-3.677394.975664-4.949048s-6.978986-1.092567-7.266951-.605675l-.78315,18.927073Zm-164.155177,168.411355c2.771439,3.787709,7.513814,5.624844,12.14301,6.398388,3.296614.550832,6.701111.657717,9.965599-.059346,6.97275-1.531676,12.717329-6.740444,16.349964-12.886121,3.632592-6.14572,5.409946-13.194792,6.814681-20.194241l-.264563-.01094c3.127171-7.791575.953277-28.419995,9.624759-30.432478,8.103762-1.880722,25.523004,1.42718,42.607049,16.219463,5.208767,4.510068,18.916491,23.846804,23.789411,30.670471.40709.009725.798333.001259,1.199171.00382l-2.623876.108317c1.404735,6.999449,3.182089,14.048521,6.814724,20.194241,3.632592,6.145677,9.377171,11.354444,16.349921,12.886121,3.264488.717063,6.668985.610179,9.965642.059346,4.629109-.773544,9.371527-2.610679,12.142966-6.398388,2.771526-3.787666,2.712484-9.86006-1.084299-12.618997-2.864084-2.081206-6.733801-1.760162-10.251782-2.158005-7.620004-.861804-14.663866-5.768456-18.113252-12.617477l-6.872465.283665c9.209854-.850907,16.542764-3.636456,22.315518-7.029926l.001389.005687c35.296411,20.997307,121.238469,23.860001,159.558031-57.051849,27.286248-66.803897,1.890316-144.0621-27.674887-181.463464-20.780195-26.287995-42.515142-36.454339-35.385061-45.591172,10.14646-13.002165,28.786363,16.155601,28.786363,16.155601,19.386617-38.185935-5.341613-96.726568-74.021977-93.996155-48.026242,1.909288-75.78444,56.103956-19.386791,168.605605,19.508349,54.784833-4.519619,76.122372-26.886843,84.4274-2.473448.008943-5.499031.602408-9.1499,1.997374-.045107-1.993293.397582-4.146219,1.507625-6.450701,2.208017-4.584002,6.238626-8.176306,10.306222-11.711174,19.730801-14.32728,20.758835-54.692926-22.655403-73.532489-2.092928-.908213-5.665218-8.202571-7.666717-12.608056-1.026385-3.14853-2.300836-6.701024-3.86021-10.723167-5.713798-28.607238,36.450953-75.323996,14.983346-96.660276-14.364225-14.276312-29.641568,2.287594-34.397184,20.756491l-16.379399-5.23182c-4.704822-23.342858-14.202335-26.172732-19.783375-27.641415-9.385115-2.469758-18.209587,5.603745-18.209587,28.887126-8.76773,4.443211-37.788266,4.644043-54.637444,49.229278-2.531319,18.476668,13.687971,30.526729,46.924925,38.03542.337801,1.381378.846436,2.67645,1.498378,3.893769l-1.918665.305849c-26.868224,8.434207-40.239937,24.119142-44.174661,39.553058-.737249,2.891853-4.300356,4.672776-2.978259,7.171231,1.287011,2.432151-2.706062,5.614064-1.524667,7.151752,6.326275,8.234199-1.491873,9.539349,1.606673,11.246711,4.920436,2.711261,10.383868,8.890116,14.689555,12.016628,4.067597,3.534868,8.098205,7.127172,10.306222,11.711174,1.11,2.304482,1.552732,4.457408,1.507582,6.450745-26.652409-10.183796-20.19016,22.127363-6.016435,15.744474,4.279672-1.645767,9.29768-5.131708,13.270983-12.388687,4.18108-7.469011.767119-18.282044-2.615715-25.367496-6.793582-17.685628,3.785278-34.134966,10.328711-27.085243l.317744.326644c-4.209125,10.85649-6.656959,29.753619-5.90751,48.045301-1.952268,4.382867-4.167448,8.883124-6.551377,13.508846-9.693352,18.808608-32.311203,39.95122-32.311203,57.866376,0,6.871596,8.812142,19.810291,16.449338,26.436427,4.596288,3.987802,12.17544,7.7891,19.593006,9.969159-3.706786,5.892011-10.149846,10.026465-17.078922,10.810124-3.51798.397843-7.387654.076799-10.251782,2.158005-3.796783,2.758936-3.855782,8.831331-1.084299,12.618997ZM177.203651,80.678184c-.49396,1.918492-.872136,3.857301-1.126193,5.784432.454107-3.571596,1.122459-5.772276,1.126193-5.784432Zm18.656851,134.272119c4.17323,2.458621,16.058543,3.465148,19.5563,14.263367,2.081899,6.427205,2.313098,13.908715-1.069273,20.3807-3.22572,6.756333-6.474405,16.899885-3.144623,24.303602-.480719.072501-.951497.139792-1.411811.202134-17.73729-34.683671-18.549778-52.972905-13.930593-59.149803Z" stroke-width="0px" fill="#c56439" /><path d="m101.533533,263.052911l-1.222354-8.664492,3.203058,2.680705c-.003647-1.052867-.000174-2.089759.010767-3.110673l-3.683907-17.054958.941034-.410519s1.50819,1.198737,1.775965,1.6004-1.19318-10.707017-1.19318-10.707017c0,0,2.281647.0323,4.559647.044977,6.726508-34.609868,26.140042-38.602185,40.53687-38.591071,11.048074.008509,32.437449,3.13047,36.6965,28.9397,4.259398,25.80923-34.202648,91.181302-18.086987,133.765211l.449765,1.113125s-20.767865-16.301471-38.61903-12.973209c-3.481426,1.620891-1.500896-.175738-1.500896-.175738,0,0-14.427044-16.611618-19.756849-51.713623l-2.774999-5.679719-3.02784-9.577568,3.667757-1.789163-1.97532-7.696368Z" stroke-width="0px" fill="#e7caae" /><path d="m87.187545,120.690606c2.967588.474877,5.969277.959352,8.735466,2.134208,3.910247,1.660761,7.150841,4.616137,11.018957,6.372792,11.441073,5.195814,27.212104-.257368,38.764173,4.686753,8.011571,3.428839,11.618676,11.625768,10.652673,20.286544-1.004916,9.009658-8.833178,15.434953-17.893545,15.129083-3.665461-.123743-7.453189-1.178294-11.033421-1.973811-12.131495-2.695582-43.255149-7.233007-56.823268-26.548706-.836171-1.190381-2.458809-6.889287-2.197964-9.937231.418721-4.892704,1.359387-10.930694,2.464807-11.431191,4.511326-2.042578,11.321265.482917,16.312121,1.28156Z" stroke-width="0px" fill="#e7caae" /><path d="m137.227343,120.19971c-3.844878-.975909-7.205843-1.802526-11.036415-1.90921.000003-.000045-2.23094-.100005-2.23094-.100005-1.589258-.042553-3.054661-.155171-4.692506.135678.36989-.846255,1.09956-1.463798,1.82998-1.974362,5.167162-3.317644,13.403528-1.983373,16.129882,3.8479h0Z" stroke-width="0px" /><path d="m97.656644,81.072842c-1.667505-.656694-4.501057-1.865659-6.144746-2.303757-.81997-.241703-2.102439-.526494-2.952371-.749256-1.156262-.273298-2.151666-.589685-3.433822-.614557.250455-.701283.829624-1.204827,1.415907-1.597835,4.199541-2.652113,10.881996.063946,11.115032,5.265404h0Z" stroke-width="0px" /><path d="m92.909478,111.193198c-3.844711-.975979-7.205753-1.802533-11.036041-1.90921.000003-.000045-2.23094-.100005-2.23094-.100005-1.58907-.042543-3.055037-.155183-4.692506.135678.36989-.846255,1.09956-1.463798,1.82998-1.974362,5.166982-3.317607,13.403793-1.983531,16.129507,3.8479h0Z" stroke-width="0px" /><path d="m184.297497,98.649572c.015386-1.755646.030771-3.511292.046157-5.266939.051565-5.884049.130227-11.917113,2.247643-17.407217s6.742086-10.409082,12.58068-11.140879c5.718392-.716729,11.668613,3.174781,13.304049,8.700996,0,0-21.021314-10.752526-28.17853,25.114039Z" opacity=".35" fill="#754123" mix-blend-mode="multiply" stroke-width="0px" /><path d="m212.475913,73.5355c-3.959981-7.862468-12.689545-10.449858-19.536843-4.531227-3.113412,2.624908-4.579256,6.377051-5.93494,10.173201-1.375912,3.914599-2.159119,8.018577-2.706466,12.293179-.944357-5.293661-.423186-10.949479,1.267688-16.115747,1.542388-5.547356,5.795964-10.557227,11.565059-11.908601,7.098499-1.839919,14.11299,2.994509,15.345502,10.089195h0Z" stroke-width="0px" /><path d="m92.034825,142.696582c4.57699,8.602739,21.556872,20.673698,24.542756,1.32403l-5.362779,1.069098-10.952233-.526708-8.227744-1.86642Z" stroke-width="0px" /><path d="m348.431788,110.57185c-6.248105-44.098932-36.574057-46.672979-46.580402-38.888368-10.305339,7.898-20.614161,26.234054-.03536,65.282211,26.507814,50.298426,54.827714,184.968221-66.877761,183.160714,0,0,11.648919,22.172377,6.929047,40.809638-7.832801,9.900976-18.065196,17.913601-18.065196,17.913601,0,0,47.487123,22.635728,93.07466,4.397246,74.7121-31.45564,83.548801-103.488143,75.748187-150.612127-1.456097-8.712856-9.919678-74.863381-63.451998-119.642333-26.084991-20.009411,4.174016-34.469468,19.258822-2.420583Z" fill="#754123" mix-blend-mode="multiply" stroke-width="0px" opacity=".25" /><path d="m228.148809,419.774718c.42719,0,.849518-.191715,1.129796-.556389,2.303006-3.002139,3.232405-6.423828,2.549596-9.388458-.558473-2.424912-2.17867-4.417076-4.561904-5.609041-.701564-.350782-1.556986-.067378-1.908811.63627-.351129.702954-.066336,1.557334.63627,1.908811,1.633394.816871,2.691992,2.097052,3.061877,3.702314.491442,2.133867-.250063,4.692145-2.034536,7.017727-.478245.623767-.360507,1.516351.262913,1.994943.258051.197966.562641.293823.8648.293823Z" stroke-width="0px" /><path d="m80.463972,402.969823c.376483,0,.751924-.148648,1.031508-.442472.541455-.569587.518185-1.470507-.051402-2.011614-2.625309-2.494374-3.796783-4.998472-3.388347-7.242783.401489-2.204718,2.168945-3.60993,2.962199-3.944736.723792-.305632,1.062418-1.140563.756786-1.864355s-1.139521-1.062766-1.864008-.757134c-1.54622.653636-4.062127,2.805562-4.653941,6.056375-.410867,2.255425-.010419,5.788947,4.227793,9.815648.275069.261176.627587.39107.979412.39107Z" stroke-width="0px" /><path d="m108.347995,372.855736c-5.357745,4.910063-17.738651,7.63825-20.736359,7.629787,0,0,11.215503-4.928899,13.497893-8.64433l7.238466,1.014543Z" fill="#754123" mix-blend-mode="multiply" stroke-width="0px" opacity=".25" /><path d="m78.508214,388.259382c-3.584532.803336-3.433906,3.514597-4.990371,3.966474-1.556464.451877-2.410009-3.195517-2.359801-4.208602-.823896.593588.044684,5.514024.675053,7.421948s6.454558,4.568976,6.454558,4.568976l-1.305422-4.167308.602502-5.47273.92348-2.108758Z" fill="#754123" mix-blend-mode="multiply" stroke-width="0px" opacity=".25" /><path d="m77.329322,391.092361c.24672,6.498239,12.004216,4.949328,14.80852,4.748496,2.804303-.200831,10.852409-1.204989,18.082428-16.267565,3.164202-6.592143,4.02045-14.761373,5.05326-22.007585l-.000043-.000043c.000087-.000651.00026-.001302.000347-.001954.521919-3.661375,1.090637-7.08454,2.023423-9.95188,4.113789-15.944958,10.834696-20.969088,23.048123-22.665432,14.460082-2.008315,39.603694,23.907756,51.533673,51.216971,4.599414,9.099975,2.992762,7.125349,5.603658,17.970421,2.610809,10.845029,10.198383,19.179621,18.002764,19.882575,7.804382.70291,13.929871.100416,14.231075-4.117132.181208,5.43352,0,7.951727,0,7.951727l-4.31792,1.651194-12.630675-1.149897-10.565662-6.429429-8.787527-19.211357-3.563825-10.728159-21.321823-27.380413-20.351181-12.183905-16.200621-3.481122-7.230063,1.472764-3.689551,5.94719-2.067661,16.278462-.155725-.212466c-.681681,4.457929-1.646332,9.512404-3.201625,15.129911-6.169034,22.281395-21.679986,28.328827-31.621273,25.389767-9.941287-2.939103-6.682096-11.85114-6.682096-11.85114Z" fill="#754123" mix-blend-mode="multiply" stroke-width="0px" opacity=".25" /><path d="m217.604454,274.425651l-2.117969,1.015166s-.103966-3.414131,4.489638-4.936969-1.556464,2.82821-1.556464,2.82821l-.815205,1.093593Z" stroke-width="0px" /><path d="m95.522438,263.091857c.940703.449538,1.894665,2.407671,2.145708,3.913926l-2.165719-.730076-.897001-2.633895.917013-.549955Z" stroke-width="0px" /><path d="m230.346409,363.495053c-4.175073.100859-8.403293-.223743-12.489723.637943-4.938025,1.041256-9.483221,3.853771-12.618587,7.808235-3.135366,3.954464-4.837398,9.021231-4.725262,14.066599,1.967566.685144,4.131702.219795,6.147056-.308485,10.734378-2.81378,21.460897-7.606396,28.359337-16.298674,2.314807-2.916738,4.171468-6.194741,6.90681-8.762103-3.529264,2.121544-7.508045,2.758126-11.579632,2.856486Z" fill="#754123" mix-blend-mode="multiply" stroke-width="0px" opacity=".25" /><path d="m90.60164,350.997474c-6.825806-5.991872-16.899013-6.414617-24.800276-10.893933,2.299314,5.444655,5.292686,10.595764,8.884738,15.289194,1.829785,2.390825,3.834678,4.682376,6.251769,6.477321,2.429933,1.804481,5.214368,3.062545,7.988895,4.271978,4.659505,2.031107,9.361134,3.965576,14.100999,5.801804,1.222892.473742,3.295857,1.329861,4.421494.529407-.811512-1.66974-3.410097-3.015441-4.683999-4.509037-1.524509-1.787422-2.779499-3.785926-4.004672-5.78395-2.407939-3.926889-4.649908-8.102458-8.158945-11.182784Z" fill="#754123" mix-blend-mode="multiply" stroke-width="0px" opacity=".25" /><path d="m212.876281,271.215037c.732087,2.630082,1.734725,5.363443,3.880443,7.051393,2.826839,2.223762,6.794732,2.033074,10.379013,1.734637,3.02089-.251528,6.041779-.503056,9.062669-.754584.310272-.025834.670999-.032365.87437.203381.200357.232252.146036.582764.074609.881063-.827182,3.454562-2.839089,7.087671-6.291935,7.921988-1.840805.444797-3.774634.005061-5.581742-.561305-3.538764-1.109085-6.993981-2.760634-9.600071-5.399077-3.220666-3.260658-4.801816-7.747809-5.243502-12.240399-.081042-.824316-.579118-6.07467.488265-5.981087.760078.06664,1.700873,6.220668,1.95788,7.14399Z" fill="#754123" mix-blend-mode="multiply" stroke-width="0px" opacity=".25" /><path d="m98.270122,269.180559c-1.624958,1.292345-3.461957,2.287221-5.290198,3.271181-.850495.457737-1.705238.916355-2.61383,1.243961-1.952165.703883-4.066826.775286-6.141025.839287-1.409843.043502-2.852846.082554-4.194368-.353187-1.354239-.439871-2.507404-1.331786-3.630307-2.207309-.531108.790164-.109259,1.854289.371097,2.676295.523249.895408,1.108448,1.754606,1.750029,2.569418.336673.427577.693942.847707,1.137091,1.163602.630225.449251,1.394356.660987,2.141041.86463,1.751427.477665,3.584364.958585,5.360212.581725,1.343278-.285063,2.53356-1.038597,3.6811-1.792791,2.287569-1.50345,4.550652-3.076382,6.489609-5.008681,1.938958-1.932299,3.55334-4.254717,4.315313-6.883925.149913-.51728.344107-1.117716.361763-1.638631-.865474,1.862317-2.130921,3.396672-3.737528,4.674424Z" fill="#754123" mix-blend-mode="multiply" stroke-width="0px" opacity=".25" /><path d="m90.898463,248.157886c-1.265742-1.070567-2.657623-1.980291-4.045453-2.887015-4.269003-2.789107-8.538007-5.578214-12.80701-8.367321,2.297338,5.332588,7.084533,9.106861,11.687633,12.646032,1.920544,1.476643,3.865615,2.97699,5.331144,4.906029,1.478434,1.946026,2.411287,4.260155,3.02454,6.625892.30332,1.170114,1.229829,5.629444,3.136304,5.304644,1.549511-.263986.698609-4.969819.507145-6.087942-.798903-4.665481-3.209745-9.074653-6.834303-12.140319Z" fill="#754123" mix-blend-mode="multiply" stroke-width="0px" opacity=".25" /><path d="m231.47397,248.38061c-4.267114,2.967002-8.77723,5.867351-11.685742,10.174545-3.175678,4.702837-4.08225,10.600788-3.995204,16.274766,1.438911-.151783,2.591753-1.323273,3.214014-2.629525s.832017-2.763195,1.188863-4.165395c.94361-3.707854,2.980312-7.130437,5.789122-9.728353,2.541513-2.350689,5.662546-4.012356,8.166689-6.40284,3.851293-3.676497,6.148526-8.909454,7.738569-13.908806-2.486272,4.422786-6.305917,7.527579-10.416311,10.385609Z" fill="#754123" mix-blend-mode="multiply" stroke-width="0px" opacity=".25" /><path d="m214.55617,252.965439c4.601854-4.249523,6.439544-10.767292,6.785527-17.021555.418519-7.565525-1.271076-15.630269-6.480734-21.132249-5.209658-5.50198-14.492935-7.457865-20.571407-2.934095-4.000475,2.977266-5.947587,8.101855-6.20933,13.081754-.261743,4.979898.946555,9.907853,2.182587,14.739015,2.954963,11.54978,6.120254,23.045747,9.493774,34.480282,2.618921,8.876825,8.67641,16.81596,15.287141,23.293228,6.61073,6.477268,14.014223,12.178714,19.964226,19.267736-8.724009-14.445691-17.44802-28.891384-26.17203-43.337076-8.677039-14.367914-14.378176-30.529819-15.063487-47.300576-.138002-3.377159-1.3843-8.234844,1.061524-10.567695,2.138641-2.039858,5.481671,1.161665,8.262016,2.163907,2.780345,1.002242,6.756521,3.804792,8.430091,6.240766,6.319905,9.198976,5.281075,18.095162,3.030102,29.026559Z" fill="#754123" mix-blend-mode="multiply" stroke-width="0px" opacity=".25" /><path d="m99.922486,208.035215c-1.600452.922277-3.01777,2.138738-4.284368,3.483271-1.042162,1.106288-1.991587,2.308402-2.734208,3.634482-1.909812,3.410302-2.355151,7.506087-1.809081,11.376404.54607,3.870317,2.026203,7.551074,3.773963,11.047198,1.285337,2.571118,2.721909,5.066622,4.299819,7.469316-1.184735-5.780955-1.762045-11.686202-1.719361-17.587152.023633-3.267202.280638-6.681037,1.970443-9.477415,1.689805-2.796378,5.218817-4.732723,8.288119-3.612656.280109.102219.564711.229638.86218.2091.336841-.023257.630257-.232684.88435-.455039,3.165181-2.769833,2.982725-7.676995,5.405312-10.972501-2.333044.377768-4.998465,1.641826-7.417189,2.242063-2.58192.640736-5.195803,1.303602-7.519979,2.64293Z" fill="#754123" mix-blend-mode="multiply" stroke-width="0px" opacity=".25" /><path d="m148.037318,168.917258c-2.664709,1.36009-5.679407,1.84526-8.646308,2.229995-16.422385,2.129581-33.744068,1.902553-48.434504,9.545912,6.675047-5.556108,14.589301-9.414336,22.615293-12.732474,2.039532-.843191,4.127053-1.66389,6.324387-1.869763,2.36273-.221371,4.724902.278708,7.062238.689033,4.379175.768775,8.865485,1.175928,13.307898.818394,2.212421-.17806,4.414829-.542098,6.544977-1.173266,1.437107-.425818,4.60967-2.491073,5.842666-1.994536-.607819,1.972399-2.837441,3.578582-4.616648,4.486705Z" fill="#754123" mix-blend-mode="multiply" stroke-width="0px" opacity=".25" /><path d="m141.557785,63.800876c-2.274461-.870968-4.722204-1.247387-6.957769-2.213828-2.815013-1.216937-5.213856-3.37419-6.721669-6.04472-2.53143,6.705349-4.04252,13.794845-4.465308,20.94964-.026613.450377-.013227.980587.352168,1.245226.217606.157602.504663.172938.773332.1702,1.722259-.017549,3.394199-.532268,5.066097-.94612,5.932789-1.468571,12.08345-1.688045,18.16765-1.545679,1.544255.036135,3.088034,1.316511,4.631069,1.387186,1.732863.079369,4.126892,1.321612,2.818366-.389595-1.55925-2.039088-3.750617-5.472795-5.623355-7.230028-2.070075-1.942399-5.37577-4.361836-8.040582-5.382282Z" opacity=".35" fill="#754123" mix-blend-mode="multiply" stroke-width="0px" /><path d="m156.508445,151.545439c-5.792027,3.990087-12.671617,6.202195-19.633048,7.205612-6.961431,1.003417-14.038033.845227-21.058525.419726-3.064474-.185733-6.139565-.423968-9.132694-1.107099-2.664632-.608157-5.235802-1.562414-7.797968-2.513953-4.526112-1.680911-9.069694-3.369679-13.314942-5.669467-6.457892-3.498447-12.132801-8.379767-16.767104-14.077727,1.918367,7.452573,7.215125,13.96502,14.120568,17.361463,3.085599,1.517652,6.428444,2.425768,9.645513,3.640122,4.694768,1.772143,9.125666,4.198593,13.850929,5.887741,5.149043,1.840638,10.569001,2.77864,15.957501,3.708509,5.845671,1.00876,11.797887,2.020504,17.680521,1.256244,4.339656-.563799,9.579959-2.112863,13.00244-4.988114,2.884989-2.423701,3.750776-7.537186,3.446809-11.123056Z" fill="#754123" mix-blend-mode="multiply" stroke-width="0px" opacity=".25" /><path d="m345.804797,53.419351c-33.259674-22.883727-86.44216-36.509214-100.521861,21.314805-14.079701,57.824019,28.286797,102.0946,16.44437,154.569774,6.433478-32.276823-15.19404-59.718842-26.719353-88.528755-5.662069-14.083245-24.764352-82.780222,6.882328-111.737202,15.023792-21.999941,83.551482-20.415993,103.914517,24.381378Z" stroke-width="0px" opacity=".66" fill="#d8b58e" /><g opacity=".66"><path d="m130.615109,54.129501c5.837017-2.589456,11.168028.559562,15.994777,3.918709,2.408434,1.670536,4.512259,3.497555,6.484627,5.716686,2.091484,2.338141,3.777393,4.863376,5.487806,7.628135,1.111661-6.974685-2.992464-14.119738-8.71311-18.007081-2.935107-2.004429-6.254003-3.626162-9.921034-3.865949-3.571347-.272419-7.816999,1.236564-9.333067,4.6095h0Z" stroke-width="0px" fill="#d8b58e" /></g><g opacity=".66"><path d="m174.51723,81.943572c-18.569817-7.016418-41.604298-6.521612-60.262645-.000286,10.143525.994867,20.081061.66354,30.160149.656107,8.962371-.165578,21.193248.051661,30.102495-.655821h0Z" stroke-width="0px" fill="#d8b58e" /></g><path d="m144.121965,89.890385c-1.667505-.656694-4.501058-1.865659-6.144746-2.303757-.81997-.241703-2.102439-.526494-2.952371-.749256-1.155904-.273261-2.15187-.589768-3.433822-.614558.250455-.701283.829624-1.204827,1.415906-1.597834,4.199804-2.652145,10.882047.063943,11.115032,5.265404h0Z" stroke-width="0px" /><g opacity=".66"><path d="m195.784005,137.587344c-1.052869,7.497745-3.265201,15.453082-2.078032,23.025207.590666,3.881428,1.507006,7.717112,2.758029,11.429593,1.392744,3.906352,3.822171,7.503432,6.763184,10.369426,2.820872,2.833521,6.13543,4.893213,9.375298,7.12048,4.566842,3.157437,8.965669,6.635221,13.232439,10.21319,4.095696,3.541283,9.022337,6.996809,13.081721,10.633563-1.709005-7.843728-8.013935-13.488484-13.8902-18.45445-4.335074-3.726711-9.090717-7.068415-13.872329-10.20802-4.300084-2.945394-8.042416-6.69714-10.13196-11.494821-1.386378-3.363348-2.611702-6.874651-3.573167-10.370261-2.063734-7.292913-.873587-14.792896-1.664982-22.263908h0Z" stroke-width="0px" fill="#d8b58e" /></g><g opacity=".66"><path d="m97.816632,178.012728c-3.253591,2.053465-6.108645,4.303506-8.948939,6.590189-8.462684,6.915435-17.635837,15.766493-18.231812,27.439525,4.570425-5.954453,8.965299-10.877179,14.171715-16.109328,5.058352-5.271677,10.181252-10.954688,13.009035-17.920386h0Z" stroke-width="0px" fill="#d8b58e" /></g><g opacity=".66"><path d="m229.226393,311.89012c3.027767,11.871264,6.958765,24.541147,9.885013,36.37821,1.033689,4.051862,1.984274,8.051821,2.807049,12.370261.377525-1.024388.747756-2.093579.946417-3.172842,2.854962-14.75881-3.238884-34.738633-13.638479-45.57563h0Z" stroke-width="0px" fill="#d8b58e" /></g><g opacity=".66"><path d="m98.216384,277.661945c-10.771135,12.944335-36.518552,39.660249-32.153419,57.214879.514434-2.794503,1.389479-5.322218,2.578491-7.732369,3.601284-7.304131,8.567738-13.64473,13.251005-20.37266,6.325465-9.069732,12.882683-18.407989,16.323923-29.109849h0Z" stroke-width="0px" fill="#d8b58e" /></g><path d="m200.28759,386.353473c7.890737,4.545502,19.405227,10.570526,19.405227,10.570526l-11.989875-11.660685-7.415352,1.09016Z" fill="#754123" mix-blend-mode="multiply" stroke-width="0px" opacity=".25" /><path d="m237.901777,403.685413c.133889,4.418351-3.815848,6.761415-7.430862,3.882793-.673827,1.266003.602502,5.154742.602502,5.154742l-1.3173,4.287457,8.748162-5.087828-.602502-8.237164Z" fill="#754123" mix-blend-mode="multiply" stroke-width="0px" opacity=".25" /><path d="m68.444485,388.184454c-.494287,3.156606.324478,6.563769,2.190298,9.113575,2.701951,3.693048,7.351807,6.18348,13.447266,7.202334,1.870422.312306,3.694532.470834,5.421715.470834,1.865523,0,3.653564-.184949,5.314397-.549801,6.926543-1.520859,13.364142-6.564066,17.66206-13.836461,3.811498-6.448287,5.637687-13.769665,7.037868-20.728863.917028-2.872799,1.33205-6.666931,1.773494-10.76565.830045-7.701964,1.770525-16.429609,6.069334-17.427385,7.165077-1.661575,23.948108,1.169663,40.817974,15.776201,2.974032,2.575337,9.574464,10.964552,19.617832,24.935197l1.533921,2.005942c1.432689,7.01115,3.890614,16.46271,7.615278,22.763602,4.297918,7.271504,10.735518,12.314711,17.661912,13.835867,1.661278.365149,3.450209.550395,5.317514.550395,1.724214,0,3.546988-.158528,5.418449-.470834,6.095013-1.018854,10.744869-3.509583,13.447562-7.202927,1.865523-2.550697,2.684288-5.95786,2.190001-9.114466-.415319-2.651038-1.736089-4.904866-3.719469-6.346461-2.67835-1.945678-5.808238-2.147252-8.835112-2.341998-.845185-.054327-1.624169-.104201-2.382075-.190293-6.089373-.688587-11.845955-4.280106-15.270337-9.372445.747516-.131513,1.413095-.278908,1.940038-.44085,3.918371-1.203209,7.690683-2.850831,11.218078-4.898929,6.284712,2.901299,27.355271,11.61232,53.490412,11.61232,11.413714,0,22.413594-1.68473,32.69416-5.006989,24.289804-7.740854,43.990611-20.892141,58.552025-39.087526,13.20888-16.506202,21.881011-36.690014,25.775633-59.991245,5.283374-31.61237,1.257239-67.466401-11.337419-100.958247-12.522519-33.299475-32.349495-61.267187-55.828254-78.750681-4.843711-4.093821-7.134351-8.539728-6.097685-11.869408.572957-1.84029,2.200985-3.021531,4.466688-3.24062,8.027332-.795311,16.329565,9.030452,20.996342,17.677349l1.735495,3.21598,1.814462-3.172043c14.503228-25.358532,8.290952-64.578165-27.208618-86.315788-21.520909-13.177412-49.637649-16.004493-69.964849-7.036087-15.420849,6.804233-25.305689,19.400079-28.585496,36.426097-9.313961,48.570703,8.522212,87.072803,21.545549,115.185684,4.485094,9.680891,8.355372,18.035966,10.639777,25.503107,5.778551,18.886199,4.979083,37.395671-2.19386,50.782672-5.81566,10.85471-15.545831,18.392803-28.919176,22.405875-1.311863.177231-2.705662.47974-4.156163.901591.218792-.866857.542082-1.746479.965714-2.625804,2.099753-4.358628,6.171012-7.897007,9.76253-11.018879,5.3567-3.904418,9.425584-9.568675,11.732848-16.355392,1.832274-1.809118,7.333847-7.739666,8.542103-14.747254l.409382-2.375841h-4.736838s.620456-3.785671.620456-3.785671l-3.146809-3.004312c-.028796-1.324629.179606-3.015296.870716-3.752125l1.028947-1.097524-.749891-1.304145c-1.221318-2.122315-3.760734-2.621945-5.812691-2.638273-4.277286-8.065925-11.187797-15.434208-20.545992-21.905354-.884372-.61155-1.825446-1.204694-2.876362-1.813571-17.219132-10.073946-23.340863-29.813939-15.974213-51.515938l.187918-.553067-.008758-.003266c1.586318-4.754651,3.914809-10.224161,6.169527-15.5203,8.476049-19.909802,18.083317-42.475986,5.439082-55.485667-7.893147-8.12233-14.852346-7.844164-19.300182-6.180808-6.839412,2.559009-11.44162,9.498614-14.098002,14.869564-1.672707,3.382078-3.048249,7.116242-4.057751,10.941396-6.857075-3.194011-11.642155-4.174866-13.06193-4.412955-4.49014-20.823268-12.734335-25.712696-20.981647-27.88251-4.240771-1.115633-8.245679-.347336-11.580703,2.222953-4.027619,3.104951-8.864354,10.309956-9.158699,27.006451-1.170405.271635-2.172486.521005-3.122169.776312-17.352871,4.665293-40.143191,16.344111-50.170677,45.488017-1.804962,4.282035-3.114302,10.992161.980558,18.424271,5.92936,10.762681,20.991889,19.232051,44.783399,25.186348-22.088522,8.669756-39.379497,24.354819-44.497811,40.444513l-.043491-.007719-.240018.913762-.197566.67983c-.11192.344962-.261838.784327-.461186,1.331753-.502154,1.378956-2.011286,2.514479-2.026426,2.52576l-1.228295.892981,1.551436,4.314691c-.677751.659939-1.69334,1.623575-3.027023,2.819066l-.67508.605612v.906637c0,.682501-.000297,1.933803,4.853211,5.841784-1.068728,1.324629-2.155119,3.051217-3.235425,5.142361l-1.529913,2.962454h3.333985c3.904715,0,7.121289,3.666923,8.014121,4.790869,1.990802,2.788489,4.356995,5.197876,7.014267,7.136132,3.550996,3.088623,7.621809,6.625815,9.72275,10.987708.423632.879028.746922,1.758057.965863,2.625211-9.93798-2.895658-14.324216.627581-16.072773,3.044983-2.87087,3.972698-2.400184,10.419798,1.071696,14.677787,3.090701,3.791905,7.632793,4.85232,12.149652,2.834503,1.466383-.565832,2.886901-1.283067,4.238693-2.13983-3.242549,5.505135-7.436712,11.26528-11.5099,16.859179l-.003859.005641.491466.357727-.49399-.354461c-9.348843,12.840763-19.01593,26.118813-19.01593,38.308245,0,7.492375,9.05435,20.946468,17.149962,27.970384,4.040087,3.505278,10.442508,6.972557,17.143134,9.34068-3.485833,3.926387-8.370512,6.534082-13.521037,7.116539-.747664.084608-1.51507.134185-2.327303.18673-3.082389.198902-6.212425.400773-8.890181,2.346154-1.983677,1.441001-3.304743,3.695126-3.719914,6.347055ZM159.253085,78.499542l-3.324634-1.575186c-.318243-.150809-7.918084-3.686517-18.173565-2.950579-4.261551.305478-8.522806.86181-12.677633,1.654747.33843-11.298529,3.01025-19.422937,7.551303-22.923911,1.606357-1.237943,3.450803-1.866414,5.430175-1.866414.856615,0,1.738315.11756,2.637382.354461,4.817735,1.26763,13.784657,3.626549,18.309531,26.079033l.24744,1.227849Zm68.766983,300.024208c6.452443-4.564358,10.613356-9.59658,12.89509-12.35657.582457-.70447,1.085352-1.313051,1.450501-1.70373,2.313202-2.470839,5.449324-9.343648.458365-27.611469-3.591519-13.147428-10.426922-27.946931-18.754686-40.606901-1.89432-3.137309-3.723922-6.260369-5.459714-9.318118,1.74826,1.275645,3.629518,2.305483,5.621211,3.074967,4.486281,2.005942,9.02867.946715,12.12145-2.845784,3.472177-4.257989,3.943011-10.705385,1.071993-14.678084-.618378-.854982-1.655637-1.958147-3.281884-2.808379,10.662933-4.695574,18.688187-11.96589,23.864095-21.626594,7.679996-14.333122,8.590492-33.974555,2.497854-53.88792-2.366044-7.733432-6.290056-16.204583-10.83393-26.013128-12.795639-27.620375-30.31446-65.436115-21.246899-112.721673,3.016781-15.658047,12.089091-27.234149,26.23667-33.476409,19.163177-8.45512,45.768855-5.728974,66.204709,6.783749,12.966338,7.939459,23.469853,20.37648,28.817647,34.121802,4.062056,10.439985,7.070227,26.387182-1.324035,43.526605-5.145627-8.339638-13.309222-16.620793-21.842715-16.620793-.419476,0-.838654.01989-1.259614.060858-3.913028.378805-6.885872,2.650148-7.952521,6.075717-1.541343,4.951178,1.232599,11.019473,7.419939,16.232489l.081342.065014c22.89274,17.035222,42.243241,44.362588,54.50125,76.959671,12.346773,32.832501,16.300768,67.941688,11.133173,98.859088-3.778843,22.608933-12.170136,42.164571-24.941134,58.12305-14.052284,17.559492-33.102948,30.263101-56.622675,37.758148-35.586256,11.502478-69.742494-.631143-80.85548-5.365607Zm-51.753136-114.536432c5.707302-18.876699,10.636215-35.178952,8.889439-45.767371-1.930983-11.699896-7.424837-20.216468-16.328674-25.313111-7.67673-4.393955-16.402001-5.321967-22.369805-5.326717h-.065756c-8.140439,0-20.052002,1.166694-29.470462,11.255483-3.281736,3.51552-6.085365,8.008332-8.33949,13.362658-2.064574-1.108805-4.426314-.991839-6.583808.35268-5.540908,3.454662-10.55606,16.265441-5.129893,30.391645l.05403.126466c.899067,1.884226,2.103909,4.693496,3.023015,7.897304l-3.11445-3.428538,1.491172,7.259036c.360399,1.755385.727329,3.283369,1.050916,4.631747.447084,1.861961.834795,3.47663,1.09975,5.203813-.238237.700313-.528723,1.358472-.864482,1.958443-3.121872,5.701959-7.235138,9.564816-12.228471,11.48615l-.086537.035327c-3.649705,1.641981-6.032522-.003562-7.391884-1.672262-2.327451-2.854393-2.743661-7.220146-.928012-9.73225,2.226516-3.080607,7.35062-3.287822,14.427229-.584535l2.690077,1.028057.064421-2.879034c.055811-2.426605-.518778-4.908725-1.707738-7.377486-2.46312-5.113565-6.894035-8.96425-10.803501-12.361616l-.118748-.095295c-2.239727-1.627138-4.248489-3.65208-5.990961-6.034452-.357133-.49963-3.511067-4.75376-8.297037-6.226823,1.468461-2.350904,2.417996-3.081498,2.428238-3.089217l2.223696-1.595373-2.157494-1.681762c-1.672113-1.26377-3.405085-2.730005-4.400189-3.711454,1.837321-1.697496,2.788192-2.689037,2.798285-2.699725l.87324-.906044-1.431501-3.982198c.795905-.79264,1.744253-1.957553,2.265703-3.389054.503638-1.383112.744844-2.207516.858545-2.655194,4.970326-16.508577,24.216032-32.712863,47.911506-40.334969,11.095471,2.778692,20.077236,3.05567,26.496727.881107,7.386689-2.501713,7.748721-8.09294,7.760595-8.329841l.093662-1.880961-1.175749,1.470985c-.025679.031765-2.723771,3.30979-8.825612,5.103768-4.917335,1.445454-11.503666,1.338878-19.576567-.317946-2.470542-.643908-3.849052-.995995-4.183475-1.068431-33.157572-7.202037-44.927232-17.443416-48.961827-24.766279-2.066355-3.75064-2.673452-7.685636-1.804665-11.695443.304736-1.03726.648213-2.121128,1.039041-3.271791l.36218-.830342-.066795-.030281c7.634723-21.643813,23.498055-35.842156,47.15731-42.203164,5.974039-1.606654,12.372155-2.66321,19.016821-3.140278,12.527863-.869232,17.570476.010094,17.620053.019296l4.529179.82292-.627877-.297463.167582.04453c.083123.02182,8.14133,2.134635,15.780951,2.369607-.802882,3.36857.668697,10.791477.668697,10.791477,0,0,2.573259-7.187193,3.310235-10.265574,2.976406-12.433904,9.852927-21.697695,15.964268-23.983881,4.819516-1.803181,9.854708-.051061,14.965453,5.207375,10.761494,11.073206,1.716495,32.319511-6.26408,51.064697-2.754052,6.468177-5.355365,12.578034-6.94198,17.871501-7.286793,23.198515-.146653,44.294011,18.636384,55.046302l.063233.036218c.933059.604425,1.930538,1.244177,2.999859,1.921929,8.972562,5.887502,15.702281,13.40036,19.457374,21.724561l.116966.600862.140716-.020781.692001,1.58142.243729-1.722136c.883482-.111623,1.944491-.113998,2.726443.059671-1.000448,2.406715-.746922,5.18036-.67983,5.752723l.086092.727329,2.699131,2.576227-1.047353,6.389507h4.485687c-1.744401,5.030145-5.8403,9.261119-7.010853,10.399907l-.264213-.151106-.231558.718422c-1.989021,6.363383-5.662772,11.631022-10.623747,15.234119l-.116966.091732c-3.931137,3.414882-8.361606,7.264973-10.825617,12.380022-1.188366,2.467277-1.763104,4.949693-1.708183,7.37808l.065311,2.87933,2.689631-1.028353c7.076758-2.703584,12.200714-2.496667,14.426933.584535,1.815946,2.512104,1.399736,6.877856-.927715,9.73225-1.359362,1.667809-3.741734,3.312759-7.374221,1.680277l-.087873-.037109c-5.010255-1.927866-9.120997-5.786566-12.23515-11.475463-4.170413-7.449032.475584-18.928651,2.666475-23.518539,6.766233-12.943479,1.359956-25.674994-6.530817-32.018486-3.002234-2.41384-9.498168-5.285155-13.236043-6.592565-.054327-2.080753.444413-4.470547.449756-4.496078l.304291-1.439814-1.231709.805108c-.152739.099748-3.745742,2.541197-4.136421,10.843429-.164911,3.503942-.284103,8.903986.581863,15.317242l.081342.602644.054772-.007422c.346149,2.183767.833459,4.495781,1.451095,6.882309,3.878442,14.989499,13.099335,34.791538,26.665497,57.265099,8.336076,12.671251,14.853533,26.732441,18.364897,39.612687,3.139684,11.518212,3.296431,20.589929.408491,23.674098-.45599.488052-.993323,1.138789-1.615857,1.892242-3.470693,4.197725-11.59896,14.028832-26.207874,18.553706-.987386.305775-2.352982.695564-3.804819,1.10925-.337243-.012023-.673744.051507-.983229.20766-.075405.037999-.142052.087428-.211222.133591-7.00833,2.009356-6.992151,2.162244-6.892403,2.856175.028054.195043.140271.363664.31572.47499.519817.329821,3.362484.335759,6.34943.105685,3.877255,6.964393,11.318271,11.982663,19.237543,12.877871.872497.098857,1.777057.156747,2.57504.207808,2.563759.164762,4.984724.320618,6.711016,1.574889,1.41458,1.02776,1.91985,2.573556,2.094706,3.689485.325962,2.081941-.231558,4.415033-1.455845,6.088185-2.607102,3.562722-7.333253,5.009067-10.83868,5.594789-3.396773.567316-6.490145.55366-9.195214-.040077-5.829909-1.280989-11.310849-5.631304-15.037592-11.935907-3.436405-5.81373-5.757473-14.785698-7.127077-21.485136l.170106-.057741-.318689-.599081c-.099154-.362774-.286775-.680869-.543864-.927418-.499779-.800358-1.343628-2.041567-2.49251-3.340961-9.788358-13.58056-16.111218-21.544065-19.292018-24.29782-1.283661-1.111477-2.649554-2.221469-4.061907-3.301181-9.214659-25.203566,1.154968-59.507052,9.491044-87.081116Zm20.079314-31.339548l-.018851-.112216c-.823514-6.484505-.656377-12.032092-.327892-15.76492,3.266744,1.268817,9.068302,3.869091,11.113283,5.625367,6.718438,5.768754,11.002848,16.363408,5.429433,27.027825l-.009797.019593c-2.08016,4.355362-4.442196,10.554873-4.747377,16.716978-6.202776-13.211849-10.147421-24.75856-11.4388-33.512627Zm-97.011674-5.291389c-.032507,2.233938.290189,3.974182.610362,5.649116l-1.338433-1.205881c-.115927-2.808082.196676-5.397668.774828-7.648824l-.046757,3.205589Zm.100045-3.409835c1.054775-3.960527,2.930392-6.838373,4.712347-7.949256.977144-.609472,1.813868-.664095,2.630406-.169809l-2.477073,9.814482c-.038148.151106-.118599.47024-.187621.634409-.231706,0-.84949-.144575-1.741284-.654002l-2.936775-1.675824Zm18.376623,99.571573c-2.730896-5.960235-6.52666-15.851903-9.101997-29.129656-.09099-.525755-.187176-1.050025-.288408-1.552624l-.077037-.415616c-.049874-.266588-.099748-.533473-.147247-.805702l-.146802-.839545-.07778.042749c-.915692-3.776171-2.048543-6.571488-3.243292-9.519691-.893872-2.205735-1.81565-4.480047-2.659202-7.26616.522489-.036515,1.103164-.19623,1.643911-.640049.746625-.611847,1.132406-1.532437,1.179014-2.814019.070358-3.736391-.292416-6.361304-.875021-9.090716l3.304298,3.63694-3.884825-17.399777c-.537481-2.407012-1.089954-4.88171-1.374057-7.34394l2.460597,2.217313.065163-4.474703c.033101-2.284702-.30533-4.053446-.632479-5.764004-.133739-.698532-.261838-1.367971-.362031-2.057004,1.815204.187027,2.910502-.6163,3.433733-1.164023.786702-.824405,1.041416-1.833165,1.210037-2.500526l1.340956-5.314248.033249.091436.534512-1.725698c2.351201-7.591232,5.629523-13.674667,9.743679-18.081387,8.338747-8.933079,19.119538-9.966182,26.503258-9.966182h.061155c13.778126.010687,30.982117,4.745448,34.694462,27.23979,1.592998,9.653579-3.208113,25.535466-8.767426,43.925003-7.922537,26.205796-17.741324,58.685913-11.036839,84.44314-14.8424-9.55116-28.00675-11.143267-34.902121-9.541957-.131661.030577-.264659.065905-.404187.107467-1.482266-1.97774-4.767861-6.74664-8.227273-14.296607Zm-.557074,35.13739c-.229034,2.124393-.488498,4.532296-.850232,6.645705-.128693.751078-.271932,1.317801-.437881,1.973881-.116521.46074-.243284.963933-.382367,1.594185-.007719.030429-.021226.057741-.02746.088764-1.332347,6.638877-3.050772,13.603122-6.571933,19.560685-3.726149,6.304899-9.207237,10.655808-15.03774,11.936797-2.705514.592847-5.79948.606206-9.195362.039187-3.50602-.586316-8.232617-2.032957-10.838531-5.594195-1.224287-1.672856-1.782103-4.005354-1.455696-6.087295.17441-1.116227.679533-2.662319,2.094706-3.690079,1.725698-1.253974,4.145476-1.410127,6.707453-1.575186.847857-.054624,1.718425-.111029,2.578602-.208105,6.763562-.764437,13.143272-4.442938,17.320364-9.926402,2.791457.463561,6.666486.537629,7.454524.032359.257088-.164762.322103-.390382.337985-.510021.044085-.331009.160903-1.210334-8.150978-3.747968-7.060727-2.154674-14.274787-5.847721-18.378701-9.408366-8.72438-7.569264-15.749928-19.812132-15.749928-24.902542,0-10.868663,9.273142-23.604631,18.240954-35.921124,5.078238-6.975526,10.320198-14.176078,13.844773-21.015342.065014-.126169.129435-.251448.19341-.375836.681462,1.969131,1.38237,3.698688,2.0147,5.258734,1.252489,3.090998,2.435512,6.010406,3.32686,10.116398,4.787158,27.039997,14.803659,42.370895,18.262626,47.016001-3.704329,3.883638-4.55085,11.740567-5.300147,18.699765Z" stroke-width="0px" fill="#0c0c0c" /><path d="m129.484331,91.681051l.000391-.000608h.000043c.836407-1.26872,2.36435-1.999198,3.960799-1.736936,2.165255.355731,3.632201,2.399341,3.276514,4.564639-.127245.774673-.473209,1.457396-.960874,2.001803l.001346.001042c-5.546786,8.909215-2.779037,20.755536-2.779037,20.755536l-7.841153-1.288082c-2.050078-13.331805,3.48924-22.912586,4.253798-24.15656.02861-.047625.05774-.094598.088173-.140834Z" stroke-width="0px" /><path d="m83.789039,83.875628c.028783-.047929.058131-.09525.088781-.141789l.00013-.000217h0c.83645-1.26872,2.364393-1.999198,3.960843-1.736936,2.165255.355688,3.632201,2.399341,3.276514,4.564596-.127245.774673-.473209,1.457439-.960874,2.001846l.001346.001042c-5.546829,8.909215-2.779037,20.755536-2.779037,20.755536l-7.841153-1.288082c-2.049861-13.330025,3.487808-22.909981,4.25345-24.155995Z" stroke-width="0px" /><circle cx="132.897797" cy="94.020665" r="2.717458" stroke-width="0px" fill="#fff" /><circle cx="87.172603" cy="86.230636" r="2.717458" stroke-width="0px" fill="#fff" /><path d="m117.301975,211.920629c6.392725-14.034555,24.620419-22.128401,39.397026-16.460574,15.481598,5.745519,23.904401,23.874571,20.67181,39.67712.000035.000016-.814246,4.071984-.814246,4.071984-1.949426-.89088-5.962754-2.720713-7.925684-3.617476.000014.000009,4.18935-1.856646,4.18935-1.856646-2.028339,5.250479-3.747292,10.930174-5.264143,16.368098-1.832876-1.750359-4.019057-4.58967-6.678306-5.088262.000032-.000075,2.78319-2.165268,2.78319-2.165268-.430914,3.390967-.606125,6.825783-.541357,10.276182l.05466,2.909745c-2.490691-1.376646-5.187571-2.690091-8.106904-2.933909.000033-.000078,1.137406-1.207834,1.137406-1.207834-.043758,3.02741-.122008,7.39561-.285643,10.387371-.362813-1.696285-.703336-3.396645-1.020595-5.099968-.173772-.887227-.981166-5.482046-1.12764-6.238886,2.78358-.241114,5.598354-.092715,8.325154.811976.000002-.000044-2.277365,1.699558-2.277365,1.699558-.8064-4.393434-.944835-8.988672-.843432-13.46985-.000051,0,2.75952.389779,2.75952.389779,2.244047.316915,4.425572,1.235227,6.250685,2.693727l-4.306144,1.380253c1.00945-5.351052,2.543775-10.702902,4.196127-15.896956-.000051-.000013,3.217764,1.287113,3.217764,1.287113l4.36305,1.745183-4.465256,2.405499c1.002595-6.517338-.133654-13.348877-3.024259-19.279559-10.125791-21.232757-36.776014-19.805229-50.664765-2.788398h0Z" stroke-width="0px" fill="#eeddcf" /><path d="m87.212233,122.435826c-2.824558-1.331011-6.498903-2.75895-10.924029-3.761031-4.027916-.912129-7.630715-1.23438-10.560068-1.299692-.769484.004008-1.934842.123052-2.84712.901145-2.283812,1.947905-1.311269,6.573417-.865521,9.033717.573254,3.164028,4.435945,8.261616,7.771283,9.765796,3.534225,1.593875,11.271366-3.528731,11.271366-3.528731,0,0,6.685782-4.377033,8.39159-7.987403.589581-1.247591-.666025-2.753606-2.2375-3.123802Z" stroke-width="0px" /><path d="m84.303069,126.69978c.170106,0,.339173-.070952.459404-.209589.597894-.688736.393945-1.721542-.148583-2.321811-.491169-.543567-1.181983-.788484-1.686512-.967495-4.877554-1.732229-9.932636-3.082092-15.024529-4.012182,7.999767,2.832971,9.801272,3.447537,14.617819,5.158095.495771.175746.92727.344962,1.191038.636784.19623.217308.260651.561973.132552.709813-.220128.253526-.192965.637377.060561.857654.115037.099748.257088.148731.398249.148731Z" stroke-width="0px" fill="#fff" /></g></g></svg>