<?xml version='1.0' encoding='utf-8'?>
<svg viewBox="0 0 432 432" width="432px" height="432px" xmlns="http://www.w3.org/2000/svg" xmlns:xlink="http://www.w3.org/1999/xlink" version="1.1"><g isolation="isolate"><g id="Layer_1"><path d="m174.463964,208.921412c-.288462-.48773-7.279467.606719-7.279467.606719l.977344,4.957571-1.650187,3.683728-.595707,5.693017-4.524752,1.129217,2.726362,6.670853,6.632627,8.112494,4.498277-11.893928-.784498-18.95967Zm61.239974-122.508721c-.254494-1.93045-.633322-3.872599-1.128133-5.794394.00374.012177.673244,2.216647,1.128133,5.794394Zm-33.7717,187.960648c-.461108-.062449-.932696-.129856-1.414243-.202482,3.335517-7.416468.081236-17.577489-3.150039-24.345459-3.388197-6.483131-3.156599-13.977527-1.071115-20.415801,3.503781-10.816817,15.409563-11.825077,19.589981-14.287932,4.62714,6.187537,3.813253,24.508269-13.954585,59.251674Zm117.082757-56.204006c2.090171-7.374877,20.901788-17.725916,30.141555-20.045936-.812204,5.104544,2.704738,10.575343,2.704738,10.575343,0,0,2.344628-8.095025,7.455317-13.010461,2.344628,1.667981,2.7354,5.756675,2.7354,5.756675,0,0,4.158654-6.81029,2.454768-12.478322,3.766913,4.161055,6.923725,1.927723,6.923725,1.927723,10.941619-22.913525,17.604265-32.313868,17.864776-32.83489,0,0,3.814256-9.002,11.890175-4.02898,6.512856,3.718566,12.070835-.641112,14.06777-3.028478,2.248683-2.688335,2.412277-17.126914-8.792356-15.164426-16.672912,2.920256-17.605646,6.673625-31.868801,20.871652-14.984049,14.915629-25.633178,14.888174-36.197846,13.465631-26.558613-4.048257-22.88539-4.421238-43.127893-2.235379,1.375592-.148541,1.162584-2.516582,1.500978-3.900566,33.294193-7.522038,49.5414-19.59271,47.005727-38.100803-16.878211-44.662566-45.948733-44.863271-54.731596-49.314593,0-23.322981-8.839628-31.410642-18.240909-28.936634-5.590677,1.47116-15.104558,4.306031-19.817405,27.689156l-16.407619,5.240626c-4.763867-18.500659-20.067441-35.092933-34.456523-20.792208-21.504474,21.373374,20.732909,68.170034,15.009274,96.826897-1.562051,4.028963-2.838757,7.587588-3.866947,10.741425-2.004852,4.413479-5.583412,11.719945-7.679831,12.630212-43.489085,18.871659-42.459206,59.306584-22.694512,73.658668,4.074578,3.541055,8.112158,7.13955,10.323965,11.731433,1.111986,2.308443,1.555462,4.465513,1.510186,6.461749-3.657119-1.3975-6.687964-1.991505-9.16552-2.000966-22.405787-8.318775-46.475161-29.693501-26.933303-84.572415,56.494859-112.695418,28.688794-166.983706-19.42005-168.896146-68.798672-2.734857-93.569499,55.906767-74.149449,94.158267,0,0,18.671968-29.208295,28.835944-16.183431,7.142253,9.15268-14.630165,19.336592-35.446025,45.669469C26.826583,177.5152,1.38691,254.906843,28.720101,321.826019c38.385641,81.050958,124.475676,78.182974,159.832837,57.149515l.001352-.005406c5.782765,3.399142,13.128258,6.189412,22.353922,7.042239l-6.884277-.284501c-3.455231,6.861131-10.511324,11.776034-18.144358,12.639673-3.52416.398031-7.400399.076362-10.269397,2.161125-3.803424,2.763915-3.862554,8.846555-1.086306,12.641025,2.776248,3.79447,7.526938,5.634602,12.163928,6.409039,3.302338.552107,6.71263.658879,9.982868-.058792,6.984629-1.534682,12.739181-6.752332,16.378054-12.908631,3.638873-6.156299,5.419199-13.21746,6.826498-20.229289l-2.628422-.108124c.40141-.002703.793358.006082,1.201188-.004055,4.881283-6.835452,18.612669-26.205156,23.830318-30.72338,17.113465-14.817692,34.562789-18.131011,42.680522-16.246954,8.686396,2.015833,6.5088,22.679645,9.641349,30.484832l-.265072.010812c1.407214,7.011153,3.187625,14.072989,6.826414,20.229289,3.638957,6.155624,9.393425,11.373949,16.378138,12.907955,3.270154.718348,6.680446.611575,9.982784.059468,4.63716-.775113,9.387681-2.615245,12.163928-6.409039,2.776248-3.79447,2.717118-9.87711-1.086222-12.641025-2.868998-2.084762-6.745321-1.763094-10.269397-2.1618-6.941042-.785249-13.395188-4.926391-17.108312-10.828599,7.430302-2.184101,15.022536-5.992086,19.626752-9.986585,7.650351-6.63745,16.477646-19.598116,16.477646-26.481548,0-17.946525-22.656837-39.125276-32.366862-57.966525-2.388016-4.633781-4.607003-9.141192-6.562693-13.531695.750785-18.323607-1.701261-37.252707-5.917667-48.127934l3.191189,3.312224,1.927996-8.641202,6.100307,7.417001.560575-4.201247" stroke-width="0px" fill="#c56439" /><path d="m310.376246,263.307118l1.224459-8.679415-3.208574,2.685322c.003653-1.054681.000174-2.093358-.010785-3.116031l3.690252-17.084331-.942655-.411226s-1.510787,1.200802-1.779023,1.603156,1.195235-10.725457,1.195235-10.725457c0,0-2.285576.032355-4.5675.045054-6.738093-34.669474-26.185061-38.668668-40.606685-38.657535-11.067102.008524-32.493315,3.135862-36.759701,28.989541-4.266734,25.85368,34.261553,91.338338,18.118137,133.995588l-.45054,1.115043s20.803633-16.329546,38.685541-12.995552c3.487422,1.623683,1.503481-.176041,1.503481-.176041,0,0,14.451891-16.640227,19.790875-51.802686l2.779779-5.6895,3.033055-9.594063-3.674074-1.792244,1.978722-7.709624Z" stroke-width="0px" fill="#e7caae" /><path d="m324.746942,120.69963c-2.972699.475695-5.979558.961004-8.75051,2.137884-3.916981,1.663622-7.163157,4.624087-11.037935,6.383767-11.460778,5.204763-27.25897-.257812-38.830935,4.694825-8.025369,3.434744-11.638686,11.64579-10.67102,20.321482,1.006647,9.025175,8.848391,15.461536,17.924362,15.155139,3.671774-.123956,7.466025-1.180324,11.052424-1.977211,12.152388-2.700224,43.329645-7.245464,56.921131-26.594429.837611-1.192431,2.463044-6.901152,2.201749-9.954346-.419442-4.90113-1.361729-10.94952-2.469052-11.450879-4.519096-2.046096-11.340763.483749-16.340215,1.283767Z" stroke-width="0px" fill="#e7caae" /><path d="m274.621022,120.20789c2.734759-5.838175,10.979918-7.173231,16.156996-3.852954.731945.510938,1.462739,1.129043,1.833752,1.97627-1.639312-.292544-3.108657-.180637-4.700365-.138555-.000003.000034-2.235065.099526-2.235065.099526-3.838759.106587-7.20296.935088-11.055318,1.915714h0Z" stroke-width="0px" /><path d="m314.25967,81.013633c.238327-5.208154,6.926676-7.926312,11.133947-5.272806.58721.393109,1.16769.897027,1.418526,1.5989-1.282436.023726-2.282217.340108-3.439452.613023-.857559.223151-2.131853.506097-2.958372.749977-1.637253.435407-4.499542,1.658656-6.154649,2.310906h0Z" stroke-width="0px" /><path d="m319.015073,111.185841c2.734677-5.838123,10.979874-7.173171,16.156809-3.852954.731945.510938,1.462739,1.129137,1.833752,1.97627-1.63931-.292527-3.108659-.180511-4.700365-.138555-.000003.000034-2.235065.09962-2.235065.09962-3.838614.10639-7.202983.935189-11.055131,1.91562h0Z" stroke-width="0px" /><path d="m227.469742,98.620636c-.015412-1.75867-.030824-3.51734-.046237-5.27601-.051654-5.894183-.130451-11.937638-2.251514-17.437197-2.121063-5.499559-6.753698-10.427009-12.602347-11.160066-5.72824-.717964-11.688709,3.180249-13.326962,8.715982,0,0,21.057518-10.771045,28.22706,25.157292Z" opacity=".35" fill="#754123" mix-blend-mode="multiply" stroke-width="0px" /><path d="m199.242728,73.463374c1.239996-7.107198,8.257473-11.946834,15.371477-10.104148,5.7783,1.354259,10.037855,6.37099,11.583418,11.927518,1.694001,5.174712,2.216565,10.839836,1.272179,16.142671-.552768-4.21697-1.301747-8.332129-2.709234-12.31501-1.357984-3.802676-2.826263-7.56278-5.94576-10.192155-6.857432-5.930539-15.611564-3.334045-19.57208,4.541125h0Z" stroke-width="0px" /><path d="m319.891313,142.743506c-4.584872,8.617555-21.593998,20.709303-24.585025,1.326311l5.372015,1.070939,10.971096-.527615,8.241914-1.869635Z" stroke-width="0px" /><path d="m63.052772,110.563447c6.258866-44.174881,36.637046-46.753362,46.660625-38.955344,10.323088,7.911603,20.649664,26.279235.035421,65.394644-26.553467,50.385052-54.922141,185.286782,66.992941,183.476162,0,0-11.668982,22.210564-6.940981,40.879922,7.846291,9.918028,18.096308,17.944453,18.096308,17.944453,0,0-47.568908,22.674713-93.234957,4.404819C19.821357,352.198289,10.969437,280.041729,18.783485,232.836585c1.458605-8.727861,9.936762-74.992314,63.561278-119.848387,26.129916-20.043872-4.181205-34.528833-19.291991-2.424752Z" fill="#754123" mix-blend-mode="multiply" stroke-width="0px" opacity=".25" /><path d="m183.542908,420.298839c-.427926,0-.850981-.192045-1.131742-.557347-2.306973-3.00731-3.237972-6.434892-2.553987-9.404627.559435-2.429088,2.182422-4.424684,4.569761-5.618701.702773-.351386,1.559668-.067494,1.912098.637366.351734.704164.06645,1.560016-.637366,1.912098-1.636208.818278-2.696629,2.100664-3.06715,3.708691-.492289,2.137542.250493,4.700226,2.03804,7.029813.479068.624841.361128,1.518963-.263366,1.998379-.258495.198307-.56361.294329-.866289.294329Z" stroke-width="0px" /><path d="m331.482094,403.465001c-.377131,0-.753219-.148904-1.033284-.443234-.542387-.570568-.519078-1.473039.05149-2.015078,2.629831-2.49867,3.803322-5.00708,3.394183-7.255257-.402181-2.208515-2.17268-3.616147-2.967301-3.95153-.725039-.306158-1.064248-1.142527-.75809-1.867566s1.141484-1.064596,1.867218-.758438c1.548883.654761,4.069123,2.810394,4.661956,6.066806.411574,2.259309.010437,5.798917-4.235074,9.832553-.275543.261626-.628668.391744-.981098.391744Z" stroke-width="0px" /><path d="m303.550048,373.29905c5.366972,4.91852,17.769202,7.651405,20.772072,7.642927,0,0-11.234819-4.937388-13.521139-8.659218l-7.250933,1.01629Z" fill="#754123" mix-blend-mode="multiply" stroke-width="0px" opacity=".25" /><path d="m333.44122,388.729225c3.590705.80472,3.43982,3.52065,4.998965,3.973305s2.41416-3.20102,2.363865-4.21585c.825315.59461-.044761,5.52352-.676215,7.43473s-6.465675,4.576845-6.465675,4.576845l1.30767-4.174485-.60354-5.482155-.92507-2.11239Z" fill="#754123" mix-blend-mode="multiply" stroke-width="0px" opacity=".25" /><path d="m334.622142,391.567083c-.247145,6.509431-12.02489,4.957852-14.834024,4.756674-2.809133-.201177-10.8711-1.207064-18.113571-16.295582-3.169652-6.603496-4.027374-14.786795-5.061963-22.045488l.000043-.000043c-.000087-.000652-.000261-.001305-.000348-.001957-.522818-3.667681-1.092516-7.096742-2.026907-9.96902-4.120874-15.97242-10.853356-21.005202-23.087818-22.704467-14.484986-2.011773-39.671901,23.948931-51.622427,51.305179-4.607335,9.115647-2.997916,7.137621-5.613309,18.001371-2.615305,10.863707-10.215947,19.212653-18.03377,19.916817-7.817823.704121-13.953862.100589-14.255584-4.124222-.181521,5.442878,0,7.965422,0,7.965422l4.325356,1.654038,12.652428-1.151877,10.583859-6.440502,8.802661-19.244443,3.569963-10.746636,21.358545-27.427568,20.386231-12.204889,16.228523-3.487117,7.242515,1.4753,3.695905,5.957432,2.071222,16.306497.155993-.212832c.682855,4.465606,1.649167,9.528787,3.207139,15.155968,6.179658,22.319769,21.717324,28.377616,31.675733,25.433495,9.958409-2.944165,6.693604-11.87155,6.693604-11.87155Z" fill="#754123" mix-blend-mode="multiply" stroke-width="0px" opacity=".25" /><path d="m194.105423,274.699445l2.121617,1.016914s.104145-3.420011-4.49737-4.945471c-4.601515-1.52546,1.559145,2.833081,1.559145,2.833081l.816609,1.095476Z" stroke-width="0px" /><path d="m181.341522,363.922245c4.182264.101033,8.417766-.224129,12.511233.639042,4.94653,1.043049,9.499553,3.860408,12.64032,7.821682s4.84573,9.036768,4.7334,14.090825c-1.970954.686324-4.138818.220174-6.157643-.309017-10.752865-2.818626-21.497858-7.619496-28.408179-16.326744-2.318794-2.921761-4.178652-6.205409-6.918706-8.777193,3.535343,2.125198,7.520975,2.762876,11.599575,2.861405Z" fill="#754123" mix-blend-mode="multiply" stroke-width="0px" opacity=".25" /><path d="m321.326967,351.403143c6.837562-6.002192,16.928117-6.425664,24.842989-10.912695-2.303274,5.454032-5.301802,10.614013-8.90004,15.315526-1.832936,2.394943-3.841282,4.69044-6.262536,6.488477-2.434118,1.807589-5.223348,3.067819-8.002654,4.279335-4.66753,2.034605-9.377256,3.972405-14.125284,5.811796-1.224998.474558-3.301533,1.332151-4.429108.530318.81291-1.672616,3.41597-3.020635,4.692066-4.516802,1.527135-1.7905,2.784286-3.792446,4.01157-5.793912,2.412086-3.933653,4.657917-8.116413,8.172997-11.202043Z" fill="#754123" mix-blend-mode="multiply" stroke-width="0px" opacity=".25" /><path d="m198.841739,271.4833c-.733347,2.634612-1.737713,5.37268-3.887126,7.063537-2.831707,2.227592-6.806435,2.036576-10.396889,1.737624-3.026092-.251961-6.052185-.503922-9.078277-.755883-.310806-.025879-.672155-.032421-.875876.203731-.200702.232652-.146287.583768-.074738.882581.828606,3.460512,2.843979,7.099878,6.302771,7.935631,1.843975.445563,3.781135.00507,5.591355-.562271,3.544859-1.110995,7.006026-2.765388,9.616605-5.408376,3.226213-3.266274,4.810086-7.761153,5.252532-12.26148.081182-.825736.580115-6.085132-.489106-5.991388-.761387.066755-1.703802,6.231382-1.961252,7.156294Z" fill="#754123" mix-blend-mode="multiply" stroke-width="0px" opacity=".25" /><path d="m180.21202,248.609548c4.274463,2.972111,8.792346,5.877456,11.705868,10.192068,3.181147,4.710936,4.08928,10.619045,4.002084,16.302795-1.441389-.152045-2.596217-1.325552-3.219549-2.634054-.623332-1.308502-.83345-2.767954-1.190911-4.172569-.945236-3.714239-2.985445-7.142717-5.799092-9.745108-2.54589-2.354737-5.672298-4.019266-8.180754-6.413868-3.857926-3.682829-6.159115-8.924798-7.751896-13.932761,2.490554,4.430403,6.316778,7.540543,10.43425,10.403496Z" fill="#754123" mix-blend-mode="multiply" stroke-width="0px" opacity=".25" /><path d="m197.158956,253.202272c-4.60978-4.256842-6.450635-10.785836-6.797213-17.050871-.41924-7.578555,1.273265-15.657188,6.491896-21.168644,5.218631-5.511456,14.517895-7.470709,20.606836-2.939148,4.007365,2.982394,5.95783,8.115809,6.220024,13.104284.262194,4.988475-.948185,9.924917-2.186346,14.764399-2.960052,11.569671-6.130794,23.085438-9.510124,34.539665-2.623431,8.892113-8.691353,16.844921-15.313469,23.333345-6.622116,6.488424-14.038359,12.199689-19.998609,19.30092,8.739034-14.47057,17.478069-28.941142,26.217105-43.411713,8.691983-14.392659,14.402939-30.582399,15.08943-47.38204.13824-3.382976,1.386684-8.249027-1.063353-10.585895-2.142325-2.043371-5.491112,1.163666-8.276246,2.167633-2.785134,1.003968-6.768157,3.811345-8.444609,6.251514-6.33079,9.214819-5.290171,18.126326-3.035321,29.07655Z" fill="#754123" mix-blend-mode="multiply" stroke-width="0px" opacity=".25" /><path d="m270.283063,63.711921c2.278379-.872468,4.730337-1.249536,6.969752-2.217641,2.819861-1.219033,5.222836-3.380001,6.733245-6.055131,2.53579,6.716897,4.049482,13.818603,4.472998,20.985721.026659.451153.01325.982275-.352775,1.247371-.217981.157873-.505532.173236-.774664.170493-1.725225-.01758-3.400045-.533184-5.074822-.94775-5.943007-1.4711-12.10426-1.690953-18.198939-1.548341-1.546914.036197-3.093353,1.318779-4.639045,1.389575-1.735847.079505-4.134,1.323888-2.82322-.390266,1.561935-2.0426,3.757077-5.482221,5.63304-7.24248,2.073641-1.945744,5.385028-4.369348,8.05443-5.391551Z" opacity=".35" fill="#754123" mix-blend-mode="multiply" stroke-width="0px" /><path d="m255.306654,151.607602c5.802002,3.996959,12.693441,6.212877,19.666861,7.218022,6.97342,1.005145,14.06221.846682,21.094793.420448,3.069751-.186053,6.150138-.424698,9.148423-1.109006,2.669221-.609205,5.244819-1.565105,7.811398-2.518282,4.533907-1.683806,9.085314-3.375483,13.337874-5.679231,6.469014-3.504472,12.153697-8.3942,16.795981-14.101972-1.921671,7.465408-7.227551,13.989071-14.144887,17.391364-3.090913,1.520266-6.439516,2.429946-9.662125,3.646391-4.702853,1.775195-9.141383,4.205824-13.874784,5.897881-5.157911,1.843808-10.587204,2.783425-15.984984,3.714896-5.855739,1.010497-11.818206,2.023983-17.710971,1.258408-4.34713-.56477-8.987854-2.173733-12.416229-5.053936-2.889958-2.427875-4.100639-6.740806-4.06135-11.084982Z" fill="#754123" mix-blend-mode="multiply" stroke-width="0px" opacity=".25" /><path d="m65.684286,53.312517c33.316956-22.923138,86.591034-36.572092,100.694985,21.351514,14.10395,57.923606-28.335513,102.270432-16.472691,154.835981-6.444558-32.332412,15.220208-59.821692,26.76537-88.681223,5.671821-14.1075,24.807003-82.92279-6.894181-111.929641-15.049667-22.03783-83.695378-20.451154-104.093483,24.423368Z" stroke-width="0px" opacity=".66" fill="#d8b58e" /><g opacity=".66"><path d="m281.244585,54.02389c-5.84707-2.593916-11.187262.560526-16.022324,3.925458-2.412582,1.673413-4.52003,3.503578-6.495795,5.726532-2.095086,2.342168-3.783898,4.871752-5.497257,7.641272-1.113575-6.986697,2.997617-14.144055,8.728116-18.038094,2.940162-2.007881,6.264774-3.632407,9.93812-3.872607,3.577497-.272888,7.830462,1.238693,9.349141,4.617439h0Z" stroke-width="0px" fill="#d8b58e" /></g><g opacity=".66"><path d="m237.266853,81.885864c18.601799-7.028502,41.675951-6.532844,60.366432-.000287-10.160995.996581-20.115645.664683-30.212093.657237-8.977807-.165863-21.229748.05175-30.154339-.656951h0Z" stroke-width="0px" fill="#d8b58e" /></g><path d="m267.714232,89.846338c.238404-5.208073,6.926783-7.926241,11.134134-5.272806.587023.393108,1.167502.89712,1.418526,1.598993-1.282686.023527-2.282.340053-3.439452.61293-.857417.223195-2.132063.506097-2.958372.749977-1.63751.435472-4.499573,1.658563-6.154836,2.310906h0Z" stroke-width="0px" /><g opacity=".66"><path d="m215.963452,137.625468c1.054682,7.510658,3.270824,15.479696,2.081611,23.064862-.591683,3.888113-1.509601,7.730402-2.762779,11.449278-1.395143,3.91308-3.828753,7.516355-6.774832,10.387285-2.82573,2.838401-6.145997,4.90164-9.391445,7.132744-4.574708,3.162875-8.98111,6.646648-13.255228,10.23078-4.10275,3.547382-9.037875,7.008859-13.104251,10.651876,1.711948-7.857236,8.027737-13.511715,13.914122-18.486233,4.34254-3.73313,9.106374-7.080588,13.896221-10.225601,4.30749-2.950467,8.056267-6.708674,10.14941-11.514618,1.388765-3.369141,2.6162-6.886491,3.579321-10.388122,2.067288-7.305473.875091-14.818373,1.667849-22.302252h0Z" stroke-width="0px" fill="#d8b58e" /></g><g opacity=".66"><path d="m182.463468,312.228436c-3.032982,11.89171-6.97075,24.583413-9.902037,36.440862-1.035469,4.058841-1.987691,8.065688-2.811884,12.391566-.378175-1.026152-.749044-2.097185-.948047-3.178306-2.859879-14.784229,3.244462-34.798461,13.661968-45.654122h0Z" stroke-width="0px" fill="#d8b58e" /></g><g opacity=".66"><path d="m313.699108,277.941312c10.789686,12.966628,36.581446,39.728554,32.208796,57.313417-.51532-2.799316-1.391872-5.331384-2.582932-7.745686-3.607486-7.316711-8.582494-13.668229-13.273827-20.407747-6.336359-9.085353-12.90487-18.439692-16.352037-29.159984h0Z" stroke-width="0px" fill="#d8b58e" /></g><path d="m211.45211,386.820033c-7.904327,4.553331-19.438647,10.588731-19.438647,10.588731l12.010524-11.680768,7.428123,1.092037Z" fill="#754123" mix-blend-mode="multiply" stroke-width="0px" opacity=".25" /><path d="m173.773143,404.181824c-.13412,4.42596,3.82242,6.77306,7.44366,3.88948.674987,1.268183-.60354,5.16362-.60354,5.16362l1.319569,4.294841-8.763229-5.096591.60354-8.25135Z" fill="#754123" mix-blend-mode="multiply" stroke-width="0px" opacity=".25" /><path d="m282.37731,91.640113l-.000391-.000609h-.000043c-.837848-1.270905-2.368422-2.002641-3.967621-1.739927-2.168984.356344-3.638457,2.403473-3.282157,4.572501.127465.776007.474024,1.459906.962529,2.00525l-.001348.001044c5.556339,8.924559,2.783823,20.791282,2.783823,20.791282l7.854657-1.290301c2.053609-13.354766-3.49525-22.952047-4.261124-24.198163-.028659-.047707-.05784-.094761-.088325-.141076Z" stroke-width="0px" /><path d="m328.151301,83.821247c-.028833-.048011-.058231-.095414-.088934-.142033l-.00013-.000217h0c-.837891-1.270905-2.368465-2.002641-3.967664-1.739927-2.168984.3563-3.638457,2.403473-3.282157,4.572457.127465.776007.474024,1.459949.962529,2.005294l-.001348.001044c5.556382,8.924559,2.783823,20.791282,2.783823,20.791282l7.854657-1.290301c2.053392-13.352983-3.493815-22.949437-4.260776-24.197598Z" stroke-width="0px" /><circle cx="278.957965" cy="93.983756" r="2.722138" stroke-width="0px" fill="#fff" /><circle cx="324.761909" cy="86.180311" r="2.722138" stroke-width="0px" fill="#fff" /><path d="m294.580459,212.086797c-13.919398-17.049818-40.603237-18.486671-50.757138,2.790789-2.89632,5.941769-4.034442,12.786411-3.0296,19.316104l-4.465256-2.405499c1.874287-.730831,5.743732-2.311313,7.588008-3.035461-.00003-.000029.971866,3.143845.971866,3.143845,1.306475,4.19682,2.394888,8.460892,3.230528,12.774392.000016-.000004-4.305941-1.380257-4.305941-1.380257,1.827359-1.460558,4.011879-2.380322,6.258921-2.697798l2.759571-.389919.023773,2.555252c.034069,3.671847-.233053,7.339014-.867443,10.932989l-2.276992-1.699601c2.729267-.906751,5.549076-1.054351,8.335621-.814322-.134697.787983-.975505,5.372184-1.12819,6.247938-.317566,1.706187-.657895,3.40961-1.02131,5.108896-.161228-2.976846-.237295-7.372755-.284144-10.405153-.000029-.000054,1.137344,1.207703,1.137344,1.207703-2.921011.240603-5.626356,1.565554-8.118255,2.936019-.000036-.000114.054999-2.909531.054999-2.909531.06533-3.456483-.109694-6.89743-.540982-10.294387l2.783157,2.165146c-2.661747.496817-4.861565,3.349396-6.687197,5.092025-1.518168-5.45186-3.237594-11.126236-5.270034-16.389004.000026-.000003,4.189363,1.856652,4.189363,1.856652-1.95869.899343-5.984713,2.727495-7.93313,3.620555-.000029.000001-.81431-4.071779-.81431-4.071779-3.237458-15.826278,5.199001-33.986117,20.704298-39.739847,14.797917-5.675937,33.059425,2.426766,39.462473,16.484256h0Z" stroke-width="0px" fill="#eeddcf" /><path d="m299.20552,207.669428c1.942456-11.728713,5.85017-12.510255,5.85017-12.510255l7.015908,7.875772,3.665176-3.186516,37.644309-8.727227h2.084114l3.390731-1.563086,1.949811,2.21456-2.995914-11.983844s8.336456,5.210285,9.639027,3.907714,9.50877-20.307636,20.710883-29.236487l-16.729238,36.434297-6.923725-1.927723-2.007691,10.230511-3.182476-3.508864-6.961119,11.465514-4.705717-8.347421-20.825433,9.46294-7.809342,9.900021-4.755313-5.425449-2.188085,5.425449-4.472797-8.641202-3.45491,10.510153-4.93837-12.368855Z" fill="#754123" mix-blend-mode="multiply" stroke-width="0px" opacity=".25" /><path d="m256.502347,158.589484c-1.199308,16.640348,17.161376,16.640348,33.052745,14.425977,0,0,2.497687,1.432828,9.650428,1.693343,7.152741.260514,12.638533-2.474885,21.55365-1.953857,8.915117.521029,16.246515.390771,16.246515.390771,0,0-11.045188-3.393007-11.499626-3.742499s-36.993024-1.388158-36.993024-1.388158h-18.337745l-8.364965-3.205799-5.307978-6.219778Z" fill="#754123" mix-blend-mode="multiply" stroke-width="0px" opacity=".25" /><path d="m395.193621,150.350721c9.50877.130257,16.151884,1.432828,19.538569-5.080028,1.735232,2.978282,1.416656,4.117441,1.416656,4.117441l-6.887456,6.172872-9.748536-1.50484-4.319234-3.705445Z" fill="#754123" mix-blend-mode="multiply" stroke-width="0px" opacity=".25" /><path d="m347.259332,173.215146c15.997741.976928,27.340732-10.434564,37.122948-21.288825,10.811341-11.99617,24.748854-14.50536,30.34991-6.655628,4.217364,5.910524.530247-4.928955.530247-4.928955l-6.456946-4.504158-13.61187,1.58338-11.592884,9.087175-9.008676,10.201097-10.920664,9.948682-16.412065,6.557231Z" stroke-width="0px" fill="#d8b58e" /><path d="m417.760375,140.598353c-1.079887-2.511175-3.979632-6.742871-11.262446-6.869916l-.104745-.002703-.104745.009461c-14.664291,1.198823-20.318491,7.45784-27.476287,15.37926-2.755806,3.050443-5.878556,6.507702-9.89941,10.079842-13.55805,12.040938-26.147716,10.890771-41.249909,8.124153-10.663711-1.671864-13.325584-1.601584-20.438779-1.408313-1.709623.045277-3.693273.097987-6.117273.136506-.621796-.007434-1.035623-.008109-1.035623-.008109,23.832515-5.96438,37.27771-14.02974,43.217255-24.811035,4.101947-7.445,2.790354-14.166246.982237-18.456058-10.044786-29.194104-32.874284-40.892424-50.257044-45.566076-.951321-.255442-1.955183-.505479-3.127566-.777816-.294891-16.725402-5.139936-23.942666-9.174474-27.052577-3.340772-2.574698-7.352588-3.344405-11.600671-2.226675-8.261504,2.173289-16.519966,7.071297-21.017748,27.930407-1.422335.238548-6.215598,1.221123-13.084501,4.420236-1.011295-3.831637-2.389198-7.572045-4.064779-10.960375-2.660859-5.379835-7.270988-12.33152-14.122152-14.89473-4.455546-1.666458-11.426828-1.944877-19.333382,6.19144-12.666028,13.031622-3.042334,35.636931,5.448426,55.581044,2.258436,5.3055,4.591038,10.783998,6.18012,15.546852l-.008785.003379.188203.554135c7.379281,21.738967,1.246972,41.51346-16.001817,51.60479-1.052518.609548-1.995222,1.203553-2.881162,1.81648-9.374334,6.482022-16.296792,13.8635-20.581367,21.943051-2.055535.016219-4.599316.516967-5.822805,2.642951l-.751123,1.306271,1.030724,1.099484c.69233.737945.900975,2.431434.872255,3.758654l-3.152147,3.009221.621374,3.792443h-4.744946l.410026,2.380075c1.21048,7.019262,6.721415,12.95999,8.556817,14.772415,2.311146,6.798284,6.387076,12.472081,11.753058,16.38346,3.59782,3.127481,7.676115,6.671915,9.779461,11.038089.424386.880533.748082,1.761742.96737,2.630112-1.453083-.422359-2.8494-.725781-4.163442-.902834-13.396371-4.020178-23.143225-11.571275-28.968902-22.444475-7.185334-13.410055-7.986126-31.951261-2.197785-50.870224,2.288508-7.48014,6.165422-15.849599,10.658304-25.546953,13.045644-28.161522,30.912597-66.72996,21.582526-115.384322-3.285443-17.055179-13.187388-29.672552-28.634563-36.489082-20.362416-8.983737-48.527486-6.151569-70.085514,7.048321-35.560569,21.775459-41.783601,61.062245-27.255309,86.464582l1.817494,3.177488,1.738428-3.221414c4.674834-8.662069,12.991413-18.504714,21.032446-17.707977,2.269586.219626,3.900566,1.402906,4.474467,3.246417,1.038495,3.335619-1.256095,7.788969-6.10815,11.889564-23.519293,17.51403-43.380285,45.529584-55.924337,78.886455-12.616359,33.549466-16.649546,69.465492-11.357054,101.132252,3.901242,23.341227,12.588314,43.559703,25.819965,60.094537,14.586577,18.226971,34.3212,31.400505,58.652942,39.15501,10.298286,3.32751,21.317116,5.015593,32.750533,5.015593,26.180153,0,47.286934-8.726267,53.582443-11.63277,3.533452,2.051649,7.31221,3.702565,11.237443,4.907469.527779.162186,1.19443.31018,1.943357.441956-3.430397,5.100741-9.196775,8.69856-15.296647,9.388525-.759232.086499-1.539413.135831-2.386157.190568-3.032197.195299-6.16745.396679-8.850272,2.346287-1.986775,1.443453-3.30994,3.701213-3.725879,6.357004-.495173,3.161946.325047,6.575279,2.193731,9.13038,2.707319,3.699186,7.36509,6.194818,13.470706,7.215237,1.874597.312883,3.700537.47169,5.427815.47169,1.870542,0,3.662525-.185838,5.326618-.551431,6.938339-1.52387,13.38691-6.575955,17.692265-13.859445,3.731116-6.311727,6.193298-15.779994,7.628473-22.803311l1.536541-2.009076c10.060751-13.9946,16.672522-22.398523,19.651671-24.977951,16.898906-14.631854,33.710807-17.468077,40.888201-15.803646,4.306284.999469,5.248313,9.741955,6.079852,17.457265.442209,4.106002.857895,7.906553,1.776525,10.783998,1.402569,6.971283,3.231888,14.305456,7.05001,20.765177,4.30527,7.284842,10.754011,12.336251,17.692434,13.860121,1.663671.365594,3.454809.550756,5.323577.550756,1.73015,0,3.557358-.158807,5.431025-.47169,6.105954-1.020418,10.76381-3.515375,13.470453-7.214561,1.869021-2.554425,2.689157-5.967758,2.194069-9.129704-.415939-2.656467-1.739273-4.914227-3.726301-6.35768-2.6824-1.948932-5.817821-2.150988-8.905516-2.350341-.813632-.05271-1.582409-.102042-2.331335-.187189-5.159364-.583193-10.052473-3.195734-13.544281-7.128738,6.712123-2.371966,13.125555-5.845443,17.172595-9.356764,8.109623-7.036157,17.179522-20.513114,17.179522-28.018258,0-12.210557-9.683754-25.511813-19.048627-38.374491l-.49492.355457.492386-.358836-.003886-.005406c-4.080238-5.603516-8.281608-11.373949-11.529715-16.888263.012248.008109.025257.013515.037505.021625-4.571441-7.499062-6.391553-12.289622-7.150278-14.200711-.065128-.164213-.068507-.308153-.046206-.440605-.061158-.158807,3.463594-17.598501,3.463594-17.598501l-3.119879,3.434282c2.884963-9.337842,3.57383-21.747077,3.569437-21.826818-.314488.714293-3.568846,3.835016-3.568846,3.835016.320739-1.677271.644012-3.420767.611491-5.65893l-.04156-2.847035c-.012502-.166916-.029143-.333832-.043165-.501424-.002619-.01284-.007265-.026355-.010306-.039195-.008954-.00473-.018077-.010137-.027031-.015543l-2.920019,1.666458c-.893373.510209-1.512213.655501-1.744257.655501-.069182-.164889-.149768-.48453-.18795-.635903,0,0-.348868-1.278564-.861358-3.061255l1.66933-8.831688,6.881405,10.375831.608872-6.494186,3.51943,4.015448,1.446156-2.658494c.368297-.677125.686586-1.329923.997442-1.970556,2.096926-4.319546,3.918812-8.074145,25.061071-16.011784.437901,4.514169,3.040982,8.468797,3.17884,8.675584l2.521988,3.777576,1.260994-4.362796c1.381957-4.779072,3.822177-8.391759,5.39673-10.370425.69402,1.251533.662258,2.339529.660907,2.382778l-.635903,9.113485,4.568907-7.910608c2.22735-3.855965,2.924749-7.272678,3.04774-9.786556,1.402231.459526,3.107884.682532,4.989238.235169l.994063-.235169.432495-.92581c1.690786-3.620796,3.255878-7.342958,4.768936-10.940778,4.973695-11.830096,9.679108-23.022262,17.065992-26.010534,12.694411,4.807455,18.060731,1.49346,21.632871-2.409809,1.98272-2.169234,2.83825-7.438918.949462-11.828745Zm-164.955202-63.392313c4.532584-22.491104,13.514969-24.854285,18.341092-26.124064.900553-.237197,1.783789-.354781,2.641938-.354781,1.98272,0,3.83037.629145,5.439472,1.86919,4.548887,3.507266,7.225289,11.64561,7.564359,22.96347-4.162006-.794034-8.430616-1.351548-12.699479-1.657673-10.273113-.737269-17.886043,2.804461-18.205008,2.955835l-3.330213,1.577932.24784-1.229908ZM102.677124,384.351314c-23.560178-7.507847-42.643692-20.233343-56.72006-37.82306-12.793074-15.986105-21.198855-35.575436-24.984202-58.222643-5.176596-30.970713-1.215717-66.140685,11.152464-99.02992,12.278979-32.652714,31.662875-60.027635,54.59509-77.092275l.081431-.064874c6.197859-5.221704,8.976641-11.300289,7.432667-16.260469-1.068567-3.431579-4.046365-5.706234-7.966191-6.086019-.421683-.041222-.841676-.06082-1.26167-.06082-8.548201,0-16.726077,8.295123-21.880542,16.649039-8.408653-17.168709-5.395378-33.143326-1.326206-43.601601,5.357028-13.768891,15.878657-26.227457,28.867367-34.180639,20.470878-12.534252,47.122383-15.265054,66.318582-6.794906,14.17199,6.252935,23.259965,17.848538,26.281857,33.533923,9.083245,47.367013-8.465756,85.247513-21.283327,112.91572-4.551843,9.825075-8.482651,18.311443-10.852589,26.057838-6.103251,19.947491-5.191294,39.622645,2.502052,53.980811,5.184874,9.677081,13.22388,16.959895,23.90516,21.663956-1.628953.851475-2.667955,1.956365-3.28764,2.813246-2.875755,3.979632-2.404234,10.438002,1.073974,14.703486,3.098085,3.798525,7.648239,4.860165,12.142304,2.850414,1.995053-.771058,3.879617-1.802289,5.630885-3.080177-1.738766,3.062607-3.571633,6.19144-5.469206,9.333788-8.34209,12.682247-15.189199,27.506697-18.78685,40.676852-4.999712,18.299279-1.85804,25.184062.459188,27.659422.365594.391273.869383,1.000821,1.452914,1.706329,2.285805,2.765266,6.45364,7.805863,12.917416,12.378149-11.132191,4.742581-45.347294,16.897048-80.994869,5.374429Zm210.287038-106.507357c.06403.124342.128566.250036.193694.376406,3.530665,6.850995,8.781681,14.063529,13.868652,21.051705,8.98323,12.337602,18.272332,25.095536,18.272332,35.982928,0,5.098713-7.037677,17.362656-15.777038,24.945514-4.110985,3.566734-11.337457,7.26592-18.410359,9.424341-8.326209,2.542261-8.209216,3.422794-8.165037,3.754599.015965.119612.081093.345996.338563.510885.789388.506155,4.671117.431819,7.467385-.032437,4.184307,5.492689,10.575015,9.177684,17.350239,9.943336.861612.097311,1.733698.154076,2.582976.208138,2.56642.165565,4.990336.322344,6.71905,1.577932,1.417604,1.029879,1.92359,2.578753,2.098278,3.696483.32699,2.086114-.23179,4.422264-1.458151,6.098183-2.61043,3.56741-7.345154,5.016269-10.857235,5.603516-3.401761.568326-6.501028.55481-9.211219-.039195-5.840544-1.283294-11.331037-5.64136-15.063589-11.957142-3.527286-5.967758-5.248651-12.944447-6.583304-19.594737-.006251-.031086-.019766-.058117-.027453-.088526-.139378-.631173-.266339-1.1353-.383079-1.596853-.16624-.657528-.309673-1.225178-.438577-1.977314-.362384-2.117199-.622303-4.529036-.851728-6.657048-.750616-6.971283-1.598543-14.84202-5.309301-18.73245,3.464946-4.652703,13.498666-20.010338,18.294126-47.096703.892866-4.113435,2.07792-7.037508,3.332578-10.133904.633369-1.563065,1.335498-3.295073,2.018198-5.267657Zm-4.651942-47.344037c-.100352.689965-.228665,1.360333-.362637,2.060434-.32775,1.713762-.666735,3.484965-.633622,5.773811l.065297,4.482408,2.4648-2.221268c-.284585,2.466574-.83796,4.945313-1.376382,7.356474l-3.891528,17.430234,3.310025-3.643097-.87859,5.12642,3.175039,6.545545c-.844971,2.790946-2.113567,5.963028-3.008967,8.172808-1.19688,2.953132-2.331673,5.753538-3.248951,9.535844l-.077883-.042574-.147065.840663c-.047558.273013-.09748.540619-.147488.80755l-.077123.416277c-.101451.503451-.197833,1.028528-.288978,1.554956-2.579766,13.30058-6.382008,23.209451-9.117625,29.179913-3.465368,7.56326-6.75664,12.340305-8.241484,14.320998-.139716-.041222-.272928-.077038-.404873-.107448-6.907253-1.603611-20.094218-.008785-34.962256,9.55882,6.716009-25.801719-3.119541-58.338201-11.055828-84.588634-5.568883-18.421594-10.378196-34.330661-8.782525-44.000984,3.718783-22.533002,20.952367-27.276258,34.754202-27.286395h.061326c7.396429,0,18.195801,1.03461,26.548872,9.983206,4.121207,4.414154,7.405214,10.508283,9.760454,18.112765l.535466,1.728629.033282-.091905,1.343269,5.323746c.168943.66834.424048,1.678622,1.212085,2.504418.524147.548728,1.62135,1.353575,3.439689,1.166386Zm105.383376-80.921885c-1.887436,2.065165-5.404839,5.904911-17.720816,1.042043l-.709562-.281122-.72443.237872c-9.608828,3.158567-14.81161,15.533337-20.319842,28.633887-1.352223,3.215332-2.745669,6.530678-4.22291,9.754119-2.248299.064874-4.028963-1.521843-4.0391-1.529952l-5.675824-5.366996,2.204374,7.513253c.039871.135155.699426,2.492254-.276391,6.111698-.414925-.548728-.917701-1.09205-1.525897-1.611045l-1.452238-1.236666-1.377227,1.320462c-.17908.171647-3.58025,3.478884-6.210361,9.127001-.469663-1.489405-.750785-3.180192-.42371-4.734471l.78187-3.715404-3.56741,1.296134c-24.019704,8.72424-27.426955,13.320853-29.903666,18.27833l-5.9164-6.749629-.408843,4.356038-6.015063-9.070236-2.131053,11.277313c-.267775-.736593-.52212-1.386012-.745632-1.865811-2.258014-5.363617-5.066445-9.86427-8.353831-13.385727-9.434647-10.106197-21.366785-11.27461-29.521347-11.27461h-.065719c-5.978064.00473-14.718522.933919-22.408321,5.33591-8.919201,5.105471-14.422533,13.63644-16.356936,25.356385-1.749578,10.606946,3.187625,26.937019,8.90484,45.846522,8.350368,27.621578,18.738025,61.984,9.507293,87.230909-1.414732,1.081238-2.782837,2.193562-4.068834,3.306561-3.186273,2.758509-9.519963,10.736018-19.325103,24.340021-1.150843,1.30154-1.996236,2.544964-2.496984,3.346432-.25747.247333-.445335.565623-.544674.929189l-.319303.600087.170295.058117c-1.371821,6.71111-3.696821,15.698225-7.139212,21.522044-3.733143,6.315106-9.223637,10.673171-15.063505,11.956466-2.709684.594681-5.808445.608196-9.210966.039871-3.511659-.586572-8.245792-2.035431-10.85732-5.604192-1.226529-1.675919-1.785056-4.013421-1.458489-6.098859.175194-1.11773.681349-2.665928,2.098447-3.695807,1.729136-1.256263,4.154319-1.412367,6.722429-1.577256.799271-.051359,1.705484-.109475,2.579598-.208138,7.932909-.897428,15.386694-5.923833,19.270704-12.900522,2.991989.230439,5.83953.224357,6.360214-.105421.17587-.112178.288218-.280446.316262-.475745.099846-.695371.116064-.848772-6.904212-2.861226-.069267-.046628-.136168-.09596-.211517-.133803-.31018-.15678-.647222-.220302-.98494-.208138-1.454434-.414249-2.822369-.804847-3.811364-1.110972-14.63422-4.533091-22.776449-14.381142-26.253136-18.585807-.62357-.754839-1.161824-1.406961-1.618478-1.895546-2.892988-3.089638-2.736039-12.176768.409181-23.71493,3.517403-12.902549,10.046053-26.987702,18.396421-39.680762,13.589642-22.512728,22.826287-42.348717,26.71148-57.363735.618671-2.390888,1.106749-4.706765,1.453589-6.894244l.054738.007434.081431-.603466c.867694-6.424582.748082-11.834151.583024-15.34412-.391442-8.316072-3.990613-10.762374-4.143676-10.861712l-1.233625-.806874.304774,1.442777c.005406.025004.504803,2.41927.450403,4.503357-3.744294,1.30965-10.251489,4.185743-13.258682,6.604337-7.904526,6.354301-13.320008,19.107504-6.542166,32.073576,2.194575,4.597289,6.84863,16.096932,2.670996,23.558826-3.119372,5.6988-7.2372,9.564227-12.256172,11.495588l-.08802.036492c-3.638704,1.635373-6.025199-.012164-7.386883-1.682677-2.331589-2.859199-2.748372-7.232807-.929358-9.749389,2.230054-3.086259,7.362893-3.293722,14.451761-.58522l2.69431,1.029879.06555-2.884203c.054907-2.432786-.520853-4.918957-1.711228-7.390938-2.468264-5.123717-6.906408-8.980358-10.844311-12.401125l-.117247-.091905c-4.969303-3.609308-8.649567-8.88575-10.641917-15.260324l-.231959-.719699-.264565.151373c-1.172805-1.140706-5.275766-5.379159-7.022979-10.417729h4.49322l-1.049139-6.400929,2.703771-2.580104.08633-.728484c.067239-.573732.321161-3.351838-.681011-5.762999.783222-.173674,1.846214-.171647,2.73114-.059468l.244292,1.724575.693006-1.584014.141068.020949.117078-.602114c3.761695-8.338373,10.502876-15.864466,19.491006-21.761944,1.071101-.678477,2.070233-1.319786,3.004997-1.92528l.063354-.035816c18.815232-10.771159,25.967791-31.902605,18.66842-55.141115-1.589251-5.302797-4.195035-11.42328-6.953881-17.9026-7.994404-18.777051-17.054841-40.060547-6.274898-51.152698,5.119493-5.267657,10.1633-7.022641,14.991197-5.216298,6.122004,2.290197,13.010166,11.569923,15.99168,24.02511.738283,3.083556,3.316022,10.28325,3.316022,10.28325,0,0,1.474201-7.435539.669861-10.809678,7.6528-.235845,15.72475-2.352369,15.808208-2.373993l.167761-.044601-.628976.298016,4.537145-.824444c.049669-.008785,5.100741-.889994,17.650282-.018922,6.656119.477772,13.065242,1.536034,19.049557,3.145727,23.700063,6.371871,39.590715,20.594207,47.238531,42.275733l-.066902.03041.362806.831202c.391526,1.15287.73558,2.238839,1.040861,3.277503.870228,4.016799.262116,7.958588-1.807779,11.71589-4.04155,7.335525-15.831522,17.594447-49.046142,24.809008-.335015.072308-1.715874.425062-4.190727,1.06975-8.086816,1.6597-14.68448,1.766473-19.610364.318965-6.112374-1.796883-9.172109-5.367671-9.197957-5.400108l-1.177705-1.473187.093764,1.884057c.011995.237197.731863,6.125214,8.131248,8.631659,6.430495,2.178019,15.427747,1.900276,26.542283-.882561,3.158651,1.015688,5.97063,2.024618,9.766452,2.057731.001436-.003379.003717-.008109.005153-.011488,2.505262-.037843,4.541284-.091905,6.295678-.139209,7.022641-.19192,9.388525-.251388,19.619065,1.350196,15.640109,2.863929,29.802976,4.15736,44.759878-9.131056,4.194528-3.724865,7.400399-7.274029,10.228512-10.404213,7.020614-7.770047,11.665207-12.911334,24.581948-13.993924,3.688373.090554,6.163057,1.542116,7.356474,4.316843,1.290052,2.997733.612251,6.437421-.187189,7.310521Zm-209.753768,116.841966c-.305788-6.172518-2.671841-12.382879-4.755589-16.745675l-.009968-.019597c-5.582905-10.682632-1.291066-21.29566,5.438965-27.074202,2.048439-1.759715,7.859925-4.364147,11.13236-5.635278.329102,3.739056.496356,9.29662-.328426,15.792158l-.018922.112178c-1.2936,8.768841-5.245018,20.335385-11.458421,33.570415Z" stroke-width="0px" fill="#0c0c0c" /><path d="m324.722211,122.447855c2.829423-1.333304,6.510096-2.763702,10.942843-3.767508,4.034853-.9137,7.643857-1.236506,10.578255-1.30193.770809.004015,1.938175.123264,2.852024.902697,2.287745,1.951259,1.313528,6.584738.867012,9.049276-.574241,3.169477-4.443585,8.275844-7.784667,9.782615-3.540312,1.59662-11.290778-3.534808-11.290778-3.534808,0,0-6.697297-4.384572-8.406042-8.001159-.590597-1.24974.667172-2.758349,2.241354-3.129182Z" stroke-width="0px" /><path d="m327.636385,126.719153c-.170399,0-.339757-.071074-.460196-.20995-.598923-.689922-.394623-1.724507.148839-2.32581.492015-.544503,1.184019-.789841,1.689416-.969162,4.885955-1.735213,9.949742-3.0874,15.050405-4.019092-8.013545,2.837851-9.818152,3.453475-14.642995,5.166979-.496625.176049-.928867.345556-1.193089.63788-.196568.217682-.2611.56294-.13278.711036.220507.253963.193297.638475-.060666.859131-.115235.09992-.257531.148987-.398935.148987Z" stroke-width="0px" fill="#fff" /></g></g></svg>