<?xml version='1.0' encoding='utf-8'?>
<svg viewBox="0 0 216 216" width="216px" height="216px" version="1.1" xmlns="http://www.w3.org/2000/svg" xmlns:xlink="http://www.w3.org/1999/xlink"><g isolation="isolate"><g id="Layer_1"><path d="M 98.823471 104.292073 C 98.67948799999999 104.048627 95.1899955 104.5949105 95.1899955 104.5949105 L 95.67782749999999 107.0694345 L 94.8541525 108.9081315 L 94.556811 111.749746 L 92.29832499999999 112.313384 L 93.6591625 115.643076 L 96.9697745 119.692349 L 99.215046 113.75560949999999 L 98.823471 104.29207299999999 Z M 180.7504845 191.651789 C 179.318421 190.611186 177.38358399999998 190.77170800000002 175.6245935 190.5727865 C 172.1600555 190.180957 168.9385255 188.11373 167.08513250000001 185.16772450000002 C 170.79391550000003 184.077695 174.5834915 182.17704650000002 176.88163550000002 180.18314500000002 C 180.70023350000002 176.87007700000004 185.10630450000002 170.40073 185.10630450000002 166.96493150000003 C 185.10630450000002 158.00735350000002 173.79737900000003 147.43604750000003 168.95070300000003 138.03174350000003 C 167.75873850000002 135.71888250000003 166.65114800000003 133.46875400000005 165.67501450000003 131.27732050000003 C 166.04973950000004 122.13147950000003 164.82582200000004 112.68291500000004 162.72125950000003 107.25467000000003 L 162.88013150000003 107.09134800000004 C 166.15184800000003 103.56648700000004 171.44127800000004 111.79115550000004 168.04448700000003 120.63396950000003 C 166.35307000000003 124.17669550000004 164.64608950000004 129.58321200000003 166.73662950000002 133.31771750000004 C 168.72328050000002 136.94620700000004 171.23228450000002 138.68917750000006 173.37212100000002 139.51206100000005 C 180.45898400000002 142.70350550000003 183.6901085 126.54792600000005 170.36390350000002 131.63982400000003 C 170.34132850000003 130.64315550000003 170.56269450000002 129.56669300000004 171.11769450000003 128.41445150000004 C 172.22170300000002 126.12245050000004 174.23700750000003 124.32629850000004 176.27080550000002 122.55886450000004 C 178.423649 120.99560850000005 181.15536500000002 117.90618050000005 183.61558300000002 116.55055050000004 C 185.16485600000001 115.69686950000005 181.255782 115.04429450000005 184.41891950000002 110.92719500000004 C 185.00961700000002 110.15835100000004 183.01308050000003 108.56739400000004 183.656586 107.35131900000005 C 184.3176345 106.10209150000004 182.536081 105.21163000000004 182.16745650000001 103.76570350000004 C 180.2000945 96.04874550000004 173.514238 88.20627800000004 160.080126 83.98917450000005 L 159.12079350000002 83.83625000000005 C 159.44676450000003 83.22759100000005 159.701082 82.58005500000004 159.86998250000002 81.88936550000005 C 176.48846000000003 78.13502000000005 184.59810450000003 72.10998950000005 183.332445 62.87165550000005 C 174.9078565 40.579038000000054 160.397588 40.47862250000006 156.013723 38.25701650000005 C 156.013723 26.61532600000005 151.601487 22.578574500000048 146.9089295 23.81345350000005 C 144.11841 24.54779500000005 139.369653 25.962732000000052 137.017242 37.63416100000005 L 128.82754250000002 40.25007100000005 C 126.44973450000002 31.01562250000005 118.81106250000002 22.733669500000047 111.62895050000002 29.87182550000005 C 100.89514750000002 40.53996550000005 121.97752300000002 63.89834400000005 119.12062350000002 78.20196350000005 C 118.34093650000003 80.21303500000005 117.70371100000003 81.98928200000005 117.19051850000002 83.56354700000004 C 116.18976900000003 85.76628950000004 114.40362400000002 89.41346850000004 113.35716000000002 89.86757500000004 C 91.65004050000002 99.28735600000005 92.16405800000003 119.47017950000004 102.02945850000002 126.63381950000004 C 104.06325700000002 128.40125350000005 106.07856100000002 130.19740550000003 107.18256950000001 132.48940650000003 C 107.73759100000001 133.64164750000003 107.95893550000001 134.71811050000002 107.93638200000001 135.71475700000002 C 106.11094750000001 135.01727350000002 104.598156 134.72054150000002 103.36143200000001 134.71607000000003 C 92.17782000000001 130.56355600000003 80.163836 119.89478650000004 89.91801050000001 92.50237000000003 C 118.11683500000001 36.25154550000003 104.23773600000001 9.15421150000003 80.22461500000001 8.199567500000029 C 45.884433000000016 6.834361000000029 33.52031750000001 36.10467750000003 43.21362650000001 55.19764500000003 C 43.21362650000001 55.19764500000003 52.53357800000001 40.61876150000003 57.606808000000015 47.11984450000003 C 61.17184850000002 51.688261000000026 50.304375000000014 56.77143250000003 39.91427750000001 69.91543050000003 C 25.13167550000001 88.61611250000003 12.43370950000001 127.24521400000003 26.076834000000012 160.64716250000004 C 45.236615000000015 201.10308800000004 88.20764400000002 199.67174050000003 105.8558495 189.17308700000004 L 105.856544 189.17024350000003 C 108.742921 190.86697850000002 112.4093755 192.25975300000002 117.014303 192.68520650000002 L 113.5780705 192.54337400000003 C 111.853377 195.96788450000003 108.3314465 198.42121050000003 104.5214445 198.85211250000003 C 102.7624545 199.05103400000004 100.8275955 198.89051200000003 99.3955535 199.93111500000003 C 97.497162 201.31058300000004 97.467641 204.34678050000002 98.85340400000001 206.24061350000002 C 100.2391235 208.13446800000003 102.61033300000001 209.05303550000002 104.92488700000001 209.43980750000003 C 106.57321550000002 209.71522350000004 108.27546400000001 209.76866600000002 109.90770800000001 209.41013450000003 C 113.39408300000001 208.64429650000002 116.26637250000002 206.0399125 118.08266850000001 202.96707400000003 C 119.8989865 199.89421400000003 120.78766350000001 196.36967800000002 121.49003050000002 192.86995350000004 L 120.17809250000002 192.81579500000004 C 120.37851150000002 192.81451450000003 120.57413350000002 192.81874700000003 120.77767800000002 192.81388500000003 C 123.21413800000002 189.40205100000003 130.0679995 179.73368350000004 132.67238350000002 177.47864950000002 C 141.21440600000003 170.08250800000002 149.92402700000002 168.428557 153.97590800000003 169.368918 C 158.31164900000005 170.375159 157.22470200000004 180.6893695 158.78828750000002 184.585157 L 158.65600600000002 184.590627 C 159.35837350000003 188.09035150000003 160.24705050000003 191.6148875 162.06334650000002 194.6877475 C 163.87966450000002 197.760586 166.7519535 200.3649695 170.23832850000002 201.130808 C 171.87057250000004 201.4893395 173.57282100000003 201.4358975 175.22112800000002 201.160481 C 177.5357255 200.773709 179.90691300000003 199.8551415 181.29263300000002 197.961287 C 182.67837450000002 196.067454 182.64887500000003 193.031257 180.75048350000003 191.6517885 Z M 129.3908135 43.14302650000002 C 129.263785 42.17946100000002 129.07469700000001 41.21005650000002 128.827717 40.25081050000002 C 128.829584 40.256888500000024 129.16376 41.35722850000002 129.3908135 43.14302650000002 Z M 112.533995 136.96177150000003 C 112.3038375 136.93060050000003 112.068449 136.89695500000002 111.8280895 136.86070450000003 C 113.4929805 133.15884600000004 111.868638 128.08707000000004 110.255778 124.70890350000002 C 108.5645925 121.47291100000002 108.680192 117.73215600000002 109.7211415 114.51855350000002 C 111.47002 109.11944400000003 117.4126765 108.61618000000003 119.4992915 107.38687000000003 C 121.80888399999999 110.47531950000003 121.40264 119.61993650000002 112.533995 136.96177150000003 Z &#10;" stroke-width="0px" fill="#c56439" /><path d="M 166.662776 131.4381735 L 167.273953 127.1059275 L 165.672424 128.44628 C 165.6742475 127.9198465 165.67251100000001 127.40140050000001 165.6670405 126.8909435 L 167.508994 118.3634645 L 167.038477 118.15820500000001 C 167.038477 118.15820500000001 166.284382 118.7575735 166.1504945 118.95840500000001 C 166.01660700000002 119.15923650000002 166.7470845 113.60489650000001 166.7470845 113.60489650000001 C 166.7470845 113.60489650000001 165.606261 113.6210465 164.467261 113.627385 C 161.104007 96.322451 151.39724 94.32629250000001 144.198826 94.3318495 C 138.674789 94.336104 127.98010149999999 95.8970845 125.85057599999999 108.8016995 C 123.72087699999999 121.70631449999999 142.9519 154.3923505 134.8940695 175.684305 L 134.669187 176.2408675 C 134.669187 176.2408675 145.05311949999998 168.090132 153.978702 169.754263 C 155.719415 170.5647085 154.72915 169.666394 154.72915 169.666394 C 154.72915 169.666394 161.94267200000002 161.360585 164.6075745 143.8095825 L 165.995074 140.96972300000002 L 167.508994 136.18093900000002 L 165.6751155 135.28635750000004 L 166.6627755 131.43817350000003 Z &#10;" stroke-width="0px" fill="#e7caae" /><path d="M 173.83577 60.2570215 C 172.351976 60.494460000000004 170.8511315 60.7366975 169.468037 61.3241255 C 167.5129135 62.154506 165.8926165 63.632194 163.9585585 64.5105215 C 158.238022 67.1084285 150.3525065 64.38183749999999 144.57647200000002 66.853898 C 140.57068650000002 68.5683175 138.76713400000003 72.666782 139.25013550000003 76.99717 C 139.75259350000002 81.501999 143.66672450000002 84.7146465 148.19690800000004 84.5617115 C 150.02963850000003 84.49984 151.92350250000004 83.9725645 153.71361850000002 83.574806 C 159.779366 82.227015 175.34119300000003 79.9583025 182.12525250000002 70.30045299999999 C 182.543338 69.70526249999999 183.354657 66.85580949999999 183.22423450000002 65.33183749999999 C 183.01487400000002 62.885485499999994 182.544541 59.86649049999999 181.99183100000002 59.61624199999999 C 179.73616800000002 58.59495299999999 176.33119850000003 59.85770049999999 173.83577050000002 60.25702199999999 Z &#10;" stroke-width="0px" fill="#e7caae" /><path d="M 148.815942 60.011566 C 150.17947 57.095850500000005 154.296788 56.428852 156.8806815 58.087616000000004 C 157.2460925 58.342898000000005 157.61074050000002 58.651669500000004 157.7958725 59.074815 C 156.977229 58.9293815 156.24409550000001 58.985738500000004 155.449434 59.0069415 C 155.4494325 59.0069585 154.3339605 59.0569385 154.3339605 59.0569385 C 152.41789 59.110434 150.7392955 59.523455500000004 148.81594149999998 60.011566 L 148.81594149999998 60.011566 Z &#10;" stroke-width="0px" /><path d="M 168.601104 40.448132 C 168.718186 37.8472585 172.05860149999998 36.4894795 174.15881149999998 37.815473000000004 C 174.45176149999998 38.011933500000005 174.74153299999998 38.26370550000001 174.86657699999998 38.6143615 C 174.22642 38.6267275 173.727412 38.785023 173.14984599999997 38.921622 C 172.72199299999997 39.0331425 172.08604299999996 39.174585 171.67365499999997 39.2962825 C 170.85665599999996 39.513631499999995 169.42731099999997 40.123243499999994 168.60110399999996 40.448131999999994 L 168.60110399999996 40.448131999999994 Z &#10;" stroke-width="0px" /><path d="M 170.9746865 55.50831 C 172.3383265 52.592465000000004 176.4556125 51.9257085 179.0396135 53.584360000000004 C 179.4048375 53.839642000000005 179.7696725 54.148460500000006 179.9546175 54.571559 C 179.135974 54.4261255 178.40284050000002 54.4824825 177.608179 54.5036855 C 177.6081775 54.5037025 176.4927055 54.5536825 176.4927055 54.5536825 C 174.5766745 54.607175500000004 172.898018 55.0202015 170.9746865 55.50831 L 170.9746865 55.50831 Z &#10;" stroke-width="0px" /><path d="M 125.280794 49.236504 C 125.273101 48.358681 125.2654085 47.480858 125.2577155 46.6030345 C 125.231933 43.66101 125.19260200000001 40.644478 124.133894 37.899426 C 123.07518599999999 35.154374 120.762851 32.694885 117.843554 32.3289865 C 114.984358 31.970622 112.0092475 33.916377 111.1915295 36.6794845 C 111.1915295 36.6794845 121.7021865 31.3032215 125.2807945 49.236504 Z &#10;" opacity=".35" fill="#754123" mix-blend-mode="multiply" stroke-width="0px" /><path d="M 111.1914695 36.6795075 C 111.80986299999999 33.1312985 115.3130245 30.715186 118.864479 31.6349205 C 121.74893900000001 32.310904 123.875586 34.815342 124.646922 37.5891795 C 125.4922655 40.1723025 125.752905 43.000209 125.2807655 45.647084 C 125.006921 43.5097825 124.615504 41.457747 123.927577 39.50043 C 123.249763 37.602627 122.516607 35.726263 120.9600075 34.4138115 C 117.5372595 31.454068 113.169139 32.7497835 111.19147000000001 36.679507 L 111.19147000000001 36.679507 Z &#10;" stroke-width="0px" /><path d="M 171.4121295 71.2600095 C 169.12363449999998 75.56137899999999 160.6336935 81.5968585 159.1407515 71.92202449999999 L 161.822141 72.45657349999999 L 167.29825749999998 72.19321949999998 L 171.41212949999996 71.26000949999998 Z &#10;" stroke-width="0px" /><path d="M 43.2136485 55.197643 C 46.337700999999996 33.148177000000004 61.500676999999996 31.8611535 66.5038495 35.753459 C 71.656519 39.702459 76.81093 48.870486 66.5215295 68.3945645 C 53.2676225 93.5437775 39.1076725 160.878675 99.96041 159.9749215 C 99.96041 159.9749215 94.13595049999999 171.06110999999999 96.4958865 180.3797405 C 100.41228699999999 185.3302285 105.52848449999999 189.336541 105.52848449999999 189.336541 C 105.52848449999999 189.336541 81.78492299999999 200.654405 58.99115449999999 191.535164 C 21.63510449999999 175.807344 17.216753999999995 139.79109250000002 21.117060999999993 116.22910050000002 C 21.845109499999992 111.87267250000002 26.07689999999999 78.79741000000001 52.843059999999994 56.40793400000002 C 65.8855555 46.40322850000002 50.756052 39.17320000000002 43.213649 55.19764250000002 Z &#10;" fill="#754123" mix-blend-mode="multiply" stroke-width="0px" opacity=".25" /><path d="M 103.355138 209.7990775 C 103.141543 209.7990775 102.930379 209.70322000000002 102.79024 209.520883 C 101.63873699999999 208.0198135 101.1740375 206.308969 101.515442 204.826654 C 101.79467849999999 203.614198 102.604777 202.618116 103.79639399999999 202.0221335 C 104.14717599999999 201.8467425 104.57488699999999 201.98844449999999 104.7507995 202.3402685 C 104.92636399999999 202.6917455 104.7839675 203.11893550000002 104.4326645 203.29467400000001 C 103.6159675 203.7031095 103.0866685 204.34320000000002 102.901726 205.14583100000002 C 102.656005 206.21276450000002 103.0267575 207.4919035 103.918994 208.6546945 C 104.15811649999999 208.966578 104.0992475 209.41287 103.7875375 209.652166 C 103.658512 209.751149 103.50621699999999 209.79907749999998 103.3551375 209.79907749999998 Z &#10;" stroke-width="0px" /><path d="M 177.1975565 201.3966295 C 177.009315 201.3966295 176.8215945 201.3223055 176.6818025 201.17539349999998 C 176.411075 200.89059999999998 176.42271 200.44013999999999 176.7075035 200.16958649999998 C 178.020158 198.92239949999998 178.605895 197.67035049999998 178.401677 196.548195 C 178.2009325 195.44583599999999 177.3172045 194.74322999999998 176.9205775 194.575827 C 176.5586815 194.423011 176.38936850000002 194.0055455 176.54218450000002 193.6436495 C 176.69500050000002 193.2817535 177.11194500000002 193.1122665 177.47418850000003 193.2650825 C 178.24729850000003 193.5919005 179.505252 194.6678635 179.801159 196.29327 C 180.0065925 197.4209825 179.80636850000002 199.1877435 177.6872625 201.201094 C 177.54972800000002 201.331682 177.373469 201.39662900000002 177.1975565 201.39662900000002 Z &#10;" stroke-width="0px" /><path d="M 163.255545 186.339586 C 165.93441750000002 188.7946175 172.12487050000001 190.158711 173.6237245 190.1544795 C 173.6237245 190.1544795 168.015973 187.69003 166.87477800000002 185.8323145 L 163.255545 186.339586 Z &#10;" fill="#754123" mix-blend-mode="multiply" stroke-width="0px" opacity=".25" /><path d="M 178.1754355 194.041409 C 179.9677015 194.443077 179.89238849999998 195.79870749999998 180.67062099999998 196.024646 C 181.44885299999999 196.2505845 181.87562549999998 194.4268875 181.85052149999999 193.920345 C 182.26246949999998 194.217139 181.82817949999998 196.677357 181.512995 197.631319 C 181.1978105 198.58528099999998 178.28571599999998 199.915807 178.28571599999998 199.915807 L 178.938427 197.832153 L 178.63717599999998 195.095788 L 178.175436 194.041409 Z &#10;" fill="#754123" mix-blend-mode="multiply" stroke-width="0px" opacity=".25" /><path d="M 178.764881 195.4578985 C 178.641521 198.707018 172.762773 197.9325625 171.360621 197.8321465 C 169.9584695 197.731731 165.9344165 197.229652 162.319407 189.698364 C 160.73730600000002 186.4022925 160.30918200000002 182.3176775 159.792777 178.6945715 L 159.7927985 178.69455 C 159.792755 178.6942245 159.7926685 178.693899 159.79262500000002 178.693573 C 159.5316655 176.86288549999998 159.2473065 175.15130299999998 158.78091350000003 173.71763299999998 C 156.72401900000003 165.74515399999999 153.36356550000002 163.23308899999998 147.25685200000004 162.38491699999997 C 140.02681100000004 161.38075949999998 127.45500500000004 174.33879499999998 121.49001550000004 187.99340249999997 C 119.19030850000004 192.54339 119.99363450000004 191.55607699999996 118.68818650000004 196.97861299999997 C 117.38278200000005 202.40112749999997 113.58899500000004 206.56842349999997 109.68680450000005 206.91990049999995 C 105.78461350000005 207.27135549999994 102.72186900000005 206.97010849999995 102.57126700000005 204.86133449999994 C 102.48066300000005 207.57809449999993 102.57126700000005 208.83719799999994 102.57126700000005 208.83719799999994 L 104.73022700000004 209.66279499999993 L 111.04556450000004 209.08784649999993 L 116.32839550000004 205.8731319999999 L 120.72215900000005 196.2674534999999 L 122.50407150000005 190.9033739999999 L 133.16498300000006 177.2131674999999 L 143.34057350000006 171.12121499999992 L 151.44088400000007 169.3806539999999 L 155.05591550000005 170.1170359999999 L 156.90069100000005 173.0906309999999 L 157.93452150000005 181.22986199999988 L 158.01238400000005 181.12362899999988 C 158.35322450000007 183.35259349999987 158.83555000000004 185.87983099999988 159.61319650000004 188.68858449999988 C 162.69771350000005 199.82928199999986 170.45318950000004 202.85299799999987 175.42383300000003 201.38346799999988 C 180.39447650000002 199.91391649999989 178.76488100000003 195.4578979999999 178.76488100000003 195.4578979999999 Z &#10;" fill="#754123" mix-blend-mode="multiply" stroke-width="0px" opacity=".25" /><path d="M 108.6273155 137.1245435 L 109.68629999999999 137.6321265 C 109.68629999999999 137.6321265 109.738283 135.925061 107.44148099999998 135.163642 C 105.14467899999998 134.40222350000002 108.21971299999998 136.57774700000002 108.21971299999998 136.57774700000002 L 108.62731549999998 137.12454350000002 Z &#10;" stroke-width="0px" /><path d="M 169.6683235 131.457647 C 169.19797200000002 131.68241600000002 168.72099100000003 132.6614825 168.5954695 133.41461 L 169.67832900000002 133.049572 L 170.1268295 131.73262450000001 L 169.66832300000002 131.457647 Z &#10;" stroke-width="0px" /><path d="M 102.2563375 181.6592445 C 104.343874 181.709674 106.457984 181.547373 108.501199 181.978216 C 110.9702115 182.498844 113.24280949999999 183.9051015 114.8104925 185.88233350000002 C 116.3781755 187.85956550000003 117.2291915 190.39294900000002 117.17312349999999 192.915633 C 116.18934049999999 193.258205 115.1072725 193.0255305 114.09959549999999 192.7613905 C 108.7324065 191.3545005 103.369147 188.9581925 99.91992699999999 184.6120535 C 98.76252349999999 183.1536845 97.83419299999998 181.514683 96.46652199999998 180.231002 C 98.23115399999999 181.29177399999998 100.22054449999999 181.610065 102.25633799999999 181.659245 Z &#10;" fill="#754123" mix-blend-mode="multiply" stroke-width="0px" opacity=".25" /><path d="M 172.1287225 175.410455 C 175.5416255 172.414519 180.57822900000002 172.2031465 184.5288605 169.9634885 C 183.37920350000002 172.68581600000002 181.8825175 175.2613705 180.0864915 177.60808550000002 C 179.171599 178.80349800000002 178.1691525 179.9492735 176.96060699999998 180.84674600000002 C 175.74564049999998 181.74898650000003 174.353423 182.37801850000002 172.96615949999997 182.98273500000002 C 170.63640699999996 183.99828850000003 168.28559249999998 184.96552300000002 165.91565999999997 185.88363700000002 C 165.30421399999997 186.12050800000003 164.26773149999997 186.54856750000002 163.70491299999998 186.14834050000002 C 164.11066899999997 185.31347050000002 165.40996149999998 184.64062 166.04691249999996 183.89382200000003 C 166.80916699999997 183.00011100000003 167.43666199999996 182.00085900000002 168.04924849999998 181.00184700000003 C 169.25321799999998 179.03840250000002 170.37420249999997 176.95061800000002 172.12872099999998 175.410455 Z &#10;" fill="#754123" mix-blend-mode="multiply" stroke-width="0px" opacity=".25" /><path d="M 110.991402 135.5192365 C 110.62535849999999 136.8342775 110.1240395 138.200958 109.05118049999999 139.04493300000001 C 107.63776099999998 140.15681400000003 105.65381449999998 140.06147 103.861674 139.91225150000002 C 102.35122899999999 139.78648750000002 100.8407845 139.66072350000002 99.3303395 139.5349595 C 99.1752035 139.52204250000003 98.99484 139.518777 98.8931545 139.63665 C 98.792976 139.752776 98.82013649999999 139.928032 98.85584999999999 140.0771815 C 99.26944099999999 141.8044625 100.27539449999999 143.621017 102.00181749999999 144.0381755 C 102.92221999999998 144.260574 103.88913449999998 144.040706 104.79268849999998 143.757523 C 106.56207049999998 143.2029805 108.28967899999998 142.377206 109.59272399999998 141.0579845 C 111.20305699999997 139.42765550000001 111.99363199999998 137.18408 112.21447499999998 134.937785 C 112.25499599999998 134.525627 112.50403399999998 131.90044999999998 111.97034249999997 131.9472415 C 111.59030349999998 131.9805615 111.11990599999997 135.05757549999998 110.99140249999998 135.51923649999998 Z &#10;" fill="#754123" mix-blend-mode="multiply" stroke-width="0px" opacity=".25" /><path d="M 168.2944815 134.501998 C 169.10696049999999 135.1481705 170.02545999999998 135.64560849999998 170.93958049999998 136.1375885 C 171.364828 136.366457 171.79219949999998 136.595766 172.24649549999998 136.759569 C 173.22257799999997 137.1115105 174.27990849999998 137.147212 175.317008 137.1792125 C 176.0219295 137.2009635 176.743431 137.2204895 177.41419199999999 137.002619 C 178.0913115 136.78268350000002 178.667894 136.336726 179.2293455 135.8989645 C 179.4948995 136.2940465 179.283975 136.826109 179.04379699999998 137.237112 C 178.78217249999997 137.68481599999998 178.48957299999998 138.114415 178.1687825 138.521821 C 178.00044599999998 138.73560949999998 177.8218115 138.9456745 177.600237 139.103622 C 177.2851245 139.3282475 176.90305899999998 139.4341155 176.5297165 139.535937 C 175.65400300000002 139.7747695 174.7375345 140.0152295 173.8496105 139.8267995 C 173.1779715 139.684268 172.5828305 139.307501 172.0090605 138.93040399999998 C 170.865276 138.178679 169.7337345 137.39221299999997 168.76425600000002 136.42606349999997 C 167.794777 135.45991399999997 166.98758600000002 134.29870499999996 166.60659950000002 132.98410099999998 C 166.531643 132.72546099999997 166.434546 132.425243 166.42571800000002 132.1647855 C 166.85845500000002 133.095944 167.49117850000002 133.8631215 168.29448200000002 134.5019975 Z &#10;" fill="#754123" mix-blend-mode="multiply" stroke-width="0px" opacity=".25" /><path d="M 171.980311 123.990661 C 172.613182 123.4553775 173.3091225 123.0005155 174.0030375 122.54715350000001 C 176.137539 121.1526 178.272041 119.7580465 180.4065425 118.363493 C 179.2578735 121.029787 176.864276 122.91692350000001 174.562726 124.686509 C 173.602454 125.4248305 172.6299185 126.175004 171.897154 127.1395235 C 171.157937 128.1125365 170.6915105 129.269601 170.384884 130.4524695 C 170.233224 131.0375265 169.7699695 133.2671915 168.816732 133.1047915 C 168.0419765 132.9727985 168.4674275 130.61988200000002 168.5631595 130.0608205 C 168.962611 127.72808 170.168032 125.523494 171.980311 123.990661 Z &#10;" fill="#754123" mix-blend-mode="multiply" stroke-width="0px" opacity=".25" /><path d="M 101.6925575 124.1020235 C 103.8261145 125.5855245 106.08117250000001 127.03569900000001 107.53542850000001 129.189296 C 109.12326750000001 131.5407145 109.5765535 134.48969000000002 109.53303050000001 137.326679 C 108.81357500000001 137.2507875 108.237154 136.66504250000003 107.92602350000001 136.0119165 C 107.61489300000002 135.3587905 107.51001500000001 134.63031900000001 107.33159200000001 133.92921900000002 C 106.85978700000001 132.07529200000002 105.84143600000002 130.36400050000003 104.43703100000002 129.0650425 C 103.16627450000001 127.88969800000001 101.60575800000002 127.0588645 100.35368650000002 125.8636225 C 98.42804000000002 124.025374 97.27942350000002 121.4088955 96.48440200000002 118.9092195 C 97.72753800000002 121.12061250000001 99.63736050000001 122.67300900000001 101.69255750000002 124.102024 Z &#10;" fill="#754123" mix-blend-mode="multiply" stroke-width="0px" opacity=".25" /><path d="M 110.1514575 126.3944375 C 107.8505305 124.26967599999999 106.9316855 121.0107915 106.758694 117.88365999999999 C 106.5494345 114.10089749999999 107.394232 110.06852549999999 109.99906100000001 107.31753549999999 C 112.60389 104.56654549999999 117.2455285 103.58860299999999 120.28476450000001 105.85048799999998 C 122.285002 107.33912099999998 123.25855800000001 109.90141549999998 123.3894295 112.39136499999998 C 123.520301 114.88131449999997 122.91615200000001 117.34529149999997 122.298136 119.76087249999998 C 120.8206545 125.53576249999998 119.238009 131.28374599999998 117.551249 137.00101349999997 C 116.2417885 141.43942599999997 113.213044 145.40899349999998 109.9076785 148.64762749999997 C 106.60231300000001 151.88626149999996 102.90056700000001 154.73698449999998 99.9255655 158.28149549999998 C 104.28757 151.05864999999997 108.6495755 143.83580349999997 113.01158050000001 136.61295749999996 C 117.35010000000001 129.42900049999997 120.2006685 121.34804799999996 120.54332400000001 112.96266949999996 C 120.61232500000001 111.27408999999996 121.23547400000001 108.84524749999996 120.01256200000002 107.67882199999997 C 118.94324150000001 106.65889299999996 117.27172650000001 108.25965449999997 115.88155400000002 108.76077549999997 C 114.49138150000002 109.26189649999996 112.50329350000003 110.66317149999996 111.66650850000002 111.88115849999997 C 108.50655600000002 116.48064649999996 109.02597100000003 120.92873949999996 110.15145750000002 126.39443799999997 Z &#10;" fill="#754123" mix-blend-mode="multiply" stroke-width="0px" opacity=".25" /><path d="M 167.4682995 103.9293255 C 168.2685255 104.39046400000001 168.9771845 104.9986945 169.6104835 105.670961 C 170.1315645 106.22410500000001 170.60627699999998 106.825162 170.9775875 107.488202 C 171.9324935 109.193353 172.155163 111.2412455 171.882128 113.176404 C 171.609093 115.1115625 170.8690265 116.951941 169.9951465 118.70000300000001 C 169.352478 119.98556200000002 168.634192 121.23331400000001 167.845237 122.434661 C 168.4376045 119.5441835 168.7262595 116.59156 168.7049175 113.641085 C 168.69310099999998 112.007484 168.5645985 110.3005665 167.719696 108.9023775 C 166.8747935 107.5041885 165.1102875 106.536016 163.5756365 107.0960495 C 163.435582 107.147159 163.293281 107.2108685 163.1445465 107.20059950000001 C 162.976126 107.18897100000001 162.829418 107.0842575 162.7023715 106.97308000000001 C 161.119781 105.58816350000001 161.211009 103.13458250000001 159.9997155 101.48682950000001 C 161.1662375 101.67571350000001 162.498948 102.30774250000002 163.70831 102.60786100000001 C 164.99927000000002 102.92822900000002 166.30621150000002 103.25966200000002 167.4682995 103.92932600000002 Z &#10;" fill="#754123" mix-blend-mode="multiply" stroke-width="0px" opacity=".25" /><path d="M 143.410883 84.370347 C 144.74323750000002 85.050392 146.25058650000003 85.292977 147.734037 85.4853445 C 155.9452295 86.550135 164.606071 86.436621 171.951289 90.25830049999999 C 168.6137655 87.48024649999999 164.6566385 85.5511325 160.6436425 83.89206349999999 C 159.6238765 83.470468 158.580116 83.06011849999999 157.481449 82.95718199999999 C 156.300084 82.84649649999999 155.118998 83.09653599999999 153.95033 83.30169849999999 C 151.76074250000002 83.68608599999999 149.51758750000002 83.88966249999999 147.296381 83.71089549999999 C 146.1901705 83.6218655 145.0889665 83.43984649999999 144.0238925 83.12426249999999 C 143.30533899999998 82.91135349999999 141.7190575 81.87872599999999 141.10255949999998 82.12699449999998 C 141.406469 83.11319399999998 142.52128 83.91628549999999 143.41088349999998 84.37034699999998 Z &#10;" fill="#754123" mix-blend-mode="multiply" stroke-width="0px" opacity=".25" /><path d="M 146.65065 31.812156 C 147.7878805 31.376672000000003 149.011752 31.1884625 150.1295345 30.705242000000002 C 151.53704100000002 30.0967735 152.73646250000002 29.018147000000003 153.49036900000002 27.682882000000003 C 154.75608400000002 31.035556500000002 155.51162900000003 34.580304500000004 155.723023 38.157702 C 155.7363295 38.3828905 155.7296365 38.6479955 155.546939 38.780315 C 155.43813600000001 38.859116 155.2946075 38.866784 155.16027300000002 38.865415 C 154.2991435 38.8566405 153.4631735 38.599281 152.6272245 38.392355 C 149.66083 37.6580695 146.58549950000003 37.5483325 143.54339950000002 37.6195155 C 142.771272 37.637583 141.99938250000002 38.277771 141.227865 38.3131085 C 140.3614335 38.352793 139.164419 38.9739145 139.818682 38.118311 C 140.598307 37.098766999999995 141.69399049999998 35.381913499999996 142.6303595 34.503296999999996 C 143.66539699999998 33.5320975 145.3182445 32.322379 146.65065049999998 31.812155999999995 Z &#10;" opacity=".35" fill="#754123" mix-blend-mode="multiply" stroke-width="0px" /><path d="M 139.17532 75.6844375 C 142.0713335 77.679481 145.5111285 78.785535 148.991844 79.2872435 C 152.4725595 79.78895200000001 156.01086049999998 79.709857 159.52110649999997 79.4971065 C 161.05334349999998 79.40424 162.59088899999998 79.2851225 164.08745349999998 78.943557 C 165.41976949999997 78.6394785 166.70535449999997 78.16235 167.9864375 77.6865805 C 170.2494935 76.846125 172.5212845 76.00174100000001 174.64390849999998 74.851847 C 177.8728545 73.1026235 180.710309 70.66196350000001 183.0274605 67.8129835 C 182.068277 71.53927 179.419898 74.7954935 175.9671765 76.49371500000001 C 174.424377 77.25254100000001 172.7529545 77.70659900000001 171.14442 78.313776 C 168.797036 79.1998475 166.58158699999998 80.4130725 164.2189555 81.2576465 C 161.644434 82.17796550000001 158.93445499999999 82.6469665 156.240205 83.111901 C 153.3173695 83.616281 150.3412615 84.122153 147.3999445 83.74002300000001 C 145.2301165 83.45812350000001 142.60996500000002 82.6835915 140.89872450000001 81.24596600000001 C 139.45623 80.03411550000001 139.02333650000003 77.47737300000001 139.17532000000003 75.68443800000001 Z &#10;" fill="#754123" mix-blend-mode="multiply" stroke-width="0px" opacity=".25" /><path d="M 44.5271435 26.621394 C 61.1569805 15.179530499999998 87.7482235 8.366786999999999 94.788074 37.2787965 C 101.8279245 66.190806 80.64467549999999 88.3260965 86.565889 114.5636835 C 83.34915 98.42527199999999 94.162909 84.7042625 99.9255655 70.299306 C 102.7566 63.2576835 112.3077415 28.909195000000004 96.4844015 14.430705000000003 C 88.97250550000001 3.4307345000000034 54.70866050000001 4.222708500000003 44.527143 26.621394000000002 Z &#10;" stroke-width="0px" opacity=".66" fill="#d8b58e" /><g opacity=".66"><path d="M 152.121988 26.9764685 C 149.2034795 25.6817405 146.537974 27.2562495 144.1245995 28.935823 C 142.9203825 29.771091 141.86847 30.6846005 140.882286 31.794166 C 139.836544 32.9632365 138.99358949999998 34.225854 138.138383 35.6082335 C 137.5825525 32.120891 139.634615 28.548364499999998 142.494938 26.604692999999997 C 143.9624915 25.602478499999997 145.6219395 24.791611999999997 147.455455 24.671718499999997 C 149.2411285 24.535508999999998 151.3639545 25.290000499999998 152.1219885 26.976468499999996 L 152.1219885 26.976468499999996 Z &#10;" stroke-width="0px" fill="#d8b58e" /></g><g opacity=".66"><path d="M 130.1709275 40.883504 C 139.455836 37.375295 150.9730765 37.622698 160.30225000000002 40.883361 C 155.2304875 41.3807945 150.26171950000003 41.215131 145.22217550000002 41.211414500000004 C 140.74099 41.128625500000005 134.62555150000003 41.237245 130.17092800000003 40.883504 L 130.17092800000003 40.883504 Z &#10;" stroke-width="0px" fill="#d8b58e" /></g><path d="M 145.3684435 44.8569035 C 145.485375 42.256053 148.826007 40.8982545 150.926151 42.224244500000005 C 151.219101 42.420705000000005 151.5088725 42.67247700000001 151.6339165 43.023133 C 150.9937595 43.035499 150.4947515 43.1937945 149.9171855 43.3303935 C 149.48933549999998 43.441887 148.8534015 43.583411 148.4409945 43.7050075 C 147.6240015 43.922437 146.194659 44.532000000000004 145.36844349999998 44.856904 L 145.36844349999998 44.856904 Z &#10;" stroke-width="0px" /><g opacity=".66"><path d="M 119.53754 68.70539 C 120.0639745 72.4542625 121.1701405 76.43193099999999 120.57655600000001 80.21799349999999 C 120.28122300000001 82.15870749999999 119.82305300000002 84.0765495 119.19754150000001 85.93279 C 118.50116950000002 87.885966 117.28645600000002 89.684506 115.81594950000002 91.117503 C 114.40551350000001 92.5342635 112.74823450000001 93.5641095 111.12830050000002 94.67774299999999 C 108.84487950000002 96.25646149999999 106.64546600000003 97.9953535 104.51208100000002 99.78433799999999 C 102.46423300000002 101.55497949999999 100.00091250000003 103.2827425 97.97122050000003 105.1011195 C 98.82572300000002 101.1792555 101.97818800000003 98.3568775 104.91632050000003 95.87389449999999 C 107.08385750000002 94.010539 109.46167900000003 92.339687 111.85248500000003 90.76988449999999 C 114.00252700000003 89.29718749999999 115.87369300000003 87.4213145 116.91846500000003 85.02247399999999 C 117.61165400000003 83.34079999999999 118.22431600000003 81.58514849999999 118.70504850000003 79.83734349999999 C 119.73691550000004 76.19088699999999 119.14184200000003 72.44089549999998 119.53753950000004 68.7053895 L 119.53753950000004 68.7053895 Z &#10;" stroke-width="0px" fill="#d8b58e" /></g><g opacity=".66"><path d="M 168.5212265 88.918082 C 170.14802200000003 89.94481449999999 171.57554900000002 91.069835 172.995696 92.2131765 C 177.22703800000002 95.670894 181.8136145 100.096423 182.111602 105.932939 C 179.8263895 102.9557125 177.6289525 100.4943495 175.0257445 97.878275 C 172.4965685 95.2424365 169.9351185 92.400931 168.521227 88.918082 L 168.521227 88.918082 Z &#10;" stroke-width="0px" fill="#d8b58e" /></g><g opacity=".66"><path d="M 102.816346 155.856778 C 101.30246249999999 161.79241 99.3369635 168.1273515 97.8738395 174.045883 C 97.356995 176.07181400000002 96.8817025 178.0717935 96.470315 180.23101350000002 C 96.2815525 179.71881950000002 96.096437 179.18422400000003 95.9971065 178.64459250000002 C 94.5696255 171.26518750000002 97.61654850000001 161.27527600000002 102.816346 155.85677750000002 L 102.816346 155.85677750000002 Z &#10;" stroke-width="0px" fill="#d8b58e" /></g><g opacity=".66"><path d="M 168.32135 138.7426905 C 173.7069175 145.21485800000002 186.580626 158.57281500000002 184.3980595 167.35013 C 184.1408425 165.9528785 183.70332 164.689021 183.108814 163.4839455 C 181.30817199999998 159.83188 178.82494499999999 156.6615805 176.48331149999999 153.2976155 C 173.32057899999998 148.7627495 170.04197 144.093621 168.32135 138.742691 L 168.32135 138.742691 Z &#10;" stroke-width="0px" fill="#d8b58e" /></g><path d="M 117.285747 193.0884545 C 113.3403785 195.3612055 107.5831335 198.3737175 107.5831335 198.3737175 L 113.57807100000001 192.543375 L 117.28574700000001 193.088455 Z &#10;" fill="#754123" mix-blend-mode="multiply" stroke-width="0px" opacity=".25" /><path d="M 98.478654 201.754425 C 98.4117095 203.96360049999998 100.386578 205.1351325 102.194085 203.6958215 C 102.5309985 204.328823 101.89283400000001 206.2731925 101.89283400000001 206.2731925 L 102.551484 208.416921 L 98.177403 205.873007 L 98.47865399999999 201.754425 Z &#10;" fill="#754123" mix-blend-mode="multiply" stroke-width="0px" opacity=".25" /><path d="M 181.3473425 190.830418 C 180.0084645 189.8577275 178.443446 189.75679200000002 176.902252 189.657341 C 176.4961355 189.631068 176.1124325 189.6062795 175.73860050000002 189.563976 C 173.163338 189.2727475 170.7209985 187.9689 168.97808200000003 186.0057065 C 172.32839450000003 184.8216455 175.52960500000003 183.088006 177.54964900000002 181.3353665 C 181.59745500000002 177.8234085 186.12463000000002 171.096362 186.12463000000002 167.35017449999998 C 186.12463000000002 161.25545799999998 181.29108650000003 154.61643299999997 176.616665 148.19605199999998 L 176.36967 148.3732825 L 176.61540300000001 148.19441899999998 L 176.61347350000003 148.19159849999997 C 174.57687950000002 145.39464899999996 172.47979850000002 142.51457649999998 170.85852350000002 139.76200899999998 C 171.5344195 140.19039049999998 172.24467800000002 140.549008 172.97787000000002 140.831924 C 175.23629950000003 141.84083249999998 177.5073455 141.310625 179.05269600000003 139.4146725 C 180.78863600000003 137.285678 181.02397900000003 134.062128 179.588544 132.07577899999998 C 178.7142655 130.8670775 176.521147 129.10545849999997 171.55215750000002 130.55328749999998 C 171.661628 130.11971049999997 171.82327300000003 129.6801965 172.03508900000003 129.240682 C 173.08555900000002 127.05973549999999 175.12096600000004 125.29113949999999 176.89646400000004 123.746828 C 178.22510050000002 122.7777 179.40819650000003 121.57300649999999 180.40359750000005 120.17876199999999 C 180.85001400000004 119.6167895 182.45830050000004 117.7833275 184.41065800000004 117.7833275 L 186.07765050000003 117.7833275 C 186.07765050000003 117.7833275 185.31269400000002 116.3021005 185.31269400000002 116.3021005 C 184.77254100000002 115.2565285 184.22934550000002 114.39323399999999 183.6949815 113.73092 C 186.1217355 111.7769295 186.121587 111.1512785 186.121587 110.810028 L 186.121587 110.35670950000001 C 186.121587 110.35670950000001 185.78404700000002 110.0539035 185.78404700000002 110.0539035 C 185.1172055 109.456158 184.60941150000002 108.97434 184.27053550000002 108.64437050000001 L 185.04625350000003 106.487025 L 184.43210600000003 106.0405345 C 184.42453600000005 106.03489400000001 183.66996950000004 105.4671325 183.41889300000003 104.77765450000001 C 183.31921950000003 104.50394150000001 183.24426000000003 104.2842585 183.18830000000003 104.11177800000002 L 183.08951700000003 103.77186300000001 L 182.96950800000002 103.31498200000001 L 182.9477625 103.31884150000002 C 180.388605 95.27399400000002 171.743118 87.43146300000002 160.698857 83.09658500000002 C 172.594612 80.11943650000002 180.1258765 75.88475150000002 183.0905565 70.50341100000001 C 185.13798649999998 66.78735600000002 184.4833165 63.432293500000014 183.58083549999998 61.29127550000001 C 178.56709249999997 46.71932250000001 167.17193249999997 40.879913500000015 158.49549699999997 38.54726700000001 C 158.02065549999998 38.41961350000001 157.51961499999996 38.29492850000001 156.93441249999998 38.15911100000001 C 156.78723999999997 29.81086400000001 154.36887249999998 26.20836100000001 152.35506299999997 24.65588550000001 C 150.68755099999998 23.37074050000001 148.68509699999998 22.98659250000001 146.5647115 23.544409000000012 C 142.44105549999998 24.629316000000014 138.31895799999998 27.074030500000013 136.07388799999998 37.485664000000014 C 135.36400049999997 37.604708500000015 132.97146049999998 38.09513550000001 129.54292299999997 39.69214150000001 C 129.03817199999997 37.77956450000001 128.35040099999998 35.91248250000001 127.51404749999998 34.221443500000014 C 126.18585649999997 31.535968500000013 123.88475249999998 28.066166000000013 120.46504649999997 26.786661500000015 C 118.24112799999997 25.954983500000015 114.76152899999997 25.815900500000016 110.81495549999997 29.877065500000015 C 104.49283799999996 36.381906000000015 109.29647149999997 47.66499800000001 113.53449649999997 57.61989900000002 C 114.66185549999997 60.267968500000016 115.82610099999998 63.002724000000015 116.61925999999997 65.38004900000001 L 116.61488099999997 65.38168200000001 L 116.70883999999997 65.65821550000001 C 120.39216549999996 76.50921500000001 117.33129949999997 86.37921150000001 108.72173349999997 91.41618450000001 C 108.19627549999997 91.72062350000002 107.72573849999998 92.01719550000001 107.28355249999997 92.32297000000001 C 102.60445499999997 95.55854300000001 99.14919899999997 99.24268450000001 97.01055649999998 103.275647 C 95.98457799999998 103.283811 94.71486999999998 103.53362600000001 94.10421099999998 104.5947835 L 93.72926549999998 105.24685600000001 L 94.24373899999998 105.795618 C 94.58929449999998 106.164032 94.69349499999997 107.009366 94.67909699999997 107.67168050000001 L 93.10569249999998 109.17383650000001 L 93.41592049999997 111.06667200000001 L 91.04750149999997 111.06667200000001 L 91.25219249999996 112.25459250000002 C 91.85632049999997 115.75838650000001 94.60710649999996 118.72366050000002 95.52324399999996 119.62821950000001 C 96.67687599999996 123.02157800000002 98.71131799999996 125.85370650000002 101.38966799999996 127.80591550000001 C 103.18542749999996 129.36685150000002 105.22105649999996 131.136041 106.27093299999996 133.315355 C 106.48274899999996 133.7550175 106.64439399999996 134.194829 106.75378999999995 134.62825700000002 C 106.02853949999995 134.41733150000002 105.33163999999995 134.26607700000002 104.67570849999996 134.17746150000002 C 97.98903599999996 132.1709255 93.12394999999995 128.401879 90.21612049999996 122.97452400000002 C 86.62964849999996 116.28102350000002 86.22991499999996 107.02628750000002 89.11919049999996 97.58318800000002 C 90.26139299999996 93.84961750000002 92.19653249999996 89.67208000000002 94.43907899999996 84.83163450000002 C 100.95074749999996 70.77519400000003 109.86883449999996 51.52414400000002 105.21185349999996 27.238792500000024 C 103.57195049999996 18.72578300000002 98.62953049999996 12.427860000000024 90.91910549999996 9.025744000000024 C 80.75550549999996 4.5415410000000245 66.69713549999996 5.955081500000024 55.93668099999996 12.543787500000025 C 38.18689599999996 23.412599000000025 35.08075799999996 43.02241550000002 42.33237199999996 55.70168150000002 L 43.23960299999996 57.28770300000002 L 44.10735049999996 55.67971300000002 C 46.44073899999996 51.35626450000002 50.59185549999996 46.44338300000002 54.60552149999996 46.841038500000025 C 55.73837299999996 46.95058300000002 56.55238699999996 47.54120350000002 56.83886549999996 48.46134850000003 C 57.35719849999996 50.126188500000026 56.21187849999996 52.34914200000003 53.79002299999996 54.396052500000025 C 42.050643499999964 63.13779950000003 32.13715549999996 77.12165500000003 25.875895999999962 93.77139300000002 C 19.57856699999996 110.51731600000002 17.565499499999962 128.44433150000003 20.207186499999963 144.2505165 C 22.154497499999962 155.90113200000002 26.490562999999963 165.993038 33.09500299999996 174.246139 C 40.37570999999996 183.3438315 50.22611349999996 189.919475 62.37101549999996 193.78990199999998 C 67.51129849999997 195.45103149999997 73.01123799999996 196.29339649999997 78.71809549999996 196.29339649999997 C 91.78566599999996 196.29339649999997 102.32094549999997 191.93788599999996 105.46330149999996 190.48723649999997 C 107.22699899999996 191.51128549999996 109.11315499999996 192.33509649999996 111.07234049999995 192.93670099999997 C 111.33581149999995 193.01767199999998 111.66860149999995 193.09136949999998 112.04235949999995 193.15712599999998 C 110.33016899999994 195.70329549999997 107.45187749999995 197.49905449999997 104.40719099999994 197.8433485 C 104.02823799999994 197.8863945 103.63874599999994 197.9113315 103.21615349999995 197.938495 C 101.70271649999995 198.035868 100.13777249999995 198.136655 98.79859749999994 199.10949399999998 C 97.80690749999994 199.8302915 97.14652249999995 200.9572055 96.93886299999994 202.28272449999997 C 96.69171949999993 203.86102749999998 97.10110199999994 205.56460899999996 98.03386349999994 206.83995749999997 C 99.38520999999994 208.68662999999998 101.71013799999994 209.93199449999997 104.75764449999994 210.44142099999996 C 105.69337499999995 210.59757399999995 106.60476199999994 210.67683799999998 107.46686899999995 210.67683799999998 C 108.40052149999994 210.67683799999998 109.29498699999995 210.58421499999997 110.12562599999994 210.40164049999998 C 113.58882299999993 209.64106249999998 116.80762299999994 207.11945899999998 118.95658199999994 203.48370699999998 C 120.81891399999994 200.333261 122.04787649999994 195.60748099999998 122.76422099999994 192.10190599999999 L 123.53118149999993 191.09893499999998 C 128.55286549999994 184.1136125 131.85308149999992 179.91900499999997 133.34009749999993 178.63133649999997 C 141.77503049999993 171.32806749999997 150.16654649999992 169.91244849999998 153.74908449999992 170.74323599999997 C 155.89848899999993 171.24212399999996 156.36872899999992 175.60594699999996 156.78375149999994 179.45692849999998 C 157.00447349999993 181.50628799999998 157.21198449999994 183.40335399999998 157.67049849999995 184.83975349999997 C 158.37058949999994 188.31935249999998 159.28368349999994 191.98004149999997 161.18943249999995 195.20418499999997 C 163.33839149999994 198.84038249999998 166.55719149999996 201.36198599999997 170.02046249999995 202.12241549999996 C 170.85087849999996 202.30484149999995 171.74489899999995 202.39731599999996 172.67766099999994 202.39731599999996 C 173.54125249999996 202.39731599999996 174.45330749999994 202.31805199999997 175.38851849999995 202.16189899999995 C 178.43624749999995 201.65247199999996 180.76117549999995 200.40725599999996 182.11215149999995 198.56073199999994 C 183.04506149999995 197.28582899999995 183.45444349999994 195.58224749999994 183.20730049999995 194.00394449999993 C 182.99971499999995 192.67797999999993 182.33918199999994 191.55091749999994 181.34734349999994 190.83041699999993 Z M 137.9267195 38.54756450000002 C 140.1891565 27.32132300000002 144.6726175 26.141863000000022 147.081485 25.508048000000024 C 147.5310185 25.389597500000022 147.9718685 25.330817500000023 148.400176 25.330817500000023 C 149.3898625 25.330817500000023 150.312085 25.645053000000022 151.1152635 26.264024500000023 C 153.38579 28.014511500000022 154.7217 32.07671550000002 154.890915 37.72598000000002 C 152.8135015 37.329511500000024 150.682874 37.05134550000002 148.5520985 36.89860650000002 C 143.424358 36.53063750000002 139.6244375 38.29849150000002 139.465316 38.37389600000002 L 137.802999 39.161489000000024 L 137.926719 38.54756450000002 Z M 62.991768 191.8563965 C 51.2319045 188.1088735 41.7065725 181.7570685 34.6804305 172.97732249999999 C 28.2949315 164.99808299999998 24.0992845 155.22026449999998 22.209863499999997 143.9157975 C 19.626065999999998 128.4570975 21.603063499999998 110.902504 27.776449999999997 94.4862535 C 33.9054545 78.1877115 43.58070549999999 64.5240285 55.027074999999996 56.006418000000004 L 55.067746 55.973911 C 58.1614155 53.367403 59.5483865 50.3332555 58.7777155 47.8576665 C 58.2443905 46.144882 56.7579685 45.0092105 54.801455 44.819808 C 54.590975 44.799324 54.3813855 44.789379000000004 54.171648 44.789379000000004 C 49.904901499999994 44.789379000000004 45.823104 48.9299565 43.2502905 53.09977550000001 C 39.0531595 44.53006400000001 40.5572455 36.5564655 42.588273 31.336473000000005 C 45.26217 24.463812000000004 50.5139275 18.245301500000004 56.9970965 14.275572000000004 C 67.2150235 8.019210500000003 80.51786249999999 6.656137500000004 90.09945099999999 10.883697500000004 C 97.17324049999999 14.004827500000005 101.70939549999999 19.792878500000004 103.21778599999999 27.621902000000002 C 107.751566 51.264681 98.9921555 70.172551 92.5943365 83.9827385 C 90.3223995 88.887011 88.360394 93.1225865 87.17737149999999 96.9893025 C 84.1310525 106.945985 84.5863005 116.7667015 88.42629849999999 123.9332625 C 91.01425199999998 128.7636145 95.026879 132.398773 100.35834599999998 134.7465595 C 99.54522249999998 135.1716755 99.02659249999998 135.723258 98.71740399999999 136.150749 C 97.28189499999999 138.13709799999998 97.51731199999999 141.3607965 99.25340049999998 143.489791 C 100.79978999999999 145.3860405 103.07098449999998 145.9156545 105.31412549999999 144.912683 C 106.30997199999999 144.527941 107.25060049999999 144.01302199999998 108.12473099999998 143.37519949999998 C 107.25683499999998 144.90407399999998 106.34203399999998 146.4656035 105.39487399999999 148.0342585 C 101.23099249999999 154.3642435 97.8132905 161.7639945 96.01753099999999 168.337709 C 93.52205199999999 177.4716195 95.09011299999999 180.90802399999998 96.24671349999998 182.1434435 C 96.42928799999999 182.33878299999998 96.68073549999998 182.64307349999999 96.97196399999999 182.9953085 C 98.11283099999999 184.375303 100.19328699999998 186.8914145 103.41950899999999 189.17359349999998 C 97.86301599999999 191.54082499999998 80.78489649999999 197.60763599999999 62.99176899999999 191.856397 Z M 134.041598 175.445935 C 133.3354215 175.98579099999998 132.65247449999998 176.540787 132.01064449999998 177.09652549999998 C 130.420244 178.473403 127.25881399999999 182.4551555 122.36463549999999 189.24543549999999 C 121.7901945 189.895133 121.3682695 190.51573699999997 121.11838049999999 190.91591599999998 C 120.98983649999998 191.039191 120.89602599999999 191.19823799999998 120.84644849999998 191.37962499999998 L 120.68710399999998 191.67916549999998 L 120.77215699999998 191.708036 C 120.08735499999997 195.057755 118.92682049999998 199.5437395 117.20861849999997 202.450604 C 115.34524749999997 205.602905 112.60477749999997 207.778063 109.68982249999998 208.4185575 C 108.33728849999997 208.71542649999998 106.79060199999998 208.7222545 105.09221549999998 208.438596 C 103.33950199999998 208.145735 100.97642649999997 207.4225625 99.67287549999998 205.6412015 C 99.06073199999997 204.8046255 98.78197249999998 203.6380795 98.94495299999997 202.597109 C 99.03238099999997 202.039144 99.28501599999997 201.266246 99.99230599999997 200.7523665 C 100.85545199999997 200.12523099999999 102.06593449999997 200.047303 103.34781399999997 199.964922 C 103.74680549999997 199.9393915 104.19908549999997 199.9104465 104.63533399999997 199.861018 C 108.59496999999998 199.413414 112.31547799999997 196.904279 114.25410549999997 193.4220825 C 115.74757799999996 193.537119 117.16891149999996 193.53415049999998 117.42882049999997 193.36924 C 117.51654499999997 193.31357699999998 117.57265349999997 193.2292665 117.58668049999997 193.131745 C 117.63655449999997 192.78477949999998 117.64464399999997 192.708336 114.14047899999997 191.7036575 C 114.10589399999996 191.680576 114.07257049999997 191.6558615 114.03486799999997 191.63686199999998 C 113.88012499999998 191.55878549999997 113.71187499999998 191.5270205 113.54325349999998 191.533032 C 112.81733499999997 191.3261885 112.13453699999998 191.1312945 111.64084399999997 190.978407 C 104.33638749999997 188.71597 100.27225349999998 183.8004165 98.53690699999997 181.70155400000002 C 98.22563999999997 181.32482750000003 97.95697399999997 180.99945950000003 97.72897849999997 180.755433 C 96.28500849999998 179.21334800000002 96.36338199999997 174.67749 97.93322399999997 168.918384 C 99.68890599999996 162.478261 102.94763449999996 155.447666 107.11567249999996 149.1120405 C 113.89875349999996 137.87526 118.50919999999996 127.97424050000001 120.44842099999995 120.47949100000001 C 120.75723899999996 119.28622700000001 121.00089399999996 118.13022000000001 121.17396849999996 117.03833650000001 L 121.20135449999997 117.04204750000001 L 121.24202549999997 116.74072550000001 C 121.67500849999996 113.53409750000002 121.61541199999996 110.83407550000001 121.53295699999997 109.08210450000001 C 121.33761749999996 104.93098800000001 119.54111599999997 103.71026400000001 119.46474649999996 103.66039 L 118.84889199999996 103.25783600000001 L 119.00103749999997 103.97774300000002 C 119.00370949999997 103.99050850000002 119.25307899999997 105.18540500000002 119.22591549999997 106.22578200000002 C 117.35697799999997 106.87948700000003 114.10901099999997 108.31514450000003 112.60789399999997 109.52206450000003 C 108.66250799999997 112.69381050000003 105.95936899999997 119.05956800000003 109.34248549999997 125.53130750000003 C 110.43793149999996 127.82625150000003 112.76092949999996 133.56606150000002 110.67572299999996 137.290577 C 109.11864599999996 140.1350255 107.06327499999996 142.0643755 104.55814799999996 143.0283085 L 104.51421149999996 143.046863 C 102.69796799999996 143.8631035 101.50678199999996 143.040629 100.82710099999996 142.2067245 C 99.66337549999996 140.779528 99.45527049999995 138.5966515 100.36324349999995 137.3405995 C 101.47635299999995 135.79999899999999 104.03833049999996 135.69654 107.57670999999995 137.048332 L 108.92152549999994 137.56250849999998 L 108.95418099999995 136.1228435 C 108.98164149999995 134.90865 108.69427249999995 133.6674415 108.10008949999995 132.43380349999998 C 106.86808399999995 129.87627899999998 104.65284899999995 127.95123299999999 102.68728099999996 126.24379249999998 L 102.62879799999996 126.19792649999998 C 100.14831099999996 124.39637849999998 98.31143499999996 121.76255849999998 97.31692449999996 118.58086699999998 L 97.20114549999995 118.22165599999998 L 97.06903899999995 118.29720899999998 C 96.48376199999994 117.72781449999998 94.43581299999995 115.61232749999998 93.56361249999995 113.09725549999997 L 95.80645599999995 113.09725549999997 C 95.80645599999995 113.09725549999997 95.28277949999996 109.90250199999997 95.28277949999996 109.90250199999997 L 96.63234499999996 108.61438849999998 L 96.67539099999996 108.25072399999998 C 96.70893699999996 107.96454249999998 96.83569999999996 106.57771999999997 96.33547599999996 105.37436249999998 C 96.72645199999995 105.28752849999998 97.25695649999996 105.28871599999998 97.69869749999995 105.34452699999997 L 97.82056199999995 106.20559499999997 L 98.16656249999996 105.41488499999997 L 98.23692049999995 105.42527549999997 L 98.29540349999995 105.12484449999997 C 100.17294999999994 100.96274399999997 103.53780949999995 97.20631499999996 108.02409049999994 94.26256399999997 C 108.55875099999994 93.92368849999997 109.05749099999994 93.60381199999996 109.52401999999994 93.30159949999997 L 109.55563649999993 93.28349049999997 C 118.94715499999994 87.90734499999996 122.51722449999994 77.35959699999997 118.87382849999993 65.76033949999997 C 118.08052099999993 63.113605999999976 116.77986449999993 60.05867749999997 115.40283849999993 56.824588999999975 C 111.41255099999994 47.45199599999997 106.89005149999993 36.82884299999998 112.27079849999993 31.292240499999973 C 114.82617099999993 28.663021999999973 117.34376649999993 27.786962499999973 119.75352499999993 28.688552999999974 C 122.80919549999993 29.831646499999973 126.24745549999993 34.46354149999998 127.73565899999993 40.680493499999976 C 128.10414749999993 42.21968399999997 129.39077649999993 45.813280499999976 129.39077649999993 45.813280499999976 C 129.39077649999993 45.813280499999976 130.12656599999994 42.10182699999998 129.72512499999993 40.417541999999976 C 133.54493549999992 40.30005599999998 137.57403899999994 39.24364849999998 137.61560049999994 39.232738499999975 L 137.69939149999993 39.21047349999998 L 137.38545299999993 39.359204999999974 L 139.65004249999993 38.947744999999976 C 139.67483099999993 38.94314349999998 142.19613749999994 38.50348099999998 148.46006899999992 38.93809699999998 C 151.7824019999999 39.17663099999998 154.9814599999999 39.70490899999998 157.96847949999992 40.508235999999975 C 169.7981069999999 43.688739999999974 177.7297729999999 50.78791149999998 181.5471344999999 61.609817999999976 L 181.5137369999999 61.62495849999998 L 181.69482699999992 62.04012949999998 C 181.89024099999992 62.615460999999975 182.06197949999992 63.15739499999998 182.21434749999992 63.676024999999974 C 182.64874099999992 65.68092849999998 182.3451924999999 67.64842649999997 181.31201499999992 69.52374649999997 C 179.2947174999999 73.18517749999997 173.4098874999999 78.30586749999998 156.83110149999993 81.90688599999997 C 156.66388999999992 81.94310399999998 155.97463499999992 82.11914699999997 154.73936399999994 82.44110149999997 C 150.70291349999994 83.26951399999997 147.40974799999995 83.32280199999997 144.95108049999993 82.60007449999998 C 141.90015999999994 81.70308549999997 140.55111399999993 80.06407299999998 140.53827449999994 80.04819049999998 L 139.95039999999995 79.31269799999997 L 139.99723099999994 80.25317849999998 C 140.00316849999993 80.37162899999997 140.18418399999993 83.16724249999997 143.87752849999995 84.41809899999997 C 147.08727399999995 85.50538099999997 151.57815649999995 85.36689149999997 157.12589199999996 83.97754549999998 C 168.97362849999996 87.78859849999998 178.59648199999998 95.89074149999998 181.08164499999998 104.14502999999998 C 181.13849549999998 104.36886899999998 181.2590985 104.78107149999998 181.51091749999998 105.47262699999997 C 181.77164249999998 106.18837749999997 182.245816 106.77083399999998 182.64376899999996 107.16715399999997 L 181.92801849999995 109.15825299999997 L 182.36463849999996 109.61127499999998 C 182.36968549999995 109.61661849999997 182.84512049999995 110.11238949999998 183.76378099999997 110.96113749999998 C 183.26622899999995 111.45186149999998 182.39974299999997 112.18497899999998 181.56368649999996 112.81686449999998 L 180.48493949999997 113.65774549999998 L 181.59678749999998 114.45543199999997 C 181.60190849999998 114.45929149999998 182.07667599999996 114.82458849999998 182.8109065 116.00004049999997 C 180.41792149999998 116.73657199999997 178.84095449999998 118.86363699999997 178.662388 119.11345199999997 C 177.79115249999998 120.30463799999997 176.786771 121.31710899999997 175.66690749999998 122.13067799999996 L 175.6075335 122.17832549999996 C 173.65280099999998 123.87700849999996 171.4373435 125.80235099999996 170.205783 128.35913349999996 C 169.611303 129.59351399999994 169.3240085 130.83457399999995 169.351914 132.04787649999994 L 169.38412449999998 133.48739349999994 L 170.72916299999997 132.97336499999994 C 174.26746799999998 131.62172149999995 176.82951999999997 131.72532849999993 177.94277749999998 133.26563249999995 C 178.85060249999998 134.52168449999996 178.64249699999996 136.70456049999996 177.47877149999997 138.13175749999996 C 176.79909049999998 138.96610699999997 175.60768149999996 139.78887899999995 173.78282949999996 138.96788849999996 L 173.73956099999995 138.95022499999996 C 171.24289449999995 137.98955749999996 169.18626149999994 136.05812949999995 167.62532549999995 133.20714999999996 C 167.45744599999995 132.90716399999997 167.31220299999995 132.57808499999996 167.19308449999994 132.22792849999996 C 167.32556199999993 131.36433699999995 167.51941749999995 130.55700249999995 167.74295949999993 129.62602199999995 C 167.9047529999999 128.95183299999994 168.08821799999993 128.18784099999996 168.2684174999999 127.31014849999995 L 169.01400349999992 123.68063049999995 L 167.45677849999993 125.39489949999995 C 167.91633149999993 123.79299549999995 168.51875249999992 122.38836099999995 168.96828599999992 121.44624749999996 L 168.99530099999993 121.38301449999996 C 171.70838499999994 114.31991249999996 169.20080849999994 107.91452299999996 166.43035449999994 106.18719199999995 C 165.35160749999994 105.51493249999996 164.17073749999994 105.45644949999995 163.13845049999995 106.01085199999996 C 162.01138799999995 103.33368949999996 160.60957349999995 101.08728299999996 158.96870549999994 99.32952299999995 C 154.25947599999995 94.28512849999996 148.30369399999995 93.70178149999995 144.23347449999994 93.70178149999995 L 144.20059649999993 93.70178149999995 C 141.21669399999993 93.70415649999995 136.85405899999992 94.16816249999995 133.01569399999994 96.36513999999995 C 128.56377549999993 98.91346149999995 125.81684849999994 103.17174749999995 124.85135699999994 109.02169549999995 C 123.97796899999993 114.31590499999994 126.44242549999994 122.46703149999995 129.29607649999994 131.90538099999995 C 133.46411449999994 145.69241299999996 138.64892749999993 162.84415549999994 134.04159849999994 175.44593899999995 Z M 113.53701899999999 132.991917 C 113.38442849999998 129.9108645 112.20340999999999 126.811109 111.16333049999999 124.633428 L 111.15843199999999 124.6236315 C 108.37172449999998 119.2914225 110.51392999999999 113.994096 113.87314849999999 111.109719 C 114.89563899999999 110.23158099999999 117.79641799999999 108.9314445 119.42978999999998 108.29703549999999 C 119.59403249999998 110.1634495 119.67760099999998 112.937243 119.26584399999999 116.17949549999999 L 119.25641849999998 116.23560349999998 C 118.61072899999998 120.61263699999998 116.63840699999999 126.38599249999999 113.53701849999999 132.99191699999997 Z M 167.7388775 111.987114 C 168.0279535 113.11269200000001 168.184255 114.40748500000001 168.1262915 115.811526 L 167.457075 116.4144665 C 167.6171615 115.5769995 167.7785095 114.706877 167.762256 113.5899085 L 167.7388775 111.987114 Z M 166.2438465 112.7229035 C 165.7979495 112.977617 165.4890575 113.0499045 165.37320449999999 113.0499045 C 165.33869349999998 112.9678205 165.29846799999999 112.80825349999999 165.279394 112.7327 L 164.0408575 107.825459 C 164.44912649999998 107.57831549999999 164.86748849999998 107.6056275 165.35606049999998 107.91036349999999 C 166.24703799999997 108.46580499999999 167.1848465 109.90472799999999 167.712234 111.88499149999998 L 166.2438465 112.72290349999999 Z M 154.4102855 168.8190815 C 154.3405215 168.7983005 154.27402249999997 168.780637 154.208192 168.76534800000002 C 150.7605065 167.964693 144.17833149999998 168.7607465 136.75713149999999 173.53632650000003 C 140.10937399999997 160.65771300000003 135.19998049999998 144.41765450000003 131.238712 131.31475650000004 C 128.4590555 122.11998800000005 126.0585 114.17904450000005 126.85499899999999 109.35225500000004 C 128.71117099999998 98.10508400000005 137.313167 95.73770400000004 144.20223 95.73236000000004 L 144.23280749999998 95.73236000000004 C 147.92466799999997 95.73236000000004 153.31506299999998 96.24891150000005 157.4844365 100.71545100000004 C 159.54151449999998 102.91881100000005 161.18067549999998 105.96052900000005 162.35627599999998 109.75614450000005 L 162.62353199999998 110.61899350000004 L 162.6401565 110.57327550000005 L 163.3106345 113.23039950000005 C 163.39494499999998 113.56408000000005 163.522302 114.06846000000004 163.915653 114.48066250000005 C 164.1772685 114.75452400000005 164.7249175 115.15618750000004 165.6325195 115.06267400000004 C 165.582423 115.40719000000004 165.5183735 115.74191000000005 165.451504 116.09117600000005 C 165.2879295 116.94645500000004 165.118714 117.83082700000004 165.1352645 118.97317800000005 L 165.167846 121.21052950000005 L 166.3981445 120.10187300000005 C 166.256093 121.33298800000006 165.9798565 122.57033700000005 165.711116 123.77384300000006 L 163.76870350000002 132.47373150000004 L 165.42085250000002 130.65526150000005 C 165.12955000000002 132.01996750000006 164.94816300000002 133.33242400000006 164.98334200000002 135.20061950000004 C 165.00664600000002 135.84141100000005 165.19953650000002 136.30170600000005 165.57284900000002 136.60762900000003 C 165.84322250000002 136.82953850000004 166.13356000000002 136.90939600000004 166.39480450000002 136.92765350000002 C 165.97302800000003 138.32071050000002 165.51213950000002 139.45786600000002 165.06520350000002 140.56073350000003 C 164.46782950000002 142.0348355 163.90140350000001 143.43249350000002 163.44355750000003 145.32057900000004 L 163.40466750000002 145.29920450000003 L 163.33126650000003 145.71897700000002 C 163.30751700000002 145.85509150000001 163.28258000000002 145.98853400000002 163.25764300000003 146.12182800000002 L 163.21912450000002 146.32963600000002 C 163.16850850000003 146.5809355 163.1204155 146.8430705 163.07492050000002 147.105948 C 161.78725200000002 153.74482450000002 159.88937 158.690659 158.52392200000003 161.67077600000002 C 156.79421600000003 165.4457595 155.15141850000003 167.83020950000002 154.41028550000001 168.81907950000002 Z M 156.15238599999998 169.8895905 C 157.88186949999997 167.5670375 162.89011999999997 159.9015885 165.28369899999998 146.38159 C 165.72937349999998 144.32859399999998 166.32088449999998 142.86889 166.947129 141.323391 C 167.2632945 140.54336849999999 167.613748 139.6785895 167.954479 138.69402399999998 C 167.9864665 138.756218 168.018677 138.81885749999998 168.05118399999998 138.88194199999998 C 169.8134715 142.3015735 172.43445149999997 145.90184999999997 174.97357049999997 149.38961299999997 C 179.45747649999996 155.54785899999996 184.09404749999996 161.91584299999997 184.09404749999996 167.35017499999998 C 184.09404749999996 169.8953795 180.58127349999995 176.01681399999998 176.21908349999995 179.80144599999997 C 174.16712649999997 181.58176799999998 170.56009649999996 183.42829199999997 167.02973299999996 184.50562899999997 C 162.87379249999998 185.77444599999998 162.93220149999996 186.21410899999998 162.95424399999996 186.37961299999998 C 162.96218499999995 186.43943199999998 162.99469249999996 186.55224199999998 163.12323649999996 186.63462349999998 C 163.51725549999995 186.88725899999997 165.45476999999997 186.85022449999997 166.85049849999996 186.61844399999998 C 168.93904449999997 189.36017549999997 172.12889999999996 191.1994265 175.51068049999995 191.58164499999998 C 175.94076899999996 191.630183 176.37605299999996 191.65838549999998 176.79998149999994 191.68569749999997 C 178.08097049999995 191.76822699999997 179.29085899999995 191.84630349999998 180.15370799999994 192.47329049999996 C 180.86129499999993 192.98717049999996 181.11385599999994 193.76021649999996 181.20106099999992 194.31832999999997 C 181.36426449999993 195.35930049999996 181.08535649999993 196.52554949999998 180.47321299999993 197.36197749999997 C 179.17025599999994 199.14259649999997 176.80695749999992 199.86591749999997 175.05394749999994 200.15907499999997 C 173.35600649999995 200.44258449999998 171.80902299999994 200.43590499999996 170.45626649999994 200.13948149999996 C 167.54101499999993 199.49898699999997 164.80047099999993 197.32353249999997 162.93739649999995 194.17108299999995 C 161.17681599999995 191.19230149999996 160.31760349999996 187.71017899999995 159.65142999999995 184.39074049999996 C 159.64831299999994 184.37522899999996 159.64155899999994 184.36157299999996 159.63769999999994 184.34635849999995 C 159.56815849999992 184.03123249999996 159.50477699999993 183.77963599999995 159.44651649999994 183.54926599999996 C 159.36354149999994 183.22122599999997 159.29192199999994 182.93786449999996 159.22757599999994 182.56232549999996 C 159.04670849999994 181.50562099999996 158.91697699999995 180.30166949999995 158.80245999999994 179.23947299999995 C 158.42781149999993 175.75987399999994 158.00455099999994 171.83140899999995 156.15238649999995 169.88959049999994 Z &#10;" stroke-width="0px" fill="#0c0c0c" /><path d="M 152.6873765 45.7522435 L 152.687181 45.7519395 L 152.6871595 45.7519395 C 152.268956 45.1175795 151.5049845 44.752340499999995 150.70676 44.8834715 C 149.6241325 45.061337 148.8906595 46.083142 149.068503 47.165791 C 149.1321255 47.5531275 149.3051075 47.894489 149.54894 48.166692499999996 L 149.54826699999998 48.167213499999995 C 152.32165999999998 52.621821 150.9377855 58.54498149999999 150.9377855 58.54498149999999 L 154.858362 57.90094049999999 C 155.883401 51.23503799999999 153.113742 46.44464749999999 152.731463 45.82266049999999 C 152.71715799999998 45.79884799999999 152.70259299999998 45.77536149999999 152.6873765 45.75224349999999 Z &#10;" stroke-width="0px" /><path d="M 175.535023 41.849532 C 175.5206315 41.825567500000005 175.5059575 41.80190700000001 175.4906325 41.7786375 L 175.4905675 41.778529 L 175.4905675 41.778529 C 175.0723425 41.144169 174.308371 40.778929999999995 173.510146 40.910061 C 172.4275185 41.087905 171.6940455 42.1097315 171.87188899999998 43.192358999999996 C 171.9355115 43.5796955 172.10849349999998 43.92107849999999 172.35232599999998 44.193281999999996 L 172.35165299999997 44.193802999999996 C 175.12506749999997 48.6484105 173.74117149999998 54.57157099999999 173.74117149999998 54.57157099999999 L 177.661748 53.92752999999999 C 178.6866785 47.26251749999999 175.917844 42.47253949999999 175.535023 41.84953249999999 Z &#10;" stroke-width="0px" /><circle cx="150.980644" cy="46.9220505" r="1.358729" stroke-width="0px" fill="#fff" /><path d="M 175.2019695 43.027036 C 175.2019695 43.7774415 174.59364599999998 44.385765 173.84324049999998 44.385765 C 173.09283499999998 44.385765 172.48451149999997 43.7774415 172.48451149999997 43.027036 C 172.48451149999997 42.2766305 173.09283499999998 41.668307000000006 173.84324049999998 41.668307000000006 C 174.59364599999998 41.668307000000006 175.2019695 42.2766305 175.2019695 43.027036 Z &#10;" stroke-width="0px" fill="#fff" /><path d="M 158.7784385 105.872025 C 151.830164 97.364622 138.5135905 96.64723099999999 133.446293 107.26634299999999 C 132.0007535 110.23156499999999 131.432816 113.6473345 131.9341135 116.9060035 L 129.7014855 115.703254 C 130.6378905 115.3380665 132.5702015 114.5489165 133.49174549999998 114.1871615 C 134.3186835 116.785263 135.08498749999998 119.458968 135.58974499999997 122.1356155 C 135.58976799999996 122.135608 133.43688349999996 121.4454815 133.43688349999996 121.4454815 C 134.34925299999998 120.716232 135.44001549999996 120.257052 136.56203849999997 120.098595 L 137.94201099999998 119.903729 L 137.95361699999998 121.1812615 C 137.970464 123.01419 137.83699699999997 124.844638 137.52008249999997 126.6386305 L 136.38158649999997 125.78883 C 137.74469449999998 125.3362405 139.15257149999996 125.262838 140.54396849999998 125.382886 C 140.47647499999997 125.776935 140.05672549999997 128.0645085 139.98034149999998 128.5023155 C 139.821431 129.35389650000002 139.65155049999998 130.2041125 139.46987349999998 131.05231750000002 C 139.38914549999998 129.56647700000002 139.35079999999996 127.37223300000001 139.32724 125.85863250000001 C 139.3272255 125.85860550000001 139.895725 126.46248400000002 139.895725 126.46248400000002 C 138.437279 126.58282700000002 137.086423 127.24514850000001 135.842307 127.92955750000002 C 135.842289 127.92950050000002 135.869619 126.47460450000001 135.869619 126.47460450000001 C 135.902003 124.74940450000001 135.814585 123.03197300000001 135.599128 121.33653650000001 L 136.99070650000002 122.4191095 C 135.66185850000002 122.66722750000001 134.56296300000002 124.09337500000001 133.65160050000003 124.9632965 C 132.89319500000002 122.2410375 132.03450700000002 119.40699649999999 131.01929800000002 116.7792305 C 131.01931100000002 116.779229 133.11397950000003 117.7075565 133.11397950000003 117.7075565 C 132.13545150000002 118.15687849999999 130.12478650000003 119.0700475 129.15134550000002 119.51629 C 129.15133150000003 119.5162905 128.74400350000002 117.480307 128.74400350000002 117.480307 C 127.12767350000001 109.579661 131.33941950000002 100.513644 139.080148 97.6416445 C 146.467079 94.808458 155.583729 98.85403099999999 158.77843900000002 105.872026 L 158.77843900000002 105.872026 Z &#10;" stroke-width="0px" fill="#eeddcf" /><path d="M 173.823426 61.129631 C 175.23570500000002 60.4641255 177.0728775 59.750156000000004 179.28544050000002 59.2491155 C 181.29939850000002 58.793051000000006 183.10079800000003 58.6319255 184.56547450000002 58.599269500000005 C 184.9502165 58.601273500000005 185.53289550000002 58.660795500000006 185.98903450000003 59.049842000000005 C 187.13094050000004 60.02379450000001 186.64466900000002 62.33655050000001 186.42179500000003 63.5667005 C 186.13516800000002 65.1487145 184.20382250000003 67.6975085 182.53615350000004 68.44959850000001 C 180.76904100000004 69.246536 176.90047050000004 66.68523300000001 176.90047050000004 66.68523300000001 C 176.90047050000004 66.68523300000001 173.55757950000003 64.4967165 172.70467550000004 62.69153150000001 C 172.40988500000003 62.06773600000001 173.03768800000003 61.31472850000001 173.82342550000004 61.12963050000001 Z &#10;" stroke-width="0px" /><path d="M 175.2780075 63.2616085 C 175.1929545 63.2616085 175.108421 63.2261325 175.0483055 63.156814000000004 C 174.7493585 62.812446 174.851333 62.296043000000004 175.12259699999998 61.995908500000006 C 175.3681815 61.72412500000001 175.7135885 61.60166650000001 175.96585299999998 61.512161000000006 C 178.40462999999997 60.646046500000004 180.93217099999998 59.971115000000005 183.47811749999997 59.50607000000001 C 179.47823399999996 60.92255550000001 178.57748149999998 61.22983850000001 176.16920799999997 62.08511750000001 C 175.92132249999997 62.17299050000001 175.70557299999996 62.25759850000001 175.57368899999997 62.40350950000001 C 175.47557399999997 62.512163500000014 175.44336349999998 62.68449600000001 175.50741299999999 62.75841600000001 C 175.61747699999998 62.88517900000001 175.6038955 63.07710450000001 175.47713249999998 63.18724300000001 C 175.419614 63.23711700000001 175.34858849999998 63.26160850000001 175.27800799999997 63.26160850000001 Z &#10;" stroke-width="0px" fill="#fff" /></g></g></svg>