<?xml version='1.0' encoding='utf-8'?>
<svg viewBox="0 0 432 432" width="432px" height="432px" xmlns="http://www.w3.org/2000/svg" xmlns:xlink="http://www.w3.org/1999/xlink" version="1.1"><g isolation="isolate"><g id="Layer_1"><path d="m63.170779,396.186569c5.92909,3.495606,13.153543,5.373133,20.294883,5.248838,10.076871-.171093,54.376764-17.801124,83.159266-33.094635l.125792-.067014.13927.031822c11.615207,2.652872,21.832096,2.759197,29.990633.328333l.813158-.2426-.355663.770479c-1.202141,2.603454-3.728472,4.948209-6.403058,7.430363-4.038835,3.747566-8.214694,7.622795-8.758297,13.085406-.440648,2.83894.342185,5.816401,2.204737,8.38354,2.225702,3.067313,5.743023,5.24135,9.408973,5.815653.861828.135526,1.74537.204038,2.62704.204038,6.678604,0,12.340385-3.910422,15.114183-6.235709,6.539708-5.732914,14.482974-16.868163,15.187936-37.346119.000374-5.023834-.832626-9.629858-2.475789-13.689659l-.404333-.998852.944192.519268c11.270027,6.196399,23.157409,10.508159,35.326702,12.815102,7.71115,1.353392,15.573175,2.039634,23.368187,2.039634,26.945408,0,53.185106-8.272349,73.885445-23.292936,24.585303-17.840434,40.439639-43.897433,44.643577-73.378157,8.997527-56.240813-14.578816-101.589352-29.431306-123.612757-13.433956-19.533016-26.135994-29.27107-34.541622-35.714936-8.647854-6.629934-11.56766-9.182846-10.179451-14.299527.344057-1.254929,1.892502-2.69368,4.575325-3.079668,2.588853-.377003,11.806142-.335821,21.82386,15.873055l1.209629,1.95727,1.341037-1.870039c9.748163-13.59494,10.829004-30.807909,2.965481-47.225691-5.358158-11.187662-14.336591-21.011451-25.965276-28.409242-12.465803-7.930912-27.405898-12.585606-43.189851-13.460911-21.127509-.366146-36.355879,4.368666-46.602344,14.44928-10.049915,9.88631-15.145631,25.03531-15.145631,45.026195,0,35.583154,13.401759,62.193115,24.171611,83.577825,6.689086,13.281582,12.465803,24.751903,13.864121,35.579784,2.525582,16.749858,1.287126,31.945282-3.6813,45.163968-3.117855,8.29556-7.55316,15.407698-13.182371,21.138741l-1.31221,1.335796.681376-1.744247c3.745319-9.583809,6.292616-21.083332,7.585357-34.253348,1.801901-5.923475,2.335022-9.230018.970399-14.373655l-.393101-1.482179-4.299405,1.139994-.468726-3.976313-3.769654-2.189013-.044177-.143014c-.404707-1.304347-.808291-3.512079-.260944-4.247366l.825513-1.107048-1.015324-.93633c-1.446613-1.333549-4.028727-1.788798-6.139493-1.082339l-.228373.076374-.168098-.17259c-9.812182-10.09222-14.899287-13.00716-19.387755-15.579165-4.21442-2.414765-7.853789-4.500074-14.771249-11.998949-11.948033-13.810958,4.797708-49.953813,10.300751-61.830339,7.938774-17.134723,11.85556-40.271167-3.232041-49.084498-5.592521-3.267982-11.157712-3.837417-16.093941-1.646158-6.429639,2.853167-11.702064,10.26219-15.248586,21.43001-.447012,1.353392-.788823,2.490765-1.075974,3.579094l-.116807.443268-.415564-.193556c-6.364871-2.963984-11.27115-3.749812-13.117977-4.045574l-.59377-.097714-.054285-.255703c-3.957968-18.684291-11.818871-28.076417-24.033089-28.713241-3.268356-.176334-6.346527.971522-8.888207,3.315529-4.989017,4.601157-7.81111,13.535787-8.387658,26.556051l-.012729.292018-.284905.064768c-6.655392,1.516997-12.852166,3.650601-18.41848,6.342034-18.337239,8.865744-30.372503,23.764657-35.770345,44.275559-1.210752,4.975539-.331703,9.890803,2.612439,14.609516,4.781235,7.662854,14.910893,14.50993,29.293533,19.800324l1.532346.563445-1.838591.199171c-6.810386.58179-12.760816,3.112988-17.542426,5.146632-3.019767,1.284505-5.627713,2.3938-7.564766,2.620301-5.452502.635701-7.884114-1.25418-7.984074-1.334298l-2.319672-1.848325-.195802,2.934782c-.047921.821394,1.202857,7.170263,3.287791,12.360323l-1.299447,1.78084-.790695-.26993c-.269555-.091724-.56644-.21527-.927719-.366146-.821394-.342185-1.843458-.768232-3.323016-1.117531l-2.318697-1.254007,2.670035,4.041135c1.107422,1.829606,1.164259,2.97472,1.804078,5.051418.229871.746518-.441434.119225-.178992.884087l-1.390348-.089389-1.205443.301283c-.652548-.132157-.85106.226028-1.411885.342087l-1.80287.36601,2.315628,3.906267c1.779064,1.516622-.249178,3.322338,1.292528,5.691428v1.948404s-.319394,1.544328-.319394,1.544328c-1.556847.981382.357948,1.582961-.257911,2.249362l.144326,1.891928.509964,1.647548c.666775,1.438376-.147766.938336.292133,1.845464,1.348899,2.783906-.403913,2.178946,1.362797,7.779703.920231,2.918309,2.388423,5.644538,3.896808,8.912145,1.639794,3.552887,4.116356,7.011045,4.979307,10.054772.15462.544352.503366,1.773394.647503,2.302022.886537,3.256751.975016,4.005164,3.649227,7.132379,4.496704,5.246217,7.579938,6.272687,10.424494,6.273062,1.366869,0,2.223034-.718553,2.899917-.92933,3.449183-1.074102,4.862026-2.45897,5.173512-5.41584.226876-2.157564,1.615366-5.064111-1.329524-8.443658-2.439849-2.800379-6.291492-4.450281-11.447858-4.904032l-.353791-.031074-1.643622-.748037c-.875762-21.851698,3.331853-30.205508,8.216791-34.949305,1.955772-1.900364,5.329508-3.458184,8.307719-3.398283,5.742274.147507,8.985879,3.145969,10.982085,5.691393.202541.257949.591146,1.142839.775717,1.36934l.490806,1.110122c.579918.752883.402569,5.867369-.218531,15.206333l-.020965.31186-.309614.04268c-1.13026.153497-2.358982-.02134-2.736734-.102581l-1.856561-.398343-.004867,1.89662c0,2.94489,1.060625,4.875579,1.913467,6.428516.419308.761868.73042,1.346278.922478,1.927694l.144886.439899-.458993.060276c-1.080467.143388-2.158313.07263-3.205086-.207782l-2.145959-.575425.223506,2.210727c.557829,5.515398,1.737133,8.382042,2.928043,10.65866l.06065.115684-.022463.128787c-.361653,2.053112-.729296,4.077396-1.100309,6.048144l-.086857.462736-.676509-.278166.261693,2.411021-.246718,1.211501c-.219762,1.055009-.66977,2.402036-1.239954,4.106972-2.994683,8.963832-8.569234,25.648548-.58778,56.434743l.038187.146758-.07263.132906c-9.182097,16.846449-12.221332,33.667815-14.440295,45.950545-1.19952,6.638545-2.235436,12.371833-3.850146,16.144482l-.29389.686991-.386362-.639445c-2.725128-4.50831-9.853739-15.068508-17.20623-15.760366-7.169419-1.215619-14.442167,2.339514-16.916084,8.270102-1.557055,3.732216-1.078595,7.649377-.40321,10.278288,1.667498,6.491787,6.04178,11.98285,12.649625,15.879046Zm135.146349-176.460919l.014975-.288274.280787-.065517c2.52371-.590775,5.320345-.615859,8.299678-.07862,6.972119.999975,13.421227,3.989042,17.693676,8.200467,5.97177,5.88716,12.992559,26.250555,6.901361,38.634743l-.145635.296136-.314855-.09996c-3.704886-1.181176-10.780709-2.249288-16.545446,3.853516l-.174836.185319-.238481-.089477c-1.038536-.390481-4.363424-1.189412-4.397119-1.197274l-.231743-.055783-.052788-.232117c-1.671616-7.361851-3.645734-14.105597-5.233863-19.529646-1.796286-6.136498-3.3481-11.436627-3.962087-15.51552l-.014975-.087605c-1.712424-8.392151-1.96663-12.20748-1.87865-13.930386Z" stroke-width="0px" fill="#c56439" /><path d="m203.553237,330.735967c9.239351,8.342926,29.309066,23.560464,57.571077,28.975497,68.172012,12.089547,130.712644-30.068209,139.747633-94.104569,8.140733-51.427589-10.369583-95.464536-29.114357-123.556742-25.772647-37.873738-48.36813-38.471629-44.81948-51.691656,1.546795-5.698262,15.740034-9.499752,29.11341,12.489272,5.152153-23.355696-24.055981-50.552471-47.77807-35.293758-10.687073,7.491754-21.377756,24.884663-.03667,61.924314,24.859192,43.145687,51.255154,151.739128-37.258318,170.859039-34.886903,6.29561-57.487333-7.980178-57.487333-7.980178,0,0,2.116338,21.071608-9.937892,38.37878Z" fill="#754123" mix-blend-mode="multiply" stroke-width="0px" opacity=".25" /><path d="m262.985257,244.60445c37.669148-67.175371-22.400384-110.875456-8.296434-168.799062,14.10395-57.923606,67.378029-44.274652,100.694985-21.351514,0,0-13.163445-37.876389-74.429934-37.876389-61.266489,0-52.823404,71.57744-45.246276,93.916113,14.57695,55.389382,48.637943,71.842573,27.277659,134.110852Z" stroke-width="0px" opacity=".66" fill="#d8b58e" /><path d="m190.695224,99.761992c.015412-1.75867.030824-3.51734.046237-5.27601.051654-5.894183.130451-11.937638,2.251514-17.437197,2.121063-5.499559,6.753698-10.427009,12.602347-11.160066,5.72824-.717964,11.688709,3.180249,13.326962,8.715982,0,0-21.057518-10.771045-28.22706,25.157292Z" opacity=".35" fill="#754123" mix-blend-mode="multiply" stroke-width="0px" /><path d="m218.922205,74.60473c-3.965631-7.878451-12.712021-10.470654-19.572222-4.541055-3.119332,2.629922-4.587482,6.388899-5.94561,10.192107-1.407416,3.983003-2.15636,8.09758-2.709032,12.314996-.944325-5.302882-.422023-10.967931,1.27194-16.142712,1.545325-5.556079,5.805415-10.573768,11.583591-11.927601,7.109788-1.842973,14.135222,2.998504,15.371334,10.104264h0Z" stroke-width="0px" /><path d="m147.881904,64.853278c-2.278379-.872468-4.730337-1.249536-6.969752-2.217641-2.819861-1.219033-5.222836-3.380001-6.733245-6.055131-2.53579,6.716897-4.049482,13.818603-4.472998,20.985721-.026659.451153-.01325.982275.352775,1.247371.217981.157873.505532.173236.774664.170493,1.725225-.01758,3.400045-.533184,5.074822-.94775,5.943007-1.4711,12.10426-1.690953,18.198939-1.548341,1.546914.036197,3.093353,1.318779,4.639045,1.389575,1.735847.079505,4.134,1.323888,2.82322-.390266-1.561935-2.0426-3.757077-5.482221-5.63304-7.24248-2.073641-1.945744-5.385028-4.369348-8.05443-5.391551Z" opacity=".35" fill="#754123" mix-blend-mode="multiply" stroke-width="0px" /><g opacity=".66"><path d="m136.920382,55.165246c5.84707-2.593916,11.187262.560526,16.022324,3.925458,2.412582,1.673413,4.52003,3.503578,6.495795,5.726532,2.095086,2.342168,3.783898,4.871752,5.497257,7.641272,1.113575-6.986697-2.997617-14.144055-8.728116-18.038094-2.940162-2.007881-6.264774-3.632407-9.93812-3.872607-3.577497-.272888-7.830462,1.238693-9.349141,4.617439h0Z" stroke-width="0px" fill="#d8b58e" /></g><g opacity=".66"><path d="m180.898113,83.02722c-18.601799-7.028502-41.675951-6.532844-60.366432-.000287,10.160995.996581,20.115645.664683,30.212093.657237,8.977807-.165863,21.229748.05175,30.154339-.656951h0Z" stroke-width="0px" fill="#d8b58e" /></g><path d="m111.244055,244.267758c-1.22423-2.191633-2.380322-4.261967-3.076298-8.549017l-.074128-.456746.462736.01198c2.281111.05728,3.846028-.591524,4.017495-.666026l.856961-.37251.061773-.932212c.140019-2.109644-.725553-3.684669-1.489667-5.07475-.478835-.871936-.931463-1.695577-1.224604-2.706783l-.140019-.483702.503544-.006364c1.725527-.021714,4.767008-.492687,5.750136-3.403134.717316-2.113762,1.270653-4.97217,1.912719-8.287698,2.24517-11.596488,5.319596-27.478528,18.516568-27.478528,5.978883,0,10.812906,1.91459,14.367665,5.690235,4.818299,5.118179,7.342383,14.01013,6.752731,23.772519-.655543,27.103023-14.730815,54.993746-27.63839,67.473776-1.786552,1.761468-3.711999,3.64798-5.45662,5.352168-1.790296,1.628188-3.555882,3.346977-5.257449,5.118927l-.519642.544352c-.341062.357161-.682124.713947-1.011955,1.072605l-.546224.59377-.11531-.798557c-1.247816-8.632879-3.743822-15.387482-5.56594-20.319592-.919483-2.486272-1.713173-4.633354-2.089427-6.315827l-.074876-.334698.324215-.111566c.60575-.208905,1.140368-.561573,1.588129-1.048644l.314107-.34256.071507-.459367c.388983-2.495632-.550716-4.73556-1.463834-6.912218-.456746-1.090575-.929591-2.21784-1.28151-3.445065l-.122049-.425298.438402-.060276c1.701941-.232866,3.098761-1.233964,3.83854-2.093545l.51178-.595268-.183073-.762991c-.795937-3.315903-1.894374-5.282907-2.957994-7.187389Z" stroke-width="0px" fill="#e7caae" /><path d="m93.290732,123.760809c2.972699.475695,5.979558.961004,8.75051,2.137884,3.916981,1.663622,7.163157,4.624087,11.037935,6.383767,11.460778,5.204763,27.25897-.257812,38.830935,4.694825,8.025369,3.434744,11.638686,11.64579,10.67102,20.321482-1.006647,9.025175-8.993706,14.645618-18.069676,14.339221-3.671774-.123956-7.320711-.364406-10.907109-1.161293-12.152388-2.700224-43.329645-7.245464-56.921131-26.594429-.837611-1.192431-2.463044-6.901152-2.201749-9.954346.419442-4.90113,1.361729-10.94952,2.469052-11.450879,4.519096-2.046096,11.340763.483749,16.340215,1.283767Z" stroke-width="0px" fill="#e7caae" /><path d="m162.73102,154.668781c-5.802002,3.996959-12.693441,6.212877-19.666861,7.218022-6.97342,1.005145-14.06221.846682-21.094793.420448-3.069751-.186053-6.150138-.424698-9.148423-1.109006-2.669221-.609205-5.244819-1.565105-7.811398-2.518282-4.533907-1.683806-9.085314-3.375483-13.337874-5.679231-6.469014-3.504472-12.153697-8.3942-16.795981-14.101972,1.921671,7.465408,7.227551,13.989071,14.144887,17.391364,3.090913,1.520266,6.439516,2.429946,9.662125,3.646391,4.702853,1.775195,9.141383,4.205824,13.874784,5.897881,5.157911,1.843808,10.587204,2.783425,15.984984,3.714896,5.855739,1.010497,11.818206,2.023983,17.710971,1.258408,4.34713-.56477,8.987854-2.173733,12.416229-5.053936,2.889958-2.427875,4.100639-6.740806,4.06135-11.084982Z" fill="#754123" mix-blend-mode="multiply" stroke-width="0px" opacity=".25" /><path d="m197.796502,143.015714c-2.93763,10.653286-1.937194,23.035262,5.317873,31.371098,5.605964,6.441071,13.975154,9.576277,21.639708,13.340426,5.516111,2.709024,10.818361,5.853368,15.841212,9.394167-2.982172-4.129629-6.645278-7.766335-10.796369-10.718559-7.919483-5.632276-17.958853-9.157142-22.95986-17.489649-.853011-1.421258-1.526741-2.941274-2.198155-4.456796-2.039024-4.602504-4.124191-9.599743-3.05289-14.518379.483865-2.221561,1.58658-4.252349,2.361429-6.389887.955089-2.634758,1.407641-5.419279,2.036288-8.15039.83132-3.611615,1.977129-7.141894,3.267645-10.613458.688789-1.852883,4.201997-7.854231,3.090124-9.387729-6.559239,7.211119-11.969117,18.270494-14.547007,27.619157Z" stroke-width="0px" opacity=".66" fill="#d8b58e" /><path d="m119.669354,167.393573c5.96447.086108,11.831974,1.113319,17.75208,1.731892.018158.001872.035753.001966.053724.003744.698972.247467,1.401687.464234,2.11058.631208,2.588104.609494,5.210838.545756,7.816725.458337,2.076136-.069635,4.176982-.158832,6.159523-.996325,1.600484-.675947,3.074426-1.827547,4.455522-3.161096.738094-.712543,3.39471-7.154724,3.867181-5.476462.425485,1.5111-1.543578,6.284532-2.117693,7.342536-.881857,1.62538-2.012866,2.957806-3.264238,3.918284-2.72962,2.095043-5.90981,2.598587-9.018867,2.696862-8.547036,0-12.255788-1.13915-20.374659-1.869713-7.367767-.655996-17.359561-4.078961-18.597402-6.869133,2.175722-1.213279,1.211501.649979,3.501784-.015578,2.430302.996418,5.029263,1.567538,7.655741,1.605444Z" fill="#754123" mix-blend-mode="multiply" stroke-width="0px" opacity=".25" /><path d="m192.497107,215.000614c4.128185-1.892748,8.689183-2.731273,13.229332-2.838329,2.899964-.068381,5.82157.157748,8.627889.891942,9.368668,2.451046,16.593406,10.506913,19.865329,19.621412,3.271924,9.114499,3.040055,19.153587,1.359878,28.690703.843439-8.889215.005499-18.130134-3.883961-26.167648-3.88946-8.037514-11.128119-14.721589-19.864304-16.567832-2.154091-.455232-4.358606-.617546-6.557245-.733004-3.22609-.169414-6.508885-.2348-9.633744.584802-1.445507.379136-5.616394,2.209915-8.416097,1.873075.855755-3.092614,4.006091-4.774286,5.272923-5.355121Z" fill="#754123" mix-blend-mode="multiply" stroke-width="0px" opacity=".25" /><path d="m232.531319,278.210853c-3.06136,1.89198-6.41092,3.856324-9.99439,3.52428-3.260327-.302102-6.012591-2.448589-8.558375-4.507711-1.077646,2.325837-.556958,5.231628,1.064779,7.216776s4.21112,3.062262,6.774271,3.095375,5.08249-.911102,7.177654-2.387967c1.077948-.759837,2.052065-1.65544,3.022742-2.54825,1.533359-1.410355,3.066718-2.820709,4.600077-4.231064.538642-.495433,3.208687-3.251,1.547507-3.543659-.629676-.110933-2.109571,1.203892-2.653023,1.539756-.993745.614154-1.98749,1.228307-2.981241,1.842464Z" fill="#754123" mix-blend-mode="multiply" stroke-width="0px" opacity=".25" /><path d="m96.98992,389.049297c-4.593676,1.789151-9.312906,3.436876-14.225847,3.844215-13.027342,1.080116-26.213197-7.802603-30.106505-20.281403-2.238304,8.191805,1.717928,17.3196,8.485565,22.449395,6.767637,5.129794,15.819639,6.602718,24.221182,5.365873,4.92827-.725522,9.685785-2.307118,14.386238-3.95635,18.214719-6.390934,36.033011-13.911491,53.318471-22.5041,12.643593-6.285135,25.120757-13.226329,35.654316-22.628856,10.533559-9.402528,19.086052-21.5085,22.182415-35.284418,2.508779-11.161714,1.352761-22.809459-.472644-34.103074-3.258512-20.160114-8.59774-39.917069-13.927669-59.631025-1.161319-4.295403-6.14063-3.197586-9.281258-1.963819-1.038933,1.513951.906193,13.442717,1.641298,17.57559.74927,4.212507,1.773694,8.357988,2.902934,12.477961,19.137339,65.644367-53.511723,116.485491-94.778496,138.640011Z" fill="#754123" mix-blend-mode="multiply" stroke-width="0px" opacity=".25" /><path d="m193.281687,379.121106c-.414665.035848,2.20779-4.292605,2.054046-4.67938-.076394-.192184-.028861-.409907.034787-.60668.553478-1.711109,2.220945-2.955925,2.513042-4.730442.125918-.764963.013534-1.653569.551061-2.212218.280202-.291212.68286-.422897,1.068344-.544221.929516-.292547,5.256776-2.167116,6.906431-2.37737.16268,8.010054-10.922339,14.959654-13.127711,15.150311Z" fill="#754123" mix-blend-mode="multiply" stroke-width="0px" opacity=".25" /><path d="m170.406,364.741274c3.121224-2.264919,6.648091-3.906865,9.875266-6.018193,9.031596-5.908499,15.238478-15.116429,22.084804-23.472826-.049606-.392914.008236-.79968.226501-1.217304,1.170506-2.238244,3.760295-1.178368,5.349734-.166787,3.000486,1.909536,5.95511,3.890767,8.86069,5.941539,1.937615,1.367618,3.887584,2.799723,5.276355,4.72255,3.05084,4.22406,2.835383,9.907275,2.375268,15.097523-.203102,2.290096-.428855,4.578132-.677257,6.863736-.930714,8.566613-2.331278,17.487017-7.419506,24.441353-3.303923,4.515423-8.110803,7.960488-13.51763,9.399426s-11.381031.808853-16.253615-1.941359c-2.315179-1.306781-4.52366-3.346789-4.78086-5.993016-.163979-1.686311.555583-3.433927,1.858995-4.516079,1.303599-1.082058,3.153795-1.467578,4.781048-.996231,2.972033.860892,4.6356,4.121573,7.449269,5.409074,1.630622.74605,3.48868.75672,5.281971.750823,2.479159-.008236,5.043302-.040433,7.301763-1.063058,2.458006-1.112851,4.274134-3.277903,5.764924-5.52691,6.118341-9.23086,8.022823-21.141081,5.088228-31.81949-.968339-3.523591-2.498439-7.001415-5.125479-9.541598-1.334111-1.290027-2.880496-2.289909-4.449719-3.259278-.190935.000094-.402086-.004773-.655543-.015069-1.439312-.058965-2.696675-.002808-4.036589.618573-1.858059.861641-3.351844,2.346159-4.681649,3.903777-2.574626,3.015836-4.691009,6.422339-6.254429,10.066575-.708331,1.6514-1.23284,3.764226-.013291,5.083923.758873.82102,1.954649,1.03498,3.061885,1.189038,3.007599.418466,5.975876-.384524,9.232264,1.288811-.570567.308896-6.844081,1.316983-10.108506,2.524272-6.396507,2.365534-13.431335,2.022974-20.240972,1.648779-1.862551-.102394-3.731842-.205442-5.564255-.554086-.394037-.074876-.81634-.178955-1.072231-.487633-.613425-.739966.2046-1.796473.982566-2.360854Z" fill="#754123" mix-blend-mode="multiply" stroke-width="0px" opacity=".25" /><path d="m157.346689,224.408307c-17.760367,59.966515-48.83486,57.801622-50.890593,86.005434v2.970655s10.831821-14.504787,10.831821-14.504787l18.834574-19.051064,14.504787-23.111306,7.480644-22.784438-.761233-9.524495Z" fill="#754123" mix-blend-mode="multiply" stroke-width="0px" opacity=".25" /><path d="m116.605029,203.127826c-.571469-2.496974-1.33204-5.023387-2.898425-7.050182-2.091276-2.705968-5.447867-4.234032-8.840225-4.667171-25.828708-4.022884-27.628993,21.667186-25.806688,33.789746.794225,4.889058,1.824561,9.77453,3.714425,14.352969-1.719877-10.606652-.32903-21.698724,3.956386-31.552366.632195-1.453635,1.331313-2.890119,2.272753-4.165429,1.36545-1.849688,3.215609-3.314847,5.258787-4.368992,4.727228-2.438938,11.047996-2.431427,14.90691,1.229705,1.118576,1.061244,1.978225,2.362747,2.776528,3.6819.665575,1.099837,1.834316,9.306085,2.90314,9.132633,1.990663-.323051,2.027626-9.19775,1.756407-10.382813Z" fill="#754123" mix-blend-mode="multiply" stroke-width="0px" opacity=".25" /><path d="m70.634461,173.207536c2.164894,2.814362,2.550946,4.600399,4.824084,6.00758,2.273138,1.407181,1.021128,6.00758,1.021128,6.00758l-5.614859-6.00758-.230354-6.00758Z" fill="#754123" mix-blend-mode="multiply" stroke-width="0px" opacity=".25" /><path d="m68.361323,186.954611c2.002527,1.353058,4.708644,3.626197,3.193218,6.819415-3.481298-2.786581-3.193218-6.819415-3.193218-6.819415Z" fill="#754123" mix-blend-mode="multiply" stroke-width="0px" opacity=".25" /><path d="m64.789248,194.910595c2.760239.92008,5.358112,3.365836,1.515426,14.45579-2.219016-4.389035-2.483219-11.433522-2.483219-11.433522l.967794-3.022269Z" fill="#754123" mix-blend-mode="multiply" stroke-width="0px" opacity=".25" /><path d="m97.634904,248.978812c-3.944326,1.515426-13.902836,3.24734-20.397517-7.144149,0,3.680319,3.572074,11.149202,3.572074,11.149202l6.061702,3.733374s4.529181.441162,5.500586,0,4.241435-1.027257,4.457924-1.460236.311524-1.217096.80523-2.105939c.493706-.888843,0-4.172252,0-4.172252Z" fill="#754123" mix-blend-mode="multiply" stroke-width="0px" opacity=".25" /><path d="m86.329873,387.856753c13.855386-8.735425,6.924445-23.271016,10.389916-43.892431l-5.194958,14.66635-5.736114,22.298404.487101,3.788564.054055,3.139113Z" fill="#754123" mix-blend-mode="multiply" stroke-width="0px" opacity=".25" /><path d="m245.116022,199.738134c-1.470482,1.86559-2.247791,4.73556,1.107422,6.683845,1.318904-1.787404.52511-4.45744.52511-4.45744l-1.632532-2.226405Z" fill="#754123" mix-blend-mode="multiply" stroke-width="0px" opacity=".25" /><path d="m249.578658,208.370264c-.376557.882751-1.693355,3.750874.73304,6.213621,2.209906-3.10681.766644-5.691686.766644-5.691686l-1.499684-.521935Z" fill="#754123" mix-blend-mode="multiply" stroke-width="0px" opacity=".25" /><path d="m255.046884,213.328207c-.937691,2.130836-2.236627,4.440056-2.453116,7.615233s.476231,8.97295-.230945,13.081937,2.611468-.742044,2.684061-1.463675,2.165323-15.298581,2.165323-15.298581l-.649468-6.494681-1.515855,2.559767Z" fill="#754123" mix-blend-mode="multiply" stroke-width="0px" opacity=".25" /><path d="m149.278135,231.950912c1.431242-2.839334,2.100916-6.038019,1.809774-9.164125-.000011-.000001,1.352445.725083,1.352445.725083-2.252308,1.707571-5.421168,3.937889-7.708336,5.654562,2.234254-4.761276,4.66689-9.895005,7.023411-14.570861-.000007.000012,1.665619,2.471309,1.665619,2.471309-2.977281.297098-6.446899,2.444101-9.050691,3.810661.000002-.000105,1.695392-4.528445,1.695392-4.528445,1.160884-3.120324,3.876728-5.93228,4.904817-8.869561-.000036-.000021,2.340039,2.42373,2.340039,2.42373-2.840549.6717-5.371703,1.228105-8.311458,1.375473-.000013-.000086-4.08471.063372-4.08471.063372,2.140922-2.801162,5.345294-5.945245,6.521693-9.223756.563941-5.526456-5.612101-8.676912-10.451656-8.530481-4.994804.231635-9.528975,3.873309-10.870138,8.902668.109089-5.693831,5.037979-10.61785,10.627039-11.426823,3.961229-.427564,8.01937.49112,11.132475,3.169388,2.191874,1.91642,3.425982,4.930791,3.329682,7.856074.006691.88028-.389982,1.967227-.743109,2.670265-1.065271,2.134848-2.555447,4.029301-3.980403,5.816225-.000018-.000012-1.481822-3.121517-1.481822-3.121517,2.331626-.138664,4.991886-.696073,7.275379-1.232685-.00001-.000062,3.442808-.915707,3.442808-.915707l-1.102743,3.339489c-1.073419,3.300942-3.849263,6.071753-5.152644,9.027839.000022.000013-2.511708-2.292142-2.511708-2.292142,2.793708-1.445597,6.243342-1.729994,9.331513-1.917553-1.868347,3.300254-3.987924,6.85414-5.937572,10.104251-.481622.821312-.996397,1.624643-1.494887,2.436865l-1.685843-1.565385c1.88671-1.054645,3.847741-2.171774,5.770924-3.175769-.03711,3.840144-1.115437,7.776593-3.65529,10.68756h0Z" stroke-width="0px" fill="#eeddcf" /><path d="m146.516263,267.862784c-4.765047,16.656365-9.383487,26.470549-24.970721,40.903173-15.587234,14.432624-19.960441,19.917021-23.691213,27.99929l8.601768-23.380851,15.729199-19.458457,13.937196-14.097394,8.515248-11.965762h1.878523Z" stroke-width="0px" opacity=".66" fill="#d8b58e" /><path d="m82.216642,239.832137c5.79109,2.110771,11.203324,2.706117,14.558909,7.577128-.378856-3.355585-2.273138-5.953457-2.273138-5.953457,0,0-4.532968-2.586029-4.736625-2.640326s-3.219359-.042453-3.977072,0-3.572074,1.016656-3.572074,1.016656Z" stroke-width="0px" opacity=".66" fill="#d8b58e" /><path d="m232.743066,270.852402c-7.968181-.224655-14.679351.803232-17.493713,3.969608-2.814362,3.166376,2.381383-4.906873,2.381383-4.906873,0,0,2.381383-1.786466,3.030851-2.052353s5.848743-.915355,6.279957-.80711,4.97749,1.840678,4.97749,1.840678l.824032,1.956051Z" stroke-width="0px" opacity=".66" fill="#d8b58e" /><path d="m83.533051,381.812727c-4.708075-9.398899-20.672678-20.548437-30.875483-9.200618-.628176-4.631691,3.79684-6.701571,3.79684-6.701571l8.370922-2.877915s4.907092-1.010284,5.195745,0,4.762766,4.221844,4.762766,4.221844l7.360638,8.911844,1.388572,5.646417Z" stroke-width="0px" opacity=".66" fill="#d8b58e" /><path d="m105.453166,264.024823s-1.659752,32.473404-.793794,44.019503l-3.752482-25.257092,4.546277-18.762411Z" stroke-width="0px" opacity=".66" fill="#d8b58e" /><path d="m106.968592,167.424768c-6.350355,2.860162-24.691271,12.097041-32.515227,7.622928l28.299026-8.917629,4.216202,1.2947Z" stroke-width="0px" opacity=".66" fill="#d8b58e" /><path d="m98.146361,145.804685c4.584872,8.617555,21.593998,20.709303,24.585025,1.326311l-5.372015,1.070939-10.971096-.527615-8.241914-1.869635Z" stroke-width="0px" /><path d="m143.416621,123.269078c-3.85032-.980196-7.218062-1.80938-11.055321-1.915668.000003-.000045-2.235059-.099537-2.235059-.099537-1.5921-.042159-3.060209-.154028-4.700368.138392.3712-.847097,1.101807-1.465202,1.833724-1.97614,5.176405-3.320352,13.423028-1.985119,16.157024,3.852954h0Z" stroke-width="0px" /><path d="m103.777972,84.074821c-1.670591-.659144-4.507042-1.872071-6.154667-2.31087-.821607-.242309-2.106634-.527246-2.958361-.750004-1.157621-.273075-2.156098-.58921-3.439438-.61306.251016-.701844.831309-1.205763,1.418527-1.598958,4.206774-2.653646,10.896351.065089,11.133939,5.272892h0Z" stroke-width="0px" /><path d="m99.022757,114.247029c-3.850343-.980166-7.218076-1.809219-11.055321-1.915668.000003-.000045-2.235059-.099538-2.235059-.099538-1.592108-.042066-3.060216-.154118-4.700368.138485.371013-.847097,1.101807-1.465296,1.833724-1.976234,5.176419-3.320419,13.422948-1.985013,16.157024,3.852954h0Z" stroke-width="0px" /><path d="m150.32341,92.907526c-1.670591-.659144-4.507042-1.872071-6.154667-2.31087-.821558-.24225-2.106837-.527306-2.958548-.750004-1.157562-.27301-2.155953-.589309-3.439251-.612966.250829-.701844.831309-1.205856,1.418527-1.599051,4.206845-2.653584,10.89622.065146,11.133939,5.272892h0Z" stroke-width="0px" /><path d="m135.660364,94.701292l.000391-.000609h.000043c.837848-1.270905,2.368422-2.002641,3.967621-1.739927,2.168984.356344,3.638457,2.403473,3.282157,4.572501-.127465.776007-.474024,1.459906-.962529,2.00525l.001348.001044c-5.556339,8.924559-2.783823,20.791282-2.783823,20.791282l-7.854657-1.290301c-2.053609-13.354766,3.49525-22.952047,4.261124-24.198163.028659-.047707.05784-.094761.088325-.141076Z" stroke-width="0px" /><path d="m89.886373,86.882426c.028833-.048011.058231-.095414.088934-.142033l.00013-.000217h0c.837891-1.270905,2.368465-2.002641,3.967664-1.739927,2.168984.3563,3.638457,2.403473,3.282157,4.572457-.127465.776007-.474024,1.459949-.962529,2.005294l.001348.001044c-5.556382,8.924559-2.783823,20.791282-2.783823,20.791282l-7.854657-1.290301c-2.053392-13.352983,3.493815-22.949437,4.260776-24.197598Z" stroke-width="0px" /><circle cx="139.079709" cy="97.044935" r="2.722138" stroke-width="0px" fill="#fff" /><circle cx="93.275765" cy="89.24149" r="2.722138" stroke-width="0px" fill="#fff" /><path d="m93.315463,125.509034c-2.829423-1.333304-6.510096-2.763702-10.942843-3.767508-4.034853-.9137-7.643857-1.236506-10.578255-1.30193-.770809.004015-1.938175.123264-2.852024.902697-2.287745,1.951259-1.313528,6.584738-.867012,9.049276.574241,3.169477,4.443585,8.275844,7.784667,9.782615,3.540312,1.59662,11.290778-3.534808,11.290778-3.534808,0,0,6.697297-4.384572,8.406042-8.001159.590597-1.24974-.667172-2.758349-2.241354-3.129182Z" stroke-width="0px" /><path d="m90.401289,129.780332c.170399,0,.339757-.071074.460196-.20995.598923-.689922.394623-1.724507-.148839-2.32581-.492015-.544503-1.184019-.789841-1.689416-.969162-4.885955-1.735213-9.949742-3.0874-15.050405-4.019092,8.013545,2.837851,9.818152,3.453475,14.642995,5.166979.496625.176049.928867.345556,1.193089.63788.196568.217682.2611.56294.13278.711036-.220507.253963-.193297.638475.060666.859131.115235.09992.257531.148987.398935.148987Z" stroke-width="0px" fill="#fff" /><path d="m50.149767,380.402991c1.693705,6.59287,6.129011,12.1648,12.826333,16.113783,5.822766,3.433085,12.840934,5.307616,19.83327,5.307616.220885,0,.441771-.001872.662656-.005616,10.558139-.179329,55.489054-18.344914,83.332418-33.139561,6.095129,1.392327,11.793038,2.092796,17.009867,2.092796,4.818486,0,9.227772-.594425,13.175632-1.771015-1.164329,2.521838-3.684857,4.868279-6.315827,7.309999-4.091248,3.79661-8.321018,7.722007-8.876227,13.307789-.456372,2.940398.349673,6.015947,2.273249,8.667322,2.284106,3.14818,5.895396,5.379872,9.659809,5.969524.910872.143014,1.807892.208531,2.686566.208531,6.722781,0,12.395419-3.839664,15.366891-6.330803,6.61421-5.798431,14.608767-17.007059,15.318595-37.634394.000374-5.937327-1.159836-10.512839-2.503868-13.833328,9.695562,5.330734,21.599231,10.232146,35.445007,12.856939,7.811858,1.370988,15.659658,2.04525,23.434452,2.04525,26.954019,0,53.071294-8.099384,74.110449-23.36594,24.669913-17.901832,40.579284-44.049807,44.797073-73.62787,9.017743-56.366606-14.607644-101.81735-29.493828-123.890549-13.468773-19.583557-26.200013-29.3437-34.624361-35.802167-8.496229-6.513501-11.366992-9.014374-10.043176-13.893697.310363-1.131757,1.749488-2.440597,4.260844-2.801876,2.531572-.366146,11.551562-.308865,21.442739,15.695224l1.51213,2.446588,1.676109-2.337268c9.832025-13.712121,10.925595-31.066982,2.999924-47.614674-5.389231-11.252431-14.416334-21.130879-26.105295-28.567232-12.520837-7.96573-27.524577-12.641388-43.389396-13.520812-21.257045-.360156-36.564784,4.413591-46.877515,14.559348-10.125915,9.961186-15.260192,25.202285-15.260192,45.299494,0,35.674129,13.424222,62.329016,24.210921,83.746672,6.673737,13.251631,12.437725,24.69612,13.828929,35.468218,2.518094,16.698194,1.284131,31.815372-3.661083,44.97191-3.098012,8.242772-7.562894,15.370635-13.097199,21.004899,3.764974-9.633976,6.306655-21.078465,7.595278-34.281614,1.823241-5.993859,2.354489-9.380145.974142-14.583683l-.491564-1.852443-4.242499,1.125018-.439525-3.727723-3.805969-2.210352c-.510283-1.645035-.673514-3.429341-.319722-3.904806l1.031797-1.384091-1.269156-1.170319c-1.449608-1.33617-4.157888-1.955024-6.520989-1.163954-9.849995-10.131156-14.952824-13.055081-19.471991-15.644682-4.18709-2.399041-7.803248-4.471246-14.672037-11.916959-11.785551-13.623393,4.881569-49.597027,10.35878-61.418519,8.006163-17.280358,11.923698-40.633195-3.386287-49.576436-5.704087-3.33275-11.389829-3.908176-16.442865-1.665626-6.551314,2.90689-11.907787,10.482233-15.457304,21.660161-.392165,1.188008-.762055,2.38678-1.082526,3.601557-6.869164-3.199096-12.13017-3.892358-13.552635-4.130839-3.998402-18.875226-11.983599-28.369932-24.387629-29.016865-3.38404-.180827-6.55356,1.004842-9.168619,3.416612-5.073814,4.679028-7.930163,13.705944-8.51083,26.820926-6.13706,1.398879-12.433981,3.437764-18.500095,6.370674-18.442815,8.917035-30.54659,23.89906-35.975881,44.530139-1.238831,5.091223-.341062,10.093718,2.659611,14.903031,4.845628,7.766371,15.216015,14.703111,29.458261,19.946146-.110068.011231-.221821.020029-.330954.032384-6.862425.560824-12.834195,3.057954-17.632277,5.064268-2.987944,1.249688-5.56856,2.328657-7.449456,2.540932-5.291892.59714-7.619052-1.186791-7.716017-1.263165l-3.092771-2.439849-.039685,3.916412c-.000749.302501.01535,6.498151,2.507237,11.320943-1.344032.443643-1.91796.438402-4.257848-.113812l-4.485473-1.059127,2.411396,3.927643c1.03292,1.682848,1.199895,2.357485,1.411421,3.211825.123172.49718.262816,1.062122.546972,1.816877-.291644.072256-.591524.147507-.895148.223506-1.137747.284905-2.314056.579544-3.057579.73042l-3.884589.788074,3.029875,2.555907c1.276269,1.076349,1.347401,3.757299,1.438002,7.151448.038936,1.456721.082738,3.107746.236984,4.820919l.029951.627839c.290146,5.760244.359033,7.128985,2.732615,14.509181.935207,2.908575,2.509109,6.263414,4.030973,9.50781,1.64204,3.500473,3.340238,7.120375,4.201691,10.096713.160984.556332.304373,1.073354.439899,1.559676.909374,3.272475,1.510258,5.434157,4.249238,8.596938,4.533019,5.22338,8.910296,6.431886,11.98884,6.43226,1.417785,0,2.559277-.256452,3.31478-.494559,3.540532-1.117531,6.233838-4.023485,6.549816-7.066838.226127-2.180402.156866-6.353265-2.848674-9.805444-2.546173-2.925048-6.567038-4.629236-11.966377-5.076248-1.647282-14.844628.294639-26.128881,5.511654-31.879391,2.445839-2.695552,5.574176-4.074027,9.032344-3.99653,11.701876,1.109482,12.286474,9.574169,11.663877,21.447232-.995295.118024-2.10253-.020591-2.506489-.107448l-2.319298-.497554-.00599,2.370588c0,3.044476,1.08758,5.023086,1.961014,6.613087.406579.739405.713572,1.315953.894025,1.8633-.782084.102955-1.854689.123172-3.055707-.198048l-2.682448-.719188.279289,2.763315c.556145,5.499861,1.721409,8.411431,2.969787,10.797931-.361092,2.051427-.728361,4.074963-1.098999,6.043839l-.837493-.344244.324777,2.992624c-.078246.385239-.156117.773754-.23455,1.151412-.214521,1.030674-.661533,2.36909-1.227974,4.063918-3.015648,9.02598-8.600869,25.773966-.595268,56.652166-9.196324,16.872469-12.216465,33.531071-14.481102,46.065948-1.212998,6.71417-2.227574,12.329528-3.825063,16.061744-3.168022-5.24135-10.131905-15.250458-17.47017-15.94007-7.345378-1.245195-14.789593,2.400913-17.333895,8.500722-1.597863,3.830304-1.110792,7.835445-.420806,10.521262Zm58.916523-115.795658c-.076374-.002621-.166974-.012729-.275171-.03332l-2.272874-.429791v2.313307c0,2.460814,1.065866,5.34468,2.540557,9.335968,2.043565,5.529063,4.81755,13.05714,5.78982,22.954026-3.203027,3.848368-5.978135,7.752425-8.392525,11.666217-6.188537-26.774503-1.513627-41.74745,1.278702-50.124906.017783.042492.036128.086576.053724.128787.670518,1.599361,1.226102,2.923925,1.277766,4.189711Zm8.154418-42.62079c.725927-2.139969,1.281885-5.012229,1.925822-8.337865,2.219712-11.465454,5.259695-27.168166,18.140314-27.168166,5.868815,0,10.608868,1.873783,14.088376,5.569684,4.747166,5.042553,7.232689,13.827806,6.648653,23.500343-.653671,27.025152-14.668294,54.780348-27.524203,67.210211-1.78599,1.761187-3.71125,3.647231-5.445389,5.341498-1.872098,1.702597-3.636,3.427282-5.306119,5.16872-.131221.127384-.217142.210777-.223506.216954l.008236.008611c-.433535.454874-.871562.908813-1.291993,1.36584-1.250811-8.654031-3.714807-15.334787-5.585782-20.397932-.922103-2.494134-1.704936-4.613137-2.074826-6.266783.660785-.227624,1.251934-.614736,1.745744-1.151974l.392727-.427919.089477-.573928c.405456-2.602705-.555209-4.893549-1.484425-7.108769-.457121-1.090575-.92435-2.203988-1.271402-3.413242,1.862551-.254954,3.332376-1.358259,4.077022-2.223456l.639819-.743897-.228748-.953926c-.808665-3.368316-1.920581-5.358906-2.995806-7.284354-1.202141-2.152323-2.347751-4.203189-3.03287-8.423973,2.327908.06065,3.948983-.597514,4.180351-.697848l1.071107-.465731.077497-1.165077c.147507-2.221209-.746518-3.848274-1.535716-5.28403-.463485-.843483-.911621-1.658887-1.192782-2.62966,2.434607-.030699,5.160858-.858458,6.10842-3.66333Zm-7.019479,28.422533c.106512.30456.210777.618573.309801.954862-.156492.092192-.337318.176147-.533682.242038.074876-.396658.149378-.796124.223881-1.1969Zm54.946574-170.909206c-1.669932-.550342-12.529823-3.991288-21.845013-3.604364-1.102181.078995-1.779064.086482-3.295499.235112-.013103.00131-.026956.001685-.039872.002995-.028453.002808-.057468.006458-.085734.00936-.046611.00468-.086108.008049-.134029.01301-.000374.000562-.000749.00103-.000936.001591-3.01621.309052-6.1584.74605-9.370411,1.350022.774597-14.28736,4.313444-20.500981,7.236995-23.196719,1.864798-1.720286,4.007387-2.530449,6.369738-2.406529,10.67401.556706,17.571627,9.456145,21.087825,27.206727l.076936.388796Zm42.245097,250.906066c3.861003-8.030685,6.25368-17.675706,6.25368-30.033125,0-5.696599-.431663-11.21284-1.123895-16.504264.547721,1.006152,1.229097,1.924418,2.031398,2.696675,1.807892,1.739754,4.410596,3.010407,7.488392,3.010407,3.204711.000374,6.92345-1.376229,10.798679-5.034317,5.135213-4.425946,9.507435-10.04926,13.10712-16.834562,8.045847-5.904475,31.507442-27.565666,24.37228-74.87709-1.46945-11.380469-7.369713-23.096011-14.201813-36.661-10.604001-21.055253-23.800972-47.259011-23.800972-82.022267,0-19.031343,4.749038-33.352959,14.114957-42.566879,9.542253-9.387259,23.951848-13.789993,44.051678-13.46166,29.337336,1.628188,55.341922,17.296082,66.17467,39.914007,6.853066,14.308138,6.422152,29.223149-1.08758,41.368856-4.102105-5.912618-13.066687-16.531594-23.632126-15.00973-3.718738.535367-6.628811,2.728497-7.413141,5.587654-2.065841,7.614559,3.294938,11.724152,11.409297,17.944886,8.23229,6.311335,20.673384,15.849095,33.787991,34.917877,14.560472,21.590246,37.686807,66.060483,28.871979,121.159057-4.074776,28.573596-19.435676,53.812196-43.257988,71.098544-26.272643,19.064289-60.755114,26.59274-94.604878,20.652418-24.700987-4.682959-43.053014-16.868444-53.339726-25.345486Zm2.387622-61.7023c-1.651961-7.275556-3.575911-13.869362-5.238168-19.547055-1.793291-6.125641-3.34211-11.415661-3.95385-15.479205l-.017222-.098088c-1.765961-8.654593-1.948098-12.335612-1.871349-13.83417,1.960827-.458618,4.682398-.698972,8.158349-.072256,6.917085.992113,13.262863,3.938126,17.478781,8.093768,6.053385,5.967652,12.793388,26.061117,6.826485,38.192597-4.062608-1.294239-11.16183-2.162244-16.940232,3.955909-1.073167-.403397-4.442793-1.211501-4.442793-1.211501Zm2.341199,5.159174c-.362028.773754-.631957,1.563982-.795937,2.361416-.183073-1.003344-.374195-1.99424-.571682-2.976245.451131.218546.90769.42249,1.367618.614829Zm-40.093336,91.965109c6.659697-3.741107,11.918082-7.155566,14.834145-9.855236,7.073951-6.548506,13.78419-13.353838,18.719109-22.093977,3.356711,2.727936,7.497003,5.794126,12.364907,8.865931.768232.881951,5.323902,6.581732,5.323902,17.688435-.661533,19.191579-7.967976,29.518162-13.980928,34.789838-2.829206,2.371337-8.58346,6.246567-14.964804,5.245469-2.779413-.435781-5.452128-2.093171-7.150325-4.433434-.943817-1.300978-1.9846-3.375055-1.581765-5.868441l.015724-.125418c.392727-4.16313,3.929141-7.445338,7.673337-10.919979,3.74326-3.473518,7.59116-7.055606,8.142812-11.77928,1.512317-.692326,3.651349-2.470267,4.984899-3.371031,0,0-3.896944-1.01027-7.640017.351732-7.014237,2.874506-16.095438,3.38638-26.740996,1.505391Zm-117.919902,5.529625c2.066215-4.953451,8.345353-7.035764,13.219809-6.185917l.168472.021714c6.114597.513465,13.500034,11.911343,16.036286,16.619386.050916.094344,0,0,.146758.274984,1.621824,2.792329,2.650064,5.769042,2.650064,5.769042,0,0,2.489641-3.139101,1.370426-6.694515.179703-.335072.109694-.18326.163605-.276481,2.443405-4.227149,3.641054-10.823014,5.108445-18.945048,3.168396-17.537652,7.848922-43.363283,29.539689-66.009848.754754-.733134,2.787275-2.708561,5.198109-5.0638.146945-.133467.285654-.268806.433909-.401899l-.010483-.011793c1.628188-1.591686,3.395834-3.323952,5.044425-4.949894,13.726348-13.271099,27.99293-41.514116,28.675428-69.790827.307742-5.072504.180452-17.933655-7.686815-26.290239-4.232765-4.495956-9.911768-6.775569-16.879769-6.775569-15.499984,0-19.31681,17.004064-21.662314,29.027067-.069635-.659381-.1593-1.31249-.271989-1.957364-.128787-.781148-.277043-1.506982-.447387-2.158875-.006364.016473-.014414.032197-.020965.048576-1.550129-5.687333-5.403832-10.295229-14.441792-11.128978l-.122049-.007488c-4.656565-.131034-8.80472,1.685469-12.039756,5.251459-4.361178,4.806693-8.991911,15.043425-6.288872,36.514617l.204038,1.619203,1.631183.056906c5.130533.178206,8.783006,1.476189,10.856334,3.858008,2.053861,2.358982,2.088678,5.330828,1.926571,6.89275-.134029,1.292367-1.542829,3.065441-3.890205,3.805969-2.080442.657415-6.307591.906754-11.253179-4.792841-2.172914-2.509109-2.600459-4.047446-3.452178-7.112138-.138896-.498677-.286028-1.028802-.451131-1.598612-.945315-3.26611-2.708281-7.024533-4.413217-10.659409-1.470948-3.135451-2.992062-6.3776-3.852393-9.05331-2.219712-6.901361-2.270628-7.913316-2.553286-13.5283l-.035566-.704213c-.148255-1.667124-.188689-3.185244-.227999-4.65357-.073379-2.75695-.140393-5.26606-.919108-7.281733.162482-.040808.326836-.08199.492687-.123546,1.138122-.284905,2.315554-.579918,3.059451-.730794l2.503494-.507662-1.187166-2.261643c-.852843-1.625567-1.039659-2.380696-1.237707-3.180002-.071507-.288649-.143388-.580292-.239605-.898143,1.187915-.02134,2.128363-.319722,3.5147-.809414.414815-.146383.885788-.312983,1.443618-.495682l2.638271-.862577-1.741251-2.161683c-1.695202-2.104402-2.504617-5.43266-2.855038-8.022261,1.712424.4998,4.093869.830005,7.209478.479584,2.425248-.273673,5.239853-1.450731,8.498475-2.813482,3.253755-1.360692,7.083872-2.948447,11.308214-3.937565.012167.014975.025458.028827.037625.043896,1.720099-.417436,3.504592-.737065,5.346365-.89468.614361-.071694,1.249688-.119241,1.894935-.152374,8.534978-.370358,19.191205,2.321357,19.306702,2.350746l.017222-.067108c4.804821,1.003251,9.181348,1.747522,13.14175,2.112171-.000187.002246.000187.004305-.000187.006552.076561.006739.149566.010108.225752.01666.389357.034537.766735.057842,1.147856.084798.321969.022276.645809.046704.962911.063832.422116.022931.835808.037064,1.247816.049793.339565.011044.676883.019655,1.010083.02396.152186.001591.312235.011044.463111.011044.096965,0,.185319-.008892.281535-.009734,3.536227-.007768,6.697697-.39984,9.351692-1.298732,7.399289-2.506301,8.374368-8.394397,8.386348-8.631568l.09397-1.884078-1.177806,1.473194c-.025832.032384-3.340799,3.603241-9.453337,5.400088-3.35409.985748-7.842183,1.272151-12.698107.817651-3.631507-.356225-7.643574-1.041906-11.999885-1.946974-.450382-.11297-2.041693-.501017-4.298469-.93764-22.108203-5.073066-38.218804-13.528674-44.317303-23.303044-2.434233-3.901811-3.173263-7.916311-2.196126-11.933057,10.77135-40.930641,47.007239-49.675647,71.568019-50.699396,9.596164-.327584,14.517605.268619,14.562343.276575l4.075899.57112c.083487.021527,8.155167,2.138097,15.807913,2.373957-.184383.773567-.248028,1.761655-.238107,2.823684-.024709,3.751497.908251,7.985853.908251,7.985853,0,0,1.618641-4.786382,2.613375-8.21928.162295-.52816.275732-.91031.309427-1.052108,3.127214-13.117977,8.364072-21.863825,14.867091-24.749376,3.934757-1.745744,8.293688-1.251185,12.954372,1.471696,13.088026,7.645258,9.171614,28.833417,1.841212,44.654808-9.95295,21.482049-21.791289,51.653134-9.738429,65.583895,7.309438,7.924547,11.348272,10.238978,15.624466,12.689309,4.656191,2.668222,9.470746,5.427044,19.572326,15.967774l1.120151,1.168821,1.339914-.908251c.650676-.441771,1.500898-.47846,2.184146-.356037-.399466,2.481405.603878,5.355163.865946,6.047395l.241477.63645,3.355213,1.948285.73304,6.213621,4.735186-1.255678c.57842,3.318524.073753,5.947061-1.408426,10.791566l-.056532.18457-.018345.192058c-2.559651,26.513371-10.601754,46.281873-23.256621,57.168158l-.068138.061399c-5.642314,5.343931-10.428041,4.577571-13.026253,2.077072-2.446962-2.355238-3.443193-6.687963-.469101-10.079117,6.504142-7.416136,14.108592-3.799979,14.429812-3.642739l1.569784.771227.920231-1.488544c8.319146-13.628634.565691-37.228938-6.635175-44.327224-4.786476-4.718713-11.915461-8.052961-19.558099-9.147654-3.686167-.664154-6.716978-.472096-9.063605.009172l.01067-.023399c-2.841186.630647-9.849995,2.795512-11.192904,4.48098,1.775882.641878,2.262953,1.237146,7.645633.717971,0,.869971.603317,6.688431,1.935181,13.223646.655169,4.312508,2.232815,9.700617,4.058303,15.936326,3.776767,12.90121,8.949606,30.570551,8.949606,50.139133,0,11.164357-2.086432,20.001555-5.484699,27.417036-.774971,1.452696-1.256427,2.588946-1.777567,3.540813-4.74492,8.682203-11.331987,15.385235-18.292313,21.828914-14.065164,13.020263-87.799733,44.604267-100.851444,44.826275-11.935304.203664-26.38084-6.224104-29.543995-18.536785-.544352-2.118254-.943443-5.240976.245595-8.091522Z" stroke-width="0px" fill="#0c0c0c" /></g></g></svg>