<?xml version='1.0' encoding='utf-8'?>
<svg viewBox="0 0 432 432" width="432px" height="432px" xmlns="http://www.w3.org/2000/svg" xmlns:xlink="http://www.w3.org/1999/xlink" version="1.1"><g isolation="isolate"><g id="Layer_1"><path d="M 384.283445 379.166167 C 384.95883 376.53725499999996 385.43729099999996 372.620095 383.88023499999997 368.887879 C 381.40631799999994 362.957291 374.13356899999997 359.402158 366.96415099999996 360.617777 C 359.611659 361.309635 352.48304899999994 371.86983299999997 349.75792099999995 376.37814299999997 L 349.37155899999993 377.017588 L 349.07766899999996 376.330597 C 347.46295899999996 372.557948 346.42704299999997 366.824659 345.22752299999996 360.18611500000003 C 343.00856 347.903385 339.96932499999997 331.08201900000006 330.78722799999997 314.23557000000005 L 330.71459799999997 314.10266400000006 L 330.75278499999996 313.9559060000001 C 338.73423899999995 283.16971100000006 333.15968799999996 266.4849950000001 330.16500499999995 257.5211630000001 C 329.59482099999997 255.8162270000001 329.14481399999994 254.46920000000011 328.92505099999994 253.4141910000001 L 328.67833299999995 252.2026900000001 L 328.94002599999993 249.7916690000001 L 328.2635169999999 250.0698350000001 L 328.1766599999999 249.6070990000001 C 327.8056469999999 247.6363510000001 327.4380039999999 245.61206700000008 327.07635099999993 243.55895500000008 L 327.0538879999999 243.4301680000001 L 327.1145379999999 243.3144840000001 C 328.3054479999999 241.0378660000001 329.4847519999999 238.1712220000001 330.0425809999999 232.6558240000001 L 330.2660869999999 230.44509700000012 L 328.1201279999999 231.0205220000001 C 327.07335499999994 231.30093400000013 325.9955089999999 231.3716920000001 324.9150419999999 231.22830400000012 L 324.4560489999999 231.16802800000013 L 324.6009349999999 230.72812900000014 C 324.79299299999985 230.14671300000015 325.1041049999999 229.56230300000013 325.5234129999999 228.80043500000014 C 326.3762559999999 227.24749800000012 327.4368799999999 225.31680900000015 327.4368799999999 222.37191900000013 L 327.4320129999999 220.47529900000012 L 325.5754519999999 220.87364200000013 C 325.19769999999994 220.95488300000014 323.96897799999994 221.12971900000014 322.8387179999999 220.97622300000012 L 322.5291039999999 220.93354300000013 L 322.5081389999999 220.62168300000013 C 321.8870389999999 211.28272000000013 321.7096899999999 206.16823300000013 322.28960799999993 205.41535000000013 L 322.78041399999995 204.30522800000014 C 322.96498399999996 204.07872700000013 323.35358999999994 203.19383700000014 323.55613099999994 202.93588800000015 C 325.5523369999999 200.39046400000015 328.7959419999999 197.39200100000014 334.5382159999999 197.24449500000014 C 337.5164259999999 197.18459400000015 340.8901619999999 198.74241400000014 342.84593499999994 200.64277800000013 C 347.7308739999999 205.38657500000014 351.93848799999995 213.74038400000015 351.06272599999994 235.59208300000014 L 349.41910399999995 236.34012000000016 L 349.06531299999995 236.37119400000014 C 343.90894699999996 236.82494500000016 340.05730399999993 238.47484700000015 337.61745499999995 241.27522600000015 C 334.67256499999996 244.65477400000015 336.06105499999995 247.56132000000014 336.28793099999996 249.71888400000014 C 336.59941699999996 252.67575400000015 338.01225999999997 254.06062200000014 341.461443 255.13472400000015 C 342.13832599999995 255.34550100000016 342.994491 256.06405400000017 344.36136 256.06405400000017 C 347.205916 256.06368000000015 350.289149 255.03721000000016 354.785854 249.79099200000016 C 357.460066 246.66377800000015 357.548544 245.91536400000015 358.43508099999997 242.65861300000017 C 358.57921799999997 242.12998500000018 358.927964 240.90094300000018 359.08258399999994 240.35659100000018 C 359.94553499999995 237.3128640000002 362.42209699999995 233.8547060000002 364.06189099999995 230.3018190000002 C 365.5702769999999 227.0342110000002 367.03846799999997 224.3079830000002 367.95869899999997 221.38967400000018 C 369.72540799999996 215.7889170000002 367.97259699999995 216.39387700000017 369.32149599999997 213.60997100000017 C 369.761395 212.70284300000017 368.946854 213.20288300000018 369.61362899999995 211.76450700000018 L 370.12359299999997 210.11695900000018 L 370.26791899999995 208.22503100000017 C 369.65205999999995 207.55863100000016 371.566855 206.95705100000018 370.01000799999997 205.97566900000018 L 369.690614 204.43134100000017 L 369.690614 202.48293700000016 C 371.23231999999996 200.11384700000016 369.204078 198.30813100000017 370.983142 196.79150900000016 L 373.29877 192.88524200000015 L 371.4959 192.51923200000016 C 370.935076 192.40317400000015 370.736563 192.04498900000016 370.084015 192.17714500000017 L 368.878572 191.87586200000015 L 367.488224 191.96525100000017 C 367.750666 191.20038800000017 367.079361 191.82768200000015 367.309232 191.08116400000017 C 367.949051 189.00446600000018 368.005888 187.85935100000017 369.11331 186.02974600000016 L 371.783345 181.98861100000016 L 369.464648 183.24261800000016 C 367.98509 183.59191700000017 366.963026 184.01796300000015 366.141632 184.36014900000018 C 365.780353 184.5110250000002 365.483468 184.63457100000016 365.213913 184.72629500000016 L 364.42321799999996 184.99622500000015 L 363.123771 183.21538500000014 C 365.20870499999995 178.02532500000015 366.459483 171.67645600000014 366.411562 170.85506200000015 L 366.21576 167.92028000000013 L 363.89608799999996 169.76860500000012 C 363.79612799999995 169.84872300000012 361.364516 171.73860400000012 355.91201399999994 171.1029030000001 C 353.97496099999995 170.8764020000001 351.3670139999999 169.76710700000012 348.3472479999999 168.4826020000001 C 343.5656389999999 166.4489580000001 337.61520899999994 163.9177600000001 330.80482199999994 163.3359700000001 L 328.96623099999994 163.13679900000008 L 330.49857699999995 162.57335400000008 C 344.88121699999994 157.2829600000001 355.01087499999994 150.43588400000007 359.79211 142.7730300000001 C 362.736251 138.05431700000008 363.615301 133.1390540000001 362.404549 128.16351400000008 C 357.00670699999995 107.65261200000008 344.97144299999997 92.75369900000007 326.63420399999995 83.88795500000008 C 321.06789 81.19652200000007 314.871116 79.06291800000008 308.21572399999997 77.54592100000008 L 307.930819 77.48115300000008 L 307.91809 77.18913500000008 C 307.341541 64.16887200000008 304.519449 55.23424100000008 299.530432 50.63308400000008 C 296.98875100000004 48.289077000000084 293.91058100000004 47.14122100000008 290.642225 47.317555000000084 C 278.428007 47.95437900000008 270.567104 57.346505000000086 266.609136 76.03079600000008 L 266.554851 76.28649900000008 L 265.961081 76.38421300000007 C 264.11425399999996 76.67997500000007 259.207975 77.46580300000008 252.84310399999998 80.42978700000008 L 252.42754 80.62334300000008 L 252.310733 80.18007500000007 C 252.023582 79.09174600000007 251.681771 77.95437300000007 251.234759 76.60098100000008 C 247.688237 65.43316100000007 242.41581299999999 58.02413800000008 235.986173 55.17097100000008 C 231.049944 52.97971200000008 225.484753 53.54914700000008 219.892232 56.81712900000008 C 204.80463 65.63046000000008 208.721417 88.76690400000008 216.660191 105.90162700000008 C 222.163235 117.77815300000007 238.908975 153.92100800000009 226.960942 167.73196600000009 C 220.04348299999998 175.23084100000008 216.404113 177.31615000000008 212.18969299999998 179.7309150000001 C 207.70122499999997 182.30292100000008 202.61411999999999 185.2178600000001 192.80193799999998 195.31008000000008 L 192.63384 195.4826700000001 L 192.405467 195.4062960000001 C 190.29469999999998 194.69983700000012 187.712586 195.15508600000013 186.265974 196.4886350000001 L 185.25065 197.4249650000001 L 186.076163 198.5320130000001 C 186.62351 199.2673000000001 186.21992600000002 201.4750310000001 185.815219 202.7793790000001 L 185.77104200000002 202.92239300000008 L 182.00138800000002 205.11140600000007 L 181.53266200000002 209.08771900000008 L 177.233257 207.94772500000008 L 176.840156 209.42990400000008 C 175.475533 214.5735410000001 176.008653 217.88008400000007 177.810555 223.80355900000006 C 179.103297 236.97357500000007 181.650593 248.47309800000005 185.39591199999998 258.0569070000001 L 186.07728799999998 259.80115400000005 L 184.765078 258.46535800000004 C 179.135868 252.73431600000004 174.700562 245.62217800000005 171.582707 237.32661700000003 C 166.614281 224.10793100000004 165.375825 208.91250800000003 167.901407 192.16264900000004 C 169.299724 181.33476800000005 175.07644100000002 169.86444700000004 181.76552800000002 156.58286500000006 C 192.53538000000003 135.19815500000004 205.937139 108.58819300000005 205.937139 73.00504000000005 C 205.937139 53.01415500000005 200.841423 37.86515500000005 190.791508 27.97884500000005 C 180.545042 17.89823100000005 165.31667299999998 13.163419000000049 144.189164 13.52956500000005 C 128.405212 14.40487100000005 113.465117 19.05956400000005 100.999313 26.99047600000005 C 89.370628 34.38826800000005 80.392195 44.21205600000005 75.034037 55.39971800000005 C 67.170514 71.81749900000005 68.251355 89.03046900000004 77.999518 102.62540900000005 L 79.340555 104.49544800000005 L 80.550184 102.53817800000006 C 90.567902 86.32930200000006 99.785191 86.28812000000006 102.374044 86.66512300000005 C 105.056867 87.05111100000005 106.605311 88.48986200000004 106.949369 89.74479100000005 C 108.33757800000001 94.86147200000005 105.417772 97.41438400000006 96.769918 104.04431800000005 C 88.364289 110.48818400000005 75.662251 120.22623900000005 62.22829600000001 139.75925400000006 C 47.37580600000001 161.78266000000005 23.79946300000001 207.13119800000004 32.79699000000001 263.37201100000004 C 37.000927000000004 292.85273500000005 52.855264000000005 318.90973500000007 77.44056700000002 336.75016800000003 C 98.14090600000002 351.770755 124.380604 360.043104 151.32601200000002 360.043104 C 159.121023 360.043104 166.98304900000002 359.35686100000004 174.69419900000003 358.00347000000005 C 186.86349200000004 355.69652700000006 198.750874 351.38476800000007 210.02090100000004 345.188368 L 210.96509300000002 344.6691 L 210.56076000000002 345.667952 C 208.91759700000003 349.727752 208.084596 354.333776 208.08497100000002 359.357611 C 208.78993300000002 379.835567 216.733199 390.970816 223.27290700000003 396.70373 C 226.04670500000003 399.029018 231.70848600000002 402.939439 238.38709000000003 402.939439 C 239.26876000000004 402.939439 240.15230200000002 402.870927 241.01413000000002 402.73540099999997 C 244.68008000000003 402.161099 248.197401 399.987061 250.42310300000003 396.91974799999997 C 252.28565400000002 394.352609 253.06848700000003 391.37514799999997 252.62784000000002 388.536208 C 252.08423700000003 383.073598 247.90837800000003 379.19836799999996 243.86954300000002 375.450802 C 241.19495700000002 372.96864800000003 238.66862600000002 370.623893 237.46648500000003 368.020439 L 237.11082200000004 367.24996 L 237.92398000000003 367.49255999999997 C 246.08251600000003 369.92342299999996 256.29940600000003 369.817099 267.91461300000003 367.164227 L 268.05388300000004 367.132405 L 268.17967500000003 367.199419 C 296.96217700000005 382.492931 341.26207000000005 400.122962 351.33894100000003 400.29405399999996 C 358.48028100000005 400.418349 365.70473400000003 398.54082199999993 371.633824 395.045216 C 378.241669 391.149021 382.615951 385.657957 384.283449 379.16616999999997 Z M 234.60882099999998 232.51467899999997 L 234.59384599999998 232.60228399999997 C 233.97985899999998 236.68117799999996 232.428045 241.98130599999996 230.631759 248.11780399999998 C 229.04362999999998 253.54185299999997 227.069513 260.285599 225.39789599999997 267.64745 L 225.34510799999998 267.879567 L 225.113365 267.93535 C 225.079671 267.943212 221.75478299999997 268.74214400000005 220.71624599999998 269.132624 L 220.47776499999998 269.222101 L 220.30292899999998 269.036782 C 214.53819199999998 262.933978 207.46236899999997 264.002091 203.75748299999998 265.183266 L 203.44262799999998 265.283226 L 203.296993 264.98709 C 197.205795 252.60290200000003 204.22658399999997 232.23950700000003 210.198354 226.352347 C 214.470803 222.14092200000002 220.91991099999998 219.151855 227.89203 218.15188 C 230.871363 217.614642 233.667998 217.639725 236.191708 218.2305 L 236.472495 218.296017 L 236.48747 218.584291 C 236.57545 220.307198 236.321244 224.122526 234.60882 232.514677 Z &#10;" stroke-width="0px" fill="#c56439" /><path d="M 231.251362 329.594611 C 222.012011 337.93753699999996 201.942296 353.155075 173.680285 358.570108 C 105.508273 370.659655 42.967640999999986 328.501899 33.93265199999999 264.46553900000004 C 25.79191899999999 213.03795000000002 44.30223499999999 169.00100300000003 63.04700899999999 140.90879700000005 C 88.81965599999998 103.03505900000005 111.41513899999998 102.43716800000004 107.86648899999999 89.21714100000005 C 106.31969399999998 83.51887900000006 92.12645499999999 79.71738900000005 78.75307899999999 101.70641300000005 C 73.60092599999999 78.35071700000006 102.80905999999999 51.15394200000006 126.53114899999998 66.41265500000006 C 137.218222 73.90440900000006 147.90890499999998 91.29731800000006 126.56781899999999 128.33696900000007 C 101.70862699999998 171.48265600000008 75.31266499999998 280.07609700000006 163.826137 299.19600800000006 C 198.71303999999998 305.4916180000001 221.31347 291.21583000000004 221.31347 291.21583000000004 C 221.31347 291.21583000000004 219.19713199999998 312.28743800000007 231.251362 329.59461000000005 Z &#10;" fill="#754123" mix-blend-mode="multiply" stroke-width="0px" opacity=".25" /><path d="M 171.819342 243.463094 C 134.150194 176.28772300000003 194.219726 132.58763800000003 180.115776 74.66403200000002 C 166.011826 16.74042600000002 112.73774700000001 30.389380000000017 79.42079100000001 53.31251800000002 C 79.42079100000001 53.31251800000002 92.584236 15.436129000000015 153.850725 15.436129000000015 C 215.11721400000002 15.436129000000015 206.674129 87.01356900000002 199.097001 109.35224200000002 C 184.520051 164.741624 150.459058 181.194815 171.819342 243.463094 Z &#10;" stroke-width="0px" opacity=".66" fill="#d8b58e" /><path d="M 244.109374 98.620636 C 244.093962 96.86196600000001 244.07855 95.103296 244.063137 93.344626 C 244.011483 87.450443 243.93268600000002 81.40698800000001 241.81162300000003 75.90742900000001 C 239.69056000000003 70.40787 235.057925 65.48042000000001 229.20927600000002 64.747363 C 223.48103600000002 64.02939900000001 217.52056700000003 67.92761200000001 215.882314 73.463345 C 215.882314 73.463345 236.93983200000002 62.6923 244.109374 98.620637 Z &#10;" opacity=".35" fill="#754123" mix-blend-mode="multiply" stroke-width="0px" /><path d="M 215.882374 73.463374 C 217.122295 66.356054 224.139881 61.516593 231.253851 63.359226 C 237.032151 64.713485 241.291705 69.730216 242.837269 75.286744 C 244.531175 80.461453 245.053631 86.126578 244.109261 91.429415 C 243.556816 87.212432 242.807649 83.097272 241.400214 79.114405 C 240.04223000000002 75.311729 238.573951 71.551625 235.454454 68.92225 C 228.597022 62.99171100000001 219.84289 65.588205 215.882374 73.463375 L 215.882374 73.463375 Z &#10;" stroke-width="0px" /><path d="M 286.922695 63.711921 C 289.20107399999995 62.839453 291.653032 62.462385 293.89244699999995 61.494279999999996 C 296.71230799999995 60.27524699999999 299.1152829999999 58.114278999999996 300.62569199999996 55.43914899999999 C 303.161482 62.156045999999996 304.67517399999997 69.257752 305.09869 76.42487 C 305.12534899999997 76.876023 305.11194 77.407145 304.74591499999997 77.672241 C 304.52793399999996 77.830114 304.24038299999995 77.845477 303.971251 77.842734 C 302.246026 77.825154 300.571206 77.30954999999999 298.896429 76.894984 C 292.953422 75.42388399999999 286.792169 75.204031 280.69749 75.346643 C 279.150576 75.38284 277.60413700000004 76.665422 276.058445 76.736218 C 274.322598 76.81572299999999 271.924445 78.06010599999999 273.235225 76.345952 C 274.79716 74.30335199999999 276.992302 70.863731 278.868265 69.103472 C 280.941906 67.15772799999999 284.253293 64.734124 286.92269500000003 63.711921 Z &#10;" opacity=".35" fill="#754123" mix-blend-mode="multiply" stroke-width="0px" /><g opacity=".66"><path d="M 297.884217 54.02389 C 292.037147 51.429974 286.696955 54.584416000000004 281.86189299999995 57.949348 C 279.44931099999997 59.622761 277.34186299999993 61.452926 275.36609799999997 63.67588 C 273.271012 66.018048 271.58219999999994 68.547632 269.868841 71.317152 C 268.75526599999995 64.33045499999999 272.86645799999997 57.17309699999999 278.596957 53.27905799999999 C 281.53711899999996 51.271176999999994 284.86173099999996 49.64665099999999 288.535077 49.40645099999999 C 292.112574 49.13356299999999 296.365539 50.64514399999999 297.884218 54.02388999999999 L 297.884218 54.02388999999999 Z &#10;" stroke-width="0px" fill="#d8b58e" /></g><g opacity=".66"><path d="M 253.906485 81.885864 C 272.508284 74.857362 295.58243600000003 75.35302 314.272917 81.885577 C 304.111922 82.882158 294.15727200000003 82.55026 284.060824 82.54281399999999 C 275.08301700000004 82.37695099999999 262.83107600000005 82.59456399999999 253.90648500000003 81.88586299999999 L 253.90648500000003 81.88586299999999 Z &#10;" stroke-width="0px" fill="#d8b58e" /></g><path d="M 323.560544 243.126402 C 324.78477399999997 240.93476900000002 325.94086599999997 238.86443500000001 326.636842 234.57738500000002 L 326.71097 234.120639 L 326.24823399999997 234.132619 C 323.96712299999996 234.189899 322.402206 233.541095 322.23073899999997 233.46659300000002 L 321.37377799999996 233.094083 L 321.31200499999994 232.16187100000002 C 321.17198599999995 230.05222700000002 322.03755799999993 228.477202 322.80167199999994 227.08712100000002 C 323.28050699999994 226.21518500000002 323.73313499999995 225.39154400000004 324.02627599999994 224.38033800000002 L 324.16629499999993 223.89663600000003 L 323.66275099999996 223.89027200000004 C 321.93722399999996 223.86855800000004 318.895743 223.39758500000005 317.91261499999996 220.48713800000004 C 317.195299 218.37337600000004 316.641962 215.51496800000004 315.999896 212.19944000000004 C 313.754726 200.60295200000004 310.6803 184.72091200000003 297.483328 184.72091200000003 C 291.504445 184.72091200000003 286.670422 186.63550200000003 283.115663 190.41114700000003 C 278.29736399999996 195.52932600000003 275.77328 204.42127700000003 276.362932 214.18366600000002 C 277.018475 241.28668900000002 291.093747 269.177412 304.001322 281.657442 C 305.787874 283.41891 307.713321 285.305422 309.457942 287.00961 C 311.248238 288.63779800000003 313.013824 290.356587 314.715391 292.128537 L 315.235033 292.672889 C 315.576095 293.03005 315.917157 293.386836 316.246988 293.745494 L 316.793212 294.339264 L 316.908522 293.540707 C 318.156338 284.907828 320.652344 278.153225 322.474462 273.221115 C 323.39394500000003 270.734843 324.187635 268.587761 324.563889 266.905288 L 324.63876500000003 266.57059 L 324.31455000000005 266.459024 C 323.70880000000005 266.250119 323.17418200000003 265.897451 322.7264210000001 265.41038 L 322.4123140000001 265.06782 L 322.3408070000001 264.608453 C 321.9518240000001 262.112821 322.8915230000001 259.872893 323.8046410000001 257.696235 C 324.2613870000001 256.60566 324.73423200000013 255.478395 325.08615100000014 254.25117 L 325.20820000000015 253.825872 L 324.76979800000015 253.76559600000002 C 323.0678570000002 253.53273000000002 321.6710370000001 252.53163200000003 320.9312580000001 251.672051 L 320.41947800000014 251.076783 L 320.6025510000001 250.313792 C 321.3984880000001 246.99788900000001 322.49692500000015 245.030885 323.5605450000001 243.126403 Z &#10;" stroke-width="0px" fill="#e7caae" /><path d="M 341.513867 122.619453 C 338.541168 123.095148 335.534309 123.580457 332.763357 124.75733699999999 C 328.84637599999996 126.420959 325.6002 129.38142399999998 321.725422 131.14110399999998 C 310.264644 136.345867 294.466452 130.88329199999998 282.89448699999997 135.835929 C 274.86911799999996 139.270673 271.25580099999996 147.481719 272.22346699999997 156.157411 C 273.23011399999996 165.182586 281.21717299999995 170.803029 290.293143 170.496632 C 293.964917 170.372676 297.613854 170.132226 301.200252 169.335339 C 313.35263999999995 166.635115 344.529897 162.089875 358.121383 142.74091 C 358.95899399999996 141.54847900000001 360.584427 135.83975800000002 360.323132 132.78656400000003 C 359.90369 127.88543400000003 358.96140299999996 121.83704400000002 357.85408 121.33568500000003 C 353.334984 119.28958900000002 346.51331700000003 121.81943400000003 341.513865 122.61945200000002 Z &#10;" stroke-width="0px" fill="#e7caae" /><path d="M 272.073579 153.527425 C 277.875581 157.524384 284.76702 159.74030199999999 291.74044 160.74544699999998 C 298.71385999999995 161.75059199999998 305.80264999999997 161.59212899999997 312.83523299999996 161.16589499999998 C 315.90498399999996 160.979842 318.985371 160.74119699999997 321.98365599999994 160.05688899999998 C 324.65287699999993 159.44768399999998 327.22847499999995 158.491784 329.79505399999994 157.53860699999998 C 334.32896099999994 155.85480099999998 338.8803679999999 154.16312399999998 343.13292799999994 151.859376 C 349.60194199999995 148.354904 355.28662499999996 143.46517599999999 359.9289089999999 137.757404 C 358.0072379999999 145.222812 352.7013579999999 151.746475 345.78402199999994 155.14876800000002 C 342.69310899999994 156.669034 339.3445059999999 157.57871400000002 336.12189699999993 158.795159 C 331.41904399999993 160.570354 326.9805139999999 163.00098300000002 322.24711299999996 164.69304000000002 C 317.08920199999994 166.53684800000002 311.65990899999997 167.47646500000002 306.26212899999996 168.40793600000003 C 300.40639 169.41843300000002 294.443923 170.43191900000002 288.551158 169.66634400000004 C 284.204028 169.10157400000003 279.56330399999996 167.49261100000004 276.134929 164.61240800000004 C 273.244971 162.18453300000004 272.03429 157.87160200000005 272.073579 153.52742600000005 Z &#10;" fill="#754123" mix-blend-mode="multiply" stroke-width="0px" opacity=".25" /><path d="M 237.008096 141.874357 C 239.945726 152.527643 238.94529 164.909619 231.690223 173.245455 C 226.084259 179.686526 217.715069 182.821732 210.05051500000002 186.585881 C 204.53440400000002 189.294905 199.232154 192.439249 194.209303 195.980048 C 197.191475 191.85041900000002 200.854581 188.213713 205.005672 185.261489 C 212.92515500000002 179.62921300000002 222.964525 176.10434700000002 227.965532 167.77184 C 228.818543 166.350582 229.49227299999998 164.830566 230.16368699999998 163.315044 C 232.202711 158.71254 234.28787799999998 153.715301 233.21657699999997 148.796665 C 232.73271199999996 146.57510399999998 231.62999699999997 144.54431599999998 230.85514799999999 142.406778 C 229.900059 139.77202 229.44750699999997 136.987499 228.81885999999997 134.25638800000002 C 227.98753999999997 130.64477300000001 226.84173099999998 127.11449400000002 225.55121499999998 123.64293000000002 C 224.86242599999997 121.79004700000002 221.34921799999998 115.78869900000002 222.46109099999998 114.25520100000003 C 229.02032999999997 121.46632000000002 234.430208 132.52569500000004 237.008098 141.87435800000003 Z &#10;" stroke-width="0px" opacity=".66" fill="#d8b58e" /><path d="M 315.135245 166.252217 C 309.170775 166.338325 303.303271 167.365536 297.383165 167.984109 C 297.365007 167.98598099999998 297.347412 167.986075 297.32944100000003 167.987853 C 296.630469 168.23532 295.92775400000005 168.452087 295.218861 168.619061 C 292.630757 169.228555 290.008023 169.164817 287.402136 169.077398 C 285.32599999999996 169.00776299999998 283.225154 168.918566 281.242613 168.08107299999998 C 279.642129 167.40512599999997 278.168187 166.25352599999997 276.78709100000003 164.919977 C 276.04899700000004 164.20743399999998 273.39238100000006 157.765253 272.91991 159.443515 C 272.49442500000004 160.954615 274.46348800000004 165.728047 275.037603 166.786051 C 275.91946 168.411431 277.05046899999996 169.743857 278.30184099999997 170.704335 C 281.031461 172.799378 284.21165099999996 173.302922 287.32070799999997 173.401197 C 295.86774399999996 173.401197 299.57649599999996 172.262047 307.695367 171.531484 C 315.063134 170.87548800000002 325.05492799999996 167.452523 326.29276899999996 164.662351 C 324.11704699999996 163.449072 325.08126799999997 165.31233 322.790985 164.646773 C 320.360683 165.643191 317.76172199999996 166.214311 315.135244 166.252217 Z &#10;" fill="#754123" mix-blend-mode="multiply" stroke-width="0px" opacity=".25" /><path d="M 242.307492 213.859258 C 238.179307 211.96651 233.618309 211.12798500000002 229.07816 211.02092900000002 C 226.17819599999999 210.95254800000004 223.25659 211.17867700000002 220.450271 211.91287100000002 C 211.08160299999997 214.36391700000001 203.85686499999997 222.41978400000002 200.58494199999998 231.53428300000002 C 197.31301799999997 240.648782 197.544887 250.68787000000003 199.22506399999997 260.224986 C 198.38162499999999 251.335771 199.219565 242.094852 203.10902499999997 234.05733800000002 C 206.998485 226.01982400000003 214.23714399999997 219.33574900000002 222.97332899999998 217.489506 C 225.12741999999997 217.034274 227.331935 216.87196 229.53057399999997 216.756502 C 232.75666399999997 216.58708800000002 236.03945899999997 216.521702 239.16431799999998 217.341304 C 240.60982499999997 217.72044 244.780712 219.551219 247.580415 219.214379 C 246.72466 216.121765 243.574324 214.44009300000002 242.307492 213.859258 Z &#10;" fill="#754123" mix-blend-mode="multiply" stroke-width="0px" opacity=".25" /><path d="M 202.273279 277.069497 C 205.334639 278.961477 208.684199 280.925821 212.267669 280.593777 C 215.527996 280.291675 218.28026 278.14518799999996 220.82604400000002 276.086066 C 221.90369 278.411903 221.38300200000003 281.317694 219.76126500000004 283.302842 C 218.13952800000004 285.287989 215.55014500000004 286.365104 212.98699400000004 286.398217 C 210.42384300000003 286.43133 207.90450400000003 285.48711499999996 205.80934000000005 284.01025 C 204.73139200000006 283.250413 203.75727500000005 282.35481 202.78659800000005 281.462 C 201.25323900000006 280.051645 199.71988000000005 278.64129099999997 198.18652100000006 277.230936 C 197.64787900000005 276.735503 194.97783400000006 273.979936 196.63901400000006 273.687277 C 197.26869000000005 273.576344 198.74858500000005 274.891169 199.29203700000005 275.227033 C 200.28578200000004 275.841187 201.27952700000006 276.45534 202.27327800000006 277.069497 Z &#10;" fill="#754123" mix-blend-mode="multiply" stroke-width="0px" opacity=".25" /><path d="M 337.814678 387.907941 C 342.40835400000003 389.697092 347.127584 391.344817 352.040525 391.752156 C 365.067867 392.832272 378.253722 383.94955300000004 382.14703 371.470753 C 384.385334 379.662558 380.429102 388.790353 373.66146499999996 393.920148 C 366.893828 399.049942 357.84182599999997 400.52286599999996 349.44028299999997 399.286021 C 344.51201299999997 398.560499 339.75449799999996 396.978903 335.054045 395.329671 C 316.83932599999997 388.938737 299.021034 381.41818 281.735574 372.825571 C 269.091981 366.540436 256.61481699999996 359.599242 246.081258 350.19671500000004 C 235.547699 340.794187 226.995206 328.688215 223.898843 314.912297 C 221.390064 303.750583 222.546082 292.102838 224.371487 280.80922300000003 C 227.629999 260.649109 232.969227 240.89215400000003 238.299156 221.17819800000004 C 239.460475 216.88279500000004 244.439786 217.98061200000004 247.58041400000002 219.21437900000004 C 248.619347 220.72833000000003 246.67422100000002 232.65709600000002 245.939116 236.78996900000004 C 245.18984600000002 241.00247600000003 244.165422 245.14795700000005 243.03618200000003 249.26793000000004 C 223.89884300000003 314.912297 296.547905 365.753421 337.814678 387.90794100000005 Z &#10;" fill="#754123" mix-blend-mode="multiply" stroke-width="0px" opacity=".25" /><path d="M 241.522911 377.97975 C 241.937576 378.015598 239.315121 373.68714500000004 239.468865 373.30037000000004 C 239.545259 373.10818600000005 239.497726 372.89046300000007 239.434078 372.69369000000006 C 238.8806 370.98258100000004 237.213133 369.7377650000001 236.921036 367.9632480000001 C 236.79511799999997 367.19828500000006 236.907502 366.3096790000001 236.36997499999998 365.75103000000007 C 236.08977299999998 365.4598180000001 235.68711499999998 365.3281330000001 235.301631 365.2068090000001 C 234.37211499999998 364.91426200000006 230.04485499999998 363.03969300000006 228.3952 362.8294390000001 C 228.23252 370.8394930000001 239.31753899999998 377.7890930000001 241.522911 377.9797500000001 Z &#10;" fill="#754123" mix-blend-mode="multiply" stroke-width="0px" opacity=".25" /><path d="M 264.398598 363.599918 C 261.277374 361.334999 257.75050699999997 359.693053 254.52333199999998 357.581725 C 245.49173599999997 351.673226 239.284854 342.465296 232.438528 334.108899 C 232.488134 333.715985 232.43029199999998 333.309219 232.21202699999998 332.891595 C 231.041521 330.653351 228.45173199999996 331.713227 226.86229299999997 332.724808 C 223.86180699999997 334.634344 220.90718299999997 336.615575 218.00160299999996 338.666347 C 216.06398799999997 340.03396499999997 214.11401899999996 341.46606999999995 212.72524799999997 343.388897 C 209.67440799999997 347.612957 209.88986499999996 353.296172 210.34997999999996 358.48642 C 210.55308199999996 360.776516 210.77883499999996 363.064552 211.02723699999996 365.350156 C 211.95795099999995 373.91676900000004 213.35851499999995 382.837173 218.44674299999997 389.791509 C 221.75066599999997 394.306932 226.55754599999997 397.751997 231.96437299999997 399.190935 C 237.37119999999996 400.62987300000003 243.34540399999997 399.999788 248.21798799999996 397.24957600000005 C 250.53316699999996 395.94279500000005 252.74164799999997 393.90278700000005 252.99884799999995 391.25656000000004 C 253.16282699999996 389.57024900000005 252.44326499999994 387.82263300000005 251.13985299999996 386.74048100000005 C 249.83625399999997 385.658423 247.98605799999996 385.27290300000004 246.35880499999996 385.74425 C 243.38677199999995 386.605142 241.72320499999995 389.86582300000003 238.90953599999997 391.153324 C 237.278914 391.899374 235.420856 391.91004399999997 233.62756499999998 391.904147 C 231.14840599999997 391.895911 228.58426299999996 391.863714 226.32580199999998 390.841089 C 223.86779599999997 389.72823800000003 222.05166799999998 387.56318600000003 220.56087799999997 385.314179 C 214.442537 376.083319 212.53805499999999 364.17309800000004 215.47265 353.49468900000005 C 216.44098899999997 349.97109800000004 217.97108899999998 346.49327400000004 220.598129 343.95309100000003 C 221.93224 342.663064 223.478625 341.663182 225.047848 340.69381300000003 C 225.23878299999998 340.693907 225.44993399999998 340.68904000000003 225.70339099999998 340.67874400000005 C 227.14270299999998 340.61977900000005 228.40006599999998 340.67593600000004 229.73997999999997 341.2973170000001 C 231.59803899999997 342.1589580000001 233.09182399999997 343.6434760000001 234.42162899999997 345.20109400000007 C 236.99625499999996 348.21693000000005 239.11263799999998 351.6234330000001 240.67605799999995 355.26766900000007 C 241.38438899999994 356.9190690000001 241.90889799999997 359.0318950000001 240.68934899999996 360.3515920000001 C 239.93047599999997 361.1726120000001 238.73469999999998 361.3865720000001 237.62746399999997 361.5406300000001 C 234.61986499999998 361.9590960000001 231.65158799999998 361.1561060000001 228.3952 362.8294410000001 C 228.965767 363.1383370000001 235.23928099999998 364.1464240000001 238.503706 365.3537130000001 C 244.900213 367.7192470000001 251.93504099999998 367.37668700000006 258.744678 367.0024920000001 C 260.607229 366.90009800000007 262.47652 366.79705000000007 264.308933 366.4484060000001 C 264.70297000000005 366.3735300000001 265.12527300000005 366.2694510000001 265.381164 365.9607730000001 C 265.994589 365.2208070000001 265.176564 364.1643000000001 264.398598 363.59991900000006 Z &#10;" fill="#754123" mix-blend-mode="multiply" stroke-width="0px" opacity=".25" /><path d="M 277.457909 223.266951 C 295.21827599999995 283.233466 326.29276899999996 281.068573 328.348502 309.272385 L 328.348502 312.24304 L 317.516681 297.738253 L 298.68210700000003 278.687189 L 284.17732 255.57588299999998 L 276.696676 232.79144499999998 L 277.45790900000003 223.26694999999998 Z &#10;" fill="#754123" mix-blend-mode="multiply" stroke-width="0px" opacity=".25" /><path d="M 318.199569 201.98647 C 318.771038 199.489496 319.531609 196.96308299999998 321.09799399999997 194.936288 C 323.18926999999996 192.23031999999998 326.54586099999995 190.70225599999998 329.93821899999995 190.269117 C 355.76692699999995 186.246233 357.5672119999999 211.936303 355.74490699999996 224.058863 C 354.950682 228.947921 353.92034599999994 233.833393 352.03048199999995 238.411832 C 353.75035899999995 227.80518 352.35951199999994 216.713108 348.07409599999994 206.859466 C 347.4419009999999 205.405831 346.7427829999999 203.969347 345.8013429999999 202.694037 C 344.4358929999999 200.84434900000002 342.58573399999995 199.37919000000002 340.54255599999993 198.32504500000002 C 335.8153279999999 195.886107 329.4945599999999 195.893618 325.63564599999995 199.55475 C 324.51706999999993 200.615994 323.65742099999994 201.91749700000003 322.85911799999997 203.23665000000003 C 322.193543 204.33648700000003 321.02480199999997 212.54273500000002 319.95597799999996 212.36928300000002 C 317.965315 212.04623200000003 317.92835199999996 203.171533 318.19957099999993 201.98647000000003 Z &#10;" fill="#754123" mix-blend-mode="multiply" stroke-width="0px" opacity=".25" /><path d="M 364.170138 172.06618 C 362.005244 174.880542 361.619192 176.666579 359.346054 178.07376 C 357.07291599999996 179.480941 358.324926 184.08133999999998 358.324926 184.08133999999998 L 363.93978500000003 178.07376 L 364.170139 172.06618 Z &#10;" fill="#754123" mix-blend-mode="multiply" stroke-width="0px" opacity=".25" /><path d="M 366.443276 185.813255 C 364.44074900000004 187.166313 361.73463200000003 189.439452 363.250058 192.63267 C 366.731356 189.84608899999998 366.443276 185.813255 366.443276 185.813255 Z &#10;" fill="#754123" mix-blend-mode="multiply" stroke-width="0px" opacity=".25" /><path d="M 370.01535 193.769238 C 367.255111 194.68931800000001 364.657238 197.135074 368.499924 208.225028 C 370.71894000000003 203.835993 370.98314300000004 196.791506 370.98314300000004 196.791506 L 370.015349 193.769237 Z &#10;" fill="#754123" mix-blend-mode="multiply" stroke-width="0px" opacity=".25" /><path d="M 337.169695 247.837456 C 341.114021 249.352882 351.07253099999997 251.084796 357.567212 240.693307 C 357.567212 244.373626 353.995138 251.842509 353.995138 251.842509 L 347.933436 255.575883 C 347.933436 255.575883 343.404255 256.017045 342.43285 255.575883 C 341.46144499999997 255.134721 338.19141499999995 254.548626 337.974926 254.115647 C 337.758437 253.68266799999998 337.66340199999996 252.898551 337.169696 252.009708 C 336.67599 251.12086499999998 337.169696 247.83745599999997 337.169696 247.83745599999997 Z &#10;" fill="#754123" mix-blend-mode="multiply" stroke-width="0px" opacity=".25" /><path d="M 348.474726 386.715397 C 334.61933999999997 377.979972 341.550281 363.444381 338.08480999999995 342.822966 L 343.27976799999993 357.48931600000003 L 349.0158819999999 379.78772000000004 L 348.5287809999999 383.57628400000004 L 348.4747259999999 386.71539700000005 Z &#10;" fill="#754123" mix-blend-mode="multiply" stroke-width="0px" opacity=".25" /><path d="M 189.688576 198.596778 C 191.15905800000002 200.462368 191.93636700000002 203.332338 188.581154 205.280623 C 187.26225 203.49321899999998 188.05604399999999 200.823183 188.05604399999999 200.823183 L 189.68857599999998 198.596778 Z &#10;" fill="#754123" mix-blend-mode="multiply" stroke-width="0px" opacity=".25" /><path d="M 185.225941 207.228908 C 185.602498 208.111659 186.919296 210.979782 184.49290100000002 213.44252899999998 C 182.28299500000003 210.33571899999998 183.726257 207.75084299999997 183.726257 207.75084299999997 L 185.225941 207.22890799999996 Z &#10;" fill="#754123" mix-blend-mode="multiply" stroke-width="0px" opacity=".25" /><path d="M 179.757715 212.186851 C 180.695406 214.31768699999998 181.994342 216.626907 182.21083099999998 219.80208399999998 C 182.42731999999998 222.97726099999997 181.73459999999997 228.77503399999998 182.44177599999998 232.884021 C 183.14895199999998 236.993008 179.83030799999997 232.141977 179.75771499999996 231.420346 C 179.68512199999995 230.698715 177.59239199999996 216.12176499999998 177.59239199999996 216.12176499999998 L 178.24185999999997 209.62708399999997 L 179.75771499999996 212.18685099999996 Z &#10;" fill="#754123" mix-blend-mode="multiply" stroke-width="0px" opacity=".25" /><path d="M 285.526444 230.809556 C 282.986999 227.896964 281.907886 223.963551 281.871274 220.12194799999997 C 283.796346 221.12442599999997 285.753872 222.24262399999998 287.64207300000004 223.29776999999999 L 285.95623500000005 224.863151 C 285.457932 224.050929 284.94297000000006 223.24759799999998 284.46132700000004 222.42629699999998 C 282.513234 219.174975 280.39008800000005 215.62348999999998 278.52383100000003 212.32189499999998 C 281.61901400000005 212.50874199999998 285.056348 212.79351699999998 287.85526400000003 214.23970599999998 C 287.85528800000003 214.239588 285.34355800000003 216.53174299999998 285.34355800000003 216.53174299999998 C 284.03925000000004 213.57296999999997 281.266117 210.80690599999997 280.190961 207.503876 C 280.190936 207.50389099999998 279.088193 204.164402 279.088193 204.164402 L 282.531011 205.080047 C 284.81413 205.616761 287.475187 206.17397200000002 289.80636999999996 206.312856 C 289.80637899999994 206.312794 288.32476199999996 209.434299 288.32476199999996 209.434299 C 286.89955499999996 207.647436 285.409495 205.752911 284.34412399999997 203.618097 C 283.991246 202.915381 283.593663 201.826495 283.60100199999994 200.947795 C 283.33889099999993 195.73875900000002 287.4089809999999 191.396702 292.2688339999999 190.339525 C 299.8852889999999 188.03911000000002 308.3596849999999 193.232006 308.69027199999994 201.349324 C 307.3500619999999 196.31980099999998 302.81438699999995 192.677872 297.82005899999996 192.446365 C 292.980622 192.30136499999998 286.80427499999996 195.448961 287.36887099999996 200.97700799999998 C 288.54026799999997 204.24871299999998 291.753726 207.405884 293.89001399999995 210.200832 C 293.89014099999997 210.200754 289.80563199999995 210.137296 289.80563199999995 210.137296 C 286.86591599999997 209.990109 284.3343709999999 209.43354499999998 281.49395999999996 208.761994 C 281.493973 208.76191 283.83404899999994 206.338159 283.83404899999994 206.338159 C 284.86375899999996 209.278065 287.57648299999994 212.084513 288.7388009999999 215.207756 C 288.7388299999999 215.207741 290.4342189999999 219.73608 290.4342189999999 219.73608 C 287.80818299999993 218.36667699999998 284.38236099999995 216.221243 281.3835039999999 215.92561099999998 C 281.3835299999999 215.92552399999997 283.0491569999999 213.45422699999997 283.0491569999999 213.45422699999997 C 285.4031369999999 218.12435299999999 287.84091799999993 223.27280999999996 290.0725559999999 228.02500999999998 C 287.7748529999999 226.28785 284.6275529999999 224.08334 282.3642179999999 222.37047199999998 C 282.36422499999986 222.370513 283.7166809999999 221.64542799999998 283.7166809999999 221.64542799999998 C 283.4255879999999 224.771754 284.0953079999999 227.96948299999997 285.52644399999986 230.809555 L 285.52644399999986 230.809555 Z &#10;" stroke-width="0px" fill="#eeddcf" /><path d="M 288.288336 266.721428 C 293.053383 283.377793 297.671823 293.191977 313.25905700000004 307.624601 C 328.84629100000006 322.05722499999996 333.21949800000004 327.54162199999996 336.95027000000005 335.62389099999996 L 328.34850200000005 312.24303999999995 L 312.61930300000006 292.78458299999994 L 298.6821070000001 278.68718899999993 L 290.1668590000001 266.72142699999995 L 288.28833600000013 266.72142699999995 Z &#10;" stroke-width="0px" opacity=".66" fill="#d8b58e" /><path d="M 352.587957 238.69078 C 346.796867 240.801551 341.384633 241.396897 338.029048 246.26790799999998 C 338.407904 242.912323 340.302186 240.31445099999996 340.302186 240.31445099999996 C 340.302186 240.31445099999996 344.835154 237.72842199999997 345.038811 237.67412499999998 C 345.24246800000003 237.61982799999998 348.25817 237.63167199999998 349.01588300000003 237.67412499999998 C 349.77359600000005 237.71657799999997 352.587957 238.690781 352.587957 238.690781 Z &#10;" stroke-width="0px" opacity=".66" fill="#d8b58e" /><path d="M 202.061533 269.711046 C 210.02971399999998 269.486391 216.740884 270.514278 219.555246 273.680654 C 222.369608 276.84703 217.173863 268.773781 217.173863 268.773781 C 217.173863 268.773781 214.79248 266.98731499999997 214.143012 266.721428 C 213.49354399999999 266.45554100000004 208.29426899999999 265.806073 207.863055 265.914318 C 207.43184100000002 266.02256299999993 202.885565 267.754996 202.885565 267.754996 L 202.06153300000003 269.711047 Z &#10;" stroke-width="0px" opacity=".66" fill="#d8b58e" /><path d="M 351.271548 380.671371 C 355.979623 371.272472 371.944226 360.12293400000004 382.14703099999997 371.470753 C 382.77520699999997 366.839062 378.350191 364.769182 378.350191 364.769182 L 369.979269 361.891267 C 369.979269 361.891267 365.072177 360.880983 364.783524 361.891267 C 364.494871 362.90155100000004 360.020758 366.113111 360.020758 366.113111 L 352.66012 375.024955 L 351.271548 380.67137199999996 Z &#10;" stroke-width="0px" opacity=".66" fill="#d8b58e" /><path d="M 329.351432 262.883466 C 329.351432 262.883466 331.011184 295.35687 330.145226 306.902969 L 333.89770799999997 281.645877 L 329.351431 262.883466 Z &#10;" stroke-width="0px" opacity=".66" fill="#d8b58e" /><path d="M 327.836007 166.283412 C 334.186362 169.143574 352.527278 178.380453 360.351234 173.90634 L 332.05220799999995 164.988711 L 327.83600599999994 166.283411 Z &#10;" stroke-width="0px" opacity=".66" fill="#d8b58e" /><path d="M 336.658238 144.663329 C 332.07336599999996 153.28088400000001 315.06424 165.372632 312.073213 145.98964 L 317.445228 147.06057900000002 L 328.416324 146.53296400000002 L 336.658238 144.66332900000003 Z &#10;" stroke-width="0px" /><path d="M 291.387958 122.127722 C 294.122703 116.28950900000001 302.367882 114.95450500000001 307.544954 118.27476800000001 C 308.276899 118.785706 309.007693 119.403811 309.378706 120.25094500000002 C 307.739387 119.95855900000002 306.27004400000004 120.07038000000001 304.67834100000005 120.11248300000001 C 304.67833800000005 120.11251700000001 302.443276 120.21200900000001 302.443276 120.21200900000001 C 298.60461100000003 120.318515 295.24014400000004 121.14714900000001 291.387958 122.127723 L 291.387958 122.127723 Z &#10;" stroke-width="0px" /><path d="M 331.026607 82.933465 C 331.264951 77.725346 337.953255 75.007088 342.160554 77.660659 C 342.747764 78.05376799999999 343.328244 78.55768599999999 343.57908 79.259559 C 342.29664399999996 79.28328499999999 341.296863 79.599667 340.13962799999996 79.872582 C 339.282069 80.095733 338.007775 80.37867899999999 337.18125599999996 80.622559 C 335.544003 81.057966 332.68171399999994 82.28121499999999 331.02660699999996 82.933465 L 331.02660699999996 82.933465 Z &#10;" stroke-width="0px" /><path d="M 335.782009 113.105673 C 338.51669200000003 107.26740699999999 346.761847 105.93251699999999 351.938818 109.252719 C 352.670763 109.763657 353.401557 110.381856 353.77257000000003 111.228989 C 352.133258 110.936419 350.66391500000003 111.048424 349.07220500000005 111.090434 C 349.07220200000006 111.090468 346.83714000000003 111.18996 346.83714000000003 111.18996 C 342.99853600000006 111.296622 339.634156 112.125098 335.782009 113.105674 L 335.782009 113.105674 Z &#10;" stroke-width="0px" /><path d="M 284.481169 91.76617 C 284.71951 86.557951 291.407953 83.839996 295.61530300000004 86.493364 C 296.202326 86.886472 296.78280500000005 87.390484 297.033829 88.09235699999999 C 295.751143 88.115884 294.75182900000004 88.43240999999999 293.594377 88.705287 C 292.73699500000004 88.92836799999999 291.462201 89.211389 290.636005 89.455264 C 288.998497 89.890648 286.136431 91.113874 284.481169 91.76617 L 284.481169 91.76617 Z &#10;" stroke-width="0px" /><path d="M 299.144235 93.559936 L 299.143844 93.559327 L 299.143801 93.559327 C 298.305953 92.288422 296.775379 91.556686 295.17618 91.8194 C 293.00719599999996 92.17574400000001 291.53772299999997 94.222873 291.894023 96.391901 C 292.021488 97.16790800000001 292.368047 97.85180700000001 292.856552 98.39715100000001 L 292.855204 98.398195 C 298.411543 107.322754 295.639027 119.189477 295.639027 119.189477 L 303.493684 117.899176 C 305.54729299999997 104.54441 299.998434 94.94712899999999 299.23256 93.70101299999999 C 299.203901 93.65330599999999 299.17472 93.60625199999998 299.144235 93.55993699999999 Z &#10;" stroke-width="0px" /><path d="M 344.918226 85.74107 C 344.889393 85.69305899999999 344.859995 85.64565599999999 344.829292 85.599037 L 344.829162 85.59881999999999 L 344.829162 85.59881999999999 C 343.991271 84.32791499999999 342.460697 83.59617899999999 340.861498 83.858893 C 338.69251399999996 84.215193 337.22304099999997 86.262366 337.579341 88.43135 C 337.706806 89.207357 338.053365 89.89129899999999 338.54187 90.436644 L 338.540522 90.437688 C 344.096904 99.362247 341.324345 111.22896999999999 341.324345 111.22896999999999 L 349.17900199999997 109.93866899999999 C 351.23239399999994 96.585686 345.685187 86.98923199999999 344.91822599999995 85.74107099999999 Z &#10;" stroke-width="0px" /><circle cx="295.72489" cy="95.903579" r="2.722138" stroke-width="0px" fill="#fff" /><circle cx="341.528834" cy="88.100134" r="2.722138" stroke-width="0px" fill="#fff" /><path d="M 341.489136 124.367678 C 344.318559 123.034374 347.99923199999995 121.603976 352.43197899999996 120.60016999999999 C 356.46683199999995 119.68646999999999 360.075836 119.36366399999999 363.01023399999997 119.29823999999999 C 363.78104299999995 119.30225499999999 364.94840899999997 119.421504 365.862258 120.200937 C 368.15000299999997 122.15219599999999 367.175786 126.785675 366.72927 129.250213 C 366.155029 132.41969 362.285685 137.526057 358.944603 139.032828 C 355.40429099999994 140.629448 347.653825 135.49802 347.653825 135.49802 C 347.653825 135.49802 340.956528 131.113448 339.24778299999997 127.496861 C 338.65718599999997 126.24712099999999 339.91495499999996 124.738512 341.48913699999997 124.367679 Z &#10;" stroke-width="0px" /><path d="M 344.40331 128.638976 C 344.232911 128.638976 344.06355299999996 128.567902 343.943114 128.42902600000002 C 343.34419099999997 127.73910400000003 343.54849099999996 126.70451900000002 344.091953 126.10321600000002 C 344.58396799999997 125.55871300000001 345.27597199999997 125.31337500000002 345.781369 125.13405400000002 C 350.667324 123.39884100000002 355.731111 122.04665400000002 360.831774 121.11496200000002 C 352.818229 123.95281300000002 351.013622 124.56843700000002 346.188779 126.28194100000002 C 345.692154 126.45799000000002 345.259912 126.62749700000002 344.99569 126.91982100000001 C 344.799122 127.13750300000001 344.73459 127.48276100000001 344.86291 127.63085700000002 C 345.083417 127.88482000000002 345.056207 128.26933200000002 344.802244 128.489988 C 344.687009 128.589908 344.544713 128.63897500000002 344.403309 128.63897500000002 Z &#10;" stroke-width="0px" fill="#fff" /><path d="M 384.234027 368.740373 C 381.689726 362.640564 374.245511 358.99445599999996 366.90013200000004 360.239651 C 359.56186700000006 360.929263 352.59798400000005 370.93836999999996 349.42996200000005 376.179721 C 347.83247300000005 372.447505 346.81789800000007 366.83214699999996 345.60489900000005 360.117977 C 343.34026100000005 347.5831 340.32012000000003 330.924497 331.123797 314.052029 C 339.12939800000004 283.17383 333.54417800000004 266.425843 330.52852900000005 257.399863 C 329.96208900000005 255.70503499999998 329.515076 254.366619 329.30055500000003 253.33594499999998 C 329.222122 252.95828699999998 329.14425000000006 252.56977199999997 329.066005 252.184533 L 329.390782 249.19190899999998 L 328.553289 249.53615299999998 C 328.182651 247.567277 327.815382 245.54374099999998 327.45429 243.492314 C 328.702667 241.105815 329.867932 238.194245 330.424077 232.694383 L 330.703366 229.93106799999998 L 328.020918 230.65025599999998 C 326.8199 230.971476 325.747295 230.951259 324.965211 230.84830399999998 C 325.145663 230.30095699999998 325.452657 229.72440899999998 325.859236 228.98500399999998 C 326.73267 227.39500299999997 327.82025 225.41639299999997 327.82025 222.37191699999997 L 327.81426 220.00132899999997 L 325.494962 220.49888299999998 C 325.091004 220.58574 323.983768 220.72435499999997 322.988473 220.60633099999998 C 322.365875 208.73326799999998 322.950473 200.26858099999998 334.65235 199.15909899999997 C 338.110518 199.08160199999998 341.238856 200.46007699999996 343.68469400000004 203.15562899999998 C 348.90171000000004 208.90613899999997 350.84363 220.19039199999997 349.19634800000006 235.03501999999997 C 343.79700800000006 235.48203199999998 339.77614400000004 237.18621999999996 337.22997100000003 240.11126799999997 C 334.22443100000004 243.56344599999997 334.15517000000006 247.73630999999997 334.381297 249.91671199999996 C 334.69727600000004 252.96006499999996 337.390581 255.86601899999997 340.93111300000004 256.98355 C 341.686616 257.221657 342.82810700000005 257.47810899999996 344.245893 257.47810899999996 C 347.32443800000004 257.47773499999994 351.70171400000004 256.26922899999994 356.234733 251.04584899999995 C 358.97371300000003 247.88306799999995 359.574596 245.72138599999994 360.483971 242.44891099999995 C 360.619497 241.96258899999995 360.762886 241.44556699999995 360.92387 240.88923499999996 C 361.785323 237.91289699999996 363.483521 234.29299499999996 365.125561 230.79252199999996 C 366.647425 227.54812599999997 368.22132700000003 224.19328699999997 369.156534 221.28471199999996 C 371.530117 213.90451599999994 371.59900300000004 212.53577499999994 371.88914900000003 206.77553099999994 L 371.9191 206.14769199999995 C 372.073345 204.43451899999994 372.11714800000004 202.78349399999996 372.156084 201.32677299999995 C 372.246684 197.93262399999995 372.31781700000005 195.25167299999995 373.594086 194.17532499999996 L 376.623961 191.61941799999997 L 372.739372 190.83134399999997 C 371.995849 190.68046799999996 370.81954 190.38582899999997 369.681793 190.10092399999996 C 369.378169 190.02492399999997 369.07828900000004 189.94967399999996 368.786645 189.87741799999998 C 369.070801 189.122664 369.21044600000005 188.557721 369.333617 188.06054099999997 C 369.545143 187.20620099999996 369.712117 186.53156399999997 370.745038 184.84871599999997 L 373.15643400000005 180.92107299999998 L 368.67096100000003 181.98019999999997 C 366.331072 182.53241399999996 365.75714500000004 182.53765499999997 364.413113 182.09401199999996 C 366.905001 177.27122099999997 366.921099 171.07556999999997 366.92035 170.77306899999996 L 366.88066499999996 166.85665699999996 L 363.78789399999994 169.29650599999997 C 363.6909289999999 169.37287999999995 361.36376899999993 171.15681099999998 356.0718769999999 170.55967099999995 C 354.1909809999999 170.34739599999995 351.6103649999999 169.26842699999995 348.6224209999999 168.01873899999995 C 343.8243389999999 166.01242499999995 337.8525689999999 163.51529599999995 330.99014399999993 162.95447099999996 C 330.88101199999994 162.94211599999994 330.7692589999999 162.93331799999996 330.6591899999999 162.92208699999995 C 344.90143699999993 157.67905199999996 355.2718229999999 150.74231199999994 360.1174509999999 142.97594099999995 C 363.1181239999999 138.16662799999995 364.0158929999999 133.16413299999994 362.7770619999999 128.07290999999995 C 357.3477719999999 107.44183199999995 345.24399599999987 92.45980599999996 326.8011809999999 83.54277099999996 C 320.73506699999984 80.60986099999995 314.43814599999985 78.57097599999996 308.3010859999999 77.17209699999997 C 307.7204189999999 64.05711499999997 304.86406999999986 55.03019899999997 299.7902559999999 50.351170999999965 C 297.1751969999999 47.93940099999997 294.0056769999999 46.75373299999997 290.6216369999999 46.934558999999965 C 278.21760699999993 47.581490999999964 270.2324089999999 57.07619799999996 266.2340079999999 75.95142399999996 C 264.8115429999999 76.18990499999995 259.5505369999999 76.88316799999996 252.6813729999999 80.08226299999995 C 252.3609019999999 78.86748599999996 251.9910119999999 77.66871499999995 251.5988469999999 76.48070599999996 C 248.04932999999988 65.30277699999995 242.6928569999999 57.72743499999996 236.1415429999999 54.82054499999995 C 231.0885069999999 52.577995999999956 225.4027649999999 53.15342099999995 219.6986779999999 56.486170999999956 C 204.38869299999988 65.42941199999996 208.3062279999999 88.78224899999995 216.31239099999988 106.06260699999996 C 221.7896019999999 117.88409899999996 238.45672199999987 153.85773299999997 226.67117099999987 167.48112599999996 C 219.80238099999988 174.92683899999997 216.18622399999987 176.99904399999997 211.99913399999988 179.39808499999995 C 207.47996699999987 181.98768599999994 202.3771379999999 184.91161099999997 192.52714299999988 195.04276699999994 C 190.16404299999988 194.25169699999995 187.45576199999988 194.87055099999995 186.00615399999987 196.20672099999993 L 184.73699799999986 197.37703999999994 L 185.76879499999987 198.76113099999995 C 186.12258599999987 199.23659599999996 185.95935599999987 201.02090199999995 185.44907299999986 202.66593699999996 L 181.64310399999985 204.87628899999996 L 181.20357899999985 208.60401199999995 L 176.96107999999984 207.47899399999994 L 176.46951599999983 209.33143699999994 C 175.08916899999983 214.53497499999995 175.62041699999983 217.92126199999993 177.44365799999983 223.91511999999994 C 178.73228099999983 237.11826899999994 181.27396199999984 248.56275799999995 185.03893599999984 258.19673399999994 C 179.50463199999984 252.56246899999994 175.03974999999983 245.43460699999994 171.94173699999985 237.19183499999994 C 166.99652299999985 224.03529699999993 165.76255899999984 208.91811899999993 168.28065399999986 192.21992499999993 C 169.67185799999984 181.44782699999993 175.43584599999986 170.00333799999993 182.10958299999984 156.75170699999993 C 192.89628199999984 135.33405199999993 206.32050399999986 108.67916399999993 206.32050399999986 73.00503499999992 C 206.32050399999986 52.90782599999992 201.18622699999986 37.66672699999992 191.06031199999987 27.70554099999992 C 180.74758099999985 17.55978399999992 165.43984199999986 12.786036999999919 144.18279699999988 13.146192999999919 C 128.31797799999987 14.025616999999919 113.31423799999988 18.70127599999992 100.79340099999988 26.667004999999918 C 89.10444099999988 34.103357999999915 80.07733799999988 43.98180599999992 74.68810599999988 55.23423699999992 C 66.76243499999988 71.78192899999992 67.85600599999988 89.13678899999992 77.68802999999988 102.84891099999993 L 79.36413899999988 105.18617899999992 L 80.87626899999988 102.73959099999992 C 90.76744599999988 86.73550199999991 99.78743599999987 86.67822099999992 102.31900799999988 87.04436699999992 C 104.83036399999989 87.40564599999992 106.26948899999988 88.71448599999992 106.57985199999989 89.84624299999993 C 107.90366699999988 94.72556599999993 105.03290499999989 97.22643899999993 96.53667599999989 103.73993999999993 C 88.11232799999989 110.19840699999993 75.38108799999989 119.95854999999993 61.912314999999886 139.54210699999993 C 47.026130999999886 161.61530599999992 23.400743999999882 207.06604999999993 32.418486999999885 263.43265599999995 C 36.636276999999886 293.01071999999994 52.54564699999989 319.15869399999997 77.21555999999988 337.060526 C 98.25471499999989 352.32708199999996 124.37198999999988 360.426466 151.32600899999989 360.426466 C 159.1008039999999 360.426466 166.94860299999988 359.752204 174.76046099999988 358.381216 C 188.60623699999988 355.756423 200.5099049999999 350.855011 210.20546799999988 345.524277 C 208.86143599999988 348.844766 207.70122599999988 353.420278 207.70159999999987 359.357605 C 208.41142899999988 379.98494 216.40598599999987 391.19356799999997 223.02019499999986 396.99199899999996 C 225.99166599999987 399.48313799999994 231.66430499999987 403.32280199999997 238.38708599999987 403.32280199999997 C 239.26576099999986 403.32280199999997 240.16278099999988 403.25728499999997 241.07365199999987 403.114271 C 244.83806499999986 402.524619 248.44935499999985 400.29292699999996 250.73346099999986 397.144747 C 252.65703699999986 394.493372 253.46308099999987 391.417823 253.00670999999986 388.477425 C 252.45150099999987 382.891643 248.22173099999986 378.96624599999996 244.13048299999986 375.16963599999997 C 241.49951199999987 372.727915 238.97898399999985 370.38147499999997 237.81465599999984 367.85963699999996 C 241.76251599999983 369.03622699999994 246.17180199999984 369.63065199999994 250.99028799999985 369.63065199999994 C 256.20711599999987 369.63065199999994 261.90502599999985 368.93018299999994 268.00015499999984 367.5378559999999 C 295.84351899999984 382.3325039999999 340.7744339999998 400.49808799999994 351.33257299999985 400.67741699999993 C 351.55345799999986 400.6811609999999 351.77434399999987 400.6830329999999 351.9952289999999 400.6830329999999 C 358.9875649999999 400.6830329999999 366.0057329999999 398.8085009999999 371.82849899999985 395.3754169999999 C 378.52582199999983 391.4264339999999 382.96112699999986 385.8545039999999 384.65483199999983 379.2616339999999 C 385.3448179999998 376.5758159999999 385.8318899999998 372.5706759999999 384.2340259999998 368.7403719999999 Z M 327.016076 259.27626699999996 C 327.033672 259.23405499999996 327.052017 259.18997199999995 327.0698 259.14748 C 329.862129 267.52493599999997 334.53704 282.497883 328.348502 309.272386 C 325.934111 305.358595 323.159003 301.45453699999996 319.955977 297.60616899999997 C 320.928248 287.70928299999997 323.70223200000004 280.181206 325.74579700000004 274.65214299999997 C 327.22048800000005 270.66085499999997 328.286354 267.77698899999996 328.286354 265.316175 L 328.286354 263.002868 L 326.01348 263.432659 C 325.905284 263.45325 325.814683 263.463358 325.738309 263.465979 C 325.78997400000003 262.200193 326.34555700000004 260.875629 327.016075 259.276268 Z M 323.692311 224.50851799999995 C 323.41115 225.47929099999996 322.96301500000004 226.29469499999996 322.499529 227.13817799999995 C 321.710331 228.57393399999995 320.816307 230.20099899999997 320.963813 232.42220799999996 L 321.04131 233.58728499999995 L 322.112417 234.05301599999996 C 322.34378499999997 234.15334999999996 323.96486 234.81151399999996 326.29276799999997 234.75086399999995 C 325.607649 238.97164899999996 324.46203899999995 241.02251399999994 323.25989799999996 243.17483699999994 C 322.184672 245.10028499999993 321.07275699999997 247.09087499999993 320.26409199999995 250.45919099999995 L 320.03534399999995 251.41311699999994 L 320.67516299999994 252.15701399999995 C 321.41980899999993 253.02221099999994 322.88963399999994 254.12551499999995 324.75218499999994 254.38046999999995 C 324.4051329999999 255.58972399999993 323.93790399999995 256.70313699999997 323.4807829999999 257.79371199999997 C 322.5515659999999 260.00893099999996 321.5909019999999 262.29977599999995 321.99635799999993 264.90248099999997 L 322.0858349999999 265.476409 L 322.4785619999999 265.90432799999996 C 322.9723719999999 266.44156599999997 323.5635219999999 266.82867799999997 324.2243059999999 267.05630199999996 C 323.8544159999999 268.70994799999994 323.0715829999999 270.82895099999996 322.1494799999999 273.32308499999994 C 320.27850499999994 278.38622999999995 317.81450899999993 285.06698599999993 316.56369799999993 293.72101699999996 C 316.1432669999999 293.26399 315.70523999999995 292.810052 315.27170499999994 292.35517699999997 L 315.27994099999995 292.346566 C 315.27357699999993 292.340389 315.18765599999995 292.256995 315.05643499999996 292.129612 C 313.38631599999997 290.388173 311.622415 288.66348800000003 309.75031599999994 286.960892 C 308.01617799999997 285.266625 306.09091699999993 283.380582 304.30492699999996 281.619394 C 291.44901799999997 269.189531 277.43439499999994 241.434335 276.78072399999996 214.40918299999998 C 276.19668799999994 204.73664499999998 278.68221099999994 195.951393 283.429377 190.90884 C 286.908885 187.212939 291.648938 185.339156 297.51775299999997 185.339156 C 310.398372 185.339156 313.43835499999994 201.041868 315.65806699999996 212.507322 C 316.30200399999995 215.832959 316.857962 218.705219 317.58388899999994 220.84518699999998 C 318.53144999999995 223.65005799999997 321.25770099999994 224.477817 323.69230899999997 224.50851699999998 Z M 324.827251 250.46462099999997 C 324.63088799999997 250.39872999999997 324.450061 250.31477499999997 324.293569 250.22258299999996 C 324.392593 249.88629399999996 324.496859 249.57228099999995 324.60337 249.26772099999997 C 324.677872 249.66849699999997 324.752374 250.06796299999996 324.827251 250.46462099999997 Z M 269.733732 77.96971899999997 C 273.24992899999995 60.21913699999997 280.147547 51.319697999999974 290.821557 50.76299199999997 C 293.18390899999997 50.63907199999997 295.32649799999996 51.449234999999966 297.19129499999997 53.16952099999997 C 300.11484499999995 55.86525999999997 303.653693 62.07888099999997 304.42828999999995 76.36623999999998 C 301.21627799999993 75.76226799999998 298.07408899999996 75.32526999999997 295.05787899999996 75.01621799999998 C 295.057692 75.01565599999998 295.05731699999995 75.01518799999998 295.05694299999993 75.01462699999998 C 295.00902199999996 75.00966599999998 294.9695249999999 75.00629699999998 294.92291399999993 75.00161699999998 C 294.89464799999996 74.99871599999999 294.86563399999994 74.99506499999998 294.83717999999993 74.99225699999998 C 294.8242639999999 74.99094699999998 294.8104119999999 74.99057199999999 294.79730799999993 74.98926199999998 C 293.28087299999993 74.84063199999999 292.60398999999995 74.83314499999999 291.5018089999999 74.75414999999998 C 282.18661899999995 74.36722599999999 271.32672799999995 77.80817299999998 269.65679599999993 78.35851399999999 L 269.7337319999999 77.96971799999999 Z M 174.07197299999996 354.61006699999996 C 140.22220899999996 360.55038899999994 105.73973899999996 353.021938 79.46709499999996 333.95764899999995 C 55.64478299999996 316.67130099999997 40.283881999999956 291.43270099999995 36.20910699999996 262.85910499999994 C 27.394278999999962 207.76053199999996 50.52061399999996 163.29029399999996 65.08108599999996 141.70004799999992 C 78.19569399999996 122.63126599999993 90.63678799999995 113.09350599999992 98.86907699999995 106.78217099999992 C 106.98343599999995 100.56143699999993 112.34421499999995 96.45184399999992 110.27837399999994 88.83728499999992 C 109.49404299999995 85.97812799999993 106.58397099999995 83.78499799999992 102.86523299999995 83.24963099999992 C 92.29979399999995 81.72776699999993 83.33521299999995 92.34674299999992 79.23310699999995 98.25936099999993 C 71.72337499999995 86.11365499999992 71.29246099999995 71.19864299999992 78.14552699999994 56.890504999999926 C 88.97827499999994 34.27257999999993 114.98286099999994 18.60468599999993 144.32019699999995 16.97649799999993 C 164.42002699999995 16.648164999999928 178.82962299999994 21.05089899999993 188.37187499999996 30.43815799999993 C 197.73779399999995 39.65207799999993 202.48683199999996 53.973692999999926 202.48683199999996 73.00503699999993 C 202.48683199999996 107.76829399999994 189.28985999999998 133.97205099999994 178.68585999999996 155.02730399999993 C 171.85375999999997 168.59229299999993 165.95349699999997 180.30783499999993 164.48404699999998 191.68830399999993 C 157.34888399999997 238.99972799999995 180.810479 260.6609189999999 188.85632699999996 266.5653939999999 C 192.45601199999996 273.3506969999999 196.82823399999995 278.9740099999999 201.96344699999997 283.3999559999999 C 205.83867699999996 287.05804399999994 209.55741499999996 288.4346469999999 212.76212599999997 288.4342729999999 C 215.83992199999997 288.4342729999999 218.44262699999996 287.1636199999999 220.25051799999997 285.4238659999999 C 221.05281899999997 284.6516089999999 221.73419499999997 283.73334299999993 222.28191599999997 282.7271909999999 C 221.58968299999998 288.0186149999999 221.15802099999996 293.5348559999999 221.15802099999996 299.23145499999987 C 221.15802099999996 311.58887499999986 223.55069699999996 321.23389499999985 227.41170099999997 329.26457999999985 C 217.12498899999997 337.74162199999984 198.77296199999995 349.92710699999986 174.07197499999995 354.61006599999985 Z M 220.58128299999996 268.773781 C 214.80288099999996 262.655628 207.70365899999996 263.52363299999996 203.64105099999995 264.81787199999997 C 197.67414799999995 252.68639199999996 204.41414999999995 232.59292599999998 210.46753599999994 226.62527499999996 C 214.68345399999993 222.46963299999996 221.02923199999995 219.52361999999997 227.94631699999994 218.53150699999995 C 231.42226799999995 217.90479099999996 234.14383999999993 218.14514499999996 236.10466599999992 218.60376299999996 C 236.18141399999993 220.10232099999996 235.99927699999992 223.78333999999995 234.23331699999991 232.43793299999996 L 234.2160949999999 232.53602099999995 C 233.6043549999999 236.59956499999996 232.0555349999999 241.88958499999995 230.26224499999992 248.01522599999996 C 228.5999879999999 253.69291899999996 226.67603799999992 260.28672499999993 225.02407699999992 267.562281 C 225.02407699999992 267.562281 221.6544499999999 268.370385 220.58128399999993 268.773782 Z M 224.05049499999996 272.106625 C 223.85300799999996 273.088629 223.66188599999995 274.079525 223.47881299999995 275.08287 C 223.31483399999993 274.285436 223.04490399999995 273.495209 222.68287599999994 272.721454 C 223.14280499999992 272.529115 223.59936399999992 272.32517 224.05049399999993 272.106625 Z M 236.03521699999996 363.181172 C 232.29214399999995 361.81917 228.39519999999996 362.82944 228.39519999999996 362.82944 C 229.72874899999997 363.73020399999996 231.86778199999995 365.50814399999996 233.38009899999997 366.200471 C 233.93175099999996 370.924144 237.77965099999997 374.506233 241.52291099999997 377.97975099999996 C 245.26710699999995 381.454392 248.80352099999996 384.73659999999995 249.19624799999997 388.89973 L 249.21197199999997 389.025148 C 249.61480699999998 391.518533 248.57402499999998 393.592611 247.63020699999998 394.893589 C 245.932009 397.233852 243.25929499999998 398.89124200000003 240.47988199999998 399.327023 C 234.09853799999996 400.328121 228.344284 396.452891 225.51507799999996 394.081554 C 219.50212599999995 388.80987899999997 212.19568299999997 378.483295 211.53414999999995 359.29171599999995 C 211.53414999999995 348.18501399999997 216.08981899999995 342.48523199999994 216.85805199999996 341.6032809999999 C 221.72595599999997 338.53147499999994 225.86624899999995 335.46528499999994 229.22295899999995 332.73734999999994 C 234.15787799999995 341.47748899999993 240.86811699999996 348.28282099999996 247.94206799999995 354.83132699999993 C 250.85813099999996 357.53099699999996 256.11651599999993 360.9454559999999 262.7762129999999 364.6865629999999 C 252.13065599999993 366.5675529999999 243.04945499999994 366.05567899999994 236.03521699999993 363.18117199999995 Z M 380.94170899999995 378.307709 C 377.77855399999993 390.62039 363.3330179999999 397.048157 351.39771399999995 396.844494 C 338.34600299999994 396.622485 264.6114339999999 365.038482 250.54626999999994 352.018219 C 243.58594399999993 345.57454 236.99887699999994 338.871508 232.25395699999993 330.189305 C 231.73281699999993 329.237438 231.25136199999992 328.101188 230.47638999999992 326.648492 C 227.07812299999992 319.233011 224.99169099999992 310.395813 224.99169099999992 299.231456 C 224.99169099999992 279.662874 230.16452899999993 261.99353299999996 233.9412969999999 249.09232299999996 C 235.76678399999992 242.85661399999998 237.3444309999999 237.46850499999996 237.9995999999999 233.15599699999996 C 239.3314649999999 226.62078199999996 239.9347809999999 220.80232099999995 239.9347809999999 219.93235099999995 C 245.3174609999999 220.45152499999995 245.8045319999999 219.85625799999997 247.5804139999999 219.21437999999995 C 246.2375049999999 217.52891099999994 239.2286959999999 215.36404699999994 236.3875099999999 214.73339999999996 L 236.3981799999999 214.75679899999997 C 234.0515529999999 214.27553099999997 231.0207419999999 214.08347299999997 227.33457499999992 214.74762699999997 C 219.6919369999999 215.84231999999997 212.5629519999999 219.17656799999997 207.77647599999992 223.89528099999995 C 200.57560899999993 230.99356699999996 192.82215399999993 254.59386999999995 201.1413009999999 268.22250499999996 L 202.06153199999991 269.71104899999995 L 203.6313159999999 268.93982199999994 C 203.95253599999992 268.78258099999994 211.5569869999999 265.16642399999995 218.0611279999999 272.58256099999994 C 221.03521999999992 275.9737149999999 220.0389889999999 280.30643999999995 217.59202699999992 282.66167799999994 C 214.99381499999993 285.16217699999993 210.20808699999992 285.92853699999995 204.56577399999992 280.58460599999995 L 204.49763599999991 280.52320699999996 C 191.84276999999992 269.63692199999997 183.80066599999992 249.86841999999996 181.24101499999992 223.35504899999995 L 181.2226699999999 223.16299099999995 L 181.1661379999999 222.97842099999994 C 179.6839589999999 218.13391599999994 179.17929199999992 215.50537799999995 179.7577119999999 212.18685499999995 L 184.4928979999999 213.44253299999994 L 185.2259379999999 207.22891199999995 L 188.5811509999999 205.28062699999995 L 188.8226279999999 204.64417699999996 C 189.0846959999999 203.95194399999997 190.0880399999999 201.07818699999996 189.6885739999999 198.59678199999996 C 190.3718209999999 198.47435899999996 191.2220429999999 198.51104799999996 191.8727199999999 198.95281899999995 L 193.2126339999999 199.86106999999996 L 194.3327849999999 198.69224899999995 C 204.4343649999999 188.15151899999995 209.24891999999988 185.39269699999994 213.9051109999999 182.72447499999996 C 218.1813039999999 180.27414399999995 222.2201389999999 177.95971299999997 229.5295769999999 170.03516599999995 C 241.5824369999999 156.10440499999996 229.7440979999999 125.93331999999995 219.7911479999999 104.45127099999995 C 212.46074499999992 88.62987999999994 208.5443329999999 67.44172099999994 221.63235999999992 59.796462999999946 C 226.29304399999992 57.07358099999995 230.6519749999999 56.57902299999995 234.58673199999993 58.324766999999945 C 241.08974999999992 61.210317999999944 246.32660799999994 69.95616599999994 249.45382299999991 83.07414299999995 C 249.4875169999999 83.21593999999995 249.6009549999999 83.59809099999995 249.7632499999999 84.12625099999995 C 250.7579829999999 87.55914799999995 252.3766249999999 92.34553099999995 252.3766249999999 92.34553099999995 C 252.3766249999999 92.34553099999995 253.3095849999999 88.11117499999995 253.2848759999999 84.35967799999995 C 253.2947969999999 83.29764899999995 253.23115199999992 82.30956099999995 253.0467689999999 81.53599399999995 C 260.6995149999999 81.30013299999995 268.7711949999999 79.18356399999995 268.8546819999999 79.16203699999994 L 272.9305809999999 78.59091699999995 C 272.9753199999999 78.58296099999995 277.8967609999999 77.98675799999995 287.4929239999999 78.31434199999995 C 312.0537049999999 79.33808999999995 348.2895939999999 88.08309599999995 359.0609429999999 129.01373799999996 C 360.0380799999999 133.03048399999997 359.2990499999999 137.04498399999997 356.8648169999999 140.94679499999995 C 350.7663189999999 150.72116499999996 334.6557179999999 159.17677299999994 312.5475139999999 164.24983899999995 C 310.2907379999999 164.68646199999995 308.6994269999999 165.07450899999995 308.2490449999999 165.18747899999994 C 303.8927339999999 166.09254799999994 299.8806669999999 166.77822899999995 296.2491599999999 167.13445299999995 C 291.3932359999999 167.58895299999995 286.9051429999999 167.30255099999994 283.5510529999999 166.31680199999994 C 277.43851499999994 164.51995499999992 274.1235479999999 160.94909799999994 274.09771599999993 160.91671399999993 L 272.91990999999996 159.44351999999992 L 273.01388 161.3275979999999 C 273.02585999999997 161.5647689999999 274.00093899999996 167.45286499999992 281.40022799999997 169.9591659999999 C 284.054223 170.8580579999999 287.215693 171.2501289999999 290.75192 171.2578979999999 C 290.848136 171.2587399999999 290.93649 171.2676319999999 291.033455 171.2676319999999 C 291.184331 171.2676319999999 291.344379 171.2581789999999 291.49656600000003 171.2565879999999 C 291.829766 171.25228299999992 292.16708400000005 171.24367199999992 292.50664900000004 171.23262799999992 C 292.91865700000005 171.2198989999999 293.332349 171.20576599999993 293.75446500000004 171.18283499999993 C 294.071567 171.1657069999999 294.39540700000003 171.1412789999999 294.71737600000006 171.11900299999994 C 295.09849700000007 171.09204699999992 295.47587400000003 171.06874199999993 295.86523200000005 171.03420499999993 C 295.94141900000005 171.02765299999993 296.014423 171.02428399999994 296.09098400000005 171.01754499999993 C 296.09061 171.0152989999999 296.09098400000005 171.01323999999994 296.09079700000007 171.01099299999993 C 300.05119900000005 170.64634499999994 304.42772600000006 169.90207299999992 309.23254700000007 168.89882199999994 L 309.2497690000001 168.96592999999993 C 309.3652660000001 168.93654099999992 320.0214930000001 166.24482699999993 328.5564710000001 166.61518399999994 C 329.2017190000001 166.64831699999993 329.8370450000001 166.69586299999995 330.4514060000001 166.76755799999995 C 332.29317900000007 166.92517299999994 334.07767200000006 167.24480199999996 335.79777100000007 167.66223799999995 C 335.80993800000005 167.64716899999993 335.8232290000001 167.63331699999995 335.83539600000006 167.61834199999996 C 340.05973700000004 168.60745999999995 343.88985400000007 170.19521499999996 347.1436100000001 171.55590699999996 C 350.4022320000001 172.91865799999997 353.21683800000005 174.09571599999995 355.64208500000007 174.36938899999996 C 358.7576930000001 174.71981099999996 361.13913800000006 174.38960599999996 362.85156300000006 173.88980499999997 C 362.5011410000001 176.47940599999995 361.69172700000007 179.80766399999996 359.9965250000001 181.91206599999998 L 358.2552740000001 184.073749 L 360.8935450000001 184.93632599999998 C 361.4513740000001 185.119025 361.92234700000006 185.28562499999998 362.3371630000001 185.43200799999997 C 363.7235000000001 185.92169999999996 364.66394800000006 186.22008199999996 365.8518630000001 186.24142199999997 C 365.75564700000007 186.55927199999996 365.6837650000001 186.85091599999998 365.6122580000001 187.13956499999998 C 365.41421000000014 187.93887099999998 365.2273930000001 188.694 364.3745510000001 190.31956699999998 L 363.1873850000001 192.58120999999997 L 365.6908790000001 193.08887199999998 C 366.4347760000001 193.239748 367.6122080000001 193.53476099999997 368.75033000000013 193.81966599999998 C 368.9161810000001 193.861222 369.0805350000001 193.902404 369.2430170000001 193.943212 C 368.46430200000015 195.95888599999998 368.3972880000001 198.467995 368.3239090000001 201.224945 C 368.2845990000001 202.69327199999998 368.2441660000001 204.211392 368.0959100000001 205.878515 L 368.0603440000001 206.582728 C 367.7776850000001 212.197712 367.7267690000001 213.209667 365.5070580000001 220.111028 C 364.6467280000001 222.78673700000002 363.1256130000001 226.028887 361.6546650000001 229.16433800000001 C 359.9497290000001 232.799215 358.1867630000001 236.55763700000003 357.2414480000001 239.82374700000003 C 357.0763450000001 240.39355700000002 356.9292130000001 240.923682 356.79031700000013 241.42235900000003 C 355.9385980000001 244.48705100000004 355.5110530000001 246.02538800000002 353.3381390000001 248.53449700000002 C 348.39255000000014 254.234091 344.16540100000014 253.984753 342.08496000000014 253.32733800000003 C 339.73758400000014 252.58681 338.32878400000016 250.81373600000003 338.19475500000016 249.52136900000002 C 338.03264800000017 247.959447 338.06746500000014 244.987601 340.1213260000002 242.62861900000001 C 342.1946540000002 240.2468 345.84712700000017 238.94881700000002 350.9776600000002 238.770611 L 352.6088430000002 238.713705 L 352.81288100000023 237.094502 C 355.5159200000002 215.62331 350.88518700000026 205.38657800000001 346.5240090000002 200.579885 C 343.2889730000002 197.013895 339.1408180000002 195.19739199999998 334.4842530000002 195.32842599999998 L 334.3622040000002 195.33591399999997 C 325.3242440000002 196.16966299999999 321.4705410000002 200.77755899999997 319.92041200000017 206.46489199999996 C 319.91386000000017 206.44851299999996 319.90581100000014 206.43278899999996 319.8994470000002 206.41631599999997 C 319.7291030000002 207.06820899999997 319.5808480000002 207.79404199999996 319.4520600000002 208.57519099999996 C 319.3393710000002 209.22006399999995 319.2497060000002 209.87317399999995 319.18007100000017 210.53255499999997 C 316.83456700000016 198.50955199999999 313.0177400000002 181.50548799999999 297.5177570000002 181.50548799999999 C 290.5497560000002 181.50548799999999 284.8707530000002 183.785101 280.6379880000002 188.28105699999998 C 272.77072100000015 196.63764199999997 272.6434310000002 209.49879199999998 272.95117300000015 214.57129599999996 C 273.63367200000016 242.84800699999997 287.90025300000013 271.09102399999995 301.62660100000016 284.36212299999994 C 303.2751930000002 285.98806499999995 305.0428380000002 287.72033099999993 306.67102600000015 289.3120169999999 L 306.66054300000013 289.3238099999999 C 306.80879800000014 289.4569029999999 306.94750700000014 289.59224199999994 307.09445200000016 289.72570899999994 C 309.5052860000002 292.0809469999999 311.53780700000016 294.05637499999995 312.29256100000015 294.78950899999995 C 333.98332800000014 317.43607399999996 338.66385400000013 343.26170499999995 341.83225000000016 360.799357 C 343.2996410000002 368.92139099999997 344.49729000000013 375.517256 346.9406950000002 379.744405 C 346.9946060000002 379.837626 346.9245970000002 379.685814 347.1043000000002 380.02088599999996 C 345.9850840000002 383.57629999999995 348.4747260000002 386.715401 348.4747260000002 386.715401 C 348.4747260000002 386.715401 349.5029670000002 383.73868799999997 351.1247900000002 380.946359 C 351.27154800000017 380.67137499999995 351.2206320000002 380.76572 351.27154800000017 380.67137499999995 C 353.80780000000016 375.963332 361.1932370000002 364.56545399999993 367.3078340000002 364.05198899999994 L 367.4763060000002 364.03027499999996 C 372.3507620000002 363.18042699999995 378.6299000000002 365.26274099999995 380.6961150000002 370.216192 C 381.8851530000002 373.066738 381.4860610000002 376.18946 380.94171000000017 378.307714 Z &#10;" stroke-width="0px" fill="#0c0c0c" /></g></g></svg>