<?xml version='1.0' encoding='utf-8'?>
<svg viewBox="0 0 216 216" width="216px" height="216px" version="1.1" xmlns="http://www.w3.org/2000/svg" xmlns:xlink="http://www.w3.org/1999/xlink"><g isolation="isolate"><g id="Layer_1"><path d="M 128.3127375 114.028823 L 130.56187599999998 119.975787 L 133.8781895 115.91954 L 135.2413705 112.5841135 L 132.9789945 112.019505 L 132.681141 109.1729965 L 131.8560475 107.3311325 L 132.3447195 104.852347 C 132.3447195 104.852347 128.849217 104.3051225 128.704986 104.5489875 L 128.312737 114.02882249999999 Z M 98.649066 40.39743 C 98.4016605 41.358328 98.212247 42.329402 98.08499950000001 43.294627 C 98.31244400000001 41.5057535 98.64719600000001 40.403518 98.649066 40.39743 Z M 107.99355700000001 107.649114 C 110.08376600000001 108.88054149999999 116.036657 109.384672 117.7885475 114.79308 C 118.83128950000001 118.012217 118.9470885 121.759415 117.25299000000001 125.0009805 C 115.6373525 128.384965 114.01021200000001 133.4654755 115.67797050000001 137.17371 C 115.43719700000001 137.210023 115.20140300000001 137.2437265 114.97084900000002 137.274951 C 106.08693000000001 119.90324849999999 105.67998650000001 110.74288249999998 107.99355650000001 107.64911399999998 Z M 58.80712750000001 106.4602235 L 59.08741500000001 108.560847 L 62.13756850000001 104.8523465 L 63.101566500000004 109.17294749999999 L 64.69716100000001 107.5168355 C 62.588958000000005 112.9544495 61.362935500000006 122.4189995 61.73832750000001 131.5808025 C 60.76048300000001 133.77605350000002 59.65098900000001 136.0297595 58.45698100000001 138.34665 C 53.60196850000001 147.7672745 42.273550000000014 158.35665 42.273550000000014 167.3299125 C 42.273550000000014 170.77162850000002 46.68719750000001 177.2519615 50.51237300000001 180.5706865 C 52.81448100000001 182.567936 56.61059800000001 184.4719285 60.32574900000001 185.563979 C 58.46918700000001 188.51508299999998 55.24211400000001 190.58565399999998 51.77159300000001 190.9782785 C 50.00955500000001 191.177632 48.07139350000001 191.0167975 46.63689450000001 192.0591785 C 44.735225000000014 193.441136 44.70565950000001 196.482456 46.09378350000001 198.379691 C 47.481907500000005 200.276588 49.85716800000001 201.196654 52.17574750000001 201.5842105 C 53.82691650000001 201.860264 55.53206250000001 201.91365000000002 57.167139500000005 201.55447650000002 C 60.6594965 200.78747300000003 63.536730000000006 198.1783105 65.35620850000001 195.100499 C 67.17560250000001 192.02234950000002 68.065808 188.491431 68.76941550000001 184.98585450000002 L 68.6368795 184.98044850000002 C 70.20315400000001 181.07785500000003 69.114356 170.74594900000002 73.457554 169.73803250000003 C 77.5164205 168.79600400000004 86.2410825 170.45266350000003 94.797815 177.86150950000004 C 97.40664 180.12062150000003 104.2723325 189.80547350000003 106.712974 193.22319950000005 C 106.9168885 193.22826800000004 107.112863 193.22387550000005 107.313568 193.22522700000005 L 105.999357 193.27928900000003 C 106.7030065 196.78520350000002 107.5931695 200.31578350000004 109.412606 203.39393350000003 C 111.23204249999999 206.47208300000003 114.1093185 209.08090800000002 117.60163299999999 209.84824900000004 C 119.236752 210.20708500000003 120.9418985 210.15369900000005 122.59306699999999 209.87764500000003 C 124.91156249999999 209.49042650000004 127.28690749999998 208.57036050000002 128.675031 206.67312550000003 C 130.063155 204.77589050000003 130.03359 201.73457050000002 128.131878 200.35261300000002 C 126.697379 199.310232 124.75926 199.471066 122.9971795 199.2720505 C 119.1806625 198.84023100000002 115.65261650000001 196.3827795 113.9250005 192.952214 L 110.482862 193.0944645 C 115.095694 192.668051 118.76844 191.27291599999998 121.659823 189.573345 L 121.660499 189.576048 C 139.3390795 200.09277799999998 182.3840965 201.52677 201.5769175 161.00129049999998 C 215.2435135 127.54170249999999 202.5236765 88.84588099999998 187.71561400000002 70.11309299999998 C 177.30768400000002 56.94665399999998 166.42147450000002 51.85469849999998 169.9926015 47.27835849999998 C 175.0745895 40.76592649999998 184.4105735 55.37007399999998 184.4105735 55.37007399999998 C 194.1205985 36.24432399999998 181.735185 6.92351249999998 147.335849 8.290940499999984 C 123.281427 9.247160499999984 109.378395 36.39130449999998 137.625824 92.73901349999997 C 147.396753 120.17847099999997 135.362066 130.86583349999998 124.1591725 135.025221 C 122.9203945 135.02995149999998 121.404972 135.326954 119.5764125 136.025704 C 119.553774 135.02758599999999 119.7755125 133.949051 120.331505 132.7948295 C 121.437409 130.498888 123.45619850000001 128.6996405 125.4934875 126.92911299999999 C 135.3758345 119.75307099999999 135.890774 99.5356085 114.1462315 90.09977899999998 C 113.098022 89.64464549999998 111.308742 85.99141199999998 110.306316 83.78467299999998 C 109.792221 82.20775499999998 109.1538685 80.42844249999999 108.37284249999999 78.41396049999999 C 105.51102499999999 64.08552849999998 126.62971649999999 40.68719849999999 115.87747949999999 30.000511999999986 C 108.682938 22.850149499999986 101.03115149999999 31.146286499999988 98.64921799999999 40.39661599999999 L 90.44540849999998 37.776302999999984 C 88.08898549999998 26.084740499999985 83.33204449999998 24.667304999999985 80.53670599999998 23.931724999999986 C 75.83606549999998 22.694720999999987 71.41625149999999 26.738551499999986 71.41625149999999 38.400041999999985 C 67.02481999999999 40.62570299999999 52.489558999999986 40.72605549999999 44.05045349999999 63.057338499999986 C 42.782617499999986 72.31138499999999 50.90622099999999 78.34672049999999 67.55331699999999 82.10773999999998 C 67.72251399999999 82.79973249999998 67.61600999999999 83.98375249999998 68.303806 84.05802299999998 C 58.182554499999995 82.96509349999998 60.01916549999999 83.15158399999997 46.739859499999994 85.17571249999997 C 41.457525499999996 85.88698349999997 36.132960999999995 85.90071149999997 28.640936499999995 78.44289699999997 C 21.509358999999996 71.34388349999998 21.042991999999995 69.46719899999998 12.706535999999995 68.00707099999997 C 7.104219499999995 67.02582649999997 7.186016499999995 74.24511599999997 8.310357999999994 75.58928399999996 C 9.308825499999994 76.78296699999996 12.087814499999993 78.96280599999996 15.344242999999993 77.10352299999997 C 19.382202499999995 74.61701349999997 21.28933049999999 79.11801299999996 21.28933049999999 79.11801299999996 C 21.419585999999992 79.37852399999996 24.750908999999993 84.07869549999997 30.22171849999999 95.53545799999996 C 30.22171849999999 95.53545799999996 31.800124499999992 96.65212399999996 33.68358099999999 94.57159649999997 C 32.83163799999999 97.40561249999998 34.91096499999999 100.81075749999997 34.91096499999999 100.81075749999997 C 34.91096499999999 100.81075749999997 35.10635049999999 98.76641099999996 36.27866499999999 97.93241999999996 C 38.834009499999986 100.39013799999996 40.006323499999986 104.43765049999996 40.006323499999986 104.43765049999996 C 40.006323499999986 104.43765049999996 41.76479449999999 101.70225099999996 41.35869249999999 99.14997899999996 C 45.97857599999999 100.30998899999996 55.38438449999999 105.48550849999995 56.42946999999999 109.17294699999997 &#10;" stroke-width="0px" fill="#c56439" /><path d="M 60.748846 131.7418405 L 60.1366165 127.40213299999999 L 61.7409035 128.74479399999998 C 61.739077 128.21745349999998 61.7408165 127.69811499999999 61.746296 127.18677849999999 L 59.90117 118.64461299999999 L 60.3724975 118.439 C 60.3724975 118.439 61.127891 119.039401 61.262009 119.240578 C 61.396127 119.441755 60.6643915 113.8778495 60.6643915 113.8778495 C 60.6643915 113.8778495 61.807179500000004 113.894027 62.9481415 113.9003765 C 66.317188 96.56563949999999 76.040672 94.5660425 83.251484 94.571609 C 88.78503500000001 94.57587099999999 99.4981415 96.13954 101.63133450000001 109.0663795 C 103.7647015 121.9932195 84.50055800000001 154.7355485 92.57226600000001 176.06417349999998 L 92.79753600000001 176.621695 C 92.79753600000001 176.621695 82.39571950000001 168.456922 73.45476550000001 170.123919 C 71.7110545 170.93576050000001 72.70302500000001 170.0358985 72.70302500000001 170.0358985 C 72.70302500000001 170.0358985 65.47707950000002 161.715785 62.80758750000001 144.1345555 L 61.41769800000001 141.2898055 L 59.901170500000006 136.492774 L 61.73820750000001 135.596652 L 60.748846500000006 131.74184 Z &#10;" stroke-width="0px" fill="#e7caae" /><path d="M 53.563498 60.438097 C 55.049847500000006 60.6759445 56.553277 60.918599 57.938753000000005 61.507039 C 59.8972435 62.33885 61.520331500000005 63.8190825 63.45772050000001 64.6989225 C 69.18810950000001 67.30130399999999 77.08720550000001 64.5700165 82.873188 67.046335 C 86.8858725 68.763707 88.692531 72.86923 88.208698 77.207076 C 87.7053745 81.7196635 83.7845025 84.937844 79.246517 84.7846455 C 77.41063 84.7226675 75.5135045 84.19448349999999 73.720305 83.79603999999999 C 67.644111 82.445928 52.0554825 80.17330799999999 45.259739499999995 70.4988255 C 44.840934 69.90261 44.0282175 67.0482495 44.15886499999999 65.5216525 C 44.36858599999999 63.071087500000004 44.83972949999999 60.0468925 45.393390999999994 59.796213 C 47.652938999999996 58.773165 51.06377249999999 60.0380875 53.563498499999994 60.4380965 Z &#10;" stroke-width="0px" fill="#e7caae" /><path d="M 78.626346 60.192234 C 76.7013125 59.7020915 75.01732849999999 59.2875285 73.098779 59.2344 C 73.09878049999999 59.2343775 71.98124949999999 59.1846315 71.98124949999999 59.1846315 C 71.18513149999998 59.163505 70.451309 59.107644 69.63106549999999 59.2538275 C 69.816572 58.830279 70.181969 58.5212265 70.54792749999999 58.2657575 C 73.13597199999998 56.605548999999996 77.25958399999999 57.273213999999996 78.62634599999998 60.1922345 L 78.62634599999998 60.1922345 Z &#10;" stroke-width="0px" /><path d="M 58.8071155 40.5951055 C 57.9716935 40.265508000000004 56.5537145 39.6590605 55.7296885 39.439670500000005 C 55.3190015 39.318479 54.6762885 39.17603150000001 54.250508 39.0646685 C 53.67153450000001 38.9280315 53.172618500000006 38.770002000000005 52.530789000000006 38.7581385 C 52.656391000000006 38.407216500000004 52.946537000000006 38.155257 53.240052500000004 37.9586595 C 55.343542500000005 36.631848000000005 58.6883945 37.991169000000006 58.8071155 40.5951055 L 58.8071155 40.5951055 Z &#10;" stroke-width="0px" /><path d="M 56.4294145 55.6812095 C 54.5043665 55.1910995 52.8203975 54.776546 50.9018475 54.7233755 C 50.901849000000006 54.723353 49.784318 54.673606500000005 49.784318 54.673606500000005 C 48.988195 54.65257150000001 48.254374999999996 54.5965495 47.434134 54.74284900000001 C 47.6196405 54.319300500000004 47.9850375 54.01020100000001 48.350996 53.754732000000004 C 50.939041 52.09453500000001 55.062615 52.7622275 56.4294145 55.681209 L 56.4294145 55.681209 Z &#10;" stroke-width="0px" /><path d="M 102.202098 49.3985995 C 102.209804 48.519264500000006 102.21751 47.6399295 102.2252165 46.7605945 C 102.25104350000001 43.813503000000004 102.290442 40.7917755 103.3509735 38.041996000000005 C 104.41150499999999 35.2922165 106.7278225 32.828491500000005 109.652147 32.461963000000004 C 112.516267 32.10298100000001 115.4965015 34.052087500000006 116.315628 36.819954 C 116.315628 36.819954 105.786869 31.434431500000002 102.202098 49.3986 Z &#10;" opacity=".35" fill="#754123" mix-blend-mode="multiply" stroke-width="0px" /><path d="M 116.315587 36.819976 C 114.33276 32.880731 109.9595925 31.584650499999995 106.52947599999999 34.5494485 C 104.96980199999999 35.864405999999995 104.23571449999999 37.7439215 103.556671 39.64550199999999 C 102.85296299999999 41.63700349999999 102.47849099999999 43.69429199999999 102.20215499999999 45.803 C 101.72998199999999 43.151526999999994 101.99116249999999 40.319032 102.83812499999999 37.731596999999994 C 103.61080899999999 34.95358949999999 105.74089049999999 32.44475049999999 108.6299205 31.767843499999994 C 112.1848155 30.846358499999994 115.6975575 33.267098999999995 116.31558749999999 36.8199755 L 116.31558749999999 36.8199755 Z &#10;" stroke-width="0px" /><path d="M 55.9913125 71.460035 C 58.2837485 75.76881250000001 66.78831149999999 81.81468650000001 68.28382500000001 72.1231905 L 65.5978175 72.65866000000001 L 60.112269500000004 72.39485250000001 L 55.99131250000001 71.46003500000002 Z &#10;" stroke-width="0px" /><path d="M 184.410583 55.3700055 C 181.28115 33.282565 166.09206 31.993324499999996 161.0802705 35.8923335 C 155.91872650000002 39.848135 150.75543850000003 49.031951 161.06256000000002 68.58965549999999 C 174.33929350000003 93.7821815 188.52363050000002 161.2330465 127.56608950000002 160.3277365 C 127.56608950000002 160.3277365 133.40058050000002 171.43301849999997 131.03658000000001 180.7676975 C 127.11343450000001 185.7267115 121.98842600000002 189.739924 121.98842600000002 189.739924 C 121.98842600000002 189.739924 145.77288000000001 201.0772805 168.6059045 191.9423335 C 206.02629050000002 176.1874265 210.4522505 140.10914599999998 206.5452265 116.50657449999999 C 205.81592400000002 112.14264399999999 201.57684550000002 79.01041749999999 174.7645875 56.582380999999984 C 161.69962950000001 46.56044499999999 176.85519 39.31796449999999 184.410583 55.370004999999985 Z &#10;" fill="#754123" mix-blend-mode="multiply" stroke-width="0px" opacity=".25" /><path d="M 124.1655155 210.237701 C 124.3794785 210.237701 124.591006 210.14167849999998 124.7313865 209.9590275 C 125.884873 208.45537249999998 126.3503725 206.7415815 126.00838 205.256714 C 125.7286625 204.04217 124.917169 203.04437199999998 123.7234995 202.4473635 C 123.372113 202.2716705 122.94366550000001 202.4136165 122.76745050000001 202.7660465 C 122.59158350000001 203.11812849999998 122.73422550000001 203.5460545 123.0861335 203.7220955 C 123.90423750000001 204.1312345 124.434448 204.7724275 124.6197085 205.576441 C 124.865853 206.645212 124.494462 207.92655399999998 123.6006885 209.09134749999998 C 123.3611545 209.40376799999999 123.4201245 209.85082899999998 123.7323715 210.09053699999998 C 123.861619 210.18969049999998 124.0141765 210.2377015 124.165516 210.2377015 Z &#10;" stroke-width="0px" /><path d="M 50.195922 201.8207825 C 50.384487500000006 201.8207825 50.572531500000004 201.7463305 50.712564 201.5991655 C 50.9837575 201.3138815 50.972103 200.86264599999998 50.686819 200.5916265 C 49.3719035 199.3422915 48.785158 198.0880865 48.9897275 196.963998 C 49.190818 195.85974050000002 50.0760675 195.1559245 50.473378000000004 194.988233 C 50.8358975 194.83515400000002 51.00550200000001 194.41696950000002 50.852423 194.05445 C 50.699344 193.6919305 50.281681 193.522152 49.918814000000005 193.675231 C 49.1443725 194.0026115 47.8842525 195.08042799999998 47.587836 196.708634 C 47.382049 197.83828849999998 47.582617500000005 199.6080925 49.705373 201.6249105 C 49.8431445 201.7557235 50.019707000000004 201.8207825 50.195922 201.8207825 Z &#10;" stroke-width="0px" /><path d="M 64.161945 186.737807 C 61.478459 189.197067 55.277344 190.5635095 53.775909 190.5592705 C 53.775909 190.5592705 59.3933185 188.0905765 60.5364785 186.2296615 L 64.161945 186.7378065 Z &#10;" fill="#754123" mix-blend-mode="multiply" stroke-width="0px" opacity=".25" /><path d="M 49.216359 194.4528945 C 47.4210065 194.8552545 47.496449 196.2132195 46.7168765 196.439547 C 45.937304 196.6658745 45.5097965 194.839037 45.534943999999996 194.331622 C 45.122286499999994 194.628927 45.55732449999999 197.09338200000002 45.873051499999995 198.048987 C 46.1887785 199.004592 49.105889 200.3374095 49.105889 200.3374095 L 48.452054 198.250167 L 48.753823999999994 195.50908950000002 L 49.216359 194.4528945 Z &#10;" fill="#754123" mix-blend-mode="multiply" stroke-width="0px" opacity=".25" /><path d="M 48.625898 195.8718235 C 48.7494705 199.126539 54.638343 198.3507495 56.04291 198.2501605 C 57.4474765 198.149572 61.47846 197.6466285 65.0996955 190.10236949999998 C 66.6845215 186.80062149999998 67.1133825 182.708972 67.63067699999999 179.0796255 L 67.63065549999999 179.079604 C 67.63069899999999 179.079278 67.63078599999999 179.0789515 67.63082949999999 179.0786255 C 67.89223849999999 177.24478499999998 68.17708749999998 175.53025449999998 68.64428299999999 174.0941155 C 70.70471999999998 166.1079055 74.07096099999998 163.5915145 80.18819199999999 162.74188199999998 C 87.43068499999998 161.73599549999997 100.02414249999998 174.71634749999998 105.9994055 188.39447149999998 C 108.303073 192.952295 107.4983635 191.963282 108.80605999999999 197.39515699999998 C 110.11371249999999 202.82701049999997 113.91403349999999 207.00148349999998 117.82294499999999 207.35356549999997 C 121.73185649999999 207.70562599999997 124.79987599999998 207.40385999999998 124.95073699999999 205.2914545 C 125.04149749999999 208.0128935 124.95073699999999 209.27416549999998 124.95073699999999 209.27416549999998 L 122.78805899999999 210.1011845 L 116.46184499999998 209.52524599999998 L 111.16991549999999 206.304995 L 106.76858499999999 196.6827735 L 104.98360349999999 191.30945549999998 L 94.30433099999999 177.59567149999998 L 84.11121549999999 171.493227 L 75.99695399999999 169.74966849999998 L 72.37569649999999 170.4873185 L 70.52774399999998 173.46603449999998 L 69.49213299999998 181.61928299999997 L 69.41413649999998 181.51286699999997 C 69.07270899999999 183.74566999999996 68.58955299999998 186.27726049999998 67.81056699999998 189.09085099999996 C 64.72073799999998 200.25073549999996 56.951904999999975 203.27965899999995 51.97270049999997 201.80759849999995 C 46.99349599999997 200.33551599999996 48.62589849999998 195.87182349999995 48.62589849999998 195.87182349999995 Z &#10;" fill="#754123" mix-blend-mode="multiply" stroke-width="0px" opacity=".25" /><path d="M 118.884258 137.438004 L 117.82344950000001 137.946461 C 117.82344950000001 137.946461 117.77137700000002 136.2364555 120.0721345 135.4737255 C 122.37289200000001 134.7109955 119.292562 136.890266 119.292562 136.890266 L 118.8842575 137.438004 Z &#10;" stroke-width="0px" /><path d="M 125.266208 182.0494045 C 123.175076 182.099921 121.057325 181.93734 119.0105915 182.36892550000002 C 116.5373265 182.89045000000002 114.26081500000001 184.29912950000002 112.6904315 186.27976650000002 C 111.120048 188.26040350000002 110.2675665 190.79815050000002 110.32373150000001 193.32517900000002 C 111.30920850000001 193.66834100000003 112.3931405 193.435266 113.40255300000001 193.17067050000003 C 118.7789855 191.76135750000003 124.15148200000002 189.36092250000002 127.6066425 185.00729850000002 C 128.7660395 183.54641800000002 129.6959685 181.90459400000003 131.0659955 180.618702 C 129.298324 181.68130100000002 127.30550800000002 182.00014000000002 125.26620800000002 182.0494045 Z &#10;" fill="#754123" mix-blend-mode="multiply" stroke-width="0px" opacity=".25" /><path d="M 55.2734855 175.789853 C 51.8547045 172.788757 46.809427 172.577021 42.851991 170.3335055 C 44.003628 173.0605215 45.502891999999996 175.640512 47.302011 177.9912685 C 48.218479 179.18874 49.222652000000004 180.3364885 50.433279 181.23550699999998 C 51.650338 182.1393015 53.044953 182.76941649999998 54.434606 183.37517449999999 C 56.768371 184.39247699999999 59.123234000000004 185.36137699999998 61.497248 186.2810725 C 62.109747 186.5183515 63.1480145 186.947148 63.711802 186.5462315 C 63.305347 185.7099235 62.003817 185.035914 61.365769 184.2878305 C 60.6022015 183.3925805 59.973626 182.39160750000002 59.359984 181.39087450000002 C 58.153940999999996 179.42404800000003 57.0310255 177.332668 55.2734855 175.78985300000002 Z &#10;" fill="#754123" mix-blend-mode="multiply" stroke-width="0px" opacity=".25" /><path d="M 116.5160995 135.829932 C 116.882773 137.14723800000002 117.384956 138.51627200000001 118.4596625 139.3617005 C 119.87551599999999 140.47549650000002 121.86287999999999 140.37998850000002 123.65810699999999 140.2305125 C 125.17115299999999 140.104532 126.68419949999999 139.9785515 128.19724549999998 139.852571 C 128.3526485 139.83963150000002 128.53332299999997 139.8363605 128.63518349999998 139.9544365 C 128.73553449999997 140.0707625 128.70832699999997 140.24632050000002 128.6725525 140.39572700000002 C 128.2582495 142.12598300000002 127.250563 143.94566600000002 125.52116699999999 144.36354250000002 C 124.59917949999999 144.58632400000002 123.63059949999999 144.36607750000002 122.7254895 144.08240700000002 C 120.95306 143.52690950000002 119.2224765 142.69971300000003 117.917187 141.37821900000003 C 116.3040805 139.74508200000002 115.51214399999999 137.49764250000004 115.290921 135.24747900000003 C 115.25032999999999 134.83461100000002 115.0008635 132.20491300000003 115.535474 132.25178500000004 C 115.9161675 132.28516250000004 116.38737499999999 135.36747600000004 116.5161 135.82993200000004 Z &#10;" fill="#754123" mix-blend-mode="multiply" stroke-width="0px" opacity=".25" /><path d="M 125.830959 124.3930555 C 123.6937275 125.87911100000001 121.43478599999999 127.3317835 119.97802499999999 129.4890895 C 118.38745149999998 131.8445575 117.93338499999999 134.798612 117.97698299999999 137.640487 C 118.69767749999998 137.5644645 119.27509149999999 136.977711 119.58675749999999 136.32346 C 119.89842349999999 135.66920900000002 120.00348249999999 134.93948300000002 120.18221299999999 134.2371755 C 120.65483099999999 132.380056 121.67493549999999 130.665817 123.08175899999999 129.3646215 C 124.354704 128.187253 125.917908 127.3549885 127.172136 126.1576875 C 129.101099 124.316273 130.2516935 121.69528849999999 131.048084 119.191307 C 129.802807 121.4065085 127.88969499999999 122.9615785 125.830959 124.39305499999999 Z &#10;" fill="#754123" mix-blend-mode="multiply" stroke-width="0px" opacity=".25" /><path d="M 117.357491 126.689418 C 119.662381 124.560997 120.5828085 121.29650000000001 120.7560975 118.1639825 C 120.9657175 114.374705 120.11946499999999 110.33538850000001 117.5101495 107.5796605 C 114.900834 104.8239325 110.25120199999999 103.844306 107.20673149999999 106.11008650000001 C 105.203049 107.60128350000001 104.22781649999999 110.16799100000001 104.09671949999999 112.66222850000001 C 103.9656225 115.15646600000001 104.57081199999999 117.62468700000001 105.18989249999998 120.04442800000001 C 106.66991849999998 125.82926350000001 108.25528949999999 131.58714700000002 109.94495449999998 137.31426050000002 C 111.25666999999999 141.76031700000001 114.29063099999998 145.73672100000002 117.60168899999998 148.98093300000002 C 120.91274699999998 152.22514500000003 124.62086849999997 155.0807775 127.60099349999997 158.63139300000003 C 123.23147649999997 151.39610800000003 118.86195899999997 144.16082200000002 114.49244099999997 136.92553650000002 C 110.14644949999997 129.72920700000003 107.29097149999997 121.63433700000002 106.94772599999997 113.23451650000001 C 106.87860599999998 111.5430285 106.25438399999997 109.110003 107.47940249999998 107.94156900000002 C 108.55056499999998 106.91988350000001 110.22495849999997 108.52340200000002 111.61752549999997 109.02538550000001 C 113.01009249999997 109.5273695 115.00160399999997 110.93105800000001 115.83982999999998 112.15114250000002 C 119.00522499999998 116.75855200000002 118.48491549999997 121.21430550000002 117.35749049999998 126.68941750000002 Z &#10;" fill="#754123" mix-blend-mode="multiply" stroke-width="0px" opacity=".25" /><path d="M 80.7954375 31.9442425 C 79.656248 31.508008500000003 78.43026900000001 31.319474500000002 77.3105615 30.835422 C 75.900631 30.2259055 74.6991435 29.1454215 73.943939 27.8078565 C 72.676044 31.166305 71.919198 34.717158 71.70744 38.300717 C 71.69411050000001 38.5262935 71.700815 38.7918545 71.88382750000001 38.9244025 C 71.99281800000001 39.003339 72.1365935 39.0110205 72.27115950000001 39.009648999999996 C 73.13377200000001 39.000859 73.97118200000001 38.74305699999999 74.80857050000002 38.535773999999996 C 77.78007400000001 37.80022399999999 80.86070050000002 37.6902975 83.90804000000001 37.7616035 C 84.68149700000001 37.779702 85.45471650000002 38.420993 86.22756250000002 38.456390999999996 C 87.09548600000002 38.496143499999995 88.29456250000001 39.118334999999995 87.63917250000002 38.261258 C 86.85820500000001 37.239958 85.76063400000001 35.5201475 84.82265250000002 34.640018 C 83.78583200000001 33.667145999999995 82.13013850000002 32.455344 80.79543750000002 31.944242499999998 Z &#10;" opacity=".35" fill="#754123" mix-blend-mode="multiply" stroke-width="0px" /><path d="M 88.283642 75.892083 C 85.382641 77.8905625 81.9369215 78.9985215 78.4502115 79.501094 C 74.96350149999999 80.0036665 71.4191065 79.92443499999999 67.90281499999999 79.71131799999999 C 66.36793949999999 79.6182915 64.82774599999999 79.49896899999999 63.32860349999999 79.156815 C 61.993992999999996 78.8522125 60.706193999999996 78.3742625 59.422904499999994 77.897674 C 57.155950999999995 77.055771 54.880247499999996 76.2099325 52.753967499999995 75.0580585 C 49.519460499999994 73.3058225 46.677119 70.8609585 44.355976999999996 68.0070725 C 45.3168125 71.7397765 47.9697525 75.001608 51.428420499999994 76.70275450000001 C 52.973876999999995 77.46288750000001 54.64817849999999 77.91772750000001 56.259482999999996 78.52595000000001 C 58.6109095 79.4135475 60.8301745 80.62886200000001 63.196875 81.47489050000001 C 65.7758305 82.39679450000001 68.490477 82.86660300000001 71.189367 83.33233850000002 C 74.1172365 83.83758700000001 77.09847 84.34433000000001 80.0448525 83.96154250000002 C 82.2184175 83.67915750000002 84.5387795 82.87467600000002 86.252967 81.43457450000002 C 87.697946 80.22063700000002 88.3032865 78.06417150000003 88.283642 75.89208350000003 Z &#10;" fill="#754123" mix-blend-mode="multiply" stroke-width="0px" opacity=".25" /><path d="M 183.094826 26.7445405 C 166.436348 15.282971499999999 139.79930900000002 8.4584945 132.74733350000002 37.420297500000004 C 125.69535850000003 66.3821005 146.91509000000002 88.5555135 140.98367900000002 114.838288 C 144.205958 98.672082 133.37357500000002 84.92744200000001 127.60099400000003 70.49767650000001 C 124.76508350000003 63.44392650000001 115.19749250000002 29.03628150000001 131.04808450000002 14.53285600000001 C 138.57291800000002 3.5139410000000098 172.89577350000002 4.30727900000001 183.094826 26.744540000000008 Z &#10;" stroke-width="0px" opacity=".66" fill="#d8b58e" /><g opacity=".66"><path d="M 75.3146765 27.1002265 C 78.2382115 25.8032685 80.9083075 27.380489500000003 83.3258385 29.0629555 C 84.5321295 29.899662 85.5858535 30.8147445 86.573736 31.9262215 C 87.621279 33.0973055 88.465685 34.3620975 89.32236449999999 35.7468575 C 89.87915199999999 32.253508999999994 87.823556 28.674829999999996 84.95830649999999 26.727810499999997 C 83.4882255 25.723869999999998 81.8259195 24.911606999999997 79.9892465 24.791506999999996 C 78.200498 24.655062999999995 76.07401549999999 25.410853499999995 75.31467599999999 27.100226499999994 L 75.31467599999999 27.100226499999994 Z &#10;" stroke-width="0px" fill="#d8b58e" /></g><g opacity=".66"><path d="M 97.3035425 41.031214 C 88.002643 37.516963 76.46556700000001 37.764792 67.1203265 41.0310705 C 72.20082400000001 41.529361 77.178149 41.363412 82.22637300000001 41.359688999999996 C 86.71527650000002 41.276757499999995 92.84124700000001 41.385563999999995 97.3035425 41.03121349999999 L 97.3035425 41.03121349999999 Z &#10;" stroke-width="0px" fill="#d8b58e" /></g><path d="M 82.0798345 45.011458 C 81.2445095 44.681864999999995 79.826261 44.075409 79.0024075 43.856023 C 78.5916065 43.7348325 77.949076 43.592382 77.523227 43.4810205 C 76.9442855 43.344465 76.44519100000001 43.186385 75.80350800000001 43.1744905 C 75.92911000000001 42.8235685 76.219256 42.571608999999995 76.51277150000001 42.3750115 C 78.61621550000001 41.048273 81.96105300000002 42.407502 82.07983450000002 45.0114575 L 82.07983450000002 45.0114575 Z &#10;" stroke-width="0px" /><g opacity=".66"><path d="M 107.955243 68.901016 C 107.42790199999999 72.656345 106.319831 76.640864 106.91443749999999 80.433447 C 107.21027899999999 82.3775035 107.66923799999999 84.298648 108.29582699999999 86.158086 C 108.99339849999998 88.114626 110.21020349999999 89.9162635 111.68324299999999 91.3517285 C 113.09610799999999 92.770929 114.75624149999999 93.8025485 116.37896549999999 94.9181005 C 118.66631949999999 96.499538 120.8695205 98.2414245 123.00657949999999 100.0334905 C 125.0579545 101.8071815 127.52551699999998 103.53792 129.55870499999997 105.35942849999999 C 128.70273099999997 101.43081049999999 125.54483649999997 98.60357099999999 122.60164399999998 96.116312 C 120.43037399999997 94.249747 118.04845699999998 92.57601799999999 115.65353349999998 91.00351149999999 C 113.49978849999998 89.52827799999999 111.62539999999998 87.64917449999999 110.57882849999999 85.24620249999998 C 109.88444599999998 83.56163199999997 109.27072849999999 81.80295699999998 108.78916799999999 80.05214149999998 C 107.755524 76.39940499999997 108.35162249999999 72.64295499999997 107.9552435 68.90101549999997 L 107.9552435 68.90101549999997 Z &#10;" stroke-width="0px" fill="#d8b58e" /></g><g opacity=".66"><path d="M 124.7052355 156.2025 C 126.2217265 162.14835499999998 128.1906105 168.4942065 129.656254 174.42293099999998 C 130.17398849999998 176.45235149999996 130.65009949999998 178.455775 131.062196 180.61871399999998 C 131.2512835 180.10563799999997 131.436718 179.57012149999997 131.5362195 179.02956099999997 C 132.96615899999998 171.63744649999998 129.9139885 161.63033049999996 124.70523549999999 156.2025 L 124.70523549999999 156.2025 Z &#10;" stroke-width="0px" fill="#d8b58e" /></g><g opacity=".66"><path d="M 59.087415 139.058938 C 53.692572 145.54225200000002 40.796692 158.92321500000003 42.983017000000004 167.71564650000002 C 43.240677000000005 166.31598850000003 43.67895300000001 165.0499545 44.274483000000004 163.84280350000003 C 46.078226 160.18444800000003 48.56573 157.00868900000003 50.9113965 153.63893000000002 C 54.079576 149.09625350000002 57.3638315 144.41908400000003 59.087415 139.058938 L 59.087415 139.058938 Z &#10;" stroke-width="0px" fill="#d8b58e" /></g><path d="M 110.210914 193.4982985 C 114.1630775 195.774964 119.9302375 198.792664 119.9302375 198.792664 L 113.9249755 192.95228 L 110.210914 193.4982985 Z &#10;" fill="#754123" mix-blend-mode="multiply" stroke-width="0px" opacity=".25" /><path d="M 129.050398 202.179194 C 129.117458 204.39217399999998 127.139188 205.565724 125.328568 204.123934 C 124.99107450000001 204.7580255 125.63033800000001 206.70574399999998 125.63033800000001 206.70574399999998 L 124.97055350000001 208.8531645 L 129.352168 206.304869 L 129.050398 202.179194 Z &#10;" fill="#754123" mix-blend-mode="multiply" stroke-width="0px" opacity=".25" /><path d="M 74.7483145 45.9083385 L 74.74851000000001 45.908034 L 74.74853150000001 45.908034 C 75.16745550000002 45.2725815 75.93274250000002 44.9067135 76.73234200000002 45.0380705 C 77.81683400000001 45.21624250000001 78.55157050000001 46.239807000000006 78.37342050000002 47.324321000000005 C 78.30968800000002 47.71232450000001 78.13640850000002 48.05427400000001 77.89215600000003 48.32694600000001 L 77.89283000000003 48.327468 C 75.11466050000003 52.789747500000004 76.50091850000003 58.723109 76.50091850000003 58.723109 L 72.57359000000002 58.0779585 C 71.54678550000003 51.4005755 74.32121500000002 46.601935 74.70415200000002 45.978877 C 74.71848150000002 45.955023499999996 74.73307200000002 45.931496499999994 74.74831450000002 45.908339 Z &#10;" stroke-width="0px" /><path d="M 51.8613185 41.998905 C 51.875735000000006 41.9748995 51.890434000000006 41.951198 51.9057855 41.9278885 L 51.9058505 41.92778 L 51.9058505 41.92778 C 52.324796 41.2923275 53.090083 40.9264595 53.8896825 41.0578165 C 54.9741745 41.2359665 55.708911 42.259553000000004 55.530761 43.344045 C 55.4670285 43.732048500000005 55.293749 44.0740195 55.0494965 44.346692000000004 L 55.05017049999999 44.347214 C 52.27197949999999 48.8094935 53.658258999999994 54.742855 53.658258999999994 54.742855 L 49.73093049999999 54.0977045 C 48.70423449999999 47.421213 51.47783799999999 42.622986 51.861318499999996 41.9989055 Z &#10;" stroke-width="0px" /><circle cx="76.4579865" cy="47.08016" r="1.361069" stroke-width="0px" fill="#fff" /><circle cx="53.5560145" cy="43.1784375" r="1.361069" stroke-width="0px" fill="#fff" /><path d="M 68.646628 106.131688 C 71.8495695 99.1038825 80.977958 95.05085799999999 88.3779935 97.88965449999999 C 96.130865 100.7671185 100.3485325 109.84579099999999 98.7300905 117.75942899999998 C 98.730108 117.75943699999998 98.3229675 119.79537399999998 98.3229675 119.79537399999998 C 97.347592 119.34968199999999 95.338667 118.43382049999998 94.3564755 117.98509149999998 C 94.356482 117.98509599999998 96.451057 117.05676849999998 96.451057 117.05676849999998 C 95.43566050000001 119.68561049999998 94.57530200000001 122.52857299999998 93.816084 125.25122999999998 C 92.89818700000001 124.37466349999998 91.8041445 122.95487649999998 90.472438 122.70529749999997 C 90.4724545 122.70525949999997 91.86403299999999 121.62266349999997 91.86403299999999 121.62266349999997 C 91.648389 123.32116499999998 91.56087699999999 125.04163849999998 91.59354199999999 126.76987999999997 L 91.62105899999999 128.22458849999998 C 90.37381749999999 127.53554499999998 89.02376149999999 126.87854899999998 87.56189749999999 126.75665149999998 C 87.56191399999999 126.75661249999997 88.13060049999999 126.15275749999998 88.13060049999999 126.15275749999998 C 88.10889949999999 127.66903149999997 88.06999299999998 129.85685249999997 87.98852749999999 131.35528749999997 C 87.80676849999999 130.50570249999998 87.63669749999998 129.65398449999998 87.47785549999999 128.80088149999997 C 87.39102349999999 128.35724199999999 86.98701499999999 126.05517549999998 86.91384849999999 125.67692249999998 C 88.30744899999999 125.55637999999998 89.71671799999999 125.63107799999997 91.08166699999998 126.08412699999998 C 91.08166799999998 126.08410499999998 89.94307799999999 126.93388249999998 89.94307799999999 126.93388249999998 C 89.53964299999998 124.73406799999998 89.47032199999998 122.43345899999998 89.52126849999999 120.18978549999999 C 89.52124299999998 120.18978549999999 90.9010285 120.38474499999998 90.9010285 120.38474499999998 C 92.02454949999999 120.54348299999998 93.116903 121.00336449999998 94.03048899999999 121.73364399999998 L 91.87751049999999 122.42377049999999 C 92.38310399999999 119.74457 93.15120199999998 117.06518049999998 93.97884949999998 114.46464599999999 C 93.97882399999997 114.46463949999999 95.58754399999998 115.10820249999999 95.58754399999998 115.10820249999999 L 97.77271899999998 115.982385 L 95.54018449999998 117.18513449999999 C 96.04251199999999 113.92024099999999 95.47345099999998 110.49796699999999 94.02534049999998 107.5269635 C 88.95274699999999 96.8907825 75.60224949999999 97.60599099999999 68.64662799999999 106.131688 L 68.64662799999999 106.131688 Z &#10;" stroke-width="0px" fill="#eeddcf" /><path d="M 66.334209 103.9229955 C 65.362981 98.058639 63.409124 97.667868 63.409124 97.667868 L 59.90117 101.605754 L 58.068582 100.012496 L 39.246427499999996 95.6488825 L 38.204370499999996 95.6488825 C 38.204370499999996 95.6488825 36.509004999999995 94.8673395 36.509004999999995 94.8673395 L 35.534099499999996 95.9746195 L 37.032056499999996 89.9826975 C 37.032056499999996 89.9826975 32.8638285 92.58784 32.212543 91.9365545 C 31.561257499999996 91.285269 27.458157999999997 81.7827365 21.8571015 77.318311 L 30.221720499999996 95.5354595 L 33.683583 94.57159800000001 L 34.687428499999996 99.68685350000001 L 36.27866649999999 97.93242150000002 L 39.75922599999999 103.66517850000002 L 42.112084499999995 99.49146800000003 L 52.524801 104.22293800000003 L 56.429472 109.17294850000003 L 58.8071285 106.46022400000004 L 59.901171 109.17294850000005 L 62.1375695 104.85234750000005 L 63.8650245 110.10742400000005 L 66.3342095 103.92299650000005 Z &#10;" fill="#754123" mix-blend-mode="multiply" stroke-width="0px" opacity=".25" /><path d="M 87.6857955 79.383024 C 88.2854495 87.703198 79.1051075 87.703198 71.159423 86.5960125 C 71.159423 86.5960125 69.9105795 87.3124265 66.334209 87.442684 C 62.757838500000005 87.5729415 60.014942500000004 86.2052415 55.557384 86.4657555 C 51.0998255 86.72627 47.4341265 86.661141 47.4341265 86.661141 C 47.4341265 86.661141 52.956720499999996 84.9646375 53.183939499999994 84.7898915 C 53.41115849999999 84.6151455 71.68045149999999 84.0958125 71.68045149999999 84.0958125 L 80.849324 84.0958125 C 80.849324 84.0958125 85.0318065 82.49291299999999 85.0318065 82.49291299999999 L 87.6857955 79.38302399999999 Z &#10;" fill="#754123" mix-blend-mode="multiply" stroke-width="0px" opacity=".25" /><path d="M 18.3401585 75.2636425 C 13.585773500000002 75.328771 10.264216500000002 75.9800565 8.570874000000002 72.7236285 C 7.703258000000002 74.21276950000001 7.862546000000002 74.78234900000001 7.862546000000002 74.78234900000001 L 11.306274000000002 77.86878500000002 L 16.180542000000003 77.11636500000002 L 18.340159000000003 75.26364250000002 Z &#10;" fill="#754123" mix-blend-mode="multiply" stroke-width="0px" opacity=".25" /><path d="M 42.3073035 86.6958545 C 34.308433 87.18431849999999 28.636937500000002 81.4785725 23.745829500000003 76.051442 C 18.340159000000003 70.05335699999999 11.371402500000002 68.798762 8.570874500000002 72.72362799999999 C 6.462192500000002 75.67889 8.305751000000003 70.25915049999999 8.305751000000003 70.25915049999999 L 11.534224000000002 68.0070715 L 18.340159 68.7987615 L 24.136601 73.342349 L 28.640939 78.4428975 L 34.101271 83.4172385 L 42.307303499999996 86.695854 Z &#10;" stroke-width="0px" fill="#d8b58e" /><path d="M 7.5315125 76.3018305 C 9.3175825 78.25346499999999 12.0007425 79.9104625 18.347948000000002 77.50673499999999 C 22.0413895 79.00087099999999 24.394096 84.5969535 26.880944000000003 90.512002 C 27.637473000000004 92.310912 28.420019000000003 94.171993 29.265412000000005 95.98239099999999 L 29.481659500000006 96.445296 L 29.978691000000005 96.5628805 C 30.919368000000006 96.7865615 31.772194500000005 96.675059 32.473310000000005 96.445296 C 32.534805500000004 97.7022355 32.88350450000001 99.4105915 33.99718000000001 101.338574 L 36.281633500000005 105.29387799999999 L 35.963682000000006 100.7371355 C 35.96300600000001 100.7155105 35.947125500000006 100.17151299999999 36.2941355 99.54574649999999 C 37.081412 100.5350795 38.3015215 102.3414225 38.992500500000006 104.730959 L 39.622997500000004 106.912357 L 40.8839915 105.023569 C 40.9529205 104.9201755 42.254461 102.94286149999999 42.4734115 100.685777 C 53.044540999999995 104.6545965 53.955484 106.531896 55.003947 108.691669 C 55.159375 109.01198600000001 55.318519499999994 109.3383845 55.502668 109.676947 L 56.225746 111.006194 L 57.985461 108.99847 L 58.289897 112.245563 L 61.730599500000004 107.0576475 L 62.565264500000005 111.4734915 C 62.309019500000005 112.364837 62.13458550000001 113.00411899999999 62.13458550000001 113.00411899999999 C 62.11549500000001 113.07980549999999 62.075202000000004 113.23962599999999 62.04061050000001 113.3220705 C 61.924588500000006 113.3220705 61.61516850000001 113.249425 61.168482000000004 112.99432 L 59.708472500000006 112.161091 C 59.703995500000005 112.163794 59.699434000000004 112.16649699999999 59.69495700000001 112.1688625 C 59.69343650000001 112.17528250000001 59.69111350000001 112.18204 59.68980400000001 112.18846 C 59.68279300000001 112.27225600000001 59.67447250000001 112.355714 59.66822150000001 112.439172 L 59.647441500000006 113.8626895 C 59.631180500000006 114.98177100000001 59.792817500000005 115.853519 59.95318700000001 116.6921545 C 59.95318700000001 116.6921545 58.32600800000001 115.131793 58.16876400000001 114.7746465 C 58.16656750000001 114.81451700000001 58.51100100000001 121.0191345 59.95348250000001 125.6880555 L 58.39354300000001 123.9709145 C 58.39354300000001 123.9709145 60.15591900000001 132.6907615 60.12534000000001 132.77016500000002 C 60.13649050000001 132.83639100000002 60.13480100000001 132.90836050000001 60.10223700000001 132.99046750000002 C 59.72287450000001 133.94601150000003 58.812818500000006 136.341292 56.52709800000001 140.09082300000003 C 56.53322200000001 140.08676850000003 56.53972650000001 140.08406550000004 56.54585050000001 140.08001050000004 C 54.921797000000005 142.83716750000005 52.82111200000001 145.72238400000003 50.78099300000001 148.52414200000004 L 50.77905000000001 148.52684500000004 L 51.02524300000001 148.70626300000004 L 50.777783000000014 148.52853450000003 C 46.09534650000001 154.95987400000004 41.253469500000016 161.61050150000003 41.253469500000016 167.71578000000002 C 41.253469500000016 171.468352 45.78841850000001 178.20683050000002 49.84323050000002 181.72490900000003 C 51.866750500000016 183.48056950000003 55.073466500000016 185.21730800000003 58.42952800000002 186.40329100000002 C 56.683624000000016 188.36979300000002 54.23706950000002 189.67606350000003 51.65738750000002 189.96766000000002 C 51.28292450000002 190.01023350000003 50.89853600000002 190.03489950000002 50.49172000000002 190.06125450000002 C 48.947872500000024 190.160931 47.38016200000002 190.26195950000002 46.03896200000002 191.23642500000003 C 45.04544800000002 191.9581515 44.38378100000002 193.08703150000002 44.175811500000016 194.41526500000003 C 43.92826700000002 195.99623800000003 44.338335000000015 197.70290450000005 45.272846000000015 198.98011700000004 C 46.626167500000015 200.82971000000003 48.955095000000014 202.07718850000003 52.00807250000001 202.58739750000004 C 52.94490600000001 202.74383900000004 53.85851000000001 202.82324250000005 54.723585000000014 202.82324250000005 C 55.657969000000016 202.82324250000005 56.55353800000002 202.73066150000005 57.385373500000014 202.54786450000006 C 60.854585000000014 201.78592950000007 64.07895500000001 199.26022500000005 66.23159050000001 195.61780400000006 C 68.1406515 192.38794300000006 69.05531150000002 188.72085650000005 69.7565955 185.23521550000007 C 70.2159105 183.79649300000005 70.423753 181.89621700000006 70.644858 179.84321650000007 C 71.060628 175.98556200000007 71.531642 171.61431900000008 73.684784 171.11458400000006 C 77.27348099999999 170.28236850000008 85.679431 171.70048000000006 94.1288845 179.01640700000007 C 95.618459 180.30612150000007 98.9243445 184.50808300000008 103.95472 191.50538250000008 L 104.7229905 192.50992050000008 C 105.44057799999999 196.0215790000001 106.6716685 200.75571250000007 108.537227 203.91157600000008 C 110.6899045 207.55332100000007 113.91419 210.07936350000008 117.3833595 210.84129850000008 C 118.215406 211.02409550000007 119.1113975 211.11701400000007 120.0466685 211.11701400000007 C 120.9103075 211.11701400000007 121.823278 211.03761050000006 122.760576 210.88116900000006 C 125.813384 210.37096000000005 128.1422695 209.12314350000005 129.495929 207.27355050000006 C 130.43027099999998 205.99600000000007 130.84038099999998 204.28933350000005 130.5927945 202.70836050000005 C 130.384825 201.38046500000004 129.7232425 200.25158500000006 128.729855 199.52985850000005 C 127.38844399999999 198.55505500000004 125.82081749999999 198.45436450000005 124.30471899999999 198.35671500000004 C 123.88134649999999 198.32934600000004 123.49125649999999 198.30468050000005 123.1116405 198.26143100000004 C 120.06170449999999 197.91644850000006 117.17851549999999 196.11753850000005 115.46331699999999 193.56716850000004 C 115.83778 193.50128050000004 116.1711055 193.42728350000004 116.43499549999999 193.34619050000003 C 118.39761149999998 192.74373800000004 120.28699049999999 191.91828050000004 122.05371699999999 190.89245600000004 C 125.2014715 192.34570750000003 135.754862 196.70884100000004 148.84493849999998 196.70884100000004 C 154.561647 196.70884100000004 160.07106199999998 195.86479950000003 165.220205 194.20104450000002 C 177.3860765 190.32379250000002 187.2533875 183.73702500000002 194.546676 174.62353950000002 C 201.1625015 166.35612300000003 205.5060375 156.24688450000002 207.4566585 144.57627100000002 C 210.102904 128.74289100000001 208.0863105 110.78487800000002 201.7781315 94.01014500000002 C 195.506106 77.33170950000002 185.57561 63.323932500000026 173.815963 54.566917500000024 C 171.389935 52.516620000000025 170.24264000000002 50.289945000000024 170.761888 48.62213550000003 C 171.0488385 47.700380000000024 171.8643285 47.108740000000026 172.9991215 46.99892700000003 C 177.0196375 46.600558500000034 181.1779275 51.52188100000003 183.5153445 55.85291550000003 L 184.3845585 57.46362250000003 L 185.2933055 55.87487850000003 C 192.5574515 43.17371000000003 189.4459355 23.530317000000032 171.665651 12.642587500000033 C 160.8866365 6.042642500000033 146.804102 4.6265585000000335 136.622894 9.118427000000032 C 128.8993065 12.526692000000033 123.948334 18.835378500000033 122.3056125 27.362968000000034 C 117.640577 51.690149000000034 126.57405299999999 70.97436800000004 133.0968755 85.05512900000004 C 135.34331650000001 89.90380600000003 137.2817735 94.08853550000003 138.4260275 97.82860550000004 C 141.3201975 107.28808700000003 140.919802 116.55869000000004 137.327135 123.26371750000004 C 134.4142965 128.70031750000004 129.54086949999999 132.47586600000005 122.84268399999999 134.48595500000005 C 122.18566299999999 134.57448150000005 121.48750399999999 134.72619250000005 120.76096299999999 134.93737200000004 C 120.87060749999999 134.50318750000005 121.03245499999998 134.06258300000005 121.24464799999998 133.62231600000004 C 122.29632099999998 131.43922850000004 124.33546849999999 129.66701200000003 126.13437849999998 128.10327150000003 C 128.81736949999998 126.14758200000003 130.85533449999997 123.31068350000004 132.01090749999997 119.91154150000003 C 132.92860849999997 119.00532900000003 135.68407599999998 116.03496500000003 136.28931599999999 112.52533400000003 L 136.494329 111.33529650000003 L 134.12185599999998 111.33529650000003 C 134.12185599999998 111.33529650000003 134.43254299999998 109.43907500000003 134.43254299999998 109.43907500000003 L 132.85646949999997 107.93446450000003 C 132.84210949999996 107.27085450000003 132.946432 106.42411000000003 133.29259699999997 106.05513750000003 L 133.80795899999998 105.50539550000003 L 133.43239749999998 104.85226000000003 C 132.8206535 103.78926800000004 131.54876249999998 103.53889350000003 130.52099499999997 103.53078450000002 C 128.37870749999996 99.49100850000002 124.91747849999997 95.80027000000003 120.23031149999997 92.55925900000003 C 119.78734199999997 92.25279550000002 119.31598949999997 91.95579300000003 118.78973049999998 91.65101900000002 C 110.16533649999998 86.60535400000002 107.09918149999997 76.71810750000002 110.78882199999998 65.84862400000002 L 110.88292349999998 65.57155650000001 L 110.87853099999998 65.56986700000002 C 111.67307199999998 63.188440000000014 112.83937299999998 60.44919100000001 113.96859099999998 57.796441000000016 C 118.21397099999997 47.824385000000014 123.02581849999997 36.52173000000002 116.69280399999998 30.005919000000016 C 112.73952749999998 25.937760500000017 109.25388599999998 26.076970000000017 107.02611299999998 26.910199000000016 C 103.60053099999998 28.191804000000015 101.29546649999997 31.667646500000018 99.96503699999998 34.35756400000002 C 99.12724649999998 36.051729000000016 98.43829499999998 37.92193300000002 97.93264749999999 39.83775150000002 C 94.498196 38.23819500000002 92.1015645 37.74690750000002 91.390397 37.627633500000016 C 89.14150649999999 27.198078500000015 85.01227499999999 24.749074500000017 80.88152299999999 23.662430000000015 C 78.75748149999998 23.103565000000014 76.75157349999999 23.488418000000014 75.08118749999998 24.775767500000015 C 73.06391799999999 26.330723000000013 70.64139599999999 29.939355000000013 70.49395049999998 38.302056000000015 C 69.90775899999998 38.43822450000001 69.40582799999999 38.563242500000015 68.93016749999998 38.690964000000015 C 60.23878699999998 41.02779000000002 48.824038499999986 46.876950000000015 43.80164549999998 61.47400200000001 C 42.89758699999998 63.61890800000001 42.24179049999998 66.97953100000001 44.29276399999998 70.702031 C 47.262536499999975 76.0926785 53.985133999999974 80.125359 65.90139149999997 83.10754850000001 C 65.90139149999997 83.10754850000001 65.69447799999998 83.1078865 65.38357999999998 83.111603 C 64.17157949999998 83.0923435 63.17975499999998 83.0659885 62.32494349999998 83.04335 C 58.76834599999998 82.9467145 57.43740949999998 82.911574 52.105553999999984 83.7475065 C 44.554457499999984 85.1308155 38.25962449999999 85.705899 31.480599499999983 79.68543 C 29.470172499999983 77.89936 27.908796999999982 76.17073049999999 26.53089449999998 74.645509 C 22.951996499999982 70.684799 20.124896999999983 67.5552905 12.792750999999981 66.95587900000001 L 12.74037849999998 66.95114850000002 L 12.68800599999998 66.95250000000001 C 9.04659899999998 67.01602250000002 7.59672599999998 69.13187050000002 7.05678299999998 70.38745800000001 C 6.11238899999998 72.58237150000001 6.54015399999998 75.21721350000001 7.53151399999998 76.30183050000001 Z M 89.6583025 39.306256 L 87.99319600000001 38.517289999999996 C 87.83371350000002 38.44160349999999 84.02724850000001 36.67073799999999 78.89069200000002 37.0393725 C 76.75626050000001 37.1924355 74.62195550000001 37.471192 72.54095250000002 37.868209 C 72.71048750000001 32.209279 74.04868850000001 28.1401075 76.32313200000002 26.386474 C 77.12768300000002 25.7664515 78.05150800000001 25.451878999999998 79.04286800000001 25.451878999999998 C 79.47194200000001 25.451878999999998 79.91356050000002 25.510671499999997 80.36383700000002 25.6292695 C 82.77689850000002 26.264159 87.26809100000001 27.445749499999998 89.53438300000002 38.6913015 L 89.65830300000002 39.3062555 Z M 124.10097250000001 189.57672449999998 C 127.33286050000001 187.29058149999997 129.41677800000002 184.77028349999998 130.5596805 183.38764999999998 C 130.851446 183.03489599999997 131.1033405 182.73012199999997 131.28613750000002 182.5344855 C 132.44475150000002 181.29680599999998 134.01558800000004 177.854414 131.51573150000002 168.70477449999998 C 129.71690600000002 162.11969649999998 126.29335150000001 154.707472 122.12230650000001 148.3663485 C 121.17352000000001 146.79517449999997 120.25708650000001 145.23075799999998 119.38770350000001 143.69945449999997 C 120.26333750000002 144.33839849999998 121.20561950000001 144.85401399999998 122.20314600000002 145.23954299999997 C 124.45017850000002 146.24441849999997 126.72525550000002 145.71359849999996 128.27429800000002 143.81433599999997 C 130.013402 141.68159399999996 130.2491625 138.45240899999996 128.81128500000003 136.46259299999997 C 128.50144250000002 136.03415249999998 127.98194150000003 135.48170749999997 127.16746500000002 135.05596999999997 C 132.50810550000003 132.70393949999996 136.52760800000001 129.06253199999998 139.12004500000003 124.22399199999998 C 142.96671850000004 117.04490899999998 143.42269700000003 107.20733199999998 140.37107100000003 97.23358649999997 C 139.18610150000004 93.36038899999997 137.22069800000003 89.11720549999997 134.94477650000002 84.20466749999997 C 128.53599100000002 70.37056399999997 119.76149100000002 51.430313999999974 124.30311300000002 27.746807499999974 C 125.81405850000003 19.904114499999974 130.35804650000003 14.106313499999974 137.44404150000003 10.979845999999974 C 147.0421415 6.744771499999974 160.36789400000004 8.110172499999972 170.60333250000002 14.377298999999974 C 177.09768750000003 18.353889999999975 182.35850200000002 24.583172999999974 185.03701600000002 31.467618499999972 C 187.071602 36.69675599999997 188.57823950000002 44.68406449999997 184.37391300000002 53.26841899999997 C 181.7966805 49.091460999999974 177.70774250000002 44.94389949999997 173.43364200000002 44.94389949999997 C 173.22364550000003 44.94389949999997 173.01364850000002 44.953697999999974 172.80280700000003 44.974309499999976 C 170.84289400000003 45.164201999999975 169.35399550000002 46.301528999999974 168.81971150000004 48.01731899999997 C 168.04772450000004 50.49740899999997 169.43711550000003 53.53670149999997 172.53604500000003 56.14755349999997 L 172.57676050000003 56.179990499999974 C 184.04286800000003 64.71231049999997 193.73481600000002 78.39977099999997 199.87430550000005 94.72612799999997 C 206.05839600000004 111.17074549999998 208.03883550000006 128.75573149999997 205.45053750000005 144.241088 C 203.55786400000005 155.56469149999998 199.35497350000006 165.359357 192.95843650000006 173.3524095 C 185.92025250000006 182.1472675 176.37849550000007 188.510016 164.59840650000007 192.2639395 C 146.77461900000006 198.025249 129.66706750000006 191.948015 124.10097200000007 189.57672499999998 Z M 60.46398750000001 141.64408899999998 C 61.09131700000001 143.192287 61.68384350000001 144.65432349999998 62.13027650000001 146.71104099999997 C 64.5280065 160.25422349999997 69.54486650000001 167.93304149999997 71.27733950000001 170.25939249999996 C 69.42196050000001 172.20460749999995 68.99799650000001 176.13997599999996 68.62268900000001 179.62561749999998 C 68.50797650000001 180.68962349999998 68.37801650000002 181.89554149999998 68.196825 182.95414149999996 C 68.132373 183.33020949999997 68.06065650000001 183.61403449999997 67.9775365 183.94279849999995 C 67.9191665 184.17357549999994 67.855686 184.42563899999996 67.785997 184.74122499999996 C 67.78215349999999 184.75642999999997 67.775396 184.76994549999995 67.77227049999999 184.78548799999996 C 67.10494399999999 188.11063299999995 66.2442615 191.59897749999996 64.48061849999999 194.58285649999996 C 62.61434249999999 197.74074749999997 59.86909599999999 199.91977999999997 56.94882399999999 200.56142749999995 C 55.59372849999999 200.85842999999994 54.044094999999984 200.86518799999996 52.34321449999999 200.58102499999995 C 50.58717399999999 200.28740149999996 48.21981149999999 199.56297199999995 46.914596999999986 197.77926699999995 C 46.30141649999999 196.94130749999994 46.02202649999999 195.77323249999995 46.185521499999986 194.73017549999994 C 46.27286549999999 194.17131049999995 46.525857999999985 193.39687399999994 47.23466049999998 192.88193399999994 C 48.09901749999998 192.25413999999995 49.310975499999984 192.17575049999994 50.59418549999998 192.09296799999996 C 51.01882499999998 192.06593699999996 51.45486799999998 192.03755449999997 51.88567349999998 191.98889899999995 C 55.27328549999998 191.60607299999995 58.46863949999998 189.76357599999994 60.56079299999998 187.01723099999995 C 61.95892699999998 187.24935949999994 63.899791499999985 187.28652699999995 64.29448549999998 187.03344949999996 C 64.42322049999999 186.95100499999995 64.45578449999998 186.83781299999995 64.46376699999998 186.77800699999997 C 64.48585649999998 186.6121045 64.54435299999997 186.17183799999998 60.38124849999998 184.90070749999998 C 56.84479749999998 183.8214965 53.23156149999998 181.971904 51.17606899999998 180.18853699999997 C 46.806388999999974 176.39710799999997 43.287549999999975 170.26513649999998 43.287549999999975 167.71577999999997 C 43.287549999999975 162.27208399999998 47.932100999999975 155.89311749999996 52.42371599999997 149.72431599999996 C 54.96720199999997 146.23022749999996 57.59270999999997 142.62396049999995 59.35804199999997 139.19846349999995 C 59.39060599999997 139.13527849999994 59.42287399999997 139.07243149999994 59.454888999999966 139.01026049999996 C 59.796238999999964 139.99655249999995 60.147303499999964 140.86255649999995 60.463987999999965 141.64408899999995 Z M 63.500704000000006 114.75504949999998 C 63.89472250000001 114.34215149999999 64.02227450000001 113.83701099999999 64.1067465 113.50284049999999 L 64.778381 110.84096749999999 L 64.795022 110.88691999999999 L 65.06275500000001 110.02260549999998 C 66.24037550000001 106.22036399999999 67.88237900000001 103.17329999999998 69.94298200000001 100.96622299999999 C 74.11951750000001 96.49192449999998 79.51920350000002 95.97461999999999 83.21741800000001 95.97461999999999 L 83.24808100000001 95.97461999999999 C 90.14899850000002 95.97968849999998 98.76579050000001 98.35131649999998 100.62518200000001 109.61781749999999 C 101.42301750000001 114.45297899999998 99.01836100000001 122.40751249999998 96.23391950000001 131.61830949999998 C 92.26577550000002 144.74352599999997 87.34800100000001 161.0117665 90.70600550000002 173.9126265 C 83.27198700000002 169.12882399999998 76.67850400000002 168.33141049999998 73.22487750000002 169.13321649999997 C 73.15890500000002 169.14842149999998 73.09229900000003 169.16632949999996 73.02244100000001 169.18694049999996 C 72.28001900000001 168.19659399999998 70.63438300000001 165.80807149999995 68.90169900000001 162.02644149999998 C 67.53389050000001 159.04121049999998 65.63277000000001 154.086775 64.3428865 147.43648499999998 C 64.297314 147.17327099999997 64.24912300000001 146.91073299999996 64.19839750000001 146.65900699999997 L 64.15983600000001 146.45086849999998 C 64.13483250000002 146.31740299999998 64.10987100000001 146.18359999999998 64.08609200000001 146.0470935 L 64.01255950000001 145.62676199999999 L 63.97361800000001 145.648049 C 63.51497900000001 143.75689599999998 62.94758200000001 142.35669249999998 62.349142500000006 140.880127 C 61.90144250000001 139.77523699999998 61.26714400000001 138.18919549999998 60.84465900000001 136.793723 L 62.432178500000006 133.5209505 L 61.992883500000005 130.9577405 L 63.647896 132.779289 L 61.702132000000006 124.06417200000001 C 61.43292050000001 122.85859150000002 61.156233500000006 121.6192225 61.013941 120.38593500000002 L 62.246341 121.49656900000002 L 62.2789895 119.25536500000003 C 62.295546 118.11094200000002 62.126053500000005 117.22534050000003 61.9621785 116.36845950000003 C 61.8951925 116.01840850000004 61.831036 115.68322500000002 61.78086 115.33824250000004 C 62.690028999999996 115.43183700000003 63.238631 115.02941400000003 63.5007045 114.75504950000004 Z M 8.9955765 71.222039 C 9.592285 69.83467549999999 10.8296265 69.10889449999999 12.673813500000001 69.06361749999999 C 19.132183500000004 69.6049125 21.454480500000003 72.17555599999999 24.9647875 76.06057949999999 C 26.378844 77.62567149999998 27.981779500000002 79.40025349999999 30.0790435 81.26268599999999 C 37.557494500000004 87.906894 44.638928 87.2601785 52.458982500000005 85.82821399999999 C 57.57425250000001 85.02742199999999 58.757194500000004 85.05715599999999 62.26851500000001 85.15311599999998 C 63.145711500000004 85.17676799999998 64.1637225 85.20379899999999 65.41635400000001 85.22272049999998 C 65.41707200000002 85.22440999999998 65.41821250000001 85.22677499999998 65.41893050000002 85.22846449999999 C 67.31684100000001 85.211908 68.72283100000001 84.70744299999998 70.30215650000001 84.19959899999999 C 75.8594245 85.59101749999999 80.35805100000002 85.72988899999999 83.57329800000001 84.6408795 C 87.2729905 83.38765699999999 87.6329245 80.4436485 87.63892200000001 80.32504999999999 L 87.685804 79.38302149999998 L 87.0969515 80.11961499999998 C 87.0840275 80.13583349999998 85.55416 81.92122799999999 82.497973 82.81966899999998 C 80.035031 83.54342249999998 76.736199 83.49003649999997 72.692791 82.66018649999998 C 71.4553645 82.33784249999998 70.764935 82.16146549999998 70.5974275 82.12531149999998 C 53.9901175 78.51803099999998 48.095131499999994 73.38856999999999 46.07435649999999 69.72080749999998 C 45.03940899999999 67.84215649999997 44.735352999999996 65.87126199999997 45.170466999999995 63.86286249999998 C 45.32310749999999 63.34353049999998 45.49513399999999 62.800545999999976 45.6908975 62.22411099999998 L 45.8723005 61.80850999999998 L 45.8388495 61.793304999999975 C 49.662758000000004 50.952541499999974 57.608084000000005 43.84137399999997 69.458115 40.655438499999974 C 72.45027250000001 39.85059199999998 75.65483400000001 39.32146099999997 78.9828935 39.08257499999998 C 85.2576645 38.64703899999998 87.78320000000001 39.08764349999998 87.8080345 39.09203599999998 L 90.07660700000001 39.50425799999998 L 89.76211900000001 39.35524999999998 L 89.84599950000002 39.37755049999998 C 89.88772850000002 39.38836299999998 93.92370300000002 40.44662449999998 97.75010350000002 40.564546999999976 C 97.34793350000002 42.251616499999976 98.08503400000002 45.96938599999998 98.08503400000002 45.96938599999998 C 98.08503400000002 45.96938599999998 99.37390350000003 42.36953899999998 99.74304500000002 40.82776099999998 C 101.23380200000003 34.60016749999998 104.67788300000002 29.96030449999998 107.73888500000002 28.815205999999982 C 110.15283350000003 27.912034499999983 112.67473700000002 28.789526499999983 115.23448350000002 31.423354999999983 C 120.62445550000002 36.96943049999998 116.09423650000002 47.61117849999998 112.09703450000002 56.99970399999998 C 110.71761100000002 60.23936349999998 109.41471950000002 63.29960549999998 108.62009400000002 65.95100399999998 C 104.97040850000002 77.57025849999998 108.54668800000002 88.13598199999998 117.95430400000002 93.52156149999999 L 117.98598100000002 93.5394695 C 118.45336300000002 93.842216 118.95292900000003 94.162871 119.48847950000003 94.50210949999999 C 123.98254400000002 97.45084849999999 127.35313500000002 101.213895 129.23398250000002 105.38308149999999 L 129.29252150000002 105.68413849999999 L 129.36305550000003 105.67366399999999 L 129.70955850000004 106.46567099999999 L 129.83170450000003 105.60338349999999 C 130.27416750000003 105.54729449999999 130.80566350000004 105.5462805 131.19727450000002 105.6331175 C 130.696188 106.838698 130.82314900000003 108.227751 130.856769 108.514617 L 130.899934 108.878859 L 132.2518195 110.16891100000001 L 131.72725 113.3693755 L 133.97386 113.3693755 C 133.1002535 115.88866 131.048773 118.00788700000001 130.4623705 118.57824000000001 L 130.330088 118.5025535 L 130.21410849999998 118.862403 C 129.2179335 122.04969 127.37780149999998 124.687911 124.89314999999998 126.492565 L 124.83452649999998 126.5385175 C 122.86557499999998 128.248901 120.64650299999998 130.1772215 119.41237099999998 132.73908 C 118.81718299999999 133.97507050000002 118.52930349999998 135.218156 118.55675699999998 136.434549 L 118.58953199999998 137.8766505 L 119.93668699999998 137.361711 C 123.48112049999997 136.0074605 126.04754049999998 136.11119150000002 127.16256749999998 137.654321 C 128.07207449999999 138.91261200000002 127.86368299999998 141.09941600000002 126.69788849999998 142.5290155 C 126.01704649999998 143.36427200000003 124.82379899999998 144.18804 123.00444699999997 143.37035400000002 L 122.96043699999997 143.35210800000002 C 120.45095099999998 142.38642700000003 118.39203699999997 140.45371400000002 116.83235099999997 137.60431400000002 C 114.74353399999997 133.87336700000003 117.07056149999997 128.1235455 118.16784899999998 125.82490100000001 C 121.55676999999997 119.34186500000001 118.84902899999997 112.9652635 114.89676599999997 109.78811300000001 C 113.39316949999997 108.578816 110.13957199999997 107.140769 108.26742499999997 106.48594450000002 C 108.24022499999998 105.44390150000001 108.48992349999997 104.24676800000002 108.49262649999997 104.23426600000002 L 108.64501349999998 103.51287750000002 L 108.02820099999998 103.91631450000001 C 107.95166949999998 103.965984 106.15208399999999 105.18913450000001 105.95636299999998 109.34717050000002 C 105.87383399999999 111.10215500000002 105.81402799999998 113.80693950000001 106.24787499999998 117.01923050000002 L 106.28859049999998 117.32096350000002 L 106.31595949999998 117.31724650000002 C 106.48937999999998 118.41098650000002 106.73341899999998 119.56892500000002 107.04275399999997 120.76436850000002 C 108.98535049999997 128.27187750000002 113.60367299999997 138.1898715 120.39849399999997 149.44623600000003 C 124.57367799999997 155.79276550000003 127.83800349999997 162.83534250000002 129.59670449999996 169.28661700000004 C 131.16931449999996 175.05569800000004 131.24778899999995 179.59926300000004 129.80129499999995 181.14408200000003 C 129.57296799999995 181.38837400000003 129.30384099999995 181.71443500000004 128.99205599999996 182.09185500000004 C 127.25371249999996 184.19418750000003 123.18259749999996 189.11821300000003 115.86548799999996 191.38475850000003 C 115.37099049999996 191.53782150000004 114.68702299999995 191.73312000000004 113.95980599999996 191.94024450000003 C 113.79094699999996 191.93416250000004 113.62242599999996 191.96592400000003 113.46733599999996 192.04431350000004 C 113.42966149999997 192.06323500000005 113.39621099999997 192.08790100000004 113.36157749999997 192.11121500000004 C 109.85143949999997 193.11744200000004 109.85954849999997 193.19414250000005 109.90947149999997 193.54182800000004 C 109.92349399999996 193.63947750000003 109.97966749999996 193.72361100000003 110.06760249999996 193.77970050000005 C 110.32794449999996 193.94458950000003 111.75171549999996 193.94763050000006 113.24770949999997 193.83241100000004 C 115.18971449999997 197.32075550000005 118.91660699999997 199.83395800000002 122.88306149999997 200.28267200000005 C 123.32011799999997 200.33200350000004 123.77322449999997 200.36106200000006 124.17286049999997 200.38674100000006 C 125.45691499999997 200.46918550000007 126.66950699999997 200.54723750000005 127.53407499999997 201.17536900000005 C 128.24262399999998 201.69030850000004 128.49570099999997 202.46440750000005 128.58329849999998 203.02327250000005 C 128.7465825 204.06599150000005 128.46731899999997 205.23474250000004 127.85405399999999 206.07270200000005 C 126.54829 207.85708250000005 124.18122349999999 208.58151200000006 122.425394 208.87479800000006 C 120.7241335 209.15896100000006 119.174753 209.15220300000004 117.81991099999999 208.85486250000005 C 114.89997699999999 208.21321550000005 112.15473049999999 206.03418250000004 110.2881585 202.87662950000006 C 108.56696249999999 199.96472000000006 107.40446299999999 195.47116250000008 106.7185525 192.11560750000007 L 106.8037 192.08654900000008 L 106.64404850000001 191.7865055000001 C 106.59437900000002 191.6047225000001 106.50044650000001 191.4455775000001 106.37171150000002 191.32191100000009 C 106.12133750000002 190.92117700000009 105.69864100000002 190.29946500000008 105.12321950000002 189.6486950000001 C 100.22064950000002 182.8466940000001 97.05380450000001 178.8579390000001 95.46066800000003 177.4786845000001 C 94.81766900000002 176.9221850000001 94.13361700000003 176.3660230000001 93.42625100000002 175.8254040000001 C 88.81088500000003 163.2019495000001 94.00471350000002 146.0207385000001 98.17989750000002 132.2099495000001 C 101.03850500000003 122.7551985000001 103.50710700000002 114.59016150000011 102.63231750000003 109.28668850000011 C 101.66511600000003 103.42671600000011 98.91345000000003 99.16123200000011 94.45384950000003 96.60849600000012 C 90.60895000000004 94.40750050000011 86.23872100000003 93.94290600000012 83.24968900000003 93.94054100000011 L 83.21682950000003 93.94054100000011 C 79.13954850000003 93.94054100000011 73.17347950000003 94.5247475000001 68.45615600000004 99.57784600000011 C 66.81246300000004 101.3385745000001 65.40824700000003 103.5889015000001 64.27924050000004 106.27070950000011 C 64.16748450000004 106.51060900000012 64.04031200000004 106.83531850000011 63.90642450000004 107.20361500000011 L 62.840898000000045 101.56495850000012 L 59.83336650000005 106.10007650000011 L 59.628945000000044 103.92205750000011 L 56.670745000000046 107.2968720000001 C 55.43238950000005 104.8181335000001 53.72876400000005 102.5198270000001 41.718912000000046 98.1577070000001 L 39.93520700000005 97.5096400000001 L 40.32614200000005 99.36734200000011 C 40.489679500000044 100.14448200000011 40.349118500000046 100.98987500000011 40.11428700000005 101.73457750000011 C 38.79923100000005 98.91051900000011 37.098646500000044 97.25690050000011 37.009106500000044 97.17107700000011 L 36.32049300000004 96.51084600000011 L 35.594374000000045 97.12917900000012 C 35.29027600000004 97.38867600000012 35.03888800000004 97.66033700000013 34.831425500000044 97.93470150000012 C 34.34351700000004 96.12497950000012 34.67329450000005 94.94643000000012 34.69323000000004 94.87885250000012 L 35.79541700000004 91.12222600000013 L 32.95750500000004 93.80572400000013 C 32.95243650000004 93.80977850000012 32.06210450000004 94.60313700000013 30.93795500000004 94.57070000000013 C 30.199334000000043 92.95897950000013 29.502611500000043 91.30130650000012 28.826500000000042 89.69364050000013 C 26.072384000000042 83.14336500000013 23.470992500000044 76.95598000000012 18.66657900000004 75.37669700000012 L 18.304364000000042 75.25776100000012 L 17.949583000000043 75.39832200000012 C 11.791594000000043 77.82975600000012 10.032893000000044 75.90988300000012 9.089175000000044 74.87730050000012 C 8.689455000000043 74.44075050000012 8.350554000000043 72.72090650000011 8.995580500000044 71.22204000000012 Z M 108.236845 116.51307499999999 L 108.227384 116.45698599999999 C 107.814993 113.20921699999998 107.89862 110.43043499999999 108.063171 108.56090699999999 C 109.6993885 109.19647249999998 112.605131 110.49868849999999 113.629351 111.37854599999999 C 116.9943665 114.26781699999998 119.1402865 119.57433049999999 116.3488335 124.91564699999998 L 116.3438495 124.92544549999998 C 115.301975 127.10684349999998 114.1189485 130.21202399999999 113.96605500000001 133.29828299999997 C 110.85935400000001 126.68076799999997 108.88364450000002 120.89749599999998 108.23684450000002 116.51307549999997 Z &#10;" stroke-width="0px" fill="#0c0c0c" /><path d="M 53.5758635 61.3122095 C 52.161151999999994 60.6455575 50.320815499999995 59.930358500000004 48.104442 59.4284555 C 46.0870155 58.971605499999995 44.2825135 58.810202499999995 42.8153145 58.7774905 C 42.42991 58.779498 41.846227 58.8391225 41.3893025 59.228839 C 40.24543 60.2044685 40.7325385 62.521208 40.9557965 63.753477000000004 C 41.242917 65.3382155 43.177589 67.891399 44.84813 68.6447845 C 46.618286 69.4430945 50.493519 66.8773805 50.493519 66.8773805 C 50.493519 66.8773805 53.8421675 64.6850945 54.69654 62.8768005 C 54.9918385 62.2519305 54.362954 61.497626000000004 53.575863 61.3122095 Z &#10;" stroke-width="0px" /><path d="M 52.1187765 63.4478585 C 52.203976000000004 63.4478585 52.288655000000006 63.412321500000004 52.3488745 63.3428835 C 52.648336 62.9979225 52.546186 62.48063 52.274455 62.1799785 C 52.028447500000006 61.907726999999994 51.6824455 61.785058 51.429747000000006 61.6953975 C 48.98676950000001 60.827791 46.454876000000006 60.1516975 43.90454450000001 59.6858515 C 47.91131700000001 61.104777 48.813620500000006 61.412589 51.22604200000001 62.269341 C 51.474354500000004 62.3573655 51.690475500000005 62.442119 51.82258650000001 62.588280999999995 C 51.92087050000001 62.69712199999999 51.95313650000001 62.869750999999994 51.888976500000005 62.943799 C 51.77872300000001 63.0707805 51.792328000000005 63.2630365 51.919309500000004 63.3733645 C 51.976927 63.4233245 52.048075000000004 63.447858000000004 52.118777 63.447858000000004 Z &#10;" stroke-width="0px" fill="#fff" /></g></g></svg>