<?xml version='1.0' encoding='utf-8'?>
<svg viewBox="0 0 432 432" width="216px" height="216px" xmlns="http://www.w3.org/2000/svg" xmlns:xlink="http://www.w3.org/1999/xlink" version="1.1"><g isolation="isolate"><g id="Layer_1"><path d="M 63.170779 396.186569 C 69.099869 399.68217500000003 76.32432200000001 401.559702 83.46566200000001 401.435407 C 93.542533 401.264314 137.84242600000002 383.634283 166.624928 368.340772 L 166.75072 368.27375800000004 L 166.88999 368.30558 C 178.505197 370.958452 188.72208600000002 371.064777 196.880623 368.633913 L 197.693781 368.391313 L 197.338118 369.16179200000005 C 196.135977 371.76524600000005 193.609646 374.11000100000007 190.93506000000002 376.59215500000005 C 186.89622500000002 380.33972100000005 182.720366 384.21495000000004 182.17676300000002 389.677561 C 181.736115 392.516501 182.51894800000002 395.493962 184.38150000000002 398.061101 C 186.60720200000003 401.128414 190.124523 403.302451 193.79047300000002 403.876754 C 194.65230100000002 404.01228000000003 195.53584300000003 404.08079200000003 196.417513 404.08079200000003 C 203.09611700000002 404.08079200000003 208.757898 400.17037000000005 211.531696 397.84508300000005 C 218.071404 392.11216900000005 226.01467000000002 380.97692000000006 226.71963200000002 360.49896400000006 C 226.720006 355.47513000000004 225.887006 350.86910600000004 224.24384300000003 346.80930500000005 L 223.83951000000002 345.81045300000005 L 224.783702 346.32972100000006 C 236.053729 352.52612000000005 247.941111 356.83788000000004 260.110404 359.1448230000001 C 267.821554 360.4982150000001 275.683579 361.18445700000007 283.478591 361.18445700000007 C 310.423999 361.18445700000007 336.663697 352.91210800000005 357.364036 337.89152100000007 C 381.949339 320.05108700000005 397.803675 293.9940880000001 402.007613 264.5133640000001 C 411.00514 208.27255100000008 387.428797 162.92401200000006 372.576307 140.9006070000001 C 359.14235099999996 121.36759100000009 346.440313 111.62953700000008 338.03468499999997 105.1856710000001 C 329.386831 98.5557370000001 326.467025 96.0028250000001 327.855234 90.8861440000001 C 328.199291 89.6312150000001 329.747736 88.1924640000001 332.430559 87.8064760000001 C 335.019412 87.4294730000001 344.23670100000004 87.47065500000011 354.25441900000004 103.67953100000011 L 355.46404800000005 105.6368010000001 L 356.8050850000001 103.7667620000001 C 366.55324800000005 90.1718220000001 367.6340890000001 72.9588530000001 359.7705660000001 56.5410710000001 C 354.4124080000001 45.3534090000001 345.4339750000001 35.5296200000001 333.80529000000007 28.131829000000103 C 321.3394870000001 20.200917000000103 306.3993920000001 15.546223000000102 290.6154390000001 14.670918000000103 C 269.4879300000001 14.304772000000103 254.25956000000008 19.039584000000104 244.01309500000008 29.1201980000001 C 233.96318000000008 39.0065080000001 228.86746400000007 54.1555080000001 228.86746400000007 74.1463930000001 C 228.86746400000007 109.72954700000011 242.26922300000007 136.3395080000001 253.03907500000008 157.72421800000012 C 259.72816100000006 171.00580000000014 265.5048780000001 182.47612100000012 266.9031960000001 193.3040020000001 C 269.4287780000001 210.0538600000001 268.1903220000001 225.2492840000001 263.2218960000001 238.4679700000001 C 260.10404100000005 246.7635300000001 255.66873600000008 253.8756680000001 250.03952500000008 259.6067110000001 L 248.7273150000001 260.9425070000001 L 249.4086910000001 259.1982600000001 C 253.15401000000008 249.61445100000012 255.7013070000001 238.11492800000013 256.9940480000001 224.9449120000001 C 258.79594900000006 219.0214370000001 259.32907000000006 215.7148940000001 257.96444700000006 210.57125700000012 L 257.57134600000006 209.08907800000011 L 253.27194100000006 210.22907200000012 L 252.80321500000005 206.2527590000001 L 249.03356100000005 204.06374600000012 L 248.98938400000006 203.92073200000013 C 248.58467700000006 202.61638500000012 248.18109300000006 200.40865300000013 248.72844000000006 199.67336600000013 L 249.55395300000006 198.56631800000014 L 248.53862900000007 197.62998800000014 C 247.09201600000006 196.29643900000013 244.50990200000007 195.84119000000013 242.39913600000008 196.54764900000015 L 242.17076300000008 196.62402300000014 L 242.0026650000001 196.45143300000012 C 232.19048300000009 186.35921300000012 227.1033780000001 183.44427300000012 222.6149100000001 180.87226800000013 C 218.4004900000001 178.45750300000014 214.7611210000001 176.37219400000012 207.84366100000008 168.87331900000012 C 195.89562800000007 155.06236100000012 212.64136900000008 118.91950600000013 218.14441200000007 107.04298000000011 C 226.08318600000007 89.9082570000001 229.99997200000007 66.77181300000012 214.91237100000006 57.95848200000011 C 209.31985000000006 54.690500000000114 203.75465900000006 54.12106500000011 198.81843000000006 56.31232400000011 C 192.38879100000005 59.16549100000011 187.11636600000006 66.57451400000011 183.56984400000007 77.74233400000011 C 183.12283200000007 79.09572600000011 182.78102100000007 80.23309900000011 182.49387000000007 81.32142800000011 L 182.37706300000008 81.76469600000011 L 181.9614990000001 81.57114000000011 C 175.5966280000001 78.60715600000012 170.69034900000008 77.82132800000011 168.8435220000001 77.52556600000011 L 168.2497520000001 77.42785200000012 L 168.1954670000001 77.17214900000012 C 164.2374990000001 58.48785800000012 156.3765960000001 49.09573200000012 144.1623780000001 48.45890800000012 C 140.8940220000001 48.282574000000125 137.8158510000001 49.43043000000012 135.2741710000001 51.77443700000012 C 130.28515400000012 56.37559400000012 127.46306100000011 65.31022400000012 126.88651300000011 78.33048800000012 L 126.87378400000011 78.62250600000012 L 126.58887900000012 78.68727400000012 C 119.93348700000011 80.20427100000012 113.73671300000012 82.33787500000011 108.17039900000012 85.02930800000011 C 89.83316000000012 93.8950520000001 77.79789600000012 108.79396500000011 72.40005400000013 129.30486700000012 C 71.18930200000013 134.2804060000001 72.06835100000012 139.19567000000012 75.01249300000012 143.9143830000001 C 79.79372800000012 151.5772370000001 89.92338600000012 158.4243130000001 104.30602600000012 163.7147070000001 L 105.83837200000012 164.2781520000001 L 103.99978100000013 164.4773230000001 C 97.18939500000013 165.0591130000001 91.23896500000012 167.5903110000001 86.45735500000012 169.6239550000001 C 83.43758800000012 170.9084600000001 80.82964200000012 172.0177550000001 78.89258900000011 172.24425600000012 C 73.44008700000012 172.87995700000013 71.00847500000012 170.99007600000013 70.90851500000011 170.90995800000013 L 68.58884300000011 169.06163300000014 L 68.39304100000011 171.99641500000016 C 68.34512000000011 172.81780900000015 69.5958980000001 179.16667800000016 71.68083200000011 184.35673800000015 L 70.38138500000011 186.13757800000016 L 69.59069000000011 185.86764800000017 C 69.32113500000011 185.77592400000017 69.02425000000011 185.65237800000017 68.66297100000011 185.5015020000002 C 67.84157700000011 185.1593170000002 66.81951300000011 184.73327000000018 65.33995500000012 184.38397100000017 L 63.02125800000012 183.12996400000017 L 65.69129300000012 187.17109900000017 C 66.79871500000012 189.00070500000018 66.85555200000012 190.14581900000016 67.49537100000012 192.22251700000018 C 67.72524200000012 192.9690350000002 67.05393700000012 192.34174200000018 67.31637900000013 193.10660400000017 L 65.92603100000012 193.01721500000016 L 64.72058800000012 193.31849800000018 C 64.06804000000012 193.18634100000017 63.86952800000012 193.5445260000002 63.30870300000012 193.66058500000017 L 61.50583300000012 194.02659500000016 L 63.82146100000012 197.93286200000017 C 65.60052500000012 199.44948400000018 63.57228300000012 201.25520000000017 65.11398900000012 203.62429000000017 L 65.11398900000012 205.57269400000018 C 65.11398900000012 205.57269400000018 64.79459500000011 207.1170220000002 64.79459500000011 207.1170220000002 C 63.23774800000012 208.0984040000002 65.15254300000011 208.6999830000002 64.53668400000012 209.36638400000018 L 64.68101000000013 211.2583120000002 L 65.19097400000012 212.9058600000002 C 65.85774900000013 214.3442360000002 65.04320800000012 213.84419600000018 65.48310700000013 214.75132400000018 C 66.83200600000013 217.53523000000018 65.07919400000013 216.93027000000018 66.84590400000013 222.5310270000002 C 67.76613500000013 225.4493360000002 69.23432700000014 228.1755650000002 70.74271200000013 231.4431720000002 C 72.38250600000012 234.9960590000002 74.85906800000012 238.4542170000002 75.72201900000013 241.4979440000002 C 75.87663900000013 242.0422960000002 76.22538500000013 243.27133800000018 76.36952200000013 243.79996600000018 C 77.25605900000014 247.0567170000002 77.34453800000013 247.8051300000002 80.01874900000013 250.93234500000017 C 84.51545300000012 256.17856200000017 87.59868700000013 257.2050320000002 90.44324300000012 257.20540700000015 C 91.81011200000012 257.20540700000015 92.66627700000012 256.48685400000016 93.34316000000013 256.27607700000016 C 96.79234300000013 255.20197500000015 98.20518600000013 253.81710700000016 98.51667200000013 250.86023700000015 C 98.74354800000013 248.70267300000015 100.13203800000012 245.79612600000016 97.18714800000012 242.41657900000016 C 94.74729900000013 239.61620000000016 90.89565600000012 237.96629800000017 85.73929000000012 237.51254700000015 L 85.38549900000012 237.48147300000016 L 83.74187700000013 236.73343600000015 C 82.86611500000014 214.88173800000015 87.07373000000013 206.52792800000014 91.95866800000013 201.78413100000014 C 93.91444000000013 199.88376700000015 97.28817600000013 198.32594700000016 100.26638700000014 198.38584800000015 C 106.00866100000013 198.53335500000014 109.25226600000013 201.53181700000016 111.24847200000013 204.07724100000016 C 111.45101300000013 204.33519000000015 111.83961800000013 205.22008000000017 112.02418900000013 205.44658100000015 L 112.51499500000014 206.55670300000014 C 113.09491300000015 207.30958600000014 112.91756400000014 212.42407200000014 112.29646400000014 221.76303600000014 L 112.27549900000014 222.07489600000014 L 111.96588500000014 222.11757600000013 C 110.83562500000014 222.27107300000011 109.60690300000014 222.09623600000012 109.22915100000014 222.01499500000014 L 107.37259000000014 221.61665200000013 L 107.36772300000014 223.51327200000014 C 107.36772300000014 226.45816200000013 108.42834800000014 228.38885100000013 109.28119000000014 229.94178800000014 C 109.70049800000014 230.70365600000014 110.01161000000013 231.28806600000016 110.20366800000014 231.86948200000015 L 110.34855400000014 232.30938100000014 L 109.88956100000013 232.36965700000013 C 108.80909400000013 232.51304500000012 107.73124800000012 232.44228700000014 106.68447500000013 232.16187500000012 L 104.53851600000013 231.58645000000013 L 104.76202200000013 233.79717700000012 C 105.31985100000013 239.31257500000012 106.49915500000013 242.17921900000013 107.69006500000013 244.45583700000012 L 107.75071500000013 244.5715210000001 L 107.72825200000013 244.7003080000001 C 107.36659900000012 246.7534200000001 106.99895600000012 248.77770400000009 106.62794300000013 250.7484520000001 L 106.54108600000013 251.2111880000001 L 105.86457700000014 250.9330220000001 L 106.12627000000013 253.3440430000001 L 105.87955200000013 254.5555440000001 C 105.65979000000013 255.61055300000012 105.20978200000013 256.9575800000001 104.63959800000013 258.6625160000001 C 101.64491500000014 267.6263480000001 96.07036400000014 284.3110640000001 104.05181800000014 315.0972590000001 L 104.09000500000013 315.2440170000001 L 104.01737500000013 315.3769230000001 C 94.83527800000013 332.2233720000001 91.79604300000013 349.0447380000001 89.57708000000012 361.32746800000007 C 88.37756000000012 367.9660130000001 87.34164400000012 373.69930100000005 85.72693400000013 377.47195000000005 L 85.43304400000012 378.158941 L 85.04668200000012 377.519496 C 82.32155400000012 373.011186 75.19294300000011 362.450988 67.84045200000011 361.75913 C 60.671033000000115 360.543511 53.398285000000115 364.09864400000004 50.924368000000115 370.02923200000004 C 49.36731300000012 373.76144800000003 49.845773000000115 377.67860900000005 50.52115800000011 380.30752 C 52.188656000000115 386.799307 56.562938000000116 392.29037 63.170783000000114 396.186566 Z M 198.317128 219.72565000000003 L 198.332103 219.43737600000003 L 198.61289 219.37185900000003 C 201.1366 218.78108400000002 203.933235 218.75600000000003 206.912568 219.29323900000003 C 213.88468699999999 220.29321400000003 220.33379499999998 223.28228100000004 224.606244 227.49370600000003 C 230.578014 233.38086600000003 237.598803 253.74426100000002 231.507605 266.12844900000005 L 231.36197 266.42458500000004 L 231.04711500000002 266.324625 C 227.34222900000003 265.14344900000003 220.26640600000002 264.07533700000005 214.50166900000002 270.17814100000004 L 214.32683300000002 270.36346000000003 L 214.08835200000001 270.27398300000004 C 213.04981600000002 269.883502 209.724928 269.08457100000004 209.691233 269.07670900000005 L 209.45949000000002 269.02092600000003 L 209.40670200000002 268.788809 C 207.73508600000002 261.426958 205.76096800000002 254.68321200000003 204.172839 249.259163 C 202.376553 243.122665 200.82473900000002 237.822536 200.210752 233.743643 L 200.19577700000002 233.656038 C 198.48335300000002 225.26388699999998 198.229147 221.448558 198.31712700000003 219.725652 Z &#10;" stroke-width="0px" fill="#c56439" /><path d="M 203.553237 330.735967 C 212.792588 339.078893 232.862303 354.29643100000004 261.124314 359.71146400000003 C 329.296326 371.801011 391.83695800000004 329.643255 400.87194700000003 265.606895 C 409.01268000000005 214.179306 390.50236400000006 170.142359 371.75759000000005 142.05015300000002 C 345.98494300000004 104.17641500000002 323.38946000000004 103.57852400000002 326.93811000000005 90.35849700000003 C 328.484905 84.66023500000003 342.67814400000003 80.85874500000003 356.05152000000004 102.84776900000003 C 361.20367300000004 79.49207300000003 331.99553900000006 52.29529800000003 308.27345 67.55401100000003 C 297.586377 75.04576500000003 286.89569400000005 92.43867400000003 308.23678 129.47832500000004 C 333.095972 172.62401200000005 359.491934 281.21745300000003 270.97846200000004 300.33736400000004 C 236.09155900000005 306.63297400000005 213.49112900000003 292.357186 213.49112900000003 292.357186 C 213.49112900000003 292.357186 215.60746700000004 313.42879400000004 203.55323700000002 330.735966 Z &#10;" fill="#754123" mix-blend-mode="multiply" stroke-width="0px" opacity=".25" /><path d="M 262.985257 244.60445 C 300.654405 177.429079 240.584873 133.728994 254.68882299999999 75.80538800000002 C 268.792773 17.881782000000022 322.066852 31.53073600000002 355.383808 54.45387400000002 C 355.383808 54.45387400000002 342.22036299999996 16.577485000000017 280.953874 16.577485000000017 C 219.68738499999998 16.577485000000017 228.13047 88.15492500000002 235.707598 110.49359800000002 C 250.284548 165.88298000000003 284.34554099999997 182.33617100000004 262.985257 244.60445 Z &#10;" stroke-width="0px" opacity=".66" fill="#d8b58e" /><path d="M 190.695224 99.761992 C 190.710636 98.00332200000001 190.726048 96.244652 190.741461 94.485982 C 190.793115 88.59179900000001 190.87191199999998 82.54834400000001 192.99297499999997 77.04878500000001 C 195.11403799999997 71.549226 199.746673 66.62177600000001 205.59532199999998 65.88871900000001 C 211.32356199999998 65.17075500000001 217.28403099999997 69.06896800000001 218.922284 74.604701 C 218.922284 74.604701 197.86476599999997 63.833656000000005 190.695224 99.761993 Z &#10;" opacity=".35" fill="#754123" mix-blend-mode="multiply" stroke-width="0px" /><path d="M 218.922205 74.60473 C 214.956574 66.726279 206.210184 64.13407600000001 199.34998299999998 70.063675 C 196.23065099999997 72.693597 194.762501 76.452574 193.404373 80.25578200000001 C 191.99695699999998 84.23878500000001 191.248013 88.353362 190.69534099999998 92.57077800000002 C 189.751016 87.26789600000002 190.273318 81.60284700000003 191.96728099999999 76.42806600000002 C 193.51260599999998 70.87198700000002 197.772696 65.85429800000001 203.550872 64.50046500000002 C 210.66066 62.65749200000002 217.686094 67.49896900000002 218.922206 74.60472900000002 L 218.922206 74.60472900000002 Z &#10;" stroke-width="0px" /><path d="M 147.881904 64.853278 C 145.603525 63.980810000000005 143.151567 63.603742000000004 140.912152 62.635637 C 138.092291 61.416604 135.689316 59.255636 134.17890699999998 56.580506 C 131.643117 63.297403 130.12942499999997 70.399109 129.705909 77.566227 C 129.67925 78.01738 129.692659 78.548502 130.058684 78.813598 C 130.276665 78.971471 130.564216 78.986834 130.833348 78.98409099999999 C 132.558573 78.966511 134.233393 78.45090699999999 135.90817 78.036341 C 141.851177 76.56524099999999 148.01243000000002 76.345388 154.107109 76.488 C 155.654023 76.524197 157.20046200000002 77.806779 158.74615400000002 77.877575 C 160.48200100000003 77.95707999999999 162.880154 79.20146299999999 161.569374 77.487309 C 160.007439 75.44470899999999 157.812297 72.005088 155.93633400000002 70.244829 C 153.862693 68.29908499999999 150.551306 65.875481 147.88190400000002 64.85327799999999 Z &#10;" opacity=".35" fill="#754123" mix-blend-mode="multiply" stroke-width="0px" /><g opacity=".66"><path d="M 136.920382 55.165246 C 142.767452 52.57133 148.107644 55.725772000000006 152.942706 59.090704 C 155.35528799999997 60.764117 157.46273599999998 62.594282 159.43850099999997 64.81723600000001 C 161.53358699999998 67.15940400000001 163.22239899999997 69.68898800000001 164.93575799999996 72.45850800000001 C 166.04933299999996 65.471811 161.93814099999997 58.31445300000001 156.20764199999996 54.42041400000001 C 153.26747999999998 52.41253300000001 149.94286799999998 50.78800700000001 146.26952199999997 50.547807000000006 C 142.69202499999997 50.274919000000004 138.43905999999996 51.786500000000004 136.92038099999996 55.165246 L 136.92038099999996 55.165246 Z &#10;" stroke-width="0px" fill="#d8b58e" /></g><g opacity=".66"><path d="M 180.898113 83.02722 C 162.296314 75.998718 139.222162 76.494376 120.53168099999999 83.026933 C 130.692676 84.023514 140.647326 83.691616 150.743774 83.68417 C 159.72158100000001 83.518307 171.973522 83.73592 180.898113 83.02721899999999 L 180.898113 83.02721899999999 Z &#10;" stroke-width="0px" fill="#d8b58e" /></g><path d="M 111.244055 244.267758 C 110.019825 242.076125 108.863733 240.005791 108.16775700000001 235.718741 L 108.093629 235.26199499999998 L 108.55636500000001 235.27397499999998 C 110.83747600000001 235.33125499999997 112.40239300000002 234.682451 112.57386000000001 234.607949 L 113.43082100000001 234.23543899999999 L 113.49259400000001 233.303227 C 113.632613 231.193583 112.767041 229.61855799999998 112.00292700000001 228.228477 C 111.52409200000001 227.356541 111.07146400000002 226.5329 110.77832300000001 225.521694 L 110.63830400000002 225.037992 L 111.14184800000002 225.031628 C 112.86737500000002 225.009914 115.90885600000003 224.53894100000002 116.89198400000002 221.62849400000002 C 117.60930000000002 219.514732 118.16263700000002 216.656324 118.80470300000002 213.340796 C 121.04987300000002 201.74430800000002 124.12429900000002 185.862268 137.32127100000002 185.862268 C 143.30015400000002 185.862268 148.13417700000002 187.776858 151.688936 191.552503 C 156.507235 196.670682 159.03131900000002 205.562633 158.44166700000002 215.325022 C 157.78612400000003 242.428045 143.71085200000002 270.318768 130.80327700000004 282.798798 C 129.01672500000004 284.56026599999996 127.09127800000003 286.446778 125.34665700000004 288.150966 C 123.55636100000004 289.779154 121.79077500000004 291.49794299999996 120.08920800000004 293.26989299999997 L 119.56956600000004 293.81424499999997 C 119.22850400000004 294.171406 118.88744200000004 294.528192 118.55761100000004 294.88685 L 118.01138700000004 295.48062 L 117.89607700000005 294.68206299999997 C 116.64826100000005 286.04918399999997 114.15225500000005 279.294581 112.33013700000005 274.36247099999997 C 111.41065400000005 271.876199 110.61696400000005 269.729117 110.24071000000005 268.04664399999996 L 110.16583400000005 267.71194599999995 L 110.49004900000004 267.60038 C 111.09579900000004 267.39147499999996 111.63041700000004 267.03880699999996 112.07817800000004 266.55173599999995 L 112.39228500000004 266.20917599999996 L 112.46379200000004 265.74980899999997 C 112.85277500000004 263.25417699999997 111.91307600000005 261.01424899999995 110.99995800000003 258.837591 C 110.54321200000004 257.747016 110.07036700000003 256.61975099999995 109.71844800000004 255.39252599999998 L 109.59639900000003 254.96722799999998 L 110.03480100000003 254.906952 C 111.73674200000004 254.674086 113.13356200000003 253.672988 113.87334100000002 252.81340699999998 L 114.38512100000003 252.21813899999998 L 114.20204800000003 251.45514799999998 C 113.40611100000004 248.139245 112.30767400000003 246.17224099999999 111.24405400000003 244.26775899999998 Z &#10;" stroke-width="0px" fill="#e7caae" /><path d="M 93.290732 123.760809 C 96.26343100000001 124.236504 99.27029 124.721813 102.04124200000001 125.898693 C 105.958223 127.562315 109.20439900000001 130.52277999999998 113.07917700000002 132.28246 C 124.53995500000002 137.48722299999997 140.33814700000002 132.02464799999998 151.91011200000003 136.977285 C 159.93548100000004 140.412029 163.54879800000003 148.623075 162.58113200000003 157.298767 C 161.57448500000004 166.323942 153.58742600000002 171.944385 144.511456 171.637988 C 140.839682 171.51403200000001 137.19074500000002 171.273582 133.60434700000002 170.476695 C 121.45195900000002 167.77647100000002 90.27470200000002 163.231231 76.68321600000002 143.88226600000002 C 75.84560500000002 142.68983500000002 74.22017200000002 136.98111400000002 74.48146700000001 133.92792000000003 C 74.90090900000001 129.02679000000003 75.843196 122.97840000000002 76.95051900000001 122.47704100000003 C 81.46961500000002 120.43094500000002 88.29128200000001 122.96079000000003 93.29073400000001 123.76080800000003 Z &#10;" stroke-width="0px" fill="#e7caae" /><path d="M 162.73102 154.668781 C 156.929018 158.66574 150.037579 160.881658 143.064159 161.886803 C 136.09073899999999 162.89194799999999 129.001949 162.73348499999997 121.969366 162.30725099999998 C 118.899615 162.121198 115.819228 161.88255299999997 112.820943 161.198245 C 110.151722 160.58903999999998 107.576124 159.63314 105.009545 158.679963 C 100.475638 156.99615699999998 95.924231 155.30447999999998 91.671671 153.000732 C 85.202657 149.49626 79.51797400000001 144.606532 74.87569 138.89876 C 76.79736100000001 146.364168 82.10324100000001 152.887831 89.020577 156.29012400000002 C 92.11149 157.81039 95.460093 158.72007000000002 98.682702 159.936515 C 103.38555500000001 161.71171 107.82408500000001 164.14233900000002 112.55748600000001 165.83439600000003 C 117.71539700000001 167.67820400000002 123.14469000000001 168.61782100000002 128.54247 169.54929200000004 C 134.398209 170.55978900000002 140.360676 171.57327500000002 146.253441 170.80770000000004 C 150.600571 170.24293000000003 155.241295 168.63396700000004 158.66967 165.75376400000005 C 161.559628 163.32588900000005 162.770309 159.01295800000005 162.73102 154.66878200000005 Z &#10;" fill="#754123" mix-blend-mode="multiply" stroke-width="0px" opacity=".25" /><path d="M 197.796502 143.015714 C 194.858872 153.669 195.859308 166.050976 203.114375 174.386812 C 208.720339 180.82788299999999 217.089529 183.963089 224.75408299999998 187.727238 C 230.27019399999998 190.436262 235.572444 193.580606 240.595295 197.121405 C 237.613123 192.99177600000002 233.950017 189.35507 229.798926 186.402846 C 221.87944299999998 180.77057000000002 211.840073 177.24570400000002 206.839066 168.91319700000003 C 205.986055 167.49193900000003 205.31232500000002 165.97192300000003 204.64091100000002 164.45640100000003 C 202.601887 159.85389700000002 200.51672000000002 154.85665800000004 201.58802100000003 149.93802200000002 C 202.07188600000003 147.716461 203.17460100000002 145.685673 203.94945 143.54813500000003 C 204.904539 140.91337700000003 205.35709100000003 138.12885600000004 205.98573800000003 135.39774500000004 C 206.81705800000003 131.78613000000004 207.96286700000002 128.25585100000004 209.253383 124.78428700000005 C 209.94217200000003 122.93140400000004 213.45538000000002 116.93005600000005 212.34350700000002 115.39655800000006 C 205.78426800000003 122.60767700000005 200.37439 133.66705200000007 197.7965 143.01571500000006 Z &#10;" stroke-width="0px" opacity=".66" fill="#d8b58e" /><path d="M 119.669354 167.393573 C 125.633824 167.479681 131.501328 168.506892 137.421434 169.125465 C 137.439592 169.12733699999998 137.457187 169.127431 137.475158 169.129209 C 138.17413 169.376676 138.876845 169.593443 139.585738 169.760417 C 142.17384199999998 170.369911 144.796576 170.306173 147.40246299999998 170.218754 C 149.47859899999997 170.14911899999998 151.579445 170.059922 153.561986 169.22242899999998 C 155.16246999999998 168.54648199999997 156.63641199999998 167.39488199999997 158.017508 166.061333 C 158.75560199999998 165.34878999999998 161.412218 158.906609 161.88468899999998 160.584871 C 162.310174 162.095971 160.34111099999998 166.869403 159.76699599999998 167.927407 C 158.88513899999998 169.552787 157.75412999999998 170.885213 156.50275799999997 171.845691 C 153.77313799999996 173.940734 150.59294799999998 174.444278 147.48389099999997 174.542553 C 138.93685499999998 174.542553 135.22810299999998 173.403403 127.10923199999996 172.67284 C 119.74146499999996 172.01684400000002 109.74967099999996 168.59387900000002 108.51182999999996 165.803707 C 110.68755199999995 164.590428 109.72333099999996 166.453686 112.01361399999996 165.788129 C 114.44391599999996 166.784547 117.04287699999996 167.355667 119.66935499999997 167.393573 Z &#10;" fill="#754123" mix-blend-mode="multiply" stroke-width="0px" opacity=".25" /><path d="M 192.497107 215.000614 C 196.625292 213.107866 201.18628999999999 212.26934100000003 205.726439 212.16228500000003 C 208.626403 212.09390400000004 211.548009 212.32003300000002 214.354328 213.05422700000003 C 223.72299600000002 215.50527300000002 230.94773400000003 223.56114000000002 234.219657 232.67563900000002 C 237.49158100000002 241.790138 237.259712 251.829226 235.57953500000002 261.36634200000003 C 236.422974 252.47712700000002 235.585034 243.23620800000003 231.69557400000002 235.19869400000005 C 227.806114 227.16118000000006 220.56745500000002 220.47710500000005 211.83127000000002 218.63086200000004 C 209.67717900000002 218.17563000000004 207.472664 218.01331600000003 205.27402500000002 217.89785800000004 C 202.04793500000002 217.72844400000005 198.76514000000003 217.66305800000004 195.64028100000002 218.48266000000004 C 194.19477400000002 218.86179600000003 190.023887 220.69257500000003 187.224184 220.35573500000004 C 188.079939 217.26312100000004 191.230275 215.58144900000005 192.497107 215.00061400000004 Z &#10;" fill="#754123" mix-blend-mode="multiply" stroke-width="0px" opacity=".25" /><path d="M 232.531319 278.210853 C 229.469959 280.102833 226.120399 282.06717699999996 222.536929 281.73513299999996 C 219.276602 281.43303099999997 216.524338 279.28654399999994 213.97855399999997 277.227422 C 212.900908 279.55325899999997 213.42159599999997 282.45905 215.04333299999996 284.444198 C 216.66506999999996 286.42934599999995 219.25445299999996 287.50645999999995 221.81760399999996 287.53957299999996 C 224.38075499999997 287.572686 226.90009399999997 286.62847099999993 228.99525799999995 285.15160599999996 C 230.07320599999994 284.39176899999995 231.04732299999995 283.49616599999996 232.01799999999994 282.60335599999996 C 233.55135899999993 281.193001 235.08471799999995 279.78264699999994 236.61807699999994 278.37229199999996 C 237.15671899999995 277.87685899999997 239.82676399999994 275.121292 238.16558399999994 274.82863299999997 C 237.53590799999995 274.7177 236.05601299999995 276.03252499999996 235.51256099999995 276.368389 C 234.51881599999996 276.98254299999996 233.52507099999994 277.59669599999995 232.53131999999994 278.210853 Z &#10;" fill="#754123" mix-blend-mode="multiply" stroke-width="0px" opacity=".25" /><path d="M 96.98992 389.049297 C 92.396244 390.838448 87.677014 392.486173 82.764073 392.89351200000004 C 69.73673099999999 393.973628 56.550875999999995 385.09090900000007 52.657568 372.61210900000003 C 50.419264 380.803914 54.375496 389.931709 61.143133 395.061504 C 67.91077 400.191298 76.962772 401.664222 85.364315 400.42737700000004 C 90.292585 399.701855 95.0501 398.12025900000003 99.75055300000001 396.47102700000005 C 117.96527200000001 390.08009300000003 135.783564 382.55953600000004 153.069024 373.96692700000006 C 165.71261700000002 367.68179200000003 178.189781 360.74059800000003 188.72334 351.33807100000007 C 199.256899 341.93554300000005 207.809392 329.82957100000004 210.905755 316.05365300000005 C 213.414534 304.89193900000004 212.258516 293.24419400000005 210.433111 281.95057900000006 C 207.174599 261.79046500000004 201.835371 242.03351000000006 196.505442 222.31955400000007 C 195.344123 218.02415100000007 190.364812 219.12196800000007 187.22418399999998 220.35573500000007 C 186.185251 221.86968600000006 188.13037699999998 233.79845200000005 188.865482 237.93132500000007 C 189.61475199999998 242.14383200000006 190.639176 246.28931300000008 191.76841599999997 250.40928600000007 C 210.90575499999997 316.05365300000005 138.25669299999998 366.8947770000001 96.98991999999997 389.049297 Z &#10;" fill="#754123" mix-blend-mode="multiply" stroke-width="0px" opacity=".25" /><path d="M 193.281687 379.121106 C 192.867022 379.156954 195.489477 374.828501 195.335733 374.441726 C 195.259339 374.249542 195.306872 374.03181900000004 195.37052 373.83504600000003 C 195.923998 372.123937 197.591465 370.87912100000005 197.883562 369.10460400000005 C 198.00948000000002 368.33964100000003 197.897096 367.45103500000005 198.43462300000002 366.89238600000004 C 198.71482500000002 366.60117400000007 199.11748300000002 366.46948900000007 199.502967 366.34816500000005 C 200.43248300000002 366.05561800000004 204.75974300000001 364.18104900000003 206.409398 363.97079500000007 C 206.572078 371.9808490000001 195.48705900000002 378.93044900000007 193.281687 379.12110600000005 Z &#10;" fill="#754123" mix-blend-mode="multiply" stroke-width="0px" opacity=".25" /><path d="M 170.406 364.741274 C 173.52722400000002 362.47635499999996 177.054091 360.834409 180.28126600000002 358.723081 C 189.31286200000002 352.814582 195.519744 343.606652 202.36607 335.250255 C 202.316464 334.85734099999996 202.37430600000002 334.45057499999996 202.59257100000002 334.03295099999997 C 203.763077 331.79470699999996 206.35286600000003 332.854583 207.94230500000003 333.86616399999997 C 210.94279100000003 335.7757 213.89741500000002 337.75693099999995 216.80299500000004 339.80770299999995 C 218.74061000000003 341.17532099999994 220.69057900000004 342.6074259999999 222.07935000000003 344.53025299999996 C 225.13019000000003 348.75431299999997 224.91473300000004 354.437528 224.45461800000004 359.627776 C 224.25151600000004 361.917872 224.02576300000004 364.20590799999997 223.77736100000004 366.491512 C 222.84664700000005 375.058125 221.44608300000004 383.978529 216.35785500000003 390.932865 C 213.05393200000003 395.448288 208.24705200000002 398.893353 202.84022500000003 400.332291 C 197.43339800000004 401.771229 191.45919400000002 401.141144 186.58661000000004 398.390932 C 184.27143100000004 397.084151 182.06295000000003 395.044143 181.80575000000005 392.397916 C 181.64177100000003 390.711605 182.36133300000006 388.963989 183.66474500000004 387.881837 C 184.96834400000003 386.799779 186.81854000000004 386.414259 188.44579300000004 386.885606 C 191.41782600000005 387.746498 193.08139300000005 391.007179 195.89506200000002 392.29467999999997 C 197.525684 393.04073 199.383742 393.05139999999994 201.17703300000002 393.045503 C 203.65619200000003 393.037267 206.22033500000003 393.00507 208.47879600000002 391.982445 C 210.93680200000003 390.869594 212.75293000000002 388.704542 214.24372000000002 386.455535 C 220.362061 377.224675 222.266543 365.314454 219.331948 354.636045 C 218.36360900000003 351.112454 216.83350900000002 347.63463 214.206469 345.094447 C 212.872358 343.80442 211.325973 342.804538 209.75675 341.835169 C 209.56581500000001 341.835263 209.354664 341.830396 209.10120700000002 341.8201 C 207.66189500000002 341.761135 206.40453200000002 341.817292 205.06461800000002 342.43867300000005 C 203.20655900000003 343.30031400000007 201.71277400000002 344.78483200000005 200.38296900000003 346.34245000000004 C 197.80834300000004 349.358286 195.69196000000002 352.76478900000006 194.12854000000004 356.40902500000004 C 193.42020900000006 358.06042500000007 192.89570000000003 360.17325100000005 194.11524900000003 361.49294800000007 C 194.87412200000003 362.31396800000005 196.06989800000002 362.5279280000001 197.17713400000002 362.68198600000005 C 200.18473300000002 363.1004520000001 203.15301000000002 362.29746200000005 206.409398 363.97079700000006 C 205.838831 364.27969300000007 199.56531700000002 365.28778000000005 196.300892 366.49506900000006 C 189.904385 368.8606030000001 182.86955700000001 368.51804300000003 176.05992 368.14384800000005 C 174.197369 368.04145400000004 172.328078 367.93840600000004 170.495665 367.58976200000006 C 170.101628 367.51488600000005 169.679325 367.4108070000001 169.42343400000001 367.10212900000005 C 168.810009 366.36216300000007 169.628034 365.30565600000006 170.406 364.74127500000003 Z &#10;" fill="#754123" mix-blend-mode="multiply" stroke-width="0px" opacity=".25" /><path d="M 157.346689 224.408307 C 139.586322 284.374822 108.511829 282.209929 106.456096 310.413741 L 106.456096 313.38439600000004 C 106.456096 313.38439600000004 117.28791700000001 298.879609 117.28791700000001 298.879609 L 136.122491 279.828545 L 150.627278 256.717239 L 158.107922 233.932801 L 157.346689 224.408306 Z &#10;" fill="#754123" mix-blend-mode="multiply" stroke-width="0px" opacity=".25" /><path d="M 116.605029 203.127826 C 116.03356000000001 200.630852 115.272989 198.104439 113.706604 196.077644 C 111.615328 193.37167599999998 108.258737 191.84361199999998 104.866379 191.410473 C 79.03767099999999 187.387589 77.23738599999999 213.07765899999998 79.05969099999999 225.200219 C 79.85391599999998 230.089277 80.88425199999999 234.974749 82.77411599999999 239.553188 C 81.054239 228.946536 82.44508599999999 217.854464 86.73050199999999 208.000822 C 87.36269699999998 206.547187 88.06181499999998 205.110703 89.00325499999998 203.835393 C 90.36870499999998 201.98570500000002 92.21886399999998 200.52054600000002 94.26204199999998 199.46640100000002 C 98.98926999999998 197.027463 105.31003799999998 197.034974 109.16895199999998 200.69610600000001 C 110.28752799999998 201.75735 111.14717699999997 203.05885300000003 111.94547999999998 204.37800600000003 C 112.61105499999998 205.47784300000004 113.77979599999998 213.68409100000002 114.84861999999997 213.51063900000003 C 116.83928299999997 213.18758800000003 116.87624599999997 204.31288900000004 116.60502699999996 203.12782600000003 Z &#10;" fill="#754123" mix-blend-mode="multiply" stroke-width="0px" opacity=".25" /><path d="M 70.634461 173.207536 C 72.799355 176.021898 73.185407 177.80793500000001 75.458545 179.215116 C 77.731683 180.622297 76.479673 185.22269599999998 76.479673 185.22269599999998 L 70.86481400000001 179.215116 L 70.63446 173.207536 Z &#10;" fill="#754123" mix-blend-mode="multiply" stroke-width="0px" opacity=".25" /><path d="M 68.361323 186.954611 C 70.36385 188.307669 73.06996699999999 190.580808 71.554541 193.774026 C 68.073243 190.98744499999998 68.361323 186.954611 68.361323 186.954611 Z &#10;" fill="#754123" mix-blend-mode="multiply" stroke-width="0px" opacity=".25" /><path d="M 64.789248 194.910595 C 67.549487 195.830675 70.14736 198.276431 66.304674 209.366385 C 64.08565800000001 204.97735 63.82145500000001 197.932863 63.82145500000001 197.932863 L 64.78924900000001 194.910594 Z &#10;" fill="#754123" mix-blend-mode="multiply" stroke-width="0px" opacity=".25" /><path d="M 97.634904 248.978812 C 93.690578 250.494238 83.732068 252.226152 77.23738700000001 241.834663 C 77.23738700000001 245.514982 80.80946100000001 252.983865 80.80946100000001 252.983865 L 86.87116300000001 256.717239 C 86.87116300000001 256.717239 91.400344 257.158401 92.37174900000001 256.717239 C 93.34315400000001 256.276077 96.613184 255.68998200000001 96.82967300000001 255.257003 C 97.04616200000002 254.82402399999998 97.14119700000002 254.039907 97.63490300000001 253.151064 C 98.12860900000001 252.26222099999998 97.63490300000001 248.978812 97.63490300000001 248.978812 Z &#10;" fill="#754123" mix-blend-mode="multiply" stroke-width="0px" opacity=".25" /><path d="M 86.329873 387.856753 C 100.185259 379.121328 93.25431800000001 364.58573700000005 96.719789 343.96432200000004 L 91.524831 358.63067200000006 L 85.788717 380.92907600000007 L 86.275818 384.7176400000001 L 86.329873 387.8567530000001 Z &#10;" fill="#754123" mix-blend-mode="multiply" stroke-width="0px" opacity=".25" /><path d="M 245.116022 199.738134 C 243.64553999999998 201.603724 242.86823099999998 204.473694 246.223444 206.421979 C 247.542348 204.63457499999998 246.748554 201.964539 246.748554 201.964539 L 245.11602200000002 199.738134 Z &#10;" fill="#754123" mix-blend-mode="multiply" stroke-width="0px" opacity=".25" /><path d="M 249.578658 208.370264 C 249.202101 209.253015 247.885303 212.121138 250.31169799999998 214.58388499999998 C 252.52160399999997 211.47707499999999 251.078342 208.89219899999998 251.078342 208.89219899999998 L 249.578658 208.37026399999996 Z &#10;" fill="#754123" mix-blend-mode="multiply" stroke-width="0px" opacity=".25" /><path d="M 255.046884 213.328207 C 254.109193 215.45904299999998 252.810257 217.768263 252.593768 220.94343999999998 C 252.37727900000002 224.11861699999997 253.06999900000002 229.91638999999998 252.36282300000002 234.025377 C 251.65564700000002 238.134364 254.97429100000002 233.283333 255.04688400000003 232.561702 C 255.11947700000005 231.840071 257.21220700000003 217.26312099999998 257.21220700000003 217.26312099999998 L 256.562739 210.76844 L 255.04688400000003 213.328207 Z &#10;" fill="#754123" mix-blend-mode="multiply" stroke-width="0px" opacity=".25" /><path d="M 149.278135 231.950912 C 150.709377 229.11157799999998 151.379051 225.912893 151.087909 222.78678699999998 C 151.087898 222.78678599999998 152.44035399999999 223.51187 152.44035399999999 223.51187 C 150.18804599999999 225.219441 147.019186 227.449759 144.73201799999998 229.166432 C 146.96627199999998 224.40515599999998 149.39890799999998 219.271427 151.755429 214.59557099999998 C 151.75542199999998 214.59558299999998 153.42104799999998 217.06687999999997 153.42104799999998 217.06687999999997 C 150.44376699999998 217.36397799999997 146.97414899999998 219.51098099999996 144.37035699999998 220.87754099999998 C 144.37035899999998 220.877436 146.06574899999998 216.34909599999997 146.06574899999998 216.34909599999997 C 147.226633 213.22877199999996 149.942477 210.41681599999998 150.970566 207.47953499999997 C 150.97053 207.47951399999997 153.31060499999998 209.90326499999998 153.31060499999998 209.90326499999998 C 150.47005599999997 210.57496499999996 147.93890199999998 211.13136999999998 144.999147 211.27873799999998 C 144.999134 211.27865199999997 140.914437 211.34210999999996 140.914437 211.34210999999996 C 143.05535899999998 208.54094799999996 146.259731 205.39686499999996 147.43613 202.11835399999995 C 148.000071 196.59189799999996 141.824029 193.44144199999997 136.98447399999998 193.58787299999995 C 131.98967 193.81950799999996 127.45549899999997 197.46118199999995 126.11433599999998 202.49054099999995 C 126.22342499999998 196.79670999999996 131.152315 191.87269099999995 136.74137499999998 191.06371799999994 C 140.70260399999998 190.63615399999995 144.760745 191.55483799999993 147.87384999999998 194.23310599999994 C 150.065724 196.14952599999992 151.29983199999998 199.16389699999993 151.20353199999997 202.08917999999994 C 151.21022299999996 202.96945999999994 150.81354999999996 204.05640699999995 150.46042299999996 204.75944499999994 C 149.39515199999997 206.89429299999995 147.90497599999998 208.78874599999995 146.48001999999997 210.57566999999995 C 146.48000199999996 210.57565799999995 144.99819799999997 207.45415299999993 144.99819799999997 207.45415299999993 C 147.32982399999997 207.31548899999993 149.99008399999997 206.75807999999992 152.27357699999996 206.22146799999993 C 152.27356699999996 206.22140599999992 155.71638499999997 205.30576099999993 155.71638499999997 205.30576099999993 L 154.61364199999997 208.64524999999992 C 153.54022299999997 211.9461919999999 150.76437899999996 214.71700299999992 149.46099799999996 217.67308899999992 C 149.46101999999996 217.67310199999991 146.94928999999996 215.3809469999999 146.94928999999996 215.3809469999999 C 149.74299799999997 213.93534999999991 153.19263199999997 213.6509529999999 156.28080299999996 213.4633939999999 C 154.41245599999996 216.7636479999999 152.29287899999997 220.3175339999999 150.34323099999997 223.5676449999999 C 149.861609 224.38895699999992 149.34683399999997 225.1922879999999 148.84834399999997 226.00450999999993 L 147.16250099999996 224.43912499999993 C 149.04921099999996 223.38447999999994 151.01024199999998 222.26735099999993 152.93342499999997 221.26335599999993 C 152.89631499999996 225.10349999999994 151.81798799999996 229.03994899999992 149.27813499999996 231.95091599999992 L 149.27813499999996 231.95091599999992 Z &#10;" stroke-width="0px" fill="#eeddcf" /><path d="M 146.516263 267.862784 C 141.751216 284.51914899999997 137.132776 294.333333 121.54554200000001 308.76595699999996 C 105.95830800000002 323.19858099999993 101.58510100000001 328.68297799999993 97.854329 336.76524699999993 L 106.456097 313.3843959999999 L 122.185296 293.9259389999999 L 136.122492 279.8285449999999 L 144.63774 267.8627829999999 L 146.516263 267.8627829999999 Z &#10;" stroke-width="0px" opacity=".66" fill="#d8b58e" /><path d="M 82.216642 239.832137 C 88.00773199999999 241.942908 93.41996599999999 242.538254 96.775551 247.40926499999998 C 96.396695 244.05367999999999 94.50241299999999 241.455808 94.50241299999999 241.455808 C 94.50241299999999 241.455808 89.969445 238.869779 89.76578799999999 238.815482 C 89.56213099999998 238.761185 86.54642899999999 238.773029 85.78871599999998 238.815482 C 85.03100299999997 238.857935 82.21664199999998 239.83213800000001 82.21664199999998 239.83213800000001 Z &#10;" stroke-width="0px" opacity=".66" fill="#d8b58e" /><path d="M 232.743066 270.852402 C 224.774885 270.627747 218.063715 271.65563399999996 215.24935299999999 274.82201 C 212.434991 277.988386 217.63073599999998 269.91513699999996 217.63073599999998 269.91513699999996 C 217.63073599999998 269.91513699999996 220.01211899999998 268.12867099999994 220.661587 267.862784 C 221.311055 267.596897 226.51033 266.947429 226.941544 267.05567399999995 C 227.37275799999998 267.1639189999999 231.91903399999998 268.896352 231.91903399999998 268.896352 L 232.74306599999997 270.852403 Z &#10;" stroke-width="0px" opacity=".66" fill="#d8b58e" /><path d="M 83.533051 381.812727 C 78.824976 372.41382799999997 62.860372999999996 361.26429 52.657568 372.612109 C 52.029391999999994 367.980418 56.454408 365.910538 56.454408 365.910538 L 64.82533000000001 363.032623 C 64.82533000000001 363.032623 69.73242200000001 362.022339 70.02107500000001 363.032623 C 70.309728 364.042907 74.78384100000001 367.254467 74.78384100000001 367.254467 L 82.144479 376.16631099999995 L 83.533051 381.81272799999994 Z &#10;" stroke-width="0px" opacity=".66" fill="#d8b58e" /><path d="M 105.453166 264.024823 C 105.453166 264.024823 103.793414 296.49822700000004 104.65937199999999 308.044326 L 100.90688999999999 282.787234 L 105.453167 264.024823 Z &#10;" stroke-width="0px" opacity=".66" fill="#d8b58e" /><path d="M 106.968592 167.424768 C 100.618237 170.28493 82.277321 179.521809 74.45336499999999 175.047696 L 102.75239099999999 166.130067 L 106.96859299999998 167.424767 Z &#10;" stroke-width="0px" opacity=".66" fill="#d8b58e" /><path d="M 98.146361 145.804685 C 102.731233 154.42224000000002 119.740359 166.513988 122.731386 147.130996 L 117.359371 148.20193500000002 L 106.388275 147.67432000000002 L 98.146361 145.80468500000003 Z &#10;" stroke-width="0px" /><path d="M 143.416621 123.269078 C 139.56630099999998 122.28888199999999 136.198559 121.45969799999999 132.3613 121.35341 C 132.361303 121.353365 130.126241 121.253873 130.126241 121.253873 C 128.534141 121.211714 127.06603199999999 121.099845 125.425873 121.392265 C 125.797073 120.54516799999999 126.52767999999999 119.92706299999999 127.259597 119.416125 C 132.436002 116.095773 140.682625 117.431006 143.416621 123.26907899999999 L 143.416621 123.26907899999999 Z &#10;" stroke-width="0px" /><path d="M 103.777972 84.074821 C 102.107381 83.415677 99.27093 82.20275 97.623305 81.763951 C 96.801698 81.521642 95.516671 81.236705 94.664944 81.013947 C 93.507323 80.740872 92.508846 80.42473700000001 91.22550600000001 80.400887 C 91.47652200000002 79.699043 92.05681500000001 79.19512399999999 92.64403300000001 78.801929 C 96.850807 76.148283 103.540384 78.867018 103.777972 84.074821 L 103.777972 84.074821 Z &#10;" stroke-width="0px" /><path d="M 99.022757 114.247029 C 95.172414 113.266863 91.804681 112.43781 87.96743599999999 112.331361 C 87.967439 112.331316 85.73237699999999 112.231823 85.73237699999999 112.231823 C 84.14026899999999 112.189757 82.67216099999999 112.07770500000001 81.03200899999999 112.37030800000001 C 81.40302199999999 111.523211 82.13381599999998 110.90501200000001 82.86573299999999 110.394074 C 88.04215199999999 107.073655 96.288681 108.40906100000001 99.02275699999998 114.247028 L 99.02275699999998 114.247028 Z &#10;" stroke-width="0px" /><path d="M 150.32341 92.907526 C 148.652819 92.248382 145.81636799999998 91.035455 144.168743 90.59665600000001 C 143.347185 90.35440600000001 142.061906 90.06935000000001 141.210195 89.846652 C 140.052633 89.573642 139.054242 89.257343 137.770944 89.233686 C 138.021773 88.53184200000001 138.602253 88.02783000000001 139.189471 87.634635 C 143.39631599999998 84.98105100000001 150.085691 87.699781 150.32341 92.907527 L 150.32341 92.907527 Z &#10;" stroke-width="0px" /><path d="M 135.660364 94.701292 L 135.660755 94.700683 L 135.660798 94.700683 C 136.498646 93.429778 138.02922 92.698042 139.628419 92.960756 C 141.797403 93.31710000000001 143.266876 95.36422900000001 142.91057600000002 97.533257 C 142.78311100000002 98.30926400000001 142.436552 98.99316300000001 141.94804700000003 99.53850700000001 L 141.94939500000004 99.539551 C 136.39305600000003 108.46411 139.16557200000003 120.330833 139.16557200000003 120.330833 L 131.31091500000002 119.040532 C 129.25730600000003 105.685766 134.80616500000002 96.08848499999999 135.57203900000002 94.84236899999999 C 135.60069800000002 94.79466199999999 135.62987900000002 94.74760799999999 135.66036400000002 94.70129299999999 Z &#10;" stroke-width="0px" /><path d="M 89.886373 86.882426 C 89.91520600000001 86.83441499999999 89.94460400000001 86.78701199999999 89.975307 86.740393 L 89.975437 86.74017599999999 L 89.975437 86.74017599999999 C 90.813328 85.46927099999999 92.343902 84.737535 93.943101 85.000249 C 96.112085 85.356549 97.581558 87.403722 97.225258 89.572706 C 97.097793 90.348713 96.751234 91.03265499999999 96.262729 91.578 L 96.26407699999999 91.579044 C 90.70769499999999 100.503603 93.48025399999999 112.37032599999999 93.48025399999999 112.37032599999999 L 85.62559699999998 111.08002499999999 C 83.57220499999998 97.727042 89.11941199999998 88.13058799999999 89.88637299999999 86.88242699999999 Z &#10;" stroke-width="0px" /><circle cx="139.079709" cy="97.044935" r="2.722138" stroke-width="0px" fill="#fff" /><circle cx="93.275765" cy="89.24149" r="2.722138" stroke-width="0px" fill="#fff" /><path d="M 93.315463 125.509034 C 90.48603999999999 124.17573 86.80536699999999 122.745332 82.37262 121.741526 C 78.337767 120.82782599999999 74.728763 120.50501999999999 71.794365 120.439596 C 71.023556 120.44361099999999 69.85619 120.56286 68.942341 121.342293 C 66.654596 123.29355199999999 67.628813 127.927031 68.075329 130.391569 C 68.64957 133.561046 72.518914 138.667413 75.859996 140.174184 C 79.400308 141.770804 87.150774 136.639376 87.150774 136.639376 C 87.150774 136.639376 93.848071 132.254804 95.556816 128.638217 C 96.147413 127.388477 94.889644 125.879868 93.315462 125.509035 Z &#10;" stroke-width="0px" /><path d="M 90.401289 129.780332 C 90.57168800000001 129.780332 90.74104600000001 129.70925799999998 90.861485 129.570382 C 91.460408 128.88046 91.256108 127.84587499999999 90.712646 127.24457199999999 C 90.22063100000001 126.70006899999998 89.528627 126.454731 89.02323000000001 126.27541 C 84.13727500000002 124.54019699999999 79.07348800000001 123.18800999999999 73.97282500000001 122.256318 C 81.98637000000002 125.094169 83.79097700000001 125.70979299999999 88.61582000000001 127.42329699999999 C 89.11244500000001 127.599346 89.54468700000001 127.768853 89.80890900000001 128.061177 C 90.00547700000001 128.27885899999998 90.07000900000001 128.62411699999998 89.94168900000001 128.772213 C 89.72118200000001 129.026176 89.74839200000001 129.410688 90.00235500000001 129.63134399999998 C 90.11759 129.73126399999998 90.25988600000001 129.780331 90.40129 129.780331 Z &#10;" stroke-width="0px" fill="#fff" /><path d="M 50.149767 380.402991 C 51.843472 386.995861 56.278777999999996 392.567791 62.976099999999995 396.516774 C 68.79886599999999 399.949859 75.81703399999999 401.82439 82.80937 401.82439 C 83.030255 401.82439 83.251141 401.822518 83.472026 401.818774 C 94.030165 401.639445 138.96108 383.47386 166.804444 368.679213 C 172.89957299999998 370.07154 178.59748199999999 370.772009 183.81431099999998 370.772009 C 188.63279699999998 370.772009 193.04208299999996 370.177584 196.98994299999998 369.00099400000005 C 195.82561399999997 371.52283200000005 193.305086 373.869273 190.67411599999997 376.31099300000005 C 186.58286799999996 380.10760300000004 182.35309799999996 384.0330000000001 181.79788899999997 389.61878200000007 C 181.34151699999998 392.5591800000001 182.14756199999997 395.63472900000005 184.07113799999996 398.2861040000001 C 186.35524399999997 401.4342840000001 189.96653399999997 403.66597600000006 193.73094699999996 404.25562800000006 C 194.64181899999997 404.39864200000005 195.53883899999997 404.46415900000005 196.41751299999996 404.46415900000005 C 203.14029399999995 404.46415900000005 208.81293199999996 400.624495 211.78440399999997 398.13335600000005 C 218.39861399999995 392.33492500000006 226.39317099999997 381.126297 227.10299899999995 360.49896200000006 C 227.10337299999995 354.5616350000001 225.94316299999994 349.9861230000001 224.59913099999994 346.66563400000007 C 234.29469299999994 351.9963680000001 246.19836199999995 356.89778000000007 260.0441379999999 359.5225730000001 C 267.8559959999999 360.8935610000001 275.7037959999999 361.5678230000001 283.47858999999994 361.5678230000001 C 310.43260899999996 361.5678230000001 336.54988399999996 353.4684390000001 357.58903899999996 338.20188300000007 C 382.25895199999997 320.30005100000005 398.168323 294.1520760000001 402.38611199999997 264.57401300000004 C 411.40385499999996 208.20740700000005 387.778468 162.75666300000003 372.89228399999996 140.68346400000004 C 359.42351099999996 121.09990700000004 346.69227099999995 111.33976400000005 338.26792299999994 104.88129700000005 C 329.7716939999999 98.36779600000004 326.90093099999996 95.86692300000004 328.2247469999999 90.98760000000004 C 328.5351099999999 89.85584300000005 329.9742349999999 88.54700300000005 332.48559099999994 88.18572400000005 C 335.0171629999999 87.81957800000005 344.03715299999993 87.87685900000005 353.92832999999996 103.88094800000005 L 355.44046 106.32753600000005 L 357.11656899999997 103.99026800000006 C 366.94859399999996 90.27814700000006 368.04216399999996 72.92328600000006 360.116493 56.375594000000056 C 354.727262 45.123163000000055 345.700159 35.244715000000056 334.011198 27.808362000000056 C 321.490361 19.842632000000055 306.48662099999996 15.166974000000057 290.621802 14.287550000000056 C 269.364757 13.927394000000056 254.057018 18.701141000000057 243.74428699999999 28.846898000000056 C 233.618372 38.80808400000006 228.484095 54.049183000000056 228.484095 74.14639200000006 C 228.484095 109.82052100000007 241.908317 136.47540800000007 252.695016 157.89306400000007 C 259.368753 171.14469500000007 265.132741 182.58918400000007 266.523945 193.36128200000007 C 269.04203900000005 210.05947600000007 267.808076 225.17665400000007 262.862862 238.33319200000008 C 259.76485 246.57596400000008 255.299968 253.70382700000008 249.76566300000002 259.3380910000001 C 253.530637 249.7041150000001 256.072318 238.25962600000008 257.360941 225.0564770000001 C 259.184182 219.0626180000001 259.71543 215.6763320000001 258.335083 210.47279400000008 L 257.843519 208.62035100000008 L 253.60102 209.7453690000001 L 253.161495 206.0176460000001 L 249.355526 203.8072940000001 C 248.845243 202.1622590000001 248.682012 200.3779530000001 249.03580399999998 199.9024880000001 L 250.067601 198.51839700000008 L 248.798445 197.34807800000007 C 247.34883699999997 196.01190800000006 244.640557 195.39305400000006 242.27745599999997 196.18412400000008 C 232.42746099999997 186.05296800000008 227.32463199999998 183.12904300000008 222.80546499999997 180.5394420000001 C 218.61837499999996 178.14040100000008 215.00221699999997 176.06819600000009 208.13342799999998 168.6224830000001 C 196.34787699999998 154.9990900000001 213.014997 119.0254560000001 218.49220799999998 107.2039640000001 C 226.49837099999996 89.92360600000009 230.41590599999998 66.5707690000001 215.10592099999997 57.6275280000001 C 209.40183399999998 54.2947780000001 203.71609199999997 53.7193520000001 198.66305599999995 55.961902000000094 C 192.11174199999996 58.86879200000009 186.75526899999994 66.4441350000001 183.20575199999996 77.6220630000001 C 182.81358699999996 78.8100710000001 182.44369699999996 80.0088430000001 182.12322599999996 81.2236200000001 C 175.25406199999995 78.0245240000001 169.99305599999997 77.3312620000001 168.57059099999995 77.0927810000001 C 164.57218899999995 58.217555000000104 156.58699199999995 48.7228490000001 144.18296199999995 48.075916000000106 C 140.79892199999995 47.895089000000105 137.62940199999994 49.0807580000001 135.01434299999994 51.49252800000011 C 129.94052899999994 56.17155600000011 127.08417999999995 65.19847200000011 126.50351299999994 78.3134540000001 C 120.36645299999994 79.7123330000001 114.06953199999994 81.75121800000011 108.00341799999994 84.6841280000001 C 89.56060299999994 93.6011630000001 77.45682799999994 108.58318800000009 72.02753699999994 129.2142670000001 C 70.78870599999993 134.3054900000001 71.68647499999994 139.3079850000001 74.68714799999994 144.1172980000001 C 79.53277599999994 151.88366900000008 89.90316299999994 158.8204090000001 104.14540899999994 164.0634440000001 C 104.03534099999995 164.0746750000001 103.92358799999994 164.08347300000008 103.81445499999994 164.0958280000001 C 96.95202999999994 164.6566520000001 90.98025999999994 167.1537820000001 86.18217799999994 169.1600960000001 C 83.19423399999994 170.4097840000001 80.61361799999993 171.4887530000001 78.73272199999994 171.7010280000001 C 73.44082999999993 172.2981680000001 71.11366999999994 170.5142370000001 71.01670499999994 170.4378630000001 L 67.92393399999995 167.9980140000001 L 67.88424899999994 171.9144260000001 C 67.88349999999994 172.2169270000001 67.89959899999994 178.4125770000001 70.39148599999994 183.2353690000001 C 69.04745399999995 183.6790120000001 68.47352599999995 183.6737710000001 66.13363799999995 183.1215570000001 L 61.64816499999995 182.06243000000012 L 64.05956099999995 185.9900730000001 C 65.09248099999995 187.67292100000012 65.25945599999994 188.3475580000001 65.47098199999995 189.2018980000001 C 65.59415399999995 189.6990780000001 65.73379799999995 190.2640200000001 66.01795399999995 191.01877500000012 C 65.72630999999994 191.09103100000013 65.42642999999994 191.1662820000001 65.12280599999994 191.2422810000001 C 63.98505899999994 191.5271860000001 62.80874999999994 191.8218250000001 62.06522699999994 191.97270100000011 L 58.180637999999945 192.7607750000001 L 61.21051299999994 195.3166820000001 C 62.48678199999994 196.3930310000001 62.55791399999994 199.0739810000001 62.64851499999994 202.4681300000001 C 62.68745099999994 203.92485100000007 62.73125299999994 205.57587600000008 62.88549899999994 207.2890490000001 L 62.915449999999936 207.91688800000009 C 63.205595999999936 213.67713200000009 63.27448299999993 215.04587300000009 65.64806499999993 222.4260690000001 C 66.58327199999994 225.3346440000001 68.15717399999993 228.6894830000001 69.67903799999993 231.9338790000001 C 71.32107799999993 235.4343520000001 73.01927599999993 239.0542540000001 73.88072899999993 242.0305920000001 C 74.04171299999993 242.5869240000001 74.18510199999993 243.1039460000001 74.32062799999993 243.5902680000001 C 75.23000199999993 246.86274300000008 75.83088599999992 249.0244250000001 78.56986599999993 252.1872060000001 C 83.10288499999993 257.4105860000001 87.48016199999994 258.6190920000001 90.55870599999993 258.6194660000001 C 91.97649099999992 258.6194660000001 93.11798299999992 258.3630140000001 93.87348599999993 258.1249070000001 C 97.41401799999993 257.00737600000014 100.10732399999993 254.10142200000013 100.42330199999992 251.05806900000013 C 100.64942899999993 248.87766700000014 100.58016799999992 244.70480400000014 97.57462799999992 241.25262500000014 C 95.02845499999992 238.32757700000013 91.00758999999992 236.62338900000015 85.60825099999992 236.17637700000014 C 83.96096899999992 221.33174900000014 85.90288999999993 210.04749600000014 91.11990499999993 204.29698600000015 C 93.56574399999994 201.60143400000015 96.69408099999993 200.22295900000015 100.15224899999993 200.30045600000014 C 111.85412499999993 201.40993800000015 112.43872299999992 209.87462500000015 111.81612599999993 221.74768800000015 C 110.82083099999993 221.86571200000014 109.71359599999992 221.72709700000016 109.30963699999992 221.64024000000015 L 106.99033899999992 221.14268600000014 L 106.98434899999992 223.51327400000014 C 106.98434899999992 226.55775000000014 108.07192899999993 228.53636000000014 108.94536299999993 230.12636100000014 C 109.35194199999992 230.86576600000015 109.65893499999993 231.44231400000015 109.83938799999993 231.98966100000015 C 109.05730399999993 232.09261600000016 107.98469899999994 232.11283300000017 106.78368099999993 231.79161300000015 L 104.10123299999994 231.07242500000015 L 104.38052199999994 233.83574000000016 C 104.93666699999994 239.33560100000017 106.10193099999994 242.24717100000015 107.35030899999994 244.63367100000016 C 106.98921699999994 246.68509800000015 106.62194799999993 248.70863400000016 106.25130999999993 250.67751000000015 L 105.41381699999994 250.33326600000015 L 105.73859399999994 253.32589000000016 C 105.66034799999994 253.71112900000017 105.58247699999994 254.09964400000015 105.50404399999994 254.47730200000015 C 105.28952299999993 255.50797600000016 104.84251099999993 256.84639200000015 104.27606999999993 258.5412200000001 C 101.26042199999993 267.5672000000001 95.67520099999993 284.31518600000015 103.68080199999993 315.19338600000015 C 94.48447799999992 332.06585500000017 91.46433699999993 348.72445700000014 89.19969999999992 361.25933400000014 C 87.98670199999992 367.97350400000016 86.97212599999992 373.5888620000001 85.37463699999992 377.3210780000001 C 82.20661499999993 372.0797280000001 75.24273199999992 362.07062000000013 67.90446699999993 361.3810080000001 C 60.55908899999993 360.1358130000001 53.11487399999993 363.7819210000001 50.57057199999993 369.8817300000001 C 48.97270899999993 373.71203400000013 49.459779999999924 377.7171750000001 50.14976599999993 380.4029920000001 Z M 109.06629 264.607333 C 108.989916 264.604712 108.899316 264.594604 108.791119 264.574013 L 106.518245 264.14422199999996 L 106.518245 266.45752899999997 C 106.518245 268.918343 107.584111 271.80220899999995 109.058802 275.79349699999995 C 111.102367 281.32255999999995 113.876352 288.85063699999995 114.848622 298.74752299999994 C 111.645595 302.59589099999994 108.87048700000001 306.49994799999996 106.456097 310.41373999999996 C 100.26756 283.639237 104.94247 268.66628999999995 107.734799 260.28883399999995 C 107.75258199999999 260.33132599999993 107.770927 260.37540999999993 107.788523 260.41762099999994 C 108.459041 262.0169819999999 109.014625 263.34154599999994 109.066289 264.60733199999993 Z M 117.220708 221.98654299999998 C 117.946635 219.84657399999998 118.502593 216.974314 119.14653 213.648678 C 121.366242 202.183224 124.40622499999999 186.48051199999998 137.286844 186.48051199999998 C 143.155659 186.48051199999998 147.895712 188.35429499999998 151.37522 192.05019599999997 C 156.122386 197.09274899999997 158.607909 205.87800199999998 158.023873 215.55053899999996 C 157.370202 242.57569099999995 143.355579 270.33088699999996 130.49967 282.76075 C 128.71368 284.521937 126.78842 286.40798099999995 125.054281 288.102248 C 123.18218300000001 289.804845 121.41828100000001 291.52952999999997 119.74816200000001 293.270968 C 119.61694100000001 293.398352 119.53102000000001 293.481745 119.52465600000001 293.48792199999997 L 119.532892 293.49653299999994 C 119.099357 293.95140699999996 118.66133 294.40534599999995 118.240899 294.86237299999993 C 116.990088 286.20834199999996 114.526092 279.5275859999999 112.655117 274.4644409999999 C 111.733014 271.97030699999993 110.950181 269.8513039999999 110.580291 268.19765799999993 C 111.241076 267.97003399999994 111.83222500000001 267.58292199999994 112.326035 267.04568399999994 L 112.718762 266.61776499999996 L 112.808239 266.04383699999994 C 113.213695 263.4411319999999 112.25303 261.15028799999993 111.323814 258.93506799999994 C 110.866693 257.84449299999994 110.399464 256.73107999999996 110.052412 255.52182599999995 C 111.914963 255.26687199999995 113.384788 254.16356699999994 114.129434 253.29836999999995 L 114.769253 252.55447299999994 L 114.54050500000001 251.60054699999995 C 113.73184 248.23223099999996 112.61992400000001 246.24164099999996 111.54469900000001 244.31619299999994 C 110.34255800000001 242.16386999999995 109.196948 240.11300399999993 108.511829 235.89221999999995 C 110.839737 235.95286999999996 112.460812 235.29470599999996 112.69218000000001 235.19437199999996 L 113.763287 234.72864099999995 L 113.840784 233.56356399999996 C 113.988291 231.34235499999997 113.094266 229.71528999999995 112.305068 228.27953399999996 C 111.841583 227.43605099999996 111.39344700000001 226.62064699999996 111.11228600000001 225.64987399999995 C 113.54689300000001 225.61917499999996 116.27314400000002 224.79141599999994 117.220706 221.98654399999995 Z M 110.201229 250.40907599999997 C 110.307741 250.71363599999998 110.41200599999999 251.02764899999997 110.51102999999999 251.36393799999996 C 110.35453799999999 251.45612999999997 110.173712 251.54008499999995 109.97734799999999 251.60597599999997 C 110.052224 251.20931799999997 110.12672599999999 250.80985199999998 110.201229 250.40907599999997 Z M 165.147803 79.49986999999996 C 163.47787100000002 78.94952799999996 152.61798000000002 75.50858199999996 143.30279000000002 75.89550599999995 C 142.20060900000001 75.97450099999996 141.523726 75.98198799999996 140.007291 76.13061799999996 C 139.994188 76.13192799999996 139.980335 76.13230299999995 139.967419 76.13361299999995 C 139.938966 76.13642099999996 139.909951 76.14007099999995 139.881685 76.14297299999996 C 139.835074 76.14765299999995 139.795577 76.15102199999995 139.747656 76.15598299999995 C 139.747282 76.15654499999995 139.746907 76.15701299999995 139.74672 76.15757399999995 C 136.73051 76.46662599999995 133.58832 76.90362399999995 130.37630900000002 77.50759599999995 C 131.15090600000002 63.22023599999995 134.68975300000002 57.006614999999954 137.61330400000003 54.31087699999995 C 139.47810200000004 52.59059099999995 141.62069100000002 51.78042799999995 143.98304200000004 51.90434799999995 C 154.65705200000005 52.46105399999995 161.55466900000005 61.36049299999995 165.07086700000005 79.11107499999994 L 165.14780300000004 79.49987099999994 Z M 207.3929 330.405936 C 211.253903 322.375251 213.64658 312.73023 213.64658 300.372811 C 213.64658 294.676212 213.214917 289.15997100000004 212.522685 283.86854700000004 C 213.070406 284.874699 213.751782 285.79296500000004 214.554083 286.56522200000006 C 216.361975 288.30497600000007 218.964679 289.57562900000005 222.042475 289.57562900000005 C 225.247186 289.57600300000007 228.965925 288.1994 232.841154 284.54131200000006 C 237.97636699999998 280.11536600000005 242.34858899999998 274.49205200000006 245.948274 267.70675000000006 C 253.994121 261.80227500000007 277.455716 240.14108400000006 270.320554 192.82966000000005 C 268.851104 181.44919100000004 262.950841 169.73364900000004 256.118741 156.16866000000005 C 245.51474 135.11340700000005 232.317769 108.90964900000004 232.317769 74.14639300000005 C 232.317769 55.115050000000046 237.066807 40.79343400000005 246.432726 31.579514000000046 C 255.974979 22.192255000000046 270.384574 17.789521000000043 290.484404 18.117854000000044 C 319.82174 19.746042000000045 345.826326 35.41393600000004 356.659074 58.03186100000004 C 363.51214 72.33999900000003 363.08122599999996 87.25501000000004 355.571494 99.40071700000004 C 351.469389 93.48809900000005 342.50480699999997 82.86912300000004 331.93936799999994 84.39098700000004 C 328.22062999999997 84.92635400000003 325.31055699999996 87.11948400000004 324.52622699999995 89.97864100000004 C 322.46038599999997 97.59320000000004 327.82116499999995 101.70279300000004 335.93552399999993 107.92352700000004 C 344.1678139999999 114.23486200000004 356.60890799999993 123.77262200000004 369.7235149999999 142.84140400000004 C 384.2839869999999 164.43165000000005 407.4103219999999 208.90188700000004 398.5954939999999 264.00046100000003 C 394.52071799999993 292.57405700000004 379.1598179999999 317.81265700000006 355.3375059999999 335.09900500000003 C 329.0648629999999 354.163294 294.5823919999999 361.691745 260.7326279999999 355.75142300000005 C 236.03164099999992 351.06846400000006 217.67961399999993 338.88297900000003 207.39290199999994 330.40593700000005 Z M 209.780522 268.703636 C 208.128561 261.42808 206.204611 254.83427400000002 204.542354 249.15658100000002 C 202.74906299999998 243.03094000000002 201.200244 237.74092000000002 200.588504 233.677376 L 200.571282 233.57928800000002 C 198.805321 224.924695 198.623184 221.24367600000002 198.699933 219.74511800000002 C 200.66075999999998 219.28650000000002 203.382331 219.04614600000002 206.85828199999997 219.672862 C 213.77536699999996 220.664975 220.12114499999998 223.61098800000002 224.33706299999997 227.76663000000002 C 230.39044799999996 233.734282 237.13045099999997 253.82774700000002 231.16354799999996 265.959227 C 227.10093999999995 264.664988 220.00171799999995 263.796983 214.22331599999995 269.915136 C 213.15014899999994 269.51173900000003 209.78052299999996 268.703635 209.78052299999996 268.703635 Z M 212.12172099999998 273.86281 C 211.75969299999997 274.636564 211.48976399999998 275.42679200000003 211.32578399999997 276.22422600000004 C 211.14271099999996 275.220882 210.95158899999998 274.22998600000005 210.75410199999996 273.24798100000004 C 211.20523299999996 273.46652700000004 211.66179199999996 273.670471 212.12171999999995 273.86281 Z M 172.028385 365.827919 C 178.68808199999998 362.086812 183.94646699999998 358.672353 186.86253 355.972683 C 193.936481 349.42417700000004 200.64672 342.618845 205.581639 333.878706 C 208.93834999999999 336.606642 213.078642 339.672832 217.94654599999998 342.744637 C 218.714778 343.626588 223.270448 349.326369 223.270448 360.43307200000004 C 222.608915 379.62465100000003 215.302472 389.95123400000006 209.28951999999998 395.22291000000007 C 206.46031399999998 397.59424700000005 200.70605999999998 401.4694770000001 194.32471599999997 400.4683790000001 C 191.54530299999996 400.03259800000006 188.87258799999998 398.3752080000001 187.17439099999996 396.0349450000001 C 186.23057399999996 394.7339670000001 185.18979099999996 392.65989000000013 185.59262599999997 390.1665040000001 L 185.60834999999997 390.04108600000006 C 186.00107699999998 385.87795600000004 189.53749099999996 382.59574800000007 193.28168699999998 379.12110700000005 C 197.02494699999997 375.64758900000004 200.87284699999998 372.06550100000004 201.42449899999997 367.3418270000001 C 202.93681599999996 366.6495010000001 205.07584799999998 364.8715600000001 206.40939799999998 363.97079600000006 C 206.40939799999998 363.97079600000006 202.512454 362.9605260000001 198.76938099999998 364.3225280000001 C 191.75514399999997 367.1970340000001 182.67394299999998 367.70890800000006 172.028385 365.82791900000007 Z M 54.10848299999999 371.357544 C 56.17469799999999 366.40409300000005 62.453835999999995 364.32178 67.32829199999999 365.171627 L 67.49676399999998 365.193341 C 73.61136099999999 365.706806 80.99679799999998 377.10468399999996 83.53304999999999 381.812727 C 83.58396599999999 381.907071 83.53304999999999 381.812727 83.679808 382.087711 C 85.301632 384.88004 86.329872 387.856753 86.329872 387.856753 C 86.329872 387.856753 88.819513 384.71765200000004 87.70029799999999 381.162238 C 87.880001 380.827166 87.809992 380.978978 87.863903 380.885757 C 90.30730799999999 376.658608 91.50495699999999 370.062743 92.972348 361.940709 C 96.140744 344.40305700000005 100.82127 318.577426 122.51203699999999 295.93086100000005 C 123.266791 295.19772700000004 125.29931199999999 293.2223000000001 127.710146 290.86706100000004 C 127.857091 290.73359400000004 127.99579999999999 290.59825500000005 128.144055 290.465162 L 128.13357200000002 290.453369 C 129.76176 288.861683 131.52940600000002 287.129417 133.177997 285.50347500000004 C 146.904345 272.23237600000004 161.170927 243.98935900000004 161.85342500000002 215.71264800000006 C 162.161167 210.64014400000005 162.03387700000002 197.77899300000007 154.16661000000002 189.42240900000007 C 149.93384500000002 184.92645300000007 144.25484200000002 182.64684000000008 137.286841 182.64684000000008 C 121.78685700000001 182.64684000000008 117.970031 199.65090400000008 115.62452700000001 211.67390700000007 C 115.55489200000001 211.01452600000007 115.46522700000001 210.36141700000007 115.35253800000001 209.71654300000006 C 115.22375100000001 208.93539500000006 115.075495 208.20956100000006 114.905151 207.55766800000006 C 114.898787 207.57414100000005 114.890737 207.58986500000006 114.884186 207.60624400000006 C 113.334057 201.91891100000007 109.480354 197.31101500000005 100.44239400000001 196.47726600000007 L 100.320345 196.46977800000008 C 95.66378 196.33874400000008 91.515625 198.1552470000001 88.280589 201.7212370000001 C 83.91941100000001 206.52793000000008 79.288678 216.7646620000001 81.99171700000001 238.23585400000007 L 82.195755 239.85505700000007 L 83.82693800000001 239.91196300000007 C 88.95747100000001 240.09016900000006 92.60994400000001 241.38815200000008 94.68327200000002 243.76997100000008 C 96.73713300000001 246.12895300000008 96.77195000000002 249.10079900000008 96.60984300000001 250.6627210000001 C 96.47581400000001 251.9550880000001 95.06701400000001 253.72816200000008 92.71963800000002 254.4686900000001 C 90.63919600000001 255.12610500000008 86.41204700000002 255.3754440000001 81.46645900000001 249.67584900000008 C 79.29354500000001 247.1667400000001 78.86600000000001 245.62840300000008 78.01428100000001 242.5637110000001 C 77.87538500000001 242.0650340000001 77.72825300000001 241.53490900000008 77.56315000000001 240.9650990000001 C 76.61783500000001 237.6989890000001 74.85486900000001 233.9405660000001 73.149933 230.30569000000008 C 71.67898500000001 227.1702390000001 70.157871 223.92809000000008 69.29754 221.25238000000007 C 67.077828 214.35101900000006 67.026912 213.33906400000006 66.744254 207.72408000000007 L 66.708688 207.01986700000006 C 66.56043299999999 205.35274300000006 66.519999 203.83462300000005 66.480689 202.36629700000006 C 66.40731 199.60934700000007 66.340296 197.10023700000005 65.561581 195.08456400000006 C 65.724063 195.04375600000006 65.888417 195.00257400000007 66.05426800000001 194.96101800000005 C 67.19239 194.67611300000004 68.36982200000001 194.38110000000006 69.113719 194.23022400000005 L 71.617213 193.72256200000004 L 70.430047 191.46091900000005 C 69.577204 189.83535200000006 69.390388 189.08022300000005 69.19234 188.28091700000004 C 69.120833 187.99226800000005 69.048952 187.70062500000006 68.952735 187.38277400000004 C 70.14065000000001 187.36143400000003 71.081098 187.06305200000003 72.46743500000001 186.57336000000004 C 72.88225000000001 186.42697700000005 73.35322300000001 186.26037700000003 73.91105300000001 186.07767800000005 L 76.54932400000001 185.21510100000006 L 74.80807300000001 183.05341800000005 C 73.11287100000001 180.94901600000006 72.30345600000001 177.62075800000005 71.95303500000001 175.03115700000006 C 73.66545900000001 175.53095700000006 76.04690400000001 175.86116200000006 79.16251300000002 175.51074100000005 C 81.58776100000001 175.23706800000005 84.40236600000001 174.06001000000006 87.66098800000002 172.69725900000006 C 90.91474300000002 171.33656700000006 94.74486000000002 169.74881200000007 98.96920200000002 168.75969400000005 C 98.98136900000003 168.77466900000005 98.99466000000002 168.78852100000006 99.00682700000003 168.80359000000004 C 100.72692600000003 168.38615400000003 102.51141900000003 168.06652500000004 104.35319200000004 167.90891000000005 C 104.96755300000004 167.83721600000004 105.60288000000004 167.78966900000006 106.24812700000004 167.75653600000004 C 114.78310500000003 167.38617800000003 125.43933200000004 170.07789300000005 125.55482900000004 170.10728200000003 L 125.57205100000004 170.04017400000004 C 130.37687200000005 171.04342500000004 134.75339900000006 171.78769600000004 138.71380100000005 172.15234500000003 C 138.71361400000004 172.15459100000004 138.71398800000006 172.15665 138.71361400000004 172.15889700000002 C 138.79017500000003 172.16563600000003 138.86318000000003 172.16900500000003 138.93936600000004 172.17555700000003 C 139.32872300000002 172.21009400000003 139.70610100000005 172.23339900000002 140.08722200000003 172.26035500000003 C 140.40919100000002 172.28263100000004 140.73303100000004 172.30705900000004 141.05013300000002 172.32418700000002 C 141.472249 172.34711800000002 141.885941 172.361251 142.29794900000002 172.37398000000002 C 142.637514 172.38502400000002 142.97483200000002 172.39363500000002 143.30803200000003 172.39794 C 143.46021800000003 172.399531 143.620267 172.408984 143.77114300000002 172.408984 C 143.86810800000003 172.408984 143.95646200000002 172.400092 144.05267800000001 172.39925 C 147.588905 172.391482 150.75037500000002 171.99940999999998 153.40437000000003 171.100518 C 160.80365900000004 168.594217 161.77873800000003 162.706121 161.79071800000003 162.46895 L 161.88468800000004 160.58487200000002 L 160.70688200000004 162.05806600000003 C 160.68105000000003 162.09045000000003 157.36608300000003 165.66130700000002 151.25354500000003 167.45815400000004 C 147.89945500000002 168.44390200000004 143.41136200000003 168.73030500000004 138.55543800000004 168.27580500000005 C 134.92393100000004 167.91958000000005 130.91186400000004 167.23389900000004 126.55555300000003 166.32883100000004 C 126.10517100000003 166.21586100000005 124.51386000000004 165.82781400000005 122.25708400000003 165.39119100000005 C 100.14888100000003 160.31812500000004 84.03828000000004 151.86251700000005 77.93978100000004 142.08814700000005 C 75.50554800000003 138.18633600000004 74.76651800000003 134.17183600000004 75.74365500000003 130.15509000000006 C 86.51500500000003 89.22444900000005 122.75089400000003 80.47944300000006 147.31167400000004 79.45569400000005 C 156.90783800000003 79.12811000000005 161.82927900000004 79.72431300000005 161.87401700000004 79.73226900000004 L 165.94991600000003 80.30338900000004 C 166.03340300000002 80.32491600000004 174.10508300000004 82.44148600000004 181.75782900000002 82.67734600000004 C 181.57344600000002 83.45091300000004 181.509801 84.43900100000005 181.519722 85.50103000000004 C 181.495013 89.25252700000004 182.427973 93.48688300000005 182.427973 93.48688300000005 C 182.427973 93.48688300000005 184.046614 88.70050100000005 185.041348 85.26760300000005 C 185.203643 84.73944300000005 185.31708 84.35729300000006 185.350775 84.21549500000005 C 188.477989 71.09751800000005 193.714847 62.35167000000005 200.217866 59.46611900000005 C 204.15262299999998 57.72037500000005 208.511554 58.21493400000005 213.172238 60.93781500000005 C 226.260264 68.58307300000006 222.343852 89.77123200000005 215.01345 105.59262300000006 C 205.06050000000002 127.07467200000006 193.222161 157.24575700000005 205.275021 171.17651800000004 C 212.584459 179.10106500000003 216.62329300000002 181.41549600000005 220.89948700000002 183.86582700000005 C 225.55567800000003 186.53404900000004 230.370233 189.29287100000005 240.47181300000003 199.83360100000004 L 241.59196400000002 201.00242200000005 L 242.931878 200.09417100000005 C 243.58255400000002 199.65240000000006 244.43277600000002 199.61571100000003 245.116024 199.73813400000006 C 244.71655800000002 202.21953900000005 245.71990200000002 205.09329700000006 245.98197000000002 205.78552900000005 L 246.22344700000002 206.42197900000005 L 249.57866 208.37026400000005 L 250.3117 214.58388500000004 L 255.046886 213.32820700000005 C 255.625306 216.64673100000005 255.120639 219.27526800000004 253.63846 224.11977300000004 L 253.581928 224.30434300000005 L 253.563583 224.49640100000005 C 251.003932 251.00977200000005 242.961829 270.77827400000007 230.306962 281.66455900000005 L 230.238824 281.72595800000005 C 224.59651 287.06988900000005 219.810783 286.303529 217.212571 283.80303000000004 C 214.76560899999998 281.44779200000005 213.769378 277.115067 216.74347 273.72391300000004 C 223.247612 266.30777700000004 230.852062 269.92393400000003 231.173282 270.08117400000003 L 232.743066 270.85240100000004 L 233.663297 269.36385700000005 C 241.982443 255.73522300000005 234.228988 232.13491900000005 227.028122 225.03663300000005 C 222.241646 220.31792000000004 215.112661 216.98367200000004 207.470023 215.88897900000006 C 203.783856 215.22482500000007 200.753045 215.41688300000007 198.406418 215.89815100000007 L 198.417088 215.87475200000006 C 195.575902 216.50539900000007 188.567093 218.67026400000006 187.224184 220.35573200000005 C 189.000066 220.99761000000004 189.48713700000002 221.59287800000004 194.869817 221.07370300000005 C 194.869817 221.94367400000004 195.47313400000002 227.76213400000006 196.804998 234.29734900000005 C 197.460167 238.60985700000006 199.037813 243.99796600000005 200.863301 250.23367500000006 C 204.640068 263.13488500000005 209.812907 280.8042260000001 209.812907 300.3728080000001 C 209.812907 311.5371650000001 207.726475 320.3743630000001 204.328208 327.7898440000001 C 203.553237 329.2425400000001 203.071781 330.3787900000001 202.55064099999998 331.3306570000001 C 197.80572099999998 340.0128600000001 191.218654 346.7158920000001 184.25832799999998 353.1595710000001 C 170.19316399999997 366.1798340000001 96.45859499999997 397.7638380000001 83.40688399999998 397.9858460000001 C 71.47157999999997 398.1895100000001 57.02604399999998 391.7617420000001 53.86288899999998 379.4490610000001 C 53.31853699999998 377.3308070000001 52.91944599999998 374.2080850000001 54.10848399999998 371.3575390000001 Z &#10;" stroke-width="0px" fill="#0c0c0c" /></g></g></svg>