<?xml version='1.0' encoding='utf-8'?>
<svg viewBox="0 0 216 216" width="216px" height="216px" version="1.1" xmlns="http://www.w3.org/2000/svg" xmlns:xlink="http://www.w3.org/1999/xlink"><g isolation="isolate"><g id="Layer_1"><path d="M 31.5853895 198.0932845 C 34.5499345 199.84108750000001 38.162161000000005 200.779851 41.732831000000004 200.7177035 C 46.7712665 200.632157 68.92121300000001 191.8171415 83.312464 184.170386 L 83.37536 184.13687900000002 L 83.444995 184.15279 C 89.2525985 185.479226 94.36104300000001 185.5323885 98.4403115 184.3169565 L 98.8468905 184.1956565 L 98.669059 184.58089600000002 C 98.0679885 185.88262300000002 96.804823 187.05500050000003 95.46753000000001 188.29607750000002 C 93.44811250000001 190.16986050000003 91.360183 192.10747500000002 91.08838150000001 194.8387805 C 90.8680575 196.2582505 91.25947400000001 197.746981 92.19075000000001 199.0305505 C 93.30360100000001 200.564207 95.0622615 201.6512255 96.89523650000001 201.938377 C 97.32615050000001 202.00614000000002 97.76792150000001 202.04039600000002 98.2087565 202.04039600000002 C 101.54805850000001 202.04039600000002 104.378949 200.08518500000002 105.765848 198.92254150000002 C 109.035702 196.05608450000003 113.00733500000001 190.48846000000003 113.35981600000001 180.24948200000003 C 113.360003 177.73756500000002 112.943503 175.43455300000002 112.12192150000001 173.40465250000003 L 111.91975500000001 172.90522650000003 L 112.391851 173.16486050000003 C 118.0268645 176.26306000000002 123.9705555 178.41894000000002 130.055202 179.57241150000004 C 133.910777 180.24910750000004 137.8417895 180.59222850000003 141.7392955 180.59222850000003 C 155.2119995 180.59222850000003 168.3318485 176.45605400000002 178.682018 168.94576050000003 C 190.9746695 160.02554350000003 198.9018375 146.99704400000005 201.0038065 132.25668200000004 C 205.50257 104.13627550000004 193.7143985 81.46200600000003 186.2881535 70.45030350000005 C 179.57117549999998 60.683795500000045 173.2201565 55.81476850000004 169.01734249999998 52.59283550000005 C 164.6934155 49.27786850000005 163.2335125 48.00141250000005 163.927617 45.44307200000005 C 164.0996455 44.81560750000005 164.873868 44.09623200000005 166.2152795 43.90323800000005 C 167.509706 43.71473650000005 172.11835050000002 43.735327500000054 177.12720950000002 51.839765500000055 L 177.73202400000002 52.81840050000005 L 178.40254250000004 51.88338100000005 C 183.27662400000003 45.08591100000005 183.81704450000004 36.47942650000005 179.88528300000004 28.27053550000005 C 177.20620400000004 22.67670450000005 172.71698750000004 17.76481000000005 166.90264500000004 14.065914500000051 C 160.66974350000004 10.100458500000052 153.19969600000005 7.773111500000051 145.30771950000005 7.335459000000052 C 134.74396500000006 7.152386000000051 127.12978000000004 9.519792000000052 122.00654750000004 14.56009900000005 C 116.98159000000004 19.50325400000005 114.43373200000003 27.07775400000005 114.43373200000003 37.07319650000005 C 114.43373200000003 54.864773500000055 121.13461150000003 68.16975400000005 126.51953750000004 78.86210900000006 C 129.86408050000003 85.50290000000007 132.75243900000004 91.23806050000006 133.45159800000005 96.65200100000006 C 134.71438900000004 105.02693000000005 134.09516100000005 112.62464200000005 131.61094800000004 119.23398500000005 C 130.05202050000003 123.38176500000004 127.83436800000004 126.93783400000005 125.01976250000004 129.80335550000004 L 124.36365750000004 130.47125350000005 L 124.70434550000004 129.59913000000006 C 126.57700500000004 124.80722550000006 127.85065350000005 119.05746400000007 128.49702400000004 112.47245600000005 C 129.39797450000003 109.51071850000005 129.66453500000003 107.85744700000005 128.98222350000003 105.28562850000006 L 128.78567300000003 104.54453900000006 L 126.63597050000003 105.11453600000006 L 126.40160750000003 103.12637950000006 L 124.51678050000002 102.03187300000006 L 124.49469200000003 101.96036600000006 C 124.29233850000003 101.30819250000006 124.09054650000003 100.20432650000006 124.36422000000003 99.83668300000006 L 124.77697650000003 99.28315900000007 L 124.26931450000004 98.81499400000007 C 123.54600800000003 98.14821950000007 122.25495100000003 97.92059500000006 121.19956800000004 98.27382450000007 L 121.08538150000004 98.31201150000007 L 121.00133250000005 98.22571650000006 C 116.09524150000004 93.17960650000006 113.55168900000005 91.72213650000006 111.30745500000005 90.43613400000007 C 109.20024500000005 89.22875150000007 107.38056050000004 88.18609700000006 103.92183050000004 84.43665950000006 C 97.94781400000004 77.53118050000006 106.32068450000004 59.45975300000006 109.07220600000004 53.52149000000006 C 113.04159300000003 44.95412850000005 114.99998600000004 33.38590650000006 107.45618550000003 28.979241000000055 C 104.65992500000003 27.345250000000057 101.87732950000003 27.060532500000054 99.40921500000003 28.156162000000055 C 96.19439550000003 29.582745500000055 93.55818300000003 33.287257000000054 91.78492200000004 38.87116700000006 C 91.56141600000004 39.547863000000056 91.39051050000003 40.116549500000055 91.24693500000004 40.660714000000056 L 91.18853150000004 40.88234800000006 L 90.98074950000004 40.78557000000006 C 87.79831400000005 39.30357800000006 85.34517450000004 38.910664000000054 84.42176100000005 38.762783000000056 L 84.12487600000004 38.71392600000006 L 84.09773350000005 38.58607450000006 C 82.11874950000005 29.24392900000006 78.18829800000005 24.54786600000006 72.08118900000005 24.22945400000006 C 70.44701100000005 24.141287000000062 68.90792550000005 24.71521500000006 67.63708550000005 25.88721850000006 C 65.14257700000006 28.18779700000006 63.731530500000055 32.65511200000006 63.443256500000054 39.16524400000006 L 63.43689200000006 39.31125300000006 L 63.29443950000006 39.34363700000006 C 59.96674350000006 40.10213550000006 56.86835650000006 41.168937500000055 54.08519950000006 42.51465400000006 C 44.91658000000006 46.94752600000005 38.89894800000006 54.39698250000006 36.20002700000006 64.65243350000006 C 35.59465100000006 67.14020300000006 36.03417550000006 69.59783500000006 37.50624650000006 71.95719150000005 C 39.89686400000006 75.78861850000006 44.96169300000006 79.21215650000005 52.15301300000006 81.85735350000004 L 52.91918600000006 82.13907600000005 L 51.99989050000006 82.23866150000005 C 48.594697500000066 82.52955650000006 45.61948250000006 83.79515550000005 43.22867750000006 84.81197750000005 C 41.71879400000006 85.45423000000005 40.41482100000006 86.00887750000005 39.44629450000006 86.12212800000006 C 36.72004350000006 86.43997850000007 35.50423750000006 85.49503800000006 35.454257500000054 85.45497900000007 L 34.294421500000055 84.53081650000007 L 34.196520500000055 85.99820750000008 C 34.172560000000054 86.40890450000008 34.79794900000005 89.58333900000008 35.840416000000054 92.17836900000007 L 35.190692500000054 93.06878900000008 L 34.795345000000054 92.93382400000009 C 34.660567500000056 92.88796200000009 34.512125000000054 92.82618900000008 34.331485500000056 92.7507510000001 C 33.92078850000006 92.5796585000001 33.40975650000006 92.36663500000009 32.66997750000006 92.19198550000009 L 31.51062900000006 91.56498200000009 L 32.84564650000006 93.58554950000008 C 33.39935750000006 94.50035250000009 33.42777600000006 95.07290950000008 33.74768550000006 96.11125850000009 C 33.86262100000006 96.4845175000001 33.52696850000006 96.17087100000009 33.65818950000006 96.55330200000009 L 32.96301550000006 96.50860750000008 L 32.36029400000006 96.65924900000009 C 32.03402000000006 96.59317050000008 31.93476400000006 96.7722630000001 31.65435150000006 96.83029250000008 L 30.75291650000006 97.01329750000008 L 31.91073050000006 98.96643100000009 C 32.80026250000006 99.72474200000009 31.78614150000006 100.62760000000009 32.55699450000006 101.81214500000009 L 32.55699450000006 102.78634700000009 C 32.55699450000006 102.78634700000009 32.39729750000006 103.5585110000001 32.39729750000006 103.5585110000001 C 31.61887400000006 104.0492020000001 32.576271500000054 104.3499915000001 32.26834200000006 104.68319200000009 L 32.340505000000064 105.6291560000001 L 32.59548700000006 106.4529300000001 C 32.92887450000006 107.1721180000001 32.52160400000006 106.92209800000009 32.741553500000066 107.37566200000009 C 33.41600300000007 108.76761500000009 32.539597000000064 108.46513500000009 33.422952000000066 111.2655135000001 C 33.88306750000007 112.7246680000001 34.61716350000007 114.0877825000001 35.37135600000006 115.7215860000001 C 36.19125300000006 117.4980295000001 37.42953400000006 119.2271085000001 37.861009500000065 120.7489720000001 C 37.93831950000006 121.0211480000001 38.112692500000065 121.63566900000009 38.184761000000066 121.89998300000009 C 38.62802950000007 123.5283585000001 38.672269000000064 123.9025650000001 40.009374500000064 125.46617250000008 C 42.25772650000006 128.08928100000008 43.79934350000006 128.6025160000001 45.22162150000006 128.60270350000008 C 45.90505600000006 128.60270350000008 46.33313850000006 128.24342700000008 46.67158000000006 128.13803850000008 C 48.396171500000065 127.60098750000007 49.10259300000006 126.90855350000008 49.258336000000064 125.43011850000008 C 49.371774000000066 124.35133650000007 50.06601900000006 122.89806300000008 48.59357400000006 121.20828950000008 C 47.37364950000006 119.80810000000008 45.44782800000006 118.98314900000008 42.86964500000006 118.75627350000008 L 42.69274950000006 118.74073650000008 L 41.870938500000065 118.36671800000008 C 41.43305750000007 107.44086900000008 43.53686500000006 103.26396400000007 45.979334000000065 100.89206550000007 C 46.95722000000006 99.94188350000007 48.64408800000007 99.16297350000008 50.13319350000007 99.19292400000008 C 53.004330500000066 99.26667750000007 54.62613300000007 100.76590850000008 55.62423600000007 102.03862050000008 C 55.725506500000066 102.16759500000008 55.919809000000065 102.61004000000008 56.01209450000007 102.72329050000008 L 56.25749750000007 103.27835150000007 C 56.547456500000074 103.65479300000007 56.45878200000007 106.21203600000007 56.14823200000007 110.88151800000007 L 56.13774950000007 111.03744800000007 L 55.98294250000007 111.05878800000006 C 55.41781250000007 111.13553650000006 54.80345150000007 111.04811800000006 54.61457550000007 111.00749750000007 L 53.68629500000007 110.80832600000006 L 53.68386150000007 111.75663600000007 C 53.68386150000007 113.22908100000006 54.21417400000007 114.19442550000007 54.64059500000007 114.97089400000007 C 54.85024900000007 115.35182800000007 55.005805000000066 115.64403300000008 55.10183400000007 115.93474100000007 L 55.17427700000007 116.15469050000007 L 54.944780500000064 116.18482850000007 C 54.404547000000065 116.25652250000006 53.86562400000006 116.22114350000007 53.34223750000007 116.08093750000006 L 52.269258000000065 115.79322500000006 L 52.381011000000065 116.89858850000006 C 52.659925500000064 119.65628750000006 53.249577500000065 121.08960950000007 53.845032500000066 122.22791850000006 L 53.875357500000064 122.28576050000005 L 53.86412600000006 122.35015400000005 C 53.68329950000006 123.37671000000005 53.49947800000006 124.38885200000004 53.313971500000065 125.37422600000005 L 53.27054300000007 125.60559400000005 L 52.93228850000007 125.46651100000005 L 53.06313500000007 126.67202150000006 L 52.939776000000066 127.27777200000006 C 52.829895000000064 127.80527650000006 52.604891000000066 128.47879000000006 52.31979900000007 129.33125800000005 C 50.82245750000007 133.81317400000006 48.03518200000007 142.15553200000005 52.02590900000007 157.54862950000006 L 52.04500250000007 157.62200850000005 L 52.008687500000065 157.68846150000005 C 47.417639000000065 166.11168600000005 45.89802150000006 174.52236900000005 44.78854000000006 180.66373400000003 C 44.18878000000006 183.98300650000004 43.67082200000006 186.84965050000002 42.863467000000064 188.73597500000002 L 42.71652200000006 189.0794705 L 42.52334100000006 188.759748 C 41.16077700000006 186.505593 37.59647150000006 181.225494 33.920226000000056 180.879565 C 30.335516500000058 180.2717555 26.699142500000058 182.04932200000002 25.462184000000057 185.01461600000002 C 24.68365650000006 186.88072400000001 24.922886500000057 188.83930450000003 25.260579000000057 190.15376 C 26.094328000000058 193.3996535 28.281469000000058 196.145185 31.585391500000057 198.093283 Z M 99.158564 109.86282500000002 L 99.1660515 109.71868800000001 L 99.306445 109.68592950000001 C 100.5683 109.39054200000001 101.9666175 109.37800000000001 103.456284 109.64661950000001 C 106.94234349999999 110.14660700000002 110.16689749999999 111.64114050000002 112.303122 113.74685300000002 C 115.289007 116.69043300000001 118.7994015 126.87213050000001 115.7538025 133.06422450000002 L 115.680985 133.21229250000002 L 115.52355750000001 133.1623125 C 113.67111450000002 132.57172450000002 110.13320300000001 132.03766850000002 107.25083450000001 135.08907050000002 L 107.16341650000001 135.18173000000002 L 107.04417600000001 135.13699150000002 C 106.52490800000001 134.941751 104.862464 134.54228550000002 104.8456165 134.53835450000003 L 104.72974500000001 134.51046300000002 L 104.70335100000001 134.3944045 C 103.86754300000001 130.713479 102.88048400000001 127.34160600000001 102.0864195 124.6295815 C 101.1882765 121.5613325 100.41236950000001 118.911268 100.105376 116.8718215 L 100.09788850000001 116.828019 C 99.24167650000001 112.63194349999999 99.1145735 110.724279 99.15856350000001 109.862826 Z &#10;" stroke-width="0px" fill="#c56439" /><path d="M 101.7766185 165.3679835 C 106.396294 169.5394465 116.4311515 177.14821550000002 130.562157 179.85573200000002 C 164.648163 185.9005055 195.91847900000002 164.8216275 200.43597350000002 132.8034475 C 204.50634000000002 107.089653 195.25118200000003 85.0711795 185.87879500000003 71.02507650000001 C 172.99247150000002 52.08820750000001 161.69473000000002 51.78926200000001 163.46905500000003 45.179248500000014 C 164.2424525 42.330117500000014 171.33907200000002 40.429372500000014 178.02576000000002 51.423884500000014 C 180.60183650000002 39.74603650000002 165.99776950000003 26.147649000000015 154.136725 33.777005500000016 C 148.7931885 37.522882500000016 143.44784700000002 46.21933700000002 154.11839 64.73916250000002 C 166.547986 86.31200600000003 179.745967 140.60872650000002 135.48923100000002 150.16868200000002 C 118.04577950000002 153.31648700000002 106.74556450000001 146.178593 106.74556450000001 146.178593 C 106.74556450000001 146.178593 107.80373350000002 156.71439700000002 101.77661850000001 165.367983 Z &#10;" fill="#754123" mix-blend-mode="multiply" stroke-width="0px" opacity=".25" /><path d="M 131.4926285 122.302225 C 150.3272025 88.7145395 120.2924365 66.864497 127.34441149999999 37.90269400000001 C 134.3963865 8.940891000000011 161.033426 15.76536800000001 177.691904 27.22693700000001 C 177.691904 27.22693700000001 171.11018149999998 8.288742500000009 140.476937 8.288742500000009 C 109.84369249999999 8.288742500000009 114.065235 44.07746250000001 117.853799 55.24679900000001 C 125.142274 82.94149000000002 142.17277049999998 91.16808550000002 131.4926285 122.302225 Z &#10;" stroke-width="0px" opacity=".66" fill="#d8b58e" /><path d="M 95.347612 49.880996 C 95.355318 49.001661000000006 95.363024 48.122326 95.3707305 47.242991 C 95.3965575 44.295899500000004 95.43595599999999 41.27417200000001 96.49648749999999 38.524392500000005 C 97.55701899999998 35.774613 99.8733365 33.310888000000006 102.79766099999999 32.944359500000004 C 105.66178099999999 32.58537750000001 108.64201549999999 34.534484000000006 109.461142 37.3023505 C 109.461142 37.3023505 98.93238299999999 31.916828000000002 95.347612 49.8809965 Z &#10;" opacity=".35" fill="#754123" mix-blend-mode="multiply" stroke-width="0px" /><path d="M 109.4611025 37.302365 C 107.478287 33.3631395 103.105092 32.067038000000004 99.67499149999999 35.0318375 C 98.11532549999998 36.3467985 97.3812505 38.226287 96.7021865 40.127891000000005 C 95.99847849999999 42.119392500000004 95.6240065 44.176681 95.34767049999999 46.28538900000001 C 94.875508 43.63394800000001 95.136659 40.80142350000001 95.98364049999999 38.21403300000001 C 96.75630299999999 35.43599350000001 98.886348 32.92714900000001 101.775436 32.25023250000001 C 105.33033 31.32874600000001 108.843047 33.74948450000001 109.461103 37.30236450000001 L 109.461103 37.30236450000001 Z &#10;" stroke-width="0px" /><path d="M 73.940952 32.426639 C 72.8017625 31.990405000000003 71.5757835 31.801871000000002 70.456076 31.3178185 C 69.0461455 30.708302 67.844658 29.627818 67.08945349999999 28.290253 C 65.8215585 31.6487015 65.06471249999998 35.1995545 64.8529545 38.7831135 C 64.839625 39.00869 64.8463295 39.274251 65.029342 39.406799 C 65.1383325 39.4857355 65.282108 39.493417 65.416674 39.492045499999996 C 66.2792865 39.4832555 67.1166965 39.22545349999999 67.954085 39.0181705 C 70.9255885 38.28262049999999 74.00621500000001 38.172694 77.0535545 38.244 C 77.8270115 38.2620985 78.60023100000001 38.9033895 79.37307700000001 38.9387875 C 80.24100050000001 38.978539999999995 81.440077 39.600731499999995 80.784687 38.7436545 C 80.0037195 37.722354499999994 78.9061485 36.002544 77.96816700000001 35.1224145 C 76.9313465 34.149542499999995 75.275653 32.9377405 73.94095200000001 32.426638999999994 Z &#10;" opacity=".35" fill="#754123" mix-blend-mode="multiply" stroke-width="0px" /><g opacity=".66"><path d="M 68.460191 27.582623 C 71.383726 26.285665 74.053822 27.862886000000003 76.471353 29.545352 C 77.67764399999999 30.3820585 78.73136799999999 31.297141 79.71925049999999 32.408618000000004 C 80.76679349999999 33.579702000000005 81.61119949999998 34.844494000000005 82.46787899999998 36.229254000000005 C 83.02466649999998 32.7359055 80.96907049999999 29.157226500000004 78.10382099999998 27.210207000000004 C 76.63373999999999 26.206266500000005 74.97143399999999 25.394003500000004 73.13476099999998 25.273903500000003 C 71.34601249999999 25.137459500000002 69.21952999999998 25.893250000000002 68.46019049999998 27.582623 L 68.46019049999998 27.582623 Z &#10;" stroke-width="0px" fill="#d8b58e" /></g><g opacity=".66"><path d="M 90.4490565 41.51361 C 81.148157 37.999359 69.611081 38.247188 60.265840499999996 41.5134665 C 65.346338 42.011757 70.323663 41.845808 75.371887 41.842085 C 79.86079050000001 41.7591535 85.986761 41.86796 90.4490565 41.513609499999994 L 90.4490565 41.513609499999994 Z &#10;" stroke-width="0px" fill="#d8b58e" /></g><path d="M 55.6220275 122.133879 C 55.0099125 121.0380625 54.4318665 120.0028955 54.083878500000004 117.8593705 L 54.0468145 117.63099749999999 L 54.27818250000001 117.63698749999999 C 55.418738000000005 117.66562749999999 56.20119650000001 117.3412255 56.286930000000005 117.3039745 L 56.715410500000004 117.11771949999999 L 56.746297000000006 116.6516135 C 56.8163065 115.5967915 56.3835205 114.80927899999999 56.00146350000001 114.1142385 C 55.762046000000005 113.6782705 55.53573200000001 113.26645 55.38916150000001 112.760847 L 55.31915200000001 112.518996 L 55.57092400000001 112.515814 C 56.43368750000001 112.504957 57.954428000000014 112.26947050000001 58.44599200000001 110.81424700000001 C 58.80465000000001 109.757366 59.08131850000001 108.328162 59.40235150000001 106.670398 C 60.52493650000001 100.87215400000001 62.06214950000001 92.931134 68.66063550000001 92.931134 C 71.65007700000001 92.931134 74.06708850000001 93.888429 75.844468 95.7762515 C 78.2536175 98.335341 79.51565950000001 102.7813165 79.22083350000001 107.662511 C 78.89306200000001 121.2140225 71.85542600000001 135.159384 65.40163850000002 141.399399 C 64.50836250000002 142.28013299999998 63.545639000000016 143.223389 62.67332850000002 144.075483 C 61.77818050000002 144.889577 60.89538750000002 145.74897149999998 60.04460400000002 146.63494649999998 L 59.78478300000002 146.90712249999999 C 59.61425200000002 147.085703 59.44372100000002 147.264096 59.27880550000002 147.443425 L 59.00569350000002 147.74031 L 58.948038500000024 147.34103149999999 C 58.324130500000024 143.02459199999998 57.07612750000003 139.6472905 56.165068500000025 137.18123549999999 C 55.705327000000025 135.9380995 55.308482000000026 134.8645585 55.120355000000025 134.02332199999998 L 55.08291700000002 133.85597299999998 L 55.24502450000002 133.80019 C 55.54789950000002 133.69573749999998 55.81520850000002 133.51940349999998 56.03908900000002 133.27586799999997 L 56.19614250000002 133.10458799999998 L 56.23189600000002 132.87490449999999 C 56.42638750000002 131.62708849999999 55.95653800000002 130.50712449999997 55.49997900000002 129.4187955 C 55.27160600000002 128.873508 55.03518350000002 128.30987549999998 54.85922400000002 127.69626299999999 L 54.79819950000002 127.48361399999999 L 55.017400500000015 127.453476 C 55.86837100000002 127.337043 56.56678100000001 126.836494 56.93667050000001 126.40670349999999 L 57.19256050000001 126.10906949999999 L 57.10102400000002 125.72757399999999 C 56.70305550000002 124.0696225 56.15383700000002 123.08612049999999 55.62202700000002 122.13387949999999 Z &#10;" stroke-width="0px" fill="#e7caae" /><path d="M 46.645366 61.8804045 C 48.131715500000006 62.118252 49.635145 62.3609065 51.020621000000006 62.9493465 C 52.9791115 63.7811575 54.602199500000005 65.26138999999999 56.53958850000001 66.14123 C 62.26997750000001 68.74361149999999 70.16907350000001 66.01232399999999 75.95505600000001 68.4886425 C 79.96774050000002 70.2060145 81.77439900000002 74.3115375 81.29056600000001 78.6493835 C 80.78724250000002 83.161971 76.79371300000001 85.9721925 72.255728 85.818994 C 70.419841 85.75701600000001 68.59537250000001 85.636791 66.80217350000001 85.2383475 C 60.72597950000001 83.88823550000001 45.13735100000001 81.6156155 38.34160800000001 71.94113300000001 C 37.92280250000001 71.34491750000001 37.11008600000001 68.49055700000001 37.240733500000005 66.96396000000001 C 37.450454500000006 64.51339500000002 37.921598 61.48920000000001 38.47525950000001 61.238520500000014 C 40.73480750000001 60.21547250000001 44.145641000000005 61.480395000000016 46.64536700000001 61.88040400000001 Z &#10;" stroke-width="0px" fill="#e7caae" /><path d="M 81.36551 77.3343905 C 78.464509 79.33287 75.0187895 80.440829 71.5320795 80.9434015 C 68.04536949999999 81.44597399999999 64.5009745 81.36674249999999 60.984683 81.15362549999999 C 59.4498075 81.060599 57.909614 80.94127649999999 56.4104715 80.5991225 C 55.075861 80.29451999999999 53.788062 79.81657 52.5047725 79.3399815 C 50.237819 78.49807849999999 47.9621155 77.65223999999999 45.8358355 76.500366 C 42.6013285 74.74813 39.758987000000005 72.303266 37.437845 69.44938 C 38.398680500000005 73.182084 41.051620500000006 76.4439155 44.5102885 78.14506200000001 C 46.055745 78.905195 47.7300465 79.36003500000001 49.341351 79.9682575 C 51.692777500000005 80.855855 53.912042500000005 82.07116950000001 56.278743000000006 82.91719800000001 C 58.857698500000005 83.83910200000001 61.572345000000006 84.30891050000001 64.271235 84.77464600000002 C 67.1991045 85.27989450000001 70.180338 85.78663750000001 73.1267205 85.40385000000002 C 75.3002855 85.12146500000001 77.6206475 84.31698350000002 79.334835 82.87688200000002 C 80.779814 81.66294450000002 81.3851545 79.50647900000003 81.36551 77.33439100000002 Z &#10;" fill="#754123" mix-blend-mode="multiply" stroke-width="0px" opacity=".25" /><path d="M 98.898251 71.507857 C 97.429436 76.8345 97.929654 83.025488 101.5571875 87.193406 C 104.3601695 90.41394149999999 108.5447645 91.9815445 112.37704149999999 93.863619 C 115.13509699999999 95.218131 117.786222 96.790303 120.2976475 98.5607025 C 118.8065615 96.49588800000001 116.9750085 94.677535 114.899463 93.201423 C 110.93972149999999 90.38528500000001 105.9200365 88.62285200000001 103.419533 84.45659850000001 C 102.9930275 83.74596950000002 102.65616250000001 82.98596150000002 102.32045550000001 82.22820050000001 C 101.3009435 79.92694850000001 100.25836000000001 77.42832900000002 100.79401050000001 74.96901100000001 C 101.03594300000002 73.8582305 101.58730050000001 72.8428365 101.974725 71.77406750000002 C 102.4522695 70.45668850000001 102.67854550000001 69.06442800000002 102.99286900000001 67.69887250000002 C 103.40852900000002 65.89306500000002 103.98143350000001 64.12792550000002 104.6266915 62.392143500000024 C 104.97108600000001 61.46570200000002 106.72769000000001 58.465028000000025 106.17175350000001 57.69827900000003 C 102.89213400000001 61.303838500000026 100.187195 66.83352600000003 98.89825 71.50785750000003 Z &#10;" stroke-width="0px" opacity=".66" fill="#d8b58e" /><path d="M 59.834677 83.6967865 C 62.816912 83.7398405 65.750664 84.253446 68.710717 84.5627325 C 68.719796 84.56366849999999 68.7285935 84.5637155 68.737579 84.5646045 C 69.087065 84.688338 69.4384225 84.7967215 69.792869 84.8802085 C 71.08692099999999 85.1849555 72.398288 85.1530865 73.70123149999999 85.109377 C 74.73929949999999 85.07455949999999 75.7897225 85.029961 76.780993 84.61121449999999 C 77.58123499999999 84.27324099999998 78.31820599999999 83.69744099999998 79.008754 83.0306665 C 79.37780099999999 82.67439499999999 80.706109 79.4533045 80.94234449999999 80.2924355 C 81.155087 81.0479855 80.17055549999999 83.4347015 79.88349799999999 83.9637035 C 79.44256949999999 84.7763935 78.87706499999999 85.4426065 78.25137899999999 85.9228455 C 76.88656899999998 86.970367 75.29647399999999 87.222139 73.74194549999999 87.2712765 C 69.46842749999999 87.2712765 67.61405149999999 86.7017015 63.55461599999998 86.33642 C 59.87073249999998 86.00842200000001 54.87483549999998 84.29693950000001 54.25591499999998 82.9018535 C 55.34377599999998 82.295214 54.86166549999998 83.226843 56.00680699999998 82.8940645 C 57.22195799999998 83.3922735 58.52143849999998 83.6778335 59.834677499999984 83.6967865 Z &#10;" fill="#754123" mix-blend-mode="multiply" stroke-width="0px" opacity=".25" /><path d="M 96.2485535 107.500307 C 98.312646 106.553933 100.59314499999999 106.13467050000001 102.8632195 106.08114250000001 C 104.3132015 106.04695200000002 105.7740045 106.16001650000001 107.177164 106.52711350000001 C 111.86149800000001 107.75263650000001 115.47386700000001 111.78057000000001 117.1098285 116.33781950000001 C 118.74579050000001 120.895069 118.629856 125.914613 117.78976750000001 130.68317100000002 C 118.211487 126.23856350000001 117.792517 121.61810400000002 115.84778700000001 117.59934700000002 C 113.903057 113.58059000000003 110.28372750000001 110.23855250000003 105.91563500000001 109.31543100000002 C 104.83858950000001 109.08781500000002 103.736332 109.00665800000002 102.63701250000001 108.94892900000002 C 101.02396750000001 108.86422200000003 99.38257000000002 108.83152900000002 97.82014050000001 109.24133000000002 C 97.09738700000001 109.43089800000001 95.0119435 110.34628750000002 93.612092 110.17786750000002 C 94.0399695 108.63156050000002 95.6151375 107.79072450000002 96.2485535 107.50030700000002 Z &#10;" fill="#754123" mix-blend-mode="multiply" stroke-width="0px" opacity=".25" /><path d="M 116.2656595 139.1054265 C 114.7349795 140.0514165 113.0601995 141.03358849999998 111.2684645 140.86756649999998 C 109.638301 140.71651549999999 108.262169 139.64327199999997 106.98927699999999 138.613711 C 106.450454 139.77662949999998 106.71079799999998 141.229525 107.52166649999998 142.222099 C 108.33253499999998 143.21467299999998 109.62722649999998 143.75322999999997 110.90880199999998 143.76978649999998 C 112.19037749999998 143.786343 113.45004699999998 143.31423549999997 114.49762899999998 142.57580299999998 C 115.03660299999997 142.19588449999998 115.52366149999997 141.74808299999998 116.00899999999997 141.30167799999998 C 116.77567949999997 140.5965005 117.54235899999998 139.89132349999997 118.30903849999997 139.18614599999998 C 118.57835949999998 138.93842949999998 119.91338199999997 137.560646 119.08279199999997 137.41431649999998 C 118.76795399999997 137.35885 118.02800649999998 138.01626249999998 117.75628049999997 138.1841945 C 117.25940799999998 138.49127149999998 116.76253549999997 138.79834799999998 116.26565999999997 139.1054265 Z &#10;" fill="#754123" mix-blend-mode="multiply" stroke-width="0px" opacity=".25" /><path d="M 48.49496 194.5246485 C 46.198122 195.419224 43.838507 196.2430865 41.3820365 196.44675600000002 C 34.868365499999996 196.986814 28.275437999999998 192.54545450000003 26.328784 186.30605450000002 C 25.209632 190.401957 27.187748 194.9658545 30.5715665 197.530752 C 33.955385 200.095649 38.481386 200.832111 42.6821575 200.21368850000002 C 45.1462925 199.8509275 47.52505 199.06012950000002 49.875276500000005 198.23551350000002 C 58.98263600000001 195.04004650000002 67.891782 191.27976800000002 76.534512 186.98346350000003 C 82.85630850000001 183.84089600000001 89.0948905 180.37029900000002 94.36167 175.66903550000004 C 99.6284495 170.96777150000003 103.904696 164.91478550000002 105.4528775 158.02682650000003 C 106.707267 152.44596950000002 106.129258 146.62209700000002 105.2165555 140.97528950000003 C 103.5872995 130.89523250000002 100.9176855 121.01675500000003 98.252721 111.15977700000003 C 97.6720615 109.01207550000004 95.182406 109.56098400000003 93.61209199999999 110.17786750000003 C 93.0926255 110.93484300000003 94.06518849999999 116.89922600000003 94.432741 118.96566250000004 C 94.80737599999999 121.07191600000003 95.319588 123.14465650000004 95.88420799999999 125.20464300000003 C 105.45287749999999 158.02682650000003 69.12834649999999 183.44738850000005 48.494959999999985 194.5246485 Z &#10;" fill="#754123" mix-blend-mode="multiply" stroke-width="0px" opacity=".25" /><path d="M 96.6408435 189.560553 C 96.433511 189.578477 97.7447385 187.4142505 97.6678665 187.220863 C 97.6296695 187.124771 97.653436 187.01590950000002 97.68526 186.91752300000002 C 97.961999 186.0619685 98.7957325 185.43956050000003 98.941781 184.55230200000003 C 99.00474000000001 184.16982050000001 98.948548 183.72551750000002 99.21731150000001 183.44619300000002 C 99.35741250000001 183.30058700000004 99.55874150000001 183.23474450000003 99.7514835 183.17408250000003 C 100.21624150000001 183.02780900000002 102.37987150000001 182.09052450000001 103.204699 181.98539750000003 C 103.286039 185.99042450000005 97.74352950000001 189.46522450000003 96.6408435 189.56055300000003 Z &#10;" fill="#754123" mix-blend-mode="multiply" stroke-width="0px" opacity=".25" /><path d="M 85.203 182.370637 C 86.76361200000001 181.23817749999998 88.5270455 180.4172045 90.14063300000001 179.3615405 C 94.65643100000001 176.407291 97.759872 171.803326 101.183035 167.6251275 C 101.158232 167.42867049999998 101.18715300000001 167.22528749999998 101.29628550000001 167.01647549999998 C 101.8815385 165.89735349999998 103.17643300000002 166.4272915 103.97115250000002 166.93308199999998 C 105.47139550000001 167.88785 106.94870750000001 168.87846549999998 108.40149750000002 169.90385149999997 C 109.37030500000002 170.58766049999997 110.34528950000002 171.30371299999996 111.03967500000002 172.26512649999998 C 112.56509500000001 174.37715649999998 112.45736650000002 177.218764 112.22730900000002 179.813888 C 112.12575800000002 180.958936 112.01288150000002 182.10295399999998 111.88868050000002 183.245756 C 111.42332350000002 187.5290625 110.72304150000002 191.9892645 108.17892750000001 195.4664325 C 106.52696600000002 197.724144 104.12352600000001 199.4466765 101.42011250000002 200.1661455 C 98.71669900000002 200.8856145 95.72959700000001 200.570572 93.29330500000002 199.195466 C 92.13571550000002 198.5420755 91.03147500000001 197.5220715 90.90287500000002 196.198958 C 90.82088550000002 195.3558025 91.18066650000003 194.4819945 91.83237250000002 193.9409185 C 92.48417200000002 193.3998895 93.40927000000002 193.2071295 94.22289650000002 193.442803 C 95.70891300000002 193.873249 96.54069650000002 195.5035895 97.94753100000001 196.14733999999999 C 98.762842 196.520365 99.691871 196.52569999999997 100.58851650000001 196.5227515 C 101.82809600000002 196.5186335 103.11016750000002 196.502535 104.23939800000001 195.9912225 C 105.46840100000001 195.434797 106.37646500000001 194.352271 107.12186000000001 193.2277675 C 110.1810305 188.6123375 111.1332715 182.657227 109.665974 177.3180225 C 109.18180450000001 175.556227 108.41675450000001 173.817315 107.1032345 172.5472235 C 106.436179 171.90221 105.6629865 171.402269 104.878375 170.9175845 C 104.78290750000001 170.9176315 104.677332 170.915198 104.55060350000001 170.91005 C 103.83094750000001 170.8805675 103.20226600000001 170.908646 102.53230900000001 171.21933650000003 C 101.60327950000001 171.65015700000004 100.85638700000001 172.39241600000003 100.19148450000002 173.17122500000002 C 98.90417150000002 174.679143 97.84598000000001 176.38239450000003 97.06427000000002 178.20451250000002 C 96.71010450000003 179.03021250000003 96.44785000000002 180.08662550000003 97.05762450000002 180.74647400000003 C 97.43706100000001 181.15698400000002 98.03494900000001 181.26396400000004 98.58856700000001 181.34099300000003 C 100.09236650000001 181.55022600000004 101.57650500000001 181.14873100000003 103.204699 181.98539850000003 C 102.9194155 182.13984650000003 99.78265850000001 182.64389000000003 98.150446 183.24753450000003 C 94.9521925 184.43030150000004 91.43477850000001 184.25902150000002 88.02996 184.07192400000002 C 87.0986845 184.02072700000002 86.164039 183.96920300000002 85.2478325 183.79488100000003 C 85.050814 183.75744300000002 84.8396625 183.70540350000005 84.71171700000001 183.55106450000002 C 84.4050045 183.18108150000003 84.814017 182.65282800000003 85.203 182.37063750000002 Z &#10;" fill="#754123" mix-blend-mode="multiply" stroke-width="0px" opacity=".25" /><path d="M 78.6733445 112.2041535 C 69.793161 142.187411 54.2559145 141.1049645 53.228048 155.2068705 L 53.228048 156.69219800000002 C 53.228048 156.69219800000002 58.643958500000004 149.4398045 58.643958500000004 149.4398045 L 68.0612455 139.9142725 L 75.313639 128.3586195 L 79.053961 116.9664005 L 78.6733445 112.204153 Z &#10;" fill="#754123" mix-blend-mode="multiply" stroke-width="0px" opacity=".25" /><path d="M 58.3025145 101.563913 C 58.016780000000004 100.315426 57.6364945 99.0522195 56.853302 98.038822 C 55.807664 96.68583799999999 54.1293685 95.92180599999999 52.4331895 95.7052365 C 39.518835499999994 93.6937945 38.61869299999999 106.53882949999999 39.52984549999999 112.6001095 C 39.92695799999999 115.0446385 40.442125999999995 117.4873745 41.387057999999996 119.776594 C 40.5271195 114.473268 41.222542999999995 108.927232 43.365250999999994 104.000411 C 43.68134849999999 103.2735935 44.03090749999999 102.5553515 44.50162749999999 101.9176965 C 45.18435249999999 100.99285250000001 46.10943199999999 100.26027300000001 47.13102099999999 99.73320050000001 C 49.49463499999999 98.5137315 52.65501899999999 98.517487 54.58447599999999 100.34805300000001 C 55.14376399999999 100.878675 55.573588499999985 101.52942650000001 55.97273999999999 102.18900300000001 C 56.30552749999999 102.73892150000002 56.88989799999999 106.84204550000001 57.424309999999984 106.75531950000001 C 58.41964149999998 106.59379400000002 58.43812299999998 102.15644450000002 58.30251349999998 101.56391300000001 Z &#10;" fill="#754123" mix-blend-mode="multiply" stroke-width="0px" opacity=".25" /><path d="M 35.3172305 86.603768 C 36.3996775 88.010949 36.5927035 88.90396750000001 37.7292725 89.607558 C 38.8658415 90.3111485 38.2398365 92.61134799999999 38.2398365 92.61134799999999 L 35.432407000000005 89.607558 L 35.31723 86.603768 Z &#10;" fill="#754123" mix-blend-mode="multiply" stroke-width="0px" opacity=".25" /><path d="M 34.1806615 93.4773055 C 35.181925 94.1538345 36.534983499999996 95.290404 35.7772705 96.887013 C 34.0366215 95.49372249999999 34.1806615 93.4773055 34.1806615 93.4773055 Z &#10;" fill="#754123" mix-blend-mode="multiply" stroke-width="0px" opacity=".25" /><path d="M 32.394624 97.4552975 C 33.7747435 97.9153375 35.07368 99.1382155 33.152337 104.6831925 C 32.042829000000005 102.488675 31.910727500000004 98.9664315 31.910727500000004 98.9664315 L 32.394624500000006 97.455297 Z &#10;" fill="#754123" mix-blend-mode="multiply" stroke-width="0px" opacity=".25" /><path d="M 48.817452 124.489406 C 46.845289 125.247119 41.866034 126.113076 38.618693500000006 120.9173315 C 38.618693500000006 122.757491 40.40473050000001 126.4919325 40.40473050000001 126.4919325 L 43.435581500000005 128.3586195 C 43.435581500000005 128.3586195 45.700172 128.5792005 46.185874500000004 128.3586195 C 46.671577000000006 128.1380385 48.306592 127.84499100000001 48.41483650000001 127.6285015 C 48.52308100000001 127.41201199999999 48.57059850000001 127.0199535 48.817451500000004 126.575532 C 49.064304500000006 126.13111049999999 48.817451500000004 124.489406 48.817451500000004 124.489406 Z &#10;" fill="#754123" mix-blend-mode="multiply" stroke-width="0px" opacity=".25" /><path d="M 43.1649365 193.9283765 C 50.0926295 189.560664 46.627159000000006 182.29286850000003 48.3598945 171.98216100000002 L 45.7624155 179.31533600000003 L 42.8943585 190.46453800000003 L 43.137909 192.35882000000004 L 43.1649365 193.92837650000004 Z &#10;" fill="#754123" mix-blend-mode="multiply" stroke-width="0px" opacity=".25" /><path d="M 122.558011 99.869067 C 121.82276999999999 100.801862 121.43411549999999 102.236847 123.111722 103.2109895 C 123.771174 102.31728749999999 123.374277 100.9822695 123.374277 100.9822695 L 122.55801100000001 99.869067 Z &#10;" fill="#754123" mix-blend-mode="multiply" stroke-width="0px" opacity=".25" /><path d="M 124.789329 104.185132 C 124.6010505 104.6265075 123.9426515 106.060569 125.15584899999999 107.29194249999999 C 126.26080199999998 105.73853749999999 125.539171 104.44609949999999 125.539171 104.44609949999999 L 124.789329 104.18513199999998 Z &#10;" fill="#754123" mix-blend-mode="multiply" stroke-width="0px" opacity=".25" /><path d="M 127.523442 106.6641035 C 127.0545965 107.72952149999999 126.4051285 108.8841315 126.296884 110.47171999999999 C 126.18863950000001 112.05930849999999 126.53499950000001 114.95819499999999 126.18141150000001 117.0126885 C 125.82782350000001 119.067182 127.48714550000001 116.6416665 127.52344200000002 116.280851 C 127.55973850000002 115.9200355 128.60610350000002 108.63156049999999 128.60610350000002 108.63156049999999 L 128.2813695 105.38422 L 127.52344200000002 106.6641035 Z &#10;" fill="#754123" mix-blend-mode="multiply" stroke-width="0px" opacity=".25" /><path d="M 74.6390675 115.975456 C 75.3546885 114.55578899999999 75.6895255 112.9564465 75.5439545 111.39339349999999 C 75.543949 111.39339299999999 76.22017699999999 111.755935 76.22017699999999 111.755935 C 75.09402299999999 112.6097205 73.509593 113.7248795 72.36600899999999 114.583216 C 73.48313599999999 112.20257799999999 74.69945399999999 109.6357135 75.8777145 107.29778549999999 C 75.87771099999999 107.29779149999999 76.71052399999999 108.53343999999998 76.71052399999999 108.53343999999998 C 75.22188349999999 108.68198899999999 73.48707449999999 109.75549049999998 72.18517849999999 110.43877049999999 C 72.18517949999999 110.438718 73.03287449999999 108.17454799999999 73.03287449999999 108.17454799999999 C 73.6133165 106.61438599999998 74.9712385 105.20840799999999 75.485283 103.73976749999999 C 75.485265 103.73975699999998 76.65530249999999 104.95163249999999 76.65530249999999 104.95163249999999 C 75.23502799999999 105.28748249999998 73.96945099999999 105.56568499999999 72.4995735 105.63936899999999 C 72.499567 105.63932599999998 70.4572185 105.67105499999998 70.4572185 105.67105499999998 C 71.52767949999999 104.27047399999998 73.1298655 102.69843249999998 73.718065 101.05917699999998 C 74.0000355 98.29594899999998 70.9120145 96.72072099999998 68.49223699999999 96.79393649999997 C 65.994835 96.90975399999998 63.72774949999999 98.73059099999998 63.05716799999999 101.24527049999998 C 63.11171249999999 98.39835499999998 65.5761575 95.93634549999997 68.37068749999999 95.53185899999997 C 70.35130199999999 95.31807699999997 72.3803725 95.77741899999997 73.93692499999999 97.11655299999997 C 75.032862 98.07476299999996 75.64991599999999 99.58194849999997 75.60176599999998 101.04458999999997 C 75.60511149999998 101.48472999999997 75.40677499999998 102.02820349999998 75.23021149999998 102.37972249999997 C 74.69757599999998 103.44714649999997 73.95248799999999 104.39437299999997 73.24000999999998 105.28783499999997 C 73.24000099999998 105.28782899999997 72.49909899999999 103.72707649999997 72.49909899999999 103.72707649999997 C 73.66491199999999 103.65774449999996 74.99504199999998 103.37903999999996 76.13678849999998 103.11073399999997 C 76.13678349999998 103.11070299999996 77.85819249999999 102.65288049999997 77.85819249999999 102.65288049999997 L 77.30682099999999 104.32262499999996 C 76.77011149999998 105.97309599999996 75.38218949999998 107.35850149999996 74.73049899999998 108.83654449999996 C 74.73050999999998 108.83655099999996 73.47464499999998 107.69047349999995 73.47464499999998 107.69047349999995 C 74.87149899999999 106.96767499999996 76.59631599999999 106.82547649999995 78.14040149999998 106.73169699999995 C 77.20622799999998 108.38182399999995 76.14643949999999 110.15876699999995 75.17161549999999 111.78382249999996 C 74.9308045 112.19447849999996 74.67341699999999 112.59614399999995 74.42417199999998 113.00225499999996 L 73.58125049999998 112.21956249999997 C 74.52460549999998 111.69223999999997 75.50512099999999 111.13367549999997 76.46671249999999 110.63167799999997 C 76.44815749999998 112.55174999999997 75.90899399999998 114.51997449999996 74.63906749999998 115.97545799999996 L 74.63906749999998 115.97545799999996 Z &#10;" stroke-width="0px" fill="#eeddcf" /><path d="M 73.2581315 133.931392 C 70.875608 142.25957449999999 68.566388 147.1666665 60.772771000000006 154.38297849999998 C 52.97915400000001 161.59929049999997 50.792550500000004 164.34148899999997 48.9271645 168.38262349999997 L 53.2280485 156.69219799999996 L 61.092648 146.96296949999996 L 68.061246 139.91427249999995 L 72.31887 133.93139149999996 L 73.2581315 133.93139149999996 Z &#10;" stroke-width="0px" opacity=".66" fill="#d8b58e" /><path d="M 41.108321 119.9160685 C 44.003865999999995 120.971454 46.709982999999994 121.269127 48.3877755 123.70463249999999 C 48.1983475 122.02683999999999 47.251206499999995 120.727904 47.251206499999995 120.727904 C 47.251206499999995 120.727904 44.9847225 119.4348895 44.88289399999999 119.407741 C 44.78106549999999 119.3805925 43.273214499999995 119.3865145 42.89435799999999 119.407741 C 42.515501499999985 119.4289675 41.10832099999999 119.91606900000001 41.10832099999999 119.91606900000001 Z &#10;" stroke-width="0px" opacity=".66" fill="#d8b58e" /><path d="M 116.371533 135.426201 C 112.3874425 135.3138735 109.0318575 135.82781699999998 107.62467649999999 137.411005 C 106.2174955 138.994193 108.81536799999999 134.95756849999998 108.81536799999999 134.95756849999998 C 108.81536799999999 134.95756849999998 110.00605949999999 134.06433549999997 110.3307935 133.931392 C 110.6555275 133.7984485 113.255165 133.4737145 113.470772 133.52783699999998 C 113.68637899999999 133.58195949999995 115.95951699999999 134.448176 115.95951699999999 134.448176 L 116.37153299999999 135.4262015 Z &#10;" stroke-width="0px" opacity=".66" fill="#d8b58e" /><path d="M 41.7665255 190.9063635 C 39.412488 186.20691399999998 31.430186499999998 180.632145 26.328784 186.3060545 C 26.014695999999997 183.990209 28.227204 182.955269 28.227204 182.955269 L 32.412665000000004 181.5163115 C 32.412665000000004 181.5163115 34.86621100000001 181.0111695 35.010537500000005 181.5163115 C 35.154864 182.0214535 37.391920500000005 183.6272335 37.391920500000005 183.6272335 L 41.0722395 188.08315549999998 L 41.7665255 190.90636399999997 Z &#10;" stroke-width="0px" opacity=".66" fill="#d8b58e" /><path d="M 52.726583 132.0124115 C 52.726583 132.0124115 51.896707 148.24911350000002 52.329685999999995 154.022163 L 50.453444999999995 141.393617 L 52.7265835 132.0124115 Z &#10;" stroke-width="0px" opacity=".66" fill="#d8b58e" /><path d="M 53.484296 83.712384 C 50.3091185 85.142465 41.1386605 89.7609045 37.226682499999995 87.523848 L 51.376195499999994 83.0650335 L 53.48429649999999 83.7123835 Z &#10;" stroke-width="0px" opacity=".66" fill="#d8b58e" /><path d="M 49.0731805 72.9023425 C 51.3656165 77.21112000000001 59.8701795 83.256994 61.365693 73.565498 L 58.6796855 74.10096750000001 L 53.1941375 73.83716000000001 L 49.0731805 72.90234250000002 Z &#10;" stroke-width="0px" /><path d="M 71.7083105 61.634539 C 69.78315049999999 61.14444099999999 68.0992795 60.729848999999994 66.18065 60.676705 C 66.1806515 60.6766825 65.0631205 60.6269365 65.0631205 60.6269365 C 64.2670705 60.605857 63.533015999999996 60.5499225 62.7129365 60.6961325 C 62.8985365 60.272583999999995 63.263839999999995 59.963531499999995 63.6297985 59.7080625 C 66.218001 58.0478865 70.3413125 58.715503 71.7083105 61.634539499999995 L 71.7083105 61.634539499999995 Z &#10;" stroke-width="0px" /><path d="M 51.888986 42.0374105 C 51.0536905 41.7078385 49.635465 41.101375 48.8116525 40.8819755 C 48.400849 40.760821 47.7583355 40.6183525 47.332472 40.5069735 C 46.7536615 40.370436 46.254423 40.212368500000004 45.612753000000005 40.2004435 C 45.73826100000001 39.8495215 46.02840750000001 39.597561999999996 46.322016500000004 39.4009645 C 48.4254035 38.0741415 51.770192 39.433509 51.888986 42.0374105 L 51.888986 42.0374105 Z &#10;" stroke-width="0px" /><path d="M 49.5113785 57.1235145 C 47.586207 56.6334315 45.9023405 56.218905 43.983717999999996 56.1656805 C 43.9837195 56.165658 42.86618849999999 56.1159115 42.86618849999999 56.1159115 C 42.070134499999995 56.0948785 41.336080499999994 56.038852500000004 40.516004499999994 56.185154000000004 C 40.701510999999996 55.7616055 41.06690799999999 55.45250600000001 41.432866499999996 55.197037 C 44.021075999999994 53.5368275 48.1443405 54.204530500000004 49.51137849999999 57.123514 L 49.51137849999999 57.123514 Z &#10;" stroke-width="0px" /><path d="M 75.161705 46.453763 C 74.3264095 46.124191 72.90818399999999 45.5177275 72.0843715 45.298328000000005 C 71.6735925 45.177203000000006 71.030953 45.03467500000001 70.6050975 44.923326 C 70.0263165 44.786821 69.527121 44.6286715 68.885472 44.616843 C 69.0108865 44.265921000000006 69.3011265 44.013915000000004 69.5947355 43.8173175 C 71.69815799999999 42.490525500000004 75.0428455 43.8498905 75.161705 46.4537635 L 75.161705 46.4537635 Z &#10;" stroke-width="0px" /><path d="M 67.830182 47.350646 L 67.8303775 47.3503415 L 67.830399 47.3503415 C 68.249323 46.714889 69.01461 46.349021 69.8142095 46.480378 C 70.8987015 46.658550000000005 71.633438 47.682114500000004 71.45528800000001 48.7666285 C 71.39155550000001 49.15463200000001 71.218276 49.496581500000005 70.97402350000002 49.769253500000005 L 70.97469750000002 49.7697755 C 68.19652800000001 54.232055 69.58278600000001 60.1654165 69.58278600000001 60.1654165 L 65.65545750000001 59.520266 C 64.62865300000001 52.842883 67.40308250000001 48.044242499999996 67.78601950000001 47.421184499999995 C 67.80034900000001 47.397330999999994 67.81493950000001 47.37380399999999 67.83018200000001 47.350646499999996 Z &#10;" stroke-width="0px" /><path d="M 44.9431865 43.441213 C 44.957603000000006 43.417207499999996 44.972302000000006 43.393505999999995 44.9876535 43.3701965 L 44.9877185 43.370087999999996 L 44.9877185 43.370087999999996 C 45.406664 42.734635499999996 46.171951 42.3687675 46.9715505 42.5001245 C 48.0560425 42.6782745 48.790779 43.701861 48.612629 44.786353 C 48.5488965 45.1743565 48.375617 45.516327499999996 48.1313645 45.789 L 48.13203849999999 45.789522 C 45.35384749999999 50.2518015 46.740126999999994 56.185162999999996 46.740126999999994 56.185162999999996 L 42.81279849999999 55.540012499999996 C 41.78610249999999 48.863521 44.55970599999999 44.065293999999994 44.943186499999996 43.441213499999996 Z &#10;" stroke-width="0px" /><circle cx="69.5398545" cy="48.5224675" r="1.361069" stroke-width="0px" fill="#fff" /><circle cx="46.6378825" cy="44.620745" r="1.361069" stroke-width="0px" fill="#fff" /><path d="M 46.6577315 62.754517 C 45.243019999999994 62.087865 43.402683499999995 61.372666 41.18631 60.870763 C 39.1688835 60.413912999999994 37.3643815 60.252509999999994 35.8971825 60.219798 C 35.511778 60.221805499999995 34.928095 60.28143 34.4711705 60.6711465 C 33.327298 61.646775999999996 33.8144065 63.9635155 34.0376645 65.1957845 C 34.324785 66.780523 36.259457 69.3337065 37.929998 70.087092 C 39.700154 70.885402 43.575387 68.319688 43.575387 68.319688 C 43.575387 68.319688 46.9240355 66.127402 47.778408 64.3191085 C 48.0737065 63.6942385 47.444822 62.939934 46.657731 62.7545175 Z &#10;" stroke-width="0px" /><path d="M 45.2006445 64.890166 C 45.285844000000004 64.890166 45.370523000000006 64.85462899999999 45.4307425 64.785191 C 45.730204 64.44023 45.628054 63.922937499999996 45.356323 63.622285999999995 C 45.110315500000006 63.35003449999999 44.7643135 63.2273655 44.511615000000006 63.137705 C 42.06863750000001 62.270098499999996 39.536744000000006 61.594004999999996 36.98641250000001 61.128159 C 40.99318500000001 62.5470845 41.895488500000006 62.854896499999995 44.30791000000001 63.711648499999995 C 44.556222500000004 63.799673 44.772343500000005 63.8844265 44.90445450000001 64.0305885 C 45.00273850000001 64.13942949999999 45.03500450000001 64.31205849999999 44.970844500000005 64.3861065 C 44.86059100000001 64.513088 44.874196000000005 64.705344 45.001177500000004 64.81567199999999 C 45.058795 64.86563199999999 45.129943000000004 64.8901655 45.200645 64.8901655 Z &#10;" stroke-width="0px" fill="#fff" /><path d="M 25.0748835 190.2014955 C 25.921736 193.4979305 28.139388999999998 196.2838955 31.488049999999998 198.258387 C 34.399432999999995 199.9749295 37.908516999999996 200.912195 41.404685 200.912195 C 41.5151275 200.912195 41.6255705 200.911259 41.736013 200.909387 C 47.0150825 200.8197225 69.48054 191.73693 83.402222 184.3396065 C 86.44978649999999 185.03577 89.29874099999999 185.3860045 91.90715549999999 185.3860045 C 94.31639849999999 185.3860045 96.52104149999998 185.088792 98.49497149999999 184.50049700000002 C 97.91280699999999 185.76141600000003 96.652543 186.9346365 95.33705799999998 188.15549650000003 C 93.29143399999998 190.05380150000002 91.17654899999998 192.01650000000004 90.89894449999998 194.80939100000003 C 90.67075849999999 196.27959000000004 91.07378099999998 197.81736450000002 92.03556899999998 199.14305200000004 C 93.17762199999999 200.71714200000005 94.98326699999998 201.83298800000003 96.86547349999998 202.12781400000003 C 97.32090949999998 202.19932100000003 97.76941949999998 202.23207950000003 98.20875649999998 202.23207950000003 C 101.57014699999998 202.23207950000003 104.40646599999998 200.3122475 105.89220199999998 199.06667800000002 C 109.19930699999998 196.16746250000003 113.19658549999998 190.5631485 113.55149949999998 180.24948100000003 C 113.55168649999997 177.28081750000004 112.97158149999997 174.99306150000004 112.29956549999997 173.33281700000003 C 117.14734649999997 175.99818400000004 123.09918099999997 178.44889000000003 130.02206899999996 179.76128650000004 C 133.92799799999995 180.44678050000005 137.85189799999995 180.78391150000004 141.73929499999997 180.78391150000004 C 155.21630449999998 180.78391150000004 168.27494199999998 176.73421950000005 178.79451949999998 169.10094150000003 C 191.12947599999998 160.15002550000003 199.0841615 147.07603800000004 201.19305599999998 132.28700650000002 C 205.70192749999998 104.10370350000002 193.889234 81.37833150000002 186.44614199999998 70.34173200000002 C 179.71175549999998 60.54995350000002 173.34613549999997 55.66988200000002 169.13396149999997 52.44064850000002 C 164.88584699999996 49.18389800000002 163.45046549999998 47.93346150000002 164.11237349999996 45.49380000000002 C 164.26755499999996 44.927921500000025 164.98711749999995 44.27350150000002 166.24279549999997 44.092862000000025 C 167.50858149999996 43.909789000000025 172.01857649999997 43.93842950000003 176.96416499999998 51.94047400000002 L 177.72023 53.163768000000026 L 178.55828449999998 51.99513400000003 C 183.47429699999998 45.13907350000003 184.02108199999998 36.46164300000003 180.0582465 28.187797000000028 C 177.363631 22.561581500000027 172.8500795 17.622357500000028 167.005599 13.904181000000028 C 160.7451805 9.921316000000028 153.24331049999998 7.583487000000028 145.310901 7.143775000000028 C 134.6823785 6.963697000000028 127.028509 9.350570500000028 121.87214349999999 14.423449000000028 C 116.809186 19.40404200000003 114.2420475 27.024591500000028 114.2420475 37.07319600000003 C 114.2420475 54.910260500000035 120.9541585 68.23770400000004 126.347508 78.94653200000003 C 129.6843765 85.57234750000003 132.5663705 91.29459200000004 133.2619725 96.68064100000004 C 134.52101950000002 105.02973800000004 133.904038 112.58832700000004 131.431431 119.16659600000004 C 129.882425 123.28798200000004 127.649984 126.85191350000004 124.88283150000001 129.66904550000004 C 126.7653185 124.85205750000004 128.036159 119.12981300000004 128.6804705 112.52823850000004 C 129.592091 109.53130900000005 129.857715 107.83816600000004 129.1675415 105.23639700000004 L 128.9217595 104.31017550000004 L 126.80051 104.87268450000005 L 126.5807475 103.00882300000005 L 124.677763 101.90364700000005 C 124.4226215 101.08112950000005 124.341006 100.18897650000005 124.51790199999999 99.95124400000005 L 125.0338005 99.25919850000004 L 124.3992225 98.67403900000004 C 123.67441849999999 98.00595400000003 122.3202785 97.69652700000003 121.13872799999999 98.09206200000004 C 116.21373049999998 93.02648400000004 113.66231599999999 91.56452150000004 111.40273249999998 90.26972100000005 C 109.30918749999998 89.07020050000004 107.50110849999999 88.03409800000004 104.06671399999999 84.31124150000005 C 98.17393849999999 77.49954500000005 106.5074985 59.51272800000005 109.24610399999999 53.60198200000005 C 113.24918549999998 44.961803000000046 115.20795299999999 33.28538450000005 107.55296049999998 28.81376400000005 C 104.70091699999999 27.14738900000005 101.85804599999999 26.85967600000005 99.33152799999998 27.980951000000047 C 96.05587099999998 29.434396000000046 93.37763449999997 33.22206750000005 91.60287599999998 38.81103150000005 C 91.40679349999998 39.40503550000005 91.22184849999998 40.00442150000005 91.06161299999998 40.61181000000005 C 87.62703099999997 39.01226200000005 84.99652799999998 38.66563100000005 84.28529549999998 38.54639050000005 C 82.28609449999998 29.108777500000052 78.29349599999998 24.36142450000005 72.09148099999997 24.037958000000053 C 70.39946099999997 23.947544500000053 68.81470099999997 24.54037900000005 67.50717149999997 25.746264000000053 C 64.97026449999997 28.085778000000055 63.54208999999997 32.599236000000055 63.25175649999997 39.15672700000005 C 60.18322649999997 39.85616650000005 57.03476599999997 40.875609000000054 54.00170899999997 42.34206400000005 C 44.78030149999997 46.80058150000005 38.72841399999997 54.291594000000046 36.01376849999997 64.60713350000005 C 35.39435299999997 67.15274500000005 35.84323749999997 69.65399250000004 37.34357399999997 72.05864900000005 C 39.76638799999997 75.94183450000004 44.95158149999997 79.41020450000005 52.07270449999997 82.03172200000004 C 52.01767049999997 82.03733750000005 51.96179399999997 82.04173650000004 51.90722749999997 82.04791400000005 C 48.47601499999997 82.32832600000005 45.49012999999997 83.57689100000005 43.09108899999997 84.58004800000005 C 41.59711699999997 85.20489200000004 40.306808999999966 85.74437650000004 39.36636099999997 85.85051400000005 C 36.72041499999997 86.14908400000004 35.55683499999997 85.25711850000005 35.50835249999997 85.21893150000005 L 33.96196699999997 83.99900700000005 L 33.94212449999997 85.95721300000005 C 33.94174999999997 86.10846350000006 33.94979949999997 89.20628850000006 35.19574299999997 91.61768450000005 C 34.52372699999997 91.83950600000006 34.236762999999975 91.83688550000005 33.066818999999974 91.56077850000005 L 30.824082499999975 91.03121500000006 L 32.02978049999997 92.99503650000005 C 32.546240499999975 93.83646050000006 32.62972799999997 94.17377900000005 32.735490999999975 94.60094900000006 C 32.79707699999997 94.84953900000005 32.866898999999975 95.13201000000005 33.00897699999997 95.50938750000006 C 32.86315499999997 95.54551550000006 32.71321499999997 95.58314100000005 32.56140299999997 95.62114050000005 C 31.99252949999997 95.76359300000006 31.40437499999997 95.91091250000005 31.03261349999997 95.98635050000006 L 29.090318999999973 96.38038750000005 L 30.60525649999997 97.65834100000005 C 31.24339099999997 98.19651550000005 31.27895699999997 99.53699050000004 31.32425749999997 101.23406500000004 C 31.34372549999997 101.96242550000004 31.36562649999997 102.78793800000004 31.44274949999997 103.64452450000005 L 31.457724999999968 103.95844400000004 C 31.602797999999968 106.83856600000004 31.637241499999966 107.52293650000004 32.824032499999966 111.21303450000005 C 33.29163599999997 112.66732200000006 34.07858699999996 114.34474150000005 34.83951899999997 115.96693950000005 C 35.660538999999964 117.71717600000005 36.50963799999997 119.52712700000005 36.940364499999966 121.01529600000005 C 37.020856499999965 121.29346200000005 37.092550999999965 121.55197300000005 37.160313999999964 121.79513400000005 C 37.615000999999964 123.43137150000004 37.91544299999996 124.51221250000005 39.28493299999997 126.09360300000004 C 41.551442499999965 128.70529300000004 43.74008099999997 129.30954600000004 45.279352999999965 129.30973300000005 C 45.98824549999996 129.30973300000005 46.55899149999996 129.18150700000004 46.936742999999964 129.06245350000006 C 48.707008999999964 128.50368800000007 50.05366199999997 127.05071100000006 50.21165099999996 125.52903450000007 C 50.32471449999996 124.43883350000007 50.29008399999996 122.35240200000007 48.78731399999996 120.62631250000007 C 47.51422749999996 119.16378850000007 45.50379499999996 118.31169450000007 42.80412549999996 118.08818850000007 C 41.98048449999996 110.66587450000007 42.951444999999964 105.02374800000007 45.559952499999966 102.14849300000007 C 46.78287199999997 100.80071700000008 48.34704049999996 100.11147950000007 50.07612449999996 100.15022800000007 C 55.92706249999996 100.70496900000008 56.21936149999996 104.93731250000008 55.90806299999996 110.87384400000008 C 55.410415499999964 110.93285600000007 54.85679799999996 110.86354850000008 54.65481849999996 110.82012000000007 L 53.49516949999996 110.57134300000007 L 53.49217449999996 111.75663700000007 C 53.49217449999996 113.27887500000007 54.03596449999996 114.26818000000007 54.472681499999965 115.06318050000007 C 54.67597099999996 115.43288300000007 54.829467499999964 115.72115700000008 54.919693999999964 115.99483050000008 C 54.528651999999965 116.04630800000008 53.99234949999997 116.05641650000008 53.391840499999965 115.89580650000008 L 52.05061649999997 115.53621250000008 L 52.19026099999997 116.91787000000008 C 52.46833349999997 119.66780050000008 53.05096549999997 121.12358550000008 53.67515449999997 122.31683550000008 C 53.49460849999997 123.34254900000008 53.310973999999966 124.35431700000008 53.125654999999966 125.33875500000008 L 52.70690849999997 125.16663300000008 L 52.86929699999997 126.66294500000008 C 52.83017399999997 126.85556450000009 52.79123849999997 127.04982200000008 52.75202199999997 127.23865100000008 C 52.644761499999966 127.75398800000008 52.421255499999965 128.42319600000008 52.13803499999997 129.27061000000006 C 50.63021099999997 133.78360000000006 47.837600499999965 142.15759300000008 51.840400999999964 157.59669300000007 C 47.24223899999996 166.03292750000008 45.732168499999965 174.36222850000007 44.59984999999996 180.62966700000007 C 43.99335099999996 183.98675200000008 43.48606299999996 186.79443100000006 42.68731849999996 188.66053900000006 C 41.103307499999964 186.03986400000005 37.62136599999996 181.03531000000007 33.95223349999996 180.69050400000006 C 30.279544499999965 180.06790650000005 26.557436999999965 181.89096050000006 25.285285999999964 184.94086500000006 C 24.486354499999965 186.85601700000007 24.729889999999962 188.85858750000006 25.074882999999964 190.20149600000005 Z M 54.533145 132.3036665 C 54.494958 132.302356 54.449658 132.297302 54.3955595 132.2870065 L 53.2591225 132.07211099999998 L 53.2591225 133.22876449999998 C 53.2591225 134.4591715 53.7920555 135.90110449999997 54.529401 137.89674849999997 C 55.5511835 140.66127999999998 56.938176 144.42531849999997 57.424311 149.37376149999997 C 55.8227975 151.29794549999997 54.435243500000006 153.24997399999998 53.2280485 155.20686999999998 C 50.13378 141.8196185 52.471235 134.33314499999997 53.8673995 130.14441699999998 C 53.876290999999995 130.16566299999997 53.8854635 130.18770499999997 53.8942615 130.20881049999997 C 54.2295205 131.00849099999996 54.5073125 131.67077299999997 54.5331445 132.30366599999996 Z M 58.610354 110.99327149999999 C 58.9733175 109.92328699999999 59.2512965 108.487157 59.573265 106.824339 C 60.683121 101.091612 62.203112499999996 93.24025599999999 68.643422 93.24025599999999 C 71.5778295 93.24025599999999 73.947856 94.17714749999999 75.68761 96.02509799999999 C 78.061193 98.54637449999998 79.3039545 102.93900099999999 79.0119365 107.77526949999998 C 78.685101 121.28784549999997 71.6777895 135.16544349999998 65.249835 141.380375 C 64.35684 142.2609685 63.39421 143.20399049999997 62.5271405 144.051124 C 61.591091500000005 144.9024225 60.709140500000004 145.76476499999998 59.874081000000004 146.635484 C 59.808470500000006 146.699176 59.765510000000006 146.7408725 59.762328000000004 146.74396099999998 L 59.766446 146.74826649999997 C 59.5496785 146.97570349999998 59.330665 147.20267299999998 59.1204495 147.43118649999997 C 58.495044 143.10417099999998 57.263046 139.76379299999996 56.3275585 137.23222049999995 C 55.866507 135.98515349999997 55.4750905 134.92565199999996 55.2901455 134.09882899999997 C 55.620538 133.98501699999997 55.916112500000004 133.79146099999997 56.1630175 133.52284199999997 L 56.359381 133.30888249999998 L 56.4041195 133.02191849999997 C 56.6068475 131.72056599999996 56.126515 130.57514399999997 55.661907 129.46753399999997 C 55.4333465 128.92224649999997 55.199732 128.36553999999998 55.026206 127.76091299999997 C 55.9574815 127.63343599999997 56.692394 127.08178349999997 57.064717 126.64918499999997 L 57.3846265 126.27723649999997 L 57.270252500000005 125.80027349999997 C 56.86592 124.11611549999998 56.309962000000006 123.12082049999998 55.772349500000004 122.15809649999997 C 55.171279000000006 121.08193499999997 54.598474 120.05650199999997 54.2559145 117.94610999999998 C 55.4198685 117.97643499999998 56.230406 117.64735299999998 56.346090000000004 117.59718599999998 L 56.8816435 117.36432049999998 L 56.920392 116.78178199999998 C 56.9941455 115.67117749999998 56.547133 114.85764499999998 56.152534 114.13976699999998 C 55.9207915 113.71802549999998 55.696723500000004 113.31032349999998 55.556143000000006 112.82493699999998 C 56.773446500000006 112.80958749999998 58.13657200000001 112.39570799999997 58.610353 110.99327199999998 Z M 55.1006145 125.20453799999999 C 55.1538705 125.35681799999999 55.206002999999995 125.51382449999998 55.255514999999995 125.68196899999998 C 55.177268999999995 125.72806499999999 55.086856 125.77004249999997 54.988673999999996 125.80298799999998 C 55.026112 125.60465899999998 55.063362999999995 125.40492599999999 55.1006145 125.20453799999999 Z M 82.5739015 39.74993499999998 C 81.73893550000001 39.47476399999998 76.30899000000001 37.75429099999998 71.65139500000001 37.94775299999998 C 71.10030450000001 37.98725049999998 70.761863 37.99099399999998 70.0036455 38.06530899999998 C 69.997094 38.06596399999998 69.9901675 38.066151499999975 69.9837095 38.06680649999998 C 69.969483 38.06821049999998 69.9549755 38.070035499999975 69.9408425 38.07148649999998 C 69.917537 38.073826499999974 69.8977885 38.07551099999998 69.873828 38.077991499999975 C 69.873641 38.078272499999976 69.8734535 38.078506499999975 69.87336 38.07878699999998 C 68.365255 38.233312999999974 66.79416 38.451811999999975 65.18815450000001 38.753797999999975 C 65.57545300000001 31.610117999999975 67.34487650000001 28.503307499999977 68.80665200000001 27.155438499999974 C 69.73905100000002 26.295295499999973 70.81034550000001 25.890213999999975 71.99152100000002 25.952173999999975 C 77.32852600000002 26.230526999999974 80.77733450000002 30.680246499999974 82.53543350000002 39.55553749999997 L 82.57390150000002 39.74993549999997 Z M 103.69645 165.202968 C 105.6269515 161.1876255 106.82329 156.365115 106.82329 150.1864055 C 106.82329 147.338106 106.6074585 144.57998550000002 106.2613425 141.93427350000002 C 106.535203 142.4373495 106.875891 142.89648250000002 107.2770415 143.28261100000003 C 108.1809875 144.15248800000003 109.4823395 144.78781450000002 111.0212375 144.78781450000002 C 112.623593 144.78800150000004 114.4829625 144.0997 116.420577 142.27065600000003 C 118.98818349999999 140.05768300000003 121.17429449999999 137.24602600000003 122.974137 133.85337500000003 C 126.9970605 130.90113750000003 138.727858 120.07054200000003 135.160277 96.41483000000002 C 134.425552 90.72459550000002 131.4754205 84.86682450000002 128.0593705 78.08433000000002 C 122.75737 67.55670350000003 116.1588845 54.45482450000002 116.1588845 37.07319650000002 C 116.1588845 27.557525000000023 118.5334035 20.396717000000024 123.216363 15.789757000000023 C 127.9874895 11.096127500000023 135.192287 8.894760500000022 145.242202 9.058927000000022 C 159.91087 9.873021000000023 172.913163 17.70696800000002 178.329537 29.01593050000002 C 181.75607 36.16999950000002 181.54061299999998 43.62750500000002 177.785747 49.70035850000002 C 175.7346945 46.744049500000024 171.25240349999999 41.43456150000002 165.96968399999997 42.19549350000002 C 164.11031499999999 42.463177000000016 162.65527849999998 43.55974200000002 162.26311349999997 44.98932050000002 C 161.23019299999999 48.79660000000002 163.91058249999998 50.85139650000002 167.96776199999996 53.96176350000002 C 172.08390699999995 57.11743100000002 178.30445399999996 61.88631100000002 184.86175749999995 71.42070200000002 C 192.14199349999996 82.21582500000002 203.70516099999995 104.45094350000002 199.29774699999996 132.00023050000001 C 197.26035899999997 146.28702850000002 189.57990899999996 158.90632850000003 177.66875299999995 167.54950250000002 C 164.53243149999994 177.081647 147.29119599999996 180.8458725 130.36631399999996 177.87571150000002 C 118.01582049999996 175.53423200000003 108.83980699999996 169.44148950000002 103.69645099999997 165.20296850000003 Z M 104.890261 134.351818 C 104.0642805 130.71404 103.1023055 127.41713700000001 102.271177 124.57829050000001 C 101.37453149999999 121.51547000000001 100.600122 118.87046000000001 100.294252 116.838688 L 100.285641 116.78964400000001 C 99.4026605 112.4623475 99.311592 110.62183800000001 99.3499665 109.87255900000001 C 100.33037999999999 109.64325000000001 101.6911655 109.52307300000001 103.42914099999999 109.836431 C 106.88768349999998 110.3324875 110.06057249999999 111.80549400000001 112.16853149999999 113.88331500000001 C 115.19522399999998 116.867141 118.56522549999998 126.91387350000001 115.58177399999998 132.9796135 C 113.55046999999998 132.332494 110.00085899999998 131.8984915 107.11165799999998 134.957568 C 106.57507449999997 134.75586950000002 104.89026149999998 134.3518175 104.89026149999998 134.3518175 Z M 106.06086049999999 136.931405 C 105.87984649999999 137.318282 105.74488199999999 137.71339600000002 105.66289199999999 138.11211300000002 C 105.57135549999998 137.610441 105.47579449999999 137.11499300000003 105.37705099999998 136.62399050000002 C 105.60261649999998 136.73326350000002 105.83089599999998 136.8352355 106.06085999999998 136.931405 Z M 86.0141925 182.9139595 C 89.34404099999999 181.043406 91.97323349999999 179.3361765 93.431265 177.9863415 C 96.9682405 174.71208850000002 100.32336 171.3094225 102.7908195 166.939353 C 104.46917499999999 168.303321 106.539321 169.836416 108.97327299999999 171.3723185 C 109.357389 171.813294 111.635224 174.6631845 111.635224 180.21653600000002 C 111.3044575 189.81232550000001 107.651236 194.97561700000003 104.64475999999999 197.61145500000003 C 103.23015699999999 198.79712350000003 100.35302999999999 200.73473850000005 97.16235799999998 200.23418950000004 C 95.77265149999998 200.01629900000003 94.43629399999999 199.18760400000005 93.58719549999998 198.01747250000005 C 93.11528699999998 197.36698350000006 92.59489549999998 196.32994500000007 92.79631299999998 195.08325200000004 L 92.80417499999999 195.02054300000003 C 93.00053849999999 192.93897800000002 94.76874549999998 191.29787400000004 96.64084349999999 189.56055350000003 C 98.51247349999998 187.82379450000002 100.43642349999999 186.03275050000002 100.71224949999998 183.67091350000004 C 101.46840799999998 183.32475050000005 102.53792399999999 182.43578000000005 103.20469899999999 181.98539800000003 C 103.20469899999999 181.98539800000003 101.256227 181.48026300000004 99.38469049999999 182.16126400000005 C 95.87757199999999 183.59851700000004 91.33697149999999 183.85445400000003 86.0141925 182.91395950000003 Z M 27.054241499999996 185.678772 C 28.087348999999996 183.20204650000002 31.226917999999998 182.16089 33.664145999999995 182.5858135 L 33.74838199999999 182.5966705 C 36.805680499999994 182.853403 40.49839899999999 188.55234199999998 41.766524999999994 190.9063635 C 41.791982999999995 190.9535355 41.766524999999994 190.9063635 41.839904 191.0438555 C 42.650816 192.44002 43.164936 193.9283765 43.164936 193.9283765 C 43.164936 193.9283765 44.4097565 192.35882600000002 43.850148999999995 190.581119 C 43.9400005 190.413583 43.904996 190.489489 43.9319515 190.4428785 C 45.153653999999996 188.329304 45.752478499999995 185.0313715 46.486174 180.9703545 C 48.070372 172.20152850000002 50.410635 159.288713 61.256018499999996 147.96543050000002 C 61.6333955 147.59886350000002 62.64965599999999 146.61115000000004 63.855073 145.43353050000002 C 63.9285455 145.36679700000002 63.997899999999994 145.29912750000003 64.0720275 145.232581 L 64.06678600000001 145.2266845 C 64.88088 144.4308415 65.76470300000001 143.5647085 66.5889985 142.75173750000002 C 73.4521725 136.11618800000002 80.5854635 121.99467950000002 80.92671250000001 107.85632400000003 C 81.0805835 105.32007200000002 81.01693850000001 98.88949650000004 77.08330500000001 94.71120450000004 C 74.96692250000001 92.46322650000003 72.12742100000001 91.32342000000004 68.6434205 91.32342000000004 C 60.893428500000006 91.32342000000004 58.9850155 99.82545200000004 57.81226350000001 105.83695350000004 C 57.777446000000005 105.50726300000004 57.73261350000001 105.18070850000004 57.676269000000005 104.85827150000003 C 57.611875500000004 104.46769750000003 57.5377475 104.10478050000003 57.4525755 103.77883400000003 C 57.4493935 103.78707050000003 57.4453685 103.79493250000003 57.442093 103.80312200000003 C 56.6670285 100.95945550000003 54.740177 98.65550750000003 50.221197000000004 98.23863300000004 L 50.1601725 98.23488900000004 C 47.83189 98.16937200000004 45.7578125 99.07762350000004 44.1402945 100.86061850000004 C 41.959705500000005 103.26396500000004 39.644339 108.38233100000005 40.995858500000004 119.11792700000004 L 41.0978775 119.92752850000004 L 41.913469000000006 119.95598150000004 C 44.478735500000006 120.04508450000003 46.30497200000001 120.69407600000004 47.34163600000001 121.88498550000004 C 48.36856650000001 123.06447650000004 48.38597500000001 124.55039950000004 48.304921500000006 125.33136050000005 C 48.23790700000001 125.97754400000005 47.53350700000001 126.86408100000004 46.35981900000001 127.23434500000005 C 45.319598000000006 127.56305250000004 43.20602350000001 127.68772200000005 40.73322950000001 124.83792450000004 C 39.646772500000004 123.58337000000004 39.43300000000001 122.81420150000004 39.007140500000006 121.28185550000005 C 38.937692500000004 121.03251700000006 38.864126500000005 120.76745450000004 38.781575000000004 120.48254950000005 C 38.30891750000001 118.84949450000005 37.427434500000004 116.97028300000005 36.5749665 115.15284500000004 C 35.839492500000006 113.58511950000005 35.0789355 111.96404500000004 34.64877 110.62619000000004 C 33.538914 107.17550950000003 33.513456 106.66953200000003 33.372127 103.86204000000004 L 33.354344 103.50993350000003 C 33.280216499999995 102.67637150000003 33.2599995 101.91731150000003 33.2403445 101.18314850000003 C 33.203655 99.80467350000004 33.170148 98.55011850000002 32.7807905 97.54228200000003 C 32.8620315 97.52187800000003 32.9442085 97.50128700000003 33.027134000000004 97.48050900000003 C 33.596195 97.33805650000002 34.18491100000001 97.19055000000003 34.5568595 97.11511200000002 L 35.8086065 96.86128100000002 L 35.2150235 95.73045950000002 C 34.788602 94.91767600000003 34.695194 94.54011150000002 34.59617 94.14045850000002 C 34.5604165 93.99613400000003 34.524476 93.85031250000003 34.4763675 93.69138700000002 C 35.070325000000004 93.68071700000002 35.540549 93.53152600000001 36.233717500000004 93.28668000000002 C 36.44112500000001 93.21348850000003 36.67661150000001 93.13018850000002 36.955526500000005 93.03883900000002 L 38.274662000000006 92.60755050000003 L 37.404036500000004 91.52670900000003 C 36.556435500000006 90.47450800000003 36.151728000000006 88.81037900000003 35.97651750000001 87.51557850000003 C 36.832729500000006 87.76547850000003 38.023452000000006 87.93058100000003 39.58125650000001 87.75537050000003 C 40.79388050000001 87.61853400000003 42.20118300000001 87.03000500000003 43.83049400000001 86.34862950000003 C 45.45737150000001 85.66828350000003 47.37243000000001 84.87440600000004 49.48460100000001 84.37984700000003 C 49.490684500000015 84.38733450000002 49.49733000000001 84.39426050000003 49.503413500000015 84.40179500000002 C 50.36346300000002 84.19307700000002 51.255709500000016 84.03326250000002 52.17659600000002 83.95445500000002 C 52.48377650000002 83.91860800000002 52.80144000000002 83.89483450000003 53.12406350000002 83.87826800000002 C 57.39155250000002 83.69308900000001 62.71966600000002 85.03894650000002 62.77741450000002 85.05364100000001 L 62.78602550000002 85.02008700000002 C 65.18843600000002 85.52171250000002 67.37669950000003 85.89384800000002 69.35690050000002 86.07617250000001 C 69.35680700000002 86.07729550000002 69.35699400000003 86.078325 69.35680700000002 86.07944850000001 C 69.39508750000002 86.08281800000002 69.43159000000001 86.08450250000001 69.46968300000002 86.08777850000001 C 69.66436150000001 86.10504700000001 69.85305050000002 86.11669950000001 70.04361100000001 86.13017750000002 C 70.20459550000001 86.14131550000002 70.36651550000002 86.15352950000002 70.52506650000001 86.16209350000001 C 70.7361245 86.17355900000001 70.9429705 86.1806255 71.14897450000001 86.18699000000001 C 71.318757 86.19251200000001 71.48741600000001 86.19681750000001 71.65401600000001 86.19897 C 71.73010900000001 86.1997655 71.8101335 86.204492 71.88557150000001 86.204492 C 71.93405400000002 86.204492 71.97823100000001 86.200046 72.02633900000001 86.199625 C 73.7944525 86.195741 75.37518750000001 85.99970499999999 76.70218500000001 85.550259 C 80.40182950000002 84.2971085 80.88936900000002 81.3530605 80.89535900000001 81.234475 L 80.94234400000002 80.29243600000001 L 80.35344100000002 81.02903300000001 C 80.34052500000001 81.04522500000002 78.68304150000002 82.83065350000001 75.62677250000002 83.72907700000002 C 73.94972750000001 84.22195100000002 71.70568100000001 84.36515250000002 69.27771900000002 84.13790250000002 C 67.46196550000002 83.95979000000003 65.45593200000002 83.61694950000002 63.277776500000016 83.16441550000002 C 63.05258550000001 83.10793050000002 62.25693000000002 82.91390700000002 61.12854200000002 82.69559550000002 C 50.074440500000016 80.15906250000002 42.01914000000002 75.93125850000003 38.96989050000002 71.04407350000002 C 37.75277400000002 69.09316800000002 37.38325900000002 67.08591800000002 37.871827500000016 65.07754500000003 C 43.257502500000015 44.612224500000025 61.375447000000015 40.23972150000003 73.65583700000002 39.727847000000025 C 78.45391900000001 39.564055000000025 80.91463950000002 39.862156500000026 80.93700850000002 39.86613450000002 L 82.97495800000002 40.15169450000002 C 83.01670150000001 40.16245800000002 87.05254150000002 41.22074300000002 90.87891450000001 41.33867300000002 C 90.78672300000001 41.72545650000002 90.7549005 42.219500500000024 90.759861 42.75051500000002 C 90.7475065 44.62626350000002 91.2139865 46.743441500000024 91.2139865 46.743441500000024 C 91.2139865 46.743441500000024 92.023307 44.35025050000002 92.520674 42.633801500000025 C 92.6018215 42.369721500000026 92.65854 42.17864650000003 92.6753875 42.10774750000002 C 94.2389945 35.548759000000025 96.8574235 31.175835000000024 100.108933 29.733059500000024 C 102.07631149999999 28.860187500000023 104.255777 29.107467000000025 106.586119 30.468907500000025 C 113.130132 34.29153650000003 111.171926 44.88561600000003 107.506725 52.79631150000003 C 102.53025000000001 63.53733600000003 96.6110805 78.62287850000003 102.6375105 85.58825900000002 C 106.2922295 89.55053250000002 108.31164650000001 90.70774800000002 110.44974350000001 91.93291350000003 C 112.77783900000001 93.26702450000002 115.1851165 94.64643550000002 120.23590650000001 99.91680050000002 L 120.79598200000001 100.50121100000003 L 121.465939 100.04708550000002 C 121.79127700000001 99.82620000000003 122.21638800000001 99.80785550000002 122.558012 99.86906700000003 C 122.35827900000001 101.10976950000003 122.85995100000001 102.54664850000003 122.99098500000001 102.89276450000003 L 123.11172350000001 103.21098950000003 L 124.78933 104.18513200000002 L 125.15585 107.29194250000002 L 127.523443 106.66410350000002 C 127.812653 108.32336550000002 127.5603195 109.63763400000002 126.81923 112.05988650000002 L 126.790964 112.15217150000002 L 126.7817915 112.24820050000002 C 125.501966 125.50488600000003 121.4809145 135.38913700000003 115.153481 140.83227950000003 L 115.119412 140.86297900000002 C 112.298255 143.53494450000002 109.9053915 143.1517645 108.6062855 141.90151500000002 C 107.38280449999999 140.72389600000002 106.884689 138.5575335 108.371735 136.86195650000002 C 111.623806 133.15388850000002 115.426031 134.96196700000002 115.586641 135.04058700000002 L 116.371533 135.42620050000002 L 116.8316485 134.68192850000003 C 120.9912215 127.86761150000002 117.114494 116.06745950000003 113.514061 112.51831650000003 C 111.120823 110.15896000000002 107.5563305 108.49183600000002 103.7350115 107.94448950000003 C 101.891928 107.61241250000003 100.3765225 107.70844150000003 99.203209 107.94907550000003 L 99.208544 107.93737600000003 C 97.787951 108.25269950000003 94.2835465 109.33513200000003 93.612092 110.17786600000002 C 94.500033 110.49880500000002 94.74356850000001 110.79643900000002 97.4349085 110.53685150000003 C 97.4349085 110.97183700000002 97.73656700000001 113.88106700000003 98.402499 117.14867450000003 C 98.7300835 119.30492850000003 99.5189065 121.99898300000002 100.4316505 125.11683750000003 C 102.320034 131.56744250000003 104.9064535 140.40211300000004 104.9064535 150.18640400000004 C 104.9064535 155.76858250000004 103.8632375 160.18718150000004 102.164104 163.89492200000004 C 101.7766185 164.62127000000004 101.5358905 165.18939500000005 101.27532049999999 165.66532850000004 C 98.90286049999999 170.00643000000005 95.609327 173.35794600000006 92.12916399999999 176.57978550000004 C 85.09658199999998 183.08991700000004 48.22929749999999 198.88191900000004 41.70344199999999 198.99292300000005 C 35.73578999999999 199.09475500000005 28.51302199999999 195.88087100000004 26.93144449999999 189.72453050000004 C 26.65926849999999 188.66540350000005 26.45972299999999 187.10404250000005 27.05424199999999 185.67876950000004 Z &#10;" stroke-width="0px" fill="#0c0c0c" /></g></g></svg>