<?xml version='1.0' encoding='utf-8'?>
<svg viewBox="0 0 432 432" width="432px" height="432px" xmlns="http://www.w3.org/2000/svg" xmlns:xlink="http://www.w3.org/1999/xlink" version="1.1"><g isolation="isolate"><g id="Layer_1"><path d="M 174.463964 208.921412 C 174.175502 208.433682 167.184497 209.528131 167.184497 209.528131 L 168.16184099999998 214.485702 L 166.511654 218.16943 L 165.915947 223.862447 L 161.39119499999998 224.99166400000001 L 164.11755699999998 231.662517 L 170.750184 239.775011 L 175.248461 227.88108300000002 L 174.46396299999998 208.92141300000003 Z M 235.703938 86.41269100000001 C 235.449444 84.48224100000002 235.070616 82.54009200000002 234.575805 80.61829700000001 C 234.579545 80.630474 235.249049 82.83494400000001 235.703938 86.41269100000001 Z M 201.93223799999998 274.373339 C 201.47113 274.31089 200.999542 274.24348299999997 200.51799499999998 274.170857 C 203.853512 266.754389 200.59923099999997 256.593368 197.367956 249.825398 C 193.979759 243.342267 194.211357 235.847871 196.296841 229.40959700000002 C 199.800622 218.59278 211.706404 217.58452000000003 215.886822 215.121665 C 220.513962 221.309202 219.700075 239.629934 201.932237 274.373339 Z M 319.014995 218.169333 C 321.105166 210.794456 339.916783 200.44341699999998 349.15655 198.12339699999998 C 348.344346 203.227941 351.861288 208.69874 351.861288 208.69874 C 351.861288 208.69874 354.205916 200.603715 359.316605 195.688279 C 361.661233 197.35626 362.052005 201.444954 362.052005 201.444954 C 362.052005 201.444954 366.210659 194.634664 364.506773 188.966632 C 368.273686 193.127687 371.430498 190.894355 371.430498 190.894355 C 382.372117 167.98083 389.034763 158.580487 389.295274 158.059465 C 389.295274 158.059465 393.10953 149.05746499999998 401.185449 154.030485 C 407.698305 157.749051 413.256284 153.389373 415.253219 151.002007 C 417.50190200000003 148.313672 417.665496 133.875093 406.460863 135.837581 C 389.787951 138.757837 388.85521700000004 142.511206 374.592062 156.709233 C 359.60801299999997 171.624862 348.958884 171.597407 338.39421600000003 170.174864 C 311.83560300000005 166.126607 315.508826 165.75362600000003 295.26632300000006 167.93948500000002 C 296.64191500000004 167.79094400000002 296.42890700000004 165.42290300000002 296.76730100000003 164.03891900000002 C 330.06149400000004 156.516881 346.30870100000004 144.446209 343.773028 125.93811600000002 C 326.894817 81.27555000000002 297.824295 81.07484500000002 289.041432 76.62352300000002 C 289.041432 53.30054200000002 280.201804 45.212881000000024 270.800523 47.68688900000002 C 265.20984599999997 49.15804900000002 255.695965 51.99292000000002 250.983118 75.37604500000002 L 234.57549899999998 80.61667100000003 C 229.81163199999997 62.116012000000026 214.50805799999998 45.52373800000002 200.11897599999998 59.82446300000002 C 178.614502 81.19783700000002 220.85188499999998 127.99449700000002 215.12824999999998 156.65136 C 213.56619899999998 160.68032300000002 212.289493 164.23894800000002 211.26130299999997 167.392785 C 209.25645099999997 171.806264 205.67789099999996 179.11273 203.58147199999996 180.022997 C 160.09238699999997 198.894656 161.12226599999997 239.32958100000002 180.88695999999996 253.681665 C 184.96153799999996 257.22272 188.99911799999995 260.821215 191.21092499999995 265.413098 C 192.32291099999995 267.721541 192.76638699999995 269.878611 192.72111099999995 271.874847 C 189.06399199999996 270.477347 186.03314699999996 269.88334199999997 183.55559099999994 269.873881 C 161.14980399999993 261.55510599999997 137.08042999999992 240.18037999999999 156.62228799999994 185.30146599999998 C 213.11714699999993 72.60604799999997 185.31108199999994 18.317759999999964 137.20223799999994 16.40531999999999 C 68.40356599999994 13.67046299999999 43.632738999999944 72.31208699999999 63.05278899999993 110.56358699999998 C 63.05278899999993 110.56358699999998 81.72475699999993 81.35529199999999 91.88873299999993 94.38015599999999 C 99.03098599999993 103.53283599999999 77.25856799999993 113.71674799999998 56.44270799999993 140.049625 C 26.826583 177.5152 1.38691 254.906843 28.720101 321.826019 C 67.10574199999999 402.87697699999995 153.19577700000002 400.008993 188.552938 378.975534 L 188.55429 378.970128 C 194.33705500000002 382.36927 201.682548 385.15954 210.90821200000002 386.012367 L 204.02393500000002 385.727866 C 200.56870400000003 392.588997 193.51261100000002 397.5039 185.879577 398.367539 C 182.35541700000002 398.76557 178.47917800000002 398.44390100000004 175.61018 400.52866400000005 C 171.806756 403.29257900000005 171.74762600000003 409.3752190000001 174.523874 413.16968900000006 C 177.30012200000002 416.96415900000005 182.050812 418.80429100000003 186.687802 419.57872800000007 C 189.99014 420.13083500000005 193.400432 420.2376070000001 196.67067 419.5199360000001 C 203.655299 417.9852540000001 209.409851 412.76760400000006 213.048724 406.6113050000001 C 216.68759699999998 400.4550060000001 218.46792299999998 393.39384500000006 219.87522199999998 386.3820160000001 L 217.24679999999998 386.2738920000001 C 217.64820999999998 386.2711890000001 218.040158 386.2799740000001 218.44798799999998 386.2698370000001 C 223.32927099999998 379.43438500000013 237.060657 360.0646810000001 242.278306 355.5464570000001 C 259.391771 340.72876500000007 276.841095 337.4154460000001 284.958828 339.2995030000001 C 293.645224 341.31533600000006 291.467628 361.97914800000007 294.600177 369.78433500000006 L 294.335105 369.79514700000004 C 295.742319 376.8063 297.52273 383.86813600000005 301.161519 390.02443600000004 C 304.800476 396.18006 310.554944 401.398385 317.539657 402.93239100000005 C 320.80981099999997 403.65073900000004 324.220103 403.54396600000007 327.52244099999996 402.99185900000003 C 332.15960099999995 402.21674600000006 336.91012199999994 400.376614 339.68636899999996 396.58282 C 342.46261699999997 392.78835000000004 342.403487 386.70571 338.60014699999994 383.941795 C 335.73114899999996 381.857033 331.85482599999995 382.178701 328.3307499999999 381.779995 C 321.3897079999999 380.99474599999996 314.9355619999999 376.85360399999996 311.2224379999999 370.951396 C 318.6527399999999 368.767295 326.2449739999999 364.95931 330.8491899999999 360.964811 C 338.4995409999999 354.327361 347.3268359999999 341.366695 347.3268359999999 334.483263 C 347.3268359999999 316.536738 324.6699989999999 295.35798700000004 314.9599739999999 276.51673800000003 C 312.5719579999999 271.88295700000003 310.35297099999985 267.37554600000004 308.39728099999985 262.985043 C 309.14806599999986 244.661436 306.69601999999986 225.73233600000003 302.47961399999986 214.857109 L 305.67080299999986 218.169333 L 307.5987989999999 209.528131 L 313.69910599999986 216.945132 L 314.2596809999999 212.743885 &#10;" stroke-width="0px" fill="#c56439" /><path d="M 310.376246 263.307118 L 311.600705 254.627703 L 308.392131 257.313025 C 308.395784 256.25834399999997 308.392305 255.219667 308.381346 254.196994 L 312.071598 237.112663 L 311.128943 236.701437 C 311.128943 236.701437 309.618156 237.902239 309.34992 238.304593 C 309.081684 238.706947 310.545155 227.579136 310.545155 227.579136 C 310.545155 227.579136 308.25957900000003 227.611491 305.977655 227.62419 C 299.23956200000003 192.954716 279.792594 188.955522 265.37097000000006 188.966655 C 254.30386800000005 188.975179 232.87765500000006 192.102517 228.61126900000005 217.956196 C 224.34453500000006 243.809876 262.87282200000004 309.294534 246.72940600000004 351.951784 L 246.27886600000005 353.066827 C 246.27886600000005 353.066827 267.08249900000004 336.737281 284.96440700000005 340.071275 C 288.45182900000003 341.69495800000004 286.4678880000001 339.895234 286.4678880000001 339.895234 C 286.4678880000001 339.895234 300.91977900000006 323.25500700000003 306.25876300000004 288.092548 L 309.03854200000006 282.403048 L 312.07159700000005 272.808985 L 308.39752300000004 271.016741 L 310.37624500000004 263.307117 Z &#10;" stroke-width="0px" fill="#e7caae" /><path d="M 324.746942 120.69963 C 321.774243 121.175325 318.767384 121.660634 315.99643199999997 122.837514 C 312.07945099999995 124.501136 308.83327499999996 127.461601 304.95849699999997 129.221281 C 293.49771899999996 134.426044 277.699527 128.963469 266.12756199999995 133.916106 C 258.10219299999994 137.35085 254.48887599999995 145.56189600000002 255.45654199999996 154.23758800000002 C 256.46318899999994 163.262763 264.30493299999995 169.699124 273.38090399999993 169.392727 C 277.05267799999996 169.26877100000002 280.84692899999993 168.212403 284.4333279999999 167.415516 C 296.5857159999999 164.715292 327.7629729999999 160.170052 341.3544589999999 140.821087 C 342.1920699999999 139.628656 343.81750299999993 133.919935 343.5562079999999 130.86674100000002 C 343.1367659999999 125.96561100000002 342.1944789999999 119.91722100000001 341.08715599999994 119.41586200000002 C 336.56805999999995 117.36976600000001 329.74639299999996 119.89961100000002 324.74694099999994 120.69962900000002 Z &#10;" stroke-width="0px" fill="#e7caae" /><path d="M 274.621022 120.20789 C 277.355781 114.36971500000001 285.60094 113.034659 290.778018 116.35493600000001 C 291.50996299999997 116.865874 292.240757 117.483979 292.61177 118.33120600000001 C 290.97245799999996 118.038662 289.503113 118.150569 287.911405 118.19265100000001 C 287.911402 118.19268500000001 285.67634 118.29217700000001 285.67634 118.29217700000001 C 281.837581 118.39876400000001 278.47337999999996 119.227265 274.621022 120.207891 L 274.621022 120.207891 Z &#10;" stroke-width="0px" /><path d="M 314.25967 81.013633 C 314.49799700000005 75.80547899999999 321.186346 73.087321 325.393617 75.740827 C 325.98082700000003 76.13393599999999 326.561307 76.63785399999999 326.812143 77.339727 C 325.529707 77.36345299999999 324.529926 77.679835 323.372691 77.95275 C 322.515132 78.175901 321.240838 78.45884699999999 320.414319 78.702727 C 318.777066 79.138134 315.91477699999996 80.36138299999999 314.25966999999997 81.013633 L 314.25966999999997 81.013633 Z &#10;" stroke-width="0px" /><path d="M 319.015073 111.185841 C 321.74974999999995 105.347718 329.99494699999997 104.01267 335.171882 107.332887 C 335.903827 107.843825 336.634621 108.462024 337.005634 109.309157 C 335.36632399999996 109.01662999999999 333.896975 109.128646 332.305269 109.170602 C 332.305266 109.170636 330.070204 109.270222 330.070204 109.270222 C 326.23159 109.37661200000001 322.867221 110.205411 319.015073 111.18584200000001 L 319.015073 111.18584200000001 Z &#10;" stroke-width="0px" /><path d="M 227.469742 98.620636 C 227.45433 96.86196600000001 227.438918 95.103296 227.423505 93.344626 C 227.371851 87.450443 227.293054 81.40698800000001 225.17199100000002 75.90742900000001 C 223.05092800000003 70.40787 218.418293 65.48042000000001 212.569644 64.747363 C 206.841404 64.02939900000001 200.88093500000002 67.92761200000001 199.242682 73.463345 C 199.242682 73.463345 220.30020000000002 62.6923 227.469742 98.620637 Z &#10;" opacity=".35" fill="#754123" mix-blend-mode="multiply" stroke-width="0px" /><path d="M 199.242728 73.463374 C 200.482724 66.356176 207.500201 61.51654 214.614205 63.359226 C 220.392505 64.713485 224.65206 69.730216 226.197623 75.286744 C 227.89162399999998 80.461456 228.414188 86.12658 227.469802 91.429415 C 226.917034 87.212445 226.16805499999998 83.09728600000001 224.76056799999998 79.114405 C 223.402584 75.311729 221.93430499999997 71.551625 218.81480799999997 68.92225 C 211.95737599999998 62.99171100000001 203.20324399999998 65.588205 199.24272799999997 73.463375 L 199.24272799999997 73.463375 Z &#10;" stroke-width="0px" /><path d="M 319.891313 142.743506 C 315.306441 151.361061 298.297315 163.452809 295.306288 144.069817 L 300.67830299999997 145.140756 L 311.64939899999996 144.613141 L 319.89131299999997 142.74350600000002 Z &#10;" stroke-width="0px" /><path d="M 63.052772 110.563447 C 69.311638 66.388566 99.689818 63.810084999999994 109.713397 71.608103 C 120.036485 79.519706 130.36306100000002 97.887338 109.748818 137.002747 C 83.195351 187.387799 54.826677 322.289529 176.741759 320.478909 C 176.741759 320.478909 165.072777 342.68947299999996 169.800778 361.358831 C 177.64706900000002 371.276859 187.897086 379.303284 187.897086 379.303284 C 187.897086 379.303284 140.328178 401.977997 94.66212900000001 383.708103 C 19.821357 352.198289 10.969437 280.041729 18.783485 232.836585 C 20.242089999999997 224.10872400000002 28.720247 157.84427100000002 82.344763 112.98819800000001 C 108.47467900000001 92.94432600000002 78.163558 78.45936500000002 63.052772000000004 110.56344600000001 Z &#10;" fill="#754123" mix-blend-mode="multiply" stroke-width="0px" opacity=".25" /><path d="M 183.542908 420.298839 C 183.114982 420.298839 182.69192700000002 420.106794 182.411166 419.741492 C 180.104193 416.734182 179.173194 413.3066 179.857179 410.336865 C 180.416614 407.907777 182.039601 405.912181 184.42694 404.718164 C 185.129713 404.366778 185.986608 404.65067 186.339038 405.35553 C 186.69077199999998 406.059694 186.405488 406.915546 185.701672 407.267628 C 184.065464 408.085906 183.005043 409.368292 182.634522 410.976319 C 182.142233 413.113861 182.885015 415.676545 184.672562 418.006132 C 185.15163 418.630973 185.03369 419.52509499999996 184.409196 420.004511 C 184.150701 420.202818 183.845586 420.29884 183.542907 420.29884 Z &#10;" stroke-width="0px" /><path d="M 331.482094 403.465001 C 331.104963 403.465001 330.728875 403.31609699999996 330.44881000000004 403.02176699999995 C 329.906423 402.451199 329.92973200000006 401.548728 330.50030000000004 401.00668899999994 C 333.13013100000006 398.50801899999993 334.303622 395.99960899999996 333.89448300000004 393.7514319999999 C 333.49230200000005 391.54291699999993 331.721803 390.1352849999999 330.927182 389.7999019999999 C 330.20214300000004 389.49374399999994 329.862934 388.65737499999994 330.16909200000003 387.9323359999999 C 330.4752500000001 387.20729699999987 331.310576 386.8677399999999 332.03631 387.1738979999999 C 333.585193 387.8286589999999 336.105433 389.98429199999987 336.698266 393.2407039999999 C 337.10983999999996 395.50001299999985 336.708703 399.0396209999999 332.463192 403.0732569999999 C 332.18764899999996 403.3348829999999 331.834524 403.4650009999999 331.482094 403.4650009999999 Z &#10;" stroke-width="0px" /><path d="M 303.550048 373.29905 C 308.91702 378.21757 321.31925 380.95045500000003 324.32212 380.941977 C 324.32212 380.941977 313.08730099999997 376.004589 310.800981 372.282759 L 303.550048 373.299049 Z &#10;" fill="#754123" mix-blend-mode="multiply" stroke-width="0px" opacity=".25" /><path d="M 333.44122 388.729225 C 337.031925 389.53394499999996 336.88104 392.249875 338.440185 392.70252999999997 C 339.99933 393.15518499999996 340.85434499999997 389.50150999999994 340.80404999999996 388.48668 C 341.62936499999995 389.08128999999997 340.75928899999997 394.0102 340.12783499999995 395.92141 C 339.49638099999993 397.83261999999996 333.66216 400.498255 333.66216 400.498255 L 334.96982999999994 396.32376999999997 L 334.36628999999994 390.841615 L 333.44121999999993 388.729225 Z &#10;" fill="#754123" mix-blend-mode="multiply" stroke-width="0px" opacity=".25" /><path d="M 334.622142 391.567083 C 334.374997 398.07651400000003 322.597252 396.524935 319.788118 396.323757 C 316.978985 396.12258 308.917018 395.116693 301.674547 380.028175 C 298.50489500000003 373.42467899999997 297.647173 365.24138 296.612584 357.982687 L 296.61262700000003 357.982644 C 296.61254 357.981992 296.612366 357.981339 296.61227900000006 357.980687 C 296.0894610000001 354.313006 295.51976300000007 350.883945 294.58537200000006 348.011667 C 290.46449800000005 332.039247 283.73201600000004 327.006465 271.49755400000004 325.30719999999997 C 257.01256800000004 323.29542699999996 231.82565300000005 349.256131 219.87512700000002 376.612379 C 215.26779200000001 385.728026 216.87721100000002 383.75 214.26181800000003 394.61375 C 211.64651300000003 405.47745699999996 204.04587100000003 413.82640299999997 196.22804800000003 414.53056699999996 C 188.41022500000003 415.23468799999995 182.27418600000004 414.631156 181.97246400000003 410.406345 C 181.79094300000003 415.849223 181.97246400000003 418.371767 181.97246400000003 418.371767 L 186.29782000000003 420.025805 L 198.95024800000004 418.873928 L 209.53410700000003 412.433426 L 218.33676800000003 393.188983 L 221.90673100000004 382.442347 L 243.26527600000003 355.014779 L 263.65150700000004 342.80989 L 279.88003000000003 339.322773 L 287.12254500000006 340.798073 L 290.81845000000004 346.75550499999997 L 292.889672 363.06200199999995 L 293.04566500000004 362.84916999999996 C 293.72852000000006 367.31477599999994 294.694832 372.377957 296.252804 378.00513799999993 C 302.43246200000004 400.32490699999994 317.97012800000005 406.3827539999999 327.928537 403.4386329999999 C 337.886946 400.4944679999999 334.622141 391.5670829999999 334.622141 391.5670829999999 Z &#10;" fill="#754123" mix-blend-mode="multiply" stroke-width="0px" opacity=".25" /><path d="M 194.105423 274.699445 L 196.22704 275.716359 C 196.22704 275.716359 196.33118499999998 272.296348 191.72967 270.770888 C 187.128155 269.245428 193.288815 273.603969 193.288815 273.603969 L 194.105424 274.699445 Z &#10;" stroke-width="0px" /><path d="M 181.341522 363.922245 C 185.523786 364.02327799999995 189.759288 363.69811599999997 193.852755 364.561287 C 198.799285 365.604336 203.352308 368.421695 206.493075 372.382969 C 209.63384200000002 376.344243 211.338805 381.419737 211.226475 386.473794 C 209.255521 387.160118 207.087657 386.693968 205.068832 386.164777 C 194.315967 383.346151 183.57097399999998 378.545281 176.660653 369.838033 C 174.341859 366.916272 172.482001 363.632624 169.74194699999998 361.06084 C 173.27729 363.186038 177.26292199999997 363.823716 181.34152199999997 363.922245 Z &#10;" fill="#754123" mix-blend-mode="multiply" stroke-width="0px" opacity=".25" /><path d="M 321.326967 351.403143 C 328.164529 345.400951 338.255084 344.977479 346.169956 340.490448 C 343.866682 345.94448 340.868154 351.104461 337.269916 355.805974 C 335.43698 358.200917 333.42863400000005 360.496414 331.00738 362.294451 C 328.573262 364.10204 325.784032 365.36226999999997 323.004726 366.573786 C 318.337196 368.608391 313.62747 370.54619099999996 308.879442 372.385582 C 307.65444399999996 372.86014 305.577909 373.717733 304.450334 372.9159 C 305.263244 371.243284 307.866304 369.895265 309.1424 368.39909800000004 C 310.669535 366.60859800000003 311.926686 364.60665200000005 313.15397 362.60518600000006 C 315.566056 358.67153300000007 317.811887 354.48877300000004 321.326967 351.40314300000006 Z &#10;" fill="#754123" mix-blend-mode="multiply" stroke-width="0px" opacity=".25" /><path d="M 198.841739 271.4833 C 198.10839199999998 274.117912 197.10402599999998 276.85598 194.954613 278.546837 C 192.122906 280.774429 188.148178 280.583413 184.557724 280.28446099999996 C 181.531632 280.03249999999997 178.505539 279.780539 175.479447 279.528578 C 175.16864099999998 279.502699 174.807292 279.496157 174.603571 279.732309 C 174.40286899999998 279.96496099999996 174.457284 280.316077 174.528833 280.61489 C 175.357439 284.075402 177.37281199999998 287.714768 180.831604 288.550521 C 182.675579 288.996084 184.612739 288.555591 186.422959 287.98825 C 189.967818 286.877255 193.42898499999998 285.222862 196.03956399999998 282.579874 C 199.26577699999999 279.3136 200.84965 274.81872100000004 201.292096 270.318394 C 201.373278 269.492658 201.872211 264.233262 200.80299 264.32700600000004 C 200.04160299999998 264.39376100000004 199.099188 270.55838800000004 198.841738 271.48330000000004 Z &#10;" fill="#754123" mix-blend-mode="multiply" stroke-width="0px" opacity=".25" /><path d="M 180.21202 248.609548 C 184.486483 251.581659 189.004366 254.48700399999998 191.917888 258.80161599999997 C 195.09903500000001 263.51255199999997 196.007168 269.420661 195.919972 275.10441099999997 C 194.47858300000001 274.952366 193.323755 273.77885899999995 192.700423 272.470357 C 192.077091 271.161855 191.866973 269.702403 191.509512 268.29778799999997 C 190.564276 264.58354899999995 188.524067 261.15507099999996 185.71042 258.55267999999995 C 183.16453 256.19794299999995 180.038122 254.53341399999996 177.529666 252.13881199999994 C 173.67174 248.45598299999995 171.37055099999998 243.21401399999993 169.77777 238.20605099999995 C 172.268324 242.63645399999996 176.094548 245.74659399999996 180.21202 248.60954699999994 Z &#10;" fill="#754123" mix-blend-mode="multiply" stroke-width="0px" opacity=".25" /><path d="M 197.158956 253.202272 C 192.549176 248.94543 190.70832099999998 242.416436 190.361743 236.151401 C 189.942503 228.572846 191.635008 220.494213 196.853639 214.982757 C 202.07226999999997 209.47130099999998 211.371534 207.512048 217.46047499999997 212.043609 C 221.46783999999997 215.026003 223.41830499999998 220.15941800000002 223.68049899999997 225.147893 C 223.94269299999996 230.136368 222.73231399999997 235.07281 221.49415299999998 239.912292 C 218.534101 251.481963 215.36335899999997 262.99773 211.984029 274.451957 C 209.36059799999998 283.34407 203.292676 291.296878 196.67056 297.785302 C 190.048444 304.273726 182.632201 309.984991 176.671951 317.086222 C 185.410985 302.615652 194.15002 288.14508 202.889056 273.674509 C 211.581039 259.28185 217.29199500000001 243.09211 217.978486 226.29246899999998 C 218.116726 222.90949299999997 219.36517 218.04344199999997 216.915133 215.706574 C 214.772808 213.66320299999998 211.424021 216.87024 208.638887 217.87420699999998 C 205.853753 218.87817499999997 201.87073 221.68555199999997 200.194278 224.125721 C 193.863488 233.34054 194.904107 242.252047 197.158957 253.202271 Z &#10;" fill="#754123" mix-blend-mode="multiply" stroke-width="0px" opacity=".25" /><path d="M 270.283063 63.711921 C 272.561442 62.839453 275.01340000000005 62.462385 277.25281500000006 61.494279999999996 C 280.07267600000006 60.27524699999999 282.475651 58.114278999999996 283.98606000000007 55.43914899999999 C 286.5218500000001 62.156045999999996 288.0355420000001 69.257752 288.4590580000001 76.42487 C 288.4857170000001 76.876023 288.4723080000001 77.407145 288.1062830000001 77.672241 C 287.88830200000007 77.830114 287.60075100000006 77.845477 287.3316190000001 77.842734 C 285.6063940000001 77.825154 283.9315740000001 77.30954999999999 282.2567970000001 76.894984 C 276.3137900000001 75.42388399999999 270.1525370000001 75.204031 264.0578580000001 75.346643 C 262.5109440000001 75.38284 260.96450500000014 76.665422 259.4188130000001 76.736218 C 257.68296600000014 76.81572299999999 255.2848130000001 78.06010599999999 256.5955930000001 76.345952 C 258.1575280000001 74.30335199999999 260.3526700000001 70.863731 262.2286330000001 69.103472 C 264.3022740000001 67.15772799999999 267.6136610000001 64.734124 270.28306300000014 63.711921 Z &#10;" opacity=".35" fill="#754123" mix-blend-mode="multiply" stroke-width="0px" /><path d="M 255.306654 151.607602 C 261.108656 155.60456100000002 268.000095 157.820479 274.973515 158.825624 C 281.946935 159.830769 289.035725 159.672306 296.068308 159.246072 C 299.138059 159.060019 302.21844600000003 158.821374 305.216731 158.137066 C 307.885952 157.527861 310.46155 156.57196100000002 313.028129 155.618784 C 317.562036 153.934978 322.11344299999996 152.243301 326.366003 149.93955300000002 C 332.835017 146.43508100000003 338.5197 141.545353 343.16198399999996 135.83758100000003 C 341.24031299999996 143.30298900000003 335.93443299999996 149.82665200000002 329.017097 153.22894500000004 C 325.926184 154.74921100000003 322.57758099999995 155.65889100000004 319.354972 156.87533600000003 C 314.65211899999997 158.65053100000003 310.21358899999996 161.08116000000004 305.480188 162.77321700000005 C 300.322277 164.61702500000004 294.892984 165.55664200000004 289.495204 166.48811300000006 C 283.639465 167.49861000000004 277.676998 168.51209600000004 271.784233 167.74652100000006 C 267.437103 167.18175100000005 262.79637899999994 165.57278800000006 259.368004 162.69258500000007 C 256.478046 160.26471000000006 255.26736499999998 155.95177900000007 255.30665399999998 151.60760300000007 Z &#10;" fill="#754123" mix-blend-mode="multiply" stroke-width="0px" opacity=".25" /><path d="M 65.684286 53.312517 C 99.00124199999999 30.389378999999998 152.27532 16.740425000000002 166.37927100000002 74.664031 C 180.48322100000001 132.587637 138.04375800000003 176.934463 149.90658000000002 229.500012 C 143.46202200000002 197.1676 165.12678800000003 169.67831999999999 176.67195 140.81878899999998 C 182.343771 126.71128899999998 201.47895300000002 57.895998999999975 169.777769 28.889147999999977 C 154.728102 6.851317999999978 86.082391 8.437993999999978 65.684286 53.312515999999974 Z &#10;" stroke-width="0px" opacity=".66" fill="#d8b58e" /><g opacity=".66"><path d="M 281.244585 54.02389 C 275.397515 51.429974 270.057323 54.584416000000004 265.22226099999995 57.949348 C 262.80967899999996 59.622761 260.7022309999999 61.452926 258.72646599999996 63.67588 C 256.63138 66.018048 254.94256799999997 68.547632 253.22920899999997 71.317152 C 252.11563399999997 64.33045499999999 256.22682599999996 57.17309699999999 261.95732499999997 53.27905799999999 C 264.89748699999996 51.271176999999994 268.22209899999996 49.64665099999999 271.895445 49.40645099999999 C 275.472942 49.13356299999999 279.725907 50.64514399999999 281.24458599999997 54.02388999999999 L 281.24458599999997 54.02388999999999 Z &#10;" stroke-width="0px" fill="#d8b58e" /></g><g opacity=".66"><path d="M 237.266853 81.885864 C 255.868652 74.857362 278.942804 75.35302 297.633285 81.885577 C 287.47229 82.882158 277.51764000000003 82.55026 267.421192 82.54281399999999 C 258.44338500000003 82.37695099999999 246.19144400000002 82.59456399999999 237.26685300000003 81.88586299999999 L 237.26685300000003 81.88586299999999 Z &#10;" stroke-width="0px" fill="#d8b58e" /></g><path d="M 267.714232 89.846338 C 267.952636 84.638265 274.641015 81.920097 278.848366 84.573532 C 279.435389 84.96664 280.015868 85.470652 280.266892 86.17252500000001 C 278.984206 86.19605200000001 277.984892 86.512578 276.82743999999997 86.78545500000001 C 275.97002299999997 87.00865000000002 274.69537699999995 87.29155200000001 273.86906799999997 87.53543200000001 C 272.23155799999995 87.97090400000002 269.369495 89.19399500000002 267.714232 89.84633800000002 L 267.714232 89.84633800000002 Z &#10;" stroke-width="0px" /><g opacity=".66"><path d="M 215.963452 137.625468 C 217.018134 145.13612600000002 219.234276 153.105164 218.045063 160.69033000000002 C 217.45338 164.57844300000002 216.535462 168.42073200000002 215.282284 172.139608 C 213.887141 176.05268800000002 211.453531 179.655963 208.507452 182.526893 C 205.681722 185.365294 202.361455 187.42853300000002 199.116007 189.659637 C 194.541299 192.82251200000002 190.134897 196.306285 185.860779 199.890417 C 181.75802900000002 203.437799 176.822904 206.89927600000001 172.756528 210.542293 C 174.468476 202.685057 180.784265 197.030578 186.67065 192.05606 C 191.01319 188.32293 195.77702399999998 184.975472 200.566871 181.830459 C 204.874361 178.879992 208.62313799999998 175.121785 210.71628099999998 170.31584099999998 C 212.105046 166.94669999999996 213.33248099999997 163.42934999999997 214.29560199999997 159.92771899999997 C 216.36288999999996 152.62224599999996 215.17069299999997 145.10934599999996 215.96345099999996 137.62546699999996 L 215.96345099999996 137.62546699999996 Z &#10;" stroke-width="0px" fill="#d8b58e" /></g><g opacity=".66"><path d="M 182.463468 312.228436 C 179.430486 324.120146 175.492718 336.811849 172.561431 348.66929799999997 C 171.525962 352.72813899999994 170.57374 356.734986 169.749547 361.060864 C 169.371372 360.03471199999996 169.000503 358.96367899999996 168.8015 357.88255799999996 C 165.941621 343.098329 172.045962 323.08409699999993 182.463468 312.228436 L 182.463468 312.228436 Z &#10;" stroke-width="0px" fill="#d8b58e" /></g><g opacity=".66"><path d="M 313.699108 277.941312 C 324.48879400000004 290.90794 350.28055400000005 317.66986599999996 345.90790400000003 335.254729 C 345.39258400000006 332.455413 344.51603200000005 329.923345 343.324972 327.509043 C 339.717486 320.192332 334.742478 313.840814 330.051145 307.10129600000005 C 323.714786 298.01594300000005 317.146275 288.66160400000007 313.699108 277.94131200000004 L 313.699108 277.94131200000004 Z &#10;" stroke-width="0px" fill="#d8b58e" /></g><path d="M 211.45211 386.820033 C 203.547783 391.37336400000004 192.013463 397.408764 192.013463 397.408764 L 204.023987 385.727996 L 211.45211 386.820033 Z &#10;" fill="#754123" mix-blend-mode="multiply" stroke-width="0px" opacity=".25" /><path d="M 173.773143 404.181824 C 173.639023 408.607784 177.595563 410.954884 181.216803 408.071304 C 181.89179 409.339487 180.613263 413.234924 180.613263 413.234924 L 181.932832 417.529765 L 173.169603 412.433174 L 173.773143 404.181824 Z &#10;" fill="#754123" mix-blend-mode="multiply" stroke-width="0px" opacity=".25" /><path d="M 282.37731 91.640113 L 282.37691900000004 91.639504 L 282.37687600000004 91.639504 C 281.53902800000003 90.368599 280.00845400000003 89.636863 278.40925500000003 89.89957700000001 C 276.240271 90.255921 274.770798 92.30305000000001 275.12709800000005 94.47207800000001 C 275.254563 95.24808500000002 275.60112200000003 95.93198400000001 276.08962700000006 96.47732800000001 L 276.08827900000006 96.47837200000001 C 281.64461800000004 105.40293100000001 278.87210200000004 117.269654 278.87210200000004 117.269654 L 286.726759 115.979353 C 288.780368 102.624587 283.231509 93.02730600000001 282.465635 91.78119000000001 C 282.436976 91.733483 282.407795 91.686429 282.37731 91.64011400000001 Z &#10;" stroke-width="0px" /><path d="M 328.151301 83.821247 C 328.12246799999997 83.773236 328.09307 83.725833 328.062367 83.679214 L 328.062237 83.678997 L 328.062237 83.678997 C 327.22434599999997 82.408092 325.69377199999997 81.676356 324.09457299999997 81.93907 C 321.92558899999995 82.29537 320.45611599999995 84.342543 320.812416 86.511527 C 320.93988099999996 87.28753400000001 321.28643999999997 87.971476 321.774945 88.51682100000001 L 321.773597 88.517865 C 327.329979 97.442424 324.55742 109.309147 324.55742 109.309147 L 332.41207699999995 108.018846 C 334.4654689999999 94.665863 328.91826199999997 85.069409 328.15130099999993 83.821248 Z &#10;" stroke-width="0px" /><circle cx="278.957965" cy="93.983756" r="2.722138" stroke-width="0px" fill="#fff" /><circle cx="324.761909" cy="86.180311" r="2.722138" stroke-width="0px" fill="#fff" /><path d="M 294.580459 212.086797 C 280.661061 195.036979 253.977222 193.600126 243.82332100000002 214.87758599999998 C 240.92700100000002 220.81935499999997 239.788879 227.66399699999997 240.79372100000003 234.19368999999998 L 236.32846500000002 231.78819099999998 C 238.20275200000003 231.05736 242.07219700000002 229.47687799999997 243.91647300000002 228.75272999999999 C 243.91644300000002 228.75270099999997 244.88833900000003 231.89657499999998 244.88833900000003 231.89657499999998 C 246.19481400000004 236.093395 247.28322700000004 240.35746699999999 248.11886700000002 244.670967 C 248.118883 244.670963 243.81292600000003 243.29071 243.81292600000003 243.29071 C 245.64028500000003 241.830152 247.82480500000003 240.91038799999998 250.07184700000002 240.59291199999998 L 252.831418 240.202993 L 252.85519100000002 242.758245 C 252.88926 246.430092 252.622138 250.09725899999998 251.987748 253.69123399999998 L 249.710756 251.99163299999998 C 252.440023 251.08488199999996 255.25983200000002 250.93728199999998 258.046377 251.17731099999997 C 257.91168 251.96529399999997 257.070872 256.549495 256.918187 257.42524899999995 C 256.600621 259.13143599999995 256.260292 260.83485899999994 255.896877 262.53414499999997 C 255.735649 259.55729899999994 255.659582 255.16138999999995 255.612733 252.12899199999995 C 255.61270399999998 252.12893799999995 256.750077 253.33669499999996 256.750077 253.33669499999996 C 253.82906599999998 253.57729799999996 251.123721 254.90224899999996 248.63182199999997 256.27271399999995 C 248.63178599999998 256.27259999999995 248.68682099999998 253.36318299999996 248.68682099999998 253.36318299999996 C 248.75215099999997 249.90669999999997 248.577127 246.46575299999995 248.14583899999997 243.06879599999996 L 250.92899599999996 245.23394199999996 C 248.26724899999996 245.73075899999995 246.06743099999994 248.58333799999997 244.24179899999996 250.32596699999996 C 242.72363099999995 244.87410699999995 241.00420499999996 239.19973099999996 238.97176499999995 233.93696299999996 C 238.97179099999994 233.93695999999997 243.16112799999996 235.79361499999996 243.16112799999996 235.79361499999996 C 241.20243799999997 236.69295799999995 237.17641499999996 238.52110999999996 235.22799799999996 239.41416999999996 C 235.22796899999994 239.41417099999995 234.41368799999995 235.34239099999996 234.41368799999995 235.34239099999996 C 231.17622999999995 219.51611299999996 239.61268899999996 201.35627399999996 255.11798599999995 195.60254399999997 C 269.91590299999996 189.92660699999996 288.17741099999995 198.02930999999995 294.58045899999996 212.08679999999995 L 294.58045899999996 212.08679999999995 Z &#10;" stroke-width="0px" fill="#eeddcf" /><path d="M 299.20552 207.669428 C 301.14797599999997 195.940715 305.05568999999997 195.159173 305.05568999999997 195.159173 L 312.071598 203.03494500000002 L 315.73677399999997 199.848429 L 353.381083 191.121202 L 355.465197 191.121202 L 358.855928 189.558116 L 360.805739 191.77267600000002 L 357.809825 179.788832 C 357.809825 179.788832 366.146281 184.999117 367.448852 183.696546 C 368.751423 182.393975 376.957622 163.38891 388.159735 154.460059 L 371.430497 190.89435600000002 L 364.506772 188.96663300000003 L 362.499081 199.19714400000004 L 359.316605 195.68828000000005 L 352.355486 207.15379400000006 L 347.649769 198.80637300000006 L 326.824336 208.26931300000007 L 319.014994 218.16933400000008 L 314.259681 212.7438850000001 L 312.071596 218.1693340000001 L 307.598799 209.5281320000001 L 304.143889 220.03828500000012 L 299.205519 207.66943000000012 Z &#10;" fill="#754123" mix-blend-mode="multiply" stroke-width="0px" opacity=".25" /><path d="M 256.502347 158.589484 C 255.30303899999998 175.229832 273.663723 175.229832 289.555092 173.015461 C 289.555092 173.015461 292.052779 174.448289 299.20552 174.708804 C 306.35826099999997 174.969318 311.844053 172.233919 320.75917 172.754947 C 329.674287 173.27597599999999 337.00568499999997 173.145718 337.00568499999997 173.145718 C 337.00568499999997 173.145718 325.960497 169.75271099999998 325.506059 169.40321899999998 C 325.051621 169.05372699999998 288.513035 168.01506099999997 288.513035 168.01506099999997 L 270.17529 168.01506099999997 L 261.81032500000003 164.80926199999996 L 256.50234700000004 158.58948399999997 Z &#10;" fill="#754123" mix-blend-mode="multiply" stroke-width="0px" opacity=".25" /><path d="M 395.193621 150.350721 C 404.70239100000003 150.480978 411.345505 151.783549 414.73219 145.270693 C 416.467422 148.248975 416.148846 149.388134 416.148846 149.388134 L 409.26139 155.56100600000002 L 399.512854 154.05616600000002 L 395.19362 150.35072100000002 Z &#10;" fill="#754123" mix-blend-mode="multiply" stroke-width="0px" opacity=".25" /><path d="M 347.259332 173.215146 C 363.257073 174.192074 374.600064 162.780582 384.38228 151.926321 C 395.193621 139.930151 409.131134 137.420961 414.73219 145.270693 C 418.949554 151.181217 415.262437 140.341738 415.262437 140.341738 L 408.80549099999996 135.83758 L 395.19362099999995 137.42096 L 383.6007369999999 146.508135 L 374.59206099999994 156.70923200000001 L 363.67139699999996 166.657914 L 347.259332 173.215145 Z &#10;" stroke-width="0px" fill="#d8b58e" /><path d="M 417.760375 140.598353 C 416.680488 138.087178 413.78074300000003 133.855482 406.497929 133.728437 L 406.393184 133.72573400000002 L 406.28843900000004 133.735195 C 391.62414800000005 134.934018 385.96994800000004 141.193035 378.812152 149.114455 C 376.056346 152.164898 372.933596 155.622157 368.91274200000004 159.194297 C 355.35469200000006 171.23523500000002 342.76502600000003 170.085068 327.66283300000003 167.31845 C 316.99912200000006 165.646586 314.33724900000004 165.716866 307.224054 165.91013700000002 C 305.514431 165.95541400000002 303.53078100000005 166.008124 301.106781 166.04664300000002 C 300.484985 166.03920900000003 300.071158 166.03853400000003 300.071158 166.03853400000003 C 323.903673 160.07415400000002 337.34886800000004 152.00879400000002 343.28841300000005 141.22749900000002 C 347.39036000000004 133.78249900000003 346.078767 127.06125300000002 344.27065000000005 122.77144100000002 C 334.22586400000006 93.57733700000003 311.39636600000006 81.87901700000003 294.01360600000004 77.20536500000003 C 293.06228500000003 76.94992300000003 292.05842300000006 76.69988600000003 290.88604000000004 76.42754900000003 C 290.59114900000003 59.702147000000025 285.74610400000006 52.484883000000025 281.71156600000006 49.37497200000003 C 278.37079400000005 46.80027400000003 274.35897800000004 46.030567000000026 270.1108950000001 47.14829700000003 C 261.8493910000001 49.321586000000025 253.59092900000007 54.21959400000003 249.09314700000007 75.07870400000003 C 247.67081200000007 75.31725200000002 242.87754900000007 76.29982700000004 236.00864600000008 79.49894000000003 C 234.9973510000001 75.66730300000003 233.6194480000001 71.92689500000003 231.9438670000001 68.53856500000003 C 229.2830080000001 63.158730000000034 224.6728790000001 56.207045000000036 217.8217150000001 53.64383500000004 C 213.3661690000001 51.97737700000004 206.3948870000001 51.69895800000004 198.4883330000001 59.83527500000004 C 185.82230500000009 72.86689700000004 195.44599900000009 95.47220600000003 203.9367590000001 115.41631900000004 C 206.1951950000001 120.72181900000004 208.5277970000001 126.20031700000004 210.1168790000001 130.96317100000005 L 210.1080940000001 130.96655000000004 L 210.2962970000001 131.52068500000004 C 217.6755780000001 153.25965200000005 211.5432690000001 173.03414500000005 194.2944800000001 183.12547500000005 C 193.24196200000011 183.73502300000004 192.2992580000001 184.32902800000005 191.41331800000012 184.94195500000006 C 182.0389840000001 191.42397700000006 175.1165260000001 198.80545500000005 170.83195100000012 206.88500600000006 C 168.77641600000013 206.90122500000007 166.23263500000013 207.40197300000005 165.00914600000013 209.52795700000007 L 164.25802300000012 210.83422800000008 L 165.28874700000011 211.93371200000007 C 165.9810770000001 212.67165700000007 166.1897220000001 214.36514600000007 166.1610020000001 215.69236600000008 L 163.0088550000001 218.70158700000007 L 163.6302290000001 222.49403000000007 L 158.8852830000001 222.49403000000007 L 159.2953090000001 224.87410500000007 C 160.50578900000008 231.89336700000007 166.0167240000001 237.83409500000008 167.85212600000008 239.64652000000007 C 170.1632720000001 246.44480400000006 174.2392020000001 252.11860100000007 179.6051840000001 256.0299800000001 C 183.2030040000001 259.15746100000007 187.2812990000001 262.7018950000001 189.3846450000001 267.0680690000001 C 189.8090310000001 267.9486020000001 190.1327270000001 268.8298110000001 190.35201500000008 269.6981810000001 C 188.8989320000001 269.2758220000001 187.50261500000008 268.9724000000001 186.18857300000008 268.7953470000001 C 172.7922020000001 264.7751690000001 163.04534800000008 257.2240720000001 157.21967100000006 246.3508720000001 C 150.03433700000005 232.9408170000001 149.23354500000005 214.3996110000001 155.02188600000005 195.4806480000001 C 157.31039400000006 188.00050800000008 161.18730800000006 179.63104900000008 165.68019000000004 169.93369500000009 C 178.72583400000005 141.7721730000001 196.59278700000004 103.20373500000008 187.26271600000004 54.54937300000009 C 183.97727300000005 37.49419400000009 174.07532800000004 24.87682100000009 158.62815300000005 18.060291000000085 C 138.26573700000006 9.076554000000085 110.10066700000004 11.908722000000084 88.54263900000005 25.108612000000086 C 52.98207000000005 46.88407100000009 46.759038000000054 86.17085700000008 61.287330000000054 111.57319400000009 L 63.10482400000005 114.75068200000008 L 64.84325200000005 111.52926800000009 C 69.51808600000005 102.86719900000008 77.83466500000004 93.02455400000008 85.87569800000006 93.82129100000009 C 88.14528400000006 94.04091700000009 89.77626400000005 95.22419700000009 90.35016500000006 97.06770800000008 C 91.38866000000006 100.40332700000008 89.09407000000006 104.85667700000008 84.24201500000007 108.95727200000007 C 60.72272200000006 126.47130200000008 40.861730000000065 154.48685600000007 28.317678000000065 187.84372700000006 C 15.701319000000066 221.39319300000005 11.668132000000064 257.30921900000004 16.960624000000067 288.97597900000005 C 20.861866000000067 312.31720600000006 29.548938000000067 332.53568200000007 42.78058900000006 349.07051600000005 C 57.36716600000006 367.29748700000005 77.10178900000005 380.47102100000006 101.43353100000007 388.22552600000006 C 111.73181700000008 391.5530360000001 122.75064700000007 393.2411190000001 134.18406400000006 393.2411190000001 C 160.36421700000005 393.2411190000001 181.47099800000007 384.5148520000001 187.76650700000005 381.6083490000001 C 191.29995900000006 383.6599980000001 195.07871700000004 385.3109140000001 199.00395000000006 386.5158180000001 C 199.53172900000007 386.6780040000001 200.19838000000007 386.8259980000001 200.94730700000005 386.9577740000001 C 197.51691000000005 392.0585150000001 191.75053200000005 395.6563340000001 185.65066000000004 396.3462990000001 C 184.89142800000005 396.4327980000001 184.11124700000005 396.4821300000001 183.26450300000005 396.5368670000001 C 180.23230600000005 396.73216600000006 177.09705300000005 396.9335460000001 174.41423100000006 398.8831540000001 C 172.42745600000006 400.3266070000001 171.10429100000005 402.5843670000001 170.68835200000007 405.2401580000001 C 170.19317900000007 408.4021040000001 171.01339900000008 411.81543700000014 172.88208300000008 414.3705380000001 C 175.5894020000001 418.0697240000001 180.2471730000001 420.5653560000001 186.3527890000001 421.5857750000001 C 188.22738600000008 421.8986580000001 190.05332600000008 422.05746500000015 191.7806040000001 422.05746500000015 C 193.6511460000001 422.05746500000015 195.44312900000008 421.87162700000016 197.1072220000001 421.50603400000017 C 204.0455610000001 419.9821640000002 210.4941320000001 414.93007900000015 214.79948700000008 407.6465890000002 C 218.5306030000001 401.33486200000016 220.99278500000008 391.8665950000002 222.4279600000001 384.84327800000017 L 223.9645010000001 382.8342020000002 C 234.0252520000001 368.8396020000002 240.6370230000001 360.43567900000016 243.6161720000001 357.85625100000016 C 260.5150780000001 343.2243970000002 277.3269790000001 340.38817400000016 284.5043730000001 342.05260500000014 C 288.8106570000001 343.0520740000001 289.7526860000001 351.79456000000016 290.5842250000001 359.50987000000015 C 291.0264340000001 363.61587200000014 291.4421200000001 367.4164230000001 292.3607500000001 370.29386800000015 C 293.76331900000014 377.2651510000002 295.59263800000014 384.59932400000014 299.4107600000001 391.05904500000014 C 303.7160300000001 398.34388700000017 310.1647710000001 403.39529600000014 317.1031940000001 404.91916600000013 C 318.7668650000001 405.2847600000001 320.5580030000001 405.4699220000001 322.4267710000001 405.4699220000001 C 324.15692100000007 405.4699220000001 325.9841290000001 405.3111150000001 327.85779600000006 404.9982320000001 C 333.96375000000006 403.9778140000001 338.62160600000004 401.4828570000001 341.3282490000001 397.7836710000001 C 343.19727000000006 395.2292460000001 344.0174060000001 391.8159130000001 343.5223180000001 388.6539670000001 C 343.1063790000001 385.99750000000006 341.7830450000001 383.7397400000001 339.7960170000001 382.29628700000006 C 337.11361700000015 380.34735500000005 333.97819600000014 380.1452990000001 330.89050100000014 379.94594600000005 C 330.07686900000016 379.89323600000006 329.30809200000016 379.84390400000007 328.5591660000001 379.75875700000006 C 323.39980200000014 379.17556400000007 318.5066930000001 376.56302300000004 315.0148850000001 372.63001900000006 C 321.7270080000001 370.2580530000001 328.1404400000001 366.7845760000001 332.1874800000001 363.27325500000006 C 340.2971030000001 356.23709800000006 349.3670020000001 342.7601410000001 349.3670020000001 335.25499700000006 C 349.3670020000001 323.04444000000007 339.6832480000001 309.74318400000004 330.3183750000001 296.8805060000001 L 329.82345500000014 297.2359630000001 L 330.31584100000015 296.8771270000001 L 330.3119550000001 296.8717210000001 C 326.2317170000001 291.2682050000001 322.0303470000001 285.4977720000001 318.7822400000001 279.9834580000001 C 318.7944880000001 279.9915670000001 318.8074970000001 279.9969730000001 318.8197450000001 280.00508300000007 C 314.24830400000013 272.5060210000001 312.42819200000014 267.71546100000006 311.6694670000001 265.80437200000006 C 311.6043390000001 265.64015900000004 311.6009600000001 265.49621900000005 311.6232610000001 265.36376700000005 C 311.56210300000015 265.20496 315.0868550000001 247.76526600000005 315.0868550000001 247.76526600000005 L 311.9669760000001 251.19954800000005 C 314.85193900000013 241.86170600000005 315.5408060000001 229.45247100000006 315.5364130000001 229.37273000000005 C 315.2219250000001 230.08702300000004 311.9675670000001 233.20774600000004 311.9675670000001 233.20774600000004 C 312.2883060000001 231.53047500000005 312.61157900000006 229.78697900000003 312.5790580000001 227.54881600000004 L 312.5374980000001 224.70178100000004 C 312.5249960000001 224.53486500000005 312.5083550000001 224.36794900000004 312.4943330000001 224.20035700000005 C 312.4917140000001 224.18751700000004 312.4870680000001 224.17400200000006 312.4840270000001 224.16116200000005 C 312.47507300000007 224.15643200000005 312.4659500000001 224.15102500000006 312.45699600000006 224.14561900000004 L 309.53697700000004 225.81207700000004 C 308.64360400000004 226.32228600000005 308.02476400000006 226.46757800000003 307.79272000000003 226.46757800000003 C 307.723538 226.30268900000004 307.64295200000004 225.98304800000003 307.60477000000003 225.83167500000002 C 307.60477000000003 225.83167500000002 307.25590200000005 224.55311100000003 306.74341200000003 222.77042000000003 L 308.41274200000004 213.93873200000002 L 315.294147 224.31456300000002 L 315.90301900000003 217.820377 L 319.42244900000003 221.835825 L 320.868605 219.177331 C 321.236902 218.50020600000002 321.555191 217.847408 321.866047 217.20677500000002 C 323.962973 212.88722900000002 325.784859 209.13263000000003 346.92711799999995 201.19499100000002 C 347.36501899999996 205.70916000000003 349.96809999999994 209.663788 350.10595799999993 209.87057500000003 L 352.62794599999995 213.64815100000004 L 353.88893999999993 209.28535500000004 C 355.27089699999993 204.50628300000002 357.71111699999994 200.89359600000003 359.2856699999999 198.91493000000003 C 359.97968999999995 200.16646300000002 359.94792799999993 201.25445900000003 359.94657699999993 201.29770800000003 L 359.31067399999995 210.41119300000003 L 363.879581 202.50058500000003 C 366.106931 198.64462000000003 366.80433 195.22790700000002 366.92732099999995 192.71402900000004 C 368.3295519999999 193.17355500000005 370.03520499999996 193.39656100000005 371.91655899999995 192.94919800000005 L 372.91062199999993 192.71402900000004 L 373.34311699999995 191.78821900000003 C 375.03390299999995 188.167423 376.59899499999995 184.44526100000002 378.11205299999995 180.84744100000003 C 383.08574799999997 169.01734500000003 387.79116099999993 157.82517900000002 395.17804499999994 154.83690700000002 C 407.87245599999994 159.64436200000003 413.2387759999999 156.33036700000002 416.81091599999996 152.42709800000003 C 418.79363599999994 150.25786400000004 419.649166 144.98818000000003 417.76037799999995 140.59835300000003 Z M 252.805173 77.20604 C 257.337757 54.714936 266.320142 52.351755 271.14626499999997 51.081976 C 272.046818 50.844778999999996 272.930054 50.727194999999995 273.78820299999995 50.727194999999995 C 275.7709229999999 50.727194999999995 277.61857299999997 51.356339999999996 279.227675 52.596385 C 283.77656199999996 56.103651 286.45296399999995 64.241995 286.792034 75.559855 C 282.630028 74.765821 278.361418 74.208307 274.092555 73.902182 C 263.819442 73.164913 256.206512 76.706643 255.887547 76.85801699999999 L 252.55733400000003 78.435949 L 252.80517400000002 77.206041 Z M 102.677124 384.351314 C 79.11694600000001 376.843467 60.033432000000005 364.117971 45.95706400000001 346.528254 C 33.16399000000001 330.542149 24.75820900000001 310.952818 20.97286200000001 288.305611 C 15.79626600000001 257.334898 19.75714500000001 222.16492599999998 32.12532600000001 189.275691 C 44.40430500000001 156.622977 63.78820100000001 129.248056 86.720416 112.183416 L 86.801847 112.11854199999999 C 92.99970599999999 106.89683799999999 95.778488 100.818253 94.23451399999999 95.85807299999999 C 93.16594699999999 92.42649399999999 90.188149 90.151839 86.268323 89.772054 C 85.84664 89.73083199999999 85.42664699999999 89.71123399999999 85.006653 89.71123399999999 C 76.458452 89.71123399999999 68.280576 98.006357 63.126111 106.36027299999999 C 54.717458 89.191564 57.730733 73.21694699999999 61.799905 62.75867199999999 C 67.15693300000001 48.989780999999994 77.678562 36.53121499999999 90.667272 28.57803299999999 C 111.13815 16.04378099999999 137.78965499999998 13.312978999999991 156.98585400000002 21.78312699999999 C 171.157844 28.03606199999999 180.245819 39.63166499999999 183.26771100000002 55.317049999999995 C 192.35095600000002 102.684063 174.80195500000002 140.564563 161.98438400000003 168.23277 C 157.43254100000004 178.057845 153.50173300000003 186.54421299999998 151.13179500000004 194.290608 C 145.02854400000004 214.23809899999998 145.94050100000004 233.913253 153.63384700000003 248.27141899999998 C 158.81872100000004 257.94849999999997 166.85772700000004 265.231314 177.53900700000003 269.93537499999996 C 175.91005400000003 270.78684999999996 174.87105200000002 271.89173999999997 174.25136700000002 272.74862099999996 C 171.37561200000002 276.72825299999994 171.847133 283.18662299999994 175.325341 287.45210699999996 C 178.423426 291.25063199999994 182.97358 292.31227199999995 187.467645 290.30252099999996 C 189.46269800000002 289.531463 191.347262 288.500232 193.09853 287.22234399999996 C 191.359764 290.284951 189.52689700000002 293.41378399999996 187.629324 296.556132 C 179.28723399999998 309.238379 172.440125 324.06282899999997 168.84247399999998 337.232984 C 163.842762 355.532263 166.984434 362.41704599999997 169.301662 364.892406 C 169.66725599999998 365.283679 170.171045 365.89322699999997 170.754576 366.598735 C 173.040381 369.364001 177.208216 374.40459799999996 183.671992 378.976884 C 172.53980099999998 383.71946499999996 138.32469799999998 395.87393199999997 102.677123 384.351313 Z M 312.964162 277.843957 C 313.028192 277.968299 313.09272799999997 278.093993 313.157856 278.22036299999996 C 316.688521 285.071358 321.939537 292.283892 327.026508 299.272068 C 336.00973799999997 311.60967 345.29884 324.367604 345.29884 335.254996 C 345.29884 340.353709 338.261163 352.617652 329.521802 360.20051 C 325.41081699999995 363.767244 318.184345 367.46643 311.111443 369.62485100000004 C 302.785234 372.16711200000003 302.902227 373.04764500000005 302.946406 373.37945 C 302.962371 373.49906200000004 303.02749900000003 373.72544600000003 303.28496900000005 373.890335 C 304.074357 374.39649 307.956086 374.322154 310.752354 373.857898 C 314.936661 379.35058699999996 321.32736900000003 383.035582 328.102593 383.80123399999997 C 328.964205 383.89854499999996 329.836291 383.95530999999994 330.685569 384.009372 C 333.251989 384.174937 335.675905 384.331716 337.40461899999997 385.58730399999996 C 338.82222299999995 386.61718299999995 339.32820899999996 388.16605699999997 339.50289699999996 389.28378699999996 C 339.829887 391.36990099999997 339.271107 393.70605099999995 338.044746 395.38196999999997 C 335.43431599999997 398.94937999999996 330.699592 400.398239 327.187511 400.985486 C 323.78574999999995 401.553812 320.68648299999995 401.54029599999996 317.97629199999994 400.946291 C 312.1357479999999 399.66299699999996 306.64525499999996 395.30493099999995 302.91270299999996 388.989149 C 299.38541699999996 383.021391 297.66405199999997 376.044702 296.32939899999997 369.394412 C 296.32314799999995 369.363326 296.30963299999996 369.336295 296.301946 369.305886 C 296.16256799999996 368.674713 296.03560699999997 368.170586 295.918867 367.709033 C 295.75262699999996 367.05150499999996 295.609194 366.48385499999995 295.48028999999997 365.731719 C 295.11790599999995 363.61451999999997 294.857987 361.202683 294.628562 359.074671 C 293.877946 352.103388 293.030019 344.23265100000003 289.319261 340.342221 C 292.784207 335.689518 302.817927 320.331883 307.613387 293.245518 C 308.506253 289.132083 309.691307 286.20801 310.945965 283.11161400000003 C 311.579334 281.54854900000004 312.281463 279.81654100000003 312.964163 277.84395700000005 Z M 308.31221999999997 230.49991999999997 C 308.211868 231.18988499999998 308.083555 231.86025299999997 307.94958299999996 232.56035399999996 C 307.621833 234.27411599999996 307.28284799999994 236.04531899999995 307.31596099999996 238.33416499999996 L 307.38125799999995 242.81657299999995 L 309.84605799999997 240.59530499999994 C 309.561473 243.06187899999995 309.00809799999996 245.54061799999994 308.469676 247.95177899999993 L 304.578148 265.3820129999999 L 307.888173 261.7389159999999 L 307.009583 266.8653359999999 L 310.18462200000005 273.4108809999999 C 309.33965100000006 276.2018269999999 308.07105500000006 279.3739089999999 307.17565500000006 281.5836889999999 C 305.97877500000004 284.53682099999986 304.84398200000004 287.33722699999987 303.9267040000001 291.1195329999999 L 303.8488210000001 291.0769589999999 L 303.7017560000001 291.9176219999999 C 303.6541980000001 292.1906349999999 303.6042760000001 292.4582409999999 303.5542680000001 292.7251719999999 L 303.4771450000001 293.14144899999985 C 303.3756940000001 293.64489999999984 303.2793120000001 294.16997699999985 303.18816700000013 294.69640499999986 C 300.60840100000013 307.9969849999999 296.80615900000015 317.90585599999986 294.07054200000016 323.87631799999986 C 290.60517400000015 331.43957799999987 287.31390200000016 336.21662299999986 285.82905800000015 338.19731599999983 C 285.6893420000001 338.1560939999998 285.55613000000017 338.1202779999998 285.42418500000014 338.08986799999985 C 278.5169320000001 336.48625699999985 265.3299670000001 338.08108299999986 250.46192900000014 347.6486879999999 C 257.17793800000015 321.8469689999999 247.34238800000014 289.31048699999985 239.40610100000015 263.06005399999987 C 233.83721800000015 244.63845999999987 229.02790500000015 228.72939299999987 230.62357600000016 219.05906999999985 C 234.34235900000016 196.52606799999984 251.57594300000017 191.78281199999986 265.37777800000015 191.77267499999985 L 265.43910400000016 191.77267499999985 C 272.83553300000017 191.77267499999985 283.6349050000002 192.80728499999984 291.9879760000002 201.75588099999985 C 296.1091830000002 206.17003499999984 299.3931900000002 212.26416399999985 301.74843000000016 219.86864599999984 L 302.28389600000014 221.59727499999985 L 302.3171780000001 221.50536999999986 L 303.66044700000015 226.82911599999986 C 303.82939000000016 227.49745599999986 304.0844950000002 228.50773799999985 304.87253200000015 229.33353399999984 C 305.3966790000002 229.88226199999986 306.49388200000016 230.68710899999985 308.31222100000014 230.49991999999983 Z M 413.69559599999997 149.57803499999997 C 411.80816 151.64319999999998 408.290757 155.48294599999997 395.97477999999995 150.62007799999998 L 395.26521799999995 150.33895599999997 L 394.54078799999996 150.57682799999998 C 384.93195999999995 153.73539499999998 379.729178 166.11016499999997 374.22094599999997 179.210715 C 372.868723 182.42604699999998 371.47527699999995 185.741393 369.99803599999996 188.964834 C 367.749737 189.029708 365.969073 187.442991 365.95893599999994 187.434882 L 360.28311199999996 182.067886 L 362.48748599999993 189.58113899999998 C 362.52735699999994 189.71629399999998 363.18691199999995 192.07339299999998 362.21109499999994 195.69283699999997 C 361.79616999999996 195.14410899999996 361.2933939999999 194.60078699999997 360.68519799999996 194.08179199999998 L 359.23295999999993 192.84512599999996 L 357.85573299999993 194.16558799999996 C 357.67665299999993 194.33723499999996 354.27548299999995 197.64447199999995 351.64537199999995 203.29258899999996 C 351.1757089999999 201.80318399999996 350.89458699999994 200.11239699999996 351.2216619999999 198.55811799999995 L 352.00353199999995 194.84271399999994 L 348.43612199999995 196.13884799999994 C 324.41641799999996 204.86308799999995 321.00916699999993 209.45970099999994 318.53245599999997 214.41717799999995 L 312.61605599999996 207.66754899999995 L 312.20721299999997 212.02358699999996 L 306.19214999999997 202.95335099999997 L 304.06109699999996 214.23066399999996 C 303.793322 213.49407099999996 303.538977 212.84465199999997 303.31546499999996 212.36485299999995 C 301.05745099999996 207.00123599999995 298.24902 202.50058299999995 294.96163399999995 198.97912599999995 C 285.52698699999996 188.87292899999994 273.59484899999995 187.70451599999996 265.44028699999996 187.70451599999996 L 265.37456799999995 187.70451599999996 C 259.39650399999994 187.70924599999995 250.65604599999995 188.63843499999996 242.96624699999995 193.04042599999997 C 234.04704599999997 198.14589699999996 228.54371399999997 206.67686599999996 226.60931099999996 218.39681099999996 C 224.85973299999995 229.00375699999995 229.79693599999996 245.33382999999995 235.51415099999997 264.24333299999995 C 243.86451899999997 291.86491099999995 254.25217599999996 326.22733299999993 245.02144399999997 351.47424199999995 C 243.606712 352.55547999999993 242.23860699999997 353.66780399999993 240.95260999999996 354.78080299999993 C 237.76633699999996 357.53931199999994 231.43264699999997 365.51682099999994 221.62750699999998 379.1208239999999 C 220.47666399999997 380.4223639999999 219.63127099999997 381.6657879999999 219.13052299999998 382.4672559999999 C 218.87305299999997 382.71458899999993 218.68518799999998 383.0328789999999 218.585849 383.3964449999999 L 218.266546 383.9965319999999 L 218.43684100000002 384.05464899999987 C 217.06502 390.7657589999999 214.74002000000002 399.75287399999985 211.29762900000003 405.57669299999986 C 207.56448600000002 411.8917989999999 202.07399200000003 416.2498639999999 196.23412400000004 417.53315899999984 C 193.52444000000003 418.1278399999998 190.42567900000003 418.14135499999986 187.02315800000002 417.57302999999985 C 183.51149900000001 416.98645799999986 178.77736600000003 415.53759899999983 176.16583800000004 411.96883799999983 C 174.93930900000004 410.2929189999998 174.38078200000004 407.95541699999984 174.70734900000005 405.86997899999983 C 174.88254300000006 404.75224899999984 175.38869800000006 403.2040509999998 176.80579600000004 402.1741719999998 C 178.53493200000005 400.91790899999984 180.96011500000003 400.7618049999998 183.52822500000005 400.59691599999985 C 184.32749600000005 400.54555699999986 185.23370900000006 400.4874409999999 186.10782300000005 400.38877799999983 C 194.04073200000005 399.49134999999984 201.49451700000006 394.46494499999983 205.37852700000005 387.4882559999998 C 208.37051600000004 387.7186949999998 211.21805700000004 387.7126129999998 211.73874100000006 387.38283499999983 C 211.91461100000006 387.27065699999986 212.02695900000006 387.10238899999985 212.05500300000006 386.9070899999998 C 212.15484900000007 386.2117189999998 212.17106700000005 386.0583179999998 205.15079100000005 384.0458639999998 C 205.08152400000006 383.9992359999998 205.01462300000006 383.94990399999983 204.93927400000007 383.9120609999998 C 204.62909400000007 383.7552809999998 204.29205200000007 383.6917589999998 203.95433400000007 383.7039229999998 C 202.49990000000008 383.2896739999998 201.13196500000006 382.8990759999998 200.14297000000008 382.5929509999998 C 185.50875000000008 378.0598599999998 177.3665210000001 368.2118089999998 173.88983400000006 364.0071439999998 C 173.26626400000006 363.2523049999998 172.72801000000007 362.6001829999998 172.27135600000005 362.1115979999998 C 169.37836800000005 359.0219599999998 169.53531700000005 349.9348299999998 172.68053700000004 338.3966679999998 C 176.19794000000005 325.4941189999998 182.72659000000004 311.4089659999998 191.07695800000005 298.7159059999998 C 204.66660000000005 276.2031779999998 213.90324500000006 256.36718899999977 217.78843800000004 241.3521709999998 C 218.40710900000005 238.9612829999998 218.89518700000005 236.6454059999998 219.24202700000004 234.4579269999998 L 219.29676500000002 234.4653609999998 L 219.37819600000003 233.8618949999998 C 220.24589000000003 227.43731299999982 220.12627800000004 222.0277439999998 219.96122000000003 218.5177749999998 C 219.569778 210.2017029999998 215.97060700000003 207.7554009999998 215.81754400000003 207.6560629999998 L 214.58391900000004 206.8491889999998 L 214.88869300000005 208.2919659999998 C 214.89409900000004 208.3169699999998 215.39349600000006 210.71123599999981 215.33909600000004 212.7953229999998 C 211.59480200000004 214.1049729999998 205.08760700000005 216.9810659999998 202.08041400000005 219.39965999999978 C 194.17588800000004 225.75396099999978 188.76040600000005 238.5071639999998 195.53824800000004 251.4732359999998 C 197.73282300000002 256.0705249999998 202.38687800000002 267.5701679999998 198.20924400000004 275.03206199999977 C 195.08987200000004 280.7308619999998 190.97204400000004 284.5962889999998 185.95307200000005 286.52764999999977 L 185.86505200000005 286.5641419999998 C 182.22634800000006 288.1995149999998 179.83985300000006 286.5519779999998 178.47816900000004 284.88146499999976 C 176.14658000000003 282.0222659999998 175.72979700000005 277.6486579999998 177.54881100000003 275.13207599999976 C 179.77886500000002 272.0458169999998 184.91170400000004 271.83835399999975 192.00057200000003 274.54685599999976 L 194.69488200000004 275.57673499999976 L 194.76043200000004 272.69253199999974 C 194.81533900000002 270.2597459999997 194.23957900000005 267.77357499999977 193.04920400000003 265.30159399999974 C 190.58094000000003 260.17787699999974 186.14279600000003 256.3212359999997 182.20489300000003 252.90046899999973 L 182.08764600000003 252.80856399999973 C 177.11834300000004 249.19925599999974 173.43807900000004 243.92281399999973 171.44572900000003 237.54823999999974 L 171.21377000000004 236.82854099999975 L 170.94920500000003 236.97991399999975 C 169.77640000000002 235.83920799999976 165.67343900000003 231.60075499999977 163.92622600000004 226.56218499999974 L 168.41944600000005 226.56218499999974 L 167.37030700000005 220.16125599999975 L 170.07407800000004 217.58115199999975 L 170.16040800000005 216.85266799999974 C 170.22764700000005 216.27893599999973 170.48156900000004 213.50082999999975 169.47939700000003 211.08966899999973 C 170.26261900000003 210.91599499999973 171.32561100000004 210.91802199999972 172.21053700000004 211.03020099999972 L 172.45482900000005 212.7547759999997 L 173.14783500000004 211.1707619999997 L 173.28890300000003 211.1917109999997 L 173.40598100000003 210.5895969999997 C 177.16767600000003 202.25122399999972 183.908857 194.72513099999972 192.89698700000002 188.8276529999997 C 193.96808800000002 188.14917599999973 194.96722000000003 187.50786699999972 195.90198400000003 186.90237299999973 L 195.96533800000003 186.86655699999972 C 214.78057000000004 176.0953979999997 221.93312900000004 154.96395199999972 214.63375800000003 131.7254419999997 C 213.04450700000004 126.4226449999997 210.43872300000004 120.3021619999997 207.67987700000003 113.8228419999997 C 199.68547300000003 95.0457909999997 190.62503600000002 73.7622949999997 201.40497900000003 62.670143999999695 C 206.52447200000003 57.402486999999695 211.56827900000002 55.647502999999695 216.39617600000003 57.45384599999969 C 222.51818000000003 59.74404299999969 229.40634200000002 69.02376899999969 232.38785600000003 81.4789559999997 C 233.12613900000002 84.5625119999997 235.70387800000003 91.7622059999997 235.70387800000003 91.7622059999997 C 235.70387800000003 91.7622059999997 237.17807900000003 84.32666699999969 236.37373900000003 80.95252799999969 C 244.02653900000004 80.71668299999969 252.09848900000003 78.60015899999969 252.18194700000004 78.57853499999969 L 252.34970800000005 78.53393399999969 L 251.72073200000005 78.8319499999997 L 256.25787700000006 78.0075059999997 C 256.30754600000006 77.99872099999969 261.3586180000001 77.11751199999969 273.90815900000007 77.98858399999969 C 280.56427800000006 78.46635599999969 286.9734010000001 79.52461799999969 292.95771600000006 81.13431099999968 C 316.65777900000006 87.50618199999968 332.54843100000005 101.72851799999968 340.1962470000001 123.41004399999969 L 340.12934500000006 123.44045399999969 L 340.49215100000004 124.2716559999997 C 340.88367700000003 125.4245259999997 341.22773100000006 126.5104949999997 341.53301200000004 127.54915899999969 C 342.40324000000004 131.56595799999968 341.79512800000003 135.50774699999968 339.72523300000006 139.2650489999997 C 335.6836830000001 146.60057399999968 323.89371100000005 156.8594959999997 290.6790910000001 164.0740569999997 C 290.3440760000001 164.1463649999997 288.9632170000001 164.4991189999997 286.4883640000001 165.1438069999997 C 278.4015480000001 166.80350699999968 271.8038840000001 166.9102799999997 266.8780000000001 165.4627719999997 C 260.7656260000001 163.66588899999968 257.7058910000001 160.0951009999997 257.6800430000001 160.0626639999997 L 256.5023380000001 158.5894769999997 L 256.59610200000014 160.47353399999972 C 256.60809700000016 160.71073099999973 257.3279650000001 166.59874799999972 264.7273500000001 169.10519299999973 C 271.1578450000001 171.28321199999974 280.1550970000001 171.00546899999972 291.2696330000001 168.22263199999972 C 294.42828400000013 169.23831999999973 297.24026300000014 170.24724999999972 301.0360850000001 170.2803629999997 C 301.03752100000014 170.27698399999971 301.0398020000001 170.27225399999972 301.04123800000013 170.2688749999997 C 303.54650000000015 170.2310319999997 305.58252200000015 170.1769699999997 307.33691600000014 170.1296659999997 C 314.35955700000017 169.9377459999997 316.72544100000016 169.8782779999997 326.9559810000001 171.4798619999997 C 342.5960900000001 174.34379099999973 356.7589570000001 175.63722199999972 371.71585900000014 162.3488059999997 C 375.9103870000001 158.62394099999972 379.11625800000013 155.0747769999997 381.94437100000016 151.9445929999997 C 388.9649850000002 144.1745459999997 393.60957800000017 139.0332589999997 406.52631900000017 137.95066899999972 C 410.2146920000002 138.04122299999972 412.68937600000015 139.4927849999997 413.88279300000016 142.26751199999973 C 415.17284500000017 145.26524499999974 414.4950440000002 148.70493299999973 413.6956040000002 149.57803299999972 Z M 203.94182799999996 266.42000099999996 C 203.63603999999995 260.24748299999993 201.26998699999996 254.03712199999995 199.18623899999997 249.67432599999995 L 199.17627099999999 249.65472899999995 C 193.59336599999997 238.97209699999993 197.88520499999998 228.35906899999995 204.61523599999998 222.58052699999996 C 206.66367499999998 220.82081199999996 212.47516099999999 218.21637999999996 215.747596 216.94524899999996 C 216.076698 220.68430499999997 216.24395199999998 226.24186899999995 215.41916999999998 232.73740699999996 L 215.40024799999998 232.84958499999996 C 214.10664799999998 241.61842599999997 210.15523 253.18496999999996 203.941827 266.41999999999996 Z &#10;" stroke-width="0px" fill="#0c0c0c" /><path d="M 324.722211 122.447855 C 327.55163400000004 121.114551 331.232307 119.68415300000001 335.665054 118.680347 C 339.699907 117.76664699999999 343.308911 117.44384099999999 346.243309 117.378417 C 347.014118 117.382432 348.181484 117.501681 349.095333 118.281114 C 351.38307799999995 120.232373 350.408861 124.865852 349.96234499999997 127.33039000000001 C 349.388104 130.499867 345.51876 135.606234 342.17767799999996 137.11300500000002 C 338.63736599999993 138.70962500000002 330.88689999999997 133.57819700000002 330.88689999999997 133.57819700000002 C 330.88689999999997 133.57819700000002 324.189603 129.19362500000003 322.48085799999996 125.57703800000002 C 321.89026099999995 124.32729800000001 323.14802999999995 122.81868900000002 324.72221199999996 122.44785600000002 Z &#10;" stroke-width="0px" /><path d="M 327.636385 126.719153 C 327.46598600000004 126.719153 327.296628 126.64807900000001 327.176189 126.509203 C 326.577266 125.819281 326.781566 124.784696 327.32502800000003 124.183393 C 327.817043 123.63888999999999 328.509047 123.393552 329.014444 123.214231 C 333.90039900000005 121.479018 338.96418600000004 120.126831 344.06484900000004 119.195139 C 336.051304 122.03299 334.24669700000004 122.648614 329.42185400000005 124.362118 C 328.92522900000006 124.538167 328.492987 124.707674 328.22876500000007 124.99999799999999 C 328.03219700000005 125.21767999999999 327.96766500000007 125.56293799999999 328.09598500000004 125.71103399999998 C 328.31649200000004 125.96499699999998 328.289282 126.34950899999998 328.035319 126.57016499999999 C 327.92008400000003 126.67008499999999 327.77778800000004 126.719152 327.636384 126.719152 Z &#10;" stroke-width="0px" fill="#fff" /></g></g></svg>