<?xml version='1.0' encoding='utf-8'?>
<svg viewBox="0 0 432 432" width="216px" height="216px" xmlns="http://www.w3.org/2000/svg" xmlns:xlink="http://www.w3.org/1999/xlink" version="1.1"><g isolation="isolate"><g id="Layer_1"><path d="M 33.480269 381.553847 C 35.147767 388.045634 39.522049 393.536697 46.129894 397.43289300000004 C 52.058984 400.92849900000004 59.283437 402.80602600000003 66.424777 402.681731 C 76.501648 402.51063800000003 117.10919700000001 378.232376 137.069757 348.336134 L 148.818806 360.003848 L 162.293195 367.194185 C 173.908402 369.847057 199.86619 370.099999 208.024726 367.669136 L 208.83788399999997 367.426536 L 208.48222099999998 368.197015 C 207.28007999999997 370.800469 204.75374899999997 373.14522400000004 202.079163 375.627378 C 198.040328 379.374944 193.86446899999999 383.250173 193.320866 388.712784 C 192.88021799999999 391.551724 193.663051 394.529185 195.525603 397.096324 C 197.751305 400.163637 201.26862599999998 402.337674 204.934576 402.911977 C 205.796404 403.047503 206.679946 403.116015 207.561616 403.116015 C 214.24022 403.116015 219.90200099999998 399.205593 222.67579899999998 396.880306 C 229.21550699999997 391.147392 235.53676299999998 380.01214300000004 236.24172399999998 359.53418700000003 C 236.24209799999997 354.510353 235.73836699999998 353.76907600000004 235.59404299999997 350.81038 C 235.59404299999997 350.81038 243.17939999999996 355.873103 255.34869299999997 358.180046 C 263.05984299999994 359.533438 270.92186799999996 360.21968 278.71687999999995 360.21968 C 305.66228799999993 360.21968 331.90198599999997 351.94733099999996 352.60232499999995 336.926744 C 377.18762799999996 319.08630999999997 393.04196399999995 293.029311 397.24590199999994 263.548587 C 406.24342899999994 207.307774 382.6670859999999 161.95923499999998 367.81459599999994 139.93583 C 354.3806399999999 120.402814 341.67860199999996 110.66476 333.2729739999999 104.22089400000002 C 324.6251199999999 97.59096000000001 321.70531399999993 95.03804800000002 323.0935229999999 89.92136700000002 C 323.4375799999999 88.66643800000001 324.98602499999987 87.22768700000002 327.6688479999999 86.84169900000002 C 330.2577009999999 86.46469600000002 339.47498999999993 86.50587800000002 349.49270799999994 102.71475400000003 L 350.70233699999994 104.67202400000002 L 352.043374 102.80198500000002 C 361.79153699999995 89.20704500000002 362.87237799999997 71.99407600000002 355.008855 55.57629400000002 C 349.650697 44.388632000000015 340.672264 34.56484300000002 329.04357899999997 27.16705200000002 C 316.577776 19.23614000000002 301.637681 14.58144600000002 285.853728 13.70614100000002 C 264.726219 13.33999500000002 249.49784899999997 18.07480700000002 239.25138399999997 28.15542100000002 C 229.20146899999997 38.04173100000002 224.10575299999996 53.190731000000014 224.10575299999996 73.18161600000002 C 224.10575299999996 108.76477000000003 237.50751199999996 135.37473100000003 248.27736399999998 156.75944100000004 C 254.96644999999998 170.04102300000005 260.74316699999997 181.51134400000004 262.141485 192.33922500000003 C 264.667067 209.08908300000002 263.428611 224.28450700000002 258.46018499999997 237.503193 C 255.34232999999998 245.798753 250.90702499999998 252.91089100000002 245.27781399999998 258.641934 L 237.43825099999998 264.050914 L 232.93218699999997 264.406249 C 234.20602199999996 259.35705 235.88325399999997 237.036525 236.17134199999998 233.29270400000001 C 236.33737999999997 231.13495200000003 237.25386799999998 200.92755200000002 229.67674699999998 205.58205900000002 C 227.90722999999997 206.669078 222.207823 196.59295600000002 222.207823 196.27304600000002 C 222.207823 195.58212400000002 194.444951 184.78924700000002 194.454498 184.08522200000002 C 194.626527 171.52938 196.161494 161.24435300000002 196.161494 161.24435300000002 C 196.98682 134.248871 208.567583 116.47011700000002 213.3827 106.07820400000003 C 221.321474 88.94348100000002 225.23826 65.80703700000004 210.150659 56.993706000000024 C 204.55813799999999 53.72572400000003 198.992947 53.15628900000002 194.056718 55.347548000000025 C 187.62707899999998 58.200715000000024 182.35465399999998 65.60973800000002 178.808132 76.77755800000003 C 178.36112 78.13095000000003 178.019309 79.26832300000002 177.732158 80.35665200000003 L 177.615351 80.79992000000003 L 177.19978700000001 80.60636400000003 C 170.83491600000002 77.64238000000003 165.928637 76.85655200000002 164.08181000000002 76.56079000000003 L 163.48804 76.46307600000003 L 163.43375500000002 76.20737300000003 C 159.47578700000003 57.52308200000003 151.61488400000002 48.13095600000003 139.40066600000003 47.494132000000036 C 136.13231000000002 47.31779800000004 133.05413900000002 48.465654000000036 130.51245900000004 50.809661000000034 C 125.52344200000003 55.410818000000035 122.70134900000004 64.34544800000003 122.12480100000003 77.36571200000003 L 122.11207200000004 77.65773000000003 L 121.82716700000005 77.72249800000003 C 115.17177500000004 79.23949500000003 108.97500100000005 81.37309900000002 103.40868700000004 84.06453200000003 C 85.07144800000005 92.93027600000002 73.03618400000005 107.82918900000003 67.63834200000005 128.34009100000003 C 66.42759000000005 133.31563000000003 67.30663900000005 138.23089400000003 70.25078100000005 142.94960700000001 C 74.33603900000004 149.49699 82.33733500000005 155.445174 93.54858400000005 160.33928500000002 C 93.84359700000005 160.300068 94.15077800000005 160.27826100000001 94.47911100000005 160.28911800000003 C 98.79779700000005 160.43278700000002 102.57456400000004 162.25518600000004 106.74798900000005 163.06656600000002 C 108.28707400000005 163.36579100000003 109.44148200000005 164.55698100000004 110.01447300000005 165.98515600000002 C 112.46405600000006 166.16654400000002 114.78297900000005 166.88124000000002 117.19999000000006 167.326848 C 119.54549400000006 167.75916600000002 119.43954400000005 171.455441 117.19999000000006 171.962916 C 115.17477000000005 172.42172100000002 113.17014000000006 172.75202000000002 111.15334400000006 172.886704 C 114.79065400000006 195.907838 114.38504700000006 207.40547500000002 106.44473900000006 222.468288 C 108.00479000000006 224.629409 110.19361500000005 223.49943 109.25971900000006 226.418862 C 108.66407700000006 228.280665 105.01168200000006 231.285532 103.81553100000006 232.83809499999998 C 102.27925400000007 234.83261599999997 106.30659300000006 236.89744499999998 105.34199700000006 239.23616399999997 C 104.87270900000006 240.37363099999996 102.12923600000006 239.96293299999996 101.20601000000006 240.63087799999997 C 101.24569500000007 240.70973199999997 102.04837000000006 242.64271399999996 102.09217300000006 242.72671599999995 C 102.09217300000006 242.72671599999995 96.28325900000006 255.94853699999996 92.51678700000006 272.28320599999995 C 92.51678700000006 272.28320599999995 77.45501800000007 293.15206399999994 71.20639200000006 354.74326599999995 C 70.52557800000007 361.45486199999993 70.30076200000006 374.94562999999994 68.68605100000006 378.71827899999994 L 68.39216100000006 379.4052699999999 L 68.00579900000005 378.7658249999999 C 65.28067100000005 374.2575149999999 58.152060000000056 363.6973169999999 50.79956900000005 363.0054589999999 C 43.63015000000005 361.7898399999999 36.35740200000005 365.3449729999999 33.88348500000005 371.2755609999999 C 32.32643000000005 375.0077769999999 32.80489000000005 378.92493799999994 33.48027500000005 381.5538489999999 Z M 198.502212 226.04035000000002 C 214.668409 228.31350500000002 219.59837599999997 242.93987700000002 220.908901 246.06559400000003 C 223.25141 251.65348200000003 222.924949 261.906359 223.58479799999998 265.143361 L 208.14228199999997 266.36113300000005 C 208.14228199999997 266.36113300000005 203.69799099999997 255.80636400000006 197.63618199999996 227.26711700000004 C 197.57291099999998 226.96882800000003 196.63722699999997 225.77809600000003 198.50221199999996 226.04035100000004 Z &#10;" stroke-width="0px" fill="#c56439" /><path d="M 193.915011 394.895517 C 196.165422 394.42927099999997 196.279891 397.79119199999997 203.207551 397.283433 C 208.921112 396.86466 218.061423 393.81960300000003 226.226813 380.341176 C 230.869714 372.09999500000004 230.443667 362.043949 229.665326 352.617006 C 229.271289 347.84461600000003 228.79002 342.962719 226.735411 338.637342 C 225.968302 337.022585 224.92546 335.446764 223.359233 334.58498299999997 C 221.458495 333.53914599999996 219.14387699999997 333.71913099999995 216.990243 333.98054299999995 C 215.528655 334.15795299999996 214.01353 334.34341299999994 212.56635599999998 334.18242899999996 C 212.555873 334.18210099999993 212.54876 334.18654699999996 212.53790299999997 334.18561099999994 C 212.47800199999998 334.1804629999999 212.41959799999998 334.16478599999994 212.35988399999997 334.15795399999996 C 212.23147099999997 334.140498 212.10324499999996 334.12192 211.97614199999995 334.09824 C 207.42047299999996 333.306001 203.55235599999995 327.832065 203.20792399999996 323.220285 C 202.84926599999997 318.419489 204.86156999999997 313.77261 207.13556699999995 309.52941 C 209.40975199999994 305.286209 212.02686999999995 301.116902 213.05379999999994 296.41353899999996 C 213.29958199999993 295.28833299999997 213.47404399999994 294.07683299999997 213.54274299999994 292.84895299999994 C 214.28944799999994 294.91250099999996 215.20387699999995 296.95620599999995 215.45358999999993 298.0637219999999 C 216.42922999999993 302.3916739999999 216.21021599999995 306.8880499999999 215.98596099999995 311.3189099999999 C 215.86016899999996 313.8043399999999 215.73418899999996 316.2898629999999 215.60839699999994 318.7752929999999 C 215.72370699999993 318.83224599999994 215.83770599999994 318.8908369999999 215.94852299999994 318.9510649999999 C 220.60864499999994 321.48469599999993 224.39102799999995 325.38295099999993 227.64197599999994 329.5742059999999 C 229.53971899999993 332.0204659999999 231.29968999999994 334.6185849999999 232.38390099999995 337.5185019999999 C 233.79513499999996 341.2936309999999 233.99842399999994 345.3968129999999 234.15697499999996 349.4239959999999 C 234.37168299999996 354.8761239999999 234.53229299999995 360.3303569999999 234.63880499999996 365.7856669999999 C 234.70132699999996 368.99150199999985 234.74363199999996 372.2183479999999 234.21818699999997 375.3814099999999 C 233.41682199999997 380.2053239999999 231.31485299999997 384.7316979999999 228.74228599999998 388.8901949999999 C 225.30807799999997 394.4409259999999 220.793029 399.6020179999999 214.817141 402.2274659999999 C 208.84144 404.8529609999999 201.206664 404.4156829999999 196.50760599999998 399.88561199999987 C 195.12463799999998 398.5525309999999 194.00092999999998 396.8143679999999 193.91500899999997 394.89551899999987 C 193.82890099999997 392.97666999999984 192.03411299999996 395.28520399999985 193.91500899999997 394.89551899999987 Z &#10;" fill="#754123" mix-blend-mode="multiply" stroke-width="0px" opacity=".25" /><path d="M 212.878217 287.083091 C 213.48715 288.855042 213.653375 290.87333600000005 213.542745 292.848951 C 212.694957 290.506114 212.063748 288.137585 212.878217 287.083091 Z &#10;" fill="#754123" mix-blend-mode="multiply" stroke-width="0px" opacity=".25" /><path d="M 113.335012 206.207737 C 116.714613 202.937184 135.575972 209.659321 146.111787 226.256839 C 143.85856099999998 247.89277600000003 141.698687 261.945655 135.534315 281.553906 C 129.36994299999998 301.162157 134.84063999999998 339.76974099999995 143.290575 353.516658 C 135.431645 345.614639 115.37029799999999 337.676696 105.54928899999999 296.911854 C 103.824199 289.760385 95.22652399999998 291.500837 95.34503199999999 286.982105 C 95.46354 282.463372 98.24162399999999 278.922345 95.99691899999999 275.72265 C 93.752214 272.52295499999997 91.66471299999999 266.63210599999996 91.66471299999999 266.63210599999996 C 91.66471299999999 266.63210599999996 93.721362 268.25577599999997 94.80380899999999 267.06508499999995 C 95.88625599999999 265.87439399999994 97.45749899999998 262.02376499999997 96.14208199999999 259.02721899999995 C 94.82666499999999 256.0306729999999 94.69556499999999 251.69433999999995 94.69556499999999 251.69433999999995 L 100.32428799999998 250.28715899999995 C 100.32428799999998 250.28715899999995 97.29343699999998 238.27199999999993 97.50992599999998 237.18955299999993 C 97.72641499999997 236.10710599999993 98.68595799999999 230.83332799999994 98.68595799999999 230.83332799999994 L 103.67987199999999 234.15870199999995 C 103.67987199999999 234.15870199999995 107.07403 215.38366099999996 113.335011 206.20773899999995 Z &#10;" stroke-width="0px" fill="#e7caae" /><path d="M 58.458486 228.573429 C 59.664745 224.69370700000002 57.974597 219.88467400000002 59.264718 216.058488 C 61.226855 210.23862400000002 64.74455 203.981761 68.068502 198.778972 C 73.757052 189.87466600000002 84.51005699999999 184.111802 89.87064799999999 176.4701 C 90.34180799999999 175.798458 90.04398699999999 175.056807 89.70311199999999 174.567022 C 89.92324899999998 174.20508800000002 90.130844 173.84324800000002 90.33095099999998 173.48122 C 90.47920599999999 173.519407 90.63251599999998 173.551323 90.79874199999999 173.564146 C 91.180612 173.950134 91.56266899999999 174.336028 91.94453899999999 174.721923 C 92.23150299999999 176.135403 94.26776799999999 177.053388 95.475899 176.158615 C 98.085904 174.22568 101.117464 174.160257 104.068719 172.95877099999998 C 105.03294 172.566231 106.022245 172.19203599999997 106.949777 171.72050199999998 C 107.601202 171.39591299999998 108.229415 171.03107699999998 108.834042 170.62608899999998 C 109.366226 170.17430299999998 109.749219 170.30945499999999 109.983395 171.03182599999997 C 111.534835 171.82420599999998 112.20947100000001 172.57849199999995 114.167865 172.43950299999997 C 117.367897 172.21225299999998 120.32589 171.48538999999997 123.596867 171.50747899999996 C 123.93587000000001 171.50972499999997 124.230883 171.44579999999996 124.495759 171.34518399999996 C 127.20684800000001 176.07437999999996 124.61799500000001 181.45443899999995 126.39574900000001 187.11790499999995 C 128.294803 193.16717199999994 123.90086600000001 200.57357499999995 119.606328 204.22997799999996 C 118.880775 204.84752099999997 116.952894 205.14225399999995 116.06130300000001 205.43108999999995 C 113.307348 206.32324299999996 113.49397700000002 203.82087199999995 110.50996400000001 203.53606099999996 C 106.68377800000002 203.17103799999995 98.17482000000001 202.95838899999995 94.62455400000002 204.30419999999995 C 90.24222300000002 205.96542699999995 83.80696800000001 208.88691899999995 80.54273000000002 212.20132399999994 C 78.29269300000001 214.48599099999996 76.34085200000003 218.12610899999993 74.80719500000002 220.93023199999993 C 73.48132100000002 223.35463699999994 71.21556000000002 223.19786499999992 73.90362400000002 225.91232299999993 C 73.08709600000002 227.40947699999992 75.36970500000002 231.09395899999993 76.51157000000002 232.55124199999992 C 77.21728000000002 233.45181799999992 78.14930500000003 235.1408429999999 78.67643500000003 236.12340999999992 C 81.59062600000003 241.5546659999999 80.67432500000002 243.5645829999999 79.32598800000002 249.00444999999993 C 79.04482700000003 250.13920199999993 76.32943300000002 251.93221199999994 75.53742800000002 252.79300999999992 C 73.23685000000002 255.29364899999993 68.66208700000001 255.16724799999992 65.57886200000002 252.90129999999994 C 62.44490900000002 250.59814799999992 58.538980000000016 246.74154299999992 57.46057200000001 243.15926699999994 C 56.421849000000016 239.70914799999994 57.646827000000016 232.85711199999994 58.45848800000002 228.57343099999994 Z &#10;" stroke-width="0px" fill="#c56439" /><path d="M 214.23531 317.962645 C 233.941435 323.965703 227.981408 350.233078 241.586436 354.045001 C 246.25024499999998 355.567764 251.210466 356.878623 256.44919699999997 357.88236900000004 C 320.746537 366.758433 387.075299 328.678463 396.11028799999997 264.642103 C 404.251021 213.214514 385.740705 169.177567 366.995931 141.08536100000003 C 341.223284 103.21162300000003 318.627801 102.61373200000003 322.176451 89.39370500000004 C 323.72324599999996 83.69544300000004 337.91648499999997 79.89395300000004 351.289861 101.88297700000004 C 356.442014 78.52728100000004 327.23388 51.33050600000004 303.51179099999996 66.58921900000004 C 292.82471799999996 74.08097300000004 282.134035 91.47388200000005 303.47512099999994 128.51353300000005 C 328.33431299999995 171.65922000000006 354.73027499999995 280.25266100000005 266.2168029999999 299.37257200000005 C 232.0194559999999 302.316767 214.6924339999999 295.83526200000006 214.6924339999999 295.83526200000006 C 214.6924339999999 295.83526200000006 218.8166699999999 304.62598700000007 214.23530899999992 317.96264500000007 Z &#10;" fill="#754123" mix-blend-mode="multiply" stroke-width="0px" opacity=".25" /><path d="M 258.223599 243.639657 C 295.892747 176.46428600000002 235.82321499999998 132.764201 249.92716499999997 74.84059500000001 C 264.031115 16.916989000000008 317.305194 30.565943000000004 350.62215 53.489081000000006 C 350.62215 53.489081000000006 337.45870499999995 15.612692000000003 276.192216 15.612692000000003 C 214.92572699999997 15.612692000000003 223.368812 87.190132 230.94593999999998 109.528805 C 245.52289 164.918187 279.58388299999996 181.371378 258.223599 243.639657 Z &#10;" stroke-width="0px" opacity=".66" fill="#d8b58e" /><path d="M 185.933566 98.797199 C 185.948978 97.03852900000001 185.96439 95.279859 185.979803 93.521189 C 186.03145700000002 87.62700600000001 186.110254 81.583551 188.231317 76.08399200000001 C 190.35237999999998 70.584433 194.98501499999998 65.65698300000001 200.833664 64.92392600000001 C 206.561904 64.20596200000001 212.522373 68.10417500000001 214.160626 73.639908 C 214.160626 73.639908 193.10310800000002 62.868863000000005 185.933566 98.7972 Z &#10;" opacity=".35" fill="#754123" mix-blend-mode="multiply" stroke-width="0px" /><path d="M 214.160669 73.639952 C 210.194871 65.76159 201.44867200000002 63.16922699999999 194.588353 69.098897 C 191.46890900000002 71.728652 190.00086100000001 75.48790299999999 188.64274300000002 79.29100399999999 C 187.23537300000004 83.27401099999999 186.48624100000004 87.38858799999998 185.93371100000002 91.606 C 184.98927400000002 86.303045 185.511661 80.638081 187.20565100000002 75.46319399999999 C 188.75102700000002 69.90718199999999 193.011097 64.88950099999998 198.78924200000003 63.53568699999999 C 205.89921400000003 61.69269399999999 212.92423500000004 66.53424799999999 214.16067000000004 73.639951 L 214.16067000000004 73.639951 Z &#10;" stroke-width="0px" /><path d="M 143.120246 63.888485 C 140.841867 63.016017000000005 138.38990900000002 62.638949000000004 136.150494 61.670844 C 133.330633 60.451811 130.927658 58.290843 129.417249 55.615713 C 126.88145899999999 62.33261 125.367767 69.434316 124.944251 76.601434 C 124.917592 77.052587 124.931001 77.583709 125.29702599999999 77.848805 C 125.51500699999998 78.006678 125.80255799999999 78.022041 126.07168999999999 78.01929799999999 C 127.79691499999998 78.001718 129.471735 77.48611399999999 131.146512 77.07154799999999 C 137.089519 75.60044799999999 143.250772 75.380595 149.345451 75.523207 C 150.89236499999998 75.559404 152.438804 76.841986 153.984496 76.91278199999999 C 155.720343 76.99228699999999 158.118496 78.23666999999999 156.807716 76.522516 C 155.245781 74.479916 153.050639 71.040295 151.174676 69.280036 C 149.101035 67.33429199999999 145.789648 64.910688 143.120246 63.888484999999996 Z &#10;" opacity=".35" fill="#754123" mix-blend-mode="multiply" stroke-width="0px" /><g opacity=".66"><path d="M 132.158724 54.200453 C 138.005794 51.606537 143.345986 54.760979000000006 148.181048 58.125911 C 150.59363 59.799324 152.701078 61.629489 154.676843 63.852443 C 156.771929 66.194611 158.46074099999998 68.724195 160.17409999999998 71.493715 C 161.28767499999998 64.50701799999999 157.176483 57.34965999999999 151.44598399999998 53.455620999999994 C 148.505822 51.447739999999996 145.18121 49.82321399999999 141.50786399999998 49.58301399999999 C 137.930367 49.31012599999999 133.67740199999997 50.82170699999999 132.15872299999998 54.20045299999999 L 132.15872299999998 54.20045299999999 Z &#10;" stroke-width="0px" fill="#d8b58e" /></g><g opacity=".66"><path d="M 176.136455 82.062428 C 157.534656 75.033926 134.46050400000001 75.529584 115.77002300000001 82.062141 C 125.93101800000001 83.058722 135.885668 82.726824 145.98211600000002 82.71937799999999 C 154.95992300000003 82.55351499999999 167.21186400000002 82.77112799999999 176.136455 82.06242699999999 L 176.136455 82.06242699999999 Z &#10;" stroke-width="0px" fill="#d8b58e" /></g><path d="M 88.529074 122.796017 C 91.501773 123.27171200000001 94.50863199999999 123.75702100000001 97.279584 124.933901 C 101.19656499999999 126.59752300000001 104.442741 129.557988 108.317519 131.317668 C 119.77829700000001 136.52243099999998 135.576489 131.059856 147.14845400000002 136.012493 C 155.17382300000003 139.447237 158.78714000000002 147.658283 157.819474 156.333975 C 156.81282700000003 165.35915 148.825768 170.97959300000002 139.749798 170.67319600000002 C 136.078024 170.54924000000003 132.429087 170.30879000000002 128.842689 169.51190300000002 C 116.690301 166.81167900000003 85.51304400000001 162.26643900000002 71.921558 142.91747400000003 C 71.08394700000001 141.72504300000003 69.45851400000001 136.01632200000003 69.719809 132.96312800000004 C 70.139251 128.06199800000005 71.081538 122.01360800000003 72.188861 121.51224900000004 C 76.70795700000001 119.46615300000003 83.529624 121.99599800000004 88.529076 122.79601600000004 Z &#10;" stroke-width="0px" fill="#e7caae" /><path d="M 157.969362 153.703989 C 152.16736 157.700948 145.27592099999998 159.916866 138.30250099999998 160.922011 C 131.32908099999997 161.927156 124.24029099999998 161.76869299999998 117.20770799999998 161.342459 C 114.13795699999999 161.156406 111.05756999999998 160.91776099999998 108.05928499999999 160.233453 C 105.390064 159.624248 102.81446599999998 158.668348 100.24788699999999 157.715171 C 95.71397999999999 156.031365 91.162573 154.339688 86.91001299999999 152.03594 C 80.44099899999999 148.53146800000002 74.756316 143.64174 70.114032 137.93396800000002 C 72.035703 145.39937600000002 77.341583 151.92303900000002 84.25891899999999 155.32533200000003 C 87.34983199999999 156.84559800000002 90.69843499999999 157.75527800000003 93.921044 158.97172300000003 C 98.623897 160.74691800000002 103.062427 163.17754700000003 107.795828 164.86960400000004 C 112.953739 166.71341200000003 118.383032 167.65302900000003 123.780812 168.58450000000005 C 129.636551 169.59499700000003 135.599018 170.60848300000004 141.491783 169.84290800000005 C 145.838913 169.27813800000004 150.479637 167.66917500000005 153.90801199999999 164.78897200000006 C 156.79797 162.36109700000006 158.008651 158.04816600000007 157.969362 153.70399000000006 Z &#10;" fill="#754123" mix-blend-mode="multiply" stroke-width="0px" opacity=".25" /><path d="M 115.206962 166.438717 C 121.06828900000001 166.554027 126.838829 167.552504 132.659723 168.160688 C 132.677881 168.16255999999998 132.695476 168.162654 132.713447 168.164432 C 133.412419 168.411899 134.115134 168.628666 134.824027 168.79564 C 137.412131 169.405134 140.034865 169.341396 142.640752 169.253977 C 144.71688799999998 169.184342 146.817734 169.095145 148.800275 168.25765199999998 C 150.400759 167.58170499999997 151.874701 166.43010499999997 153.255797 165.096556 C 153.993891 164.38401299999998 155.47944 159.03830399999998 157.122978 159.620094 C 164.94026499999998 162.38734 171.376082 171.005243 161.590106 177.08521 C 158.86048599999998 179.180253 145.831237 173.479535 142.72217999999998 173.577811 C 134.175222 173.577811 130.46640499999998 172.438566 122.34755299999998 171.708053 C 121.72008799999998 171.652176 121.07259499999998 171.574773 120.41405599999997 171.480897 C 119.01180799999997 169.407381 117.01803499999997 168.269915 115.20696199999998 166.438718 Z &#10;" fill="#754123" mix-blend-mode="multiply" stroke-width="0px" opacity=".25" /><path d="M 93.384702 144.839892 C 97.96957400000001 153.457447 114.9787 165.549195 117.969727 146.166203 L 112.597712 147.237142 L 101.626616 146.709527 L 93.384702 144.83989200000002 Z &#10;" stroke-width="0px" /><path d="M 138.654991 122.3043 C 134.80467099999998 121.32410399999999 131.436929 120.49492 127.59967 120.388632 C 127.59967300000001 120.388587 125.364611 120.289001 125.364611 120.289001 C 123.77251 120.246942 122.3044 120.135019 120.664243 120.427486 C 121.035256 119.580389 121.76604999999999 118.962284 122.497967 118.451252 C 127.67444900000001 115.130974 135.920984 116.466197 138.654991 122.3043 L 138.654991 122.3043 Z &#10;" stroke-width="0px" /><path d="M 99.016343 83.110043 C 97.345752 82.450899 94.50930100000001 81.237972 92.861676 80.79917300000001 C 92.03999300000001 80.55681100000001 90.755055 80.27195600000002 89.903315 80.04916800000001 C 88.745711 79.77599800000002 87.74722600000001 79.459873 86.46387700000001 79.436108 C 86.714706 78.73426400000001 87.29518600000002 78.230345 87.88240400000001 77.837057 C 92.089397 75.183555 98.77855500000001 77.902204 99.016343 83.110043 L 99.016343 83.110043 Z &#10;" stroke-width="0px" /><path d="M 94.26094 113.282251 C 90.410679 112.30196600000001 87.04301600000001 111.47295100000001 83.20580600000001 111.366583 C 83.20580900000002 111.36653700000001 80.970747 111.26704500000001 80.970747 111.26704500000001 C 79.378641 111.22490700000002 77.910531 111.112953 76.270379 111.40553000000001 C 76.64139200000001 110.55843300000001 77.372186 109.94023400000002 78.10410300000001 109.42929600000001 C 83.28036900000001 106.10895300000001 91.52699000000001 107.444158 94.26094 113.28225 L 94.26094 113.28225 Z &#10;" stroke-width="0px" /><path d="M 145.561781 91.942748 C 143.891034 91.283558 141.05480699999998 90.07065399999999 139.406927 89.631878 C 138.585576 89.389572 137.300131 89.104563 136.448566 88.881874 C 135.290727 88.608745 134.292716 88.292648 133.009128 88.26881399999999 C 133.260144 87.56697 133.840624 87.06305099999999 134.42765500000002 86.669856 C 138.63463000000002 84.01617999999999 145.323945 86.734971 145.56178100000002 91.942748 L 145.56178100000002 91.942748 Z &#10;" stroke-width="0px" /><path d="M 130.898706 93.7365 L 130.899097 93.73589100000001 L 130.89914000000002 93.73589100000001 C 131.73698800000003 92.46498600000001 133.26756200000003 91.73325000000001 134.86676100000003 91.99596400000001 C 137.03574500000002 92.35230800000002 138.505218 94.39943700000002 138.14891800000004 96.56846500000002 C 138.02145300000004 97.34447200000002 137.67489400000005 98.02837100000002 137.18638900000005 98.57371500000002 L 137.18773700000006 98.57475900000001 C 131.63139800000005 107.49931800000002 134.40391400000004 119.36604100000001 134.40391400000004 119.36604100000001 L 126.54925700000004 118.07574000000001 C 124.49564800000005 104.72097400000001 130.04450700000004 95.123693 130.81038100000004 93.877577 C 130.83904000000004 93.82987 130.86822100000003 93.782816 130.89870600000003 93.736501 Z &#10;" stroke-width="0px" /><path d="M 85.124715 85.917633 C 85.153548 85.86962199999999 85.182946 85.82221899999999 85.21364899999999 85.7756 L 85.21377899999999 85.77538299999999 L 85.21377899999999 85.77538299999999 C 86.05166999999999 84.50447799999999 87.58224399999999 83.772742 89.18144299999999 84.035456 C 91.35042699999998 84.391756 92.81989999999999 86.438929 92.46359999999999 88.607913 C 92.33613499999998 89.38392 91.98957599999999 90.06786199999999 91.50107099999998 90.613207 L 91.50241899999997 90.614251 C 85.94603699999998 99.53881 88.71859599999998 111.40553299999999 88.71859599999998 111.40553299999999 L 80.86393899999997 110.11523199999999 C 78.81054699999997 96.762249 84.35775399999997 87.16579499999999 85.12471499999998 85.91763399999999 Z &#10;" stroke-width="0px" /><circle cx="134.31805" cy="96.080143" r="2.722138" stroke-width="0px" fill="#fff" /><circle cx="88.514107" cy="88.276698" r="2.722138" stroke-width="0px" fill="#fff" /><path d="M 88.553804 124.544242 C 85.724381 123.210938 82.043708 121.78054 77.610961 120.77673399999999 C 73.576108 119.86303399999998 69.967104 119.54022799999998 67.032706 119.47480399999999 C 66.261897 119.47881899999999 65.094531 119.598068 64.180682 120.377501 C 61.892937 122.32875999999999 62.867154000000006 126.962239 63.31367 129.426777 C 63.887911 132.596254 67.757255 137.702621 71.098337 139.20939199999998 C 74.638649 140.80601199999998 82.389115 135.67458399999998 82.389115 135.67458399999998 C 82.389115 135.67458399999998 89.08641200000001 131.290012 90.795157 127.67342399999998 C 91.385754 126.42368399999998 90.12798500000001 124.91507499999999 88.553803 124.54424199999998 Z &#10;" stroke-width="0px" /><path d="M 85.63963 128.81554 C 85.810029 128.81554 85.979387 128.744466 86.099826 128.60559 C 86.69874899999999 127.91566800000001 86.49444899999999 126.881083 85.950987 126.27978 C 85.458972 125.735277 84.76696799999999 125.489939 84.261571 125.310618 C 79.37561600000001 123.575405 74.311829 122.223218 69.211166 121.291526 C 77.22471100000001 124.129377 79.029318 124.745001 83.854161 126.458505 C 84.350786 126.63455400000001 84.783028 126.804061 85.04725 127.096385 C 85.243818 127.314067 85.30835 127.659325 85.18003 127.807421 C 84.959523 128.061384 84.986733 128.445896 85.240696 128.666552 C 85.355931 128.766472 85.498227 128.815539 85.639631 128.815539 Z &#10;" stroke-width="0px" fill="#fff" /><path d="M 108.007199 163.876997 C 115.503143 166.271098 118.524974 168.405047 122.349619 172.567478 &#10;" fill="none" stroke="#0c0c0c" stroke-miterlimit="10" stroke-width="3.450306px" /><path d="M 207.358527 193.700442 C 210.392817 194.424359 213.41917 195.522749 216.532264 195.32371600000002 C 211.37809 191.137673 204.136812 190.327018 198.863038 186.292694 C 198.36613699999998 185.912576 197.87357899999998 185.496936 197.276634 185.30970100000002 C 196.67968900000002 185.12246600000003 195.936639 185.229959 195.57696 185.74184900000003 C 195.297156 186.14006400000002 195.31343600000002 186.66538100000002 195.296142 187.15176200000002 C 195.183443 190.32128300000002 191.90009 192.69557500000002 196.524803 192.68277 C 200.20223199999998 192.67258800000002 203.762298 192.842458 207.35852599999998 193.700441 Z &#10;" fill="#754123" mix-blend-mode="multiply" stroke-width="0px" opacity=".25" /><path d="M 211.641133 213.872902 C 216.55701299999998 218.961702 220.279265 225.064321 223.830995 231.183714 C 225.446307 233.966788 227.053733 236.810228 227.828464 239.93345100000002 C 228.796263 243.83500200000003 228.407782 247.93174600000003 227.932406 251.92333100000002 C 227.59927299999998 254.72054200000002 227.22636999999997 257.513016 226.81384599999998 260.299625 C 226.60108799999998 261.736808 226.36037 263.219939 225.57536599999997 264.442448 C 225.33599599999997 264.815226 225.02409699999998 265.174634 224.600363 265.30390600000004 C 223.80274799999998 265.54724100000004 222.97428499999998 264.83524500000004 222.75786599999998 264.02990900000003 C 222.54144699999998 263.224573 222.752729 262.374995 222.92427199999997 261.55892100000005 C 223.57218799999998 258.47661200000005 223.64501399999997 255.27075900000006 223.09963699999997 252.16866500000006 C 222.13949699999998 246.70741000000007 219.28510999999997 241.69461200000006 215.56227199999998 237.58515300000005 C 211.83943399999998 233.47569400000006 207.27088299999997 230.21282200000005 202.50068499999998 227.38574100000005 C 201.14265999999998 226.58090100000004 199.73507999999998 225.78381100000004 198.71821299999996 224.57634100000004 C 197.42691599999998 223.04299900000004 196.90713799999997 221.02077900000003 196.46257899999998 219.06605200000004 C 195.36427199999997 214.23678500000005 193.82241 208.90124900000004 193.64337099999997 203.95457000000005 C 196.10516399999997 202.93313600000005 201.23880499999999 206.01808600000004 203.38054699999998 207.27649400000004 C 206.427869 209.06698700000004 209.188495 211.33400000000003 211.64113399999997 213.87290100000004 Z &#10;" fill="#754123" mix-blend-mode="multiply" stroke-width="0px" opacity=".25" /><path d="M 221.834506 201.222407 C 222.053744 201.53732300000001 222.272319 201.978613 222.02346400000002 202.270689 C 221.88547900000003 202.432639 221.654771 202.471526 221.443925 202.50001600000002 C 220.75262 202.59342600000002 220.035731 202.68503500000003 219.368369 202.481918 C 218.701007 202.278801 218.09597 201.69366300000002 218.105685 200.99614300000002 C 218.110242 200.66898 218.24524599999998 200.35925300000002 218.383452 200.06268100000003 C 218.788693 199.19309500000003 219.213905 198.16255100000004 219.831122 197.427014 C 220.2112 197.836891 220.346832 198.787526 220.62903799999998 199.32032600000002 C 220.98065899999997 199.98418100000004 221.40586799999997 200.60670400000004 221.83450699999997 201.22240800000003 Z &#10;" fill="#754123" mix-blend-mode="multiply" stroke-width="0px" opacity=".25" /><path d="M 227.593612 210.278905 C 227.660113 210.486536 227.737424 210.699389 227.890367 210.85476400000002 C 228.151448 211.119998 228.570887 211.15428200000002 228.936947 211.087106 C 229.733821 210.94087100000002 230.414786 210.400609 230.89905100000001 209.75108600000002 C 231.383316 209.10156300000003 231.697088 208.343769 232.005943 207.594769 C 231.05559 207.860654 230.105014 208.125739 229.154215 208.390024 C 229.04067999999998 208.421582 228.912624 208.45157400000002 228.81050199999999 208.392774 C 228.70632799999998 208.332792 228.66881099999998 208.20341100000002 228.64063099999998 208.086511 C 228.21056199999998 206.302446 227.759672 203.863158 226.12876999999997 202.750132 C 225.56386099999997 203.691462 226.51968899999997 205.268989 226.72673499999996 206.23777800000002 C 227.01468499999996 207.585122 227.17200099999997 208.962531 227.59361299999998 210.278905 Z &#10;" fill="#754123" mix-blend-mode="multiply" stroke-width="0px" opacity=".25" /><path d="M 104.203489 340.441798 C 102.49453700000001 358.434325 94.78842 376.115961 81.45930700000001 388.321954 C 76.51270600000001 392.85175200000003 70.16163300000001 396.774441 63.515490000000014 395.870718 C 60.76210600000002 395.49632 58.17902200000002 394.308768 55.797944000000015 392.87637 C 48.71656700000001 388.616389 43.07166500000002 382.013543 39.96447600000002 374.355952 C 39.41145400000002 372.993043 38.60174100000002 371.34668 37.130988000000016 371.331214 C 35.81348600000002 371.317362 34.931699000000016 372.676373 34.49779800000002 373.920452 C 32.426558000000014 379.859103 34.687668000000016 386.666618 38.85155200000002 391.38039200000003 C 45.73130800000002 399.16870200000005 57.08037500000002 401.88506400000006 67.36813600000002 400.418517 C 77.65589800000002 398.951971 87.06839600000002 393.85524300000003 95.71104100000002 388.085193 C 110.79109500000003 378.017364 124.30945800000002 365.615198 135.636376 351.45645 C 136.06089500000002 350.92579800000004 136.495201 350.36593200000004 136.631315 349.70013900000004 C 136.77453 348.99961500000006 136.566725 348.275032 136.29091 347.615358 C 134.334061 342.935116 129.316095 340.460851 125.66137599999999 336.942763 C 123.33047499999999 334.699002 121.52102099999999 331.975135 119.84320899999999 329.208818 C 115.22103499999999 321.587941 111.445607 313.453914 108.60867699999999 305.004411 C 107.55023299999999 301.851945 106.59303299999999 298.596063 104.67885099999998 295.876791 C 103.07838399999999 293.60319200000004 98.38086099999998 288.76405900000003 95.42458699999997 289.36802500000005 C 97.56342299999997 297.88189900000003 101.38655499999997 305.78128200000003 102.98040699999997 314.56777600000004 C 104.52604099999998 323.088454 105.02302699999997 331.813368 104.20348899999998 340.44179800000006 Z &#10;" fill="#754123" mix-blend-mode="multiply" stroke-width="0px" opacity=".25" /><path d="M 124.284981 321.88374 C 127.414254 320.441105 128.33018 316.49118599999997 128.700632 313.065308 C 129.51678500000003 305.519869 129.55141500000002 297.894266 130.67025700000002 290.387763 C 130.93756600000003 288.594145 131.27563300000003 286.79893500000003 131.69643900000003 285.024036 C 131.84750200000002 274.55336200000005 134.85697300000004 264.134447 137.09652700000004 253.80697400000003 C 139.77616700000004 241.45044400000003 140.30722900000004 229.99795200000003 136.36217600000003 217.916827 C 139.21702700000003 217.071472 143.17855200000002 222.42232900000002 144.00930600000004 224.86910400000002 C 144.60401200000004 226.62046400000003 144.62422900000004 228.50716300000002 144.63845500000005 230.35661100000002 C 144.66803100000004 234.19889500000002 144.69742000000005 238.04361300000002 144.51884000000004 241.881873 C 143.81219400000003 257.075191 139.85328900000005 271.960252 134.62597800000003 286.24354 C 134.40752600000002 286.840586 134.18065000000004 287.436088 133.94535100000004 288.028079 C 133.75329300000004 290.172119 133.80739100000005 292.34063399999997 133.86523300000005 294.496654 C 133.97193200000004 298.48228 134.07863100000006 302.46790599999997 134.18533000000005 306.453531 C 134.28641300000004 310.227771 134.38824500000004 314.011278 134.90657700000006 317.751121 C 135.54209100000006 322.33655400000004 136.79758100000006 326.811731 137.65454200000005 331.360989 C 138.71984600000005 337.01687400000003 139.16611000000006 342.768554 139.61068900000004 348.506757 C 134.27031400000004 347.690042 130.09015000000005 343.503888 126.94964500000003 339.10812699999997 C 123.80914000000001 334.7123659999999 120.00934800000003 330.52644499999997 117.33944200000003 325.82996099999997 C 116.32262000000003 324.041257 115.55420100000003 322.11150399999997 115.06338600000004 320.11337899999995 C 117.92291700000004 321.66449099999994 121.33073100000004 323.24569399999996 124.28498100000004 321.88373899999993 Z &#10;" fill="#754123" mix-blend-mode="multiply" stroke-width="0px" opacity=".25" /><path d="M 157.780337 244.225153 C 157.948006 247.756576 157.952598 251.36874500000002 156.860932 254.731382 C 154.86703599999998 260.873135 150.449793 267.97787 145.49907199999998 270.24186199999997 C 129.86203899999998 277.49265399999996 147.90840599999999 255.15829399999996 144.25722499999998 223.84368699999996 C 150.61835399999998 229.04613399999997 157.39060899999998 236.01677199999995 157.78033699999997 244.22515299999995 Z &#10;" fill="#754123" mix-blend-mode="multiply" stroke-width="0px" opacity=".25" /><path d="M 156.41587 235.793724 C 146.68909200000002 208.216059 123.01958900000001 193.276974 101.08200100000002 197.427013 C 79.14441300000001 201.57705199999998 63.93324300000002 220.21802 70.86120600000002 233.04972899999999 C 70.86120600000002 233.04972899999999 72.93314900000003 233.155793 75.10327800000002 239.33128799999997 C 77.273407 245.50678299999996 73.62976300000001 249.63768999999996 69.17077600000002 248.19442799999996 C 64.71178900000002 246.75116599999996 59.33928500000002 243.90012799999997 57.92845600000002 238.38024399999995 C 57.92845600000002 238.38024399999995 58.65008700000002 246.89549199999993 61.82526400000002 249.78201699999994 C 65.00044100000002 252.66854199999995 68.46427100000002 255.54001799999995 71.49512200000002 253.88779099999994 C 74.52597300000002 252.23556299999993 79.00008600000002 251.65825799999993 78.85576000000002 245.59655599999994 C 78.71143400000001 239.53485399999994 79.07447000000002 235.95911599999994 76.51156900000002 232.55123999999995 C 73.94866800000003 229.14336499999996 72.43862800000002 223.96385399999994 72.43862800000002 223.96385399999994 L 83.50253100000002 209.80364899999995 L 93.57703700000002 204.75223099999994 L 101.51498000000002 202.11526599999993 L 123.88554700000003 208.40122799999995 L 143.75416300000003 222.24885199999994 L 156.41587000000004 235.79372599999994 Z &#10;" fill="#754123" mix-blend-mode="multiply" stroke-width="0px" opacity=".25" /><path d="M 200.231213 378.781453 C 201.026401 377.739641 202.05988299999999 376.853338 203.207551 376.069288 C 202.02862199999998 377.70809899999995 200.904913 378.93869299999994 200.231213 378.781453 Z &#10;" fill="#754123" mix-blend-mode="multiply" stroke-width="0px" opacity=".25" /><path d="M 207.397075 359.322846 C 208.72894 358.62588700000003 217.341601 353.81919400000004 219.952543 354.654441 C 219.96471 354.640308 219.975193 354.624865 219.987361 354.61077900000004 C 220.312138 354.23761400000006 220.693446 353.86398 221.18107899999998 353.781288 C 222.33099399999998 353.58623500000004 223.03501999999997 355.019042 223.16549199999997 356.178223 C 223.43710599999997 358.588074 222.96875399999996 361.076218 221.83980499999998 363.222504 C 219.534921 367.603899 214.86993199999998 370.137062 210.41590699999998 372.29823 C 208.15894399999996 373.393391 205.45964899999998 374.53085799999997 203.20755299999996 376.069288 C 204.97912899999997 373.60702299999997 206.87574999999995 370.22162599999996 207.56124299999996 369.223757 C 208.58143399999997 367.73914399999995 209.61416799999995 366.23993099999996 210.94809099999995 365.02955399999996 C 211.02277999999995 364.96179099999995 211.10402099999996 364.90165599999995 211.18020799999994 364.835764 C 208.34763199999995 366.18503699999997 205.43287999999993 367.216226 203.29553199999992 367.895496 C 195.7571599999999 370.291402 187.7663469999999 370.899819 179.85677399999992 370.977784 C 170.13799999999992 371.073596 159.7123919999999 370.13392699999997 152.15717299999991 364.019891 C 148.05413199999992 360.69954199999995 145.17906399999993 356.137415 142.37999499999992 351.662471 C 141.64283599999993 350.483822 161.9876749999999 370.15009899999995 207.39707499999992 359.322845 Z &#10;" fill="#754123" mix-blend-mode="multiply" stroke-width="0px" opacity=".25" /><path d="M 125.556857 245.70263 C 126.458441 242.364355 127.58455199999999 239.091859 128.767363 235.84945 C 128.767372 235.84945199999999 130.31581599999998 237.469966 130.31581599999998 237.469966 C 127.57116999999998 238.959116 124.17994699999998 239.24941 121.07454099999998 239.319676 C 122.24224099999998 236.744045 123.52077799999998 233.975306 124.90433499999999 231.52225299999998 C 125.872087 229.79335399999997 126.90201199999998 228.09861899999999 127.997829 226.44675199999998 L 130.06891099999999 229.35935199999997 C 126.37860999999998 230.39118499999998 122.38684099999999 230.43909299999999 118.58510399999999 230.22238499999997 C 118.58511199999998 230.22248999999996 119.86474999999999 227.74192699999998 119.86474999999999 227.74192699999998 C 120.78984799999999 225.948356 121.92647299999999 224.57016099999998 122.71379799999998 223.20591299999998 C 125.79495799999998 218.546036 121.34167799999999 214.167049 117.90827199999998 211.18599999999998 C 122.18321699999998 212.86251799999997 127.01243399999998 216.401357 126.41919299999998 221.674322 C 126.13467499999997 224.455648 124.08757299999998 227.095521 123.12297699999998 229.291487 C 123.12299799999998 229.291495 121.50285899999997 226.712751 121.50285899999997 226.712751 C 124.07355399999997 226.641899 126.62983599999997 226.291758 129.11105399999997 225.655215 L 133.96285999999998 224.410488 C 132.14679999999998 227.121353 129.76221299999997 230.645029 128.071758 233.38817999999998 C 127.05644499999998 235.01027699999997 126.06994799999998 236.65269199999997 125.10722399999999 238.312796 L 123.663232 235.942395 C 126.49083499999999 236.20186800000002 129.653316 235.197596 132.364618 234.35801700000002 C 130.220394 238.17310200000003 128.03200900000002 242.09365300000002 125.55685700000001 245.70263200000002 L 125.55685700000001 245.70263200000002 Z &#10;" stroke-width="0px" fill="#eeddcf" /><path d="M 107.761126 177.117226 C 107.686683 177.120902 107.604838 177.12103 107.54721400000001 177.073758 C 107.48960000000001 177.026495 107.47370400000001 176.946158 107.46354500000001 176.872334 C 107.26601800000002 175.436886 107.82252700000001 173.910774 107.30422300000001 172.557671 C 108.076187 172.87501699999999 108.84815200000001 173.192363 109.62011600000001 173.509708 C 110.15446600000001 173.72937299999998 110.69300000000001 173.95031999999998 111.259752 174.062458 C 111.983748 174.205708 112.72947 174.166932 113.467185 174.145318 C 114.325998 174.120156 115.185516 174.119076 116.044446 174.14208200000002 C 116.34745099999999 174.15019900000001 116.701062 174.14464800000002 116.957145 174.29115900000002 C 116.631588 174.73621900000003 115.380665 174.71275300000002 114.848719 174.86703300000002 C 114.038512 175.10201700000002 113.256699 175.423301 112.47748 175.74371900000003 C 110.964098 176.36602900000003 109.418528 177.03539300000003 107.761126 177.11722500000002 Z &#10;" fill="#754123" mix-blend-mode="multiply" stroke-width="0px" opacity=".25" /><path d="M 98.479437 177.322556 C 98.494405 177.586409 98.626951 177.828253 98.770044 178.05043999999998 C 99.226613 178.75937799999997 99.82572 179.37610399999997 100.52113 179.85302299999998 C 100.58526499999999 179.89700799999997 100.65623 179.94157099999998 100.733895 179.937572 C 100.84492200000001 179.931854 100.92469100000001 179.83148599999998 100.983987 179.73744299999998 C 101.20551 179.38610699999998 101.360569 178.991437 101.437964 178.58337699999998 C 101.536717 178.06270199999997 101.547643 178.02187099999998 101.130769 177.801334 C 100.896412 177.677353 98.479069 177.316077 98.479437 177.322555 Z &#10;" fill="#754123" mix-blend-mode="multiply" stroke-width="0px" opacity=".25" /><path d="M 91.316341 180.361086 C 91.45172699999999 180.819816 91.680948 181.244327 91.90855699999999 181.664989 C 91.96635199999999 181.771805 92.03017099999998 181.88470999999998 92.13798999999999 181.940612 C 92.32281199999998 182.03643799999998 92.54323899999999 181.92621699999998 92.72135099999998 181.81842899999998 C 93.19661999999998 181.53081099999997 93.71711799999999 181.18066399999998 93.81963099999999 180.63468199999997 C 93.88786999999999 180.27124299999997 93.750177 179.90402699999996 93.61230699999999 179.56089899999998 C 93.274566 178.72033699999997 92.59934399999999 177.32744999999997 91.46153199999999 177.481295 C 90.39083799999999 177.62606499999998 91.11275599999999 179.671271 91.316341 180.361086 Z &#10;" fill="#754123" mix-blend-mode="multiply" stroke-width="0px" opacity=".25" /><path d="M 111.825815 174.201671 C 113.987003 174.744704 118.131506 173.268884 120.43084300000001 173.06182900000002 C 123.48298600000001 172.78698400000002 126.547228 172.64639300000002 129.61170800000002 172.63989300000003 C 135.740854 172.62689300000002 141.871113 173.15009500000002 147.909071 174.20368900000003 C 149.59827900000002 174.49844800000002 155.339811 174.77917300000001 156.375472 176.18853200000004 C 157.895473 178.25699700000004 152.269106 177.80855700000004 151.013658 177.88197600000004 C 144.826059 178.24383000000003 138.612959 178.16080200000005 132.437009 177.63703100000004 C 125.48921599999998 177.04780200000005 118.588518 175.90090900000004 111.825814 174.20167000000004 Z &#10;" stroke-width="0px" opacity=".66" fill="#d8b58e" /><path d="M 77.046597 196.798461 C 71.801776 203.141417 66.65140500000001 209.998629 65.02063600000001 218.06596000000002 C 64.42878400000001 220.99382200000002 64.32251500000001 223.995428 64.23506900000001 226.981231 C 64.21111200000001 227.799241 64.186541 228.62918000000002 63.94501100000001 229.411086 C 63.687948000000006 230.243275 63.19821700000001 230.97983100000002 62.762682000000005 231.734105 C 60.388316 235.846106 59.54678200000001 240.820262 60.436378000000005 245.484464 C 58.272423 242.628801 57.96264600000001 238.824357 57.734350000000006 235.24869 C 57.34741400000001 229.188322 56.98003800000001 222.958581 58.841750000000005 217.178286 C 59.818647000000006 214.14518900000002 61.381069000000004 211.33756300000002 63.00156700000001 208.59384500000002 C 67.31727000000001 201.286787 72.15770700000002 194.220323 78.18390900000001 188.245101 C 81.95754200000002 184.50339200000002 85.82986600000001 180.585516 89.75282700000001 177.045406 C 92.41427600000002 179.77965 79.064592 194.35794600000003 77.04659600000001 196.798461 Z &#10;" stroke-width="0px" opacity=".66" fill="#d8b58e" /><path d="M 86.662465 301.292674 C 82.551887 317.08766299999996 80.154111 333.308097 79.128162 349.596926 C 78.44626600000001 360.42327 78.157509 371.962315 72.04751300000001 380.925721 C 71.657531 381.49782600000003 70.87747800000001 382.10535600000003 70.37457700000002 381.629456 C 70.10668000000001 381.375943 70.11972000000002 380.953199 70.15237900000001 380.585815 C 70.80614700000001 373.231604 71.45991400000001 365.87739400000004 72.11368200000001 358.523184 C 73.01534200000002 348.38043 73.91701600000002 338.237533 74.90365100000001 328.102691 C 75.21917800000001 324.861558 75.54354400000001 321.620013 76.00857700000002 318.396934 C 78.31628400000001 302.402551 84.13360700000001 286.923972 92.93152200000002 273.368808 C 95.28646000000002 273.965708 97.18328700000002 276.0721 97.53106100000002 278.47648300000003 C 98.15930000000002 282.81990900000005 93.64277800000002 285.248377 91.59379000000003 288.495921 C 89.13984500000002 292.385302 87.81131000000002 296.87821 86.66246400000003 301.29267400000003 Z &#10;" stroke-width="0px" opacity=".66" fill="#d8b58e" /><path d="M 59.043893 375.452287 C 56.872890999999996 373.915793 54.617356 372.46765600000003 52.156997 371.457362 C 47.454178999999996 369.526251 42.07283699999999 369.29828499999996 37.223547999999994 370.824746 C 36.882045999999995 368.344422 39.64901199999999 366.6763 42.007808999999995 365.836829 C 44.729941999999994 364.86805000000004 47.620698999999995 364.0414 50.476518 364.48052800000005 C 54.637512 365.12034600000004 57.917682 368.2964390000001 60.601963 371.53956600000004 C 64.083231 375.745605 67.08550699999999 380.34778700000004 69.532639 385.229574 C 70.037464 386.23710700000004 70.232887 388.38933000000003 68.675326 387.223683 C 67.92353 386.661054 67.20402899999999 383.563087 66.553732 382.595592 C 64.618932 379.71704800000003 61.850486 377.43861 59.043893999999995 375.452287 Z &#10;" stroke-width="0px" opacity=".66" fill="#d8b58e" /><path d="M 199.657756 384.862224 C 197.18117 388.82455600000003 195.454983 393.809479 197.239993 398.12773000000004 C 194.190817 396.31609800000007 192.698496 392.49008000000003 193.055433 388.96133000000003 C 193.41236999999998 385.43258000000003 195.370406 382.220524 197.870092 379.704355 C 198.859457 378.70846700000004 205.3971 372.739097 206.14879 374.951184 C 206.72922599999998 376.659301 200.63402299999998 383.300279 199.65775499999998 384.862225 Z &#10;" stroke-width="0px" opacity=".66" fill="#d8b58e" /><path d="M 140.31423 292.053094 C 143.577748 309.660355 143.785845 327.829731 140.92644900000002 345.507119 C 138.62694100000002 343.437098 137.36845800000003 340.463463 136.42328200000003 337.517387 C 132.99220600000004 326.822865 132.80999400000002 315.397203 132.65827900000002 304.166794 C 132.58235700000003 298.54675599999996 132.54639300000002 292.88478699999996 133.331622 287.306446 C 133.835527 283.726656 135.01018100000002 274.4249 138.698759 272.764536 C 138.175505 279.432481 139.097548 285.488871 140.31423 292.05309300000005 Z &#10;" stroke-width="0px" opacity=".66" fill="#d8b58e" /><path d="M 33.02839 381.649548 C 34.722095 388.242418 39.157401 393.814348 45.854723 397.763331 C 51.677489 401.196416 58.695657 403.070947 65.687993 403.070947 C 65.908878 403.070947 66.12976400000001 403.069075 66.350649 403.065331 C 67.92810800000001 403.038563 70.29046000000001 402.600208 73.23553700000001 401.838902 L 73.23666000000001 401.843301 C 73.28869900000001 401.829636 73.34579200000002 401.810636 73.39801900000002 401.79655 C 74.09437000000003 401.615068 74.81206000000002 401.421606 75.57093300000003 401.205073 C 75.57467700000002 401.17619900000005 75.58104100000003 401.14783900000003 75.58478500000002 401.11901200000005 C 90.91011900000002 395.87536800000004 120.30305100000002 375.74783400000007 138.27657800000003 351.43119700000005 C 139.13129300000003 352.04546500000004 140.05227300000004 352.69150800000006 141.02379400000004 353.36221300000005 C 148.70965900000004 369.3563040000001 171.10278100000005 372.42996500000004 184.05752700000005 372.42996500000004 C 187.35620800000004 372.42996500000004 190.75672200000005 372.246143 194.25682100000006 371.87775100000005 L 194.37138200000007 371.86202700000007 C 198.41227600000008 371.18856000000005 202.13101400000008 370.4366600000001 205.39319300000005 369.39044900000005 C 204.24870700000005 371.24640200000005 202.43987900000005 373.62719200000004 199.55095900000006 376.42162700000006 L 199.26231000000007 376.69530000000003 C 197.35670500000006 378.48971400000005 191.55715000000006 383.94970300000006 191.64363300000008 390.87989200000004 C 191.6911800000001 394.69933900000007 193.51180000000008 398.24473800000004 197.05495300000007 401.41762700000004 C 199.87816900000007 403.94583000000006 203.27156900000006 405.23370400000005 206.94725300000007 405.23370400000005 C 208.93672000000007 405.23370400000005 211.00780200000008 404.85670100000004 213.11707100000007 404.09483300000005 C 223.86895300000006 400.2117410000001 233.47859400000007 387.16676900000004 235.46955900000006 373.75115800000003 C 236.14344700000007 368.82747100000006 236.79075400000005 361.30243600000006 236.12004800000005 353.16692400000005 C 242.01076400000005 355.37180100000006 248.39697500000005 357.25246300000003 255.28242500000005 358.55779300000006 C 263.094283 359.9287810000001 270.942083 360.60304300000007 278.71687700000007 360.60304300000007 C 305.6708960000001 360.60304300000007 331.7881710000001 352.5036590000001 352.8273260000001 337.23710300000005 C 377.4972390000001 319.33527100000003 393.4066100000001 293.18729600000006 397.6243990000001 263.609233 C 406.6421420000001 207.24262700000003 383.0167550000001 161.791883 368.1305710000001 139.71868400000002 C 354.6617980000001 120.13512700000003 341.9305580000001 110.37498400000003 333.50621000000007 103.91651700000003 C 325.00998100000004 97.40301600000002 322.1392180000001 94.90214300000002 323.46303400000005 90.02282000000002 C 323.77339700000005 88.89106300000003 325.21252200000004 87.58222300000003 327.72387800000007 87.22094400000003 C 330.25545000000005 86.85479800000003 339.27544000000006 86.91207900000003 349.1666170000001 102.91616800000003 L 350.6787470000001 105.36275600000003 L 352.3548560000001 103.02548800000004 C 362.1868810000001 89.31336700000004 363.2804510000001 71.95850600000004 355.3547800000001 55.41081400000004 C 349.9655490000001 44.158383000000036 340.9384460000001 34.27993500000004 329.2494850000001 26.843582000000037 C 316.72864800000013 18.877852000000036 301.7249080000001 14.202194000000038 285.86008900000013 13.322770000000038 C 264.6030440000001 12.962614000000038 249.29530500000013 17.736361000000038 238.9825740000001 27.882118000000037 C 228.85665900000012 37.84330400000004 223.72238200000012 53.08440300000004 223.72238200000012 73.18161200000004 C 223.72238200000012 108.85574100000005 237.14660400000014 135.51062800000005 247.93330300000014 156.92828400000005 C 254.60704000000013 170.17991500000005 260.37102800000014 181.62440400000006 261.76223200000015 192.39650200000005 C 264.28032700000017 209.09469600000006 263.04636300000016 224.21187400000005 258.10114900000013 237.36841200000006 C 256.36832100000015 241.97906900000007 254.19241200000013 246.22334600000005 251.65297800000013 250.06605100000007 L 251.65185500000013 250.06539600000008 C 251.62826900000013 250.10381700000008 251.60299800000013 250.13863500000008 251.57922500000012 250.17686800000007 C 250.98171100000013 251.07683600000007 250.37034500000013 251.96168800000007 249.73277200000012 252.81593500000008 C 249.73988500000013 252.81888300000008 249.74606300000013 252.82323500000007 249.75317600000014 252.8262310000001 C 245.81130600000014 257.9690720000001 240.88293900000014 261.02852300000006 235.50774700000014 262.7097330000001 C 236.42741700000013 259.2879270000001 237.45060300000014 254.55129000000008 237.62993200000014 252.82964700000008 C 239.18043600000013 242.6030240000001 239.13906700000013 230.87980700000008 237.48785400000014 217.7170920000001 C 237.94609800000015 211.46884100000008 237.71828600000015 208.0486720000001 235.22583700000013 203.27698400000008 L 234.33836400000013 201.5782250000001 L 230.44778400000013 203.6101840000001 L 229.19790900000012 200.07077500000008 L 224.9986510000001 198.75295000000008 C 224.13850800000012 197.2608500000001 223.58629400000012 195.55628800000008 223.82664800000012 195.01455700000008 L 224.52824000000012 193.43709800000008 L 223.03239600000012 192.57508300000006 C 221.32409000000013 191.59101900000007 218.54617400000012 191.58390600000007 216.4151910000001 192.87608600000007 C 206.46167900000012 186.39188000000007 200.90659700000012 184.14025200000006 196.4301090000001 182.67707300000006 C 196.8411810000001 171.81680800000007 198.0478140000001 160.98462100000006 199.2390980000001 151.39678700000007 C 199.2709200000001 151.40240300000008 199.3042400000001 151.40240300000008 199.3355010000001 151.40951600000008 C 200.27463900000012 135.29479700000007 209.8322410000001 114.65286100000009 213.7304960000001 106.23918400000008 C 221.7366590000001 88.95882600000007 225.6541940000001 65.60598900000008 210.3442090000001 56.66274800000008 C 204.6401220000001 53.32999800000008 198.9543800000001 52.75457200000008 193.90134400000008 54.997122000000076 C 187.3500300000001 57.90401200000007 181.99355700000007 65.47935500000008 178.4440400000001 76.65728300000008 C 178.05187500000008 77.84529100000007 177.68198500000008 79.04406300000008 177.36151400000008 80.25884000000008 C 170.49235000000007 77.05974400000008 165.2313440000001 76.36648200000008 163.80887900000008 76.12800100000008 C 159.81047700000008 57.252775000000085 151.82528000000008 47.758069000000084 139.42125000000007 47.11113600000009 C 136.03721000000007 46.930309000000086 132.86769000000007 48.115978000000084 130.25263100000006 50.52774800000009 C 125.17881700000007 55.20677600000009 122.32246800000007 64.23369200000009 121.74180100000007 77.34867400000009 C 115.60474100000006 78.74755300000008 109.30782000000006 80.78643800000009 103.24170600000006 83.71934800000008 C 84.79889100000007 92.63638300000008 72.69511600000007 107.61840800000007 67.26582500000006 128.24948700000007 C 66.02699400000006 133.3407100000001 66.92476300000007 138.34320500000007 69.92543600000006 143.15251800000007 C 74.76825700000006 150.91439600000007 85.13003200000006 157.84748600000006 99.35955000000007 163.08949200000006 C 109.59721800000007 166.45996100000008 120.72909700000007 169.12621700000005 120.79311700000007 169.14250300000006 L 120.81033900000007 169.07539500000007 C 125.61516000000007 170.07864600000008 129.99168700000007 170.82291700000007 133.95208900000006 171.18756600000006 C 133.95190200000005 171.18981200000007 133.95227600000007 171.19187100000005 133.95190200000005 171.19411800000006 C 134.02846300000004 171.20085700000007 134.10146800000004 171.20422600000006 134.17765400000005 171.21077800000006 C 134.56701100000004 171.24531500000006 134.94438900000006 171.26862000000006 135.32551000000004 171.29557600000007 C 135.64747900000003 171.31785200000007 135.97131900000005 171.34228000000007 136.28842100000003 171.35940800000006 C 136.71053700000002 171.38233900000006 137.124229 171.39647200000005 137.53623700000003 171.40920100000005 C 137.87580200000002 171.42024500000005 138.21312000000003 171.42885600000005 138.54632000000004 171.43316100000004 C 138.69850600000004 171.43475200000003 138.85855500000002 171.44420500000004 139.00943100000003 171.44420500000004 C 139.10639600000005 171.44420500000004 139.19475000000003 171.43531300000004 139.29096600000003 171.43447100000003 C 142.82719300000002 171.42670300000003 145.98866300000003 171.03463100000002 148.64265800000004 170.13573900000003 C 156.04194700000005 167.62943800000002 157.01702600000004 161.74134200000003 157.02900600000004 161.50417100000004 L 157.12297600000005 159.62009300000005 L 155.94517000000005 161.09328700000006 C 155.91933800000004 161.12567100000007 152.60437100000004 164.69652800000006 146.49183300000004 166.49337500000007 C 143.13774300000003 167.47912300000007 138.64965000000004 167.76552600000008 133.79372600000005 167.31102600000008 C 130.16221900000005 166.9548010000001 126.15015200000005 166.26912000000007 121.79384100000004 165.36405200000007 C 121.34345900000004 165.25108200000008 119.75214800000005 164.86303500000008 117.49537200000005 164.42641200000008 C 95.38716900000004 159.35334600000007 79.27656800000005 150.8977380000001 73.17806900000005 141.12336800000008 C 70.74383600000004 137.22155700000008 70.00480600000004 133.20705700000008 70.98194300000004 129.1903110000001 C 81.75329300000004 88.25967000000009 117.98918200000004 79.5146640000001 142.54996200000005 78.49091500000009 C 152.14612600000004 78.16333100000008 157.06756700000005 78.75953400000009 157.11230500000005 78.76749000000008 L 161.18820400000004 79.33861000000007 C 161.27169100000003 79.36013700000008 169.34337100000005 81.47670700000008 176.99611700000003 81.71256700000008 C 176.81173400000003 82.48613400000008 176.74808900000002 83.47422200000008 176.75801 84.53625100000008 C 176.733301 88.28774800000008 177.66626100000002 92.52210400000008 177.66626100000002 92.52210400000008 C 177.66626100000002 92.52210400000008 179.28490200000002 87.73572200000008 180.279636 84.30282400000009 C 180.441931 83.77466400000009 180.55536800000002 83.39251400000009 180.589063 83.25071600000008 C 183.71627700000002 70.13273900000009 188.953135 61.386891000000084 195.456154 58.501340000000084 C 199.390911 56.75559600000008 203.749842 57.250155000000085 208.410526 59.973036000000086 C 221.49855200000002 67.61829400000009 217.58214 88.80645300000009 210.25173800000002 104.6278440000001 C 204.098205 117.9094260000001 197.23166200000003 134.50784700000008 195.73132500000003 148.5387550000001 C 194.53554800000003 158.02354000000008 193.24355500000001 168.90018500000008 192.70145000000002 179.9737540000001 C 192.699765 184.9073620000001 192.87347900000003 186.1521830000001 193.24411700000002 193.2963310000001 C 194.92378300000001 190.7832910000001 195.69706900000003 188.3362350000001 196.057037 186.5937670000001 C 200.42102300000002 188.0770690000001 205.755782 190.4134010000001 215.457896 196.8336810000001 L 216.807918 197.72695700000008 L 217.914966 196.54596800000007 C 218.452204 195.97166600000008 219.273599 195.74872100000007 219.96695499999998 195.71764700000008 C 220.123821 198.2260080000001 221.735536 200.80812100000009 222.143613 201.4256650000001 L 222.519306 201.99341600000008 L 226.221384 203.1547500000001 L 228.305008 209.0542640000001 L 232.64728 206.7864440000001 C 233.942455 209.89606200000011 234.029125 212.5712100000001 233.65043699999998 217.62331000000012 L 233.636023 217.8157420000001 L 233.660358 218.0070510000001 C 235.935853 235.9943360000001 235.036025 251.4829010000001 231.098086 263.7742890000001 C 228.97459 264.1520870000001 226.808041 264.3598230000001 224.62651599999998 264.4309090000001 C 228.279924 249.6622810000001 216.15930199999997 232.4656910000001 207.89556399999998 227.32898000000012 C 205.50663099999997 225.84399300000013 202.76615399999997 224.6955760000001 199.82800299999997 223.89758000000012 C 199.32857699999997 221.35777100000013 198.84637299999997 218.8545590000001 198.38064199999997 216.4035720000001 C 198.06690999999998 214.8049600000001 196.21334399999998 207.2057510000001 193.24411899999996 203.1100100000001 C 193.45077799999996 205.1852100000001 193.59510199999997 212.4015200000001 194.61660399999997 217.1306220000001 C 196.68656299999998 228.0266410000001 199.03543699999997 239.8451370000001 202.16414899999998 252.3592360000001 C 203.05405499999998 255.6234740000001 204.012848 258.9461160000001 204.940193 262.1594380000001 C 211.403901 284.55310800000007 218.087372 307.7093940000001 207.932255 328.3142660000001 C 207.932255 328.3142660000001 213.15133 326.1305880000001 214.933576 320.6401800000001 C 214.94143799999998 320.6117740000001 214.94798999999998 320.5831800000001 214.95566499999998 320.5547740000001 C 234.900501 332.23521700000015 233.331091 361.10560500000014 231.674075 373.20980200000014 C 229.878164 385.3124550000001 221.338881 397.04933600000015 211.81497299999998 400.48915900000014 C 208.54811399999997 401.66883700000017 203.77960799999997 402.29218400000013 199.612735 398.56184000000013 C 196.90220799999997 396.1343460000001 195.51063 393.5338870000001 195.476935 390.8319710000001 C 195.411418 385.5865020000001 200.287746 380.9954540000001 201.89010199999998 379.4866940000001 L 202.21656299999998 379.1770800000001 C 207.93899499999998 373.6417460000001 209.989299 369.39849800000013 210.72327499999997 367.1497720000001 C 211.75020499999997 366.5808510000001 212.69926399999997 365.9506730000001 213.55790999999996 365.2430900000001 C 217.49921799999996 361.9956520000001 218.06135299999997 357.30029100000013 218.06135299999997 357.30029100000013 C 218.06135299999997 357.30029100000013 213.51897399999996 360.7980500000001 210.85861399999996 362.4113100000001 C 206.57530799999995 365.00863300000015 200.92269799999997 366.8786720000001 193.79783099999997 368.0710330000001 C 177.51108299999999 369.7755950000001 163.55074599999998 367.32152000000013 152.29981299999997 360.7743240000001 C 152.29981299999997 360.7743240000001 140.37482099999997 354.5267820000001 137.04673399999996 325.1237820000001 C 134.19469099999995 305.91236100000015 135.25007399999996 286.2651590000001 139.86845199999996 272.5376870000001 C 147.54590699999997 255.78221300000013 147.23704199999997 233.95985000000013 146.95887599999998 227.66124500000012 L 146.95550699999998 227.60396500000013 C 150.98142599999997 232.21392000000014 154.749769 237.75964300000012 157.98106199999998 244.43319200000013 C 157.98106199999998 244.43319200000013 157.98106199999998 235.20504600000012 152.56000799999998 228.70053000000013 C 131.89822999999998 201.93969200000012 102.42349599999997 201.28901600000012 101.93417899999997 201.28901600000012 L 101.93080999999997 201.28901600000012 C 92.27081399999997 201.38017800000011 78.85576499999996 208.6143650000001 72.07326999999997 220.4014130000001 C 70.62909099999996 222.8611040000001 69.25810299999996 229.0711680000001 70.86120799999996 233.0497280000001 C 71.14517699999996 231.8781930000001 71.46246599999996 230.8101740000001 71.77900599999997 229.8666370000001 C 72.50830199999997 231.43005700000012 73.37518399999996 232.68676400000012 74.19564299999996 233.7881970000001 C 75.44121199999996 235.4601880000001 76.51643799999997 236.90380500000012 76.91665299999997 238.62484000000012 C 78.06113899999997 243.54871400000013 77.50593099999996 247.1824680000001 75.21920399999996 249.7335080000001 C 74.70929499999997 250.30256900000012 74.23195799999996 250.6878080000001 73.75986199999996 250.9120630000001 C 73.16197399999996 251.1947220000001 72.37651999999996 251.3134010000001 71.35894899999995 251.2797060000001 C 66.40437499999996 251.1224650000001 61.75829299999995 247.56733200000008 60.31055699999995 242.8269050000001 C 59.01332299999995 238.5802880000001 58.83848599999995 234.85556000000008 59.76021499999995 231.1042500000001 L 59.78099299999995 231.0198270000001 C 59.78735699999995 231.0202010000001 59.79372199999995 231.02029500000012 59.799898999999954 231.02057600000012 C 59.79952499999995 230.9932460000001 59.80120899999995 230.96666500000012 59.80083499999996 230.9393350000001 L 59.811504999999954 230.89571900000013 L 59.80139699999995 230.88972900000013 C 59.573397999999955 208.49325100000013 76.65626999999995 191.88771700000012 86.30765499999995 182.51805500000012 C 86.31364499999995 182.51225200000013 86.31720199999995 182.50635600000012 86.32319199999995 182.50064600000013 C 86.41416699999995 182.40574000000012 86.51206799999994 182.29351900000012 86.61520999999995 182.16866300000012 C 86.71704199999995 182.0487670000001 86.81775099999994 181.92915200000013 86.90236099999994 181.80766500000013 C 87.80237599999994 180.63903100000013 89.06928499999994 178.73754400000013 90.65853699999994 177.29130600000013 L 93.62963399999994 181.18637800000013 L 98.01814199999994 176.72664400000014 L 101.86304699999994 177.24441500000015 L 102.44408799999994 176.88959400000016 C 103.07567099999994 176.50323200000017 105.63007999999994 174.84808800000016 106.83559099999994 172.64279000000016 C 107.45070099999994 172.96494600000017 108.09969199999993 173.51510000000016 108.34304099999994 174.26302200000015 L 108.84471299999994 175.80220100000014 L 110.44650699999994 175.56540400000014 C 124.88904799999995 173.43067700000014 121.01756199999994 174.74167000000014 126.38245899999994 174.61026100000015 C 133.78418199999993 174.42896600000014 144.59484099999995 175.91807200000014 152.36757699999993 177.18011400000015 C 153.66724499999992 177.39117200000015 157.97301399999992 178.21846300000016 161.59010699999993 177.08520800000014 C 157.18269299999994 174.22717400000013 150.85057999999992 173.19462800000014 150.09170699999993 173.07501300000013 C 143.99489299999993 172.11378700000012 135.85133199999993 171.11399900000012 126.91595299999993 170.81383800000012 C 121.71054299999993 170.63900200000012 125.24976499999993 169.60973100000012 111.25704399999994 171.57523800000013 C 109.87501199999994 169.50153500000013 107.35598199999994 168.33009300000012 105.39178599999994 168.49688100000012 L 103.67149999999994 168.64363900000012 L 103.63799299999994 170.36963400000013 C 103.62601299999994 170.96209400000012 102.40328099999994 172.27168300000014 100.99148499999994 173.25864800000014 L 96.62955799999995 172.67161700000014 L 93.99708999999994 175.34713900000014 L 91.33504599999995 171.85752300000013 L 89.81112299999995 173.01941800000012 C 87.13634999999995 175.05961400000012 85.49019099999995 177.00649500000011 84.08326299999996 179.6008690000001 C 83.97731299999995 179.7038240000001 83.87847599999996 179.7999470000001 83.77046699999995 179.9048670000001 C 73.59812899999996 189.7808820000001 55.521085999999954 207.3397800000001 56.151544999999956 231.5711050000001 C 55.32172699999995 236.0796960000001 55.470543999999954 240.2388950000001 56.60604499999996 243.9579140000001 C 58.52288199999996 250.2340570000001 64.67472999999995 254.9415380000001 71.23390499999996 255.1515670000001 C 71.38215999999997 255.1560600000001 71.52816899999996 255.15830600000012 71.67155799999996 255.15830600000012 C 73.13389499999997 255.15830600000012 74.35962199999996 254.91383400000012 75.41949799999996 254.41103900000013 C 76.36593599999996 253.96215500000014 77.24386199999996 253.27741000000012 78.10344399999997 252.31861700000013 C 81.25012599999997 248.80766100000014 82.12018999999997 243.90550100000013 80.68930199999997 237.74803700000012 C 80.10601499999997 235.23780500000012 78.68036699999998 233.32471200000012 77.30151799999997 231.4745150000001 C 75.83075799999997 229.5003980000001 74.62468499999997 226.8618460000001 74.06816599999998 224.4594350000001 C 79.97966099999998 211.8295590000001 93.92090399999998 205.0068180000001 101.96525399999997 204.9310060000001 L 101.96824899999997 204.9310060000001 C 102.12885899999998 204.9310060000001 105.67051399999997 205.0099070000001 111.04158799999998 206.21719600000011 L 110.30049799999998 207.3551310000001 C 105.40769699999997 214.55075600000012 103.27783699999998 225.80580800000013 102.48976299999998 231.3024870000001 C 101.65451599999999 230.6832590000001 100.71257099999998 229.9723070000001 99.85298899999998 229.3126460000001 L 97.42212599999998 227.4471000000001 L 96.80813899999998 230.4492710000001 C 96.71192299999998 230.9191210000001 94.65881099999999 241.2872610000001 98.37717499999998 249.4521610000001 C 96.58163799999998 250.0912310000001 95.10282899999999 249.8209270000001 95.08373499999998 249.8171840000001 L 92.77866399999998 249.3402210000001 L 92.77866399999998 251.6943360000001 C 92.77866399999998 257.9360360000001 93.37093699999998 260.7918230000001 94.60752099999998 263.4772660000001 C 94.43530499999997 263.8243180000001 94.30352299999998 264.1826020000001 94.18222299999998 264.5120580000001 C 94.07028299999998 264.81605600000006 93.89507199999998 265.2926450000001 93.75018599999999 265.5258850000001 C 93.58620699999999 265.48620000000005 93.24963699999998 265.36752100000007 92.69143299999999 265.0133560000001 L 89.272201 262.8453090000001 L 89.762267 266.8639270000001 C 89.954512 268.4411060000001 90.411446 269.9238460000001 90.98893 271.2727450000001 L 90.917985 271.2258540000001 C 84.053313 281.6093440000001 78.761047 296.08483000000007 75.187944 314.2506020000001 C 72.419762 328.3232540000001 70.832007 344.4894500000001 70.832007 358.6040330000001 C 70.832007 367.84397200000006 69.196518 374.6956810000001 68.083667 378.28946900000005 C 64.842641 372.9811040000001 57.995003000000004 363.30529000000007 50.78309200000001 362.62756500000006 C 43.437714000000014 361.38237000000004 35.993499000000014 365.02847800000006 33.44919700000001 371.12828700000006 C 31.851334000000012 374.95859100000007 32.33840500000001 378.96373200000005 33.02839100000001 381.64954900000004 Z M 160.386092 78.535093 C 158.71616 77.984751 147.856269 74.543805 138.541079 74.930729 C 137.438898 75.009724 136.762015 75.017211 135.24558 75.165841 C 135.232477 75.167151 135.21862399999998 75.167526 135.205708 75.168836 C 135.17725499999997 75.171644 135.14824 75.175294 135.11997399999998 75.178196 C 135.07336299999997 75.182876 135.033866 75.186245 134.985945 75.191206 C 134.985571 75.191768 134.98519599999997 75.192236 134.985009 75.192797 C 131.968799 75.50184899999999 128.826609 75.938847 125.61459799999999 76.542819 C 126.38919499999999 62.255458999999995 129.92804199999998 56.041838 132.85159299999998 53.34609999999999 C 134.716391 51.62581399999999 136.85897999999997 50.815650999999995 139.221331 50.939570999999994 C 149.895341 51.49627699999999 156.792958 60.39571599999999 160.309156 78.146298 L 160.386092 78.535094 Z M 220.94297 263.385496 C 220.879138 263.81889 220.748104 264.153635 220.566529 264.417059 C 216.719191 264.276572 212.886266 263.798299 209.227055 263.188758 C 209.026012 262.490629 208.824781 261.79296800000003 208.623738 261.096196 C 207.700137 257.89635200000004 206.745088 254.58756200000002 205.873152 251.38996400000002 C 203.866276 243.36152500000003 202.181744 235.60264200000003 200.680846 228.17677200000003 C 202.549013 228.81724600000004 204.305427 229.61103000000003 205.87184200000002 230.58461100000002 C 213.09105300000002 235.07233000000002 224.091338 250.23771000000002 220.94297100000003 263.38549700000004 Z M 235.645145 348.88203 C 233.90557800000002 336.547728 228.72600100000002 323.636551 215.862978 316.67467999999997 C 219.040547 300.58176899999995 215.062362 283.77982399999996 210.3882 267.25305099999997 C 214.248455 267.83441999999997 218.405033 268.259999 222.630871 268.259999 C 232.425832 268.259999 242.585441 265.977999 250.25728 258.097676 C 250.24679700000002 258.149341 250.234443 258.200678 250.22414700000002 258.252389 C 250.544057 257.87927 250.86621200000002 257.492908 251.189117 257.097373 C 252.520046 255.60882900000001 253.77048200000002 253.94315600000002 254.919461 252.07059 L 254.89887000000002 252.05800100000002 C 262.87489500000004 240.042626 269.912344 220.73190000000002 265.55884100000003 191.86488200000002 C 264.08939100000003 180.48441300000002 258.18912800000004 168.76887100000002 251.35702800000004 155.20388200000002 C 240.75302700000003 134.14862900000003 227.55605600000004 107.94487100000002 227.55605600000004 73.18161500000002 C 227.55605600000004 54.15027200000002 232.30509400000005 39.828656000000024 241.67101300000004 30.614736000000022 C 251.21326600000003 21.22747700000002 265.62286100000006 16.82474300000002 285.72269100000005 17.15307600000002 C 315.06002700000005 18.78126400000002 341.06461300000007 34.44915800000002 351.89736100000005 57.06708300000002 C 358.75042700000006 71.37522100000001 358.31951300000003 86.29023200000002 350.80978100000004 98.43593900000002 C 346.70767600000005 92.52332100000002 337.74309400000004 81.90434500000002 327.1776550000001 83.42620900000001 C 323.4589170000001 83.96157600000001 320.5488440000001 86.15470600000002 319.7645140000001 89.01386300000001 C 317.6986730000001 96.62842200000001 323.0594520000001 100.73801500000002 331.17381100000006 106.95874900000001 C 339.40610100000004 113.27008400000001 351.84719500000006 122.80784400000002 364.96180200000003 141.87662600000002 C 379.52227400000004 163.46687200000002 402.648609 207.93710900000002 393.83378100000004 263.035683 C 389.75900500000006 291.609279 374.39810500000004 316.84787900000003 350.57579300000003 334.134227 C 324.30315 353.198516 289.82067900000004 360.726967 255.97091500000005 354.786645 C 248.60700500000004 353.390574 241.82956400000006 351.316497 235.64514500000004 348.88203000000004 Z M 138.166884 346.589033 C 133.09438 342.75915 130.41417800000002 340.03144799999995 127.96721600000001 337.040369 C 117.74620800000001 324.547985 112.75382200000001 317.016913 107.84642000000001 297.333021 L 107.72624300000001 296.99195899999995 C 105.748382 292.71726299999995 102.58185800000001 291.04227699999996 100.03755600000001 289.69637399999993 C 98.22629500000001 288.73832999999996 96.98110000000001 288.03224499999993 96.206129 286.87652699999995 C 99.937596 284.28842299999997 99.766129 279.16200799999996 99.03234 276.51213099999995 L 98.89082400000001 276.00109899999995 L 98.50708200000001 275.63532799999996 C 98.47488500000001 275.60425399999997 95.75687100000002 272.963737 94.33758800000001 269.35207199999996 C 94.57120200000001 269.32249599999994 94.79920100000001 269.269708 95.02233300000002 269.194083 C 96.76058900000002 268.605554 97.37420200000001 266.938805 97.78003200000002 265.83624899999995 C 97.83656400000002 265.68162899999993 97.91218900000003 265.47646799999995 97.97733100000002 265.3207249999999 L 99.53139100000003 264.67304399999995 L 98.55762300000002 262.81835499999994 C 97.36334400000003 260.54360899999995 96.75609600000001 258.5432849999999 96.63517100000001 253.68006099999994 C 98.09526100000001 253.58534199999994 100.06526000000001 253.17427099999995 102.02440200000001 251.89051399999994 L 103.56311300000002 250.88192799999993 L 102.61892100000001 249.30315799999994 C 99.78372500000002 244.56273099999993 99.81217800000002 238.11998799999995 100.14837300000002 234.34134899999995 C 101.45534100000002 235.30987599999995 102.70278300000003 236.19716099999994 103.18012000000002 236.42441099999996 L 105.66152500000001 237.60633599999997 L 105.91348400000001 234.86922799999996 C 105.92845900000002 234.70449999999997 107.49824400000001 218.29383199999995 113.49172800000001 209.47900299999998 L 114.96024200000001 207.22428599999998 C 122.890218 209.52261799999997 133.30553 214.12227799999997 142.854522 223.30409399999996 L 143.13044200000002 227.86154199999996 C 143.39812500000002 233.92278899999997 143.70362100000003 255.04355999999996 136.34326800000002 271.02780699999994 L 136.26876600000003 271.2149979999999 C 128.75416700000002 293.4292449999999 131.22658700000002 326.95123799999993 138.16688400000004 346.5890329999999 Z M 36.98710600000001 372.60410099999996 C 39.05332100000001 367.65065 45.332459000000014 365.56833699999993 50.20691500000001 366.41818399999994 L 50.37538700000001 366.4398979999999 C 56.49017100000001 366.9533629999999 63.875608000000014 378.3512409999999 66.41167300000001 383.05928399999993 C 66.46258900000001 383.1536279999999 66.41167300000001 383.05928399999993 66.55843100000001 383.33426799999995 C 68.18025500000002 386.12659699999995 69.20868200000001 389.10330999999996 69.20868200000001 389.10330999999996 C 69.20868200000001 389.10330999999996 71.60903300000001 386.06585399999994 70.623472 382.583351 C 71.103617 381.468675 74.665676 372.723809 74.665676 358.604032 C 74.665676 331.550474 80.365457 295.647177 93.05794900000001 275.01029600000004 C 94.00794400000001 276.39990900000004 94.921811 277.436386 95.43789600000001 277.980831 C 95.695097 279.29641000000004 96.145104 283.09826100000004 93.07217500000002 284.20456 L 91.37285400000002 284.8163 L 91.88238800000002 286.548941 C 92.98719000000003 290.303994 95.78045500000002 291.78130600000003 98.24501300000001 293.084905 C 100.55345300000002 294.30613999999997 102.73610200000002 295.46110899999996 104.17260600000002 298.444186 C 109.23238100000002 318.658577 114.66803600000001 326.839951 124.99986100000001 339.46786099999997 C 127.52095100000001 342.549401 130.249448 345.35254 135.19747 349.147185 C 117.02215100000001 373.733237 85.866816 394.554174 72.261019 398.136169 L 72.27168900000001 398.176789 C 69.70436300000001 398.833643 67.654621 399.209101 66.28550500000001 399.23240599999997 C 54.35020100000001 399.43607 39.904665000000016 393.00830199999996 36.74151000000002 380.69562099999996 C 36.197158000000016 378.577367 35.79806700000002 375.45464499999997 36.98710500000002 372.60409899999996 Z &#10;" stroke-width="0px" fill="#0c0c0c" /></g></g></svg>