<?xml version='1.0' encoding='utf-8'?>
<svg viewBox="0 0 216 216" width="216px" height="216px" version="1.1" xmlns="http://www.w3.org/2000/svg" xmlns:xlink="http://www.w3.org/1999/xlink"><g isolation="isolate"><g id="Layer_1"><path d="M 87.231982 104.460706 C 87.087751 104.216841 83.5922485 104.7640655 83.5922485 104.7640655 L 84.08092049999999 107.242851 L 83.255827 109.084715 L 82.9579735 111.9312235 L 80.69559749999999 112.49583200000001 L 82.05877849999999 115.8312585 L 85.375092 119.8875055 L 87.6242305 113.94054150000001 L 87.23198149999999 104.46070650000001 Z M 117.851969 43.206345500000005 C 117.724722 42.24112050000001 117.535308 41.27004600000001 117.2879025 40.309148500000006 C 117.2897725 40.315237 117.6245245 41.417472000000004 117.851969 43.206345500000005 Z M 100.96611899999999 137.1866695 C 100.735565 137.155445 100.499771 137.12174149999998 100.25899749999999 137.0854285 C 101.926756 133.3771945 100.29961549999999 128.296684 98.683978 124.912699 C 96.9898795 121.6711335 97.1056785 117.9239355 98.1484205 114.70479850000001 C 99.900311 109.29639 105.853202 108.79226000000001 107.943411 107.5608325 C 110.256981 110.654601 109.8500375 119.814967 100.9661185 137.1866695 Z M 159.5074975 109.0846665 C 160.552583 105.397228 169.9583915 100.22170849999999 174.578275 99.06169849999999 C 174.172173 101.6139705 175.930644 104.34937 175.930644 104.34937 C 175.930644 104.34937 177.102958 100.3018575 179.6583025 97.8441395 C 180.8306165 98.67813 181.0260025 100.722477 181.0260025 100.722477 C 181.0260025 100.722477 183.1053295 97.317332 182.2533865 94.483316 C 184.136843 96.5638435 185.715249 95.4471775 185.715249 95.4471775 C 191.1860585 83.990415 194.5173815 79.2902435 194.647637 79.0297325 C 194.647637 79.0297325 196.554765 74.52873249999999 200.5927245 77.0152425 C 203.8491525 78.8745255 206.628142 76.6946865 207.6266095 75.5010035 C 208.75095100000001 74.156836 208.832748 66.9375465 203.2304315 67.9187905 C 194.8939755 69.3789185 194.42760850000002 71.255603 187.296031 78.3546165 C 179.80400649999999 85.812431 174.479442 85.7987035 169.19710800000001 85.087432 C 155.91780150000002 83.0633035 157.754413 82.87681300000001 147.63316150000003 83.96974250000001 C 148.32095750000002 83.89547200000001 148.21445350000002 82.71145150000001 148.38365050000002 82.01945950000001 C 165.03074700000002 78.2584405 173.15435050000002 72.2231045 171.886514 62.96905800000001 C 163.4474085 40.63777500000001 148.9121475 40.53742250000001 144.520716 38.31176150000001 C 144.520716 26.65027100000001 140.100902 22.606440500000012 135.4002615 23.84344450000001 C 132.60492299999999 24.57902450000001 127.8479825 25.99646000000001 125.491559 37.68802250000001 L 117.28774949999999 40.30833550000001 C 114.90581599999999 31.058006000000013 107.25402899999999 22.76186900000001 100.05948799999999 29.91223150000001 C 89.307251 40.59891850000001 110.42594249999999 63.99724850000001 107.56412499999999 78.32568 C 106.78309949999999 80.34016150000001 106.1447465 82.11947400000001 105.63065149999998 83.6963925 C 104.62822549999999 85.903132 102.83894549999998 89.556365 101.79073599999998 90.0114985 C 80.04619349999999 99.447328 80.56113299999998 119.66479050000001 90.44347999999998 126.8408325 C 92.48076899999998 128.61136 94.49955899999998 130.4106075 95.60546249999997 132.706549 C 96.16145549999997 133.8607705 96.38319349999998 134.9393055 96.36055549999998 135.9374235 C 94.53199599999998 135.2386735 93.01657349999998 134.94167099999999 91.77779549999997 134.9369405 C 80.57490199999997 130.77755299999998 68.54021499999996 120.09018999999999 78.31114399999997 92.65073299999999 C 106.55857349999997 36.303023999999986 92.65554099999997 9.158879999999982 68.60111899999997 8.202659999999995 C 34.20178299999997 6.835231499999995 21.816369499999972 36.156043499999996 31.526394499999967 55.28179349999999 C 31.526394499999967 55.28179349999999 40.86237849999996 40.677645999999996 45.944366499999965 47.19007799999999 C 49.515492999999964 51.766417999999994 38.62928399999996 56.85837399999999 28.221353999999966 70.0248125 C 13.4132915 88.7576 0.693455 127.4534215 14.3600505 160.9130095 C 33.552870999999996 201.43848849999998 76.59788850000001 200.0044965 94.276469 189.487767 L 94.277145 189.485064 C 97.16852750000001 191.184635 100.841274 192.57977 105.45410600000001 193.0061835 L 102.01196750000001 192.863933 C 100.28435200000001 196.2944985 96.75630550000001 198.75195 92.9397885 199.1837695 C 91.17770850000001 199.382785 89.23958900000001 199.22195050000002 87.80509 200.26433200000002 C 85.903378 201.64628950000002 85.87381300000001 204.68760950000004 87.261937 206.58484450000003 C 88.65006100000001 208.48207950000003 91.025406 209.40214550000002 93.343901 209.78936400000003 C 94.99507 210.06541750000002 96.700216 210.11880350000004 98.335335 209.75996800000004 C 101.8276495 208.99262700000006 104.7049255 206.38380200000003 106.524362 203.30565250000004 C 108.34379849999999 200.22750300000004 109.23396149999999 196.69692250000003 109.93761099999999 193.19100800000004 L 108.62339999999999 193.13694600000005 C 108.82410499999999 193.13559450000005 109.020079 193.13998700000005 109.22399399999999 193.13491850000005 C 111.66463549999999 189.71719250000007 118.5303285 180.03234050000006 121.139153 177.77322850000004 C 129.6958855 170.36438250000003 138.4205475 168.70772300000004 142.479414 169.64975150000004 C 146.822612 170.65766800000003 145.733814 180.98957400000003 147.3000885 184.89216750000003 L 147.1675525 184.89757350000002 C 147.8711595 188.40315 148.761365 191.93406800000002 150.5807595 195.01221800000002 C 152.400238 198.09003 155.277472 200.6991925 158.7698285 201.46619550000003 C 160.40490549999998 201.82536950000002 162.1100515 201.77198300000003 163.76122049999998 201.49592950000002 C 166.07980049999998 201.10837300000003 168.45506099999997 200.188307 169.84318449999998 198.29141 C 171.23130849999998 196.39417500000002 171.2017435 193.352855 169.30007349999997 191.9708975 C 167.86557449999998 190.9285165 165.92741299999997 191.0893505 164.16537499999995 190.8899975 C 160.69485399999996 190.49737299999998 157.46778099999995 188.42680199999998 155.61121899999995 185.475698 C 159.32636999999994 184.3836475 163.12248699999995 182.479655 165.42459499999995 180.4824055 C 169.24977049999995 177.1636805 173.66341799999995 170.6833475 173.66341799999995 167.2416315 C 173.66341799999995 158.268369 162.33499949999995 147.67899350000002 157.47998699999994 138.25836900000002 C 156.28597899999994 135.94147850000002 155.17648549999993 133.68777300000002 154.19864049999993 131.4925215 C 154.57403299999993 122.330718 153.34800999999993 112.86616800000002 151.23980699999993 107.4285545 L 152.83540149999993 109.0846665 L 153.79939949999994 104.7640655 L 156.84955299999993 108.472566 L 157.12984049999994 106.3719425 &#10;" stroke-width="0px" fill="#c56439" /><path d="M 155.188123 131.653559 L 155.8003525 127.3138515 L 154.1960655 128.6565125 C 154.197892 128.12917199999998 154.1961525 127.6098335 154.190673 127.098497 L 156.035799 118.5563315 L 155.5644715 118.3507185 C 155.5644715 118.3507185 154.809078 118.9511195 154.67496 119.1522965 C 154.540842 119.3534735 155.2725775 113.789568 155.2725775 113.789568 C 155.2725775 113.789568 154.12978950000002 113.8057455 152.9888275 113.812095 C 149.61978100000002 96.477358 139.896297 94.477761 132.68548500000003 94.4833275 C 127.15193400000003 94.4875895 116.43882750000003 96.0512585 114.30563450000002 108.978098 C 112.17226750000003 121.904938 131.43641100000002 154.647267 123.36470300000002 175.975892 L 123.13943300000003 176.5334135 C 123.13943300000003 176.5334135 133.54124950000002 168.3686405 142.48220350000003 170.0356375 C 144.22591450000002 170.84747900000002 143.23394400000004 169.947617 143.23394400000004 169.947617 C 143.23394400000004 169.947617 150.45988950000003 161.62750350000002 153.12938150000002 144.046274 L 154.51927100000003 141.201524 L 156.03579850000003 136.4044925 L 154.19876150000002 135.5083705 L 155.18812250000002 131.6535585 Z &#10;" stroke-width="0px" fill="#e7caae" /><path d="M 162.373471 60.349815 C 160.8871215 60.5876625 159.383692 60.830317 157.99821599999999 61.418757 C 156.03972549999997 62.250568 154.41663749999998 63.7308005 152.47924849999998 64.6106405 C 146.74885949999998 67.213022 138.8497635 64.4817345 133.06378099999998 66.958053 C 129.05109649999997 68.675425 127.24443799999997 72.78094800000001 127.72827099999998 77.11879400000001 C 128.23159449999997 81.6313815 132.15246649999997 84.849562 136.69045199999996 84.6963635 C 138.52633899999998 84.63438550000001 140.42346449999997 84.1062015 142.21666399999995 83.707758 C 148.29285799999994 82.357646 163.88148649999994 80.085026 170.67722949999995 70.4105435 C 171.09603499999994 69.814328 171.90875149999997 66.9599675 171.77810399999996 65.43337050000001 C 171.56838299999995 62.98280550000001 171.09723949999994 59.958610500000006 170.54357799999997 59.70793100000001 C 168.28402999999997 58.684883000000006 164.87319649999998 59.94980550000001 162.37347049999997 60.34981450000001 Z &#10;" stroke-width="0px" fill="#e7caae" /><path d="M 137.310511 60.103945 C 138.6778905 57.18485750000001 142.80047 56.5173295 145.389009 58.177468000000005 C 145.75498149999999 58.432937 146.1203785 58.7419895 146.305885 59.165603000000004 C 145.48622899999998 59.019331 144.7515565 59.0752845 143.9557025 59.096325500000006 C 143.955701 59.096342500000006 142.83817 59.146088500000005 142.83817 59.146088500000005 C 140.9187905 59.19938200000001 139.23668999999998 59.6136325 137.310511 60.1039455 L 137.310511 60.1039455 Z &#10;" stroke-width="0px" /><path d="M 157.129835 40.5068165 C 157.24899850000003 37.902739499999996 160.593173 36.5436605 162.6968085 37.8704135 C 162.99041350000002 38.066967999999996 163.2806535 38.318926999999995 163.4060715 38.6698635 C 162.7648535 38.681726499999996 162.264963 38.8399175 161.6863455 38.976375 C 161.257566 39.0879505 160.620419 39.229423499999996 160.2071595 39.3513635 C 159.388533 39.569067 157.95738849999998 40.180691499999995 157.12983499999999 40.5068165 L 157.12983499999999 40.5068165 Z &#10;" stroke-width="0px" /><path d="M 159.5075365 55.5929205 C 160.87487499999997 52.673859 164.99747349999998 52.006335 167.585941 53.6664435 C 167.9519135 53.9219125 168.3173105 54.231012 168.502817 54.6545785 C 167.68316199999998 54.508314999999996 166.9484875 54.564323 166.1526345 54.585301 C 166.152633 54.585318 165.035102 54.635111 165.035102 54.635111 C 163.115795 54.688306000000004 161.4336105 55.1027055 159.5075365 55.592921000000004 L 159.5075365 55.592921000000004 Z &#10;" stroke-width="0px" /><path d="M 113.734871 49.310318 C 113.727165 48.430983000000005 113.719459 47.551648 113.7117525 46.672313 C 113.6859255 43.7252215 113.646527 40.703494000000006 112.58599550000001 37.953714500000004 C 111.52546400000001 35.203935 109.2091465 32.740210000000005 106.284822 32.3736815 C 103.420702 32.014699500000006 100.44046750000001 33.963806000000005 99.621341 36.7316725 C 99.621341 36.7316725 110.15010000000001 31.34615 113.734871 49.3103185 Z &#10;" opacity=".35" fill="#754123" mix-blend-mode="multiply" stroke-width="0px" /><path d="M 99.621364 36.731687 C 100.241362 33.178088 103.7501005 30.75827 107.3071025 31.679613 C 110.1962525 32.3567425 112.32603 34.865108 113.0988115 37.643372 C 113.94581199999999 40.230728 114.207094 43.06329 113.734901 45.7147075 C 113.458517 43.6062225 113.08402749999999 41.548643000000006 112.38028399999999 39.5572025 C 111.701292 37.6558645 110.96715249999998 35.7758125 109.40740399999999 34.461125 C 105.97868799999999 31.495855500000005 101.60162199999999 32.7941025 99.62136399999999 36.7316875 L 99.62136399999999 36.7316875 Z &#10;" stroke-width="0px" /><path d="M 159.9456565 71.371753 C 157.6532205 75.6805305 149.1486575 81.7264045 147.653144 72.0349085 L 150.33915149999999 72.570378 L 155.82469949999998 72.3065705 L 159.94565649999998 71.37175300000001 Z &#10;" stroke-width="0px" /><path d="M 31.526386 55.2817235 C 34.655819 33.194283 49.844909 31.905042499999997 54.8566985 35.8040515 C 60.0182425 39.759853 65.18153050000001 48.943669 54.874409 68.5013735 C 41.5976755 93.6938995 27.4133385 161.1447645 88.3708795 160.2394545 C 88.3708795 160.2394545 82.5363885 171.34473649999998 84.900389 180.6794155 C 88.82353450000001 185.6384295 93.948543 189.651642 93.948543 189.651642 C 93.948543 189.651642 70.164089 200.9889985 47.331064500000004 191.8540515 C 9.9106785 176.0991445 5.4847185 140.0208645 9.3917425 116.4182925 C 10.121044999999999 112.05436200000001 14.3601235 78.92213550000001 41.1723815 56.494099000000006 C 54.237339500000004 46.47216300000001 39.081779 39.22968250000001 31.526386000000002 55.28172300000001 Z &#10;" fill="#754123" mix-blend-mode="multiply" stroke-width="0px" opacity=".25" /><path d="M 91.771454 210.1494195 C 91.557491 210.1494195 91.34596350000001 210.053397 91.205583 209.870746 C 90.0520965 208.367091 89.586597 206.6533 89.9285895 205.1684325 C 90.208307 203.9538885 91.0198005 202.9560905 92.21347 202.359082 C 92.5648565 202.183389 92.993304 202.325335 93.169519 202.677765 C 93.34538599999999 203.029847 93.202744 203.457773 92.850836 203.633814 C 92.032732 204.042953 91.5025215 204.684146 91.317261 205.4881595 C 91.0711165 206.5569305 91.4425075 207.8382725 92.336281 209.003066 C 92.575815 209.3154865 92.516845 209.76254749999998 92.204598 210.0022555 C 92.0753505 210.101409 91.922793 210.14942 91.7714535 210.14942 Z &#10;" stroke-width="0px" /><path d="M 165.741047 201.7325005 C 165.5524815 201.7325005 165.3644375 201.65804849999998 165.22440500000002 201.51088349999998 C 164.9532115 201.2255995 164.96486600000003 200.774364 165.25015000000002 200.50334449999997 C 166.56506550000003 199.25400949999997 167.151811 197.99980449999998 166.94724150000002 196.87571599999995 C 166.74615100000003 195.77145849999997 165.8609015 195.06764249999995 165.463591 194.89995099999996 C 165.10107150000002 194.74687199999997 164.931467 194.32868749999997 165.08454600000002 193.96616799999995 C 165.23762500000004 193.60364849999993 165.655288 193.43386999999996 166.018155 193.58694899999995 C 166.7925965 193.91432949999995 168.0527165 194.99214599999993 168.349133 196.62035199999994 C 168.55491999999998 197.75000649999993 168.3543515 199.51981049999995 166.231596 201.53662849999995 C 166.09382449999998 201.66744149999994 165.917262 201.73250049999996 165.741047 201.73250049999996 Z &#10;" stroke-width="0px" /><path d="M 151.775024 186.649525 C 154.45851 189.108785 160.659625 190.47522750000002 162.16106 190.4709885 C 162.16106 190.4709885 156.54365049999998 188.0022945 155.4004905 186.1413795 L 151.775024 186.6495245 Z &#10;" fill="#754123" mix-blend-mode="multiply" stroke-width="0px" opacity=".25" /><path d="M 166.72061 194.3646125 C 168.5159625 194.76697249999998 168.44052 196.1249375 169.2200925 196.35126499999998 C 169.999665 196.57759249999998 170.42717249999998 194.75075499999997 170.40202499999998 194.24334 C 170.81468249999998 194.54064499999998 170.37964449999998 197.0051 170.06391749999997 197.960705 C 169.74819049999996 198.91630999999998 166.83108 200.2491275 166.83108 200.2491275 L 167.48491499999997 198.16188499999998 L 167.18314499999997 195.4208075 L 166.72060999999997 194.3646125 Z &#10;" fill="#754123" mix-blend-mode="multiply" stroke-width="0px" opacity=".25" /><path d="M 167.311071 195.7835415 C 167.1874985 199.03825700000002 161.298626 198.2624675 159.894059 198.1618785 C 158.4894925 198.06129 154.458509 197.5583465 150.8372735 190.0140875 C 149.25244750000002 186.71233949999998 148.8235865 182.62069 148.306292 178.9913435 L 148.30631350000002 178.991322 C 148.30627 178.990996 148.306183 178.9906695 148.30613950000003 178.9903435 C 148.04473050000004 177.156503 147.75988150000003 175.4419725 147.29268600000003 174.0058335 C 145.23224900000002 166.0196235 141.86600800000002 163.5032325 135.74877700000002 162.65359999999998 C 128.50628400000002 161.64771349999998 115.91282650000002 174.6280655 109.93756350000001 188.3061895 C 107.63389600000001 192.864013 108.43860550000001 191.875 107.13090900000002 197.306875 C 105.82325650000001 202.73872849999998 102.02293550000002 206.91320149999999 98.11402400000001 207.26528349999998 C 94.20511250000001 207.61734399999997 91.13709300000002 207.315578 90.98623200000002 205.2031725 C 90.89547150000001 207.9246115 90.98623200000002 209.1858835 90.98623200000002 209.1858835 L 93.14891000000001 210.0129025 L 99.47512400000002 209.436964 L 104.76705350000002 206.216713 L 109.16838400000002 196.5944915 L 110.95336550000002 191.2211735 L 121.63263800000001 177.5073895 L 131.82575350000002 171.404945 L 139.94001500000002 169.6613865 L 143.56127250000003 170.3990365 L 145.40922500000002 173.37775249999999 L 146.444836 181.53100099999997 L 146.52283250000002 181.42458499999998 C 146.86426000000003 183.65738799999997 147.347416 186.1889785 148.126402 189.00256899999997 C 151.21623100000002 200.16245349999997 158.98506400000002 203.19137699999996 163.9642685 201.71931649999996 C 168.943473 200.24723399999996 167.3110705 195.78354149999996 167.3110705 195.78354149999996 Z &#10;" fill="#754123" mix-blend-mode="multiply" stroke-width="0px" opacity=".25" /><path d="M 97.0527115 137.3497225 L 98.11352 137.8581795 C 98.11352 137.8581795 98.16559249999999 136.148174 95.864835 135.385444 C 93.5640775 134.622714 96.6444075 136.8019845 96.6444075 136.8019845 L 97.052712 137.3497225 Z &#10;" stroke-width="0px" /><path d="M 90.670761 181.9611225 C 92.761893 182.01163899999997 94.879644 181.84905799999999 96.9263775 182.2806435 C 99.3996425 182.802168 101.676154 184.2108475 103.2465375 186.1914845 C 104.81692100000001 188.1721215 105.6694025 190.7098685 105.6132375 193.236897 C 104.6277605 193.580059 103.5438285 193.346984 102.534416 193.0823885 C 97.1579835 191.6730755 91.78548699999999 189.2726405 88.3303265 184.9190165 C 87.1709295 183.458136 86.2410005 181.816312 84.87097349999999 180.53042 C 86.638645 181.593019 88.63146099999999 181.911858 90.67076099999998 181.9611225 Z &#10;" fill="#754123" mix-blend-mode="multiply" stroke-width="0px" opacity=".25" /><path d="M 160.6634835 175.7015715 C 164.0822645 172.7004755 169.127542 172.4887395 173.084978 170.245224 C 171.933341 172.97224 170.434077 175.5522305 168.634958 177.902987 C 167.71849 179.1004585 166.71431700000002 180.248207 165.50369 181.1472255 C 164.286631 182.05102 162.892016 182.68113499999998 161.502363 183.286893 C 159.168598 184.3041955 156.813735 185.27309549999998 154.439721 186.192791 C 153.82722199999998 186.43007 152.7889545 186.8588665 152.225167 186.45795 C 152.631622 185.621642 153.933152 184.9476325 154.5712 184.19954900000002 C 155.3347675 183.30429900000001 155.963343 182.30332600000003 156.576985 181.30259300000003 C 157.783028 179.33576650000003 158.9059435 177.24438650000002 160.6634835 175.70157150000003 Z &#10;" fill="#754123" mix-blend-mode="multiply" stroke-width="0px" opacity=".25" /><path d="M 99.4208695 135.74165 C 99.05419599999999 137.058956 98.55201299999999 138.42799 97.4773065 139.2734185 C 96.061453 140.3872145 94.074089 140.2917065 92.278862 140.14223049999998 C 90.765816 140.01624999999999 89.2527695 139.8902695 87.7397235 139.764289 C 87.58432049999999 139.7513495 87.403646 139.7480785 87.3017855 139.8661545 C 87.20143449999999 139.98248049999998 87.228642 140.1580385 87.2644165 140.307445 C 87.6787195 142.037701 88.68640599999999 143.857384 90.415802 144.2752605 C 91.3377895 144.498042 92.3063695 144.2777955 93.2114795 143.994125 C 94.983909 143.4386275 96.71449249999999 142.611431 98.01978199999999 141.289937 C 99.63288849999999 139.6568 100.424825 137.40936050000002 100.646048 135.159197 C 100.686639 134.746329 100.9361055 132.116631 100.401495 132.16350300000002 C 100.02080149999999 132.19688050000002 99.549594 135.27919400000002 99.420869 135.74165000000002 Z &#10;" fill="#754123" mix-blend-mode="multiply" stroke-width="0px" opacity=".25" /><path d="M 90.10601 124.304774 C 92.2432415 125.7908295 94.502183 127.24350199999999 95.958944 129.40080799999998 C 97.54951750000001 131.75627599999999 98.003584 134.7103305 97.959986 137.55220549999999 C 97.23929150000001 137.476183 96.6618775 136.88942949999998 96.3502115 136.2351785 C 96.0385455 135.5809275 95.9334865 134.8512015 95.754756 134.14889399999998 C 95.282138 132.29177449999997 94.2620335 130.57753549999998 92.85521 129.27633999999998 C 91.582265 128.09897149999998 90.019061 127.26670699999998 88.764833 126.06940599999997 C 86.83587 124.22799149999997 85.68527549999999 121.60700699999997 84.888885 119.10302549999997 C 86.134162 121.31822699999998 88.047274 122.87329699999998 90.10601 124.30477349999997 Z &#10;" fill="#754123" mix-blend-mode="multiply" stroke-width="0px" opacity=".25" /><path d="M 98.579478 126.601136 C 96.274588 124.472715 95.35416049999999 121.208218 95.1808715 118.0757005 C 94.9712515 114.286423 95.817504 110.2471065 98.4268195 107.4913785 C 101.03613499999999 104.73565049999999 105.685767 103.756024 108.73023749999999 106.0218045 C 110.73391999999998 107.5130015 111.70915249999999 110.07970900000001 111.84024949999998 112.5739465 C 111.97134649999998 115.068184 111.36615699999999 117.536405 110.74707649999999 119.956146 C 109.2670505 125.7409815 107.68167949999999 131.498865 105.9920145 137.2259785 C 104.68029899999999 141.672035 101.646338 145.648439 98.33528 148.892651 C 95.024222 152.136863 91.3161005 154.9924955 88.3359755 158.543111 C 92.7054925 151.307826 97.07501 144.07254 101.444528 136.8372545 C 105.7905195 129.640925 108.64599750000001 121.546055 108.989243 113.14623449999999 C 109.058363 111.45474649999998 109.682585 109.02172099999999 108.4575665 107.853287 C 107.386404 106.83160149999999 105.7120105 108.43512 104.3194435 108.93710349999999 C 102.9268765 109.43908749999999 100.935365 110.84277599999999 100.097139 112.0628605 C 96.931744 116.67027 97.4520535 121.1260235 98.5794785 126.6011355 Z &#10;" fill="#754123" mix-blend-mode="multiply" stroke-width="0px" opacity=".25" /><path d="M 135.1415315 31.8559605 C 136.280721 31.4197265 137.50670000000002 31.2311925 138.62640750000003 30.747139999999998 C 140.03633800000003 30.137623499999997 141.2378255 29.057139499999998 141.99303000000003 27.719574499999997 C 143.26092500000004 31.078022999999998 144.01777100000004 34.628876 144.22952900000004 38.212435 C 144.24285850000004 38.4380115 144.23615400000006 38.7035725 144.05314150000004 38.8361205 C 143.94415100000003 38.915057 143.80037550000003 38.9227385 143.66580950000005 38.921367 C 142.80319700000004 38.912577 141.96578700000006 38.654774999999994 141.12839850000006 38.447492 C 138.15689500000005 37.71194199999999 135.07626850000005 37.6020155 132.02892900000006 37.6733215 C 131.25547200000005 37.69142 130.48225250000007 38.332711 129.70940650000006 38.368109 C 128.84148300000007 38.407861499999996 127.64240650000005 39.030052999999995 128.29779650000006 38.172976 C 129.07876400000006 37.151675999999995 130.17633500000005 35.4318655 131.11431650000006 34.551736 C 132.15113700000006 33.578863999999996 133.80683050000005 32.367062 135.14153150000007 31.8559605 Z &#10;" opacity=".35" fill="#754123" mix-blend-mode="multiply" stroke-width="0px" /><path d="M 127.653327 75.803801 C 130.554328 77.80228050000001 134.0000475 78.9102395 137.4867575 79.412812 C 140.9734675 79.9153845 144.5178625 79.836153 148.034154 79.623036 C 149.5690295 79.5300095 151.10922300000001 79.410687 152.6083655 79.068533 C 153.942976 78.7639305 155.230775 78.28598050000001 156.5140645 77.809392 C 158.781018 76.967489 161.05672149999998 76.1216505 163.1830015 74.96977650000001 C 166.4175085 73.21754050000001 169.25985 70.7726765 171.58099199999998 67.91879050000001 C 170.62015649999998 71.65149450000001 167.96721649999998 74.91332600000001 164.5085485 76.61447250000002 C 162.963092 77.37460550000002 161.28879049999998 77.82944550000002 159.677486 78.43766800000002 C 157.32605949999999 79.32526550000001 155.10679449999998 80.54058000000002 152.740094 81.38660850000002 C 150.1611385 82.30851250000002 147.446492 82.77832100000002 144.747602 83.24405650000003 C 141.8197325 83.74930500000002 138.838499 84.25604800000002 135.8921165 83.87326050000003 C 133.7185515 83.59087550000002 131.39818949999997 82.78639400000003 129.684002 81.34629250000003 C 128.239023 80.13235500000003 127.63368249999999 77.97588950000004 127.65332699999999 75.80380150000003 Z &#10;" fill="#754123" mix-blend-mode="multiply" stroke-width="0px" opacity=".25" /><path d="M 32.842143 26.6562585 C 49.500620999999995 15.194689499999999 76.13766 8.370212500000001 83.18963550000001 37.3320155 C 90.24161050000001 66.2938185 69.02187900000001 88.4672315 74.95329000000001 114.750006 C 71.73101100000001 98.5838 82.56339400000002 84.83915999999999 88.335975 70.40939449999999 C 91.1718855 63.35564449999999 100.73947650000001 28.947999499999987 84.8888845 14.444573999999989 C 77.364051 3.425658999999989 43.0411955 4.218996999999989 32.842143 26.656257999999987 Z &#10;" stroke-width="0px" opacity=".66" fill="#d8b58e" /><g opacity=".66"><path d="M 140.6222925 27.011945 C 137.6987575 25.714987 135.0286615 27.292208000000002 132.61113049999997 28.974674 C 131.40483949999998 29.8113805 130.35111549999996 30.726463 129.36323299999998 31.83794 C 128.31569 33.009024 127.47128399999998 34.273816 126.61460449999998 35.658576 C 126.05781699999999 32.16522749999999 128.11341299999998 28.586548499999996 130.97866249999998 26.639528999999996 C 132.44874349999998 25.635588499999997 134.11104949999998 24.823325499999996 135.9477225 24.703225499999995 C 137.736471 24.566781499999994 139.8629535 25.322571999999994 140.62229299999998 27.011944999999994 L 140.62229299999998 27.011944999999994 Z &#10;" stroke-width="0px" fill="#d8b58e" /></g><g opacity=".66"><path d="M 118.6334265 40.942932 C 127.934326 37.428681 139.471402 37.67651 148.8166425 40.9427885 C 143.736145 41.441079 138.75882000000001 41.27513 133.710596 41.271406999999996 C 129.22169250000002 41.188475499999996 123.09572200000001 41.297281999999996 118.63342650000001 40.94293149999999 L 118.63342650000001 40.94293149999999 Z &#10;" stroke-width="0px" fill="#d8b58e" /></g><path d="M 133.857116 44.923169 C 133.976318 42.3191325 137.3205075 40.9600485 139.424183 42.286766 C 139.7176945 42.48332 140.007934 42.735326 140.133446 43.086262500000004 C 139.492103 43.098026000000004 138.992446 43.256289 138.41371999999998 43.39272750000001 C 137.98501149999998 43.50432500000001 137.34768849999998 43.645776000000005 136.93453399999999 43.76771600000001 C 136.11577899999997 43.98545200000001 134.6847475 44.59699750000001 133.857116 44.92316900000001 L 133.857116 44.92316900000001 Z &#10;" stroke-width="0px" /><g opacity=".66"><path d="M 107.981726 68.812734 C 108.509067 72.56806300000001 109.617138 76.552582 109.0225315 80.34516500000001 C 108.72669 82.28922150000001 108.267731 84.21036600000001 107.641142 86.069804 C 106.9435705 88.02634400000001 105.7267655 89.8279815 104.253726 91.2634465 C 102.840861 92.682647 101.1807275 93.71426650000001 99.5580035 94.8298185 C 97.2706495 96.41125600000001 95.0674485 98.1531425 92.9303895 99.9452085 C 90.87901450000001 101.7188995 88.411452 103.44963800000001 86.378264 105.2711465 C 87.234238 101.3425285 90.3921325 98.515289 93.335325 96.02803 C 95.506595 94.161465 97.88851199999999 92.487736 100.2834355 90.9152295 C 102.4371805 89.439996 104.31156899999999 87.5608925 105.35814049999999 85.15792049999999 C 106.052523 83.47334999999998 106.66624049999999 81.71467499999999 107.14780099999999 79.96385949999998 C 108.18144499999998 76.31112299999998 107.58534649999999 72.55467299999998 107.98172549999998 68.81273349999998 L 107.98172549999998 68.81273349999998 Z &#10;" stroke-width="0px" fill="#d8b58e" /></g><g opacity=".66"><path d="M 91.231734 156.114218 C 89.715243 162.060073 87.746359 168.4059245 86.2807155 174.33464899999998 C 85.762981 176.36406949999997 85.28687 178.367493 84.8747735 180.530432 C 84.685686 180.01735599999998 84.5002515 179.48183949999998 84.40075 178.94127899999998 C 82.9708105 171.5491645 86.022981 161.54204849999996 91.231734 156.114218 L 91.231734 156.114218 Z &#10;" stroke-width="0px" fill="#d8b58e" /></g><g opacity=".66"><path d="M 156.849554 138.970656 C 162.24439700000002 145.45397 175.14027700000003 158.83493299999998 172.95395200000002 167.6273645 C 172.69629200000003 166.2277065 172.25801600000003 164.9616725 171.662486 163.7545215 C 169.858743 160.096166 167.371239 156.920407 165.0255725 153.55064800000002 C 161.857393 149.00797150000002 158.5731375 144.33080200000003 156.849554 138.97065600000002 L 156.849554 138.97065600000002 Z &#10;" stroke-width="0px" fill="#d8b58e" /></g><path d="M 105.726055 193.4100165 C 101.7738915 195.68668200000002 96.0067315 198.704382 96.0067315 198.704382 L 102.0119935 192.863998 L 105.726055 193.4100165 Z &#10;" fill="#754123" mix-blend-mode="multiply" stroke-width="0px" opacity=".25" /><path d="M 86.8865715 202.090912 C 86.8195115 204.303892 88.7977815 205.477442 90.6084015 204.035652 C 90.945895 204.6697435 90.3066315 206.617462 90.3066315 206.617462 L 90.966416 208.7648825 L 86.5848015 206.216587 L 86.8865715 202.090912 Z &#10;" fill="#754123" mix-blend-mode="multiply" stroke-width="0px" opacity=".25" /><path d="M 141.188655 45.8200565 L 141.18845950000002 45.819752 L 141.18843800000002 45.819752 C 140.76951400000002 45.1842995 140.00422700000001 44.8184315 139.20462750000002 44.949788500000004 C 138.1201355 45.1279605 137.385399 46.15152500000001 137.56354900000002 47.236039000000005 C 137.6272815 47.62404250000001 137.80056100000002 47.96599200000001 138.04481350000003 48.23866400000001 L 138.04413950000003 48.239186000000004 C 140.82230900000002 52.701465500000005 139.43605100000002 58.634827 139.43605100000002 58.634827 L 143.3633795 57.9896765 C 144.390184 51.3122935 141.6157545 46.513653000000005 141.2328175 45.890595000000005 C 141.218488 45.8667415 141.2038975 45.8432145 141.188655 45.820057000000006 Z &#10;" stroke-width="0px" /><path d="M 164.0756505 41.9106235 C 164.06123399999998 41.886618 164.046535 41.8629165 164.0311835 41.839607 L 164.0311185 41.8394985 L 164.0311185 41.8394985 C 163.61217299999998 41.204046 162.84688599999998 40.838178 162.04728649999998 40.969535 C 160.96279449999997 41.147685 160.22805799999998 42.1712715 160.406208 43.2557635 C 160.46994049999998 43.643767000000004 160.64321999999999 43.985738 160.8874725 44.258410500000004 L 160.8867985 44.2589325 C 163.6649895 48.721212 162.27871 54.6545735 162.27871 54.6545735 L 166.20603849999998 54.009423 C 167.23273449999996 47.3329315 164.45913099999999 42.5347045 164.07565049999997 41.910624 Z &#10;" stroke-width="0px" /><circle cx="139.4789825" cy="46.991878" r="1.361069" stroke-width="0px" fill="#fff" /><circle cx="162.3809545" cy="43.0901555" r="1.361069" stroke-width="0px" fill="#fff" /><path d="M 147.2902295 106.0433985 C 140.3305305 97.5184895 126.988611 96.800063 121.91166050000001 107.43879299999999 C 120.46350050000001 110.40967749999999 119.8944395 113.83199849999998 120.39686050000002 117.09684499999999 L 118.16423250000001 115.89409549999999 C 119.10137600000002 115.52868 121.03609850000001 114.73843899999999 121.95823650000001 114.37636499999999 C 121.95822150000001 114.37635049999999 122.44416950000002 115.94828749999999 122.44416950000002 115.94828749999999 C 123.09740700000002 118.0466975 123.64161350000002 120.17873349999999 124.05943350000001 122.3354835 C 124.0594415 122.3354815 121.90646300000002 121.645355 121.90646300000002 121.645355 C 122.82014250000002 120.915076 123.91240250000001 120.45519399999999 125.03592350000001 120.29645599999999 L 126.415709 120.1014965 L 126.42759550000001 121.3791225 C 126.44463 123.215046 126.311069 125.04862949999999 125.993874 126.84561699999999 L 124.855378 125.99581649999999 C 126.2200115 125.54244099999998 127.62991600000001 125.46864099999999 129.0231885 125.58865549999999 C 128.95584 125.98264699999999 128.535436 128.2747475 128.4590935 128.71262449999998 C 128.3003105 129.56571799999998 128.130146 130.41742949999997 127.9484385 131.26707249999998 C 127.8678245 129.77864949999997 127.829791 127.58069499999998 127.8063665 126.06449599999998 C 127.80635199999999 126.06446899999997 128.3750385 126.66834749999998 128.3750385 126.66834749999998 C 126.91453299999999 126.78864899999998 125.5618605 127.45112449999998 124.31591099999999 128.13635699999998 C 124.31589299999999 128.13629999999998 124.34341049999999 126.68159149999998 124.34341049999999 126.68159149999998 C 124.37607549999998 124.95334999999999 124.2885635 123.23287649999997 124.07291949999998 121.53439799999998 L 125.46449799999998 122.61697099999998 C 124.13362449999998 122.86537949999997 123.03371549999997 124.29166899999998 122.12089949999998 125.16298349999998 C 121.36181549999998 122.43705349999998 120.50210249999998 119.59986549999998 119.48588249999997 116.96848149999998 C 119.48589549999997 116.96847999999999 121.58056399999998 117.89680749999998 121.58056399999998 117.89680749999998 C 120.60121899999999 118.34647899999997 118.58820749999998 119.26055499999998 117.61399899999998 119.70708499999998 C 117.61398449999997 119.70708549999998 117.20684399999998 117.67119549999998 117.20684399999998 117.67119549999998 C 115.58811499999997 109.75805649999998 119.80634449999998 100.67813699999998 127.55899299999997 97.80127199999998 C 134.95795149999998 94.96330349999998 144.08870549999997 99.01465499999998 147.29022949999998 106.04339999999998 L 147.29022949999998 106.04339999999998 Z &#10;" stroke-width="0px" fill="#eeddcf" /><path d="M 149.60276 103.834714 C 150.57398799999999 97.9703575 152.52784499999999 97.5795865 152.52784499999999 97.5795865 L 156.035799 101.51747250000001 L 157.86838699999998 99.9242145 L 176.6905415 95.560601 L 177.7325985 95.560601 L 179.427964 94.779058 L 180.4028695 95.88633800000001 L 178.9049125 89.894416 C 178.9049125 89.894416 183.0731405 92.4995585 183.724426 91.848273 C 184.3757115 91.1969875 188.478811 81.694455 194.0798675 77.2300295 L 185.7152485 95.44717800000001 L 182.253386 94.48331650000002 L 181.2495405 99.59857200000002 L 179.6583025 97.84414000000002 L 176.177743 103.57689700000003 L 173.8248845 99.40318650000003 L 163.412168 104.13465650000003 L 159.507497 109.08466700000004 L 157.1298405 106.37194250000005 L 156.035798 109.08466700000005 L 153.7993995 104.76406600000006 L 152.0719445 110.01914250000006 L 149.6027595 103.83471500000006 Z &#10;" fill="#754123" mix-blend-mode="multiply" stroke-width="0px" opacity=".25" /><path d="M 128.2511735 79.294742 C 127.65151949999999 87.614916 136.8318615 87.614916 144.777546 86.5077305 C 144.777546 86.5077305 146.0263895 87.2241445 149.60276 87.354402 C 153.17913049999999 87.484659 155.9220265 86.1169595 160.379585 86.3774735 C 164.8371435 86.63798799999999 168.50284249999999 86.572859 168.50284249999999 86.572859 C 168.50284249999999 86.572859 162.9802485 84.87635549999999 162.7530295 84.70160949999999 C 162.5258105 84.52686349999999 144.2565175 84.00753049999999 144.2565175 84.00753049999999 L 135.087645 84.00753049999999 L 130.90516250000002 82.40463099999998 L 128.25117350000002 79.29474199999999 Z &#10;" fill="#754123" mix-blend-mode="multiply" stroke-width="0px" opacity=".25" /><path d="M 197.5968105 75.1753605 C 202.35119550000002 75.240489 205.6727525 75.8917745 207.366095 72.6353465 C 208.233711 74.1244875 208.074423 74.694067 208.074423 74.694067 L 204.630695 77.78050300000001 L 199.756427 77.02808300000001 L 197.59681 75.17536050000001 Z &#10;" fill="#754123" mix-blend-mode="multiply" stroke-width="0px" opacity=".25" /><path d="M 173.629666 86.607573 C 181.6285365 87.096037 187.300032 81.390291 192.19114 75.9631605 C 197.5968105 69.9650755 204.565567 68.7104805 207.366095 72.6353465 C 209.474777 75.5906085 207.6312185 70.170869 207.6312185 70.170869 L 204.40274549999998 67.91879 L 197.59681049999998 68.71048 L 191.80036849999996 73.2540675 L 187.29603049999997 78.35461600000001 L 181.83569849999998 83.328957 L 173.629666 86.6075725 Z &#10;" stroke-width="0px" fill="#d8b58e" /><path d="M 208.8801875 70.2991765 C 208.340244 69.043589 206.89037150000001 66.927741 203.2489645 66.8642185 L 203.196592 66.86286700000001 L 203.14421950000002 66.8675975 C 195.81207400000002 67.467009 192.98497400000002 70.5965175 189.406076 74.5572275 C 188.028173 76.082449 186.466798 77.8110785 184.45637100000002 79.5971485 C 177.67734600000003 85.61761750000001 171.38251300000002 85.042534 163.83141650000002 83.659225 C 158.49956100000003 82.823293 157.16862450000002 82.858433 153.612027 82.95506850000001 C 152.7572155 82.97770700000001 151.76539050000002 83.004062 150.5533905 83.02332150000001 C 150.2424925 83.01960450000001 150.035579 83.01926700000001 150.035579 83.01926700000001 C 161.9518365 80.03707700000001 168.67443400000002 76.00439700000001 171.64420650000002 70.61374950000001 C 173.69518000000002 66.89124950000001 173.0393835 63.53062650000001 172.13532500000002 61.38572050000001 C 167.11293200000003 46.788668500000014 155.69818300000003 40.93950850000002 147.00680300000002 38.602682500000014 C 146.53114250000002 38.47496150000001 146.02921150000003 38.34994300000002 145.44302000000002 38.213774500000014 C 145.29557450000001 29.851073500000012 142.87305200000003 26.242441500000012 140.85578300000003 24.687486000000014 C 139.18539700000002 23.400137000000015 137.17948900000002 23.015283500000013 135.05544750000004 23.574148500000014 C 130.92469550000004 24.660793000000012 126.79546450000004 27.109797000000015 124.54657350000004 37.539352000000015 C 123.83540600000003 37.65862600000001 121.43877450000004 38.14991350000002 118.00432300000004 39.74947000000002 C 117.49867550000005 37.833651500000016 116.80972400000005 35.963447500000015 115.97193350000005 34.26928250000002 C 114.64150400000005 31.579365000000017 112.33643950000005 28.103522500000018 108.91085750000005 26.82191750000002 C 106.68308450000005 25.98868850000002 103.19744350000005 25.84947900000002 99.24416650000005 29.91763750000002 C 92.91115250000004 36.43344850000002 97.72299950000004 47.736103000000014 101.96837950000005 57.70815950000002 C 103.09759750000005 60.36090950000002 104.26389850000005 63.10015850000002 105.05843950000005 65.48158550000002 L 105.05404700000005 65.48327500000002 L 105.14814850000005 65.76034250000002 C 108.83778900000004 76.62982600000002 105.77163450000005 86.51707250000003 97.14724000000005 91.56273750000003 C 96.62098100000006 91.86751150000002 96.14962900000005 92.16451400000003 95.70665900000006 92.47097750000003 C 91.01949200000006 95.71198850000003 87.55826300000005 99.40272750000003 85.41597550000006 103.44250300000003 C 84.38820800000006 103.45061250000003 83.11631750000006 103.70098650000003 82.50457300000006 104.76397850000004 L 82.12901150000006 105.41711400000004 L 82.64437350000006 105.96685600000004 C 82.99053850000006 106.33582850000003 83.09486100000005 107.18257300000003 83.08050100000006 107.84618300000004 L 81.50442750000005 109.35079350000004 L 81.81511450000005 111.24701500000003 L 79.44264150000005 111.24701500000003 L 79.64765450000004 112.43705250000004 C 80.25289450000004 115.94668350000003 83.00836200000005 118.91704750000004 83.92606300000004 119.82326000000003 C 85.08163600000005 123.22240200000003 87.11960100000005 126.05930050000003 89.80259200000005 128.01499000000004 C 91.60150200000005 129.57873050000003 93.64064950000005 131.35094750000005 94.69232250000005 133.53403450000005 C 94.90451550000004 133.97430100000005 95.06636350000005 134.41490550000006 95.17600750000004 134.84909050000005 C 94.44946600000004 134.63791100000006 93.75130750000004 134.48620000000005 93.09428650000004 134.39767350000005 C 86.39610100000004 132.38758450000006 81.52267400000004 128.61203600000005 78.60983550000003 123.17543600000005 C 75.01716850000003 116.47040850000005 74.61677250000002 107.19980550000005 77.51094300000003 97.74032400000004 C 78.65519700000003 94.00025400000004 80.59365400000003 89.81552450000004 82.84009500000002 84.96684750000004 C 89.36291700000002 70.88608650000005 98.29639350000002 51.60186750000004 93.63135800000002 27.274686500000044 C 91.98863650000003 18.747097000000046 87.03766400000002 12.438410500000044 79.31407650000003 9.030145500000042 C 69.13286850000003 4.5382770000000425 55.05033350000002 5.954361000000042 44.271319500000025 12.554306000000043 C 26.491035000000025 23.442035500000046 23.379519000000027 43.08542850000004 30.643665000000027 55.78659700000004 L 31.552412000000025 57.37534100000004 L 32.421626000000025 55.764634000000044 C 34.75904300000003 51.43359950000004 38.91733250000002 46.51227700000004 42.93784900000003 46.910645500000044 C 44.07264200000003 47.020458500000046 44.88813200000003 47.612098500000045 45.17508250000003 48.53385400000004 C 45.69433000000003 50.20166350000004 44.54703500000003 52.42833850000004 42.12100750000003 54.47863600000004 C 30.36136100000003 63.23565100000004 20.430865000000033 77.24342800000004 14.158839000000032 93.92186350000003 C 7.850659500000033 110.69659650000003 5.834066000000032 128.65460950000002 8.480312000000033 144.48798950000003 C 10.430933000000033 156.15860300000003 14.774469000000034 166.26784100000003 21.39029450000003 174.53525800000003 C 28.68358300000003 183.64874350000002 38.55089450000003 190.23551050000003 50.71676550000004 194.11276300000003 C 55.86590850000004 195.77651800000004 61.375323500000036 196.62055950000004 67.09203200000003 196.62055950000004 C 80.18210850000003 196.62055950000004 90.73549900000003 192.25742600000004 93.88325350000002 190.80417450000004 C 95.64997950000003 191.82999900000004 97.53935850000002 192.65545700000004 99.50197500000003 193.25790900000004 C 99.76586450000003 193.33900200000005 100.09919000000004 193.41299900000004 100.47365350000003 193.47888700000004 C 98.75845500000003 196.02925750000006 95.87526600000002 197.82816700000004 92.82533000000002 198.17314950000005 C 92.44571400000002 198.21639900000005 92.05562350000002 198.24106500000005 91.63225150000002 198.26843350000004 C 90.11615300000003 198.36608300000003 88.54852650000002 198.46677300000005 87.20711550000003 199.44157700000005 C 86.21372800000003 200.16330350000004 85.55214550000002 201.29218350000005 85.34417600000003 202.62007900000006 C 85.09658950000004 204.20105200000006 85.50669950000004 205.90771850000007 86.44104150000004 207.18526900000006 C 87.79470100000005 209.03486200000006 90.12358650000004 210.28267800000006 93.17639450000004 210.79288750000006 C 94.11369300000004 210.94932900000006 95.02666300000004 211.02873250000007 95.89030200000005 211.02873250000007 C 96.82557300000005 211.02873250000007 97.72156450000004 210.93581350000008 98.55361100000005 210.75301700000009 C 102.02278050000005 209.9910820000001 105.24706600000005 207.46503950000007 107.39974350000004 203.8232945000001 C 109.26530150000005 200.66743100000008 110.49639250000004 195.9332975000001 111.21398000000005 192.42163900000008 L 111.98225050000005 191.4171010000001 C 117.01262600000005 184.4198010000001 120.31851150000006 180.21783950000008 121.80808600000005 178.92812550000008 C 130.25753900000004 171.6121985000001 138.66348950000005 170.19408700000008 142.25218650000005 171.02630250000007 C 144.40532850000005 171.52603700000006 144.87634300000005 175.89728000000008 145.29211250000006 179.75493500000007 C 145.51321700000005 181.80793600000007 145.72106000000005 183.70821150000006 146.18037500000005 185.14693400000007 C 146.88165950000007 188.6325755000001 147.79631900000007 192.29966200000007 149.70538000000005 195.52952250000007 C 151.85801500000005 199.17194350000008 155.08238550000004 201.69764800000007 158.55159700000004 202.45958300000007 C 159.38343250000005 202.64238000000006 160.27900150000005 202.73496100000006 161.21338550000004 202.73496100000006 C 162.07846050000003 202.73496100000006 162.99206450000005 202.65555750000004 163.92889800000003 202.49911600000004 C 166.98187500000003 201.98890700000004 169.31080300000002 200.74142850000004 170.66412450000004 198.89183550000004 C 171.59863500000003 197.61462300000005 172.00870300000005 195.90795650000004 171.76115900000005 194.32698350000004 C 171.55318950000006 192.99875000000003 170.89152250000004 191.86987000000005 169.89800850000006 191.14814350000003 C 168.55680850000007 190.17367750000003 166.98909800000007 190.07264950000004 165.44525050000007 189.97297300000002 C 165.03843450000008 189.94661800000003 164.65404600000008 189.92195200000003 164.27958300000006 189.87937850000003 C 161.69990100000007 189.58778200000003 159.25334650000005 188.28151150000002 157.50744250000005 186.31500950000003 C 160.86350400000006 185.12902650000004 164.07022000000006 183.39228800000004 166.09374000000005 181.63662750000003 C 170.14855150000005 178.11854900000003 174.68350100000006 171.38007050000004 174.68350100000006 167.62749850000003 C 174.68350100000006 161.52222000000003 169.84162400000005 154.87159200000002 165.15918750000006 148.44025300000004 L 164.91172750000007 148.61798150000004 L 165.15792050000007 148.43856350000004 L 165.15597750000006 148.43586050000005 C 163.11585850000006 145.63410250000004 161.01517350000006 142.74888600000006 159.39112000000006 139.99172900000005 C 159.39724400000006 139.99578350000004 159.40374850000006 139.99848650000004 159.40987250000006 140.00254150000004 C 157.12415200000007 136.25301050000004 156.21409600000007 133.85773050000003 155.83473350000006 132.90218600000003 C 155.80216950000005 132.82007950000002 155.80048000000005 132.74810950000003 155.81163050000006 132.68188350000003 C 155.78105150000007 132.60248 157.54342750000006 123.88263300000003 157.54342750000006 123.88263300000003 L 155.98348800000005 125.59977400000002 C 157.42596950000006 120.93085300000003 157.77040300000004 114.72623550000003 157.76820650000005 114.68636500000002 C 157.61096250000006 115.04351150000002 155.98378350000004 116.60387300000002 155.98378350000004 116.60387300000002 C 156.14415300000005 115.76523750000003 156.30578950000003 114.89348950000002 156.28952900000004 113.77440800000002 L 156.26874900000004 112.35089050000002 C 156.26249800000005 112.26743250000003 156.25417750000005 112.18397450000002 156.24716650000005 112.10017850000003 C 156.24585700000006 112.09375850000002 156.24353400000004 112.08700100000003 156.24201350000004 112.08058100000002 C 156.23753650000003 112.07821600000003 156.23297500000004 112.07551250000003 156.22849800000003 112.07280950000002 L 154.76848850000002 112.90603850000002 C 154.32180200000002 113.16114300000002 154.01238200000003 113.23378900000002 153.89636000000002 113.23378900000002 C 153.861769 113.15134450000002 153.82147600000002 112.99152400000001 153.80238500000002 112.91583750000001 C 153.80238500000002 112.91583750000001 153.62795100000002 112.27655550000001 153.37170600000002 111.38521000000001 L 154.20637100000002 106.96936600000001 L 157.6470735 112.15728150000001 L 157.95150950000001 108.9101885 L 159.71122450000001 110.9179125 L 160.4343025 109.5886655 C 160.618451 109.25010300000001 160.7775955 108.923704 160.9330235 108.60338750000001 C 161.9814865 106.44361450000001 162.8924295 104.56631500000002 173.46355899999998 100.59749550000001 C 173.68250949999998 102.85458000000001 174.98404999999997 104.831894 175.05297899999997 104.93528750000002 L 176.31397299999998 106.82407550000002 L 176.94446999999997 104.64267750000002 C 177.63544849999997 102.25314150000001 178.85555849999997 100.44679800000002 179.64283499999996 99.45746500000001 C 179.98984499999997 100.08323150000001 179.97396399999997 100.62722950000001 179.97328849999997 100.64885400000001 L 179.65533699999997 105.20559650000001 L 181.9397905 101.25029250000001 C 183.0534655 99.32231000000002 183.402165 97.61395350000001 183.46366049999997 96.35701450000002 C 184.16477599999996 96.58677750000003 185.01760249999998 96.69828050000002 185.95827949999997 96.47459900000003 L 186.45531099999997 96.35701450000002 L 186.67155849999997 95.89410950000001 C 187.51695149999998 94.0837115 188.29949749999997 92.22263050000001 189.05602649999997 90.42372050000002 C 191.54287399999998 84.50867250000002 193.89558049999997 78.91258950000001 197.58902249999997 77.41845350000001 C 203.93622799999997 79.82218100000001 206.61938799999996 78.16518350000001 208.40545799999998 76.21354900000001 C 209.39681799999997 75.12893200000002 209.824583 72.49409000000001 208.88018899999997 70.29917650000002 Z M 126.4025865 38.60302 C 128.6688785 27.357468 133.160071 26.1758775 135.57313249999999 25.540988 C 136.023409 25.422389499999998 136.465027 25.363597499999997 136.89410149999998 25.363597499999997 C 137.88546149999996 25.363597499999997 138.80928649999998 25.678169999999998 139.6138375 26.2981925 C 141.88828099999998 28.0518255 143.22648199999998 32.1209975 143.396017 37.7799275 C 141.315014 37.3829105 139.180709 37.1041535 137.0462775 36.951091 C 131.909721 36.5824565 128.103256 38.3533215 127.9437735 38.429008499999995 L 126.27866700000001 39.2179745 L 126.40258700000001 38.6030205 Z M 51.338562 192.175657 C 39.558473000000006 188.4217335 30.016716000000002 182.0589855 22.978532000000005 173.264127 C 16.581995000000006 165.2710745 12.379104500000006 155.476409 10.486431000000005 144.1528055 C 7.898133000000005 128.667449 9.878572500000004 111.08246299999999 16.062663000000004 94.6378455 C 22.202152500000004 78.3114885 31.894100500000004 64.624028 43.360208 56.091708 L 43.4009235 56.059270999999995 C 46.499852999999995 53.448418999999994 47.889244 50.4091265 47.117256999999995 47.929036499999995 C 46.582973499999994 46.213246999999996 45.0940745 45.0759195 43.1341615 44.886027 C 42.92332 44.865415999999996 42.713323499999994 44.855616999999995 42.5033265 44.855616999999995 C 38.229226 44.855616999999995 34.140288 49.0031785 31.5630555 53.180136499999996 C 27.358729 44.595782 28.8653665 36.608473499999995 30.8999525 31.379335999999995 C 33.578466500000005 24.494890499999997 38.839281 18.265607499999994 45.333636 14.289016499999995 C 55.569075 8.021890499999994 68.89482749999999 6.656489499999996 78.49292700000001 10.891563499999995 C 85.578922 14.018030999999995 90.1229095 19.815832499999996 91.63385550000001 27.658524999999997 C 96.17547800000001 51.3420315 87.40097750000001 70.2822815 80.99219200000002 84.116385 C 78.71627050000002 89.0289225 76.75086650000001 93.27210649999999 75.56589750000002 97.145304 C 72.51427200000002 107.11904949999999 72.97025050000002 116.9566265 76.81692350000002 124.13570949999999 C 79.40936050000002 128.97424999999998 83.42886350000002 132.615657 88.76950350000001 134.96768749999998 C 87.95502700000002 135.39342499999998 87.43552600000001 135.94586999999999 87.12568350000001 136.37431049999998 C 85.68780600000001 138.36412649999997 85.9235665 141.59331149999997 87.6626705 143.72605349999998 C 89.211713 145.62531599999997 91.48679 146.15613599999998 93.7338225 145.15126049999998 C 94.73134900000001 144.7657315 95.673631 144.250116 96.549265 143.61117199999998 C 95.679882 145.1424755 94.76344850000001 146.70689199999998 93.814662 148.278066 C 89.64361699999999 154.6191895 86.2200625 162.03141449999998 84.42123699999999 168.616492 C 81.921381 177.7661315 83.492217 181.20852299999999 84.650831 182.446203 C 84.83362799999999 182.6418395 85.0855225 182.94661349999998 85.377288 183.2993675 C 86.5201905 184.6820005 88.604108 187.20229899999998 91.835996 189.488442 C 86.26990049999999 191.85973249999998 69.16234899999999 197.93696599999998 51.3385615 192.1756565 Z M 156.482081 138.9219785 C 156.514096 138.9841495 156.54636399999998 139.0469965 156.578928 139.11018149999998 C 158.3442605 142.535679 160.9697685 146.141946 163.513254 149.636034 C 168.00486899999999 155.804835 172.64942 162.183802 172.64942 167.627498 C 172.64942 170.1768545 169.1305815 176.308826 164.760901 180.100255 C 162.70540849999998 181.883622 159.0921725 183.733215 155.5557215 184.81242550000002 C 151.392617 186.08355600000002 151.4511135 186.52382250000002 151.473203 186.689725 C 151.4811855 186.74953100000002 151.51374950000002 186.86272300000002 151.64248450000002 186.9451675 C 152.0371785 187.198245 153.978043 187.161077 155.376177 186.928949 C 157.4683305 189.67529349999998 160.66368450000002 191.517791 164.0512965 191.90061699999998 C 164.4821025 191.94927249999998 164.9181455 191.97765499999997 165.3427845 192.004686 C 166.6259945 192.0874685 167.8379525 192.165858 168.70230949999998 192.79365199999998 C 169.41111149999998 193.30859149999998 169.66410449999998 194.08302849999998 169.75144849999998 194.64189349999998 C 169.9149435 195.68495049999999 169.6355535 196.85302549999997 169.022373 197.69098499999998 C 167.71715799999998 199.47468999999998 165.349796 200.1991195 163.5937555 200.492743 C 161.89287499999998 200.776906 160.34324149999998 200.77014799999998 158.98814599999997 200.4731455 C 156.06787399999996 199.83149849999998 153.32262749999998 197.65246549999998 151.45635149999998 194.4945745 C 149.69270849999998 191.5106955 148.83202599999998 188.022351 148.16469949999998 184.697206 C 148.16157399999997 184.681663 148.15481649999998 184.6681475 148.150973 184.652943 C 148.08128399999998 184.3373565 148.01780349999999 184.085293 147.9594335 183.8545165 C 147.87631349999998 183.52575249999998 147.804597 183.24192749999997 147.74014499999998 182.8658595 C 147.55895299999997 181.80725999999999 147.4289935 180.6013415 147.314281 179.5373355 C 146.938973 176.051694 146.5150095 172.11632550000002 144.6596305 170.1711105 C 146.3921035 167.844759 151.4089635 160.1659415 153.8066935 146.622759 C 154.2531265 144.5660415 154.8456535 143.104005 155.4729825 141.55580700000002 C 155.789667 140.77427450000002 156.1407315 139.90827050000001 156.4820815 138.92197850000002 Z M 154.15610999999998 115.24995999999999 C 154.105934 115.59494249999999 154.0417775 115.93012649999999 153.97479149999998 116.28017699999998 C 153.8109165 117.13705799999998 153.64142399999997 118.02265949999997 153.65798049999998 119.16708249999998 L 153.69062899999997 121.40828649999997 L 154.92302899999999 120.29765249999997 C 154.7807365 121.53093949999997 154.50404899999998 122.77030899999997 154.234838 123.97588949999997 L 152.289074 132.69100649999996 L 153.9440865 130.86945799999995 L 153.5047915 133.43266799999995 L 155.09231100000002 136.70544049999995 C 154.66982550000003 138.10091349999996 154.03552750000003 139.68695449999996 153.58782750000003 140.79184449999994 C 152.98938750000002 142.26841049999993 152.42199100000002 143.66861349999994 151.96335200000004 145.55976649999994 L 151.92441050000005 145.53847949999994 L 151.85087800000005 145.95881099999994 C 151.82709900000006 146.09531749999994 151.80213800000004 146.22912049999994 151.77713400000005 146.36258599999994 L 151.73857250000006 146.57072449999993 C 151.68784700000006 146.82244999999992 151.63965600000006 147.08498849999992 151.59408350000007 147.34820249999993 C 150.30420050000006 153.99849249999994 148.40307950000008 158.95292799999993 147.03527100000008 161.93815899999993 C 145.30258700000007 165.71978899999993 143.65695100000008 168.10831149999993 142.91452900000007 169.09865799999992 C 142.84467100000006 169.0780469999999 142.77806500000008 169.0601389999999 142.71209250000007 169.04493399999993 C 139.25846600000006 168.24312849999993 132.66498350000006 169.04054149999993 125.23096450000007 173.82434399999994 C 128.58896900000008 160.92348449999994 123.67119400000007 144.65524349999993 119.70305050000007 131.53002699999993 C 116.91860900000007 122.31922999999993 114.51395250000007 114.36469649999994 115.31178800000008 109.52953499999992 C 117.17117950000008 98.26303399999992 125.78797150000008 95.89140599999993 132.68888900000007 95.88633749999993 L 132.71955200000008 95.88633749999993 C 136.41776650000008 95.88633749999993 141.8174525000001 96.40364249999992 145.9939880000001 100.87794049999992 C 148.0545915000001 103.08501749999992 149.6965950000001 106.13208199999993 150.87421500000008 109.93432299999992 L 151.14194800000007 110.79863749999993 L 151.15858900000006 110.75268499999993 L 151.83022350000007 113.41455799999993 C 151.91469500000008 113.74872799999993 152.0422475000001 114.25386899999992 152.43626600000007 114.66676699999992 C 152.6983395000001 114.94113099999993 153.24694100000008 115.34355449999993 154.15611050000007 115.24995999999992 Z M 206.84779799999998 74.78901749999999 C 205.90408 75.82159999999999 204.1453785 77.74147299999998 197.98738999999998 75.31003899999999 L 197.63260899999997 75.16947799999998 L 197.27039399999998 75.28841399999999 C 192.46597999999997 76.86769749999999 189.864589 83.05508249999998 187.11047299999998 89.6053575 C 186.4343615 91.21302349999999 185.73763849999997 92.8706965 184.99901799999998 94.482417 C 183.8748685 94.514854 182.9845365 93.7214955 182.97946799999997 93.717441 L 180.14155599999998 91.033943 L 181.24374299999997 94.79056949999999 C 181.26367849999997 94.85814699999999 181.59345599999997 96.03669649999999 181.10554749999997 97.84641849999998 C 180.89808499999998 97.57205449999998 180.64669699999996 97.30039349999998 180.34259899999998 97.04089599999999 L 179.61647999999997 96.42256299999998 L 178.92786649999996 97.08279399999998 C 178.83832649999997 97.16861749999998 177.13774149999998 98.82223599999998 175.82268599999998 101.64629449999998 C 175.58785449999996 100.90159199999998 175.44729349999997 100.05619849999998 175.61083099999996 99.27905899999998 L 176.00176599999998 97.42135699999997 L 174.21806099999998 98.06942399999997 C 162.20820899999998 102.43154399999997 160.50458349999997 104.72985049999997 159.26622799999998 107.20858899999998 L 156.30802799999998 103.83377449999998 L 156.10360649999998 106.01179349999998 L 153.09607499999998 101.47667549999998 L 152.03054849999998 107.11533199999998 C 151.896661 106.74703549999998 151.7694885 106.42232599999998 151.65773249999998 106.18242649999998 C 150.52872549999998 103.50061799999997 149.12451 101.25029149999997 147.48081699999997 99.48956299999998 C 142.76349349999998 94.43646449999997 136.79742449999998 93.85225799999998 132.72014349999998 93.85225799999998 L 132.68728399999998 93.85225799999998 C 129.69825199999997 93.85462299999998 125.32802299999997 94.31921749999998 121.48312349999998 96.52021299999998 C 117.02352299999998 99.07294849999998 114.27185699999998 103.33843299999998 113.30465549999998 109.19840549999998 C 112.42986649999997 114.50187849999998 114.89846799999998 122.66691499999997 117.75707549999998 132.12166649999998 C 121.93225949999999 145.93245549999997 127.12608799999998 163.11366649999997 122.51072199999999 175.73712099999997 C 121.803356 176.27773999999997 121.11930349999999 176.83390199999997 120.47630499999998 177.39040149999997 C 118.88316849999998 178.76965599999997 115.71632349999999 182.75841049999997 110.81375349999999 189.56041199999996 C 110.23833199999999 190.21118199999995 109.81563549999998 190.83289399999995 109.56526149999999 191.23362799999995 C 109.43652649999999 191.35729449999997 109.34259399999999 191.51643949999996 109.2929245 191.69822249999996 L 109.133273 191.99826599999994 L 109.21842050000001 192.02732449999993 C 108.53251 195.38287949999994 107.37001000000001 199.87643699999992 105.64881450000001 202.78834649999993 C 103.78224300000001 205.94589949999994 101.03699600000002 208.12493199999994 98.11706200000002 208.76657949999992 C 96.76222000000001 209.0639199999999 95.21283950000002 209.07067749999993 93.51157900000001 208.78651499999992 C 91.75574950000001 208.49322899999993 89.38868300000001 207.76879949999991 88.08291900000002 205.98441899999992 C 87.46965450000002 205.1464594999999 87.19039100000002 203.97770849999992 87.35367450000003 202.93498949999992 C 87.44127150000003 202.37612449999992 87.69434900000003 201.6020254999999 88.40289800000002 201.0870859999999 C 89.26746600000003 200.45895449999992 90.48005750000002 200.3809024999999 91.76411250000002 200.29845799999993 C 92.16374800000003 200.27277849999993 92.61685450000003 200.24372049999994 93.05391150000003 200.19438899999992 C 97.02036600000002 199.74567499999992 100.74725850000003 197.23247249999991 102.68926350000002 193.7441279999999 C 104.18525800000002 193.8593474999999 105.60902850000002 193.8563064999999 105.86937050000003 193.69141749999991 C 105.95730550000003 193.63532849999993 106.01347950000003 193.55119449999992 106.02750150000003 193.4535449999999 C 106.07742450000003 193.1058594999999 106.08553350000003 193.0291589999999 102.57539550000003 192.0229319999999 C 102.54076200000003 191.9996179999999 102.50731150000003 191.97495199999992 102.46963700000003 191.9560304999999 C 102.31454700000003 191.8776404999999 102.14602600000003 191.8458794999999 101.97716700000004 191.8519614999999 C 101.24995000000004 191.6448369999999 100.56598250000003 191.4495379999999 100.07148500000004 191.2964754999999 C 92.75437500000004 189.0299299999999 88.68326050000005 184.1059044999999 86.94491700000003 182.0035719999999 C 86.63313200000003 181.6261524999999 86.36400500000003 181.3000914999999 86.13567800000003 181.0557989999999 C 84.68918400000003 179.5109799999999 84.76765850000002 174.9674149999999 86.34026850000002 169.1983339999999 C 88.09897000000002 162.7470594999999 91.36329500000002 155.7044829999999 95.53847900000002 149.3579529999999 C 102.33330000000002 138.1015889999999 106.95162250000003 128.18359449999988 108.89421900000002 120.6760854999999 C 109.20355450000002 119.4806414999999 109.44759350000002 118.3227029999999 109.62101350000002 117.2289634999999 L 109.64838250000001 117.2326804999999 L 109.68909800000002 116.9309474999999 C 110.12294500000002 113.71865649999991 110.06313900000002 111.0138719999999 109.98061000000001 109.2588874999999 C 109.784889 105.1008514999999 107.98530350000001 103.8777004999999 107.90877200000001 103.8280314999999 L 107.29195950000002 103.4245944999999 L 107.44434650000002 104.1459829999999 C 107.44704950000002 104.1584849999999 107.69674800000003 105.35561799999991 107.66954800000002 106.3976614999999 C 105.79740100000002 107.0524864999999 102.54380350000002 108.4905329999999 101.04020700000002 109.69982999999989 C 97.08794400000002 112.87698049999989 94.38020300000002 119.2535819999999 97.76912400000002 125.7366179999999 C 98.86641150000001 128.0352624999999 101.19343900000001 133.7850839999999 99.10462200000002 137.51603099999988 C 97.54493600000002 140.3654309999999 95.48602200000002 142.2981444999999 92.97653600000002 143.26382499999988 L 92.93252600000002 143.2820709999999 C 91.11317400000003 144.0997574999999 89.91992650000003 143.2759889999999 89.23908450000002 142.44073249999988 C 88.07329000000001 141.0111329999999 87.86489850000002 138.8243289999999 88.77440550000001 137.56603799999988 C 89.88943250000001 136.0229084999999 92.45585200000002 135.91917699999988 96.00028600000002 137.27342799999988 L 97.34744100000002 137.78836749999988 L 97.38021600000002 136.34626599999987 C 97.40766950000001 135.12987299999986 97.11978950000002 133.88678749999988 96.52460200000002 132.65079699999987 C 95.29047000000001 130.08893849999987 93.07139800000002 128.16061799999986 91.10244650000001 126.45023449999987 L 91.04382300000002 126.40428199999987 C 88.55917150000002 124.59962799999987 86.71903950000002 121.96140699999987 85.72286450000001 118.77411999999987 L 85.60688500000002 118.41427049999987 L 85.47460250000002 118.48995699999988 C 84.88820000000001 117.91960399999988 82.83671950000002 115.80037749999988 81.96311300000002 113.28109249999987 L 84.20972300000003 113.28109249999987 L 83.68515350000003 110.08062799999988 L 85.03703900000002 108.79057599999987 L 85.08020400000002 108.42633399999987 C 85.11382350000002 108.13946799999987 85.24078450000002 106.75041499999988 84.73969850000002 105.54483449999987 C 85.13130950000001 105.45799749999986 85.66280550000002 105.45901099999986 86.10526850000002 105.51510049999986 L 86.22741450000002 106.37738799999985 L 86.57391750000002 105.58538099999986 L 86.64445150000002 105.59585549999986 L 86.70299050000001 105.29479849999986 C 88.58383800000001 101.12561199999986 91.9544285 97.36256549999986 96.44849350000001 94.41382649999986 C 96.98404400000001 94.07458799999986 97.48361000000001 93.75393349999986 97.95099200000001 93.45118649999986 L 97.98266900000002 93.43327849999986 C 107.39028500000002 88.04769899999985 110.96656450000002 77.48197599999986 107.31687900000001 65.86272099999985 C 106.52225350000002 63.21132249999985 105.21936150000002 60.15108099999985 103.83993850000002 56.91142099999985 C 99.84273650000002 47.52289549999985 95.31251800000001 36.88114749999985 100.70248950000001 31.335071999999847 C 103.26223600000002 28.701243499999848 105.78413950000001 27.823751499999847 108.19808800000001 28.726922999999847 C 111.25909000000001 29.872021499999846 114.70317100000001 34.511884499999844 116.19392800000001 40.73947799999985 C 116.56306950000001 42.28125599999985 117.85193900000002 45.88110299999985 117.85193900000002 45.88110299999985 C 117.85193900000002 45.88110299999985 118.58903950000001 42.163333499999844 118.18686950000001 40.476263999999844 C 122.01326950000002 40.358341499999845 126.04924450000001 39.300079499999846 126.09097350000002 39.289267499999845 L 126.17485400000002 39.266966999999845 L 125.86036600000003 39.41597499999985 L 128.12893850000003 39.00375299999985 C 128.15377300000003 38.999360499999845 130.67930900000005 38.558755999999846 136.95407950000003 38.994291999999845 C 140.28213900000003 39.233177999999846 143.48670050000004 39.762308999999846 146.47885800000003 40.56715549999984 C 158.32888950000003 43.75309099999984 166.27421550000003 50.86425899999984 170.09812350000004 61.70502199999984 L 170.06467250000003 61.720226999999845 L 170.24607550000002 62.13582799999985 C 170.44183850000002 62.71226299999985 170.61386550000003 63.25524749999985 170.76650600000002 63.774579499999845 C 171.20162000000002 65.78297899999984 170.89756400000002 67.75387349999984 169.86261650000003 69.63252449999985 C 167.84184150000004 73.30028699999984 161.94685550000003 78.42974799999985 145.33954550000004 82.03702849999985 C 145.17203800000004 82.07318249999985 144.48160850000005 82.24955949999985 143.24418200000005 82.57190349999985 C 139.20077400000005 83.40175349999984 135.90194200000005 83.45513999999984 133.43900000000005 82.73138599999984 C 130.38281300000006 81.83294449999984 128.85294550000006 80.04755049999984 128.84002150000006 80.03133199999985 L 128.25116900000006 79.29473849999985 L 128.29805100000007 80.23676699999986 C 128.30404850000008 80.35536549999986 128.66398250000006 83.29937399999986 132.36367500000006 84.55259649999986 C 135.57892250000006 85.64160599999987 140.07754850000006 85.50273449999986 145.63481650000006 84.11131599999986 C 147.21414200000007 84.61915999999987 148.62013150000007 85.12362499999986 150.51804250000006 85.14018149999985 C 150.51876050000007 85.13849199999986 150.51990100000006 85.13612699999986 150.52061900000007 85.13443749999985 C 151.77325000000008 85.11551599999984 152.79126100000008 85.08848499999985 153.66845800000007 85.06483299999985 C 157.17977850000008 84.96887299999985 158.36272050000008 84.93913899999986 163.47799050000006 85.73993099999986 C 171.29804500000006 87.17189549999986 178.37947850000006 87.81861099999986 185.85792950000007 81.17440299999986 C 187.95519350000006 79.31197049999986 189.55812900000006 77.53738849999985 190.97218550000008 75.97229649999986 C 194.4824925000001 72.08727299999985 196.80478900000008 69.51662949999985 203.26315950000009 68.97533449999986 C 205.1073460000001 69.02061149999986 206.34468800000008 69.74639249999986 206.94139650000008 71.13375599999986 C 207.58642250000008 72.63262249999987 207.2475220000001 74.35246649999986 206.8478020000001 74.78901649999986 Z M 101.97091399999998 133.21000049999998 C 101.81801999999998 130.12374149999997 100.63499349999998 127.01856099999998 99.59311949999999 124.83716299999998 L 99.58813549999999 124.82736449999997 C 96.79668299999999 119.48604849999997 98.94260249999999 114.17953449999997 102.30761799999999 111.29026349999998 C 103.33183749999999 110.41040599999998 106.23758049999999 109.10818999999998 107.873798 108.47262449999998 C 108.038349 110.34215249999998 108.12197599999999 113.12093449999998 107.70958499999999 116.36870349999998 L 107.70012399999999 116.42479249999998 C 107.05332399999999 120.80921299999999 105.077615 126.59248499999998 101.9709135 133.20999999999998 Z &#10;" stroke-width="0px" fill="#0c0c0c" /><path d="M 162.3611055 61.2239275 C 163.77581700000002 60.5572755 165.6161535 59.842076500000005 167.832527 59.3401735 C 169.8499535 58.883323499999996 171.6544555 58.721920499999996 173.1216545 58.6892085 C 173.507059 58.691216 174.090742 58.7508405 174.5476665 59.140557 C 175.69153899999998 60.1161865 175.2044305 62.432926 174.98117249999999 63.665195000000004 C 174.694052 65.2499335 172.75938 67.803117 171.08883899999998 68.55650250000001 C 169.31868299999996 69.35481250000001 165.44344999999998 66.78909850000001 165.44344999999998 66.78909850000001 C 165.44344999999998 66.78909850000001 162.0948015 64.59681250000001 161.24042899999998 62.78851900000001 C 160.94513049999998 62.16364900000001 161.57401499999997 61.40934450000001 162.36110599999998 61.22392800000001 Z &#10;" stroke-width="0px" /><path d="M 163.8181925 63.3595765 C 163.73299300000002 63.3595765 163.648314 63.324039500000005 163.5880945 63.2546015 C 163.288633 62.9096405 163.390783 62.392348 163.66251400000002 62.0916965 C 163.9085215 61.819444999999995 164.2545235 61.696776 164.507222 61.6071155 C 166.95019950000002 60.739509 169.48209300000002 60.0634155 172.03242450000002 59.5975695 C 168.025652 61.016495 167.12334850000002 61.324307 164.71092700000003 62.181059 C 164.46261450000003 62.2690835 164.2464935 62.353837 164.11438250000003 62.499998999999995 C 164.01609850000003 62.608839999999994 163.98383250000003 62.781468999999994 164.04799250000002 62.85551699999999 C 164.15824600000002 62.98249849999999 164.144641 63.17475449999999 164.0176595 63.285082499999994 C 163.96004200000002 63.33504249999999 163.88889400000002 63.359576 163.818192 63.359576 Z &#10;" stroke-width="0px" fill="#fff" /></g></g></svg>