<?xml version='1.0' encoding='utf-8'?>
<svg viewBox="0 0 432 432" width="432px" height="432px" xmlns="http://www.w3.org/2000/svg" xmlns:xlink="http://www.w3.org/1999/xlink" version="1.1"><g isolation="isolate"><g id="Layer_1"><path d="M 256.625475 228.057646 L 261.12375199999997 239.951574 L 267.756379 231.83908 L 270.482741 225.168227 L 265.957989 224.03901 L 265.362282 218.345993 L 263.712095 214.662265 L 264.689439 209.704694 C 264.689439 209.704694 257.698434 208.610245 257.409972 209.097975 L 256.625474 228.05764499999998 Z M 197.298132 80.79486 C 196.803321 82.716656 196.424494 84.658804 196.16999900000002 86.589254 C 196.62488800000003 83.011507 197.29439200000002 80.807036 197.298132 80.79486 Z M 215.98711400000002 215.298228 C 220.16753200000002 217.76108299999999 232.073314 218.769344 235.577095 229.58616 C 237.66257900000002 236.024434 237.894177 243.51883 234.50598000000002 250.001961 C 231.274705 256.76993 228.02042400000002 266.930951 231.35594100000003 274.34742 C 230.87439400000002 274.420046 230.40280600000003 274.487453 229.94169800000003 274.549902 C 212.17386000000002 239.80649699999998 211.35997300000002 221.48576499999996 215.98711300000002 215.29822799999997 Z M 117.61425500000001 212.920447 L 118.17483000000001 217.121694 L 124.27513700000002 209.704693 L 126.20313300000001 218.34589499999998 L 129.39432200000002 215.033671 C 125.17791600000001 225.908899 122.72587100000001 244.837999 123.47665500000002 263.161605 C 121.52096600000002 267.55210700000003 119.30197800000002 272.059519 116.91396200000003 276.6933 C 107.20393700000002 295.534549 84.54710000000003 316.7133 84.54710000000003 334.659825 C 84.54710000000003 341.54325700000004 93.37439500000002 354.503923 101.02474600000002 361.141373 C 105.62896200000002 365.135872 113.22119600000002 368.943857 120.65149800000002 371.127958 C 116.93837400000002 377.03016599999995 110.48422800000002 381.17130799999995 103.54318600000002 381.956557 C 100.01911000000003 382.355264 96.14278700000003 382.033595 93.27378900000002 384.118357 C 89.47045000000003 386.882272 89.41131900000002 392.964912 92.18756700000002 396.759382 C 94.96381500000001 400.553176 99.71433600000002 402.393308 104.35149500000001 403.168421 C 107.65383300000002 403.720528 111.06412500000002 403.82730000000004 114.33427900000001 403.10895300000004 C 121.318993 401.57494600000007 127.07346000000001 396.356621 130.71241700000002 390.200998 C 134.35120500000002 384.04469900000004 136.131616 376.982862 137.53883100000002 369.97170900000003 L 137.273759 369.96089700000005 C 140.40630800000002 362.15571000000006 138.228712 341.49189800000005 146.915108 339.47606500000006 C 155.032841 337.5920080000001 172.482165 340.90532700000006 189.59563 355.7230190000001 C 194.81328 360.24124300000005 208.544665 379.61094700000007 213.425948 386.4463990000001 C 213.833777 386.4565360000001 214.225726 386.4477510000001 214.627136 386.4504540000001 L 211.998714 386.55857800000007 C 213.406013 393.57040700000005 215.186339 400.6315670000001 218.825212 406.78786700000006 C 222.46408499999998 412.94416600000005 228.218637 418.16181600000004 235.20326599999999 419.6964980000001 C 238.473504 420.41417000000007 241.883797 420.3073980000001 245.18613399999998 419.75529000000006 C 249.82312499999998 418.9808530000001 254.57381499999997 417.14072100000004 257.350062 413.34625100000005 C 260.12631 409.55178100000006 260.06718 403.46914100000004 256.263756 400.70522600000004 C 253.394758 398.620464 249.51852 398.942132 245.994359 398.544101 C 238.361325 397.68046200000003 231.30523300000002 392.765559 227.850001 385.904428 L 220.965724 386.188929 C 230.191388 385.336102 237.53688 382.54583199999996 243.319646 379.14669 L 243.320998 379.152096 C 278.678159 400.18555599999996 364.768193 403.05354 403.153835 322.00258099999996 C 430.487027 255.08340499999997 405.047353 177.69176199999995 375.43122800000003 140.22618599999996 C 354.61536800000005 113.89330799999996 332.84294900000003 103.70939699999995 339.985203 94.55671699999996 C 350.149179 81.53185299999996 368.821147 110.74014799999996 368.821147 110.74014799999996 C 388.241197 72.48864799999996 363.47037 13.84702499999996 294.671698 16.581880999999967 C 246.562854 18.494320999999967 218.75679 72.78260899999997 275.251648 185.47802699999994 C 294.793506 240.35694199999995 270.724132 261.73166699999996 248.318345 270.050442 C 245.840789 270.05990299999996 242.809944 270.653908 239.152825 272.051408 C 239.107548 270.05517199999997 239.551025 267.898102 240.66301 265.589659 C 242.874818 260.997776 246.91239700000003 257.399281 250.986975 253.85822599999997 C 270.751669 239.50614199999998 271.781548 199.071217 228.292463 180.19955799999997 C 226.196044 179.28929099999996 222.617484 171.98282399999997 220.612632 167.56934599999997 C 219.584442 164.41550999999995 218.307737 160.85688499999998 216.74568499999998 156.82792099999998 C 211.02204999999998 128.17105699999996 253.25943299999997 81.37439699999997 231.75495899999999 60.00102399999997 C 217.365876 45.70029899999997 202.06230299999999 62.292572999999976 197.29843599999998 80.79323199999997 L 180.89081699999997 75.55260599999997 C 176.17797099999996 52.16948099999997 166.66408899999996 49.33460999999997 161.07341199999996 47.86344999999997 C 151.67213099999995 45.389441999999974 142.83250299999997 53.47710299999997 142.83250299999997 76.80008399999997 C 134.04963999999998 81.25140599999997 104.97911799999997 81.45211099999997 88.10090699999998 126.11467699999997 C 85.56523499999997 144.62276999999997 101.81244199999998 156.69344099999998 135.10663399999999 164.21547999999996 C 135.44502799999998 165.59946499999995 135.23201999999998 167.96750499999996 136.607612 168.11604599999995 C 116.36510899999999 165.93018699999996 120.03833099999999 166.30316799999994 93.47971899999999 170.35142499999995 C 82.91505099999999 171.77396699999994 72.26592199999999 171.80142299999994 57.28187299999999 156.88579399999995 C 43.01871799999999 142.68776699999995 42.08598399999999 138.93439799999996 25.41307199999999 136.01414199999994 C 14.20843899999999 134.05165299999993 14.37203299999999 148.49023199999993 16.620715999999987 151.17856799999993 C 18.617650999999988 153.5659339999999 24.175628999999986 157.92561199999992 30.688485999999987 154.20704599999993 C 38.76440499999999 149.23402699999994 42.57866099999998 158.23602599999992 42.57866099999998 158.23602599999992 C 42.839171999999984 158.7570479999999 49.501817999999986 168.15739099999993 60.44343699999998 191.07091599999993 C 60.44343699999998 191.07091599999993 63.600248999999984 193.30424799999992 67.36716199999998 189.14319299999994 C 65.66327599999998 194.81122499999995 69.82192999999998 201.62151499999993 69.82192999999998 201.62151499999993 C 69.82192999999998 201.62151499999993 70.21270099999998 197.53282199999992 72.55732999999998 195.86483999999993 C 77.66801899999997 200.78027599999993 80.01264699999997 208.87530099999992 80.01264699999997 208.87530099999992 C 80.01264699999997 208.87530099999992 83.52958899999997 203.40450199999992 82.71738499999998 198.29995799999992 C 91.95715199999998 200.61997799999992 110.76876899999998 210.9710169999999 112.85893999999998 218.34589399999993 &#10;" stroke-width="0px" fill="#c56439" /><path d="M 121.497692 263.483681 L 120.273233 254.80426599999998 L 123.481807 257.48958799999997 C 123.478154 256.43490699999995 123.481633 255.39622999999997 123.492592 254.37355699999998 L 119.80234 237.28922599999999 L 120.744995 236.878 C 120.744995 236.878 122.255782 238.078802 122.524018 238.481156 C 122.792254 238.88351 121.328783 227.755699 121.328783 227.755699 C 121.328783 227.755699 123.61435900000001 227.788054 125.896283 227.800753 C 132.634376 193.13127899999998 152.081344 189.132085 166.502968 189.143218 C 177.57007000000002 189.15174199999998 198.996283 192.27908 203.26266900000002 218.132759 C 207.529403 243.986439 169.00111600000002 309.471097 185.14453200000003 352.12834699999996 L 185.59507200000002 353.24339 C 185.59507200000002 353.24339 164.79143900000003 336.913844 146.90953100000002 340.247838 C 143.422109 341.87152100000003 145.40605000000002 340.071797 145.40605000000002 340.071797 C 145.40605000000002 340.071797 130.95415900000003 323.43157 125.61517500000002 288.269111 L 122.83539600000002 282.579611 L 119.80234100000001 272.985548 L 123.47641500000002 271.193304 L 121.49769300000001 263.48368 Z &#10;" stroke-width="0px" fill="#e7caae" /><path d="M 107.126996 120.876194 C 110.09969500000001 121.351889 113.106554 121.837198 115.87750600000001 123.014078 C 119.794487 124.6777 123.04066300000001 127.638165 126.91544100000002 129.397845 C 138.37621900000002 134.60260799999998 154.17441100000002 129.140033 165.746376 134.09267 C 173.771745 137.527414 177.385062 145.73846 176.417396 154.414152 C 175.410749 163.439327 167.569005 169.875688 158.493034 169.569291 C 154.82126 169.445335 151.027009 168.38896699999998 147.44061 167.59207999999998 C 135.288222 164.891856 104.110965 160.34661599999998 90.51947899999999 140.997651 C 89.681868 139.80522 88.056435 134.096499 88.31772999999998 131.043305 C 88.73717199999999 126.14217500000001 89.67945899999998 120.093785 90.78678199999999 119.592426 C 95.30587799999999 117.54633 102.12754499999998 120.076175 107.12699699999999 120.876193 Z &#10;" stroke-width="0px" fill="#e7caae" /><path d="M 157.252692 120.384468 C 153.402625 119.404183 150.03465699999998 118.575057 146.197558 118.4688 C 146.19756099999998 118.468755 143.96249899999998 118.369263 143.96249899999998 118.369263 C 142.37026299999997 118.32701 140.902618 118.215288 139.26213099999998 118.507655 C 139.633144 117.660558 140.363938 117.042453 141.09585499999997 116.531515 C 146.27194399999996 113.21109799999999 154.51916799999998 114.54642799999999 157.25269199999997 120.384469 L 157.25269199999997 120.384469 Z &#10;" stroke-width="0px" /><path d="M 117.614231 81.190211 C 115.943387 80.53101600000001 113.107429 79.318121 111.459377 78.87934100000001 C 110.638003 78.636958 109.352577 78.35206300000002 108.501016 78.129337 C 107.34306900000001 77.856063 106.34523700000001 77.54000400000001 105.06157800000001 77.516277 C 105.31278200000001 76.81443300000001 105.89307400000001 76.310514 106.48010500000001 75.917319 C 110.68708500000001 73.26369600000001 117.376789 75.98233800000001 117.614231 81.190211 L 117.614231 81.190211 Z &#10;" stroke-width="0px" /><path d="M 112.858829 111.362419 C 109.008733 110.382199 105.640795 109.553092 101.803695 109.446751 C 101.80369800000001 109.446706 99.568636 109.34721300000001 99.568636 109.34721300000001 C 97.97639 109.30514300000002 96.50874999999999 109.193099 94.868268 109.48569800000001 C 95.239281 108.63860100000001 95.970075 108.02040200000002 96.701992 107.50946400000001 C 101.878082 104.18907000000002 110.12523 105.524455 112.858829 111.362418 L 112.858829 111.362418 Z &#10;" stroke-width="0px" /><path d="M 204.404196 98.797199 C 204.419608 97.03852900000001 204.43502 95.279859 204.450433 93.521189 C 204.50208700000002 87.62700600000001 204.580884 81.583551 206.701947 76.08399200000001 C 208.82300999999998 70.584433 213.455645 65.65698300000001 219.304294 64.92392600000001 C 225.032534 64.20596200000001 230.993003 68.10417500000001 232.631256 73.639908 C 232.631256 73.639908 211.573738 62.868863000000005 204.404196 98.7972 Z &#10;" opacity=".35" fill="#754123" mix-blend-mode="multiply" stroke-width="0px" /><path d="M 232.631174 73.639952 C 228.66552 65.761462 219.919185 63.16930099999999 213.05895199999998 69.098897 C 209.93960399999997 71.72881199999999 208.47142899999997 75.487843 207.113342 79.29100399999999 C 205.70592599999998 83.27400699999998 204.95698199999998 87.38858399999998 204.40430999999998 91.606 C 203.45996399999999 86.30305399999999 203.98232499999997 80.638064 205.67624999999998 75.46319399999999 C 207.22161799999998 69.90717899999999 211.48178099999998 64.88950099999998 217.259841 63.53568699999999 C 224.369631 61.69271699999999 231.395115 66.53419799999999 232.63117499999998 73.639951 L 232.63117499999998 73.639951 Z &#10;" stroke-width="0px" /><path d="M 111.982625 142.92007 C 116.567497 151.53762500000002 133.57662299999998 163.62937300000002 136.56765000000001 144.246381 L 131.195635 145.31732000000002 L 120.22453900000001 144.78970500000003 L 111.98262500000001 142.92007000000004 Z &#10;" stroke-width="0px" /><path d="M 368.821166 110.740011 C 362.5623 66.56513 332.18412 63.98664899999999 322.160541 71.784667 C 311.83745300000004 79.69627 301.51087700000005 98.063902 322.12512000000004 137.17931099999998 C 348.67858700000005 187.564363 377.04726100000005 322.466093 255.13217900000004 320.655473 C 255.13217900000004 320.655473 266.80116100000004 342.86603699999995 262.07316000000003 361.535395 C 254.22686900000002 371.453423 243.97685200000004 379.479848 243.97685200000004 379.479848 C 243.97685200000004 379.479848 291.54576000000003 402.154561 337.211809 383.884667 C 412.05258100000003 352.374853 420.904501 280.21829199999996 413.090453 233.01314899999997 C 411.63184800000005 224.28528799999998 403.15369100000004 158.02083499999998 349.529175 113.16476199999997 C 323.39925900000003 93.12088999999997 353.71038 78.63592899999998 368.821166 110.74000999999997 Z &#10;" fill="#754123" mix-blend-mode="multiply" stroke-width="0px" opacity=".25" /><path d="M 248.331031 420.475402 C 248.758957 420.475402 249.182012 420.28335699999997 249.462773 419.918055 C 251.769746 416.91074499999996 252.700745 413.483163 252.01676 410.513428 C 251.457325 408.08434 249.834338 406.08874399999996 247.446999 404.894727 C 246.744226 404.543341 245.88733100000002 404.827233 245.53490100000002 405.532093 C 245.18316700000003 406.23625699999997 245.46845100000002 407.092109 246.172267 407.444191 C 247.80847500000002 408.262469 248.868896 409.544855 249.239417 411.152882 C 249.731706 413.290424 248.988924 415.85310799999996 247.201377 418.18269499999997 C 246.722309 418.80753599999997 246.840249 419.70165799999995 247.464743 420.18107399999997 C 247.723238 420.37938099999997 248.028353 420.475403 248.331032 420.475403 Z &#10;" stroke-width="0px" /><path d="M 100.391844 403.641565 C 100.76897500000001 403.641565 101.14506300000001 403.492661 101.425128 403.198331 C 101.967515 402.627763 101.944206 401.72529199999997 101.373638 401.183253 C 98.743807 398.684583 97.570316 396.176173 97.979455 393.927996 C 98.381636 391.71948100000003 100.152135 390.311849 100.94675600000001 389.976466 C 101.671795 389.67030800000003 102.01100400000001 388.83393900000004 101.704846 388.1089 C 101.398688 387.383861 100.563362 387.044304 99.83762800000001 387.350462 C 98.288745 388.005223 95.768505 390.16085599999997 95.175672 393.417268 C 94.764098 395.67657699999995 95.16523500000001 399.216185 99.410746 403.249821 C 99.686289 403.511447 100.03941400000001 403.641565 100.391844 403.641565 Z &#10;" stroke-width="0px" /><path d="M 128.32389 373.475614 C 122.956918 378.394134 110.554688 381.127019 107.551818 381.118541 C 107.551818 381.118541 118.786637 376.181153 121.072957 372.459323 L 128.32389 373.475613 Z &#10;" fill="#754123" mix-blend-mode="multiply" stroke-width="0px" opacity=".25" /><path d="M 98.432718 388.905789 C 94.842013 389.710509 94.992898 392.426439 93.433753 392.879094 C 91.874608 393.331749 91.019593 389.678074 91.06988799999999 388.663244 C 90.24457299999999 389.257854 91.11464899999999 394.18676400000004 91.74610299999999 396.097974 C 92.377557 398.009184 98.211778 400.674819 98.211778 400.674819 L 96.904108 396.500334 L 97.50764799999999 391.01817900000003 L 98.432718 388.905789 Z &#10;" fill="#754123" mix-blend-mode="multiply" stroke-width="0px" opacity=".25" /><path d="M 97.251796 391.743647 C 97.498941 398.253078 109.276686 396.701499 112.08582 396.500321 C 114.894953 396.299144 122.95692 395.293257 130.199391 380.20473899999996 C 133.369043 373.60124299999995 134.226765 365.417944 135.26135399999998 358.159251 L 135.26131099999998 358.159208 C 135.26139799999999 358.158556 135.26157199999997 358.157903 135.26165899999998 358.157251 C 135.78447699999998 354.48956999999996 136.35417499999997 351.06050899999997 137.28856599999997 348.188231 C 141.40943999999996 332.215811 148.14192199999997 327.183029 160.37638399999997 325.48376399999995 C 174.86136999999997 323.47199099999995 200.04828499999996 349.43269499999997 211.998811 376.78894299999996 C 216.606146 385.90459 214.996727 383.926564 217.61211999999998 394.79031399999997 C 220.22742499999998 405.65402099999994 227.82806699999998 414.00296699999996 235.64588999999998 414.70713099999995 C 243.46371299999998 415.41125199999993 249.59975199999997 414.80771999999996 249.90147399999998 410.582909 C 250.08299499999998 416.025787 249.90147399999998 418.54833099999996 249.90147399999998 418.54833099999996 L 245.57611799999998 420.202369 L 232.92368999999997 419.05049199999996 L 222.33983099999998 412.60999 L 213.53716999999997 393.365547 L 209.96720699999997 382.61891099999997 L 188.60866199999998 355.19134299999996 L 168.22243099999997 342.986454 L 151.99390799999998 339.49933699999997 L 144.75139299999998 340.974637 L 141.05548799999997 346.93206899999996 L 138.98426599999996 363.23856599999993 L 138.82827299999997 363.02573399999994 C 138.14541799999998 367.4913399999999 137.17910599999996 372.55452099999997 135.62113399999996 378.1817019999999 C 129.44147599999997 400.5014709999999 113.90380999999995 406.5593179999999 103.94540099999995 403.6151969999999 C 93.98699199999994 400.6710319999999 97.25179699999995 391.7436469999999 97.25179699999995 391.7436469999999 Z &#10;" fill="#754123" mix-blend-mode="multiply" stroke-width="0px" opacity=".25" /><path d="M 237.768516 274.876008 L 235.64689900000002 275.892922 C 235.64689900000002 275.892922 235.54275400000003 272.472911 240.144269 270.947451 C 244.74578400000001 269.421991 238.585124 273.780532 238.585124 273.780532 L 237.768515 274.876008 Z &#10;" stroke-width="0px" /><path d="M 250.532416 364.098809 C 246.350152 364.199842 242.11465 363.87468 238.021183 364.73785100000003 C 233.074653 365.78090000000003 228.52163000000002 368.59825900000004 225.380863 372.55953300000004 C 222.240096 376.52080700000005 220.535133 381.59630100000004 220.64746300000002 386.65035800000004 C 222.61841700000002 387.33668200000005 224.786281 386.870532 226.80510600000002 386.34134100000006 C 237.557971 383.52271500000006 248.30296400000003 378.72184500000003 255.213285 370.01459700000004 C 257.532079 367.09283600000003 259.391937 363.80918800000006 262.131991 361.237404 C 258.596648 363.36260200000004 254.61101600000003 364.00028000000003 250.53241600000004 364.098809 Z &#10;" fill="#754123" mix-blend-mode="multiply" stroke-width="0px" opacity=".25" /><path d="M 110.546971 351.579706 C 103.709409 345.577514 93.618854 345.154042 85.703982 340.667011 C 88.007256 346.121043 91.00578399999999 351.281024 94.604022 355.982537 C 96.436958 358.37748 98.44530400000001 360.672977 100.866558 362.47101399999997 C 103.300676 364.278603 106.089906 365.53883299999995 108.869212 366.75034899999997 C 113.536742 368.78495399999997 118.24646800000001 370.72275399999995 122.994496 372.562145 C 124.219494 373.036703 126.296029 373.894296 127.423604 373.092463 C 126.610694 371.419847 124.007634 370.071828 122.731538 368.575661 C 121.204403 366.785161 119.947252 364.78321500000004 118.719968 362.78174900000005 C 116.30788199999999 358.84809600000006 114.062051 354.665336 110.546971 351.57970600000004 Z &#10;" fill="#754123" mix-blend-mode="multiply" stroke-width="0px" opacity=".25" /><path d="M 233.032199 271.659864 C 233.765546 274.29447600000003 234.769912 277.03254400000003 236.919325 278.723401 C 239.75103199999998 280.95099300000004 243.72575999999998 280.75997700000005 247.31621399999997 280.461025 C 250.34230599999998 280.209064 253.36839899999998 279.957103 256.39449099999996 279.705142 C 256.705297 279.67926300000005 257.06664599999993 279.672721 257.27036699999996 279.908873 C 257.47106899999994 280.141525 257.41665399999994 280.49264100000005 257.345105 280.79145400000004 C 256.516499 284.25196600000004 254.501126 287.89133200000003 251.04233399999998 288.72708500000005 C 249.19835899999998 289.17264800000004 247.26119899999998 288.73215500000003 245.450979 288.16481400000004 C 241.90612 287.05381900000003 238.444953 285.39942600000006 235.834374 282.75643800000006 C 232.608161 279.49016400000005 231.02428799999998 274.9952850000001 230.581842 270.49495800000005 C 230.50065999999998 269.66922200000005 230.001727 264.40982600000007 231.070948 264.5035700000001 C 231.832335 264.5703250000001 232.77474999999998 270.7349520000001 233.0322 271.6598640000001 Z &#10;" fill="#754123" mix-blend-mode="multiply" stroke-width="0px" opacity=".25" /><path d="M 251.661918 248.786111 C 247.387455 251.75822200000002 242.86957199999998 254.663567 239.95604999999998 258.978179 C 236.77490299999997 263.689115 235.86676999999997 269.597224 235.95396599999998 275.280974 C 237.39535499999997 275.128929 238.55018299999998 273.955422 239.17351499999998 272.64692 C 239.79684699999999 271.33841800000005 240.00696499999998 269.87896600000005 240.36442599999998 268.474351 C 241.30966199999997 264.760112 243.34987099999998 261.331634 246.16351799999998 258.729243 C 248.709408 256.374506 251.835816 254.709977 254.344272 252.315375 C 258.202198 248.632546 260.503387 243.39057699999998 262.096168 238.382614 C 259.605614 242.813017 255.77938999999998 245.923157 251.661918 248.78610999999998 Z &#10;" fill="#754123" mix-blend-mode="multiply" stroke-width="0px" opacity=".25" /><path d="M 234.714982 253.378836 C 239.324762 249.121994 241.165617 242.59300000000002 241.512195 236.327965 C 241.931435 228.74941 240.23892999999998 220.67077700000002 235.020299 215.159321 C 229.801668 209.647865 220.50240399999998 207.688612 214.41346299999998 212.22017300000002 C 210.406098 215.20256700000002 208.45563299999998 220.33598200000003 208.19343899999998 225.32445700000002 C 207.931245 230.31293200000002 209.14162399999998 235.24937400000002 210.37978499999997 240.08885600000002 C 213.33983699999996 251.65852700000002 216.51057899999998 263.17429400000003 219.88990899999996 274.62852100000003 C 222.51333999999997 283.52063400000003 228.58126199999995 291.47344200000003 235.20337799999996 297.96186600000004 C 241.82549399999996 304.45029000000005 249.24173699999994 310.161555 255.20198699999995 317.26278600000006 C 246.46295299999994 302.79221600000005 237.72391799999994 288.32164400000005 228.98488199999994 273.85107300000004 C 220.29289899999995 259.45841400000006 214.58194299999994 243.26867400000003 213.89545199999995 226.46903300000002 C 213.75721199999995 223.086057 212.50876799999995 218.220006 214.95880499999996 215.88313800000003 C 217.10112999999996 213.83976700000002 220.44991699999994 217.04680400000004 223.23505099999994 218.05077100000003 C 226.02018499999994 219.054739 230.00320799999994 221.86211600000001 231.67965999999996 224.30228500000004 C 238.01044999999996 233.51710400000005 236.96983099999994 242.42861100000005 234.71498099999997 253.37883500000004 Z &#10;" fill="#754123" mix-blend-mode="multiply" stroke-width="0px" opacity=".25" /><path d="M 161.590875 63.888485 C 159.312496 63.016017000000005 156.86053800000002 62.638949000000004 154.621123 61.670844 C 151.801262 60.451811 149.398287 58.290843 147.887878 55.615713 C 145.352088 62.33261 143.838396 69.434316 143.41488 76.601434 C 143.38822100000002 77.052587 143.40163 77.583709 143.76765500000002 77.848805 C 143.98563600000003 78.006678 144.273187 78.022041 144.54231900000002 78.01929799999999 C 146.26754400000002 78.001718 147.94236400000003 77.48611399999999 149.61714100000003 77.07154799999999 C 155.56014800000003 75.60044799999999 161.72140100000004 75.380595 167.81608000000003 75.523207 C 169.36299400000001 75.559404 170.90943300000004 76.841986 172.45512500000004 76.91278199999999 C 174.19097200000004 76.99228699999999 176.58912500000002 78.23666999999999 175.27834500000003 76.522516 C 173.71641000000002 74.479916 171.52126800000002 71.040295 169.64530500000004 69.280036 C 167.57166400000003 67.33429199999999 164.26027700000003 64.910688 161.59087500000004 63.888484999999996 Z &#10;" opacity=".35" fill="#754123" mix-blend-mode="multiply" stroke-width="0px" /><path d="M 176.567284 151.784166 C 170.765282 155.781125 163.873843 157.997043 156.900423 159.002188 C 149.92700299999998 160.007333 142.838213 159.84886999999998 135.80562999999998 159.42263599999998 C 132.73587899999998 159.236583 129.65549199999998 158.99793799999998 126.65720699999999 158.31363 C 123.98798599999999 157.704425 121.41238799999999 156.748525 118.84580899999999 155.795348 C 114.31190199999999 154.111542 109.76049499999999 152.419865 105.50793499999999 150.116117 C 99.03892099999999 146.611645 93.354238 141.721917 88.71195399999999 136.014145 C 90.633625 143.479553 95.939505 150.003216 102.85684099999999 153.40550900000002 C 105.94775399999999 154.92577500000002 109.29635699999999 155.83545500000002 112.51896599999999 157.05190000000002 C 117.221819 158.827095 121.660349 161.25772400000002 126.39375 162.94978100000003 C 131.551661 164.79358900000003 136.980954 165.73320600000002 142.378734 166.66467700000004 C 148.234473 167.67517400000003 154.19694 168.68866000000003 160.089705 167.92308500000004 C 164.436835 167.35831500000003 169.077559 165.74935200000004 172.505934 162.86914900000005 C 175.395892 160.44127400000005 176.606573 156.12834300000006 176.567284 151.78416700000005 Z &#10;" fill="#754123" mix-blend-mode="multiply" stroke-width="0px" opacity=".25" /><path d="M 366.189652 53.489081 C 332.872696 30.565942999999997 279.59861800000004 16.916989 265.49466700000005 74.84059500000001 C 251.39071700000005 132.764201 293.83018000000004 177.111027 281.96735800000005 229.676576 C 288.411916 197.344164 266.74715000000003 169.85488400000003 255.20198800000006 140.99535300000002 C 249.53016700000006 126.88785300000002 230.39498500000005 58.07256300000002 262.09616900000003 29.06571200000002 C 277.14583600000003 7.0278820000000195 345.79154700000004 8.61455800000002 366.189652 53.489080000000016 Z &#10;" stroke-width="0px" opacity=".66" fill="#d8b58e" /><g opacity=".66"><path d="M 150.629353 54.200453 C 156.476423 51.606537 161.816615 54.760979000000006 166.651677 58.125911 C 169.064259 59.799324 171.171707 61.629489 173.147472 63.852443 C 175.242558 66.194611 176.93137 68.724195 178.64472899999998 71.493715 C 179.75830399999998 64.50701799999999 175.647112 57.34965999999999 169.91661299999998 53.455620999999994 C 166.976451 51.447739999999996 163.651839 49.82321399999999 159.978493 49.58301399999999 C 156.400996 49.31012599999999 152.14803099999997 50.82170699999999 150.62935199999998 54.20045299999999 L 150.62935199999998 54.20045299999999 Z &#10;" stroke-width="0px" fill="#d8b58e" /></g><g opacity=".66"><path d="M 194.607085 82.062428 C 176.005286 75.033926 152.93113400000001 75.529584 134.240653 82.062141 C 144.40164800000002 83.058722 154.356298 82.726824 164.45274600000002 82.71937799999999 C 173.43055300000003 82.55351499999999 185.68249400000002 82.77112799999999 194.607085 82.06242699999999 L 194.607085 82.06242699999999 Z &#10;" stroke-width="0px" fill="#d8b58e" /></g><path d="M 164.159669 90.022916 C 162.489019 89.36372999999999 159.652522 88.150818 158.004815 87.712046 C 157.183213 87.469665 155.898152 87.184764 155.046454 86.962041 C 153.888571 86.68893 152.89038200000002 86.37277 151.60701600000002 86.348981 C 151.85822000000002 85.647137 152.438512 85.14321799999999 153.02554300000003 84.750023 C 157.23243100000002 82.096546 163.92210600000004 84.815004 164.15966900000004 90.022915 L 164.15966900000004 90.022915 Z &#10;" stroke-width="0px" /><g opacity=".66"><path d="M 215.910486 137.802032 C 214.85580399999998 145.31269 212.639662 153.281728 213.82887499999998 160.866894 C 214.42055799999997 164.755007 215.33847599999999 168.597296 216.59165399999998 172.316172 C 217.98679699999997 176.229252 220.42040699999998 179.832527 223.36648599999998 182.703457 C 226.19221599999997 185.541858 229.51248299999997 187.605097 232.75793099999999 189.836201 C 237.33263899999997 192.999076 241.739041 196.482849 246.01315899999997 200.066981 C 250.115909 203.614363 255.05103399999996 207.07584 259.11740999999995 210.71885699999999 C 257.40546199999994 202.86162099999999 251.08967299999995 197.20714199999998 245.20328799999996 192.232624 C 240.86074799999994 188.499494 236.09691399999997 185.15203599999998 231.30706699999996 182.00702299999998 C 226.99957699999996 179.05655599999997 223.25079999999997 175.29834899999997 221.15765699999997 170.49240499999996 C 219.76889199999997 167.12326399999995 218.54145699999998 163.60591399999996 217.57833599999998 160.10428299999995 C 215.511048 152.79880999999995 216.70324499999998 145.28590999999994 215.910487 137.80203099999994 L 215.910487 137.80203099999994 Z &#10;" stroke-width="0px" fill="#d8b58e" /></g><g opacity=".66"><path d="M 249.410471 312.405 C 252.443453 324.29670999999996 256.381221 336.988413 259.312508 348.84586199999995 C 260.34797699999996 352.9047029999999 261.30019899999996 356.91155 262.124392 361.23742799999997 C 262.502567 360.21127599999994 262.873436 359.14024299999994 263.072439 358.05912199999995 C 265.93231799999995 343.27489299999996 259.827977 323.2606609999999 249.41047099999997 312.405 L 249.41047099999997 312.405 Z &#10;" stroke-width="0px" fill="#d8b58e" /></g><g opacity=".66"><path d="M 118.17483 278.117876 C 107.385144 291.08450400000004 81.593384 317.84643000000005 85.96603400000001 335.43129300000004 C 86.48135400000001 332.63197700000006 87.35790600000001 330.099909 88.54896600000001 327.68560700000006 C 92.156452 320.36889600000006 97.13146 314.01737800000006 101.822793 307.27786000000003 C 108.159152 298.19250700000003 114.727663 288.83816800000005 118.17483 278.117876 L 118.17483 278.117876 Z &#10;" stroke-width="0px" fill="#d8b58e" /></g><path d="M 220.421828 386.996597 C 228.326155 391.549928 239.860475 397.585328 239.860475 397.585328 L 227.849951 385.90456 L 220.421828 386.996597 Z &#10;" fill="#754123" mix-blend-mode="multiply" stroke-width="0px" opacity=".25" /><path d="M 258.100796 404.358388 C 258.234916 408.78434799999997 254.278376 411.131448 250.657136 408.247868 C 249.98214900000002 409.516051 251.26067600000002 413.41148799999996 251.26067600000002 413.41148799999996 L 249.94110700000002 417.706329 L 258.704336 412.609738 L 258.100796 404.358388 Z &#10;" fill="#754123" mix-blend-mode="multiply" stroke-width="0px" opacity=".25" /><path d="M 149.496629 91.816677 L 149.49702000000002 91.816068 L 149.49706300000003 91.816068 C 150.33491100000003 90.545163 151.86548500000004 89.813427 153.46468400000003 90.076141 C 155.63366800000003 90.43248500000001 157.10314100000002 92.47961400000001 156.74684100000005 94.64864200000001 C 156.61937600000005 95.42464900000002 156.27281700000003 96.10854800000001 155.78431200000006 96.65389200000001 L 155.78566000000006 96.654936 C 150.22932100000006 105.57949500000001 153.00183700000005 117.446218 153.00183700000005 117.446218 L 145.14718000000005 116.155917 C 143.09357100000005 102.801151 148.64243000000005 93.20387 149.40830400000004 91.957754 C 149.43696300000005 91.91004699999999 149.46614400000004 91.86299299999999 149.49662900000004 91.816678 Z &#10;" stroke-width="0px" /><path d="M 103.722637 83.99781 C 103.75147000000001 83.949799 103.78086800000001 83.902396 103.811571 83.855777 L 103.811701 83.85556 L 103.811701 83.85556 C 104.649592 82.584655 106.180166 81.852919 107.779365 82.115633 C 109.948349 82.471933 111.417822 84.51910600000001 111.061522 86.68809 C 110.934057 87.46409700000001 110.587498 88.148039 110.098993 88.69338400000001 L 110.10034099999999 88.694428 C 104.54395899999999 97.618987 107.31651799999999 109.48571 107.31651799999999 109.48571 L 99.46186099999998 108.195409 C 97.40846899999998 94.842426 102.95567599999998 85.245972 103.72263699999999 83.997811 Z &#10;" stroke-width="0px" /><circle cx="152.915973" cy="94.16032" r="2.722138" stroke-width="0px" fill="#fff" /><circle cx="107.112029" cy="86.356875" r="2.722138" stroke-width="0px" fill="#fff" /><path d="M 137.293256 212.263376 C 143.699139 198.207765 161.955916 190.10171599999998 176.755987 195.77930899999998 C 192.26173 201.534237 200.697065 219.69158199999998 197.460181 235.51885799999997 C 197.460216 235.51887399999995 196.645935 239.59074799999996 196.645935 239.59074799999996 C 194.695184 238.69936399999997 190.677334 236.86764099999996 188.712951 235.97018299999996 C 188.712964 235.97019199999997 192.902114 234.11353699999995 192.902114 234.11353699999995 C 190.87132100000002 239.37122099999996 189.15060400000002 245.05714599999996 187.632168 250.50245999999996 C 185.79637400000001 248.74932699999997 183.608289 245.90975299999997 180.944876 245.41059499999994 C 180.944909 245.41051899999994 183.72806599999998 243.24532699999995 183.72806599999998 243.24532699999995 C 183.296778 246.64232999999996 183.12175399999998 250.08327699999995 183.18708399999997 253.53975999999994 L 183.24211799999998 256.44917699999996 C 180.74763499999997 255.07108999999997 178.04752299999998 253.75709799999996 175.12379499999997 253.51330299999995 C 175.12382799999997 253.51322499999995 176.26120099999997 252.30551499999996 176.26120099999997 252.30551499999996 C 176.21779899999999 255.33806299999995 176.13998599999996 259.71370499999995 175.97705499999998 262.71057499999995 C 175.61353699999998 261.01140499999997 175.27339499999997 259.30796899999996 174.95571099999998 257.60176299999995 C 174.78204699999998 256.71448399999997 173.97402999999997 252.11035099999995 173.82769699999997 251.35384499999995 C 176.61489799999998 251.11275999999995 179.43343599999997 251.26215599999995 182.16333399999996 252.16825399999996 C 182.16333599999996 252.16820999999996 179.88615599999997 253.86776499999996 179.88615599999997 253.86776499999996 C 179.07928599999997 249.46813599999996 178.94064399999996 244.86691799999997 179.04253699999998 240.37957099999997 C 179.04248599999997 240.37957099999997 181.802057 240.76948999999996 181.802057 240.76948999999996 C 184.04909899999998 241.08696599999996 186.233806 242.00672899999995 188.06097799999998 243.46728799999997 L 183.75502099999997 244.84754099999998 C 184.76620799999998 239.48914 186.30240399999997 234.13036099999997 187.95769899999996 228.92929199999998 C 187.95764799999995 228.92927899999998 191.17508799999996 230.21640499999998 191.17508799999996 230.21640499999998 L 195.54543799999996 231.96477 L 191.08036899999996 234.37026899999998 C 192.08502399999998 227.84048199999998 190.94690199999997 220.99593399999998 188.05068099999997 215.053927 C 177.90549399999998 193.781565 151.20449899999997 195.21198199999998 137.29325599999999 212.263376 L 137.29325599999999 212.263376 Z &#10;" stroke-width="0px" fill="#eeddcf" /><path d="M 132.668418 207.845991 C 130.725962 196.117278 126.818248 195.335736 126.818248 195.335736 L 119.80234 203.211508 L 116.137164 200.024992 L 78.49285499999999 191.297765 L 76.40874099999999 191.297765 C 76.40874099999999 191.297765 73.01800999999999 189.734679 73.01800999999999 189.734679 L 71.06819899999999 191.949239 L 74.06411299999999 179.965395 C 74.06411299999999 179.965395 65.727657 185.17568 64.425086 183.873109 C 63.12251499999999 182.570538 54.916315999999995 163.565473 43.714203 154.636622 L 60.44344099999999 191.070919 L 67.367166 189.14319600000002 L 69.37485699999999 199.37370700000002 L 72.55733299999999 195.86484300000004 L 79.51845199999998 207.33035700000005 L 84.22416899999999 198.98293600000005 L 105.049602 208.44587600000006 L 112.858944 218.34589700000006 L 117.614257 212.92044800000008 L 119.802342 218.3458970000001 L 124.275139 209.7046950000001 L 127.730049 220.2148480000001 L 132.668419 207.8459930000001 Z &#10;" fill="#754123" mix-blend-mode="multiply" stroke-width="0px" opacity=".25" /><path d="M 175.371591 158.766048 C 176.570899 175.406396 158.210215 175.406396 142.318846 173.192025 C 142.318846 173.192025 139.821159 174.624853 132.668418 174.885368 C 125.51567700000001 175.145883 120.02988500000001 172.410483 111.114768 172.931511 C 102.199651 173.45254 94.868253 173.322282 94.868253 173.322282 C 94.868253 173.322282 105.91344099999999 169.929275 106.36787899999999 169.579783 C 106.82231699999998 169.230291 143.36090299999998 168.191625 143.36090299999998 168.191625 L 161.698648 168.191625 C 161.698648 168.191625 170.063613 164.98582599999997 170.063613 164.98582599999997 L 175.371591 158.76604799999998 Z &#10;" fill="#754123" mix-blend-mode="multiply" stroke-width="0px" opacity=".25" /><path d="M 36.680317 150.527285 C 27.171547000000004 150.657542 20.528433000000003 151.960113 17.141748000000003 145.447257 C 15.406516000000003 148.42553900000001 15.725092000000004 149.56469800000002 15.725092000000004 149.56469800000002 L 22.612548000000004 155.73757000000003 L 32.361084000000005 154.23273000000003 L 36.68031800000001 150.52728500000003 Z &#10;" fill="#754123" mix-blend-mode="multiply" stroke-width="0px" opacity=".25" /><path d="M 84.614607 173.391709 C 68.616866 174.36863699999998 57.273875000000004 162.957145 47.491659000000006 152.102884 C 36.68031800000001 140.10671399999998 22.742805000000004 137.597524 17.141749000000004 145.44725599999998 C 12.924385000000004 151.35778 16.611502000000005 140.51830099999998 16.611502000000005 140.51830099999998 L 23.068448000000004 136.014143 L 36.680318 137.597523 L 48.273202 146.684698 L 57.281878 156.885795 L 68.202542 166.834477 L 84.61460699999999 173.391708 Z &#10;" stroke-width="0px" fill="#d8b58e" /><path d="M 15.063025 152.603661 C 18.635165 156.50692999999998 24.001485 159.820925 36.695896000000005 155.01346999999998 C 44.082779 158.00174199999998 48.788192 169.193907 53.761888000000006 181.024004 C 55.27494600000001 184.621824 56.84003800000001 188.343986 58.53082400000001 191.96478199999999 L 58.96331900000001 192.890592 L 59.95738200000001 193.125761 C 61.83873600000001 193.573123 63.54438900000001 193.350118 64.94662000000001 192.890592 C 65.06961100000001 195.404471 65.76700900000002 198.821183 67.99436000000001 202.677148 L 72.56326700000001 210.58775599999998 L 71.92736400000001 201.474271 C 71.92601200000001 201.431021 71.89425100000001 200.34302599999998 72.588271 199.09149299999999 C 74.162824 201.070159 76.603043 204.682845 77.98500100000001 209.461918 L 79.24599500000001 213.824714 L 81.767983 210.047138 C 81.905841 209.840351 84.508922 205.88572299999998 84.946823 201.371554 C 106.08908199999999 209.309193 107.910968 213.063792 110.007894 217.383338 C 110.31875 218.02397200000001 110.63703899999999 218.676769 111.005336 219.353894 L 112.451492 222.012388 L 115.970922 217.99694 L 116.579794 224.491126 L 123.46119900000001 214.115295 L 125.13052900000001 222.946983 C 124.61803900000001 224.729674 124.26917100000001 226.00823799999998 124.26917100000001 226.00823799999998 C 124.23099000000002 226.15961099999998 124.15040400000001 226.47925199999997 124.08122100000001 226.644141 C 123.84917700000001 226.644141 123.23033700000002 226.49885 122.33696400000001 225.98864 L 119.41694500000001 224.322182 C 119.40799100000001 224.327588 119.39886800000001 224.33299399999999 119.38991400000002 224.337725 C 119.38687300000002 224.35056500000002 119.38222700000001 224.36408 119.37960800000002 224.37692 C 119.36558600000002 224.54451200000003 119.34894500000001 224.711428 119.33644300000002 224.878344 L 119.29488300000001 227.725379 C 119.26236100000001 229.96354200000002 119.58563500000001 231.707038 119.90637400000001 233.384309 C 119.90637400000001 233.384309 116.65201600000002 230.263586 116.33752800000002 229.549293 C 116.33313500000003 229.62903400000002 117.02200200000001 242.038269 119.90696500000001 251.376111 L 116.78708600000002 247.941829 C 116.78708600000002 247.941829 120.31183800000002 265.381523 120.25068000000002 265.54033000000004 C 120.27298100000002 265.67278200000004 120.26960200000002 265.81672100000003 120.20447400000002 265.98093500000004 C 119.44574900000002 267.89202300000005 117.62563700000001 272.682584 113.05419600000002 280.18164600000006 C 113.06644400000002 280.17353700000007 113.07945300000002 280.1681310000001 113.09170100000001 280.1600210000001 C 109.84359400000001 285.6743350000001 105.64222400000001 291.44476800000007 101.56198600000002 297.0482840000001 L 101.55810000000002 297.0536900000001 L 102.05048600000002 297.41252600000007 L 101.55556600000003 297.05706900000007 C 92.19069300000002 309.9197480000001 82.50693900000003 323.22100300000005 82.50693900000003 335.43156000000005 C 82.50693900000003 342.936704 91.57683700000003 356.41366100000005 99.68646100000004 363.44981800000005 C 103.73350100000003 366.96113900000006 110.14693300000003 370.43461600000006 116.85905600000004 372.80658200000005 C 113.36724800000003 376.73958600000003 108.47413900000004 379.35212700000005 103.31477500000004 379.93532000000005 C 102.56584900000004 380.02046700000005 101.79707200000004 380.06979900000005 100.98344000000004 380.12250900000004 C 97.89574500000005 380.321862 94.76032400000004 380.52391900000003 92.07792400000004 382.47285000000005 C 90.09089600000004 383.916303 88.76756200000004 386.17406300000005 88.35162300000003 388.83053000000007 C 87.85653400000004 391.99247600000007 88.67667000000003 395.4058090000001 90.54569200000003 397.96023400000007 C 93.25233500000003 401.65942000000007 97.91019000000003 404.15437700000007 104.01614500000002 405.1747950000001 C 105.88981200000002 405.4876780000001 107.71702000000002 405.6464850000001 109.44717000000003 405.6464850000001 C 111.31593800000003 405.6464850000001 113.10707600000003 405.4613230000001 114.77074700000003 405.0957290000001 C 121.70917000000003 403.57185900000013 128.15791000000002 398.5204500000001 132.46318100000002 391.2356080000001 C 136.281303 384.7758860000001 138.11062300000003 377.4417130000001 139.513191 370.47043100000013 C 140.431821 367.5929860000001 140.847506 363.7924340000001 141.289716 359.68643300000014 C 142.121256 351.97112400000015 143.063284 343.22863800000016 147.369568 342.22916800000013 C 154.54696199999998 340.56473700000015 171.358862 343.4009600000001 188.257769 358.03281400000014 C 191.236918 360.61224300000015 197.848689 369.01616600000017 207.90944 383.01076500000016 L 209.445981 385.01984100000016 C 210.88115599999998 392.0431580000002 213.343337 401.51142500000014 217.074454 407.82315200000016 C 221.379809 415.10664200000014 227.82838 420.15872700000017 234.766719 421.68259700000016 C 236.430812 422.04819100000014 238.222795 422.23402800000014 240.093337 422.23402800000014 C 241.820615 422.23402800000014 243.646556 422.0752210000001 245.521152 421.7623380000001 C 251.626768 420.7419200000001 256.284539 418.2462870000001 258.991858 414.5471010000001 C 260.86054199999995 411.99200000000013 261.68076199999996 408.5786670000001 261.185589 405.4167210000001 C 260.76965 402.7609300000001 259.446485 400.5031700000001 257.45971 399.0597170000001 C 254.77688799999999 397.1101100000001 251.64163499999998 396.9087290000001 248.60943799999998 396.7134300000001 C 247.76269299999998 396.6586920000001 246.98251299999998 396.6093610000001 246.223281 396.5228620000001 C 240.12340899999998 395.8328970000001 234.35703099999998 392.2350770000001 230.92663399999998 387.1343370000001 C 231.67556 387.00256100000007 232.342211 386.8545670000001 232.86999099999997 386.69238100000007 C 236.79522299999996 385.4874760000001 240.57398099999997 383.8365610000001 244.10743399999998 381.7849120000001 C 250.402943 384.69141500000006 271.509724 393.41768200000007 297.68987699999997 393.41768200000007 C 309.123294 393.41768200000007 320.14212399999997 391.72959900000006 330.44041 388.40208900000005 C 354.772153 380.64758500000005 374.506775 367.47405000000003 389.093352 349.24707900000004 C 402.325003 332.71224600000005 411.012075 312.49376900000004 414.913317 289.15254200000004 C 420.205808 257.48578200000003 416.172621 221.56975600000004 403.556263 188.02029000000005 C 391.012212 154.66341900000003 371.15122 126.64786500000005 347.631926 109.13383500000005 C 342.77987 105.03324000000005 340.48528000000005 100.57989000000005 341.523776 97.24427100000005 C 342.097677 95.40076000000005 343.728657 94.21748000000005 345.998243 93.99785400000006 C 354.039275 93.20111700000007 362.355855 103.04376200000006 367.030689 111.70583100000006 L 368.769117 114.92724500000006 L 370.586611 111.74975700000006 C 385.114903 86.34742000000006 378.891871 47.060634000000064 343.331302 25.285175000000066 C 321.773273 12.085285000000066 293.608204 9.253117000000067 273.245788 18.236854000000065 C 257.798613 25.053384000000065 247.896668 37.670757000000066 244.611225 54.72593600000007 C 235.281154 103.38029800000007 253.14810599999998 141.94873600000008 266.193751 170.11025800000007 C 270.68663300000003 179.80761200000006 274.563547 188.17707100000007 276.852055 195.65721100000007 C 282.640395 214.57617400000007 281.839604 233.11738000000008 274.65427 246.52743500000008 C 268.828593 257.4006350000001 259.08173899999997 264.9517320000001 245.68536799999998 268.9719100000001 C 244.37132599999998 269.1489630000001 242.97500799999997 269.4523850000001 241.52192599999998 269.8747440000001 C 241.74121499999998 269.0063750000001 242.06490999999997 268.1251660000001 242.48929599999997 267.2446320000001 C 244.59264199999996 262.8784570000001 248.67093699999998 259.33402400000006 252.26875699999997 256.20654300000007 C 257.63473899999997 252.29516400000006 261.71066899999994 246.62136700000008 264.02181499999995 239.82308300000005 C 265.85721699999993 238.01065800000006 271.36815199999995 232.06993000000006 272.57863199999997 225.05066800000006 L 272.988658 222.67059300000005 L 268.24371199999996 222.67059300000005 C 268.24371199999996 222.67059300000005 268.86508599999996 218.87815000000006 268.86508599999996 218.87815000000006 L 265.71293899999995 215.86892900000007 C 265.6842189999999 214.54170900000005 265.892864 212.84822000000005 266.58519399999994 212.11027500000006 L 267.61591799999997 211.01079100000007 L 266.86479499999996 209.70452000000006 C 265.641307 207.57853600000007 263.09752499999996 207.07778700000006 261.04198999999994 207.06156900000005 C 256.7574149999999 198.98201700000004 249.83495699999995 191.60054000000005 240.46062299999994 185.11851800000005 C 239.57468399999993 184.50559100000004 238.63197899999994 183.91158600000006 237.57946099999995 183.30203800000004 C 220.33067299999996 173.21070800000004 214.19836299999994 153.43621500000003 221.57764399999996 131.69724800000003 L 221.76584699999995 131.14311300000003 L 221.75706199999996 131.13973400000003 C 223.34614399999995 126.37688000000003 225.67874599999996 120.89838200000003 227.93718199999995 115.59288200000003 C 236.42794199999994 95.64877000000003 246.05163699999994 73.04346000000004 233.38560799999996 60.01183800000003 C 225.47905499999996 51.875521000000035 218.50777199999996 52.153940000000034 214.05222599999996 53.82039800000003 C 207.20106199999995 56.38360800000003 202.59093299999995 63.335293000000036 199.93007399999996 68.71512800000004 C 198.25449299999997 72.10345800000003 196.87658999999996 75.84386600000003 195.86529499999997 79.67550300000003 C 188.996392 76.47639000000004 184.203129 75.49381500000004 182.780794 75.25526700000003 C 178.28301299999998 54.39615700000003 170.02454999999998 49.49814900000003 161.76304599999997 47.32486000000003 C 157.51496299999997 46.20713000000003 153.50314699999998 46.97683600000003 150.16237499999997 49.55153500000003 C 146.12783599999997 52.661446000000026 141.28279199999997 59.87871000000003 140.98790099999997 76.60411200000003 C 139.81551799999997 76.87644900000002 138.81165599999997 77.12648500000003 137.86033499999996 77.38192800000003 C 120.47757399999996 82.05558000000003 97.64807699999997 93.75390000000003 87.60329099999996 122.94800400000003 C 85.79517399999996 127.23781600000002 84.48358099999996 133.95906200000002 88.58552799999995 141.404062 C 94.52507299999995 152.185357 107.97026799999995 160.250718 131.80278299999995 166.21509700000001 C 131.80278299999995 166.21509700000001 131.38895599999995 166.215773 130.76715999999996 166.223206 C 128.34315899999996 166.184687 126.35950999999996 166.131977 124.64988699999996 166.0867 C 117.53669199999996 165.893429 114.87481899999996 165.823148 104.21110799999997 167.495013 C 89.10891499999997 170.261631 76.51924899999997 171.411798 62.961198999999965 159.37086 C 58.940344999999965 155.79872 55.817593999999964 152.34146099999998 53.06178899999996 149.291018 C 45.903992999999964 141.369598 40.249793999999966 135.110581 25.585501999999963 133.91175800000002 L 25.48075699999996 133.90229700000003 L 25.37601199999996 133.90500000000003 C 18.09319799999996 134.03204500000004 15.19345199999996 138.26374100000004 14.11356599999996 140.77491600000002 C 12.22477799999996 145.16474300000002 13.08030799999996 150.43442700000003 15.06302799999996 152.60366100000002 Z M 179.316605 78.612512 L 175.98639200000002 77.03457999999999 C 175.66742700000003 76.88320699999998 168.05449700000003 73.34147599999999 157.78138400000003 74.078745 C 153.51252100000002 74.384871 149.24391100000003 74.942384 145.08190500000003 75.736418 C 145.42097500000003 64.418558 148.09737700000002 56.280215 152.64626400000003 52.772948 C 154.25536600000004 51.532903 156.10301600000003 50.903757999999996 158.08573600000003 50.903757999999996 C 158.94388400000003 50.903757999999996 159.82712100000003 51.021342999999995 160.72767400000004 51.258539 C 165.55379700000003 52.528318 174.53618200000003 54.891498999999996 179.06876600000004 77.382603 L 179.31660600000004 78.612511 Z M 248.20194500000002 379.15344899999997 C 254.66572100000002 374.58116299999995 258.83355600000004 369.54056699999995 261.119361 366.77529999999996 C 261.702892 366.06979199999995 262.206681 365.46024399999993 262.57227500000005 365.068971 C 264.88950300000005 362.59361199999995 268.0311760000001 355.708828 263.03146300000003 337.40954899999997 C 259.43381200000005 324.23939299999995 252.58670300000003 309.414944 244.24461300000002 296.732697 C 242.34704000000002 293.59034899999995 240.51417300000003 290.46151599999996 238.77540700000003 287.39890899999995 C 240.52667500000004 288.67679699999997 242.41123900000002 289.70802799999996 244.40629200000004 290.47908599999994 C 248.90035700000004 292.48883699999993 253.45051100000003 291.4271969999999 256.54859600000003 287.62867199999994 C 260.026804 283.3631879999999 260.498325 276.9048179999999 257.62257000000005 272.92518599999994 C 257.00288500000005 272.06830499999995 255.96388300000007 270.96341499999994 254.33493000000004 270.11193999999995 C 265.01621100000006 265.4078789999999 273.05521600000003 258.12506399999995 278.24009000000007 248.44798399999996 C 285.9334370000001 234.08981799999995 286.84539400000006 214.41466399999996 280.74214200000006 194.46717299999995 C 278.37220300000007 186.72077799999994 274.44139600000005 178.23441099999994 269.88955300000003 168.40933499999994 C 257.07198200000005 140.74112799999995 239.52298200000004 102.86062799999995 248.60622600000005 55.49361499999995 C 251.62811700000006 39.80822899999995 260.71609300000006 28.212626999999948 274.88808300000005 21.959691999999947 C 294.084283 13.489542999999948 320.73578800000007 16.220344999999945 341.20666500000004 28.754597999999948 C 354.19537500000007 36.70777999999995 364.71700400000003 49.16634599999995 370.07403200000005 62.935236999999944 C 374.143204 73.39351199999994 377.15647900000005 89.36812899999994 368.74782600000003 106.53683799999995 C 363.593361 98.18292199999995 355.41548500000005 89.88779899999994 346.86728400000004 89.88779899999994 C 346.44729100000006 89.88779899999994 346.02729700000003 89.90739599999995 345.60561400000006 89.94861899999995 C 341.68578800000006 90.32840399999995 338.70799100000005 92.60305799999995 337.6394230000001 96.03463799999994 C 336.0954490000001 100.99481799999994 338.87423100000007 107.07340299999994 345.07209000000006 112.29510699999994 L 345.15352100000007 112.35998099999995 C 368.08573600000005 129.42462099999995 387.46963200000005 156.79954199999995 399.7486110000001 189.45225599999995 C 412.1167920000001 222.34149099999996 416.0776710000001 257.51146299999994 410.9010750000001 288.482176 C 407.1157280000001 311.12938299999996 398.7099470000001 330.718714 385.9168730000001 346.704819 C 371.8405050000001 364.294535 352.75699100000014 377.020032 329.19681300000013 384.527879 C 293.5492380000001 396.050498 259.3341350000001 383.89603 248.20194400000014 379.15344999999996 Z M 120.92797500000002 283.28817799999996 C 122.18263400000002 286.384574 123.36768700000002 289.30864699999995 124.26055300000002 293.42208199999993 C 129.056013 320.50844699999993 139.08973300000002 335.86608299999995 142.55467900000002 340.5187849999999 C 138.84392100000002 344.4092149999999 137.99599300000003 352.2799519999999 137.24537800000002 359.25123499999995 C 137.01595300000002 361.37924699999996 136.75603300000003 363.79108299999996 136.39365 365.9082829999999 C 136.264746 366.66041899999993 136.12131300000001 367.22806899999995 135.955073 367.8855969999999 C 135.838333 368.3471509999999 135.711372 368.8512779999999 135.571994 369.4824499999999 C 135.56430699999999 369.51285999999993 135.550792 369.5398909999999 135.54454099999998 369.5709759999999 C 134.20988799999998 376.2212659999999 132.488523 383.1979549999999 128.96123699999998 389.1657129999999 C 125.22868499999998 395.48149499999994 119.73819199999998 399.83955999999995 113.89764799999998 401.1228549999999 C 111.18745699999998 401.7168599999999 108.08818999999997 401.7303759999999 104.68642899999998 401.1620499999999 C 101.17434799999998 400.5748029999999 96.43962299999998 399.1259439999999 93.82919399999997 395.5585339999999 C 92.60283299999998 393.8826149999999 92.04405299999998 391.5464649999999 92.37104299999997 389.4603509999999 C 92.54573099999998 388.3426209999999 93.05171599999997 386.7937479999999 94.46932099999997 385.7638679999999 C 96.19803499999996 384.5082799999999 98.62195099999997 384.35150099999987 101.18837099999996 384.1859359999999 C 102.03764999999996 384.1318739999999 102.90973599999997 384.07510899999994 103.77134699999996 383.9777979999999 C 110.54657099999996 383.2121459999999 116.93727899999996 379.5271519999999 121.12158599999997 374.0344619999999 C 123.91785399999996 374.4987189999999 127.79958299999997 374.5730539999999 128.58897099999996 374.0668989999999 C 128.84644099999997 373.9020099999999 128.91156899999996 373.6756259999999 128.92753399999995 373.55601399999995 C 128.97171299999997 373.224209 129.08870599999995 372.34367599999996 120.76249699999995 369.80141499999996 C 113.68959499999995 367.642993 106.46312299999995 363.943808 102.35213799999995 360.37707399999994 C 93.61277799999995 352.79421599999995 86.57509999999995 340.53027299999997 86.57509999999995 335.43155999999993 C 86.57509999999995 324.54416799999996 95.86420199999995 311.7862349999999 104.84743199999994 299.4486319999999 C 109.93440399999994 292.4604549999999 115.18541999999994 285.2479209999999 118.71608399999994 278.3969269999999 C 118.78121199999994 278.2705569999999 118.84574799999994 278.1448629999999 118.90977799999993 278.0205209999999 C 119.59247799999993 279.9931049999999 120.29460699999993 281.7251129999999 120.92797599999993 283.2881779999999 Z M 127.00140800000001 229.51009899999997 C 127.78944500000001 228.68430299999997 128.04454900000002 227.67402199999998 128.213493 227.00568099999998 L 129.556762 221.68193499999998 L 129.590044 221.77383999999998 L 130.12551000000002 220.04521099999997 C 132.48075100000003 212.44072799999998 135.76475800000003 206.34659999999997 139.88596400000003 201.93244599999997 C 148.23903500000003 192.98384899999996 159.03840700000003 191.94923999999997 166.43483600000002 191.94923999999997 L 166.49616200000003 191.94923999999997 C 180.29799700000004 191.95937699999996 197.53158100000002 196.70263299999996 201.25036400000002 219.23563499999997 C 202.84603500000003 228.90595799999997 198.03672200000003 244.81502499999996 192.46783900000003 263.23661899999996 C 184.53155100000004 289.48705199999995 174.69600200000002 322.023533 181.41201100000004 347.825253 C 166.54397400000005 338.25764799999996 153.35700800000004 336.66282099999995 146.44975500000004 338.26643299999995 C 146.31781000000004 338.29684299999997 146.18459800000005 338.3326589999999 146.04488200000003 338.3738809999999 C 144.56003800000002 336.39318799999995 141.26876600000003 331.6161429999999 137.80339800000002 324.05288299999995 C 135.06778100000002 318.08242099999995 131.26554000000002 308.17355 128.685773 294.87296999999995 C 128.594628 294.34654199999994 128.49824600000002 293.82146599999993 128.39679500000003 293.31801399999995 L 128.31967200000003 292.90173699999997 C 128.26966500000003 292.63480599999997 128.21974200000002 292.36719999999997 128.17218400000002 292.094187 L 128.02511900000002 291.25352399999997 L 127.94723600000002 291.296098 C 127.02995800000002 287.51379199999997 125.89516400000002 284.71338499999996 124.69828500000001 281.760254 C 123.80288500000002 279.55047399999995 122.53428800000002 276.37839099999997 121.68931800000001 273.587446 L 124.86435700000001 267.041901 L 123.98576700000001 261.915481 L 127.295792 265.558578 L 123.40426400000001 248.12834400000003 C 122.86584100000002 245.71718300000003 122.31246700000001 243.238445 122.027882 240.77187000000004 L 124.492682 242.99313800000004 L 124.557979 238.51073000000005 C 124.591092 236.22188400000005 124.25210700000001 234.45068100000006 123.924357 232.73691900000006 C 123.790385 232.03681700000007 123.662072 231.36645000000004 123.56172 230.67648500000007 C 125.38005799999999 230.86367400000006 126.477262 230.05882800000006 127.001409 229.51009900000008 Z M 17.991153 142.444078 C 19.18457 139.66935099999998 21.659253 138.21778899999998 25.347627000000003 138.12723499999998 C 38.26436700000001 139.209825 42.908961000000005 144.35111199999997 49.929575 152.12115899999998 C 52.757688 155.25134299999996 55.963559000000004 158.80050699999998 60.158087 162.52537199999998 C 75.11498900000001 175.813788 89.277856 174.520357 104.91796500000001 171.65642799999998 C 115.14850500000001 170.05484399999997 117.51438900000001 170.11431199999998 124.53703000000002 170.30623199999997 C 126.29142300000001 170.35353599999996 128.327445 170.40759799999998 130.83270800000003 170.44544099999996 C 130.83414400000004 170.44881999999996 130.83642500000002 170.45354999999995 130.83786100000003 170.45692899999997 C 134.63368200000002 170.423816 137.44566200000003 169.41488599999997 140.60431300000002 168.39919799999998 C 151.718849 171.18203499999998 160.71610200000003 171.45977799999997 167.14659600000002 169.281759 C 174.545981 166.77531399999998 175.265849 160.887297 175.27784400000002 160.65009999999998 L 175.371608 158.76604299999997 L 174.193903 160.23922999999996 C 174.168055 160.27166699999995 171.10832 163.84245599999997 164.995946 165.63933799999995 C 160.070062 167.08684499999995 153.472398 166.98007299999995 145.385582 165.32037299999996 C 142.910729 164.67568499999996 141.52987 164.32293099999995 141.194855 164.25062299999996 C 107.980235 157.03606199999996 96.19026299999999 146.77713999999997 92.14871299999999 139.44161499999996 C 90.07881799999998 135.68431299999995 89.47070599999999 131.74252399999995 90.34093399999999 127.72572499999995 C 90.64621499999998 126.68706099999996 90.99026799999999 125.60109199999995 91.381795 124.44822199999996 L 91.744601 123.61701999999995 L 91.677699 123.58660999999995 C 99.32551600000001 101.90508299999995 115.21616800000001 87.68274799999995 138.91623 81.31087699999995 C 144.90054500000002 79.70118399999996 151.30966800000002 78.64292199999994 157.965787 78.16514999999995 C 170.515329 77.29407799999996 175.56640000000002 78.17528699999995 175.616069 78.18407199999996 L 180.15321400000002 79.00851599999996 L 179.52423800000003 78.71049999999995 L 179.69199900000004 78.75510099999995 C 179.77545700000005 78.77672599999995 187.84740600000003 80.89324899999995 195.50020700000005 81.12909399999995 C 194.69586700000005 84.50323299999995 196.17006800000004 91.93877199999996 196.17006800000004 91.93877199999996 C 196.17006800000004 91.93877199999996 198.74780700000005 84.73907799999996 199.48609000000005 81.65552199999996 C 202.46760400000005 69.20033499999997 209.35576600000005 59.92060899999996 215.47777000000005 57.630411999999964 C 220.30566700000006 55.824068999999966 225.34947400000004 57.579052999999966 230.46896700000005 62.846709999999966 C 241.24891100000005 73.93886099999996 232.18847300000004 95.22235699999996 224.19406900000004 113.99940799999996 C 221.43522200000004 120.47872699999996 218.82943900000004 126.59921099999995 217.24018800000005 131.90200799999997 C 209.94081700000004 155.14051699999996 217.09337600000003 176.27196399999997 235.90860800000004 187.04312299999998 L 235.97196200000005 187.078939 C 236.90672600000005 187.684432 237.90585800000005 188.325742 238.97695900000005 189.00421899999998 C 247.96508800000004 194.90169699999998 254.70627000000005 202.42779 258.46796500000005 210.76616299999998 L 258.58504300000004 211.36827699999998 L 258.72611100000006 211.34732799999998 L 259.4191170000001 212.93134199999997 L 259.66340900000006 211.20676699999999 C 260.54833500000007 211.09458899999998 261.6113270000001 211.092561 262.39454900000004 211.266235 C 261.392376 213.677396 261.64629800000006 216.455502 261.713538 217.029234 L 261.799868 217.757718 L 264.503639 220.33782200000002 L 263.4545 226.738751 L 267.94772 226.738751 C 266.200507 231.77732 262.097546 236.01577400000002 260.924741 237.15648000000002 L 260.660176 237.005107 L 260.42821699999996 237.724806 C 258.435867 244.09938 254.75560299999995 249.375822 249.78629999999995 252.98513 L 249.66905299999996 253.077035 C 245.73114999999996 256.497802 241.29300599999996 260.354443 238.82474199999996 265.47816 C 237.63436599999997 267.95014100000003 237.05860699999997 270.436312 237.11351399999995 272.869098 L 237.17906399999995 275.753301 L 239.87337399999996 274.723422 C 246.96224099999995 272.014921 252.09508099999996 272.22238300000004 254.32513499999996 275.308642 C 256.14414899999997 277.82522400000005 255.72736599999996 282.19883200000004 253.39577699999995 285.058031 C 252.03409299999996 286.72854400000006 249.64759799999996 288.37608 246.00889399999994 286.74070800000004 L 245.92087399999994 286.70421600000003 C 240.90190199999995 284.77285400000005 236.78407399999995 280.90742800000004 233.66470199999995 275.20862800000003 C 229.48706799999994 267.74673400000006 234.14112299999994 256.247091 236.33569799999995 251.64980200000002 C 243.11353999999994 238.68373000000003 237.69805799999995 225.930527 229.79353199999994 219.57622600000002 C 226.78633899999994 217.157632 220.27914399999995 214.281538 216.53484999999995 212.97188900000003 C 216.48044999999996 210.88780300000002 216.97984699999995 208.49353600000003 216.98525299999994 208.46853200000004 L 217.29002699999995 207.02575500000003 L 216.05640199999996 207.83262900000003 C 215.90333899999996 207.931968 212.30416799999998 210.37826900000002 211.91272599999996 218.69434100000004 C 211.74766799999998 222.20431000000005 211.62805599999996 227.61387900000003 212.49574999999996 234.03846100000004 L 212.57718099999997 234.64192700000004 L 212.63191899999995 234.63449300000005 C 212.97875999999997 236.82197300000004 213.46683799999997 239.13785000000004 214.08550799999995 241.52873700000004 C 217.97070099999993 256.54375500000003 227.20734599999994 276.379743 240.79698799999994 298.89247200000005 C 249.14735599999995 311.58553100000006 255.67600699999994 325.67068500000005 259.1934089999999 338.57323400000007 C 262.3386289999999 350.11139600000007 262.4955779999999 359.1985260000001 259.6025899999999 362.28816400000005 C 259.1459359999999 362.77674800000005 258.6076819999999 363.4288700000001 257.9841119999999 364.1837100000001 C 254.50742499999993 368.38837500000005 246.36519499999991 378.23642600000005 231.7309759999999 382.76951700000006 C 230.74198099999992 383.07564300000007 229.3740459999999 383.4662400000001 227.91961199999992 383.88048900000007 C 227.58189399999992 383.8683250000001 227.24485199999992 383.93184800000006 226.93467199999992 384.0886270000001 C 226.85932299999993 384.1264700000001 226.79242199999993 384.1758020000001 226.72315499999993 384.2224300000001 C 219.70287899999994 386.2348840000001 219.71909699999995 386.3882850000001 219.81894299999993 387.0836560000001 C 219.84698799999993 387.27895500000005 219.95933499999992 387.44722200000007 220.13520499999993 387.5594010000001 C 220.65588899999992 387.88917900000007 223.50343099999992 387.8952610000001 226.49541899999994 387.6648220000001 C 230.37942899999993 394.6415110000001 237.83321399999994 399.66791600000005 245.76612299999994 400.5653440000001 C 246.64023599999993 400.6640070000001 247.54644899999994 400.7221240000001 248.34572099999994 400.7734820000001 C 250.91382999999993 400.93837100000013 253.33901399999993 401.0944750000001 255.06814999999995 402.3507380000001 C 256.48524799999996 403.3806170000001 256.99140199999994 404.9288150000001 257.16659699999997 406.0465450000001 C 257.493165 408.1319830000001 256.93463799999995 410.4694850000001 255.70810799999998 412.1454040000001 C 253.09658 415.7141650000001 248.36244699999997 417.1630240000001 244.850788 417.7495960000001 C 241.448267 418.3179220000001 238.349506 418.3044060000001 235.63982199999998 417.7097250000001 C 229.79995399999999 416.4264310000001 224.30946099999997 412.0683650000001 220.576317 405.7532590000001 C 217.13392499999998 399.9294400000001 214.80892599999999 390.94232500000015 213.437105 384.23121500000013 L 213.6074 384.17309800000015 L 213.28809700000002 383.5730110000002 C 213.18875800000004 383.2094450000002 213.00089300000002 382.8911550000002 212.74342300000004 382.64382200000017 C 212.24267500000005 381.84235400000017 211.39728200000005 380.59893000000017 210.24643900000004 379.2973900000002 C 200.44129900000004 365.6933880000002 194.10760900000002 357.7158780000002 190.92133600000005 354.9573690000002 C 189.63533800000005 353.8443700000002 188.26723400000006 352.7320460000002 186.85250200000004 351.6508080000002 C 177.62177000000005 326.4038990000002 188.00942700000004 292.0414770000002 196.35979500000005 264.4198990000002 C 202.07701000000006 245.5103970000002 207.01421400000004 229.18032300000021 205.26463500000006 218.57337700000022 C 203.33023200000005 206.85343200000023 197.82690000000005 198.32246400000022 188.90769900000006 193.21699200000023 C 181.21790000000007 188.81500100000022 172.47744200000005 187.88581200000024 166.49937800000006 187.88108200000022 L 166.43365900000006 187.88108200000022 C 158.27909700000006 187.88108200000022 146.34695900000006 189.0494950000002 136.91231200000007 199.15569200000022 C 133.62492600000007 202.6771490000002 130.81649400000006 207.1778030000002 128.55848100000009 212.54141900000022 C 128.3349690000001 213.02121800000023 128.08062400000009 213.67063700000023 127.81284900000009 214.40723000000023 L 125.68179600000009 203.12991700000023 L 119.6667330000001 212.20015300000023 L 119.25789000000009 207.84411500000022 L 113.34149000000009 214.5937440000002 C 110.8647790000001 209.6362670000002 107.4575280000001 205.0396540000002 83.43782400000009 196.3154140000002 L 79.8704140000001 195.0192800000002 L 80.6522840000001 198.73468400000021 C 80.97935900000009 200.28896400000022 80.69823700000009 201.97975000000022 80.2285740000001 203.46915500000023 C 77.5984620000001 197.82103800000021 74.19729300000009 194.51380100000023 74.01821300000009 194.34215400000022 L 72.64098600000008 193.02169200000023 L 71.18874800000009 194.25835800000024 C 70.58055200000008 194.77735200000023 70.07777600000009 195.32067400000025 69.66285100000009 195.86940300000023 C 68.68703400000008 192.24995900000025 69.3465890000001 189.89286000000024 69.38646000000008 189.75770500000024 L 71.59083400000009 182.24445200000025 L 65.91501000000008 187.61144800000025 C 65.90487300000008 187.61955700000024 64.12420900000008 189.20627400000026 61.87591000000008 189.14140000000026 C 60.398668000000086 185.91795900000025 59.005223000000086 182.60261300000025 57.653000000000084 179.38728100000026 C 52.144768000000084 166.28673000000026 46.94198500000009 153.91196000000025 37.33315800000008 150.75339400000024 L 36.608728000000085 150.51552200000023 L 35.899166000000086 150.79664400000024 C 23.583188000000085 155.65951200000023 20.065786000000088 151.81976600000024 18.178350000000087 149.75460100000024 C 17.378910000000086 148.88150100000024 16.701108000000087 145.44181300000022 17.991161000000087 142.44408000000024 Z M 216.47369 233.02614999999997 L 216.454768 232.91397199999997 C 215.629986 226.41843399999996 215.79724 220.86086999999998 216.126342 217.12181399999997 C 219.398777 218.39294499999997 225.210262 220.99737699999997 227.258702 222.75709199999997 C 233.988733 228.53563399999996 238.280573 239.14866099999998 232.697667 249.83129399999996 L 232.687699 249.85089099999996 C 230.60395 254.21368699999996 228.237897 260.42404799999997 227.93211000000002 266.59656599999994 C 221.71870800000002 253.36153599999994 217.76728900000003 241.79499199999995 216.47368900000004 233.02615099999994 Z &#10;" stroke-width="0px" fill="#0c0c0c" /><path d="M 107.151727 122.624419 C 104.32230399999999 121.291115 100.64163099999999 119.86071700000001 96.208884 118.856911 C 92.174031 117.94321099999999 88.565027 117.62040499999999 85.630629 117.554981 C 84.85982 117.558996 83.692454 117.678245 82.778605 118.457678 C 80.49086 120.408937 81.465077 125.042416 81.911593 127.50695400000001 C 82.485834 130.676431 86.355178 135.782798 89.69626 137.289569 C 93.236572 138.886189 100.987038 133.754761 100.987038 133.754761 C 100.987038 133.754761 107.684335 129.370189 109.39308 125.753601 C 109.983677 124.503861 108.725908 122.99525200000001 107.151726 122.624419 Z &#10;" stroke-width="0px" /><path d="M 104.237553 126.895717 C 104.40795200000001 126.895717 104.57731000000001 126.82464300000001 104.697749 126.685767 C 105.296672 125.995845 105.092372 124.96126 104.54891 124.359957 C 104.05689500000001 123.81545399999999 103.364891 123.570116 102.85949400000001 123.390795 C 97.97353900000002 121.655582 92.90975200000001 120.303395 87.80908900000001 119.371703 C 95.82263400000002 122.209554 97.62724100000001 122.825178 102.45208400000001 124.538682 C 102.94870900000001 124.714731 103.38095100000001 124.884238 103.64517300000001 125.17656199999999 C 103.84174100000001 125.39424399999999 103.90627300000001 125.73950199999999 103.77795300000001 125.887598 C 103.55744600000001 126.141561 103.58465600000001 126.526073 103.83861900000001 126.746729 C 103.953854 126.846649 104.09615000000001 126.89571600000001 104.237554 126.89571600000001 Z &#10;" stroke-width="0px" fill="#fff" /></g></g></svg>