<?xml version='1.0' encoding='utf-8'?>
<svg viewBox="0 0 432 432" width="432px" height="432px" xmlns="http://www.w3.org/2000/svg" xmlns:xlink="http://www.w3.org/1999/xlink" version="1.1"><g isolation="isolate"><g id="Layer_1"><path d="m33.480269,381.553847c1.667498,6.491787,6.04178,11.98285,12.649625,15.879046,5.92909,3.495606,13.153543,5.373133,20.294883,5.248838,10.076871-.171093,50.68442-24.449355,70.64498-54.345597l11.749049,11.667714,13.474389,7.190337c11.615207,2.652872,37.572995,2.905814,45.731531.474951l.813158-.2426-.355663.770479c-1.202141,2.603454-3.728472,4.948209-6.403058,7.430363-4.038835,3.747566-8.214694,7.622795-8.758297,13.085406-.440648,2.83894.342185,5.816401,2.204737,8.38354,2.225702,3.067313,5.743023,5.24135,9.408973,5.815653.861828.135526,1.74537.204038,2.62704.204038,6.678604,0,12.340385-3.910422,15.114183-6.235709,6.539708-5.732914,12.860964-16.868163,13.565925-37.346119.000374-5.023834-.503357-5.765111-.647681-8.723807,0,0,7.585357,5.062723,19.75465,7.369666,7.71115,1.353392,15.573175,2.039634,23.368187,2.039634,26.945408,0,53.185106-8.272349,73.885445-23.292936,24.585303-17.840434,40.439639-43.897433,44.643577-73.378157,8.997527-56.240813-14.578816-101.589352-29.431306-123.612757-13.433956-19.533016-26.135994-29.27107-34.541622-35.714936-8.647854-6.629934-11.56766-9.182846-10.179451-14.299527.344057-1.254929,1.892502-2.69368,4.575325-3.079668,2.588853-.377003,11.806142-.335821,21.82386,15.873055l1.209629,1.95727,1.341037-1.870039c9.748163-13.59494,10.829004-30.807909,2.965481-47.225691-5.358158-11.187662-14.336591-21.011451-25.965276-28.409242-12.465803-7.930912-27.405898-12.585606-43.189851-13.460911-21.127509-.366146-36.355879,4.368666-46.602344,14.44928-10.049915,9.88631-15.145631,25.03531-15.145631,45.026195,0,35.583154,13.401759,62.193115,24.171611,83.577825,6.689086,13.281582,12.465803,24.751903,13.864121,35.579784,2.525582,16.749858,1.287126,31.945282-3.6813,45.163968-3.117855,8.29556-7.55316,15.407698-13.182371,21.138741l-7.839563,5.40898-4.506064.355335c1.273835-5.049199,2.951067-27.369724,3.239155-31.113545.166038-2.157752,1.082526-32.365152-6.494595-27.710645-1.769517,1.087019-7.468924-8.989103-7.468924-9.309013,0-.690922-27.762872-11.483799-27.753325-12.187824.172029-12.555842,1.706996-22.840869,1.706996-22.840869.825326-26.995482,12.406089-44.774236,17.221206-55.166149,7.938774-17.134723,11.85556-40.271167-3.232041-49.084498-5.592521-3.267982-11.157712-3.837417-16.093941-1.646158-6.429639,2.853167-11.702064,10.26219-15.248586,21.43001-.447012,1.353392-.788823,2.490765-1.075974,3.579094l-.116807.443268-.415564-.193556c-6.364871-2.963984-11.27115-3.749812-13.117977-4.045574l-.59377-.097714-.054285-.255703c-3.957968-18.684291-11.818871-28.076417-24.033089-28.713241-3.268356-.176334-6.346527.971522-8.888207,3.315529-4.989017,4.601157-7.81111,13.535787-8.387658,26.556051l-.012729.292018-.284905.064768c-6.655392,1.516997-12.852166,3.650601-18.41848,6.342034-18.337239,8.865744-30.372503,23.764657-35.770345,44.275559-1.210752,4.975539-.331703,9.890803,2.612439,14.609516,4.085258,6.547383,12.086554,12.495567,23.297803,17.389678.295013-.039217.602194-.061024.930527-.050167,4.318686.143669,8.095453,1.966068,12.268878,2.777448,1.539085.299225,2.693493,1.490415,3.266484,2.91859,2.449583.181388,4.768506.896084,7.185517,1.341692,2.345504.432318,2.239554,4.128593,0,4.636068-2.02522.458805-4.02985.789104-6.046646.923788,3.63731,23.021134,3.231703,34.518771-4.708605,49.581584,1.560051,2.161121,3.748876,1.031142,2.81498,3.950574-.595642,1.861803-4.248037,4.86667-5.444188,6.419233-1.536277,1.994521,2.491062,4.05935,1.526466,6.398069-.469288,1.137467-3.212761.726769-4.135987,1.394714.039685.078854.84236,2.011836.886163,2.095838,0,0-5.808914,13.221821-9.575386,29.55649,0,0-15.061769,20.868858-21.310395,82.46006-.680814,6.711596-.90563,20.202364-2.520341,23.975013l-.29389.686991-.386362-.639445c-2.725128-4.50831-9.853739-15.068508-17.20623-15.760366-7.169419-1.215619-14.442167,2.339514-16.916084,8.270102-1.557055,3.732216-1.078595,7.649377-.40321,10.278288Zm165.021943-155.513497c16.166197,2.273155,21.096164,16.899527,22.406689,20.025244,2.342509,5.587888,2.016048,15.840765,2.675897,19.077767l-15.442516,1.217772s-4.444291-10.554769-10.5061-39.094016c-.063271-.298289-.998955-1.489021.86603-1.226766Z" stroke-width="0px" fill="#c56439" /><path d="m193.915011,394.895517c2.250411-.466246,2.36488,2.895675,9.29254,2.387916,5.713561-.418773,14.853872-3.46383,23.019262-16.942257,4.642901-8.241181,4.216854-18.297227,3.438513-27.72417-.394037-4.77239-.875306-9.654287-2.929915-13.979664-.767109-1.614757-1.809951-3.190578-3.376178-4.052359-1.900738-1.045837-4.215356-.865852-6.36899-.60444-1.461588.17741-2.976713.36287-4.423887.201886-.010483-.000328-.017596.004118-.028453.003182-.059901-.005148-.118305-.020825-.178019-.027657-.128413-.017456-.256639-.036034-.383742-.059714-4.555669-.792239-8.423786-6.266175-8.768218-10.877955-.358658-4.800796,1.653646-9.447675,3.927643-13.690875,2.274185-4.243201,4.891303-8.412508,5.918233-13.115871.245782-1.125206.420244-2.336706.488943-3.564586.746705,2.063548,1.661134,4.107253,1.910847,5.214769.97564,4.327952.756626,8.824328.532371,13.255188-.125792,2.48543-.251772,4.970953-.377564,7.456383.11531.056953.229309.115544.340126.175772,4.660122,2.533631,8.442505,6.431886,11.693453,10.623141,1.897743,2.44626,3.657714,5.044379,4.741925,7.944296,1.411234,3.775129,1.614523,7.878311,1.773074,11.905494.214708,5.452128.375318,10.906361.48183,16.361671.062522,3.205835.104827,6.432681-.420618,9.595743-.801365,4.823914-2.903334,9.350288-5.475901,13.508785-3.434208,5.550731-7.949257,10.711823-13.925145,13.337271-5.975701,2.625495-13.610477,2.188217-18.309535-2.341854-1.382968-1.333081-2.506676-3.071244-2.592597-4.990093-.086108-1.918849-1.880896.389685,0,0Z" fill="#754123" mix-blend-mode="multiply" stroke-width="0px" opacity=".25" /><path d="m212.878217,287.083091c.608933,1.771951.775158,3.790245.664528,5.76586-.847788-2.342837-1.478997-4.711366-.664528-5.76586Z" fill="#754123" mix-blend-mode="multiply" stroke-width="0px" opacity=".25" /><path d="m113.335012,206.207737c3.379601-3.270553,22.24096,3.451584,32.776775,20.049102-2.253226,21.635937-4.4131,35.688816-10.577472,55.297067-6.164372,19.608251-.693675,58.215835,7.75626,71.962752-7.85893-7.902019-27.920277-15.839962-37.741286-56.604804-1.72509-7.151469-10.322765-5.411017-10.204257-9.929749.118508-4.518733,2.896592-8.05976.651887-11.259455-2.244705-3.199695-4.332206-9.090544-4.332206-9.090544,0,0,2.056649,1.62367,3.139096.432979,1.082447-1.190691,2.65369-5.04132,1.338273-8.037866-1.315417-2.996546-1.446517-7.332879-1.446517-7.332879l5.628723-1.407181s-3.030851-12.015159-2.814362-13.097606,1.176032-6.356225,1.176032-6.356225l4.993914,3.325374s3.394158-18.775041,9.655139-27.950963Z" stroke-width="0px" fill="#e7caae" /><path d="m58.458486,228.573429c1.206259-3.879722-.483889-8.688755.806232-12.514941,1.962137-5.819864,5.479832-12.076727,8.803784-17.279516,5.68855-8.904306,16.441555-14.66717,21.802146-22.308872.47116-.671642.173339-1.413293-.167536-1.903078.220137-.361934.427732-.723774.627839-1.085802.148255.038187.301565.070103.467791.082926.38187.385988.763927.771882,1.145797,1.157777.286964,1.41348,2.323229,2.331465,3.53136,1.436692,2.610005-1.932935,5.641565-1.998358,8.59282-3.199844.964221-.39254,1.953526-.766735,2.881058-1.238269.651425-.324589,1.279638-.689425,1.884265-1.094413.532184-.451786.915177-.316634,1.149353.405737,1.55144.79238,2.226076,1.546666,4.18447,1.407677,3.200032-.22725,6.158025-.954113,9.429002-.932024.339003.002246.634016-.061679.898892-.162295,2.711089,4.729196.122236,10.109255,1.89999,15.772721,1.899054,6.049267-2.494883,13.45567-6.789421,17.112073-.725553.617543-2.653434.912276-3.545025,1.201112-2.753955.892153-2.567326-1.610218-5.551339-1.895029-3.826186-.365023-12.335144-.577672-15.88541.768139-4.382331,1.661227-10.817586,4.582719-14.081824,7.897124-2.250037,2.284667-4.201878,5.924785-5.735535,8.728908-1.325874,2.424405-3.591635,2.267633-.903571,4.982091-.816528,1.497154,1.466081,5.181636,2.607946,6.638919.70571.900576,1.637735,2.589601,2.164865,3.572168,2.914191,5.431256,1.99789,7.441173.649553,12.88104-.281161,1.134752-2.996555,2.927762-3.78856,3.78856-2.300578,2.500639-6.875341,2.374238-9.958566.10829-3.133953-2.303152-7.039882-6.159757-8.11829-9.742033-1.038723-3.450119.186255-10.302155.997916-14.585836Z" stroke-width="0px" fill="#c56439" /><path d="m214.23531,317.962645c19.706125,6.003058,13.746098,32.270433,27.351126,36.082356,4.663809,1.522763,9.62403,2.833622,14.862761,3.837368,64.29734,8.876064,130.626102-29.203906,139.661091-93.240266,8.140733-51.427589-10.369583-95.464536-29.114357-123.556742-25.772647-37.873738-48.36813-38.471629-44.81948-51.691656,1.546795-5.698262,15.740034-9.499752,29.11341,12.489272,5.152153-23.355696-24.055981-50.552471-47.77807-35.293758-10.687073,7.491754-21.377756,24.884663-.03667,61.924314,24.859192,43.145687,51.255154,151.739128-37.258318,170.859039-34.197347,2.944195-51.524369-3.53731-51.524369-3.53731,0,0,4.124236,8.790725-.457125,22.127383Z" fill="#754123" mix-blend-mode="multiply" stroke-width="0px" opacity=".25" /><path d="m258.223599,243.639657c37.669148-67.175371-22.400384-110.875456-8.296434-168.799062,14.10395-57.923606,67.378029-44.274652,100.694985-21.351514,0,0-13.163445-37.876389-74.429934-37.876389-61.266489,0-52.823404,71.57744-45.246276,93.916113,14.57695,55.389382,48.637943,71.842573,27.277659,134.110852Z" stroke-width="0px" opacity=".66" fill="#d8b58e" /><path d="m185.933566,98.797199c.015412-1.75867.030824-3.51734.046237-5.27601.051654-5.894183.130451-11.937638,2.251514-17.437197,2.121063-5.499559,6.753698-10.427009,12.602347-11.160066,5.72824-.717964,11.688709,3.180249,13.326962,8.715982,0,0-21.057518-10.771045-28.22706,25.157292Z" opacity=".35" fill="#754123" mix-blend-mode="multiply" stroke-width="0px" /><path d="m214.160669,73.639952c-3.965798-7.878362-12.711997-10.470725-19.572316-4.541055-3.119444,2.629755-4.587492,6.389006-5.94561,10.192107-1.40737,3.983007-2.156502,8.097584-2.709032,12.314996-.944437-5.302955-.42205-10.967919,1.27194-16.142806,1.545376-5.556012,5.805446-10.573693,11.583591-11.927507,7.109972-1.842993,14.134993,2.998561,15.371428,10.104264h0Z" stroke-width="0px" /><path d="m143.120246,63.888485c-2.278379-.872468-4.730337-1.249536-6.969752-2.217641-2.819861-1.219033-5.222836-3.380001-6.733245-6.055131-2.53579,6.716897-4.049482,13.818603-4.472998,20.985721-.026659.451153-.01325.982275.352775,1.247371.217981.157873.505532.173236.774664.170493,1.725225-.01758,3.400045-.533184,5.074822-.94775,5.943007-1.4711,12.10426-1.690953,18.198939-1.548341,1.546914.036197,3.093353,1.318779,4.639045,1.389575,1.735847.079505,4.134,1.323888,2.82322-.390266-1.561935-2.0426-3.757077-5.482221-5.63304-7.24248-2.073641-1.945744-5.385028-4.369348-8.05443-5.391551Z" opacity=".35" fill="#754123" mix-blend-mode="multiply" stroke-width="0px" /><g opacity=".66"><path d="m132.158724,54.200453c5.84707-2.593916,11.187262.560526,16.022324,3.925458,2.412582,1.673413,4.52003,3.503578,6.495795,5.726532,2.095086,2.342168,3.783898,4.871752,5.497257,7.641272,1.113575-6.986697-2.997617-14.144055-8.728116-18.038094-2.940162-2.007881-6.264774-3.632407-9.93812-3.872607-3.577497-.272888-7.830462,1.238693-9.349141,4.617439h0Z" stroke-width="0px" fill="#d8b58e" /></g><g opacity=".66"><path d="m176.136455,82.062428c-18.601799-7.028502-41.675951-6.532844-60.366432-.000287,10.160995.996581,20.115645.664683,30.212093.657237,8.977807-.165863,21.229748.05175,30.154339-.656951h0Z" stroke-width="0px" fill="#d8b58e" /></g><path d="m88.529074,122.796017c2.972699.475695,5.979558.961004,8.75051,2.137884,3.916981,1.663622,7.163157,4.624087,11.037935,6.383767,11.460778,5.204763,27.25897-.257812,38.830935,4.694825,8.025369,3.434744,11.638686,11.64579,10.67102,20.321482-1.006647,9.025175-8.993706,14.645618-18.069676,14.339221-3.671774-.123956-7.320711-.364406-10.907109-1.161293-12.152388-2.700224-43.329645-7.245464-56.921131-26.594429-.837611-1.192431-2.463044-6.901152-2.201749-9.954346.419442-4.90113,1.361729-10.94952,2.469052-11.450879,4.519096-2.046096,11.340763.483749,16.340215,1.283767Z" stroke-width="0px" fill="#e7caae" /><path d="m157.969362,153.703989c-5.802002,3.996959-12.693441,6.212877-19.666861,7.218022s-14.06221.846682-21.094793.420448c-3.069751-.186053-6.150138-.424698-9.148423-1.109006-2.669221-.609205-5.244819-1.565105-7.811398-2.518282-4.533907-1.683806-9.085314-3.375483-13.337874-5.679231-6.469014-3.504472-12.153697-8.3942-16.795981-14.101972,1.921671,7.465408,7.227551,13.989071,14.144887,17.391364,3.090913,1.520266,6.439516,2.429946,9.662125,3.646391,4.702853,1.775195,9.141383,4.205824,13.874784,5.897881,5.157911,1.843808,10.587204,2.783425,15.984984,3.714896,5.855739,1.010497,11.818206,2.023983,17.710971,1.258408,4.34713-.56477,8.987854-2.173733,12.416229-5.053936,2.889958-2.427875,4.100639-6.740806,4.06135-11.084982Z" fill="#754123" mix-blend-mode="multiply" stroke-width="0px" opacity=".25" /><path d="m115.206962,166.438717c5.861327.11531,11.631867,1.113787,17.452761,1.721971.018158.001872.035753.001966.053724.003744.698972.247467,1.401687.464234,2.11058.631208,2.588104.609494,5.210838.545756,7.816725.458337,2.076136-.069635,4.176982-.158832,6.159523-.996325,1.600484-.675947,3.074426-1.827547,4.455522-3.161096.738094-.712543,2.223643-6.058252,3.867181-5.476462,7.817287,2.767246,14.253104,11.385149,4.467128,17.465116-2.72962,2.095043-15.758869-3.605675-18.867926-3.507399-8.546958,0-12.255775-1.139245-20.374627-1.869758-.627465-.055877-1.274958-.13328-1.933497-.227156-1.402248-2.073516-3.396021-3.210982-5.207094-5.042179Z" fill="#754123" mix-blend-mode="multiply" stroke-width="0px" opacity=".25" /><path d="m93.384702,144.839892c4.584872,8.617555,21.593998,20.709303,24.585025,1.326311l-5.372015,1.070939-10.971096-.527615-8.241914-1.869635Z" stroke-width="0px" /><path d="m138.654991,122.3043c-3.85032-.980196-7.218062-1.80938-11.055321-1.915668.000003-.000045-2.235059-.099631-2.235059-.099631-1.592101-.042059-3.060211-.153982-4.700368.138485.371013-.847097,1.101807-1.465202,1.833724-1.976234,5.176482-3.320278,13.423017-1.985055,16.157024,3.853048h0Z" stroke-width="0px" /><path d="m99.016343,83.110043c-1.670591-.659144-4.507042-1.872071-6.154667-2.31087-.821683-.242362-2.106621-.527217-2.958361-.750005-1.157604-.27317-2.156089-.589295-3.439438-.61306.250829-.701844.831309-1.205763,1.418527-1.599051,4.206993-2.653502,10.896151.065147,11.133939,5.272986h0Z" stroke-width="0px" /><path d="m94.26094,113.282251c-3.850261-.980285-7.217924-1.8093-11.055134-1.915668.000003-.000046-2.235059-.099538-2.235059-.099538-1.592106-.042138-3.060216-.154092-4.700368.138485.371013-.847097,1.101807-1.465296,1.833724-1.976234,5.176266-3.320343,13.422887-1.985138,16.156837,3.852954h0Z" stroke-width="0px" /><path d="m145.561781,91.942748c-1.670747-.65919-4.506974-1.872094-6.154854-2.31087-.821351-.242306-2.106796-.527315-2.958361-.750004-1.157839-.273129-2.15585-.589226-3.439438-.61306.251016-.701844.831496-1.205763,1.418527-1.598958,4.206975-2.653676,10.89629.065115,11.134126,5.272892h0Z" stroke-width="0px" /><path d="m130.898706,93.7365l.000391-.000609h.000043c.837848-1.270905,2.368422-2.002641,3.967621-1.739927,2.168984.356344,3.638457,2.403473,3.282157,4.572501-.127465.776007-.474024,1.459906-.962529,2.00525l.001348.001044c-5.556339,8.924559-2.783823,20.791282-2.783823,20.791282l-7.854657-1.290301c-2.053609-13.354766,3.49525-22.952047,4.261124-24.198163.028659-.047707.05784-.094761.088325-.141076Z" stroke-width="0px" /><path d="m85.124715,85.917633c.028833-.048011.058231-.095414.088934-.142033l.00013-.000217h0c.837891-1.270905,2.368465-2.002641,3.967664-1.739927,2.168984.3563,3.638457,2.403473,3.282157,4.572457-.127465.776007-.474024,1.459949-.962529,2.005294l.001348.001044c-5.556382,8.924559-2.783823,20.791282-2.783823,20.791282l-7.854657-1.290301c-2.053392-13.352983,3.493815-22.949437,4.260776-24.197598Z" stroke-width="0px" /><circle cx="134.31805" cy="96.080143" r="2.722138" stroke-width="0px" fill="#fff" /><circle cx="88.514107" cy="88.276698" r="2.722138" stroke-width="0px" fill="#fff" /><path d="m88.553804,124.544242c-2.829423-1.333304-6.510096-2.763702-10.942843-3.767508-4.034853-.9137-7.643857-1.236506-10.578255-1.30193-.770809.004015-1.938175.123264-2.852024.902697-2.287745,1.951259-1.313528,6.584738-.867012,9.049276.574241,3.169477,4.443585,8.275844,7.784667,9.782615,3.540312,1.59662,11.290778-3.534808,11.290778-3.534808,0,0,6.697297-4.384572,8.406042-8.00116.590597-1.24974-.667172-2.758349-2.241354-3.129182Z" stroke-width="0px" /><path d="m85.63963,128.81554c.170399,0,.339757-.071074.460196-.20995.598923-.689922.394623-1.724507-.148839-2.32581-.492015-.544503-1.184019-.789841-1.689416-.969162-4.885955-1.735213-9.949742-3.0874-15.050405-4.019092,8.013545,2.837851,9.818152,3.453475,14.642995,5.166979.496625.176049.928867.345556,1.193089.63788.196568.217682.2611.56294.13278.711036-.220507.253963-.193297.638475.060666.859131.115235.09992.257531.148987.398935.148987Z" stroke-width="0px" fill="#fff" /><path d="m108.007199,163.876997c7.495944,2.394101,10.517775,4.52805,14.34242,8.690481" fill="none" stroke="#0c0c0c" stroke-miterlimit="10" stroke-width="3.450306px" /><path d="m207.358527,193.700442c3.03429.723917,6.060643,1.822307,9.173737,1.623274-5.154174-4.186043-12.395452-4.996698-17.669226-9.031022-.496901-.380118-.989459-.795758-1.586404-.982993s-1.339995-.079742-1.699674.432148c-.279804.398215-.263524.923532-.280818,1.409913-.112699,3.169521-3.396052,5.543813,1.228661,5.531008,3.677429-.010182,7.237495.159688,10.833723,1.017671Z" fill="#754123" mix-blend-mode="multiply" stroke-width="0px" opacity=".25" /><path d="m211.641133,213.872902c4.91588,5.0888,8.638132,11.191419,12.189862,17.310812,1.615312,2.783074,3.222738,5.626514,3.997469,8.749737.967799,3.901551.579318,7.998295.103942,11.98988-.333133,2.797211-.706036,5.589685-1.11856,8.376294-.212758,1.437183-.453476,2.920314-1.23848,4.142823-.23937.372778-.551269.732186-.975003.861458-.797615.243335-1.626078-.468661-1.842497-1.273997s-.005137-1.654914.166406-2.470988c.647916-3.082309.720742-6.288162.175365-9.390256-.96014-5.461255-3.814527-10.474053-7.537365-14.583512-3.722838-4.109459-8.291389-7.372331-13.061587-10.199412-1.358025-.80484-2.765605-1.60193-3.782472-2.8094-1.291297-1.533342-1.811075-3.555562-2.255634-5.510289-1.098307-4.829267-2.640169-10.164803-2.819208-15.111482,2.461793-1.021434,7.595434,2.063516,9.737176,3.321924,3.047322,1.790493,5.807948,4.057506,8.260587,6.596407Z" fill="#754123" mix-blend-mode="multiply" stroke-width="0px" opacity=".25" /><path d="m221.834506,201.222407c.219238.314916.437813.756206.188958,1.048282-.137985.16195-.368693.200837-.579539.229327-.691305.09341-1.408194.185019-2.075556-.018098s-1.272399-.788255-1.262684-1.485775c.004557-.327163.139561-.63689.277767-.933462.405241-.869586.830453-1.90013,1.44767-2.635667.380078.409877.51571,1.360512.797916,1.893312.351621.663855.77683,1.286378,1.205469,1.902082Z" fill="#754123" mix-blend-mode="multiply" stroke-width="0px" opacity=".25" /><path d="m227.593612,210.278905c.066501.207631.143812.420484.296755.575859.261081.265234.68052.299518,1.04658.232342.796874-.146235,1.477839-.686497,1.962104-1.33602.484265-.649523.798037-1.407317,1.106892-2.156317-.950353.265885-1.900929.53097-2.851728.795255-.113535.031558-.241591.06155-.343713.00275-.104174-.059982-.141691-.189363-.169871-.306263-.430069-1.784065-.880959-4.223353-2.511861-5.336379-.564909.94133.390919,2.518857.597965,3.487646.28795,1.347344.445266,2.724753.866878,4.041127Z" fill="#754123" mix-blend-mode="multiply" stroke-width="0px" opacity=".25" /><path d="m104.203489,340.441798c-1.708952,17.992527-9.415069,35.674163-22.744182,47.880156-4.946601,4.529798-11.297674,8.452487-17.943817,7.548764-2.753384-.374398-5.336468-1.56195-7.717546-2.994348-7.081377-4.259981-12.726279-10.862827-15.833468-18.520418-.553022-1.362909-1.362735-3.009272-2.833488-3.024738-1.317502-.013852-2.199289,1.345159-2.63319,2.589238-2.07124,5.938651.18987,12.746166,4.353754,17.45994,6.879756,7.78831,18.228823,10.504672,28.516584,9.038125,10.287762-1.466546,19.70026-6.563274,28.342905-12.333324,15.080054-10.067829,28.598417-22.469995,39.925335-36.628743.424519-.530652.858825-1.090518.994939-1.756311.143215-.700524-.06459-1.425107-.340405-2.084781-1.956849-4.680242-6.974815-7.154507-10.629534-10.672595-2.330901-2.243761-4.140355-4.967628-5.818167-7.733945-4.622174-7.620877-8.397602-15.754904-11.234532-24.204407-1.058444-3.152466-2.015644-6.408348-3.929826-9.12762-1.600467-2.273599-6.29799-7.112732-9.254264-6.508766,2.138836,8.513874,5.961968,16.413257,7.55582,25.199751,1.545634,8.520678,2.04262,17.245592,1.223082,25.874022Z" fill="#754123" mix-blend-mode="multiply" stroke-width="0px" opacity=".25" /><path d="m124.284981,321.88374c3.129273-1.442635,4.045199-5.392554,4.415651-8.818432.816153-7.545439.850783-15.171042,1.969625-22.677545.267309-1.793618.605376-3.588828,1.026182-5.363727.151063-10.470674,3.160534-20.889589,5.400088-31.217062,2.67964-12.35653,3.210702-23.809022-.734351-35.890147,2.854851-.845355,6.816376,4.505502,7.64713,6.952277.594706,1.75136.614923,3.638059.629149,5.487507.029576,3.842284.058965,7.687002-.119615,11.525262-.706646,15.193318-4.665551,30.078379-9.892862,44.361667-.218452.597046-.445328,1.192548-.680627,1.784539-.192058,2.14404-.13796,4.312555-.080118,6.468575.106699,3.985626.213398,7.971252.320097,11.956877.101083,3.77424.202915,7.557747.721247,11.29759.635514,4.585433,1.891004,9.06061,2.747965,13.609868,1.065304,5.655885,1.511568,11.407565,1.956147,17.145768-5.340375-.816715-9.520539-5.002869-12.661044-9.39863s-6.940297-8.581682-9.610203-13.278166c-1.016822-1.788704-1.785241-3.718457-2.276056-5.716582,2.859531,1.551112,6.267345,3.132315,9.221595,1.77036Z" fill="#754123" mix-blend-mode="multiply" stroke-width="0px" opacity=".25" /><path d="m157.780337,244.225153c.167669,3.531423.172261,7.143592-.919405,10.506229-1.993896,6.141753-6.411139,13.246488-11.36186,15.51048-15.637033,7.250792,2.409334-15.083568-1.241847-46.398175,6.361129,5.202447,13.133384,12.173085,13.523112,20.381466Z" fill="#754123" mix-blend-mode="multiply" stroke-width="0px" opacity=".25" /><path d="m156.41587,235.793724c-9.726778-27.577665-33.396281-42.51675-55.333869-38.366711-21.937588,4.150039-37.148758,22.791007-30.220795,35.622716,0,0,2.071943.106064,4.242072,6.281559s-1.473515,10.306402-5.932502,8.86314c-4.458987-1.443262-9.831491-4.2943-11.24232-9.814184,0,0,.721631,8.515248,3.896808,11.401773,3.175177,2.886525,6.639007,5.758001,9.669858,4.105774,3.030851-1.652228,7.504964-2.229533,7.360638-8.291235-.144326-6.061702.21871-9.63744-2.344191-13.045316-2.562901-3.407875-4.072941-8.587386-4.072941-8.587386l11.063903-14.160205,10.074506-5.051418,7.937943-2.636965,22.370567,6.285962,19.868616,13.847624,12.661707,13.544874Z" fill="#754123" mix-blend-mode="multiply" stroke-width="0px" opacity=".25" /><path d="m200.231213,378.781453c.795188-1.041812,1.82867-1.928115,2.976338-2.712165-1.178929,1.638811-2.302638,2.869405-2.976338,2.712165Z" fill="#754123" mix-blend-mode="multiply" stroke-width="0px" opacity=".25" /><path d="m207.397075,359.322846c1.331865-.696959,9.944526-5.503652,12.555468-4.668405.012167-.014133.02265-.029576.034818-.043662.324777-.373165.706085-.746799,1.193718-.829491,1.149915-.195053,1.853941,1.237754,1.984413,2.396935.271614,2.409851-.196738,4.897995-1.325687,7.044281-2.304884,4.381395-6.969873,6.914558-11.423898,9.075726-2.256963,1.095161-4.956258,2.232628-7.208354,3.771058,1.771576-2.462265,3.668197-5.847662,4.35369-6.845531,1.020191-1.484613,2.052925-2.983826,3.386848-4.194203.074689-.067763.15593-.127898.232117-.19379-2.832576,1.349273-5.747328,2.380462-7.884676,3.059732-7.538372,2.395906-15.529185,3.004323-23.438758,3.082288-9.718774.095812-20.144382-.843857-27.699601-6.957893-4.103041-3.320349-6.978109-7.882476-9.777178-12.35742-.737159-1.178649,19.60768,18.487628,65.01708,7.660374Z" fill="#754123" mix-blend-mode="multiply" stroke-width="0px" opacity=".25" /><path d="m125.556857,245.70263c.901584-3.338275,2.027695-6.610771,3.210506-9.85318.000009.000002,1.548453,1.620516,1.548453,1.620516-2.744646,1.48915-6.135869,1.779444-9.241275,1.84971,1.1677-2.575631,2.446237-5.34437,3.829794-7.797423.967752-1.728899,1.997677-3.423634,3.093494-5.075501l2.071082,2.9126c-3.690301,1.031833-7.68207,1.079741-11.483807.863033.000008.000105,1.279646-2.480458,1.279646-2.480458.925098-1.793571,2.061723-3.171766,2.849048-4.536014,3.08116-4.659877-1.37212-9.038864-4.805526-12.019913,4.274945,1.676518,9.104162,5.215357,8.510921,10.488322-.284518,2.781326-2.33162,5.421199-3.296216,7.617165.000021.000008-1.620118-2.578736-1.620118-2.578736,2.570695-.070852,5.126977-.420993,7.608195-1.057536l4.851806-1.244727c-1.81606,2.710865-4.200647,6.234541-5.891102,8.977692-1.015313,1.622097-2.00181,3.264512-2.964534,4.924616l-1.443992-2.370401c2.827603.259473,5.990084-.744799,8.701386-1.584378-2.144224,3.815085-4.332609,7.735636-6.807761,11.344615h0Z" stroke-width="0px" fill="#eeddcf" /><path d="m107.761126,177.117226c-.074443.003676-.156288.003804-.213912-.043468-.057614-.047263-.07351-.1276-.083669-.201424-.197527-1.435448.358982-2.96156-.159322-4.314663.771964.317346,1.543929.634692,2.315893.952037.53435.219665,1.072884.440612,1.639636.55275.723996.14325,1.469718.104474,2.207433.08286.858813-.025162,1.718331-.026242,2.577261-.003236.303005.008117.656616.002566.912699.149077-.325557.44506-1.57648.421594-2.108426.575874-.810207.234984-1.59202.556268-2.371239.876686-1.513382.62231-3.058952,1.291674-4.716354,1.373506Z" fill="#754123" mix-blend-mode="multiply" stroke-width="0px" opacity=".25" /><path d="m98.479437,177.322556c.014968.263853.147514.505697.290607.727884.456569.708938,1.055676,1.325664,1.751086,1.802583.064135.043985.1351.088548.212765.084549.111027-.005718.190796-.106086.250092-.200129.221523-.351336.376582-.746006.453977-1.154066.098753-.520675.109679-.561506-.307195-.782043-.234357-.123981-2.6517-.485257-2.651332-.478779Z" fill="#754123" mix-blend-mode="multiply" stroke-width="0px" opacity=".25" /><path d="m91.316341,180.361086c.135386.45873.364607.883241.592216,1.303903.057795.106816.121614.219721.229433.275623.184822.095826.405249-.014395.583361-.122183.475269-.287618.995767-.637765,1.09828-1.183747.068239-.363439-.069454-.730655-.207324-1.073783-.337741-.840562-1.012963-2.233449-2.150775-2.079604-1.070694.14477-.348776,2.189976-.145191,2.879791Z" fill="#754123" mix-blend-mode="multiply" stroke-width="0px" opacity=".25" /><path d="m111.825815,174.201671c2.161188.543033,6.305691-.932787,8.605028-1.139842,3.052143-.274845,6.116385-.415436,9.180865-.421936,6.129146-.013,12.259405.510202,18.297363,1.563796,1.689208.294759,7.43074.575484,8.466401,1.984843,1.520001,2.068465-4.106366,1.620025-5.361814,1.693444-6.187599.361854-12.400699.278826-18.576649-.244945-6.947793-.589229-13.848491-1.736122-20.611195-3.435361Z" stroke-width="0px" opacity=".66" fill="#d8b58e" /><path d="m77.046597,196.798461c-5.244821,6.342956-10.395192,13.200168-12.025961,21.267499-.591852,2.927862-.698121,5.929468-.785567,8.915271-.023957.81801-.048528,1.647949-.290058,2.429855-.257063.832189-.746794,1.568745-1.182329,2.323019-2.374366,4.112001-3.2159,9.086157-2.326304,13.750359-2.163955-2.855663-2.473732-6.660107-2.702028-10.235774-.386936-6.060368-.754312-12.290109,1.1074-18.070404.976897-3.033097,2.539319-5.840723,4.159817-8.584441,4.315703-7.307058,9.15614-14.373522,15.182342-20.348744,3.773633-3.741709,7.645957-7.659585,11.568918-11.199695,2.661449,2.734244-10.688235,17.31254-12.706231,19.753055Z" stroke-width="0px" opacity=".66" fill="#d8b58e" /><path d="m86.662465,301.292674c-4.110578,15.794989-6.508354,32.015423-7.534303,48.304252-.681896,10.826344-.970653,22.365389-7.080649,31.328795-.389982.572105-1.170035,1.179635-1.672936.703735-.267897-.253513-.254857-.676257-.222198-1.043641.653768-7.354211,1.307535-14.708421,1.961303-22.062631.90166-10.142754,1.803334-20.285651,2.789969-30.420493.315527-3.241133.639893-6.482678,1.104926-9.705757,2.307707-15.994383,8.12503-31.472962,16.922945-45.028126,2.354938.5969,4.251765,2.703292,4.599539,5.107675.628239,4.343426-3.888283,6.771894-5.937271,10.019438-2.453945,3.889381-3.78248,8.382289-4.931326,12.796753Z" stroke-width="0px" opacity=".66" fill="#d8b58e" /><path d="m59.043893,375.452287c-2.171002-1.536494-4.426537-2.984631-6.886896-3.994925-4.702818-1.931111-10.08416-2.159077-14.933449-.632616-.341502-2.480324,2.425464-4.148446,4.784261-4.987917,2.722133-.968779,5.61289-1.795429,8.468709-1.356301,4.160994.639818,7.441164,3.815911,10.125445,7.059038,3.481268,4.206039,6.483544,8.808221,8.930676,13.690008.504825,1.007533.700248,3.159756-.857313,1.994109-.751796-.562629-1.471297-3.660596-2.121594-4.628091-1.9348-2.878544-4.703246-5.156982-7.509838-7.143305Z" stroke-width="0px" opacity=".66" fill="#d8b58e" /><path d="m199.657756,384.862224c-2.476586,3.962332-4.202773,8.947255-2.417763,13.265506-3.049176-1.811632-4.541497-5.63765-4.18456-9.1664.356937-3.52875,2.314973-6.740806,4.814659-9.256975.989365-.995888,7.527008-6.965258,8.278698-4.753171.580436,1.708117-5.514767,8.349095-6.491035,9.911041Z" stroke-width="0px" opacity=".66" fill="#d8b58e" /><path d="m140.31423,292.053094c3.263518,17.607261,3.471615,35.776637.612219,53.454025-2.299508-2.070021-3.557991-5.043656-4.503167-7.989732-3.431076-10.694522-3.613288-22.120184-3.765003-33.350593-.075922-5.620038-.111886-11.282007.673343-16.860348.503905-3.57979,1.678559-12.881546,5.367137-14.54191-.523254,6.667945.398789,12.724335,1.615471,19.288557Z" stroke-width="0px" opacity=".66" fill="#d8b58e" /><path d="m33.02839,381.649548c1.693705,6.59287,6.129011,12.1648,12.826333,16.113783,5.822766,3.433085,12.840934,5.307616,19.83327,5.307616.220885,0,.441771-.001872.662656-.005616,1.577459-.026768,3.939811-.465123,6.884888-1.226429l.001123.004399c.052039-.013665.109132-.032665.161359-.046751.696351-.181482,1.414041-.374944,2.172914-.591477.003744-.028874.010108-.057234.013852-.086061,15.325334-5.243644,44.718266-25.371178,62.691793-49.687815.854715.614268,1.775695,1.260311,2.747216,1.931016,7.685865,15.994091,30.078987,19.067752,43.033733,19.067752,3.298681,0,6.699195-.183822,10.199294-.552214l.114561-.015724c4.040894-.673467,7.759632-1.425367,11.021811-2.471578-1.144486,1.855953-2.953314,4.236743-5.842234,7.031178l-.288649.273673c-1.905605,1.794414-7.70516,7.254403-7.618677,14.184592.047547,3.819447,1.868167,7.364846,5.41132,10.537735,2.823216,2.528203,6.216616,3.816077,9.8923,3.816077,1.989467,0,4.060549-.377003,6.169818-1.138871,10.751882-3.883092,20.361523-16.928064,22.352488-30.343675.673888-4.923687,1.321195-12.448722.650489-20.584234,5.890716,2.204877,12.276927,4.085539,19.162377,5.390869,7.811858,1.370988,15.659658,2.04525,23.434452,2.04525,26.954019,0,53.071294-8.099384,74.110449-23.36594,24.669913-17.901832,40.579284-44.049807,44.797073-73.62787,9.017743-56.366606-14.607644-101.81735-29.493828-123.890549-13.468773-19.583557-26.200013-29.3437-34.624361-35.802167-8.496229-6.513501-11.366992-9.014374-10.043176-13.893697.310363-1.131757,1.749488-2.440597,4.260844-2.801876,2.531572-.366146,11.551562-.308865,21.442739,15.695224l1.51213,2.446588,1.676109-2.337268c9.832025-13.712121,10.925595-31.066982,2.999924-47.614674-5.389231-11.252431-14.416334-21.130879-26.105295-28.567232-12.520837-7.96573-27.524577-12.641388-43.389396-13.520812-21.257045-.360156-36.564784,4.413591-46.877515,14.559348-10.125915,9.961186-15.260192,25.202285-15.260192,45.299494,0,35.674129,13.424222,62.329016,24.210921,83.746672,6.673737,13.251631,12.437725,24.69612,13.828929,35.468218,2.518095,16.698194,1.284131,31.815372-3.661083,44.97191-1.732828,4.610657-3.908737,8.854934-6.448171,12.697639l-.001123-.000655c-.023586.038421-.048857.073239-.07263.111472-.597514.899968-1.20888,1.78482-1.846453,2.639067.007113.002948.013291.0073.020404.010296-3.94187,5.142841-8.870237,8.202292-14.245429,9.883502.91967-3.421806,1.942856-8.158443,2.122185-9.880086,1.550504-10.226623,1.509135-21.94984-.142078-35.112555.458244-6.248251.230432-9.66842-2.262017-14.440108l-.887473-1.698759-3.89058,2.031959-1.249875-3.539409-4.199258-1.317825c-.860143-1.4921-1.412357-3.196662-1.172003-3.738393l.701592-1.577459-1.495844-.862015c-1.708306-.984064-4.486222-.991177-6.617205.301003-9.953512-6.484206-15.508594-8.735834-19.985082-10.199013.411072-10.860265,1.617705-21.692452,2.808989-31.280286.031822.005616.065142.005616.096403.012729.939138-16.114719,10.49674-36.756655,14.394995-45.170332,8.006163-17.280358,11.923698-40.633195-3.386287-49.576436-5.704087-3.33275-11.389829-3.908176-16.442865-1.665626-6.551314,2.90689-11.907787,10.482233-15.457304,21.660161-.392165,1.188008-.762055,2.38678-1.082526,3.601557-6.869164-3.199096-12.13017-3.892358-13.552635-4.130839-3.998402-18.875226-11.983599-28.369932-24.387629-29.016865-3.38404-.180827-6.55356,1.004842-9.168619,3.416612-5.073814,4.679028-7.930163,13.705944-8.51083,26.820926-6.13706,1.398879-12.433981,3.437764-18.500095,6.370674-18.442815,8.917035-30.54659,23.89906-35.975881,44.530139-1.238831,5.091223-.341062,10.093718,2.659611,14.903031,4.842821,7.761878,15.204596,14.694968,29.434114,19.936974,10.237668,3.370469,21.369547,6.036725,21.433567,6.053011l.017222-.067108c4.804821,1.003251,9.181348,1.747522,13.14175,2.112171-.000187.002246.000187.004305-.000187.006552.076561.006739.149566.010108.225752.01666.389357.034537.766735.057842,1.147856.084798.321969.022276.645809.046704.962911.063832.422116.022931.835808.037064,1.247816.049793.339565.011044.676883.019655,1.010083.02396.152186.001591.312235.011044.463111.011044.096965,0,.185319-.008892.281535-.009734,3.536227-.007768,6.697697-.39984,9.351692-1.298732,7.399289-2.506301,8.374368-8.394397,8.386348-8.631568l.09397-1.884078-1.177806,1.473194c-.025832.032384-3.340799,3.603241-9.453337,5.400088-3.35409.985748-7.842183,1.272151-12.698107.817651-3.631507-.356225-7.643574-1.041906-11.999885-1.946974-.450382-.11297-2.041693-.501017-4.298469-.93764-22.108203-5.073066-38.218804-13.528674-44.317303-23.303044-2.434233-3.901811-3.173263-7.916311-2.196126-11.933057,10.77135-40.930641,47.007239-49.675647,71.568019-50.699396,9.596164-.327584,14.517605.268619,14.562343.276575l4.075899.57112c.083487.021527,8.155167,2.138097,15.807913,2.373957-.184383.773567-.248028,1.761655-.238107,2.823684-.024709,3.751497.908251,7.985853.908251,7.985853,0,0,1.618641-4.786382,2.613375-8.21928.162295-.52816.275732-.91031.309427-1.052108,3.127214-13.117977,8.364072-21.863825,14.867091-24.749376,3.934757-1.745744,8.293688-1.251185,12.954372,1.471696,13.088026,7.645258,9.171614,28.833417,1.841212,44.654808-6.153533,13.281582-13.020076,29.880003-14.520413,43.910911-1.195777,9.484785-2.48777,20.36143-3.029875,31.434999-.001685,4.933608.172029,6.178429.542667,13.322577,1.679666-2.51304,2.452952-4.960096,2.81292-6.702564,4.363986,1.483302,9.698745,3.819634,19.400859,10.239914l1.350022.893276,1.107048-1.180989c.537238-.574302,1.358633-.797247,2.051989-.828321.156866,2.508361,1.768581,5.090474,2.176658,5.708018l.375693.567751,3.702078,1.161334,2.083624,5.899514,4.342272-2.26782c1.295175,3.109618,1.381845,5.784766,1.003157,10.836866l-.014414.192432.024335.191309c2.275495,17.987285,1.375667,33.47585-2.562272,45.767238-2.123496.377798-4.290045.585534-6.47157.65662,3.653408-14.768628-8.467214-31.965218-16.730952-37.101929-2.388933-1.484987-5.12941-2.633404-8.067561-3.4314-.499426-2.539809-.98163-5.043021-1.447361-7.494008-.313732-1.598612-2.167298-9.197821-5.136523-13.293562.206659,2.0752.350983,9.29151,1.372485,14.020612,2.069959,10.896019,4.418833,22.714515,7.547545,35.228614.889906,3.264238,1.848699,6.58688,2.776044,9.800202,6.463708,22.39367,13.147179,45.549956,2.992062,66.154828,0,0,5.219075-2.183678,7.001321-7.674086.007862-.028406.014414-.057.022089-.085406,19.944836,11.680443,18.375426,40.550831,16.71841,52.655028-1.795911,12.102653-10.335194,23.839534-19.859102,27.279357-3.266859,1.179678-8.035365,1.803025-12.202238-1.927319-2.710527-2.427494-4.102105-5.027953-4.1358-7.729869-.065517-5.245469,4.810811-9.836517,6.413167-11.345277l.326461-.309614c5.722432-5.535334,7.772736-9.778582,8.506712-12.027308,1.02693-.568921,1.975989-1.199099,2.834635-1.906682,3.941308-3.247438,4.503443-7.942799,4.503443-7.942799,0,0-4.542379,3.497759-7.202739,5.111019-4.283306,2.597323-9.935916,4.467362-17.060783,5.659723-16.286748,1.704562-30.247085-.749513-41.498018-7.296709,0,0-11.924992-6.247542-15.253079-35.650542-2.852043-19.211421-1.79666-38.858623,2.821718-52.586095,7.677455-16.755474,7.36859-38.577837,7.090424-44.876442l-.003369-.05728c4.025919,4.609955,7.794262,10.155678,11.025555,16.829227,0,0,0-9.228146-5.421054-15.732662-20.661778-26.760838-50.136512-27.411514-50.625829-27.411514h-.003369c-9.659996.091162-23.075045,7.325349-29.85754,19.112397-1.444179,2.459691-2.815167,8.669755-1.212062,12.648315.283969-1.171535.601258-2.239554.917798-3.183091.729296,1.56342,1.596178,2.820127,2.416637,3.92156,1.245569,1.671991,2.320795,3.115608,2.72101,4.836643,1.144486,4.923874.589278,8.557628-1.697449,11.108668-.509909.569061-.987246.9543-1.459342,1.178555-.597888.282659-1.383342.401338-2.400913.367643-4.954574-.157241-9.600656-3.712374-11.048392-8.452801-1.297234-4.246617-1.472071-7.971345-.550342-11.722655l.020778-.084423c.006364.000374.012729.000468.018906.000749-.000374-.02733.00131-.053911.000936-.081241l.01067-.043616-.010108-.00599c-.227999-22.396478,16.854873-39.002012,26.506258-48.371674.00599-.005803.009547-.011699.015537-.017409.090975-.094906.188876-.207127.292018-.331983.101832-.119896.202541-.239511.287151-.360998.900015-1.168634,2.166924-3.070121,3.756176-4.516359l2.971097,3.895072,4.388508-4.459734,3.844905.517771.581041-.354821c.631583-.386362,3.185992-2.041506,4.391503-4.246804.61511.322156,1.264101.87231,1.50745,1.620232l.501672,1.539179,1.601794-.236797c14.442541-2.134727,10.571055-.823734,15.935952-.955143,7.401723-.181295,18.212382,1.307811,25.985118,2.569853,1.299668.211058,5.605437,1.038349,9.22253-.094906-4.407414-2.858034-10.739527-3.89058-11.4984-4.010195-6.096814-.961226-14.240375-1.961014-23.175754-2.261175-5.20541-.174836-1.666188-1.204107-15.658909.7614-1.382032-2.073703-3.901062-3.245145-5.865258-3.078357l-1.720286.146758-.033507,1.725995c-.01198.59246-1.234712,1.902049-2.646508,2.889014l-4.361927-.587031-2.632468,2.675522-2.662044-3.489616-1.523923,1.161895c-2.674773,2.040196-4.320932,3.987077-5.72786,6.581451-.10595.102955-.204787.199078-.312796.303998-10.172338,9.876015-28.249381,27.434913-27.618922,51.666238-.829818,4.508591-.681001,8.66779.4545,12.386809,1.916837,6.276143,8.068685,10.983624,14.62786,11.193653.148255.004493.294264.006739.437653.006739,1.462337,0,2.688064-.244472,3.74794-.747267.946438-.448884,1.824364-1.133629,2.683946-2.092422,3.146682-3.510956,4.016746-8.413116,2.585858-14.57058-.583287-2.510232-2.008935-4.423325-3.387784-6.273522-1.47076-1.974117-2.676833-4.612669-3.233352-7.01508,5.911495-12.629876,19.852738-19.452617,27.897088-19.528429h.002995c.16061,0,3.702265.078901,9.073339,1.28619l-.74109,1.137935c-4.892801,7.195625-7.022661,18.450677-7.810735,23.947356-.835247-.619228-1.777192-1.33018-2.636774-1.989841l-2.430863-1.865546-.613987,3.002171c-.096216.46985-2.149328,10.83799,1.569036,19.00289-1.795537.63907-3.274346.368766-3.29344.365023l-2.305071-.476963v2.354115c0,6.2417.592273,9.097487,1.828857,11.78293-.172216.347052-.303998.705336-.425298,1.034792-.11194.303998-.287151.780587-.432037,1.013827-.163979-.039685-.500549-.158364-1.058753-.512529l-3.419232-2.168047.490066,4.018618c.192245,1.577179.649179,3.059919,1.226663,4.408818l-.070945-.046891c-6.864672,10.38349-12.156938,24.858976-15.730041,43.024748-2.768182,14.072652-4.355937,30.238848-4.355937,44.353431,0,9.239939-1.635489,16.091648-2.74834,19.685436-3.241026-5.308365-10.088664-14.984179-17.300575-15.661904-7.345378-1.245195-14.789593,2.400913-17.333895,8.500722-1.597863,3.830304-1.110792,7.835445-.420806,10.521262ZM160.386092,78.535093c-1.669932-.550342-12.529823-3.991288-21.845013-3.604364-1.102181.078995-1.779064.086482-3.295499.235112-.013103.00131-.026956.001685-.039872.002995-.028453.002808-.057468.006458-.085734.00936-.046611.00468-.086108.008049-.134029.01301-.000374.000562-.000749.00103-.000936.001591-3.01621.309052-6.1584.74605-9.370411,1.350022.774597-14.28736,4.313444-20.500981,7.236995-23.196719,1.864798-1.720286,4.007387-2.530449,6.369738-2.406529,10.67401.556706,17.571627,9.456145,21.087825,27.206727l.076936.388796Zm60.556878,184.850403c-.063832.433394-.194866.768139-.376441,1.031563-3.847338-.140487-7.680263-.61876-11.339474-1.228301-.201043-.698129-.402274-1.39579-.603317-2.092562-.923601-3.199844-1.87865-6.508634-2.750586-9.706232-2.006876-8.028439-3.691408-15.787322-5.192306-23.213192,1.868167.640474,3.624581,1.434258,5.190996,2.407839,7.219211,4.487719,18.219496,19.653099,15.071129,32.800886Zm14.702175,85.496534c-1.739567-12.334302-6.919144-25.245479-19.782167-32.20735,3.177569-16.092911-.800616-32.894856-5.474778-49.421629,3.860255.581369,8.016833,1.006948,12.242671,1.006948,9.794961,0,19.95457-2.282,27.626409-10.162323-.010483.051665-.022837.103002-.033133.154713.31991-.373119.642065-.759481.96497-1.155016,1.330929-1.488544,2.581365-3.154217,3.730344-5.026783l-.020591-.012589c7.976025-12.015375,15.013474-31.326101,10.659971-60.193119-1.46945-11.380469-7.369713-23.096011-14.201813-36.661-10.604001-21.055253-23.800972-47.259011-23.800972-82.022267,0-19.031343,4.749038-33.352959,14.114957-42.566879,9.542253-9.387259,23.951848-13.789993,44.051678-13.46166,29.337336,1.628188,55.341922,17.296082,66.17467,39.914007,6.853066,14.308138,6.422152,29.223149-1.08758,41.368856-4.102105-5.912618-13.066687-16.531594-23.632126-15.00973-3.718738.535367-6.628811,2.728497-7.413141,5.587654-2.065841,7.614559,3.294938,11.724152,11.409297,17.944886,8.23229,6.311335,20.673384,15.849095,33.787991,34.917877,14.560472,21.590246,37.686807,66.060483,28.871979,121.159057-4.074776,28.573596-19.435676,53.812196-43.257988,71.098544-26.272643,19.064289-60.755114,26.59274-94.604878,20.652418-7.36391-1.396071-14.141351-3.470148-20.32577-5.904615Zm-97.478261-2.292997c-5.072504-3.829883-7.752706-6.557585-10.199668-9.548664-10.221008-12.492384-15.213394-20.023456-20.120796-39.707348l-.120177-.341062c-1.977861-4.274696-5.144385-5.949682-7.688687-7.295585-1.811261-.958044-3.056456-1.664129-3.831427-2.819847,3.731467-2.588104,3.56-7.714519,2.826211-10.364396l-.141516-.511032-.383742-.365771c-.032197-.031074-2.750211-2.671591-4.169494-6.283256.233614-.029576.461613-.082364.684745-.157989,1.738256-.588529,2.351869-2.255278,2.757699-3.357834.056532-.15462.132157-.359781.197299-.515524l1.55406-.647681-.973768-1.854689c-1.194279-2.274746-1.801527-4.27507-1.922452-9.138294,1.46009-.094719,3.430089-.50579,5.389231-1.789547l1.538711-1.008586-.944192-1.57877c-2.835196-4.740427-2.806743-11.18317-2.470548-14.961809,1.306968.968527,2.55441,1.855812,3.031747,2.083062l2.481405,1.181925.251959-2.737108c.014975-.164728,1.58476-16.575396,7.578244-25.390225l1.468514-2.254717c7.929976,2.298332,18.345288,6.897992,27.89428,16.079808l.27592,4.557448c.267683,6.061247.573179,27.182018-6.787174,43.166265l-.074502.187191c-7.514599,22.214247-5.042179,55.73624,1.898118,75.374035Zm-101.179778,26.015068c2.066215-4.953451,8.345353-7.035764,13.219809-6.185917l.168472.021714c6.114784.513465,13.500221,11.911343,16.036286,16.619386.050916.094344,0,0,.146758.274984,1.621824,2.792329,2.650251,5.769042,2.650251,5.769042,0,0,2.400351-3.037456,1.41479-6.519959.480145-1.114676,4.042204-9.859542,4.042204-23.979319,0-27.053558,5.699781-62.956855,18.392273-83.593736.949995,1.389613,1.863862,2.42609,2.379947,2.970535.257201,1.315579.707208,5.11743-2.365721,6.223729l-1.699321.61174.509534,1.732641c1.104802,3.755053,3.898067,5.232365,6.362625,6.535964,2.30844,1.221235,4.491089,2.376204,5.927593,5.359281,5.059775,20.214391,10.49543,28.395765,20.827255,41.023675,2.52109,3.08154,5.249587,5.884679,10.197609,9.679324-18.175319,24.586052-49.330654,45.406989-62.936451,48.988984l.01067.04062c-2.567326.656854-4.617068,1.032312-5.986184,1.055617-11.935304.203664-26.38084-6.224104-29.543995-18.536785-.544352-2.118254-.943443-5.240976.245595-8.091522Z" stroke-width="0px" fill="#0c0c0c" /></g></g></svg>