<?xml version='1.0' encoding='utf-8'?>
<svg viewBox="0 0 216 216" width="216px" height="216px" version="1.1" xmlns="http://www.w3.org/2000/svg" xmlns:xlink="http://www.w3.org/1999/xlink"><g isolation="isolate"><g id="Layer_1"><path d="M 118.2144965 113.8438915 L 120.459768 119.780631 L 123.77038 115.731358 L 125.1312175 112.401666 L 122.8727315 111.83802800000001 L 122.57539 108.9964135 L 121.751715 107.1577165 L 122.239547 104.6831925 C 122.239547 104.6831925 118.750054 104.136909 118.6060715 104.38035500000001 L 118.2144965 113.84389150000001 Z M 36.13690799999999 198.049569 C 37.52262749999999 199.9434235 39.89381499999999 200.861991 42.20841299999999 201.248763 C 43.856719999999996 201.524179 45.55896849999999 201.5776215 47.19121249999999 201.21909 C 50.677587499999994 200.453252 53.549876999999995 197.84886799999998 55.36619449999999 194.7760295 C 57.18249049999999 191.7031695 58.071167499999994 188.1786335 58.773534999999995 184.678909 L 58.6412535 184.673439 C 60.204839 180.7776515 59.117892 170.4634415 63.453632999999996 169.4572 C 67.50551399999999 168.516839 76.215135 170.17079 84.7571575 177.5669315 C 87.361541 179.8219655 94.21540300000001 189.49033350000002 96.651863 192.90216700000002 C 96.85540800000001 192.90702950000002 97.05102950000001 192.90279650000002 97.25144850000001 192.90407700000003 L 95.93951050000001 192.95823550000003 C 96.641878 196.45796000000004 97.530555 199.98249600000003 99.34687250000002 203.05535600000002 C 101.16316850000001 206.1281945 104.03545800000002 208.73257800000002 107.52183300000002 209.49841650000002 C 109.15407700000002 209.85694800000002 110.85632550000001 209.80350600000003 112.50465400000002 209.52808950000002 C 114.81920850000002 209.1413175 117.19041750000002 208.22275000000002 118.57613700000002 206.32889550000002 C 119.96190000000001 204.43506250000002 119.93237900000001 201.39886550000003 118.03398750000002 200.01939700000003 C 116.60194550000003 198.97879400000002 114.66708700000002 199.13931600000004 112.90809650000003 198.94039450000002 C 109.09809450000003 198.50949250000002 105.57616350000002 196.05616650000002 103.85147050000003 192.63165600000002 L 100.41523800000003 192.7734885 C 105.02016500000003 192.348035 108.68662000000003 190.9552605 111.57299700000003 189.25852550000002 L 111.57369150000002 189.26136900000003 C 129.221897 199.76002250000002 172.19292600000003 201.19136950000004 191.352707 160.73544450000003 C 204.995831 127.33349600000003 192.297865 88.70439450000003 177.5152635 70.00371250000003 C 167.125166 56.85971500000004 156.25769250000002 51.77654300000003 159.822733 47.208126500000034 C 164.895963 40.70704400000003 174.2159145 55.28592700000004 174.2159145 55.28592700000004 C 183.909223 36.192959500000036 171.545108 6.922643000000036 137.204926 8.287849500000036 C 113.191805 9.242493500000036 99.31270599999999 36.339827500000034 127.5115305 92.59065200000003 C 137.265705 119.98306850000003 125.251721 130.65183800000003 114.068109 134.80435200000005 C 112.83138500000001 134.80882350000005 111.3185935 135.10555600000006 109.493159 135.80303900000004 C 109.4706055 134.80639250000004 109.69195 133.72992950000005 110.2469715 132.57768850000005 C 111.35098 130.28568750000005 113.3662845 128.48953550000004 115.4000825 126.72210150000005 C 125.26548299999999 119.55846150000005 125.7795 99.37563850000005 104.072381 89.95585700000005 C 103.02591699999999 89.50175050000006 101.23977199999999 85.85457150000005 100.23902249999999 83.65182900000005 C 99.72582999999999 82.07756400000005 99.08860449999999 80.30131700000005 98.30891749999999 78.29024550000005 C 95.4520185 63.98662650000006 116.53439399999999 40.62824750000006 105.8005905 29.960107500000056 C 98.618478 22.821951500000054 90.9798065 31.103904500000056 88.6019985 40.338353000000055 L 80.41229899999999 37.722443000000055 C 78.05988799999999 26.051014000000055 73.31113149999999 24.636077000000057 70.52061149999999 23.901735500000058 C 65.82805399999998 22.66685650000006 61.41581799999999 26.70360800000006 61.41581799999999 38.345298500000055 C 57.03195299999999 40.56690400000006 42.52168499999999 40.66732000000005 34.097095999999986 62.95993750000005 C 32.83143649999999 72.19827150000005 40.94108149999999 78.22330200000005 57.55955849999999 81.97764750000005 C 57.72845899999999 82.66833650000005 57.982776499999986 83.31587250000004 58.30874749999999 83.92453200000004 L 57.349414999999986 84.07745650000004 C 43.91530299999999 88.29456000000005 37.22944649999999 96.13702750000004 35.262084499999986 103.85398550000004 C 34.89345999999998 105.29991200000003 33.11190649999999 106.19037350000004 33.77295499999999 107.43960100000004 C 34.41646049999999 108.65567650000004 32.41992399999999 110.24663300000005 33.01062149999999 111.01547700000003 C 36.17375899999999 115.13257650000003 32.26468499999999 115.78515150000003 33.81395799999999 116.63883250000003 C 36.27417599999999 117.99446300000004 39.00589199999999 121.08389050000004 41.15873549999999 122.64714650000003 C 43.192533999999995 124.41458050000003 45.207837999999995 126.21073250000003 46.311846499999994 128.50273350000003 C 46.866846499999994 129.65497450000004 47.0882125 130.73143750000003 47.065637499999994 131.72810600000003 C 33.73943299999999 126.63620800000002 36.9705575 142.79178750000003 44.05741999999999 139.60034300000004 C 46.197255999999996 138.77745950000005 48.70625999999999 137.03448900000004 50.692911499999994 133.40599950000004 C 52.78345149999999 129.67149400000002 51.07647099999999 124.26497750000004 49.385054 120.72225150000004 C 45.988262999999996 111.87943750000004 51.277693 103.65476850000005 54.549409499999996 107.17963000000005 L 54.7082815 107.34295200000004 C 52.603719 112.77119700000004 51.379802 122.21976150000003 51.7545265 131.36560250000005 C 50.778392499999995 133.55703600000004 49.67080249999999 135.80716450000006 48.478837999999996 138.12002550000005 C 43.632161999999994 147.52432950000005 32.32323649999999 158.09563550000004 32.32323649999999 167.05321350000006 C 32.32323649999999 170.48901150000006 36.72930749999999 176.95835900000006 40.54790549999999 180.27142700000005 C 42.84604949999999 182.26532800000004 46.63562549999999 184.16597700000005 50.34440849999999 185.25600650000004 C 48.491015499999996 188.20201200000005 45.269485499999995 190.26923900000003 41.8049475 190.66106850000003 C 40.0459575 190.85999000000004 38.1111205 190.69946800000002 36.679056499999994 191.74007100000003 C 34.78066499999999 193.11953900000003 34.75116549999999 196.15573650000002 36.136906999999994 198.04956950000002 Z M 88.6018255 40.339092 C 88.35484550000001 41.298338 88.1657575 42.267742500000004 88.038729 43.231308 C 88.2657825 41.44551 88.5999585 40.345169999999996 88.6018255 40.339092 Z M 97.930251 107.47515150000001 C 100.016866 108.704462 105.95952249999999 109.20772550000001 107.708401 114.606835 C 108.74935049999999 117.8204375 108.86495 121.5611925 107.17376449999999 124.797185 C 105.56090449999999 128.1753515 103.936562 133.2471275 105.60145299999999 136.948986 C 105.3610935 136.98523649999998 105.1257045 137.018882 104.89554749999999 137.050053 C 96.02690249999999 119.70821749999999 95.62065849999999 110.56360049999999 97.930251 107.4751515 Z &#10;" stroke-width="0px" fill="#c56439" /><path d="M 50.7667665 131.5264555 L 50.155589500000005 127.1942095 L 51.757118500000004 128.534562 C 51.755295000000004 128.0081285 51.757031500000004 127.4896825 51.762502000000005 126.9792255 L 49.9205485 118.4517465 L 50.3910655 118.246487 C 50.3910655 118.246487 51.1451605 118.8458555 51.279048 119.046687 C 51.4129355 119.24751850000001 50.682458000000004 113.6931785 50.682458000000004 113.6931785 C 50.682458000000004 113.6931785 51.82328150000001 113.7093285 52.9622815 113.715667 C 56.3255355 96.410733 66.0323025 94.4145745 73.2307165 94.4201315 C 78.75475349999999 94.424386 89.44944100000001 95.9853665 91.5789665 108.88998149999999 C 93.70866550000001 121.79459649999998 74.4776425 154.48063249999998 82.53547300000001 175.772587 L 82.76035550000002 176.3291495 C 82.76035550000002 176.3291495 72.37642300000002 168.178414 63.45084050000001 169.842545 C 61.71012750000001 170.6529905 62.700392500000014 169.754676 62.700392500000014 169.754676 C 62.700392500000014 169.754676 55.486870500000016 161.44886699999998 52.82196800000001 143.8978645 L 51.434468500000015 141.058005 L 49.92054850000002 136.26922100000002 L 51.754427000000014 135.37463950000003 L 50.766767000000016 131.52645550000003 Z &#10;" stroke-width="0px" fill="#e7caae" /><path d="M 43.5937725 60.345303 C 45.0775665 60.582741500000004 46.578411 60.824979 47.9615055 61.412407 C 49.916629 62.2427875 51.536926 63.7204755 53.470984 64.598803 C 59.1915205 67.19671000000001 67.077036 64.470119 72.8530705 66.94217950000001 C 76.858856 68.65659900000001 78.6624085 72.7550635 78.179407 77.0854515 C 77.676949 81.5902805 73.762818 84.80292800000001 69.2326345 84.64999300000001 C 67.399904 84.58812150000001 65.50604 84.06084600000001 63.715924 83.6630875 C 57.6501765 82.3152965 42.0883495 80.04658400000001 35.30429 70.3887345 C 34.886204500000005 69.793544 34.0748855 66.944091 34.205308 65.420119 C 34.414668500000005 62.973767 34.8850015 59.954772 35.4377115 59.7045235 C 37.6933745 58.6832345 41.098344 59.945982 43.593772 60.3453035 Z &#10;" stroke-width="0px" fill="#e7caae" /><path d="M 68.6136715 60.099855 C 66.6912325 59.6119005 65.01075 59.198592 63.09546399999999 59.14525 C 63.095465499999996 59.1452275 61.97999399999999 59.0952475 61.97999399999999 59.0952475 C 61.18536499999999 59.073971 60.45266349999999 59.017662 59.63374099999999 59.1630865 C 59.81868599999999 58.739959 60.18352099999999 58.4311875 60.548731 58.1759055 C 63.132312 56.5170835 67.250495 57.184219 68.613672 60.0998555 L 68.613672 60.0998555 Z &#10;" stroke-width="0px" /><path d="M 48.828322 40.536421 C 47.9945695 40.208073999999996 46.5777935 39.6035915 45.755949 39.384542499999995 C 45.345964 39.263690999999994 44.7047295 39.121295499999995 44.2797635 39.009914499999994 C 43.7016325 38.873265499999995 43.2039305 38.71507199999999 42.5628525 38.70263599999999 C 42.68808 38.35199449999999 42.977664499999996 38.100222499999994 43.270806 37.90371849999999 C 45.3705765 36.57766199999999 48.711804 37.93569149999999 48.828322 40.53642049999999 L 48.828322 40.53642049999999 Z &#10;" stroke-width="0px" /><path d="M 46.454739 55.596599 C 44.532383499999995 55.1086095 42.851862499999996 54.6953325 40.9367185 54.641994 C 40.93672 54.6419715 39.821248499999996 54.5919915 39.821248499999996 54.5919915 C 39.02671349999999 54.57072 38.29373 54.5144 37.4749955 54.6598305 C 37.6599405 54.236703 38.0247755 53.9279315 38.3899855 53.6726495 C 40.973476500000004 52.013846 45.091882 52.680884 46.454739000000004 55.596599499999996 L 46.454739000000004 55.596599499999996 Z &#10;" stroke-width="0px" /><path d="M 92.1487485 49.324786 C 92.1564415 48.446963000000004 92.16413399999999 47.569140000000004 92.171827 46.691316500000006 C 92.1976095 43.749292000000004 92.23694049999999 40.732760000000006 93.2956485 37.987708000000005 C 94.35435650000001 35.242656000000004 96.6666915 32.783167000000006 99.5859885 32.417268500000006 C 102.4451845 32.058904000000005 105.420295 34.004659000000004 106.238013 36.76776650000001 C 106.238013 36.76776650000001 95.727356 31.391503500000006 92.148748 49.324786 Z &#10;" opacity=".35" fill="#754123" mix-blend-mode="multiply" stroke-width="0px" /><path d="M 106.2379565 36.76775 C 104.257966 32.836516 99.89318399999999 31.542821 96.469535 34.5021365 C 94.91282899999999 35.8145905 94.179907 37.690661999999996 93.50206499999999 39.588737 C 92.81410899999999 41.5460365 92.42250549999999 43.598025500000006 92.14883199999998 45.7353265 C 91.67665349999999 43.088496 91.93723899999999 40.260587 92.78267599999998 37.677453 C 93.55386999999997 34.903775 95.68065799999998 32.3988395 98.56520549999998 31.723152499999998 C 102.11445499999998 30.803192999999997 105.62170049999997 33.220406999999994 106.23795649999998 36.76775 L 106.23795649999998 36.76775 Z &#10;" stroke-width="0px" /><path d="M 46.0174125 71.348291 C 48.305907499999996 75.64966050000001 56.7958485 81.68514 58.2887905 72.010306 L 55.607400999999996 72.544855 L 50.13128449999999 72.28150099999999 L 46.01741249999999 71.34829099999999 Z &#10;" stroke-width="0px" /><path d="M 174.215894 55.285925 C 171.0918415 33.236458999999996 155.9288655 31.9494355 150.925693 35.841741 C 145.7730235 39.790741 140.61861249999998 48.958768 150.90801299999998 68.4828465 C 164.16191999999998 93.6320595 178.32187 160.96695699999998 117.46913249999997 160.0632035 C 117.46913249999997 160.0632035 123.29359199999998 171.14939199999998 120.93365599999997 180.4680225 C 117.01725549999998 185.4185105 111.90105799999998 189.424823 111.90105799999998 189.424823 C 111.90105799999998 189.424823 135.64461949999998 200.742687 158.43838799999997 191.623446 C 195.79443799999999 175.895626 200.2127885 139.8793745 196.3124815 116.31738250000001 C 195.584433 111.96095450000001 191.3526425 78.885692 164.5864825 56.49621600000001 C 151.543987 46.49151050000001 166.67349049999999 39.261482000000015 174.2158935 55.285924500000014 Z &#10;" fill="#754123" mix-blend-mode="multiply" stroke-width="0px" opacity=".25" /><path d="M 114.0744045 209.887359 C 114.2879995 209.887359 114.4991635 209.7915015 114.6393025 209.6091645 C 115.7908055 208.108095 116.255505 206.39725049999998 115.9141005 204.91493549999998 C 115.63486400000001 203.70247949999998 114.8247655 202.70639749999998 113.6331485 202.110415 C 113.28236650000001 201.935024 112.8546555 202.07672599999998 112.678743 202.42855 C 112.5031785 202.780027 112.645575 203.207217 112.996878 203.3829555 C 113.813575 203.791391 114.342874 204.43148150000002 114.5278165 205.2341125 C 114.7735375 206.301046 114.402785 207.580185 113.5105485 208.742976 C 113.271426 209.0548595 113.33029499999999 209.5011515 113.642005 209.7404475 C 113.7710305 209.8394305 113.9233255 209.88735899999998 114.074405 209.88735899999998 Z &#10;" stroke-width="0px" /><path d="M 40.231986 201.4849115 C 40.420227499999996 201.4849115 40.607948 201.41058750000002 40.74774 201.2636755 C 41.0184675 200.978882 41.0068325 200.528422 40.722039 200.2578685 C 39.4093845 199.0106815 38.8236475 197.7586325 39.027865500000004 196.636477 C 39.22861 195.534118 40.112338 194.831512 40.508965 194.66410900000002 C 40.870861000000005 194.51129300000002 41.040174 194.09382750000003 40.887358000000006 193.73193150000003 C 40.73454200000001 193.37003550000003 40.317597500000005 193.20054850000002 39.95535400000001 193.35336450000003 C 39.182244000000004 193.68018250000003 37.924290500000005 194.75614550000003 37.628383500000005 196.38155200000003 C 37.42295000000001 197.50926450000003 37.623174000000006 199.27602550000003 39.74228000000001 201.28937600000003 C 39.87981450000001 201.41996400000002 40.05607350000001 201.48491100000004 40.231986000000006 201.48491100000004 Z &#10;" stroke-width="0px" /><path d="M 54.1739975 186.427868 C 51.495125 188.88289949999998 45.304672 190.246993 43.805818 190.2427615 C 43.805818 190.2427615 49.4135695 187.778312 50.554764500000005 185.9205965 L 54.173997500000006 186.427868 Z &#10;" fill="#754123" mix-blend-mode="multiply" stroke-width="0px" opacity=".25" /><path d="M 39.254107 194.129691 C 37.461841 194.531359 37.537154 195.8869895 36.7589215 196.112928 C 35.9806895 196.33886650000002 35.553917 194.5151695 35.579021 194.00862700000002 C 35.167072999999995 194.30542100000002 35.601363 196.76563900000002 35.9165475 197.719601 C 36.231732 198.673563 39.1438265 200.00408900000002 39.1438265 200.00408900000002 L 38.49111550000001 197.92043500000003 L 38.79236650000001 195.18407000000002 L 39.254106500000006 194.129691 Z &#10;" fill="#754123" mix-blend-mode="multiply" stroke-width="0px" opacity=".25" /><path d="M 38.664661 195.5461805 C 38.788021 198.7953 44.666769 198.02084449999998 46.068921 197.92042849999999 C 47.471072500000005 197.820013 51.4951255 197.31793399999998 55.110135 189.786646 C 56.692236 186.49057449999998 57.12036 182.4059595 57.636765 178.7828535 L 57.636743499999994 178.78283199999998 C 57.63678699999999 178.78250649999998 57.63687349999999 178.78218099999998 57.636917 178.78185499999998 C 57.897876499999995 176.95116749999997 58.1822355 175.23958499999998 58.648628499999994 173.80591499999997 C 60.70552299999999 165.83343599999998 64.06597649999999 163.32137099999997 70.17268999999999 162.47319899999997 C 77.40273099999999 161.46904149999997 89.97453699999998 174.42707699999997 95.93952649999999 188.08168449999997 C 98.23923349999998 192.63167199999998 97.43590749999998 191.64435899999995 98.74135549999998 197.06689499999996 C 100.04675999999998 202.48940949999997 103.84054699999999 206.65670549999996 107.74273749999998 207.00818249999995 C 111.64492849999998 207.35963749999993 114.70767299999997 207.05839049999994 114.85827499999998 204.94961649999993 C 114.94887899999998 207.66637649999993 114.85827499999998 208.92547999999994 114.85827499999998 208.92547999999994 L 112.69931499999998 209.75107699999992 L 106.38397749999999 209.17612849999992 L 101.10114649999998 205.9614139999999 L 96.70738299999998 196.3557354999999 L 94.92547049999997 190.9916559999999 L 84.26455899999998 177.3014494999999 L 74.08896849999998 171.2094969999999 L 65.98865799999997 169.4689359999999 L 62.37362649999997 170.2053179999999 L 60.528850999999975 173.17891299999988 L 59.495020499999974 181.31814399999988 L 59.41715799999997 181.21191099999987 C 59.07631749999997 183.44087549999986 58.59399199999997 185.96811299999987 57.81634549999997 188.77686649999987 C 54.73182849999997 199.91756399999986 46.97635249999997 202.94127999999986 42.00570899999997 201.47174999999987 C 37.035065499999966 200.00219849999988 38.66466099999997 195.54617999999988 38.66466099999997 195.54617999999988 Z &#10;" fill="#754123" mix-blend-mode="multiply" stroke-width="0px" opacity=".25" /><path d="M 108.802227 137.2128255 L 107.74324250000001 137.72040850000002 C 107.74324250000001 137.72040850000002 107.6912595 136.01334300000002 109.98806150000001 135.25192400000003 C 112.28486350000003 134.49050500000004 109.20982950000001 136.66602900000004 109.20982950000001 136.66602900000004 L 108.80222700000002 137.21282550000004 Z &#10;" stroke-width="0px" /><path d="M 47.761219 131.5459285 C 48.2315705 131.7706975 48.7085515 132.749764 48.834073 133.5028915 L 47.7512135 133.1378535 L 47.302713 131.820906 L 47.761219499999996 131.5459285 Z &#10;" stroke-width="0px" /><path d="M 115.1732045 181.7475265 C 113.085668 181.797956 110.971558 181.63565499999999 108.928343 182.066498 C 106.4593305 182.58712599999998 104.1867325 183.9933835 102.6190495 185.9706155 C 101.0513665 187.9478475 100.2003505 190.481231 100.25641850000001 193.003915 C 101.24020150000001 193.346487 102.3222695 193.1138125 103.3299465 192.8496725 C 108.6971355 191.4427825 114.060395 189.0464745 117.50961500000001 184.7003355 C 118.66701850000001 183.2419665 119.59534900000001 181.60296499999998 120.96302000000001 180.31928399999998 C 119.19838800000001 181.38005599999997 117.20899750000001 181.69834699999998 115.17320400000001 181.747527 Z &#10;" fill="#754123" mix-blend-mode="multiply" stroke-width="0px" opacity=".25" /><path d="M 45.30082 175.498737 C 41.887917 172.502801 36.8513135 172.2914285 32.900682 170.0517705 C 34.050339 172.774098 35.547025000000005 175.3496525 37.343051 177.6963675 C 38.2579435 178.89178 39.26039 180.0375555 40.4689355 180.93502800000002 C 41.683902 181.83726850000002 43.076119500000004 182.46630050000002 44.463383 183.071017 C 46.7931355 184.08657050000002 49.143950000000004 185.053805 51.5138825 185.971919 C 52.1253285 186.20879000000002 53.161811 186.6368495 53.7246295 186.2366225 C 53.3188735 185.40175250000001 52.019581 184.728902 51.38263 183.98210400000002 C 50.6203755 183.08839300000002 49.9928805 182.089141 49.380294 181.09012900000002 C 48.1763245 179.1266845 47.05534 177.0389 45.3008215 175.498737 Z &#10;" fill="#754123" mix-blend-mode="multiply" stroke-width="0px" opacity=".25" /><path d="M 106.4381405 135.6075185 C 106.804184 136.9225595 107.305503 138.28924 108.37836200000001 139.133215 C 109.79178150000001 140.24509600000002 111.77572800000002 140.149752 113.5678685 140.00053350000002 C 115.07831350000001 139.8747695 116.588758 139.7490055 118.099203 139.6232415 C 118.254339 139.61032450000002 118.4347025 139.607059 118.536388 139.724932 C 118.6365665 139.841058 118.609406 140.016314 118.5736925 140.1654635 C 118.16010150000001 141.8927445 117.154148 143.709299 115.42772500000001 144.1264575 C 114.50732250000001 144.34885599999998 113.54040800000001 144.128988 112.63685400000001 143.84580499999998 C 110.86747200000002 143.2912625 109.13986350000002 142.465488 107.83681850000002 141.1462665 C 106.22648550000002 139.5159375 105.43591050000002 137.272362 105.21506750000002 135.02606699999998 C 105.17454650000002 134.61390899999998 104.92550850000002 131.98873199999997 105.45920000000002 132.03552349999998 C 105.83923900000002 132.06884349999999 106.30963650000002 135.14585749999998 106.43814000000002 135.60751849999997 Z &#10;" fill="#754123" mix-blend-mode="multiply" stroke-width="0px" opacity=".25" /><path d="M 49.135061 134.5902795 C 48.322582 135.236452 47.4040825 135.73389 46.489962 136.22587000000001 C 46.0647145 136.45473850000002 45.637343 136.68404750000002 45.183047 136.84785050000002 C 44.206964500000005 137.19979200000003 43.149634 137.23549350000002 42.1125345 137.26749400000003 C 41.407613000000005 137.28924500000002 40.6861115 137.30877100000004 40.015350500000004 137.09090050000003 C 39.338231 136.87096500000004 38.76164850000001 136.42500750000002 38.200197 135.98724600000003 C 37.934643 136.38232800000003 38.145567500000006 136.91439050000002 38.385745500000006 137.32539350000002 C 38.64737000000001 137.7730975 38.939969500000004 138.20269650000003 39.260760000000005 138.6101025 C 39.42909650000001 138.823891 39.60773100000001 139.03395600000002 39.829305500000004 139.19190350000002 C 40.144418 139.41652900000003 40.526483500000005 139.522397 40.899826000000004 139.6242185 C 41.77553950000001 139.863051 42.692008 140.10351100000003 43.57993200000001 139.91508100000001 C 44.251571000000006 139.77254950000003 44.846712000000004 139.39578250000002 45.42048200000001 139.0186855 C 46.56426650000001 138.2669605 47.69580800000001 137.4804945 48.66528650000001 136.514345 C 49.63476550000001 135.5481955 50.44195650000001 134.38698649999998 50.82294300000001 133.0723825 C 50.89789950000001 132.8137425 50.994996500000006 132.51352450000002 51.00382450000001 132.25306700000002 C 50.571087500000004 133.18422550000003 49.93836400000001 133.95140300000003 49.13506050000001 134.590279 Z &#10;" fill="#754123" mix-blend-mode="multiply" stroke-width="0px" opacity=".25" /><path d="M 45.4492315 124.078943 C 44.8163605 123.54365949999999 44.12042 123.0887975 43.426505000000006 122.6354355 C 41.29200350000001 121.240882 39.15750150000001 119.8463285 37.023 118.451775 C 38.171669 121.11806899999999 40.56526650000001 123.0052055 42.866816500000006 124.774791 C 43.82708850000001 125.51311249999999 44.79962400000001 126.263286 45.5323885 127.22780549999999 C 46.27160550000001 128.2008185 46.738032000000004 129.357883 47.044658500000004 130.5407515 C 47.196318500000004 131.1258085 47.659573 133.3554735 48.6128105 133.1930735 C 49.387566 133.0610805 48.962115000000004 130.708164 48.866383 130.1491025 C 48.4669315 127.816362 47.2615105 125.61177599999999 45.449231499999996 124.078943 Z &#10;" fill="#754123" mix-blend-mode="multiply" stroke-width="0px" opacity=".25" /><path d="M 115.736985 124.190305 C 113.60342800000001 125.673806 111.34837 127.1239805 109.894114 129.2775775 C 108.306275 131.628996 107.85298900000001 134.57797150000002 107.896512 137.4149605 C 108.6159675 137.339069 109.1923885 136.75332400000002 109.503519 136.100198 C 109.81464949999999 135.447072 109.9195275 134.7186005 110.0979505 134.0175005 C 110.5697555 132.1635735 111.5881065 130.45228200000003 112.99251149999999 129.153324 C 114.263268 127.9779795 115.82378449999999 127.14714599999999 117.07585599999999 125.951904 C 119.00150249999999 124.1136555 120.15011899999999 121.497177 120.9451405 118.997501 C 119.70200449999999 121.208894 117.792182 122.7612905 115.73698499999999 124.1903055 Z &#10;" fill="#754123" mix-blend-mode="multiply" stroke-width="0px" opacity=".25" /><path d="M 107.278085 126.4827195 C 109.579012 124.357958 110.49785700000001 121.0990735 110.6708485 117.971942 C 110.880108 114.1891795 110.03531050000001 110.1568075 107.4304815 107.4058175 C 104.8256525 104.6548275 100.184014 103.676885 97.144778 105.93876999999999 C 95.1445405 107.427403 94.1709845 109.98969749999999 94.040113 112.47964699999999 C 93.90924150000001 114.96959599999998 94.5133905 117.43357349999998 95.13140650000001 119.84915449999998 C 96.60888800000001 125.62404449999998 98.1915335 131.37202799999997 99.87829350000001 137.0892955 C 101.18775400000001 141.527708 104.21649850000001 145.4972755 107.52186400000001 148.7359095 C 110.827229 151.97454349999998 114.5289755 154.8252665 117.503977 158.3697775 C 113.14197250000001 151.146932 108.779967 143.9240855 104.417962 136.70123949999999 C 100.0794425 129.5172825 97.228874 121.43632999999998 96.8862185 113.05095149999998 C 96.8172175 111.36237199999998 96.1940685 108.93352949999998 97.4169805 107.76710399999999 C 98.486301 106.74717499999998 100.157816 108.34793649999999 101.54798849999999 108.84905749999999 C 102.938161 109.35017849999998 104.92624899999998 110.75145349999998 105.76303399999999 111.96944049999999 C 108.9229865 116.56892849999998 108.40357149999998 121.01702149999998 107.27808499999999 126.48271999999999 Z &#10;" fill="#754123" mix-blend-mode="multiply" stroke-width="0px" opacity=".25" /><path d="M 49.961243 104.0176075 C 49.161017 104.478746 48.452358000000004 105.08697649999999 47.819059 105.759243 C 47.297978 106.312387 46.823265500000005 106.913444 46.451955000000005 107.576484 C 45.497049000000004 109.281635 45.2743795 111.3295275 45.5474145 113.264686 C 45.8204495 115.1998445 46.560516 117.040223 47.434396 118.788285 C 48.0770645 120.07384400000001 48.7953505 121.321596 49.5843055 122.522943 C 48.991938 119.6324655 48.703283 116.679842 48.724624999999996 113.729367 C 48.7364415 112.095766 48.864943999999994 110.3888485 49.7098465 108.99065949999999 C 50.554749 107.59247049999999 52.319255 106.624298 53.853905999999995 107.1843315 C 53.99396049999999 107.235441 54.136261499999996 107.2991505 54.28499599999999 107.2888815 C 54.453416499999996 107.277253 54.60012449999999 107.1725395 54.72717099999999 107.061362 C 56.30976149999999 105.6764455 56.21853349999999 103.2228645 57.42982699999999 101.5751115 C 56.26330499999999 101.76399550000001 54.93059449999999 102.39602450000001 53.72123249999999 102.696143 C 52.430272499999994 103.01651100000001 51.12333099999999 103.34794400000001 49.96124299999999 104.01760800000001 Z &#10;" fill="#754123" mix-blend-mode="multiply" stroke-width="0px" opacity=".25" /><path d="M 74.018659 84.458629 C 72.6863045 85.13867400000001 71.1789555 85.381259 69.695505 85.5736265 C 61.4843125 86.638417 52.823471 86.52490300000001 45.478252999999995 90.3465825 C 48.8157765 87.5685285 52.7729035 85.6394145 56.7858995 83.9803455 C 57.805665499999996 83.55875 58.849426 83.1484005 59.948093 83.045464 C 61.129458 82.9347785 62.310544 83.18481799999999 63.479212 83.3899805 C 65.66879949999999 83.774368 67.9119545 83.97794449999999 70.133161 83.7991775 C 71.2393715 83.7101475 72.3405755 83.5281285 73.4056495 83.21254449999999 C 74.124203 82.9996355 75.71048449999999 81.96700799999999 76.3269825 82.21527649999999 C 76.023073 83.20147599999999 74.908262 84.0045675 74.0186585 84.45862899999999 Z &#10;" fill="#754123" mix-blend-mode="multiply" stroke-width="0px" opacity=".25" /><path d="M 70.7788925 31.900438 C 69.641662 31.464954000000002 68.4177905 31.2767445 67.30000799999999 30.793524 C 65.8925015 30.1850555 64.69308 29.106429000000002 63.93917349999999 27.771164000000002 C 62.67345849999999 31.1238385 61.91791349999999 34.6685865 61.706519499999985 38.245984 C 61.693212999999986 38.4711725 61.699905999999984 38.7362775 61.88260349999999 38.868597 C 61.99140649999999 38.947398 62.134934999999984 38.955066 62.269269499999986 38.953697 C 63.13039899999998 38.9449225 63.966368999999986 38.687563 64.80231799999999 38.480637 C 67.76871249999999 37.7463515 70.84404299999998 37.6366145 73.88614299999999 37.7077975 C 74.65827049999999 37.725865 75.43015999999999 38.366053 76.20167749999999 38.4013905 C 77.06810899999999 38.441075 78.26512349999999 39.0621965 77.61086049999999 38.206593 C 76.83123549999999 37.187048999999995 75.73555199999998 35.470195499999996 74.79918299999999 34.591578999999996 C 73.76414549999998 33.6203795 72.11129799999999 32.410661 70.77889199999998 31.900437999999994 Z &#10;" opacity=".35" fill="#754123" mix-blend-mode="multiply" stroke-width="0px" /><path d="M 78.2542225 75.7727195 C 75.358209 77.76776299999999 71.918414 78.87381699999999 68.4376985 79.3755255 C 64.956983 79.877234 61.418682 79.79813899999999 57.908435999999995 79.5853885 C 56.37619899999999 79.492522 54.83865349999999 79.37340449999999 53.342088999999994 79.03183899999999 C 52.009772999999996 78.72776049999999 50.724188 78.250632 49.443104999999996 77.7748625 C 47.180049 76.934407 44.908258 76.090023 42.785633999999995 74.940129 C 39.556687999999994 73.1909055 36.719233499999994 70.7502455 34.40208199999999 67.9012655 C 35.361265499999995 71.627552 38.00964449999999 74.8837755 41.462365999999996 76.581997 C 43.0051655 77.340823 44.676587999999995 77.794881 46.28512249999999 78.402058 C 48.63250649999999 79.2881295 50.84795549999999 80.50135449999999 53.21058699999999 81.3459285 C 55.78510849999999 82.2662475 58.49508749999999 82.7352485 61.18933749999999 83.200183 C 64.112173 83.704563 67.088281 84.21043499999999 70.029598 83.828305 C 72.19942599999999 83.5464055 74.8195775 82.7718735 76.530818 81.334248 C 77.97331249999999 80.1223975 78.406206 77.565655 78.2542225 75.77272 Z &#10;" fill="#754123" mix-blend-mode="multiply" stroke-width="0px" opacity=".25" /><path d="M 172.9023985 26.7096755 C 156.2725615 15.267812 129.6813185 8.4550685 122.641468 37.367078 C 115.6016175 66.2790875 136.7848665 88.414378 130.863653 114.65196499999999 C 134.080392 98.51355349999999 123.266633 84.79254399999999 117.5039765 70.3875875 C 114.67294199999999 63.34596499999999 105.12180049999999 28.997476499999998 120.9451405 14.518986499999997 C 128.4570365 3.519015999999997 162.7208815 4.310989999999997 172.902399 26.709675499999996 Z &#10;" stroke-width="0px" opacity=".66" fill="#d8b58e" /><g opacity=".66"><path d="M 65.3075545 27.0647505 C 68.226063 25.7700225 70.89156849999999 27.3445315 73.304943 29.024105 C 74.50916 29.859372999999998 75.5610725 30.772882499999998 76.54725649999999 31.882448 C 77.5929985 33.0515185 78.43595299999998 34.314136 79.29115949999999 35.696515500000004 C 79.84698999999999 32.20917300000001 77.79492749999999 28.636646500000005 74.93460449999999 26.692975000000004 C 73.467051 25.690760500000003 71.80760299999999 24.879894000000004 69.9740875 24.760000500000004 C 68.188414 24.623791000000004 66.06558799999999 25.378282500000005 65.307554 27.064750500000002 L 65.307554 27.064750500000002 Z &#10;" stroke-width="0px" fill="#d8b58e" /></g><g opacity=".66"><path d="M 87.258615 40.971786 C 77.9737065 37.463577 66.456466 37.71098 57.12729250000001 40.971643 C 62.19905500000001 41.4690765 67.16782300000001 41.303413 72.207367 41.2996965 C 76.6885525 41.216907500000005 82.80399100000001 41.325527 87.25861450000001 40.971786 L 87.25861450000001 40.971786 Z &#10;" stroke-width="0px" fill="#d8b58e" /></g><path d="M 72.0609825 44.9451925 C 71.22722999999999 44.6168455 69.8104535 44.012363 68.9886095 43.793313999999995 C 68.57862449999999 43.672462499999995 67.93739 43.530066999999995 67.512424 43.418685999999994 C 66.934472 43.28205549999999 66.436489 43.12380199999999 65.795513 43.11140699999999 C 65.9207405 42.76076549999999 66.210325 42.508993499999995 66.503466 42.31248999999999 C 68.603368 40.98641749999999 71.9444895 42.34446149999999 72.060982 44.94519199999999 L 72.060982 44.94519199999999 Z &#10;" stroke-width="0px" /><g opacity=".66"><path d="M 97.8920025 68.793672 C 97.36556800000001 72.5425445 96.25940200000001 76.520213 96.8529865 80.3062755 C 97.1483195 82.2469895 97.6064895 84.16483149999999 98.232001 86.021072 C 98.928373 87.974248 100.1430865 89.772788 101.613593 91.205785 C 103.024029 92.6225455 104.681308 93.65239150000001 106.301242 94.766025 C 108.584663 96.34474349999999 110.7840765 98.0836355 112.9174615 99.87262 C 114.9653095 101.6432615 117.42863 103.3710245 119.458322 105.1894015 C 118.6038195 101.2675375 115.4513545 98.4451595 112.513222 95.9621765 C 110.345685 94.098821 107.96786349999999 92.427969 105.5770575 90.8581665 C 103.4270155 89.3854695 101.5558495 87.5095965 100.5110775 85.110756 C 99.8178885 83.429082 99.2052265 81.6734305 98.72449399999999 79.9256255 C 97.69262699999999 76.279169 98.2877005 72.52917749999999 97.89200299999999 68.79367149999999 L 97.89200299999999 68.79367149999999 Z &#10;" stroke-width="0px" fill="#d8b58e" /></g><g opacity=".66"><path d="M 48.908316 89.006364 C 47.2815205 90.0330965 45.8539935 91.158117 44.4338465 92.30145850000001 C 40.2025045 95.75917600000001 35.615928000000004 100.18470500000001 35.3179405 106.02122100000001 C 37.603153 103.04399450000001 39.80059 100.5826315 42.403798 97.96655700000001 C 44.932974 95.3307185 47.494424 92.489213 48.9083155 89.006364 L 48.9083155 89.006364 Z &#10;" stroke-width="0px" fill="#d8b58e" /></g><g opacity=".66"><path d="M 114.6131965 155.94506 C 116.12708 161.880692 118.092579 168.21563350000002 119.555703 174.13416500000002 C 120.0725475 176.160096 120.54784 178.16007550000003 120.9592275 180.3192955 C 121.14799 179.80710150000002 121.3331055 179.27250600000002 121.432436 178.7328745 C 122.859917 171.35346950000002 119.81299399999999 161.363558 114.6131965 155.9450595 L 114.6131965 155.9450595 Z &#10;" stroke-width="0px" fill="#d8b58e" /></g><g opacity=".66"><path d="M 49.108192 138.8309725 C 43.7226245 145.30314 30.848916000000003 158.661097 33.0314825 167.438412 C 33.2886995 166.0411605 33.726222 164.777303 34.320728 163.5722275 C 36.121370000000006 159.920162 38.604597000000005 156.7498625 40.9462305 153.3858975 C 44.108962999999996 148.8510315 47.387572 144.181903 49.108192 138.830973 L 49.108192 138.830973 Z &#10;" stroke-width="0px" fill="#d8b58e" /></g><path d="M 100.143795 193.1767365 C 104.0891635 195.4494875 109.8464085 198.4619995 109.8464085 198.4619995 L 103.85147099999999 192.631657 L 100.14379499999998 193.176737 Z &#10;" fill="#754123" mix-blend-mode="multiply" stroke-width="0px" opacity=".25" /><path d="M 118.9508885 201.8427065 C 119.01783300000001 204.05188199999998 117.04296450000001 205.223414 115.23545750000001 203.784103 C 114.89854400000002 204.4171045 115.5367085 206.361474 115.5367085 206.361474 L 114.87805850000001 208.5052025 L 119.25213950000001 205.9612885 L 118.95088850000002 201.8427065 Z &#10;" fill="#754123" mix-blend-mode="multiply" stroke-width="0px" opacity=".25" /><path d="M 34.2222425 194.092227 C 33.975099 195.67053 34.3844815 197.3741115 35.3173915 198.64901450000002 C 36.668366999999996 200.4955385 38.993294999999996 201.7407545 42.0410245 202.25018150000002 C 42.9762355 202.4063345 43.8882905 202.48559850000004 44.751882 202.48559850000004 C 45.6846435 202.48559850000004 46.578664 202.39312400000003 47.4090805 202.21069800000004 C 50.872352 201.45026850000005 54.0911515 198.92866500000002 56.2401105 195.29246750000004 C 58.1458595 192.06832400000005 59.058954 188.40763500000006 59.7590445 184.92803600000005 C 60.2175585 183.49163650000006 60.4250695 181.59457050000006 60.6457915 179.54521100000005 C 61.060814 175.69422900000006 61.531054000000005 171.33040650000004 63.6804585 170.83151850000004 C 67.262997 170.00073100000003 75.6545125 171.41635000000005 84.0894455 178.71961900000005 C 85.5764615 180.00728750000005 88.8766775 184.20189500000006 93.8983615 191.18721750000006 L 94.66532199999999 192.19018850000006 C 95.3816665 195.69576350000006 96.61062899999999 200.42154350000007 98.47296099999998 203.57198950000006 C 100.62191999999999 207.20774150000005 103.84071999999999 209.72934500000005 107.30391699999998 210.48992300000006 C 108.13455599999999 210.67249750000005 109.02902149999998 210.76512050000005 109.96267399999998 210.76512050000005 C 110.82478099999997 210.76512050000005 111.73616799999998 210.68585650000006 112.67189849999998 210.52970350000004 C 115.71940499999998 210.02027650000005 118.04433299999998 208.77491200000003 119.39567949999999 206.92824000000005 C 120.32844099999998 205.65289150000004 120.73782349999999 203.94931000000005 120.49067999999998 202.37100700000005 C 120.28302049999998 201.04548800000003 119.62263549999999 199.91857400000004 118.63094549999998 199.19777650000006 C 117.29177049999998 198.22493750000007 115.72682649999999 198.12415050000007 114.21338949999998 198.02677750000007 C 113.79079699999998 197.99961400000007 113.40130499999998 197.97467700000007 113.02235199999998 197.93163100000007 C 109.97766549999999 197.58733750000007 107.09937449999998 195.79157800000007 105.38718349999998 193.24540850000005 C 105.76094149999997 193.17965200000006 106.09373099999998 193.10595450000005 106.35720249999997 193.02498350000005 C 108.31638799999998 192.42337900000004 110.20254399999997 191.59956800000003 111.96624149999997 190.57551900000004 C 115.10859749999997 192.02616850000004 125.64387699999996 196.38167900000005 138.71144749999996 196.38167900000005 C 144.41830449999998 196.38167900000005 149.91824449999996 195.53931400000005 155.05852749999997 193.87818450000006 C 167.20342949999997 190.00775750000005 177.05383299999997 183.43211400000007 184.33453999999998 174.33442150000008 C 190.93898 166.0813205000001 195.27504549999998 155.98941450000007 197.2223565 144.33879900000008 C 199.86404349999998 128.53261400000008 197.850976 110.60559850000007 191.55364699999998 93.85967550000008 C 185.2923875 77.20993800000008 175.3788995 63.226082000000076 163.63951999999998 54.48433500000008 C 161.21766449999998 52.43742450000008 160.07234449999999 50.21447100000008 160.59067749999997 48.549631000000076 C 160.87715599999996 47.62948600000008 161.69116999999997 47.03886550000008 162.82402149999996 46.92932100000007 C 166.83768749999996 46.531665500000074 170.98880399999996 51.44454700000007 173.32219249999997 55.76799550000007 L 174.18993999999998 57.37598550000007 L 175.09717099999997 55.78996400000007 C 182.34878499999996 43.11069800000007 179.24264699999998 23.50088150000007 161.49286199999997 12.63207000000007 C 150.73240749999997 6.04336400000007 136.67403749999997 4.62982350000007 126.51043749999997 9.114026500000069 C 118.80001299999996 12.516143000000069 113.85759299999997 18.814066000000068 112.21768949999996 27.327075000000068 C 107.56070899999996 51.61242650000007 116.47879549999996 70.86347650000006 122.99046399999996 84.91991700000007 C 125.23301099999996 89.76036250000007 127.16814999999995 93.93790000000007 128.31035249999996 97.67147050000007 C 131.19962799999996 107.11457000000007 130.79989399999997 116.36930600000007 127.21342249999996 123.06280650000006 C 124.30559249999996 128.49016150000006 119.44050699999997 132.25920800000006 112.75383449999997 134.26574400000007 C 112.09790299999997 134.35435950000007 111.40100349999997 134.50561400000007 110.67575299999997 134.71653950000007 C 110.78514899999998 134.28311100000008 110.94679399999997 133.84330000000006 111.15860999999997 133.40363750000006 C 112.20848649999996 131.22432350000005 114.24411599999996 129.45513400000007 116.03987499999997 127.89419800000006 C 118.71822499999996 125.94198900000006 120.75266699999997 123.10986050000005 121.90629899999996 119.71650200000006 C 122.82243599999997 118.81194300000006 125.57322249999996 115.84666900000006 126.17735049999996 112.34287500000006 L 126.38204149999996 111.15495450000006 L 124.01362249999995 111.15495450000006 C 124.01362249999995 111.15495450000006 124.32385049999995 109.26211900000006 124.32385049999995 109.26211900000006 L 122.75044599999995 107.75996300000006 C 122.73604799999995 107.09764850000006 122.84024899999996 106.25231500000005 123.18580399999995 105.88390050000005 L 123.70027749999994 105.33513850000006 L 123.32533199999995 104.68306600000005 C 122.71467299999995 103.62190850000006 121.44496499999994 103.37209350000005 120.41898649999995 103.36392950000005 C 118.28034349999994 99.33096700000006 114.82508799999995 95.64682550000005 110.14599049999995 92.41125250000006 C 109.70380449999995 92.10547750000006 109.23326749999995 91.80890550000007 108.70780949999995 91.50446700000006 C 100.09824349999995 86.46749400000006 97.03737799999996 76.59749750000006 100.72070299999996 65.74649800000006 L 100.81466199999996 65.46996450000006 L 100.81028299999996 65.46833150000006 C 101.60344199999996 63.091006000000064 102.76768749999995 60.356251000000064 103.89504649999995 57.70818150000006 C 108.13307099999994 47.75328050000006 112.93670499999995 36.47018850000006 106.61458749999996 29.96534800000006 C 102.66801399999996 25.90418300000006 99.18841449999995 26.04326600000006 96.96449649999995 26.87494400000006 C 93.54479049999995 28.15444850000006 91.24368649999995 31.624251000000058 89.91549549999995 34.30972600000006 C 89.07914199999995 36.00076500000006 88.39137099999995 37.86784700000006 87.88661999999995 39.78042400000006 C 84.45808249999995 38.18341850000006 82.06554249999995 37.69299100000006 81.35565499999996 37.57394650000006 C 79.11058499999996 27.162312500000063 74.98848749999996 24.71759850000006 70.86483149999995 23.632691500000064 C 68.74444599999995 23.074875000000063 66.74199199999995 23.459023500000065 65.07447999999995 24.744168000000062 C 63.06067049999995 26.296643500000062 60.64230299999995 29.899146000000062 60.49513049999995 38.24739350000006 C 59.90992799999995 38.38321100000006 59.40888749999995 38.50789600000006 58.93404599999995 38.63554950000006 C 50.257610499999956 40.96819600000006 38.86245049999995 46.80760500000006 33.84870749999995 61.37955800000006 C 32.94622649999995 63.52057550000006 32.291556499999956 66.87563850000006 34.338986499999955 70.59169350000006 C 37.303666499999956 75.97303400000007 44.834930999999955 80.20771900000005 56.730685999999956 83.18486750000007 C 45.68642499999996 87.51974550000007 37.040937499999956 95.36227700000006 34.48178049999996 103.40712400000007 L 34.460034999999955 103.40326450000006 L 34.34002599999995 103.86014550000006 L 34.241242999999955 104.20006050000006 C 34.185282999999956 104.37254150000007 34.110323999999956 104.59222400000006 34.010649999999956 104.86593700000006 C 33.75957299999995 105.55541500000005 33.00500699999996 106.12317650000006 32.997436999999955 106.12881700000005 L 32.383289499999954 106.57530750000005 L 33.15900749999995 108.73265300000006 C 32.82013199999995 109.06262250000006 32.31233749999995 109.54444050000005 31.64549599999995 110.14218600000005 L 31.30795599999995 110.44499200000006 L 31.30795599999995 110.89831050000005 C 31.30795599999995 111.23956100000005 31.30780749999995 111.86521200000006 33.73456149999995 113.81920250000005 C 33.20019749999995 114.48151700000004 32.65700199999995 115.34481100000005 32.116848999999945 116.39038300000004 L 31.351892499999945 117.87161000000005 L 33.01888499999995 117.87161000000005 C 34.971242499999946 117.87161000000005 36.57952949999995 119.70507150000005 37.02594549999995 120.26704450000004 C 38.02134649999995 121.66128900000004 39.20444299999995 122.86598250000004 40.53307899999995 123.83511050000004 C 42.30857699999995 125.37942200000005 44.34398349999995 127.14801800000004 45.39445399999995 129.32896450000004 C 45.60626999999995 129.76847850000004 45.76791499999995 130.20799300000004 45.87738549999995 130.64157000000003 C 40.908395499999955 129.19374100000002 38.71527749999996 130.95536050000004 37.840998999999954 132.16406150000003 C 36.405563999999956 134.15041050000002 36.640906999999956 137.37396050000004 38.376846999999955 139.50295500000004 C 39.92219749999995 141.39890750000004 42.19324349999996 141.92911500000005 44.45167299999996 140.92020650000003 C 45.184864499999954 140.63729050000003 45.895123499999954 140.27867300000003 46.571019499999956 139.85029150000003 C 44.94974499999996 142.60285900000002 42.852663499999956 145.48293150000003 40.816069499999955 148.27988100000002 L 40.81413999999995 148.28270150000003 L 41.05987299999995 148.46156500000004 L 40.812877999999955 148.28433450000003 C 36.138456499999954 154.70471600000002 31.304912999999956 161.34374100000002 31.304912999999956 167.43845700000003 C 31.304912999999956 171.18464450000002 35.832087999999956 177.91169100000002 39.87989399999996 181.42364900000004 C 41.89993749999996 183.17628800000003 45.10114799999996 184.90992750000004 48.45146099999996 186.09398900000005 C 46.70854449999996 188.05718250000004 44.26620499999996 189.36103000000006 41.69094249999996 189.65225850000004 C 41.31711049999996 189.69456250000005 40.933407499999966 189.71935100000005 40.52729099999996 189.74562350000005 C 38.98609649999996 189.84507450000004 37.421078499999965 189.94601000000006 36.08220049999996 190.91870050000006 C 35.09036199999996 191.63920100000007 34.42982899999996 192.76626350000006 34.22224349999996 194.09222800000006 Z M 79.6265425 39.249771 L 77.9642255 38.462178 C 77.805104 38.386773500000004 74.0051835 36.618919500000004 68.877443 36.9868885 C 66.7466675 37.139627499999996 64.61604 37.4177935 62.5386265 37.814262 C 62.7078415 32.1649975 64.0437515 28.102793499999997 66.314278 26.352306499999997 C 67.1174565 25.733334999999997 68.0396795 25.419099499999998 69.0293655 25.419099499999998 C 69.457673 25.419099499999998 69.898523 25.477879499999997 70.3480565 25.59633 C 72.756924 26.230144999999997 77.240385 27.409604499999997 79.502822 38.6358465 L 79.626542 39.249771 Z M 114.01003399999999 189.261875 C 117.23625549999998 186.979696 119.316712 184.463585 120.457579 183.08359000000002 C 120.7488075 182.731355 121.000255 182.42706450000003 121.1828295 182.231725 C 122.33943049999999 180.9963055 123.90749149999999 177.55990100000002 121.41201199999999 168.4259905 C 119.61625249999999 161.85227650000002 116.198551 154.452525 112.034669 148.12254000000001 C 111.087509 146.5538855 110.172708 144.9923555 109.304812 143.463481 C 110.17894199999999 144.1013035 111.119571 144.6162225 112.11541749999999 145.0009645 C 114.35855799999999 146.0039355 116.6297525 145.474322 118.1761425 143.57807250000002 C 119.91223099999999 141.44907800000001 120.147648 138.22538000000003 118.712139 136.2390305 C 118.40294999999999 135.8115395 117.88432049999999 135.259957 117.071197 134.834841 C 122.4026635 132.487054 126.4152905 128.851896 129.0032445 124.021544 C 132.8432425 116.854983 133.29849049999999 107.0342665 130.2521715 97.077584 C 129.0691495 93.210868 127.1071435 88.9752925 124.8352065 84.07102 C 118.437387 70.2608325 109.6779765 51.352962500000004 114.211757 27.710183500000007 C 115.72014750000001 19.88116000000001 120.2563025 14.093109000000007 127.33009200000001 10.971979000000008 C 136.91168050000002 6.744419000000008 150.2145195 8.107492000000008 160.4324465 14.363853500000008 C 166.9156155 18.333583000000008 172.167373 24.55209350000001 174.84127 31.42475450000001 C 176.872298 36.64474700000001 178.3763835 44.61834550000001 174.17925250000002 53.188057000000015 C 171.60643900000002 49.01823800000001 167.52464150000003 44.87766050000002 163.25789500000002 44.87766050000002 C 163.04815700000003 44.87766050000002 162.838568 44.88760550000002 162.62808800000002 44.90808950000002 C 160.67157400000002 45.09749200000002 159.18515200000002 46.23316350000002 158.65182750000002 47.945948000000016 C 157.88115600000003 50.421537000000015 159.26812700000002 53.45568450000002 162.36179700000002 56.062192500000016 L 162.40246800000003 56.09469950000002 C 173.84883800000003 64.61231050000002 183.52408850000003 78.27599350000003 189.653093 94.57453500000003 C 195.8264795 110.99078550000003 197.80347700000002 128.54537900000003 195.2196795 144.00407900000002 C 193.33025800000001 155.3085455 189.1346115 165.08636450000003 182.74911250000002 173.065604 C 175.72297050000003 181.84535 166.19763850000004 188.1971545 154.43777500000002 191.944678 C 136.64464700000002 197.695917 119.56652800000002 191.6291065 114.01003500000002 189.2618745 Z M 88.133466 131.993659 C 90.987117 122.5553095 93.4515735 114.404183 92.5781855 109.10997350000001 C 91.612694 103.26002550000001 88.865767 99.00173950000001 84.4138485 96.45341800000001 C 80.5754835 94.25644050000001 76.21284800000001 93.79243450000001 73.22894600000001 93.79005950000001 L 73.19606800000001 93.79005950000001 C 69.12584850000002 93.79005950000001 63.17006700000001 94.37340650000002 58.46083700000001 99.41780100000001 C 56.819969000000015 101.17556100000002 55.418154500000014 103.42196700000001 54.29109200000001 106.09913000000002 C 53.25880500000002 105.54472750000002 52.07793500000001 105.60321050000002 50.99918800000001 106.27547000000001 C 48.22873400000001 108.00280100000002 45.72115800000001 114.40819050000002 48.43424150000001 121.47129250000002 L 48.46125650000001 121.53452550000002 C 48.91079000000001 122.47663850000002 49.51321100000001 123.88127350000002 49.97276400000001 125.48317750000001 L 48.41553900000001 123.76890850000001 L 49.16112500000001 127.39842650000001 C 49.34132450000001 128.27611900000002 49.52478950000001 129.04011100000002 49.68658300000001 129.7143 C 49.910125000000015 130.6452805 50.10398050000001 131.452615 50.23645800000001 132.31620650000002 C 50.117339500000014 132.66636300000002 49.97209650000001 132.99544250000002 49.804217000000016 133.29542800000002 C 48.24328100000002 136.1464075 46.18664800000001 138.07783600000002 43.689981500000016 139.03850300000002 L 43.64671300000001 139.05616650000002 C 41.821860500000014 139.877157 40.63045200000001 139.05438550000002 39.95077100000001 138.22003550000002 C 38.78704550000001 136.79283900000001 38.57894050000001 134.60996250000002 39.48676500000001 133.3539105 C 40.600023000000014 131.81360700000002 43.162075000000016 131.7099995 46.70037950000001 133.061643 L 48.04541800000001 133.5756715 L 48.07762850000001 132.1361545 C 48.10553400000001 130.922852 47.81823950000001 129.681792 47.22375950000001 128.44741150000002 C 45.992199500000005 125.89062900000002 43.776742000000006 123.96528650000002 41.82200900000001 122.26660350000002 L 41.76263500000001 122.21895600000002 C 40.64277150000001 121.40538700000002 39.63839050000001 120.39291600000001 38.76715450000001 119.20173000000003 C 38.58858800000001 118.95191500000003 37.01162100000001 116.82485000000003 34.61863600000001 116.08831850000003 C 35.35286650000001 114.91286650000004 35.82763400000001 114.54756950000002 35.832755000000006 114.54371000000003 L 36.94460300000001 113.74602350000004 L 35.86585600000001 112.90514250000004 C 35.02979950000001 112.27325750000004 34.16331350000001 111.54014000000004 33.66576150000001 111.04941550000004 C 34.58442200000001 110.20066750000004 35.05985750000001 109.70489700000003 35.06490400000001 109.69955300000004 L 35.50152400000001 109.24653100000003 L 34.78577350000001 107.25543200000003 C 35.183726000000014 106.85911200000002 35.65790000000001 106.27665550000003 35.91862500000001 105.56090500000003 C 36.17044400000001 104.86934900000003 36.29104700000001 104.45714700000003 36.347897500000016 104.23330800000004 C 38.833060500000016 95.97901950000004 48.455913500000015 87.87687650000004 60.30365050000002 84.06582350000004 C 65.85138600000002 85.45516950000004 70.34226850000002 85.59365850000003 73.55201400000001 84.50637700000003 C 77.24535850000001 83.25552050000003 77.42637450000001 80.45990700000003 77.43231150000001 80.34145650000004 L 77.47914250000001 79.40097600000003 L 76.89126800000001 80.13646850000003 C 76.87842850000001 80.15235100000004 75.52938250000001 81.79136350000003 72.47846200000001 82.68835250000004 C 70.0197945 83.41107950000004 66.726629 83.35779150000003 62.69017850000001 82.52937950000003 C 61.45490750000001 82.20742550000003 60.76565250000001 82.03138200000004 60.59844100000001 81.99516400000003 C 44.01965500000001 78.39414550000004 38.134825000000006 73.27345600000004 36.11752750000001 69.61202450000003 C 35.08435000000001 67.73670450000003 34.78080150000001 65.76920650000004 35.21519500000001 63.764303000000034 C 35.36756300000001 63.24567300000003 35.53930150000001 62.703739000000034 35.73471550000001 62.12840750000004 L 35.915805500000005 61.713236500000036 L 35.882408000000005 61.698096000000035 C 39.6997695 50.87618950000004 47.63143550000001 43.777018000000034 59.46106300000001 40.596514000000035 C 62.44808250000001 39.79318700000003 65.6471405 39.26490900000003 68.9694735 39.02637500000004 C 75.233405 38.59175900000004 77.75471150000001 39.031422000000035 77.77950000000001 39.036023000000036 L 80.04408950000001 39.447483000000034 L 79.730151 39.29875150000004 L 79.81394200000001 39.321016500000034 C 79.85550350000001 39.33192650000004 83.88460700000002 40.388334000000036 87.7044175 40.505820000000035 C 87.3029765 42.19010500000004 88.03876600000001 45.901558500000036 88.03876600000001 45.901558500000036 C 88.03876600000001 45.901558500000036 89.32539550000001 42.30796200000004 89.69388350000001 40.768771500000035 C 91.18208650000001 34.551819500000036 94.62034700000001 29.919924000000037 97.67601750000001 28.776831000000037 C 100.08577550000001 27.875240500000036 102.60337150000001 28.75130050000004 105.15874400000001 31.380518500000036 C 110.53949100000001 36.917121500000036 106.01699150000002 47.54027400000004 102.02670400000001 56.912867000000034 C 100.64967800000001 60.14695550000003 99.3490215 63.201884000000035 98.55571400000001 65.84861750000003 C 94.91231750000001 77.44787500000004 98.48238750000002 87.99562300000002 107.873906 93.37176850000003 L 107.9055225 93.38987750000003 C 108.372052 93.69209000000002 108.87079150000001 94.01196600000003 109.405452 94.35084200000003 C 113.891733 97.29459300000003 117.2565925 101.05102200000003 119.134139 105.21312250000003 L 119.192622 105.51355350000003 L 119.26298 105.50316300000003 L 119.6089805 106.29387300000003 L 119.730845 105.43280500000003 C 120.172586 105.37699350000003 120.7030905 105.37580600000003 121.0940665 105.46264050000003 C 120.5938425 106.66599800000003 120.72060549999999 108.05282050000004 120.75415149999999 108.33900200000004 L 120.7971975 108.70266650000003 L 122.14676299999999 109.99078000000003 L 121.6230865 113.18553350000003 L 123.86593 113.18553350000003 C 122.9937295 115.70060600000004 120.94578 117.81609300000004 120.36050350000001 118.38548700000004 L 120.228397 118.30993400000004 L 120.112618 118.66914500000004 C 119.1181075 121.85083650000004 117.281232 124.48465600000004 114.8007445 126.28620450000004 L 114.7422615 126.33207050000004 C 112.776693 128.03951150000003 110.5614585 129.96455700000004 109.329453 132.52208150000004 C 108.73527 133.75572000000005 108.447901 134.99692800000005 108.4753615 136.21112150000005 L 108.50801700000001 137.65078650000004 L 109.8528325 137.13661000000005 C 113.39121150000001 135.78481800000006 115.95318950000001 135.88827650000005 117.066299 137.42887750000006 C 117.974272 138.68492950000007 117.766167 140.86780550000006 116.6024415 142.29500250000007 C 115.9227605 143.12890700000005 114.7315745 143.95138200000008 112.915331 143.13514100000006 L 112.8713945 143.11658650000007 C 110.366267 142.15265350000007 108.310896 140.22330350000007 106.75381949999999 137.37885500000007 C 104.668613 133.65433900000008 106.99161149999999 127.91452950000007 108.08705699999999 125.61958550000007 C 111.47017349999999 119.14784600000007 108.76703499999999 112.78208850000007 104.82164849999998 109.61034250000007 C 103.32053149999999 108.40342250000008 100.07256449999998 106.96776500000007 98.20362699999998 106.31406000000007 C 98.17646349999998 105.27368350000008 98.42583349999998 104.07878650000006 98.42850499999999 104.06602100000006 L 98.58065049999999 103.34611400000006 L 97.96479599999999 103.74866800000005 C 97.8884265 103.79854200000005 96.09192499999999 105.01926650000006 95.89658549999999 109.17038250000004 C 95.81412999999999 110.92235350000004 95.75453399999999 113.62237550000005 96.18751699999999 116.82900350000004 L 96.22818799999999 117.13032550000004 L 96.255574 117.12661450000004 C 96.4286485 118.21849800000004 96.6723035 119.37450500000004 96.9811215 120.56776900000004 C 98.9203425 128.06251850000004 103.530789 137.96353800000003 110.31387 149.20031850000004 C 114.48190799999999 155.53594400000003 117.7406365 162.56653900000003 119.4963185 169.00666200000003 C 121.0661605 174.76576800000004 121.14453400000001 179.30162650000003 119.700564 180.84371100000004 C 119.472569 181.08773700000003 119.2039025 181.41310550000003 118.8926355 181.78983200000005 C 117.15728899999999 183.88869450000004 113.0931555 188.80424800000006 105.7886985 191.06668500000004 C 105.2950055 191.21957250000003 104.6122075 191.41446700000003 103.88628899999999 191.62131000000002 C 103.71766749999999 191.61529850000002 103.54941699999999 191.64706350000003 103.3946745 191.72514 C 103.356972 191.74413950000002 103.32364849999999 191.768854 103.2890635 191.79193550000002 C 99.7848985 192.79661350000003 99.792988 192.87305750000002 99.842862 193.22002300000003 C 99.856889 193.31754450000003 99.9129975 193.401855 100.000722 193.45751800000002 C 100.26063049999999 193.6224285 101.681964 193.62539750000002 103.175437 193.51036050000002 C 105.1140645 196.992557 108.83457250000001 199.50169200000002 112.7942085 199.94929600000003 C 113.230457 199.99872450000004 113.682737 200.02766950000003 114.0817285 200.05320000000003 C 115.363608 200.13558100000003 116.5740905 200.21350900000004 117.4372365 200.84064450000002 C 118.1445265 201.35452450000003 118.3971615 202.12742250000002 118.4845895 202.68538700000002 C 118.6475705 203.7263575 118.3688105 204.89290350000002 117.756667 205.72947950000002 C 116.453116 207.51084050000003 114.09004049999999 208.23401300000003 112.33732699999999 208.52687400000002 C 110.63894049999999 208.81053200000002 109.09225449999998 208.803704 107.73971999999999 208.50683550000002 C 104.8247655 207.86634100000003 102.0842955 205.69118350000002 100.220924 202.53888200000003 C 98.50272149999999 199.63201700000002 97.3421875 195.14603300000002 96.6573855 191.79631400000002 L 96.7424385 191.7674435 L 96.583094 191.467903 C 96.533517 191.286516 96.4397065 191.12746850000002 96.311162 191.004194 C 96.0612725 190.604015 95.639348 189.98341050000002 95.06490699999999 189.33371350000002 C 90.170728 182.54343350000002 87.00929799999999 178.56168100000002 85.41889799999998 177.18480350000002 C 84.77706749999999 176.62906500000003 84.09412099999999 176.074069 83.38794449999999 175.53421300000002 C 78.78061499999998 162.93243 83.96542849999999 145.78068700000003 88.13346649999998 131.99365500000002 Z M 98.173123 116.323885 L 98.1636975 116.26777700000001 C 97.7519405 113.0255245 97.835509 110.251731 97.9997515 108.38531700000001 C 99.6331235 109.01972550000002 102.5339025 110.31986250000001 103.556393 111.19800050000002 C 106.915612 114.08237750000002 109.057817 119.37970450000002 106.2711095 124.71191300000002 L 106.266211 124.72170950000002 C 105.226131 126.89939050000002 104.045113 129.99914600000002 103.8925225 133.08019850000002 C 100.7911345 126.47427400000002 98.818812 120.70091850000003 98.1731225 116.32388500000002 Z M 49.667286000000004 113.6781905 C 49.65103250000001 114.7951595 49.8123805 115.6652815 49.972467 116.5027485 L 49.303250500000004 115.899808 C 49.245287000000005 114.49576699999999 49.4015885 113.20097399999999 49.690664500000004 112.075396 L 49.667286000000004 113.6781905 Z M 49.7173085 111.973273 C 50.244696000000005 109.9930095 51.1825045 108.55408650000001 52.073482 107.99864500000001 C 52.562053999999996 107.693909 52.980416 107.66659750000001 53.388684999999995 107.91374050000002 L 52.15014849999999 112.82098150000002 C 52.13107449999999 112.89653450000002 52.09084899999999 113.05610150000001 52.056338 113.13818600000002 C 51.940484999999995 113.13818600000002 51.631592999999995 113.06589850000002 51.185696 112.81118500000002 L 49.7173085 111.97327300000002 Z M 58.90562 161.7590595 C 57.540172 158.778942 55.64229 153.833108 54.3546215 147.1942315 C 54.3091265 146.931354 54.2610335 146.669219 54.2104175 146.4179195 L 54.171898999999996 146.2101115 C 54.146961999999995 146.0768175 54.122024999999994 145.943375 54.0982755 145.8072605 L 54.0248745 145.38748800000002 L 53.9859845 145.40886250000003 C 53.5281385 143.52077700000004 52.961713 142.12311850000003 52.3643385 140.64901700000001 C 51.9174025 139.5461495 51.4565135 138.4089935 51.034737500000006 137.015937 C 51.295982 136.9976795 51.58631950000001 136.917822 51.85669300000001 136.69591250000002 C 52.230005500000004 136.389989 52.42289600000001 135.929694 52.446200000000005 135.28890300000003 C 52.481379000000004 133.42070750000002 52.299992 132.10825100000002 52.0086895 130.74354500000004 L 53.660838500000004 132.56201500000003 L 51.718426 123.86212650000003 C 51.4496855 122.65862050000003 51.173449 121.42127150000003 51.031397500000004 120.19015650000003 L 52.261696 121.29881300000002 L 52.2942775 119.06146150000002 C 52.310828 117.91911050000002 52.1416125 117.03473850000002 51.978038 116.17945950000002 C 51.911168499999995 115.83019350000002 51.847119 115.49547400000002 51.7970225 115.15095750000002 C 52.704624499999994 115.24447100000002 53.252273499999994 114.84280750000002 53.513889 114.56894600000003 C 53.90724 114.15674350000002 54.034597 113.65236350000002 54.1189075 113.31868300000002 L 54.7893855 110.66155900000003 L 54.80601 110.70727700000002 L 55.073266000000004 109.84442800000002 C 56.248866500000005 106.04881200000003 57.88802750000001 103.00709450000002 59.945105500000004 100.80373450000002 C 64.114479 96.33719500000002 69.5048745 95.82064350000002 73.1967345 95.82064350000002 L 73.22731200000001 95.82064350000002 C 80.116375 95.82598700000001 88.7183705 98.19336750000002 90.574543 109.44053850000002 C 91.371042 114.26732800000002 88.9704865 122.20827150000002 86.19083 131.40304 C 82.2295615 144.50593800000001 77.32016800000001 160.7459965 80.67241050000001 173.62461000000002 C 73.25121050000001 168.84903000000003 66.6690355 168.05297650000003 63.221350000000015 168.8536315 C 63.15551950000002 168.86892 63.08902050000002 168.886584 63.01925650000002 168.907365 C 62.27812350000002 167.918495 60.63532600000002 165.534045 58.90562000000002 161.7590615 Z M 58.627083 179.3277545 C 58.512566 180.389951 58.382833999999995 181.59390249999998 58.201966999999996 182.650607 C 58.1376205 183.026146 58.06600099999999 183.3095075 57.983026499999994 183.6375475 C 57.92476599999999 183.8679175 57.86138449999999 184.119514 57.79184299999999 184.43464 C 57.787983499999996 184.44985450000001 57.781229999999994 184.4635105 57.77811299999999 184.47902200000001 C 57.11193949999999 187.7984605 56.25272699999999 191.280583 54.49214649999999 194.2593645 C 52.62907199999999 197.411814 49.888527999999994 199.5872685 46.97327649999999 200.227763 C 45.62051949999999 200.5241865 44.07353649999999 200.530866 42.37559549999999 200.24735650000002 C 40.622585499999985 199.95419850000002 38.259286999999986 199.23087800000002 36.95632999999999 197.45025900000002 C 36.344186499999985 196.613831 36.065278499999984 195.447582 36.228481999999985 194.40661150000003 C 36.31568699999998 193.84849800000003 36.56824849999999 193.075452 37.27583499999999 192.561572 C 38.138683999999984 191.934585 39.34857299999999 191.85650850000002 40.62956149999999 191.77397900000003 C 41.05348999999999 191.74666700000003 41.488773999999985 191.71846450000004 41.91886249999999 191.66992650000003 C 45.30064349999999 191.28770800000004 48.49049849999999 189.44845750000002 50.57904449999999 186.70672550000003 C 51.974772999999985 186.93850600000005 53.91228749999999 186.97554000000002 54.30630649999999 186.72290500000003 C 54.43485049999999 186.64052400000003 54.46735799999999 186.52771400000003 54.47529899999999 186.46789450000003 C 54.49734149999999 186.30239000000003 54.555750499999995 185.86272750000003 50.399809999999995 184.59391050000002 C 46.869446499999995 183.51657350000002 43.26241649999999 181.67005000000003 41.2104595 179.88972750000002 C 36.8482695 176.10509550000003 33.3354955 169.9836615 33.3354955 167.43845650000003 C 33.3354955 162.00412500000002 37.9720665 155.63614100000004 42.4559725 149.47789450000002 C 44.9950915 145.99013150000002 47.616071500000004 142.3898555 49.378359 138.97022350000003 C 49.410866000000006 138.90713900000003 49.443076500000004 138.84449950000004 49.475064 138.78230550000004 C 49.815795 139.76687100000004 50.166249 140.63164950000004 50.482414000000006 141.41167250000004 C 51.108658500000004 142.95717150000004 51.70017000000001 144.41687550000003 52.145844000000004 146.46987150000004 C 54.539423000000006 159.98987000000005 59.5476735 167.65531900000005 61.277157 169.97787200000005 C 59.4249925 171.91969100000006 59.001732000000004 175.84815550000005 58.627083500000005 179.32775450000005 Z &#10;" stroke-width="0px" fill="#0c0c0c" /><path d="M 64.7421655 45.8405255 L 64.742361 45.8402215 L 64.7423825 45.8402215 C 65.16058600000001 45.2058615 65.9245575 44.840622499999995 66.72278200000001 44.9717535 C 67.80540950000001 45.149619 68.53888250000001 46.171424 68.361039 47.254073 C 68.29741650000001 47.641409499999995 68.1244345 47.982771 67.88060200000001 48.254974499999996 L 67.88127500000002 48.255495499999995 C 65.10788200000002 52.710103 66.49175650000002 58.6332635 66.49175650000002 58.6332635 L 62.57118000000002 57.9892225 C 61.54614100000002 51.323319999999995 64.31580000000002 46.532929499999995 64.69807900000002 45.9109425 C 64.71238400000001 45.88713 64.72694900000002 45.863643499999995 64.74216550000003 45.8405255 Z &#10;" stroke-width="0px" /><path d="M 41.8945195 41.937814 C 41.908911 41.913849500000005 41.923585 41.89018900000001 41.93891 41.8669195 L 41.938975 41.866811 L 41.938975 41.866811 C 42.3572 41.232451 43.1211715 40.867211999999995 43.9193965 40.998343 C 45.002024 41.176187 45.735496999999995 42.1980135 45.5576535 43.280640999999996 C 45.494031 43.66797749999999 45.321049 44.00936049999999 45.0772165 44.281563999999996 L 45.0778895 44.282084999999995 C 42.304475 48.7366925 43.688371 54.659853 43.688371 54.659853 L 39.767794499999994 54.015812 C 38.742864 47.350799499999994 41.511698499999994 42.560821499999996 41.894519499999994 41.937814499999995 Z &#10;" stroke-width="0px" /><circle cx="66.4488985" cy="47.0103325" r="1.358729" stroke-width="0px" fill="#fff" /><circle cx="43.5863015" cy="43.115318" r="1.358729" stroke-width="0px" fill="#fff" /><path d="M 58.6509875 105.9603145 C 61.84735 98.94303699999999 70.961197 94.896114 78.3495005 97.73002749999999 C 86.0902995 100.60278699999999 90.30170100000001 109.667313 88.6854055 117.56858749999999 C 88.685423 117.56859549999999 88.2782825 119.60457949999999 88.2782825 119.60457949999999 C 87.30356950000001 119.15913949999998 85.29690550000001 118.24422299999999 84.31544050000001 117.79584149999998 C 84.3154475 117.79584599999998 86.4101155 116.86751849999997 86.4101155 116.86751849999997 C 85.39594600000001 119.49275799999998 84.53646950000001 122.33260549999997 83.77804400000001 125.05156749999998 C 82.86160600000001 124.17638799999997 81.7685155 122.75673249999997 80.43889100000001 122.50743649999998 C 80.43890700000001 122.50739899999998 81.83048600000001 121.42480249999998 81.83048600000001 121.42480249999998 C 81.615029 123.12028599999998 81.52742350000001 124.83769399999998 81.5598075 126.56289349999999 L 81.58713750000001 128.017766 C 80.34179200000001 127.329443 78.99335200000002 126.6727205 77.53368550000002 126.5508115 C 77.53370200000002 126.5507725 78.10238850000002 125.9468945 78.10238850000002 125.9468945 C 78.08050950000002 127.4605995 78.04138450000002 129.6446995 77.95956700000002 131.14058 C 77.77816050000003 130.2924375 77.60789900000002 129.4422575 77.44926950000003 128.590596 C 77.36238350000002 128.1469825 76.95868650000003 125.849573 76.88544950000002 125.471153 C 78.27723950000002 125.350596 79.68462650000002 125.4247955 81.04802650000002 125.877141 C 81.04802750000002 125.877119 79.90934400000002 126.72691999999999 79.90934400000002 126.72691999999999 C 79.50614400000002 124.53020299999999 79.43692650000001 122.23258399999999 79.48762800000002 119.99199499999999 C 79.48760250000001 119.99199499999999 80.86738800000002 120.18688449999999 80.86738800000002 120.18688449999999 C 81.98941150000002 120.34534199999999 83.08017400000001 120.804498 83.99273050000002 121.53374799999999 L 81.83965850000003 122.2238745 C 82.34438350000002 119.54834849999999 83.11154600000003 116.8724235 83.93772200000002 114.2753965 C 83.93769650000002 114.27539 85.54660400000002 114.918953 85.54660400000002 114.918953 L 87.72812900000001 115.7915445 L 85.495501 116.994294 C 85.99679850000001 113.735625 85.428674 110.3198555 83.9833715 107.3545145 C 78.92047600000001 96.738136 65.5953645 97.4519 58.650989 105.9603155 L 58.650989 105.9603155 Z &#10;" stroke-width="0px" fill="#eeddcf" /><path d="M 43.6061165 61.217913 C 42.1938375 60.5524075 40.356665 59.838438000000004 38.144102 59.3373975 C 36.130143999999994 58.881333000000005 34.3287445 58.7202075 32.864067999999996 58.687551500000005 C 32.47932599999999 58.689555500000004 31.896646999999994 58.749077500000006 31.440507999999998 59.138124000000005 C 30.298602 60.11207650000001 30.784873499999996 62.42483250000001 31.007747499999997 63.6549825 C 31.294374499999996 65.2369965 33.225719999999995 67.7857905 34.893389 68.5378805 C 36.6605015 69.334818 40.529072 66.773515 40.529072 66.773515 C 40.529072 66.773515 43.871963 64.5849985 44.724867 62.7798135 C 45.0196575 62.156018 44.3918545 61.4030105 43.606117000000005 61.217912500000004 Z &#10;" stroke-width="0px" /><path d="M 42.1515345 63.34989 C 42.2365875 63.34989 42.321121 63.314414 42.3812365 63.245095500000005 C 42.6801835 62.9007275 42.578209 62.384324500000005 42.306945 62.08419000000001 C 42.0613605 61.81240650000001 41.7159535 61.68994800000001 41.463689 61.60044250000001 C 39.024912 60.734328000000005 36.497371 60.059396500000005 33.9514245 59.59435150000001 C 37.951308000000004 61.01083700000001 38.8520605 61.31812000000001 41.260334 62.17339900000001 C 41.5082195 62.26127200000001 41.723969 62.34588000000001 41.855853 62.49179100000001 C 41.953968 62.600445000000015 41.9861785 62.77277750000001 41.922129000000005 62.84669750000001 C 41.812065000000004 62.97346050000001 41.825646500000005 63.16538600000001 41.95240950000001 63.27552450000001 C 42.00992800000001 63.32539850000001 42.08095350000001 63.34989000000001 42.15153400000001 63.34989000000001 Z &#10;" stroke-width="0px" fill="#fff" /></g></g></svg>