<?xml version='1.0' encoding='utf-8'?>
<svg viewBox="0 0 432 432" width="432px" height="432px" xmlns="http://www.w3.org/2000/svg" xmlns:xlink="http://www.w3.org/1999/xlink" version="1.1"><g isolation="isolate"><g id="Layer_1"><path d="m197.646942,208.584146c-.287966-.486892-7.266951.605675-7.266951.605675l.975664,4.949048-1.64735,3.677394-.594683,5.683229-4.516972,1.127276,2.721675,6.659384,6.621224,8.098546,4.490543-11.873479-.78315-18.927073Zm163.854027,174.719432c-2.864127-2.081206-6.733801-1.760162-10.251782-2.158005-6.929076-.783659-13.372136-4.918113-17.078922-10.810124,7.417566-2.180059,14.996718-5.981356,19.593006-9.969159,7.637196-6.626136,16.449338-19.56483,16.449338-26.436427,0-17.915156-22.617851-39.057768-32.311203-57.866376-2.383929-4.625722-4.59911-9.125979-6.551377-13.508846.74945-18.291682-1.698385-37.188811-5.90751-48.045301l.317744-.326644c6.543433-7.049722,17.122293,9.399615,10.328711,27.085243-3.382834,7.085452-6.796795,17.898485-2.615715,25.367496,3.973302,7.256979,8.99131,10.74292,13.270983,12.388687,14.173726,6.382889,20.635975-25.92827-6.016435-15.744474-.04515-1.993337.397582-4.146262,1.507582-6.450745,2.208017-4.584002,6.238626-8.176306,10.306222-11.711174,4.305687-3.126512,9.769119-9.305368,14.689555-12.016628,3.098546-1.707362-4.719602-3.012512,1.606673-11.246711,1.181395-1.537688-2.811678-4.719602-1.524667-7.151752,1.322097-2.498455-2.24101-4.279378-2.978259-7.171231-3.934724-15.433916-17.306437-31.118851-44.174661-39.553058l-1.918665-.305849c.651942-1.217318,1.160577-2.51239,1.498378-3.893769,33.236955-7.508691,49.456244-19.558752,46.924925-38.03542-16.849177-44.585235-45.869714-44.786066-54.637444-49.229278,0-23.283381-8.824472-31.356884-18.209587-28.887126-5.581039,1.468683-15.078553,4.298557-19.783375,27.641415l-16.379399,5.23182c-4.755616-18.468897-20.03296-35.032803-34.397184-20.756491-21.467606,21.33628,20.697145,68.053037,14.983346,96.660276-1.559374,4.022143-2.833825,7.574637-3.86021,10.723167-2.001499,4.405485-5.573789,11.699843-7.666717,12.608056-43.414239,18.839562-42.386204,59.205209-22.655403,73.532489,4.067597,3.534868,8.098205,7.127172,10.306222,11.711174,1.110043,2.304482,1.552732,4.457408,1.507625,6.450701-3.650869-1.394967-6.676452-1.988431-9.1499-1.997374-22.367224-8.305028-46.395192-29.642567-26.886843-84.4274,56.397649-112.501649,28.639451-166.696317-19.386791-168.605605-68.680364-2.730413-93.408595,55.81022-74.021977,93.996155,0,0,18.639903-29.157767,28.786363-16.155601,7.130081,9.136833-14.604866,19.303176-35.385061,45.591172-29.565204,37.401364-54.961136,114.659567-27.674887,181.463464,38.319562,80.911851,124.26162,78.049156,159.558031,57.051849l.001389-.005687c5.772754,3.39347,13.105663,6.179019,22.315518,7.029926l-6.872465-.283665c-3.449387,6.849021-10.493248,11.755673-18.113252,12.617477-3.51798.397843-7.387698.076799-10.251782,2.158005-3.796783,2.758936-3.855825,8.831331-1.084299,12.618997,2.771439,3.787709,7.513858,5.624844,12.142966,6.398388,3.296657.550832,6.701154.657717,9.965642-.059346,6.97275-1.531676,12.717329-6.740444,16.349921-12.886121,3.632636-6.14572,5.40999-13.194792,6.814724-20.194241l-2.623876-.108317c.400838-.002561.792082.005904,1.199171-.00382,4.87292-6.823668,18.580643-26.160403,23.789411-30.670471,17.084045-14.792283,34.503287-18.100185,42.607049-16.219463,8.671482,2.012482,6.497588,22.640903,9.624759,30.432478l-.264563.01094c1.404735,6.999449,3.182089,14.048521,6.814681,20.194241,3.632636,6.145677,9.377214,11.354444,16.349964,12.886121,3.264488.717063,6.668985.610179,9.965599.059346,4.629195-.773544,9.37157-2.610679,12.14301-6.398388,2.771483-3.787666,2.712484-9.86006-1.084299-12.618997Zm-102.719342-297.017525c-.254057-1.927131-.632233-3.86594-1.126193-5.784432.003734.012156.672086,2.212836,1.126193,5.784432Zm-33.713637,187.63749c-.460315-.062342-.931092-.129633-1.411811-.202134,3.329782-7.403717.081097-17.547269-3.144623-24.303602-3.382371-6.471985-3.151172-13.953495-1.069273-20.3807,3.497757-10.798219,15.38307-11.804747,19.5563-14.263367,4.619185,6.176899,3.806697,24.466133-13.930593,59.149803Z" stroke-width="0px" fill="#c56439" /><path d="m333.325552,262.876347l1.222354-8.664492-3.203058,2.680705c.003647-1.052867.000174-2.089759-.010767-3.110673l3.683907-17.054958-.941034-.410519s-1.50819,1.198737-1.775965,1.6004,1.19318-10.707017,1.19318-10.707017c0,0-2.281647.0323-4.559647.044977-6.726508-34.609868-26.140042-38.602185-40.53687-38.591071-11.048074.008509-32.437449,3.13047-36.6965,28.9397-4.259398,25.80923,34.202648,91.181302,18.086987,133.765211l-.449765,1.113125s20.767865-16.301471,38.61903-12.973209c3.481426,1.620891,1.500896-.175738,1.500896-.175738,0,0,14.427044-16.611618,19.756849-51.713623l2.774999-5.679719,3.02784-9.577568-3.667757-1.789163,1.97532-7.696368Z" stroke-width="0px" fill="#e7caae" /><path d="m347.67154,120.514043c-2.967588.474877-5.969277.959352-8.735466,2.134208-3.910247,1.660761-7.150841,4.616137-11.018957,6.372792-11.441073,5.195814-27.212104-.257368-38.764173,4.686753-8.011571,3.428839-11.618676,11.625768-10.652673,20.286544,1.004916,9.009658,8.833178,15.434953,17.893545,15.129083,3.665461-.123743,7.453189-1.178294,11.033421-1.973811,12.131495-2.695582,43.255149-7.233007,56.823268-26.548706.836171-1.190381,2.458809-6.889287,2.197964-9.937231-.418721-4.892704-1.359387-10.930694-2.464807-11.431191-4.511326-2.042578-11.321265.482917-16.312121,1.28156Z" stroke-width="0px" fill="#e7caae" /><path d="m297.631884,120.023132c2.727056-5.831431,10.961692-7.165428,16.129479-3.8479.730822.510564,1.460118,1.128107,1.830382,1.974398-1.637287-.290867-3.103554-.178153-4.692877-.135747-.000003.000034-2.230947.099994-2.230947.099994-3.832141.106991-7.18933.933034-11.036038,1.909255h0Z" stroke-width="0px" /><path d="m337.202208,80.896264c.234164-5.201747,6.914995-7.917305,11.115415-5.265318.5859.392921,1.165443.896465,1.415531,1.597777-1.280314.024732-2.27833.341323-3.433462.614521-.855706.223041-2.127606.505926-2.952382.749321-1.633998.434698-4.492688,1.653922-6.145102,2.303699h0Z" stroke-width="0px" /><path d="m341.949373,111.01662c2.72728-5.83169,10.961852-7.165203,16.129854-3.8479.730448.510564,1.460118,1.128201,1.830008,1.974398-1.637287-.290867-3.103554-.178153-4.692877-.135747-.000003.000034-2.230947.099994-2.230947.099994-3.832062.106986-7.189375.933038-11.036038,1.909255h0Z" stroke-width="0px" /><path d="m250.561588,98.473008c-.015386-1.755646-.030771-3.511292-.046157-5.266939-.051565-5.884049-.130227-11.917113-2.247643-17.407217s-6.742086-10.409082-12.58068-11.140879c-5.718392-.716729-11.668613,3.174781-13.304049,8.700996,0,0,21.021314-10.752526,28.17853,25.114039Z" opacity=".35" fill="#754123" mix-blend-mode="multiply" stroke-width="0px" /><path d="m222.382939,73.359015c1.236787-7.096418,8.24311-11.928643,15.346019-10.089174,5.76892,1.351967,10.022214,6.360843,11.564886,11.908518,1.690687,5.166246,2.211966,10.822059,1.267687,16.115809-.547689-4.274603-1.330523-8.378674-2.706377-12.293308-1.355628-3.795606-2.82194-7.548334-5.935139-10.173237-6.845496-5.919487-15.581737-3.328056-19.537075,4.531391h0Z" stroke-width="0px" /><path d="m342.824259,142.520019c-4.57699,8.602739-21.556872,20.673698-24.542756,1.32403l5.362779,1.069098,10.952233-.526708,8.227744-1.86642Z" stroke-width="0px" /><path d="m86.427297,110.395286c6.248105-44.098932,36.574057-46.672979,46.580402-38.888368,10.305339,7.898,20.614161,26.234054.03536,65.282211-26.507814,50.298426-54.827714,184.968221,66.877761,183.160714,0,0-11.648919,22.172377-6.929047,40.809638,7.832801,9.900976,18.065196,17.913601,18.065196,17.913601,0,0-47.487123,22.635728-93.07466,4.397246-74.7121-31.45564-83.548801-103.488143-75.748187-150.612127,1.456097-8.712856,9.919678-74.863381,63.451998-119.642333,26.084991-20.009411-4.174016-34.469468-19.258822-2.420583Z" fill="#754123" mix-blend-mode="multiply" stroke-width="0px" opacity=".25" /><path d="m206.710276,419.598155c-.42719,0-.849518-.191715-1.129796-.556389-2.303006-3.002139-3.232405-6.423828-2.549596-9.388458.558473-2.424912,2.17867-4.417076,4.561904-5.609041.701564-.350782,1.556986-.067378,1.908811.63627.351129.702954.066336,1.557334-.63627,1.908811-1.633394.816871-2.691992,2.097052-3.061877,3.702314-.491442,2.133867.250063,4.692145,2.034536,7.017727.478245.623767.360507,1.516351-.262913,1.994943-.258051.197966-.562641.293823-.8648.293823Z" stroke-width="0px" /><path d="m354.395113,402.793259c-.376483,0-.751924-.148648-1.031508-.442472-.541455-.569587-.518185-1.470507.051402-2.011614,2.625309-2.494374,3.796783-4.998472,3.388347-7.242783-.401489-2.204718-2.168945-3.60993-2.962199-3.944736-.723792-.305632-1.062418-1.140563-.756786-1.864355s1.139521-1.062766,1.864008-.757134c1.54622.653636,4.062127,2.805562,4.653941,6.056375.410867,2.255425.010419,5.788947-4.227793,9.815648-.275069.261176-.627587.39107-.979412.39107Z" stroke-width="0px" /><path d="m326.51109,372.679172c5.357745,4.910063,17.738651,7.63825,20.736359,7.629787,0,0-11.215503-4.928899-13.497893-8.64433l-7.238466,1.014543Z" fill="#754123" mix-blend-mode="multiply" stroke-width="0px" opacity=".25" /><path d="m356.350871,388.082818c3.584532.803336,3.433906,3.514597,4.990371,3.966474,1.556464.451877,2.410009-3.195517,2.359801-4.208602.823896.593588-.044684,5.514024-.675053,7.421948s-6.454558,4.568976-6.454558,4.568976l1.305422-4.167308-.602502-5.47273-.92348-2.108758Z" fill="#754123" mix-blend-mode="multiply" stroke-width="0px" opacity=".25" /><path d="m357.529762,390.915797c-.24672,6.498239-12.004216,4.949328-14.80852,4.748496-2.804303-.200831-10.852409-1.204989-18.082428-16.267565-3.164202-6.592143-4.02045-14.761373-5.05326-22.007585l.000043-.000043c-.000087-.000651-.00026-.001302-.000347-.001954-.521919-3.661375-1.090637-7.08454-2.023423-9.95188-4.113789-15.944958-10.834696-20.969088-23.048123-22.665432-14.460082-2.008315-39.603694,23.907756-51.533673,51.216971-4.599414,9.099975-2.992762,7.125349-5.603658,17.970421-2.610809,10.845029-10.198383,19.179621-18.002764,19.882575-7.804382.70291-13.929871.100416-14.231075-4.117132-.181208,5.43352,0,7.951727,0,7.951727l4.31792,1.651194,12.630675-1.149897,10.565662-6.429429,8.787527-19.211357,3.563825-10.728159,21.321823-27.380413,20.351181-12.183905,16.200621-3.481122,7.230063,1.472764,3.689551,5.94719,2.067661,16.278462.155725-.212466c.681681,4.457929,1.646332,9.512404,3.201625,15.129911,6.169034,22.281395,21.679986,28.328827,31.621273,25.389767,9.941287-2.939103,6.682096-11.85114,6.682096-11.85114Z" fill="#754123" mix-blend-mode="multiply" stroke-width="0px" opacity=".25" /><path d="m217.254631,274.249087l2.117969,1.015166s.103966-3.414131-4.489638-4.936969c-4.593604-1.522837,1.556464,2.82821,1.556464,2.82821l.815205,1.093593Z" stroke-width="0px" /><path d="m339.336647,262.915294c-.940703.449538-1.894665,2.407671-2.145708,3.913926l2.165719-.730076.897001-2.633895-.917013-.549955Z" stroke-width="0px" /><path d="m204.512675,363.318489c4.175073.100859,8.403293-.223743,12.489723.637943,4.938025,1.041256,9.483221,3.853771,12.618587,7.808235s4.837398,9.021231,4.725262,14.066599c-1.967566.685144-4.131702.219795-6.147056-.308485-10.734378-2.81378-21.460897-7.606396-28.359337-16.298674-2.314807-2.916738-4.171468-6.194741-6.90681-8.762103,3.529264,2.121544,7.508045,2.758126,11.579632,2.856486Z" fill="#754123" mix-blend-mode="multiply" stroke-width="0px" opacity=".25" /><path d="m344.257445,350.82091c6.825806-5.991872,16.899013-6.414617,24.800276-10.893933-2.299314,5.444655-5.292686,10.595764-8.884738,15.289194-1.829785,2.390825-3.834678,4.682376-6.251769,6.477321-2.429933,1.804481-5.214368,3.062545-7.988895,4.271978-4.659505,2.031107-9.361134,3.965576-14.100999,5.801804-1.222892.473742-3.295857,1.329861-4.421494.529407.811512-1.66974,3.410097-3.015441,4.683999-4.509037,1.524509-1.787422,2.779499-3.785926,4.004672-5.78395,2.407939-3.926889,4.649908-8.102458,8.158945-11.182784Z" fill="#754123" mix-blend-mode="multiply" stroke-width="0px" opacity=".25" /><path d="m221.982804,271.038473c-.732087,2.630082-1.734725,5.363443-3.880443,7.051393-2.826839,2.223762-6.794732,2.033074-10.379013,1.734637-3.02089-.251528-6.041779-.503056-9.062669-.754584-.310272-.025834-.670999-.032365-.87437.203381-.200357.232252-.146036.582764-.074609.881063.827182,3.454562,2.839089,7.087671,6.291935,7.921988,1.840805.444797,3.774634.005061,5.581742-.561305,3.538764-1.109085,6.993981-2.760634,9.600071-5.399077,3.220666-3.260658,4.801816-7.747809,5.243502-12.240399.081042-.824316.579118-6.07467-.488265-5.981087-.760078.06664-1.700873,6.220668-1.95788,7.14399Z" fill="#754123" mix-blend-mode="multiply" stroke-width="0px" opacity=".25" /><path d="m336.588963,269.003996c1.624958,1.292345,3.461957,2.287221,5.290198,3.271181.850495.457737,1.705238.916355,2.61383,1.243961,1.952165.703883,4.066826.775286,6.141025.839287,1.409843.043502,2.852846.082554,4.194368-.353187,1.354239-.439871,2.507404-1.331786,3.630307-2.207309.531108.790164.109259,1.854289-.371097,2.676295-.523249.895408-1.108448,1.754606-1.750029,2.569418-.336673.427577-.693942.847707-1.137091,1.163602-.630225.449251-1.394356.660987-2.141041.86463-1.751427.477665-3.584364.958585-5.360212.581725-1.343278-.285063-2.53356-1.038597-3.6811-1.792791-2.287569-1.50345-4.550652-3.076382-6.489609-5.008681-1.938958-1.932299-3.55334-4.254717-4.315313-6.883925-.149913-.51728-.344107-1.117716-.361763-1.638631.865474,1.862317,2.130921,3.396672,3.737528,4.674424Z" fill="#754123" mix-blend-mode="multiply" stroke-width="0px" opacity=".25" /><path d="m343.960622,247.981322c1.265742-1.070567,2.657623-1.980291,4.045453-2.887015,4.269003-2.789107,8.538007-5.578214,12.80701-8.367321-2.297338,5.332588-7.084533,9.106861-11.687633,12.646032-1.920544,1.476643-3.865615,2.97699-5.331144,4.906029-1.478434,1.946026-2.411287,4.260155-3.02454,6.625892-.30332,1.170114-1.229829,5.629444-3.136304,5.304644-1.549511-.263986-.698609-4.969819-.507145-6.087942.798903-4.665481,3.209745-9.074653,6.834303-12.140319Z" fill="#754123" mix-blend-mode="multiply" stroke-width="0px" opacity=".25" /><path d="m203.385115,248.204047c4.267114,2.967002,8.77723,5.867351,11.685742,10.174545,3.175678,4.702837,4.08225,10.600788,3.995204,16.274766-1.438911-.151783-2.591753-1.323273-3.214014-2.629525s-.832017-2.763195-1.188863-4.165395c-.94361-3.707854-2.980312-7.130437-5.789122-9.728353-2.541513-2.350689-5.662546-4.012356-8.166689-6.40284-3.851293-3.676497-6.148526-8.909454-7.738569-13.908806,2.486272,4.422786,6.305917,7.527579,10.416311,10.385609Z" fill="#754123" mix-blend-mode="multiply" stroke-width="0px" opacity=".25" /><path d="m220.302915,252.788875c-4.601854-4.249523-6.439544-10.767292-6.785527-17.021555-.418519-7.565525,1.271076-15.630269,6.480734-21.132249,5.209658-5.50198,14.492935-7.457865,20.571407-2.934095,4.000475,2.977266,5.947587,8.101855,6.20933,13.081754s-.946555,9.907853-2.182587,14.739015c-2.954963,11.54978-6.120254,23.045747-9.493774,34.480282-2.618921,8.876825-8.67641,16.81596-15.287141,23.293228s-14.014223,12.178714-19.964226,19.267736c8.724009-14.445691,17.44802-28.891384,26.17203-43.337076,8.677039-14.367914,14.378176-30.529819,15.063487-47.300576.138002-3.377159,1.3843-8.234844-1.061524-10.567695-2.138641-2.039858-5.481671,1.161665-8.262016,2.163907-2.780345,1.002242-6.756521,3.804792-8.430091,6.240766-6.319905,9.198976-5.281075,18.095162-3.030102,29.026559Z" fill="#754123" mix-blend-mode="multiply" stroke-width="0px" opacity=".25" /><path d="m334.936599,207.858651c1.600452.922277,3.01777,2.138738,4.284368,3.483271,1.042162,1.106288,1.991587,2.308402,2.734208,3.634482,1.909812,3.410302,2.355151,7.506087,1.809081,11.376404-.54607,3.870317-2.026203,7.551074-3.773963,11.047198-1.285337,2.571118-2.721909,5.066622-4.299819,7.469316,1.184735-5.780955,1.762045-11.686202,1.719361-17.587152-.023633-3.267202-.280638-6.681037-1.970443-9.477415s-5.218817-4.732723-8.288119-3.612656c-.280109.102219-.564711.229638-.86218.2091-.336841-.023257-.630257-.232684-.88435-.455039-3.165181-2.769833-2.982725-7.676995-5.405312-10.972501,2.333044.377768,4.998465,1.641826,7.417189,2.242063,2.58192.640736,5.195803,1.303602,7.519979,2.64293Z" fill="#754123" mix-blend-mode="multiply" stroke-width="0px" opacity=".25" /><path d="m286.821766,168.740694c2.664709,1.36009,5.679407,1.84526,8.646308,2.229995,16.422385,2.129581,33.744068,1.902553,48.434504,9.545912-6.675047-5.556108-14.589301-9.414336-22.615293-12.732474-2.039532-.843191-4.127053-1.66389-6.324387-1.869763-2.36273-.221371-4.724902.278708-7.062238.689033-4.379175.768775-8.865485,1.175928-13.307898.818394-2.212421-.17806-4.414829-.542098-6.544977-1.173266-1.437107-.425818-4.60967-2.491073-5.842666-1.994536.607819,1.972399,2.837441,3.578582,4.616648,4.486705Z" fill="#754123" mix-blend-mode="multiply" stroke-width="0px" opacity=".25" /><path d="m293.3013,63.624312c2.274461-.870968,4.722204-1.247387,6.957769-2.213828,2.815013-1.216937,5.213856-3.37419,6.721669-6.04472,2.53143,6.705349,4.04252,13.794845,4.465308,20.94964.026613.450377.013227.980587-.352168,1.245226-.217606.157602-.504663.172938-.773332.1702-1.722259-.017549-3.394199-.532268-5.066097-.94612-5.932789-1.468571-12.08345-1.688045-18.16765-1.545679-1.544255.036135-3.088034,1.316511-4.631069,1.387186-1.732863.079369-4.126892,1.321612-2.818366-.389595,1.55925-2.039088,3.750617-5.472795,5.623355-7.230028,2.070075-1.942399,5.37577-4.361836,8.040582-5.382282Z" opacity=".35" fill="#754123" mix-blend-mode="multiply" stroke-width="0px" /><path d="m278.35064,151.368875c5.792027,3.990087,12.671617,6.202195,19.633048,7.205612,6.961431,1.003417,14.038033.845227,21.058525.419726,3.064474-.185733,6.139565-.423968,9.132694-1.107099,2.664632-.608157,5.235802-1.562414,7.797968-2.513953,4.526112-1.680911,9.069694-3.369679,13.314942-5.669467,6.457892-3.498447,12.132801-8.379767,16.767104-14.077727-1.918367,7.452573-7.215125,13.96502-14.120568,17.361463-3.085599,1.517652-6.428444,2.425768-9.645513,3.640122-4.694768,1.772143-9.125666,4.198593-13.850929,5.887741-5.149043,1.840638-10.569001,2.77864-15.957501,3.708509-5.845671,1.00876-11.797887,2.020504-17.680521,1.256244-4.339656-.563799-9.579959-2.112863-13.00244-4.988114-2.884989-2.423701-3.750776-7.537186-3.446809-11.123056Z" fill="#754123" mix-blend-mode="multiply" stroke-width="0px" opacity=".25" /><path d="m89.054287,53.242788c33.259674-22.883727,86.44216-36.509214,100.521861,21.314805,14.079701,57.824019-28.286797,102.0946-16.44437,154.569774-6.433478-32.276823,15.19404-59.718842,26.719353-88.528755,5.662069-14.083245,24.764352-82.780222-6.882328-111.737202-15.023792-21.999941-83.551482-20.415993-103.914517,24.381378Z" stroke-width="0px" opacity=".66" fill="#d8b58e" /><g opacity=".66"><path d="m304.243976,53.952937c-5.837017-2.589456-11.168028.559562-15.994777,3.918709-2.408434,1.670536-4.512259,3.497555-6.484627,5.716686-2.091484,2.338141-3.777393,4.863376-5.487806,7.628135-1.111661-6.974685,2.992464-14.119738,8.71311-18.007081,2.935107-2.004429,6.254003-3.626162,9.921034-3.865949,3.571347-.272419,7.816999,1.236564,9.333067,4.6095h0Z" stroke-width="0px" fill="#d8b58e" /></g><g opacity=".66"><path d="m260.341855,81.767008c18.569817-7.016418,41.604298-6.521612,60.262645-.000286-10.143525.994867-20.081061.66354-30.160149.656107-8.962371-.165578-21.193248.051661-30.102495-.655821h0Z" stroke-width="0px" fill="#d8b58e" /></g><path d="m290.736887,89.713807c.233863-5.201701,6.915127-7.917298,11.115415-5.265318.5859.392921,1.165443.896465,1.415531,1.597777-1.280314.024732-2.27833.341323-3.433462.614521-.8557.222987-2.127568.506035-2.952382.749228-1.633986.434859-4.492671,1.653985-6.145102,2.303793h0Z" stroke-width="0px" /><g opacity=".66"><path d="m239.07508,137.41078c1.052869,7.497745,3.265201,15.453082,2.078032,23.025207-.590666,3.881428-1.507006,7.717112-2.758029,11.429593-1.392744,3.906352-3.822171,7.503432-6.763184,10.369426-2.820872,2.833521-6.13543,4.893213-9.375298,7.12048-4.566842,3.157437-8.965669,6.635221-13.232439,10.21319-4.095696,3.541283-9.022337,6.996809-13.081721,10.633563,1.709005-7.843728,8.013935-13.488484,13.8902-18.45445,4.335074-3.726711,9.090717-7.068415,13.872329-10.20802,4.300084-2.945394,8.042416-6.69714,10.13196-11.494821,1.386378-3.363348,2.611702-6.874651,3.573167-10.370261,2.063734-7.292913.873587-14.792896,1.664982-22.263908h0Z" stroke-width="0px" fill="#d8b58e" /></g><g opacity=".66"><path d="m337.042453,177.836164c3.253591,2.053465,6.108645,4.303506,8.948939,6.590189,8.462684,6.915435,17.635837,15.766493,18.231812,27.439525-4.570425-5.954453-8.965299-10.877179-14.171715-16.109328-5.058352-5.271677-10.181252-10.954688-13.009035-17.920386h0Z" stroke-width="0px" fill="#d8b58e" /></g><g opacity=".66"><path d="m205.632692,311.713556c-3.027767,11.871264-6.958765,24.541147-9.885013,36.37821-1.033689,4.051862-1.984274,8.051821-2.807049,12.370261-.377525-1.024388-.747756-2.093579-.946417-3.172842-2.854962-14.75881,3.238884-34.738633,13.638479-45.57563h0Z" stroke-width="0px" fill="#d8b58e" /></g><g opacity=".66"><path d="m336.6427,277.485381c10.771135,12.944335,36.518552,39.660249,32.153419,57.214879-.514434-2.794503-1.389479-5.322218-2.578491-7.732369-3.601284-7.304131-8.567738-13.64473-13.251005-20.37266-6.325465-9.069732-12.882683-18.407989-16.323923-29.109849h0Z" stroke-width="0px" fill="#d8b58e" /></g><path d="m234.571494,386.176909c-7.890737,4.545502-19.405227,10.570526-19.405227,10.570526l11.989875-11.660685,7.415352,1.09016Z" fill="#754123" mix-blend-mode="multiply" stroke-width="0px" opacity=".25" /><path d="m196.957308,403.50885c-.133889,4.418351,3.815848,6.761415,7.430862,3.882793.673827,1.266003-.602502,5.154742-.602502,5.154742l1.3173,4.287457-8.748162-5.087828.602502-8.237164Z" fill="#754123" mix-blend-mode="multiply" stroke-width="0px" opacity=".25" /><path d="m362.694685,381.660836c-2.677756-1.945381-5.807793-2.147252-8.890181-2.346154-.812233-.052546-1.579639-.102123-2.327303-.18673-5.150525-.582457-10.035204-3.190152-13.521037-7.116539,6.700625-2.368122,13.103046-5.835401,17.143134-9.34068,8.095612-7.023916,17.149962-20.478009,17.149962-27.970384,0-12.189433-9.667087-25.467483-19.01593-38.308245l-.49399.354461.491466-.357727-.003859-.005641c-4.073188-5.593899-8.26735-11.354044-11.5099-16.859179,1.351792.856763,2.772309,1.573998,4.238693,2.13983,4.516859,2.017817,9.058951.957402,12.149652-2.834503,3.47188-4.257989,3.942566-10.705089,1.071696-14.677787-1.748557-2.417403-6.134794-5.940641-16.072773-3.044983.218941-.867154.542231-1.746182.965863-2.625211,2.10094-4.361893,6.171754-7.899085,9.72275-10.987708,2.657273-1.938256,5.023465-4.347643,7.014267-7.136132.892833-1.123945,4.109406-4.790869,8.014121-4.790869h3.333985s-1.529913-2.962454-1.529913-2.962454c-1.080306-2.091144-2.166697-3.817733-3.235425-5.142361,4.853508-3.907981,4.853211-5.159283,4.853211-5.841784v-.906637s-.67508-.605612-.67508-.605612c-1.333683-1.195491-2.349271-2.159127-3.027023-2.819066l1.551436-4.314691-1.228295-.892981c-.01514-.011281-1.524273-1.146804-2.026426-2.52576-.199347-.547426-.349266-.986792-.461186-1.331753l-.197566-.67983-.240018-.913762-.043491.007719c-5.118315-16.089695-22.409289-31.774757-44.497811-40.444513,23.79151-5.954297,38.854039-14.423667,44.783399-25.186348,4.09486-7.43211,2.78552-14.142235.980558-18.424271-10.027486-29.143906-32.817806-40.822724-50.170677-45.488017-.949683-.255307-1.951764-.504677-3.122169-.776312-.294345-16.696494-5.13108-23.9015-9.158699-27.006451-3.335024-2.57029-7.339932-3.338586-11.580703-2.222953-8.247312,2.169814-16.491507,7.059243-20.981647,27.88251-1.419775.238089-6.204855,1.218943-13.06193,4.412955-1.009502-3.825154-2.385044-7.559318-4.057751-10.941396-2.656382-5.37095-7.25859-12.310555-14.098002-14.869564-4.447837-1.663356-11.407035-1.941522-19.300182,6.180808-12.644235,13.009681-3.036968,35.575865,5.439082,55.485667,2.254718,5.296139,4.583209,10.76565,6.169527,15.5203l-.008758.003266.187918.553067c7.366651,21.701999,1.244919,41.441992-15.974213,51.515938-1.050916.608878-1.99199,1.202022-2.876362,1.813571-9.358195,6.471146-16.268707,13.839429-20.545992,21.905354-2.051957.016328-4.591373.515958-5.812691,2.638273l-.749891,1.304145,1.028947,1.097524c.691111.736828.899512,2.427496.870716,3.752125l-3.146809,3.004312.620456,3.785671h-4.736838l.409382,2.375841c1.208256,7.007588,6.709828,12.938136,8.542103,14.747254,2.307264,6.786717,6.376148,12.450974,11.732848,16.355392,3.591519,3.121872,7.662777,6.660251,9.76253,11.018879.423632.879325.746922,1.758948.965714,2.625804-1.450501-.421851-2.8443-.72436-4.156163-.901591-13.373345-4.013072-23.103517-11.551165-28.919176-22.405875-7.172944-13.387001-7.972411-31.896473-2.19386-50.782672,2.284405-7.467141,6.154684-15.822216,10.639777-25.503107,13.023337-28.112881,30.859511-66.614981,21.545549-115.185684-3.279806-17.026019-13.164646-29.621865-28.585496-36.426097-20.3272-8.968406-48.44394-6.141325-69.964849,7.036087-35.49957,21.737623-41.711846,60.957256-27.208618,86.315788l1.814462,3.172043,1.735495-3.21598c4.666777-8.646897,12.96901-18.47266,20.996342-17.677349,2.265703.219089,3.893731,1.40033,4.466688,3.24062,1.036666,3.32968-1.253974,7.775587-6.097685,11.869408-23.478759,17.483494-43.305735,45.451205-55.828254,78.750681-12.594658,33.491846-16.620793,69.345877-11.337419,100.958247,3.894622,23.301231,12.566753,43.485043,25.775633,59.991245,14.561414,18.195385,34.262221,31.346672,58.552025,39.087526,10.280566,3.322259,21.280445,5.006989,32.69416,5.006989,26.135141,0,47.2057-8.711021,53.490412-11.61232,3.527395,2.048098,7.299707,3.69572,11.218078,4.898929.526942.161942,1.192522.309337,1.940038.44085-3.424381,5.092339-9.180964,8.683857-15.270337,9.372445-.757906.086092-1.53689.135966-2.382075.190293-3.026874.194746-6.156762.39632-8.835112,2.341998-1.98338,1.441595-3.30415,3.695423-3.719469,6.346461-.494287,3.156606.324478,6.563769,2.190001,9.114466,2.702693,3.693345,7.352549,6.184074,13.447562,7.202927,1.871461.312306,3.694235.470834,5.418449.470834,1.867305,0,3.656236-.185246,5.317514-.550395,6.926394-1.521156,13.363994-6.564363,17.661912-13.835867,3.724664-6.300892,6.182589-15.752452,7.615278-22.763602l1.533921-2.005942c10.043368-13.970645,16.6438-22.35986,19.617832-24.935197,16.869866-14.606538,33.652898-17.437776,40.817974-15.776201,4.298809.997776,5.239289,9.725422,6.069334,17.427385.441444,4.098719.856466,7.892851,1.773494,10.76565,1.400182,6.959198,3.22637,14.280576,7.037868,20.728863,4.297918,7.272395,10.735518,12.315602,17.66206,13.836461,1.660832.364852,3.448873.549801,5.314397.549801,1.727183,0,3.551293-.158528,5.421715-.470834,6.095458-1.018854,10.745314-3.509286,13.447266-7.202334,1.86582-2.549806,2.684584-5.956969,2.190298-9.113575-.415171-2.651929-1.736237-4.906054-3.719914-6.347055Zm-86.841246-304.565707c4.524874-22.452483,13.491796-24.811403,18.309531-26.079033.899067-.236901,1.780767-.354461,2.637382-.354461,1.979373,0,3.823818.628471,5.430175,1.866414,4.541053,3.500974,7.212873,11.625382,7.551303,22.923911-4.154827-.792937-8.416082-1.349269-12.677633-1.654747-10.255481-.735938-17.855322,2.79977-18.173565,2.950579l-3.324634,1.575186.24744-1.227849ZM125.983536,383.712793c-23.519727-7.495046-42.570391-20.198656-56.622675-37.758148-12.770998-15.958479-21.162292-35.514116-24.941134-58.12305-5.167595-30.9174-1.2136-66.026587,11.133173-98.859088,12.258009-32.597084,31.608511-59.92445,54.50125-76.959671l.081342-.065014c6.187339-5.213016,8.961281-11.281311,7.419939-16.232489-1.06665-3.425569-4.039494-5.696912-7.952521-6.075717-.42096-.040968-.840139-.060858-1.259614-.060858-8.533493,0-16.697088,8.281155-21.842715,16.620793-8.394262-17.139423-5.38609-33.08662-1.324035-43.526605,5.347794-13.745322,15.851309-26.182343,28.817647-34.121802,20.435854-12.512723,47.041532-15.238869,66.204709-6.783749,14.147579,6.24226,23.219889,17.818362,26.23667,33.476409,9.06756,47.285558-8.451261,85.101298-21.246899,112.721673-4.543874,9.808545-8.467885,18.279696-10.83393,26.013128-6.092638,19.913365-5.182142,39.554798,2.497854,53.88792,5.175907,9.660704,13.201161,16.931021,23.864095,21.626594-1.626247.850232-2.663507,1.953397-3.281884,2.808379-2.871018,3.972698-2.400184,10.420095,1.071993,14.678084,3.092779,3.792499,7.635168,4.851727,12.12145,2.845784,1.991693-.769484,3.87295-1.799322,5.621211-3.074967-1.735792,3.057749-3.565394,6.180808-5.459714,9.318118-8.327763,12.65997-15.163167,27.459472-18.754686,40.606901-4.990958,18.267821-1.854836,25.14063.458365,27.611469.365149.390679.868044.99926,1.450501,1.70373,2.281734,2.759989,6.442646,7.792212,12.89509,12.35657-11.112986,4.734463-45.269225,16.868085-80.85548,5.365607Zm142.09966-32.820923c-1.412353,1.079712-2.778247,2.189704-4.061907,3.301181-3.180801,2.753755-9.503661,10.71726-19.292018,24.29782-1.148882,1.299395-1.992732,2.540603-2.49251,3.340961-.257088.24655-.444709.564644-.543864.927418l-.318689.599081.170106.057741c-1.369604,6.699438-3.690673,15.671407-7.127077,21.485136-3.726742,6.304602-9.207682,10.654918-15.037592,11.935907-2.705068.593738-5.798441.607394-9.195214.040077-3.505427-.585722-8.231578-2.032067-10.83868-5.594789-1.224287-1.673152-1.781806-4.006244-1.455845-6.088185.174856-1.11593.680126-2.661726,2.094706-3.689485,1.726292-1.254271,4.147257-1.410127,6.711016-1.574889.797983-.051061,1.702543-.108951,2.57504-.207808,7.919272-.895208,15.360288-5.913478,19.237543-12.877871,2.986945.230073,5.829612.224136,6.34943-.105685.175449-.111326.287666-.279947.31572-.47499.099748-.693931.115927-.846818-6.892403-2.856175-.06917-.046163-.135817-.095592-.211222-.133591-.309486-.156153-.645986-.219683-.983229-.20766-1.451837-.413687-2.817433-.803475-3.804819-1.10925-14.608913-4.524874-22.737181-14.355981-26.207874-18.553706-.622534-.753453-1.159866-1.404189-1.615857-1.892242-2.88794-3.08417-2.731193-12.155886.408491-23.674098,3.511364-12.880246,10.028821-26.941436,18.364897-39.612687,13.566162-22.473561,22.787055-42.2756,26.665497-57.265099.617636-2.386528,1.104946-4.698542,1.451095-6.882309l.054772.007422.081342-.602644c.865966-6.413256.746773-11.8133.581863-15.317242-.390679-8.302233-3.983682-10.743681-4.136421-10.843429l-1.231709-.805108.304291,1.439814c.005344.025531.504083,2.415324.449756,4.496078-3.737875,1.30741-10.233809,4.178725-13.236043,6.592565-7.890772,6.343492-13.29705,19.075007-6.530817,32.018486,2.190892,4.589888,6.836888,16.069508,2.666475,23.518539-3.114154,5.688897-7.224896,9.547597-12.23515,11.475463l-.087873.037109c-3.632487,1.632481-6.014859-.012468-7.374221-1.680277-2.327451-2.854393-2.743661-7.220146-.927715-9.73225,2.226219-3.081201,7.350174-3.288119,14.426933-.584535l2.689631,1.028353.065311-2.87933c.054921-2.428387-.519817-4.910804-1.708183-7.37808-2.464011-5.115049-6.894481-8.965141-10.825617-12.380022l-.116966-.091732c-4.960974-3.603096-8.634726-8.870736-10.623747-15.234119l-.231558-.718422-.264213.151106c-1.170554-1.138789-5.266452-5.369763-7.010853-10.399907h4.485687s-1.047353-6.389507-1.047353-6.389507l2.699131-2.576227.086092-.727329c.067092-.572363.320618-3.346008-.67983-5.752723.781952-.173668,1.842961-.171293,2.726443-.059671l.243729,1.722136.692001-1.58142.140716.020781.116966-.600862c3.755093-8.324201,10.484812-15.837059,19.457374-21.724561,1.069321-.677751,2.066801-1.317504,2.999859-1.921929l.063233-.036218c18.783037-10.752291,25.923176-31.847787,18.636384-55.046302-1.586615-5.293467-4.187928-11.403324-6.94198-17.871501-7.980575-18.745186-17.025574-39.991492-6.26408-51.064697,5.110745-5.258437,10.145936-7.010556,14.965453-5.207375,6.111341,2.286187,12.987861,11.549977,15.964268,23.983881.736977,3.078381,3.310235,10.265574,3.310235,10.265574,0,0,1.471579-7.422907.668697-10.791477,7.639621-.234972,15.697828-2.347787,15.780951-2.369607l.167582-.04453-.627877.297463,4.529179-.82292c.049577-.009203,5.09219-.888528,17.620053-.019296,6.644666.477068,13.042782,1.533624,19.016821,3.140278,23.659255,6.361008,39.522587,20.559351,47.15731,42.203164l-.066795.030281.36218.830342c.390828,1.150663.734305,2.234531,1.039041,3.271791.868787,4.009807.26169,7.944803-1.804665,11.695443-4.034595,7.322862-15.804255,17.564242-48.961827,24.766279-.334423.072436-1.712933.424522-4.183475,1.068431-8.072901,1.656825-14.659232,1.763401-19.576567.317946-6.101841-1.793978-8.799933-5.072003-8.825612-5.103768l-1.175749-1.470985.093662,1.880961c.011875.236901.373906,5.828128,7.760595,8.329841,6.419491,2.174564,15.401256,1.897585,26.496727-.881107,23.695473,7.622106,42.94118,23.826392,47.911506,40.334969.113701.447678.354907,1.272083.858545,2.655194.52145,1.431501,1.469797,2.596414,2.265703,3.389054l-1.431501,3.982198.87324.906044c.010094.010687.960964,1.002229,2.798285,2.699725-.995104.981448-2.728076,2.447683-4.400189,3.711454l-2.157494,1.681762,2.223696,1.595373c.010242.007719.959777.738313,2.428238,3.089217-4.78597,1.473063-7.939904,5.727193-8.297037,6.226823-1.742471,2.382372-3.751234,4.407314-5.990961,6.034452l-.118748.095295c-3.909465,3.397366-8.34038,7.248051-10.803501,12.361616-1.18896,2.468761-1.763549,4.950881-1.707738,7.377486l.064421,2.879034,2.690077-1.028057c7.07661-2.703287,12.200714-2.496073,14.427229.584535,1.81565,2.512104,1.399439,6.877856-.928012,9.73225-1.359362,1.668699-3.74218,3.314243-7.391884,1.672262l-.086537-.035327c-4.993333-1.921335-9.106599-5.784191-12.228471-11.48615-.335759-.599972-.626245-1.25813-.864482-1.958443.264955-1.727183.652666-3.341852,1.09975-5.203813.323587-1.348378.690517-2.876362,1.050916-4.631747l1.491172-7.259036-3.11445,3.428538c.919106-3.203808,2.123948-6.013077,3.023015-7.897304l.05403-.126466c5.426168-14.126204.411015-26.936983-5.129893-30.391645-2.157494-1.344519-4.519234-1.461485-6.583808-.35268-2.254125-5.354325-5.057754-9.847138-8.33949-13.362658-9.418459-10.088789-21.330023-11.255483-29.470462-11.255483h-.065756c-5.967805.00475-14.693075.932762-22.369805,5.326717-8.903837,5.096643-14.397691,13.613215-16.328674,25.313111-1.746776,10.588419,3.182137,26.890672,8.889439,45.767371,8.336076,27.574064,18.705702,61.877549,9.491044,87.081116Zm-41.009158-84.908036c-.305181-6.162105-2.667218-12.361616-4.747377-16.716978l-.009797-.019593c-5.573415-10.664418-1.289004-21.259071,5.429433-27.027825,2.044981-1.756276,7.846539-4.356549,11.113283-5.625367.328485,3.732828.495622,9.280415-.327892,15.76492l-.018851.112216c-1.291379,8.754067-5.236023,20.300778-11.4388,33.512627Zm108.403717-42.009606c.578152,2.251156.890755,4.840742.774828,7.648824l-1.338433,1.205881c.320173-1.674934.642869-3.415179.610362-5.649116l-.046757-3.205589Zm-2.990062,1.471579c-.891794.509427-1.509578.654002-1.741284.654002-.069022-.164168-.149473-.483302-.187621-.634409l-2.477073-9.814482c.816538-.494287,1.653262-.439663,2.630406.169809,1.781955,1.110883,3.657572,3.988729,4.712347,7.949256l-2.936775,1.675824Zm-23.667122,112.192356c-.139528-.041562-.272526-.076889-.404187-.107467-6.895371-1.60131-20.059721-.009203-34.902121,9.541957,6.704485-25.757227-3.114302-58.237344-11.036839-84.44314-5.559313-18.389537-10.360424-34.271424-8.767426-43.925003,3.712344-22.494342,20.916336-27.229102,34.694462-27.23979h.061155c7.383721,0,18.164511,1.033103,26.503258,9.966182,4.114156,4.40672,7.392478,10.490156,9.743679,18.081387l.534512,1.725698.033249-.091436,1.340956,5.314248c.168621.667361.423335,1.676121,1.210037,2.500526.523231.547723,1.618529,1.35105,3.433733,1.164023-.100193.689032-.228292,1.358472-.362031,2.057004-.327149,1.710558-.66558,3.479302-.632479,5.764004l.065163,4.474703,2.460597-2.217313c-.284103,2.46223-.836576,4.936928-1.374057,7.34394l-3.884825,17.399777,3.304298-3.63694c-.582605,2.729412-.945379,5.354325-.875021,9.090716.046608,1.281583.432389,2.202173,1.179014,2.814019.540747.443819,1.121422.603534,1.643911.640049-.843553,2.786114-1.76533,5.060425-2.659202,7.26616-1.194748,2.948204-2.3276,5.74352-3.243292,9.519691l-.07778-.042749-.146802.839545c-.047499.272229-.097373.539114-.147247.805702l-.077037.415616c-.101232.502599-.197418,1.026869-.288408,1.552624-2.575337,13.277753-6.371101,23.169422-9.101997,29.129656-3.459412,7.549967-6.745007,12.318867-8.227273,14.296607Zm3.484201,2.141018c3.458967-4.645106,13.475468-19.976004,18.262626-47.016001.891349-4.105992,2.074371-7.0254,3.32686-10.116398.632331-1.560045,1.333238-3.289603,2.0147-5.258734.063975.124388.128396.249667.19341.375836,3.524575,6.839263,8.766535,14.039816,13.844773,21.015342,8.967812,12.316492,18.240954,25.05246,18.240954,35.921124,0,5.090409-7.025548,17.333278-15.749928,24.902542-4.103914,3.560644-11.317974,7.253692-18.378701,9.408366-8.311881,2.537634-8.195063,3.41696-8.150978,3.747968.015882.119638.080897.345258.337985.510021.788038.505271,4.663067.431202,7.454524-.032359,4.177092,5.483463,10.556803,9.161965,17.320364,9.926402.860177.097076,1.730745.153481,2.578602.208105,2.561978.165059,4.981755.321212,6.707453,1.575186,1.415174,1.02776,1.920296,2.573852,2.094706,3.690079.326407,2.081941-.231409,4.414439-1.455696,6.087295-2.605914,3.561238-7.332511,5.00788-10.838531,5.594195-3.395882.567019-6.489849.55366-9.195362-.039187-5.830503-1.280989-11.311591-5.631898-15.03774-11.936797-3.521161-5.957563-5.239586-12.921808-6.571933-19.560685-.006234-.031023-.019742-.058335-.02746-.088764-.139083-.630252-.265846-1.133445-.382367-1.594185-.16595-.65608-.309189-1.222803-.437881-1.973881-.361735-2.113409-.621198-4.521312-.850232-6.645705-.749297-6.959198-1.595818-14.816128-5.300147-18.699765Z" stroke-width="0px" fill="#0c0c0c" /><path d="m305.374753,91.504487l-.000391-.000608h-.000043c-.836407-1.26872-2.36435-1.999198-3.960799-1.736936-2.165255.355731-3.632201,2.399341-3.276514,4.564639.127245.774673.473209,1.457396.960874,2.001803l-.001346.001042c5.546786,8.909215,2.779037,20.755536,2.779037,20.755536l7.841153-1.288082c2.050078-13.331805-3.48924-22.912586-4.253798-24.15656-.02861-.047625-.05774-.094598-.088173-.140834Z" stroke-width="0px" /><path d="m351.070046,83.699064c-.028783-.047929-.058131-.09525-.088781-.141789l-.00013-.000217h0c-.83645-1.26872-2.364393-1.999198-3.960843-1.736936-2.165255.355688-3.632201,2.399341-3.276514,4.564596.127245.774673.473209,1.457439.960874,2.001846l-.001346.001042c5.546829,8.909215,2.779037,20.755536,2.779037,20.755536l7.841153-1.288082c2.049861-13.330025-3.487808-22.909981-4.25345-24.155995Z" stroke-width="0px" /><circle cx="301.961288" cy="93.844101" r="2.717458" stroke-width="0px" fill="#fff" /><path d="m350.403939,86.054072c0,1.500811-1.216647,2.717458-2.717458,2.717458-1.500811,0-2.717458-1.216647-2.717458-2.717458,0-1.500811,1.216647-2.717458,2.717458-2.717458,1.500811,0,2.717458,1.216647,2.717458,2.717458Z" stroke-width="0px" fill="#fff" /><path d="m317.556877,211.74405c-13.896549-17.014806-40.529696-18.449588-50.664291,2.788636-2.891079,5.930444-4.026954,12.761983-3.024359,19.279321l-4.465256-2.405499c1.87281-.730375,5.737432-2.308675,7.58052-3.032185,1.653876,5.196203,3.186484,10.543613,4.195999,15.896908.000046-.000015-4.305723-1.380268-4.305723-1.380268,1.824739-1.458499,4.006264-2.376859,6.25031-2.693773l2.759945-.389732.023212,2.555065c.033694,3.665857-.23324,7.326753-.867069,10.914738l-2.276992-1.699601c2.726216-.905179,5.54197-1.051984,8.324764-.811888-.134987.788098-.974486,5.363245-1.127254,6.238859-.317821,1.703162-.657582,3.403594-1.020936,5.100004-.161456-2.971681-.238147-7.360169-.285267-10.38737-.000029-.000054,1.13697,1.207703,1.13697,1.207703-2.916892.240686-5.618604,1.565329-8.106836,2.934147-.000036-.000114.054624-2.909906.054624-2.909906.064768-3.4504-.110068-6.885263-.540982-10.276136l2.783157,2.165146c-2.657696.496236-4.855487,3.348531-6.678212,5.088374-1.516811-5.444518-3.234187-11.1126-5.264605-16.368132.000026-.000003,4.189363,1.856652,4.189363,1.856652-1.957056.898644-5.978386,2.724982-7.925268,3.617467-.000028.000001-.814684-4.071966-.814684-4.071966-3.23266-15.801292,5.190832-33.933326,20.672289-39.677325,14.773862-5.666373,33.007162,2.424773,39.396582,16.460763h0Z" stroke-width="0px" fill="#eeddcf" /><path d="m347.646852,122.259262c2.824558-1.331011,6.498903-2.75895,10.924029-3.761031,4.027916-.912129,7.630715-1.23438,10.560068-1.299692.769484.004008,1.934842.123052,2.84712.901145,2.283812,1.947905,1.311269,6.573417.865521,9.033717-.573254,3.164028-4.435945,8.261616-7.771283,9.765796-3.534225,1.593875-11.271366-3.528731-11.271366-3.528731,0,0-6.685782-4.377033-8.39159-7.987403-.589581-1.247591.666025-2.753606,2.2375-3.123802Z" stroke-width="0px" /><path d="m350.556015,126.523217c-.170106,0-.339173-.070952-.459404-.209589-.597894-.688736-.393945-1.721542.148583-2.321811.491169-.543567,1.181983-.788484,1.686512-.967495,4.877554-1.732229,9.932636-3.082092,15.024529-4.012182-7.999767,2.832971-9.801272,3.447537-14.617819,5.158095-.495771.175746-.92727.344962-1.191038.636784-.19623.217308-.260651.561973-.132552.709813.220128.253526.192965.637377-.060561.857654-.115037.099748-.257088.148731-.398249.148731Z" stroke-width="0px" fill="#fff" /></g></g></svg>