<?xml version='1.0' encoding='utf-8'?>
<svg viewBox="0 0 432 432" width="432px" height="432px" xmlns="http://www.w3.org/2000/svg" xmlns:xlink="http://www.w3.org/1999/xlink" version="1.1"><g isolation="isolate"><g id="Layer_1"><path d="M 197.646942 208.584146 C 197.35897599999998 208.097254 190.379991 209.189821 190.379991 209.189821 L 191.35565499999998 214.138869 L 189.708305 217.816263 L 189.113622 223.499492 L 184.59664999999998 224.626768 L 187.318325 231.286152 L 193.939549 239.384698 L 198.430092 227.51121899999998 L 197.646942 208.58414599999998 Z M 361.500969 383.303578 C 358.636842 381.222372 354.76716799999997 381.54341600000004 351.249187 381.145573 C 344.320111 380.361914 337.877051 376.22746 334.17026500000003 370.33544900000004 C 341.58783100000005 368.15539 349.166983 364.35409300000003 353.76327100000003 360.36629000000005 C 361.40046700000005 353.7401540000001 370.21260900000004 340.80146 370.21260900000004 333.92986300000007 C 370.21260900000004 316.01470700000004 347.59475800000007 294.87209500000006 337.90140600000007 276.06348700000007 C 335.51747700000004 271.43776500000007 333.30229600000007 266.9375080000001 331.35002900000006 262.55464100000006 C 332.0994790000001 244.26295900000005 329.6516440000001 225.36583000000007 325.44251900000006 214.50934000000007 L 325.76026300000007 214.18269600000008 C 332.30369600000006 207.13297400000008 342.8825560000001 223.5823110000001 336.08897400000006 241.26793900000007 C 332.70614000000006 248.35339100000007 329.2921790000001 259.16642400000006 333.47325900000004 266.6354350000001 C 337.44656100000003 273.8924140000001 342.46456900000004 277.3783550000001 346.74424200000004 279.0241220000001 C 360.91796800000003 285.40701100000007 367.380217 253.0958520000001 340.72780700000004 263.27964800000007 C 340.68265700000006 261.28631100000007 341.12538900000004 259.1333860000001 342.23538900000005 256.8289030000001 C 344.44340600000004 252.24490100000008 348.47401500000007 248.65259700000007 352.54161100000005 245.11772900000008 C 356.847298 241.9912170000001 362.31073000000004 235.8123610000001 367.23116600000003 233.10110100000009 C 370.32971200000003 231.3937390000001 362.511564 230.0885890000001 368.83783900000003 221.85439000000008 C 370.01923400000004 220.31670200000008 366.02616100000006 217.13478800000007 367.313172 214.7026380000001 C 368.635269 212.20418300000009 365.072162 210.42326000000008 364.33491300000003 207.5314070000001 C 360.400189 192.09749100000008 347.028476 176.41255600000008 320.160252 167.9783490000001 L 318.24158700000004 167.6725000000001 C 318.89352900000006 166.4551820000001 319.402164 165.1601100000001 319.73996500000004 163.7787310000001 C 352.97692000000006 156.2700400000001 369.19620900000007 144.2199790000001 366.66489 125.7433110000001 C 349.815713 81.15807600000011 320.795176 80.95724500000011 312.027446 76.5140330000001 C 312.027446 53.2306520000001 303.202974 45.157149000000096 293.817859 47.6269070000001 C 288.23682 49.0955900000001 278.739306 51.925464000000105 274.034484 75.2683220000001 L 257.65508500000004 80.5001420000001 C 252.89946900000004 62.0312450000001 237.62212500000004 45.467339000000095 223.25790100000003 59.7436510000001 C 201.79029500000004 81.0799310000001 243.95504600000004 127.7966880000001 238.24124700000004 156.4039270000001 C 236.68187300000005 160.4260700000001 235.40742200000005 163.9785640000001 234.38103700000005 167.12709400000008 C 232.37953800000005 171.53257900000008 228.80724800000004 178.82693700000007 226.71432000000004 179.7351500000001 C 183.30008100000003 198.5747120000001 184.32811600000005 238.9403590000001 204.05891700000004 253.2676390000001 C 208.12651400000004 256.8025070000001 212.15712200000004 260.39481100000006 214.36513900000003 264.97881300000006 C 215.47518200000002 267.28329500000007 215.91787100000002 269.43622100000005 215.87276400000002 271.42951400000004 C 212.22189500000002 270.03454700000003 209.196312 269.44108300000005 206.72286400000002 269.43214000000006 C 184.35564000000002 261.12711200000007 160.327672 239.78957300000008 179.83602100000002 185.00474000000006 C 236.23367000000002 72.50309100000005 208.47547200000002 18.30842300000006 160.44923000000003 16.399135000000058 C 91.76886600000003 13.668722000000058 67.04063500000002 72.20935500000006 86.42725300000002 110.39529000000006 C 86.42725300000002 110.39529000000006 105.06715600000003 81.23752300000007 115.21361600000003 94.23968900000006 C 122.34369700000003 103.37652200000005 100.60875000000003 113.54286500000006 79.82855500000002 139.83086100000006 C 50.26335100000002 177.23222500000006 24.86741900000002 254.49042800000007 52.153668000000025 321.2943250000001 C 90.47323000000003 402.2061760000001 176.41528800000003 399.34348100000005 211.711699 378.3461740000001 L 211.713088 378.34048700000005 C 217.485842 381.73395700000003 224.818751 384.51950600000004 234.028606 385.37041300000004 L 227.156141 385.08674800000006 C 223.706754 391.93576900000005 216.662893 396.84242100000006 209.042889 397.70422500000006 C 205.524909 398.1020680000001 201.655191 397.78102400000006 198.791107 399.86223000000007 C 194.994324 402.6211660000001 194.935282 408.69356100000005 197.70680800000002 412.48122700000005 C 200.478247 416.26893600000005 205.22066600000002 418.10607100000004 209.84977400000002 418.87961500000006 C 213.14643100000004 419.4304470000001 216.55092800000003 419.53733200000005 219.81541600000003 418.82026900000005 C 226.78816600000002 417.28859300000005 232.53274500000003 412.079825 236.16533700000002 405.93414800000005 C 239.797973 399.78842800000007 241.57532700000002 392.73935600000004 242.98006100000003 385.7399070000001 L 240.35618500000004 385.6315900000001 C 240.75702300000003 385.62902900000006 241.14826700000003 385.63749400000006 241.55535600000005 385.62777000000006 C 246.42827600000004 378.80410200000006 260.135999 359.4673670000001 265.34476700000005 354.95729900000003 C 282.42881200000005 340.16501600000004 299.84805400000005 336.857114 307.95181600000006 338.737836 C 316.6232980000001 340.750318 314.4494040000001 361.378739 317.57657500000005 369.170314 L 317.31201200000004 369.181254 C 318.71674700000005 376.18070300000005 320.49410100000006 383.229775 324.12669300000005 389.375495 C 327.75932900000004 395.521172 333.503907 400.729939 340.47665700000005 402.261616 C 343.7411450000001 402.978679 347.14564200000007 402.871795 350.44225600000004 402.320962 C 355.071451 401.547418 359.81382600000006 399.710283 362.58526600000005 395.922574 C 365.35674900000004 392.134908 365.29775000000006 386.062514 361.50096700000006 383.303577 Z M 258.781627 86.28605300000004 C 258.52757 84.35892200000004 258.14939400000003 82.42011300000004 257.655434 80.50162100000004 C 257.659168 80.51377700000005 258.32752 82.71445700000004 258.781627 86.28605300000004 Z M 225.06799 273.92354300000005 C 224.607675 273.86120100000005 224.136898 273.79391000000004 223.656179 273.72140900000005 C 226.985961 266.3176920000001 223.737276 256.1741400000001 220.511556 249.41780700000004 C 217.129185 242.94582200000005 217.360384 235.46431200000004 219.442283 229.03710700000005 C 222.94004 218.23888800000006 234.825353 217.23236000000006 238.998583 214.77374000000006 C 243.61776799999998 220.95063900000005 242.80528 239.23987300000005 225.06799 273.92354300000005 Z &#10;" stroke-width="0px" fill="#c56439" /><path d="M 333.325552 262.876347 L 334.547906 254.211855 L 331.344848 256.89256 C 331.348495 255.839693 331.34502200000003 254.80280100000002 331.334081 253.781887 L 335.017988 236.726929 L 334.076954 236.31641000000002 C 334.076954 236.31641000000002 332.568764 237.515147 332.300989 237.91681000000003 C 332.03321400000004 238.31847300000004 333.494169 227.20979300000002 333.494169 227.20979300000002 C 333.494169 227.20979300000002 331.212522 227.242093 328.934522 227.25477 C 322.208014 192.644902 302.79448 188.65258500000002 288.397652 188.663699 C 277.349578 188.672208 255.96020299999998 191.794169 251.70115199999998 217.603399 C 247.44175399999997 243.41262899999998 285.9038 308.784701 269.788139 351.36861 L 269.338374 352.481735 C 269.338374 352.481735 290.10623899999996 336.180264 307.957404 339.508526 C 311.43883 341.129417 309.4583 339.332788 309.4583 339.332788 C 309.4583 339.332788 323.88534400000003 322.72117 329.215149 287.619165 L 331.990148 281.93944600000003 L 335.017988 272.36187800000005 L 331.350231 270.5727150000001 L 333.325551 262.87634700000007 Z &#10;" stroke-width="0px" fill="#e7caae" /><path d="M 347.67154 120.514043 C 344.703952 120.98892000000001 341.702263 121.473395 338.936074 122.648251 C 335.025827 124.309012 331.785233 127.264388 327.917117 129.021043 C 316.476044 134.216857 300.705013 128.76367499999998 289.15294400000005 133.707796 C 281.14137300000004 137.136635 277.53426800000005 145.333564 278.50027100000005 153.99434 C 279.50518700000003 163.003998 287.33344900000003 169.429293 296.3938160000001 169.123423 C 300.05927700000007 168.99968 303.8470050000001 167.945129 307.42723700000005 167.149612 C 319.558732 164.45403 350.68238600000006 159.916605 364.25050500000003 140.60090599999998 C 365.086676 139.41052499999998 366.709314 133.71161899999998 366.44846900000005 130.66367499999998 C 366.02974800000004 125.77097099999999 365.089082 119.73298099999998 363.98366200000004 119.23248399999999 C 359.47233600000004 117.18990599999998 352.66239700000006 119.71540099999999 347.67154100000005 120.51404399999998 Z &#10;" stroke-width="0px" fill="#e7caae" /><path d="M 297.631884 120.023132 C 300.35894 114.19170100000001 308.593576 112.857704 313.761363 116.17523200000001 C 314.492185 116.68579600000001 315.22148100000004 117.30333900000001 315.591745 118.14963 C 313.954458 117.858763 312.48819100000003 117.97147700000001 310.898868 118.013883 C 310.898865 118.013917 308.667921 118.113877 308.667921 118.113877 C 304.83578 118.220868 301.478591 119.04691100000001 297.63188299999996 120.023132 L 297.63188299999996 120.023132 Z &#10;" stroke-width="0px" /><path d="M 337.202208 80.896264 C 337.436372 75.694517 344.11720299999996 72.978959 348.31762299999997 75.63094600000001 C 348.90352299999995 76.02386700000001 349.48306599999995 76.52741100000001 349.73315399999996 77.228723 C 348.45284 77.253455 347.454824 77.570046 346.29969199999994 77.843244 C 345.44398599999994 78.066285 344.1720859999999 78.34917 343.34730999999994 78.592565 C 341.7133119999999 79.02726299999999 338.85462199999995 80.24648699999999 337.2022079999999 80.89626399999999 L 337.2022079999999 80.89626399999999 Z &#10;" stroke-width="0px" /><path d="M 341.949373 111.01662 C 344.676653 105.18493000000001 352.911225 103.851417 358.079227 107.16872000000001 C 358.809675 107.67928400000001 359.539345 108.29692100000001 359.909235 109.143118 C 358.271948 108.852251 356.80568100000005 108.964965 355.216358 109.007371 C 355.216355 109.007405 352.985411 109.107365 352.985411 109.107365 C 349.153349 109.21435100000001 345.796036 110.040403 341.949373 111.01662 L 341.949373 111.01662 Z &#10;" stroke-width="0px" /><path d="M 250.561588 98.473008 C 250.546202 96.717362 250.530817 94.961716 250.515431 93.206069 C 250.463866 87.32202 250.38520400000002 81.288956 248.267788 75.798852 C 246.15037199999998 70.308748 241.525702 65.38977 235.687108 64.657973 C 229.968716 63.941244 224.018495 67.832754 222.383059 73.358969 C 222.383059 73.358969 243.404373 62.606443 250.561589 98.473008 Z &#10;" opacity=".35" fill="#754123" mix-blend-mode="multiply" stroke-width="0px" /><path d="M 222.382939 73.359015 C 223.61972599999999 66.262597 230.626049 61.430372 237.728958 63.269841 C 243.49787800000001 64.621808 247.751172 69.630684 249.293844 75.178359 C 250.984531 80.344605 251.50581 86.000418 250.561531 91.294168 C 250.013842 87.019565 249.231008 82.915494 247.855154 79.00086 C 246.499526 75.205254 245.033214 71.452526 241.920015 68.827623 C 235.074519 62.908136 226.338278 65.499567 222.38294000000002 73.359014 L 222.38294000000002 73.359014 Z &#10;" stroke-width="0px" /><path d="M 342.824259 142.520019 C 338.24726899999996 151.12275799999998 321.267387 163.193717 318.281503 143.84404899999998 L 323.644282 144.91314699999998 L 334.59651499999995 144.38643899999997 L 342.8242589999999 142.52001899999996 Z &#10;" stroke-width="0px" /><path d="M 86.427297 110.395286 C 92.67540199999999 66.29635400000001 123.00135399999999 63.722307 133.007699 71.506918 C 143.313038 79.404918 153.62186 97.740972 133.043059 136.789129 C 106.535245 187.087555 78.215345 321.75735 199.92082 319.949843 C 199.92082 319.949843 188.27190099999999 342.12221999999997 192.991773 360.759481 C 200.82457399999998 370.660457 211.05696899999998 378.673082 211.05696899999998 378.673082 C 211.05696899999998 378.673082 163.56984599999998 401.30881 117.98230899999999 383.070328 C 43.27020899999998 351.614688 34.43350799999999 279.58218500000004 42.234121999999985 232.45820100000003 C 43.690218999999985 223.74534500000004 52.15379999999998 157.59482000000003 105.68611999999999 112.81586800000004 C 131.771111 92.80645700000004 101.512104 78.34640000000005 86.427298 110.39528500000004 Z &#10;" fill="#754123" mix-blend-mode="multiply" stroke-width="0px" opacity=".25" /><path d="M 206.710276 419.598155 C 206.283086 419.598155 205.860758 419.40644000000003 205.58048 419.041766 C 203.27747399999998 416.039627 202.348075 412.617938 203.030884 409.653308 C 203.58935699999998 407.228396 205.209554 405.236232 207.59278799999998 404.044267 C 208.29435199999998 403.693485 209.14977399999998 403.97688899999997 209.501599 404.680537 C 209.85272799999998 405.383491 209.567935 406.23787100000004 208.865329 406.58934800000003 C 207.231935 407.406219 206.173337 408.68640000000005 205.803452 410.29166200000003 C 205.31201 412.42552900000004 206.053515 414.983807 207.837988 417.309389 C 208.31623299999998 417.933156 208.198495 418.82574 207.575075 419.304332 C 207.317024 419.502298 207.01243399999998 419.59815499999996 206.710275 419.59815499999996 Z &#10;" stroke-width="0px" /><path d="M 354.395113 402.793259 C 354.01863 402.793259 353.643189 402.644611 353.363605 402.35078699999997 C 352.82215 401.78119999999996 352.84542 400.88027999999997 353.415007 400.33917299999996 C 356.040316 397.84479899999997 357.21179 395.34070099999997 356.803354 393.09639 C 356.401865 390.89167199999997 354.634409 389.48645999999997 353.841155 389.151654 C 353.117363 388.846022 352.77873700000004 388.011091 353.08436900000004 387.287299 C 353.39000100000004 386.563507 354.22389000000004 386.224533 354.94837700000005 386.530165 C 356.49459700000006 387.183801 359.010504 389.335727 359.602318 392.58654 C 360.013185 394.841965 359.61273700000004 398.375487 355.374525 402.402188 C 355.09945600000003 402.663364 354.746938 402.79325800000004 354.395113 402.79325800000004 Z &#10;" stroke-width="0px" /><path d="M 326.51109 372.679172 C 331.86883500000005 377.589235 344.24974100000003 380.317422 347.247449 380.308959 C 347.247449 380.308959 336.031946 375.38006 333.74955600000004 371.664629 L 326.51109 372.679172 Z &#10;" fill="#754123" mix-blend-mode="multiply" stroke-width="0px" opacity=".25" /><path d="M 356.350871 388.082818 C 359.935403 388.886154 359.78477699999996 391.59741499999996 361.34124199999997 392.049292 C 362.89770599999997 392.501169 363.75125099999997 388.853775 363.70104299999997 387.84069 C 364.52493899999996 388.434278 363.65635899999995 393.354714 363.02599 395.262638 C 362.395621 397.17056199999996 356.57143199999996 399.831614 356.57143199999996 399.831614 L 357.876854 395.664306 L 357.27435199999996 390.191576 L 356.350872 388.082818 Z &#10;" fill="#754123" mix-blend-mode="multiply" stroke-width="0px" opacity=".25" /><path d="M 357.529762 390.915797 C 357.283042 397.414036 345.525546 395.865125 342.721242 395.664293 C 339.916939 395.463462 331.868833 394.459304 324.638814 379.396728 C 321.47461200000004 372.804585 320.61836400000004 364.635355 319.585554 357.389143 L 319.585597 357.3891 C 319.58551 357.388449 319.585337 357.387798 319.58525000000003 357.387146 C 319.063331 353.72577099999995 318.494613 350.30260599999997 317.56182700000005 347.43526599999996 C 313.44803800000005 331.49030799999997 306.72713100000004 326.46617799999996 294.5137040000001 324.76983399999995 C 280.0536220000001 322.76151899999996 254.91001000000009 348.67758999999995 242.98003100000008 375.98680499999995 C 238.3806170000001 385.08678 239.98726900000008 383.1121539999999 237.3763730000001 393.95722599999993 C 234.7655640000001 404.80225499999995 227.17799000000008 413.13684699999993 219.3736090000001 413.8398009999999 C 211.5692270000001 414.5427109999999 205.4437380000001 413.9402169999999 205.1425340000001 409.7226689999999 C 204.9613260000001 415.15618899999987 205.1425340000001 417.6743959999999 205.1425340000001 417.6743959999999 L 209.46045400000008 419.32558999999986 L 222.09112900000008 418.17569299999985 L 232.65679100000008 411.7462639999998 L 241.4443180000001 392.5349069999998 L 245.0081430000001 381.8067479999998 L 266.3299660000001 354.4263349999998 L 286.6811470000001 342.24242999999984 L 302.88176800000014 338.7613079999998 L 310.1118310000001 340.2340719999998 L 313.8013820000001 346.1812619999998 L 315.8690430000001 362.45972399999977 L 316.0247680000001 362.24725799999976 C 316.70644900000013 366.70518699999974 317.6711000000001 371.75966199999976 319.2263930000001 377.37716899999975 C 325.3954270000001 399.6585639999997 340.9063790000001 405.70599599999974 350.84766600000006 402.76693599999976 C 360.78895300000005 399.82783299999977 357.52976200000006 390.9157959999998 357.52976200000006 390.9157959999998 Z &#10;" fill="#754123" mix-blend-mode="multiply" stroke-width="0px" opacity=".25" /><path d="M 217.254631 274.249087 L 219.37259999999998 275.264253 C 219.37259999999998 275.264253 219.476566 271.850122 214.88296199999996 270.327284 C 210.28935799999996 268.80444700000004 216.43942599999997 273.15549400000003 216.43942599999997 273.15549400000003 L 217.25463099999996 274.24908700000003 Z &#10;" stroke-width="0px" /><path d="M 339.336647 262.915294 C 338.39594400000004 263.36483200000004 337.44198200000005 265.322965 337.190939 266.82922 L 339.35665800000004 266.099144 L 340.253659 263.46524900000003 L 339.33664600000003 262.915294 Z &#10;" stroke-width="0px" /><path d="M 204.512675 363.318489 C 208.687748 363.419348 212.915968 363.094746 217.002398 363.956432 C 221.940423 364.997688 226.48561899999999 367.810203 229.620985 371.76466700000003 C 232.756351 375.71913100000006 234.458383 380.78589800000003 234.34624699999998 385.831266 C 232.37868099999997 386.51641 230.214545 386.051061 228.19919099999998 385.522781 C 217.464813 382.709001 206.738294 377.916385 199.83985399999997 369.224107 C 197.52504699999997 366.307369 195.66838599999997 363.029366 192.93304399999997 360.462004 C 196.46230799999998 362.58354799999995 200.44108899999998 363.22013 204.51267599999997 363.31849 Z &#10;" fill="#754123" mix-blend-mode="multiply" stroke-width="0px" opacity=".25" /><path d="M 344.257445 350.82091 C 351.083251 344.829038 361.15645800000004 344.406293 369.057721 339.926977 C 366.75840700000003 345.37163200000003 363.765035 350.522741 360.172983 355.21617100000003 C 358.343198 357.60699600000004 356.338305 359.898547 353.92121399999996 361.69349200000005 C 351.49128099999996 363.49797300000006 348.706846 364.75603700000005 345.93231899999995 365.96547000000004 C 341.2728139999999 367.99657700000006 336.57118499999996 369.93104600000004 331.83131999999995 371.76727400000004 C 330.60842799999995 372.24101600000006 328.53546299999994 373.09713500000004 327.40982599999995 372.29668100000004 C 328.22133799999995 370.62694100000004 330.81992299999996 369.28124 332.0938249999999 367.78764400000006 C 333.61833399999995 366.00022200000006 334.8733239999999 364.00171800000004 336.09849699999995 362.00369400000005 C 338.50643599999995 358.07680500000004 340.74840499999993 353.90123600000004 344.25744199999997 350.82091 Z &#10;" fill="#754123" mix-blend-mode="multiply" stroke-width="0px" opacity=".25" /><path d="M 221.982804 271.038473 C 221.25071699999998 273.668555 220.248079 276.401916 218.10236099999997 278.08986600000003 C 215.27552199999997 280.31362800000005 211.30762899999996 280.12294 207.723348 279.82450300000005 C 204.70245799999998 279.57297500000004 201.681569 279.32144700000003 198.660679 279.069919 C 198.350407 279.04408500000005 197.98968 279.037554 197.786309 279.2733 C 197.585952 279.505552 197.64027299999998 279.856064 197.71169999999998 280.154363 C 198.53888199999997 283.608925 200.55078899999998 287.242034 204.00363499999997 288.076351 C 205.84443999999996 288.521148 207.77826899999997 288.081412 209.58537699999997 287.515046 C 213.12414099999995 286.405961 216.57935799999996 284.754412 219.18544799999995 282.115969 C 222.40611399999995 278.85531100000003 223.98726399999995 274.36816 224.42894999999996 269.87557 C 224.50999199999995 269.051254 225.00806799999995 263.80089999999996 223.94068499999995 263.894483 C 223.18060699999995 263.961123 222.23981199999994 270.11515099999997 221.98280499999996 271.03847299999995 Z &#10;" fill="#754123" mix-blend-mode="multiply" stroke-width="0px" opacity=".25" /><path d="M 336.588963 269.003996 C 338.21392099999997 270.296341 340.05091999999996 271.29121699999996 341.87916099999995 272.275177 C 342.729656 272.732914 343.58439899999996 273.191532 344.49299099999996 273.519138 C 346.44515599999994 274.223021 348.55981699999995 274.294424 350.634016 274.358425 C 352.043859 274.401927 353.486862 274.440979 354.82838399999997 274.005238 C 356.182623 273.56536700000004 357.335788 272.673452 358.458691 271.797929 C 358.989799 272.588093 358.56795 273.652218 358.08759399999997 274.474224 C 357.56434499999995 275.36963199999997 356.97914599999996 276.22883 356.337565 277.043642 C 356.00089199999996 277.47121899999996 355.643623 277.891349 355.200474 278.207244 C 354.570249 278.656495 353.80611799999997 278.868231 353.059433 279.071874 C 351.30800600000003 279.549539 349.475069 280.030459 347.699221 279.653599 C 346.355943 279.368536 345.165661 278.615002 344.018121 277.86080799999996 C 341.730552 276.357358 339.467469 274.78442599999994 337.52851200000003 272.85212699999994 C 335.589554 270.91982799999994 333.97517200000004 268.5974099999999 333.21319900000003 265.96820199999996 C 333.063286 265.45092199999993 332.869092 264.850486 332.85143600000004 264.329571 C 333.71691000000004 266.191888 334.98235700000004 267.726243 336.58896400000003 269.003995 Z &#10;" fill="#754123" mix-blend-mode="multiply" stroke-width="0px" opacity=".25" /><path d="M 343.960622 247.981322 C 345.226364 246.910755 346.618245 246.001031 348.006075 245.09430700000001 C 352.275078 242.3052 356.544082 239.516093 360.813085 236.726986 C 358.515747 242.059574 353.728552 245.83384700000002 349.125452 249.373018 C 347.204908 250.849661 345.259837 252.350008 343.794308 254.279047 C 342.315874 256.225073 341.383021 258.539202 340.769768 260.904939 C 340.466448 262.075053 339.539939 266.534383 337.633464 266.209583 C 336.083953 265.945597 336.934855 261.23976400000004 337.126319 260.121641 C 337.925222 255.45616 340.336064 251.046988 343.960622 247.981322 Z &#10;" fill="#754123" mix-blend-mode="multiply" stroke-width="0px" opacity=".25" /><path d="M 203.385115 248.204047 C 207.652229 251.171049 212.16234500000002 254.07139800000002 215.07085700000002 258.378592 C 218.24653500000002 263.081429 219.153107 268.97938000000005 219.06606100000002 274.653358 C 217.62715000000003 274.501575 216.474308 273.33008500000005 215.85204700000003 272.023833 C 215.22978600000005 270.717581 215.02003000000002 269.26063800000003 214.66318400000003 267.85843800000004 C 213.71957400000002 264.15058400000004 211.68287200000003 260.72800100000006 208.87406200000004 258.130085 C 206.33254900000003 255.77939600000002 203.21151600000005 254.117729 200.70737300000005 251.727245 C 196.85608000000005 248.050748 194.55884700000004 242.817791 192.96880400000003 237.818439 C 195.45507600000005 242.24122500000001 199.27472100000003 245.34601800000002 203.38511500000004 248.204048 Z &#10;" fill="#754123" mix-blend-mode="multiply" stroke-width="0px" opacity=".25" /><path d="M 220.302915 252.788875 C 215.701061 248.53935199999998 213.863371 242.021583 213.517388 235.76731999999998 C 213.098869 228.20179499999998 214.788464 220.13705099999999 219.99812200000002 214.63507099999998 C 225.20778 209.13309099999998 234.491057 207.17720599999998 240.56952900000002 211.70097599999997 C 244.570004 214.67824199999995 246.51711600000002 219.80283099999997 246.778859 224.78272999999996 C 247.040602 229.76262899999995 245.83230400000002 234.69058299999995 244.596272 239.52174499999995 C 241.641309 251.07152499999995 238.476018 262.56749199999996 235.102498 274.00202699999994 C 232.483577 282.87885199999994 226.426088 290.81798699999996 219.815357 297.29525499999994 C 213.20462600000002 303.7725229999999 205.80113400000002 309.47396899999995 199.851131 316.56299099999995 C 208.57514 302.11729999999994 217.299151 287.67160699999994 226.02316100000002 273.22591499999993 C 234.70020000000002 258.85800099999994 240.401337 242.69609599999993 241.08664800000003 225.92533899999992 C 241.22465000000003 222.54817999999992 242.47094800000002 217.6904949999999 240.02512400000003 215.35764399999994 C 237.88648300000003 213.31778599999993 234.54345300000003 216.51930899999994 231.76310800000005 217.52155099999993 C 228.98276300000003 218.52379299999993 225.00658700000005 221.32634299999992 223.33301700000004 223.76231699999994 C 217.01311200000004 232.96129299999993 218.05194200000005 241.85747899999993 220.30291500000004 252.78887599999993 Z &#10;" fill="#754123" mix-blend-mode="multiply" stroke-width="0px" opacity=".25" /><path d="M 334.936599 207.858651 C 336.537051 208.78092800000002 337.954369 209.997389 339.220967 211.341922 C 340.263129 212.44821000000002 341.21255399999995 213.650324 341.955175 214.976404 C 343.864987 218.386706 344.310326 222.482491 343.764256 226.352808 C 343.218186 230.223125 341.738053 233.903882 339.990293 237.40000600000002 C 338.704956 239.97112400000003 337.268384 242.46662800000001 335.690474 244.869322 C 336.875209 239.088367 337.452519 233.18312 337.409835 227.28217 C 337.38620199999997 224.014968 337.129197 220.601133 335.439392 217.804755 C 333.749587 215.008377 330.220575 213.072032 327.151273 214.192099 C 326.871164 214.294318 326.586562 214.421737 326.289093 214.40119900000002 C 325.952252 214.37794200000002 325.658836 214.168515 325.404743 213.94616000000002 C 322.239562 211.17632700000001 322.422018 206.26916500000002 319.999431 202.97365900000003 C 322.332475 203.35142700000003 324.997896 204.61548500000004 327.41662 205.21572200000003 C 329.99854000000005 205.85645800000003 332.61242300000004 206.51932400000004 334.936599 207.85865200000003 Z &#10;" fill="#754123" mix-blend-mode="multiply" stroke-width="0px" opacity=".25" /><path d="M 286.821766 168.740694 C 289.48647500000004 170.100784 292.50117300000005 170.585954 295.468074 170.970689 C 311.890459 173.10027 329.212142 172.873242 343.902578 180.51660099999998 C 337.227531 174.96049299999999 329.313277 171.102265 321.287285 167.78412699999998 C 319.247753 166.940936 317.160232 166.12023699999997 314.962898 165.91436399999998 C 312.600168 165.69299299999997 310.237996 166.19307199999997 307.90066 166.60339699999997 C 303.52148500000004 167.37217199999998 299.03517500000004 167.77932499999997 294.592762 167.42179099999998 C 292.380341 167.243731 290.177933 166.87969299999997 288.047785 166.24852499999997 C 286.61067799999995 165.82270699999998 283.438115 163.75745199999997 282.20511899999997 164.25398899999996 C 282.812938 166.22638799999996 285.04256 167.83257099999997 286.82176699999997 168.74069399999996 Z &#10;" fill="#754123" mix-blend-mode="multiply" stroke-width="0px" opacity=".25" /><path d="M 293.3013 63.624312 C 295.575761 62.753344000000006 298.023504 62.376925 300.259069 61.410484000000004 C 303.07408200000003 60.193547 305.47292500000003 58.036294000000005 306.98073800000003 55.365764000000006 C 309.51216800000003 62.071113000000004 311.02325800000006 69.16060900000001 311.446046 76.315404 C 311.472659 76.765781 311.459273 77.295991 311.093878 77.56063 C 310.87627200000003 77.718232 310.589215 77.733568 310.32054600000004 77.73083 C 308.598287 77.713281 306.926347 77.198562 305.254449 76.78471 C 299.32166 75.316139 293.17099900000005 75.096665 287.08679900000004 75.239031 C 285.542544 75.275166 283.99876500000005 76.555542 282.45573 76.626217 C 280.722867 76.705586 278.328838 77.947829 279.637364 76.236622 C 281.196614 74.19753399999999 283.38798099999997 70.76382699999999 285.260719 69.00659399999999 C 287.33079399999997 67.064195 290.636489 64.644758 293.30130099999997 63.62431199999999 Z &#10;" opacity=".35" fill="#754123" mix-blend-mode="multiply" stroke-width="0px" /><path d="M 278.35064 151.368875 C 284.142667 155.358962 291.022257 157.57107 297.983688 158.574487 C 304.945119 159.57790400000002 312.02172099999996 159.419714 319.04221299999995 158.994213 C 322.10668699999997 158.80848 325.18177799999995 158.570245 328.17490699999996 157.887114 C 330.83953899999995 157.278957 333.41070899999994 156.3247 335.972875 155.373161 C 340.498987 153.69225 345.042569 152.00348200000002 349.28781699999996 149.703694 C 355.745709 146.205247 361.420618 141.32392700000003 366.054921 135.625967 C 364.136554 143.07854 358.839796 149.590987 351.934353 152.98743000000002 C 348.848754 154.50508200000002 345.505909 155.41319800000002 342.28884 156.627552 C 337.594072 158.399695 333.16317399999997 160.826145 328.437911 162.515293 C 323.288868 164.35593100000003 317.86890999999997 165.293933 312.48041 166.223802 C 306.634739 167.232562 300.682523 168.244306 294.799889 167.48004600000002 C 290.460233 166.91624700000003 285.21993000000003 165.367183 281.79744900000003 162.49193200000002 C 278.91246 160.06823100000003 278.04667300000006 154.95474600000003 278.35064000000006 151.36887600000003 Z &#10;" fill="#754123" mix-blend-mode="multiply" stroke-width="0px" opacity=".25" /><path d="M 89.054287 53.242788 C 122.313961 30.359060999999997 175.496447 16.733573999999997 189.576148 74.557593 C 203.655849 132.381612 161.28935099999998 176.652193 173.131778 229.127367 C 166.6983 196.85054399999999 188.325818 169.408525 199.851131 140.598612 C 205.5132 126.515367 224.615483 57.81839000000001 192.968803 28.861410000000006 C 177.94501100000002 6.861469000000007 109.41732100000002 8.445417000000006 89.054286 53.242788000000004 Z &#10;" stroke-width="0px" opacity=".66" fill="#d8b58e" /><g opacity=".66"><path d="M 304.243976 53.952937 C 298.406959 51.363481 293.075948 54.512499 288.249199 57.871646 C 285.840765 59.542182 283.73694 61.369201 281.764572 63.588332 C 279.673088 65.926473 277.98717899999997 68.451708 276.276766 71.216467 C 275.165105 64.241782 279.26923 57.096728999999996 284.989876 53.209385999999995 C 287.924983 51.20495699999999 291.243879 49.583223999999994 294.91091 49.343436999999994 C 298.482257 49.071017999999995 302.727909 50.580000999999996 304.243977 53.95293699999999 L 304.243977 53.95293699999999 Z &#10;" stroke-width="0px" fill="#d8b58e" /></g><g opacity=".66"><path d="M 260.341855 81.767008 C 278.911672 74.75059 301.946153 75.245396 320.60450000000003 81.766722 C 310.460975 82.761589 300.52343900000005 82.430262 290.44435100000004 82.42282900000001 C 281.48198 82.25725100000001 269.25110300000006 82.47449 260.34185600000006 81.767008 L 260.34185600000006 81.767008 Z &#10;" stroke-width="0px" fill="#d8b58e" /></g><path d="M 290.736887 89.713807 C 290.97075 84.512106 297.652014 81.796509 301.852302 84.44848900000001 C 302.438202 84.84141000000001 303.017745 85.34495400000002 303.267833 86.046266 C 301.987519 86.070998 300.989503 86.387589 299.834371 86.660787 C 298.97867099999996 86.883774 297.706803 87.166822 296.881989 87.410015 C 295.248003 87.844874 292.389318 89.06400000000001 290.73688699999997 89.713808 L 290.73688699999997 89.713808 Z &#10;" stroke-width="0px" /><g opacity=".66"><path d="M 239.07508 137.41078 C 240.127949 144.908525 242.340281 152.86386199999998 241.15311200000002 160.43598699999998 C 240.56244600000002 164.31741499999998 239.64610600000003 168.153099 238.39508300000003 171.86558 C 237.00233900000003 175.771932 234.57291200000003 179.369012 231.63189900000003 182.235006 C 228.81102700000002 185.068527 225.49646900000002 187.128219 222.25660100000005 189.35548599999998 C 217.68975900000004 192.51292299999997 213.29093200000005 195.990707 209.02416200000005 199.56867599999998 C 204.92846600000004 203.10995899999998 200.00182500000005 206.565485 195.94244100000006 210.202239 C 197.65144600000005 202.358511 203.95637600000006 196.713755 209.83264100000005 191.74778899999998 C 214.16771500000004 188.021078 218.92335800000006 184.679374 223.70497000000006 181.53976899999998 C 228.00505400000006 178.59437499999999 231.74738600000006 174.842629 233.83693000000005 170.04494799999998 C 235.22330800000006 166.68159999999997 236.44863200000006 163.17029699999998 237.41009700000006 159.67468699999998 C 239.47383100000008 152.38177399999998 238.28368400000005 144.88179099999996 239.07507900000007 137.410779 L 239.07507900000007 137.410779 Z &#10;" stroke-width="0px" fill="#d8b58e" /></g><g opacity=".66"><path d="M 337.042453 177.836164 C 340.29604400000005 179.88962899999999 343.15109800000005 182.13967 345.991392 184.426353 C 354.45407600000004 191.341788 363.627229 200.192846 364.223204 211.865878 C 359.652779 205.911425 355.257905 200.988699 350.051489 195.75655 C 344.993137 190.484873 339.870237 184.801862 337.042454 177.836164 L 337.042454 177.836164 Z &#10;" stroke-width="0px" fill="#d8b58e" /></g><g opacity=".66"><path d="M 205.632692 311.713556 C 202.60492499999998 323.58482 198.673927 336.254703 195.747679 348.091766 C 194.71399 352.14362800000004 193.763405 356.143587 192.94063 360.46202700000003 C 192.563105 359.43763900000005 192.192874 358.36844800000006 191.994213 357.28918500000003 C 189.139251 342.53037500000005 195.23309700000001 322.55055200000004 205.632692 311.71355500000004 L 205.632692 311.71355500000004 Z &#10;" stroke-width="0px" fill="#d8b58e" /></g><g opacity=".66"><path d="M 336.6427 277.485381 C 347.413835 290.42971600000004 373.161252 317.14563000000004 368.796119 334.70026 C 368.281685 331.905757 367.40664 329.378042 366.217628 326.967891 C 362.61634399999997 319.66376 357.64988999999997 313.323161 352.96662299999997 306.595231 C 346.64115799999996 297.525499 340.08394 288.187242 336.6427 277.485382 L 336.6427 277.485382 Z &#10;" stroke-width="0px" fill="#d8b58e" /></g><path d="M 234.571494 386.176909 C 226.680757 390.722411 215.166267 396.747435 215.166267 396.747435 L 227.15614200000002 385.08675 L 234.57149400000003 386.17691 Z &#10;" fill="#754123" mix-blend-mode="multiply" stroke-width="0px" opacity=".25" /><path d="M 196.957308 403.50885 C 196.823419 407.92720099999997 200.773156 410.270265 204.38817 407.391643 C 205.061997 408.657646 203.78566800000002 412.546385 203.78566800000002 412.546385 L 205.102968 416.833842 L 196.354806 411.746014 L 196.95730799999998 403.50885 Z &#10;" fill="#754123" mix-blend-mode="multiply" stroke-width="0px" opacity=".25" /><path d="M 362.694685 381.660836 C 360.016929 379.715455 356.886892 379.51358400000004 353.804504 379.314682 C 352.992271 379.262136 352.224865 379.212559 351.47720100000004 379.127952 C 346.326676 378.545495 341.441997 375.9378 337.95616400000006 372.011413 C 344.65678900000006 369.643291 351.05921000000006 366.176012 355.09929800000003 362.670733 C 363.19491000000005 355.646817 372.24926000000005 342.192724 372.24926000000005 334.70034899999996 C 372.24926000000005 322.51091599999995 362.58217300000007 309.23286599999994 353.23333 296.39210399999996 L 352.73934 296.746565 L 353.23080600000003 296.38883799999996 L 353.22694700000005 296.38319699999994 C 349.15375900000004 290.7892979999999 344.95959700000003 285.02915299999995 341.71704700000004 279.52401799999996 C 343.068839 280.38078099999996 344.48935600000004 281.098016 345.95574000000005 281.663848 C 350.47259900000006 283.68166499999995 355.014691 282.62125 358.10539200000005 278.829345 C 361.57727200000005 274.571356 362.04795800000005 268.124256 359.177088 264.15155799999997 C 357.428531 261.734155 353.042294 258.21091699999994 343.10431500000004 261.10657499999996 C 343.323256 260.23942099999994 343.64654600000006 259.360393 344.07017800000006 258.481364 C 346.17111800000004 254.11947099999998 350.2419320000001 250.58227899999997 353.7929280000001 247.493656 C 356.45020100000005 245.5554 358.81639300000006 243.14601299999998 360.8071950000001 240.35752399999998 C 361.7000280000001 239.233579 364.91660100000007 235.566655 368.8213160000001 235.566655 L 372.15530100000007 235.566655 C 372.15530100000007 235.566655 370.62538800000004 232.604201 370.62538800000004 232.604201 C 369.54508200000004 230.513057 368.45869100000004 228.78646799999999 367.389963 227.46184 C 372.243471 223.553859 372.243174 222.302557 372.243174 221.620056 L 372.243174 220.71341900000002 C 372.243174 220.71341900000002 371.56809400000003 220.107807 371.56809400000003 220.107807 C 370.234411 218.912316 369.21882300000004 217.94868 368.54107100000004 217.28874100000002 L 370.09250700000007 212.97405 L 368.86421200000007 212.081069 C 368.8490720000001 212.06978800000002 367.3399390000001 210.934265 366.83778600000005 209.55530900000002 C 366.63843900000006 209.00788300000002 366.48852000000005 208.568517 366.37660000000005 208.22355600000003 L 366.17903400000006 207.54372600000002 L 365.93901600000004 206.62996400000003 L 365.895525 206.63768300000004 C 360.77721 190.54798800000003 343.486236 174.86292600000004 321.397714 166.19317000000004 C 345.189224 160.23887300000004 360.251753 151.76950300000004 366.181113 141.00682200000003 C 370.27597299999996 133.57471200000003 368.966633 126.86458700000003 367.16167099999996 122.58255100000002 C 357.13418499999995 93.43864500000002 334.34386499999994 81.75982700000003 316.99099399999994 77.09453400000002 C 316.04131099999995 76.83922700000002 315.0392299999999 76.58985700000002 313.86882499999996 76.31822200000002 C 313.57447999999994 59.62172800000002 308.73774499999996 52.41672200000002 304.71012599999995 49.31177100000002 C 301.37510199999997 46.74148100000002 297.37019399999997 45.97318500000002 293.129423 47.088818000000025 C 284.88211099999995 49.25863200000003 276.63791599999996 54.14806100000003 272.14777599999996 74.97132800000003 C 270.72800099999995 75.20941700000003 265.94292099999996 76.19027100000002 259.08584599999995 79.38428300000002 C 258.07634399999995 75.55912900000003 256.70080199999995 71.82496500000002 255.02809499999995 68.44288700000003 C 252.37171299999994 63.07193700000003 247.76950499999995 56.13233200000003 240.93009299999994 53.57332300000003 C 236.48225599999995 51.90996700000003 229.52305799999993 51.63180100000003 221.62991099999994 59.75413100000003 C 208.98567599999993 72.76381200000003 218.59294299999993 95.32999600000002 227.06899299999995 115.23979800000004 C 229.32371099999995 120.53593700000003 231.65220199999996 126.00544800000003 233.23851999999994 130.76009800000003 L 233.22976199999994 130.76336400000002 L 233.41767999999993 131.31643100000002 C 240.78433099999992 153.01843000000002 234.66259899999994 172.75842300000002 217.44346699999994 182.83236900000003 C 216.39255099999994 183.44124700000003 215.45147699999995 184.03439100000003 214.56710499999994 184.64594000000002 C 205.20890999999995 191.11708600000003 198.29839799999993 198.48536900000002 194.02111299999996 206.551294 C 191.96915599999997 206.567622 189.42973999999995 207.06725200000002 188.20842199999996 209.189567 L 187.45853099999997 210.49371200000002 L 188.48747799999995 211.591236 C 189.17858899999996 212.328064 189.38698999999994 214.018732 189.35819399999994 215.34336100000002 L 186.21138499999995 218.34767300000001 L 186.83184099999994 222.13334400000002 L 182.09500299999993 222.13334400000002 L 182.50438499999993 224.50918500000003 C 183.71264099999993 231.51677300000003 189.21421299999992 237.44732100000004 191.04648799999993 239.25643900000003 C 193.35375199999993 246.04315600000004 197.42263599999993 251.70741300000003 202.77933599999992 255.61183100000002 C 206.37085499999992 258.73370300000005 210.44211299999992 262.272082 212.5418659999999 266.63071 C 212.9654979999999 267.510035 213.28878799999993 268.389658 213.5075799999999 269.25651400000004 C 212.0570789999999 268.83466300000003 210.6632799999999 268.53215400000005 209.3514169999999 268.35492300000004 C 195.9780719999999 264.341851 186.2478999999999 256.803758 180.43224099999992 245.94904800000003 C 173.25929699999992 232.56204700000004 172.45982999999993 214.05257500000005 178.23838099999992 195.16637600000004 C 180.5227859999999 187.69923500000004 184.39306499999992 179.34416000000004 188.87815799999993 169.66326900000004 C 201.90149499999993 141.55038800000005 219.73766899999993 103.04828800000004 210.42370699999992 54.47758500000005 C 207.14390099999991 37.45156600000004 197.25906099999992 24.855720000000048 181.83821099999992 18.05148800000005 C 161.5110109999999 9.083082000000049 133.39427099999992 11.910163000000049 111.87336199999991 25.08757500000005 C 76.37379199999992 46.82519800000005 70.16151599999992 86.04483100000004 84.66474399999991 111.40336300000004 L 86.47920599999992 114.57540600000004 L 88.21470099999992 111.35942600000004 C 92.88147799999992 102.71252900000005 101.18371099999992 92.88676600000004 109.21104299999992 93.68207700000005 C 111.47674599999992 93.90116600000005 113.10477399999992 95.08240700000005 113.67773099999992 96.92269700000006 C 114.71439699999992 100.25237700000005 112.42375699999992 104.69828400000006 107.58004599999992 108.79210500000005 C 84.10128699999993 126.27559900000006 64.27431099999993 154.24331000000006 51.751791999999924 187.54278600000004 C 39.15713399999992 221.03463200000004 35.130998999999925 256.88866300000007 40.41437299999993 288.501033 C 44.308994999999925 311.80226400000004 52.981125999999925 331.986076 66.19000599999993 348.492278 C 80.75141999999992 366.687663 100.45222699999992 379.83895 124.74203099999993 387.57980399999997 C 135.02259699999993 390.90206299999994 146.02247599999993 392.58679299999994 157.43619099999992 392.58679299999994 C 183.57133199999993 392.58679299999994 204.64189099999993 383.8757719999999 210.92660299999991 380.97447299999993 C 214.45399799999993 383.0225709999999 218.22630999999993 384.6701929999999 222.1446809999999 385.87340199999994 C 222.6716229999999 386.03534399999995 223.3372029999999 386.18273899999997 224.0847189999999 386.31425199999995 C 220.66033799999988 391.40659099999993 214.9037549999999 394.99810899999994 208.81438199999988 395.686697 C 208.0564759999999 395.772789 207.27749199999988 395.822663 206.4323069999999 395.87699 C 203.4054329999999 396.071736 200.2755449999999 396.27331 197.59719499999989 398.21898799999997 C 195.61381499999987 399.660583 194.2930449999999 401.914411 193.87772599999988 404.56544899999994 C 193.38343899999987 407.72205499999995 194.20220399999988 411.1292179999999 196.06772699999988 413.67991499999994 C 198.7704199999999 417.37325999999996 203.4202759999999 419.86398899999995 209.51528899999988 420.8828419999999 C 211.3867499999999 421.1951479999999 213.20952399999987 421.35367599999995 214.9337379999999 421.35367599999995 C 216.80104299999988 421.35367599999995 218.5899739999999 421.16842999999994 220.25125199999988 420.80328099999997 C 227.17764599999987 419.28212499999995 233.61524599999987 414.23891799999996 237.91316399999988 406.96741399999996 C 241.63782799999987 400.666522 244.0957529999999 391.21496199999996 245.52844199999987 384.20381199999997 L 247.06236299999986 382.19786999999997 C 257.1057309999999 368.227225 263.70616299999983 359.83800999999994 266.68019499999986 357.26267299999995 C 283.55006099999986 342.65613499999995 300.33309299999985 339.82489699999996 307.49816899999985 341.48647199999994 C 311.79697799999985 342.4842479999999 312.73745799999983 351.2118939999999 313.5675029999999 358.91385699999995 C 314.00894699999986 363.01257599999997 314.4239689999999 366.80670799999996 315.3409969999999 369.67950699999994 C 316.7411789999999 376.63870499999996 318.5673669999999 383.96008299999994 322.3788649999999 390.40836999999993 C 326.6767829999999 397.68076499999995 333.1143829999999 402.72397199999995 340.0409249999999 404.2448309999999 C 341.70175699999993 404.6096829999999 343.4897979999999 404.7946319999999 345.3553219999999 404.7946319999999 C 347.0825049999999 404.7946319999999 348.9066149999999 404.63610399999993 350.7770369999999 404.3237979999999 C 356.8724949999999 403.3049439999999 361.5223509999999 400.8145119999999 364.2243029999999 397.1214639999999 C 366.0901229999999 394.5716579999999 366.9088869999999 391.1644949999999 366.4146009999999 388.00788899999986 C 365.9994299999999 385.35595999999987 364.6783639999999 383.1018349999999 362.6946869999999 381.66083399999985 Z M 275.853439 77.09512900000004 C 280.378313 54.64264600000004 289.345235 52.283726000000044 294.16297 51.01609600000005 C 295.062037 50.779195000000044 295.943737 50.66163500000005 296.800352 50.66163500000005 C 298.779725 50.66163500000005 300.62417 51.290106000000044 302.230527 52.528049000000046 C 306.77158 56.029023000000045 309.4434 64.15343100000004 309.78183 75.45196000000004 C 305.627003 74.65902300000005 301.365748 74.10269100000004 297.104197 73.79721300000004 C 286.848716 73.06127500000004 279.248875 76.59698300000004 278.930632 76.74779200000005 L 275.605998 78.32297800000005 L 275.853438 77.09512900000004 Z M 125.983536 383.712793 C 102.463809 376.217747 83.413145 363.514137 69.360861 345.95464499999997 C 56.589863 329.99616599999996 48.198569 310.44052899999997 44.419726999999995 287.831595 C 39.252131999999996 256.914195 43.206126999999995 221.805008 55.552899999999994 188.972507 C 67.810909 156.375423 87.16141099999999 129.048057 110.05414999999999 112.01283600000001 L 110.135492 111.947822 C 116.322831 106.734806 119.096773 100.666511 117.555431 95.715333 C 116.488781 92.289764 113.515937 90.018421 109.60291 89.639616 C 109.18195 89.598648 108.762771 89.57875800000001 108.343296 89.57875800000001 C 99.80980299999999 89.57875800000001 91.646208 97.859913 86.500581 106.19955100000001 C 78.106319 89.06012800000002 81.114491 73.112931 85.176546 62.67294600000001 C 90.52434 48.92762400000001 101.027855 36.49060300000001 113.994193 28.551144000000008 C 134.430047 16.038421000000007 161.03572499999999 13.312275000000009 180.19890199999998 21.767395000000008 C 194.34648099999998 28.00965500000001 203.41879099999997 39.58575700000001 206.43557199999998 55.243804000000004 C 215.503132 102.529362 197.984311 140.345102 185.188673 167.965477 C 180.644799 177.774022 176.720788 186.245173 174.35474299999998 193.978605 C 168.262105 213.89197 169.172601 233.533403 176.85259699999997 247.866525 C 182.02850399999997 257.527229 190.053758 264.797546 200.71669199999997 269.493119 C 199.09044499999996 270.343351 198.05318499999996 271.446516 197.43480799999998 272.301498 C 194.56378999999998 276.27419599999996 195.03462399999998 282.721593 198.50680099999997 286.979582 C 201.59957999999997 290.772081 206.14196899999996 291.831309 210.62825099999998 289.825366 C 212.61994399999998 289.055882 214.50120099999998 288.02604399999996 216.24946199999997 286.75039899999996 C 214.51366999999996 289.80814799999996 212.68406799999997 292.931207 210.78974799999997 296.068517 C 202.46198499999997 308.728487 195.626581 323.527989 192.03506199999998 336.675418 C 187.04410399999998 354.943239 190.18022599999998 361.81604799999997 192.49342699999997 364.286887 C 192.85857599999997 364.67756599999996 193.36147099999997 365.28614699999997 193.94392799999997 365.990617 C 196.22566199999997 368.750606 200.38657399999997 373.782829 206.83901799999998 378.34718699999996 C 195.72603199999998 383.08164999999997 161.56979299999998 395.21527199999997 125.98353799999998 383.712794 Z M 268.083196 350.89187 C 266.670843 351.97158199999996 265.30494899999997 353.081574 264.02128899999997 354.19305099999997 C 260.840488 356.946806 254.51762799999997 364.910311 244.72927099999998 378.49087099999997 C 243.580389 379.790266 242.736539 381.03147399999995 242.23676099999997 381.83183199999996 C 241.97967299999996 382.078382 241.79205199999998 382.39647599999995 241.69289699999996 382.75924999999995 L 241.37420799999995 383.35833099999996 L 241.54431399999996 383.416072 C 240.17470999999995 390.11551 237.85364099999995 399.087479 234.41723699999994 404.901208 C 230.69049499999994 411.20581 225.20955499999994 415.556126 219.37964499999995 416.837115 C 216.67457699999994 417.43085299999996 213.58120399999996 417.444509 210.18443099999996 416.877192 C 206.67900399999996 416.29147 201.95285299999995 414.845125 199.34575099999995 411.282403 C 198.12146399999995 409.609251 197.56394499999996 407.276159 197.88990599999994 405.194218 C 198.06476199999994 404.078288 198.57003199999994 402.532492 199.98461199999994 401.504733 C 201.71090399999994 400.25046199999997 204.13186899999994 400.094606 206.69562799999994 399.929844 C 207.49361099999993 399.878783 208.39817099999993 399.820893 209.27066799999994 399.722036 C 217.18993999999995 398.826828 224.63095599999994 393.808558 228.50821099999993 386.844165 C 231.49515599999992 387.074238 234.33782299999993 387.06830099999996 234.85764099999994 386.73848 C 235.03308999999993 386.62715399999996 235.14530699999995 386.458533 235.17336099999994 386.26349 C 235.27310899999995 385.56955899999997 235.28928799999994 385.416672 228.28095799999994 383.407315 C 228.21178799999993 383.361152 228.14514099999994 383.311723 228.06973599999995 383.27372399999996 C 227.76024999999996 383.11757099999994 227.42374999999996 383.054041 227.08650699999995 383.066064 C 225.63466999999994 382.652377 224.26907399999996 382.262589 223.28168799999995 381.956814 C 208.67277499999994 377.43194 200.54450699999995 367.600833 197.07381399999994 363.40310800000003 C 196.45127999999994 362.64965500000005 195.91394799999995 361.99891900000006 195.45795699999994 361.510866 C 192.57001699999995 358.42669600000005 192.72676399999995 349.35498 195.86644799999993 337.836768 C 199.37781199999992 324.956522 205.89526899999993 310.895332 214.23134499999992 298.224081 C 227.7975069999999 275.75052 237.01839999999993 255.94848100000002 240.8968419999999 240.95898200000002 C 241.5144779999999 238.57245400000002 242.00178799999992 236.26044000000002 242.34793699999992 234.07667300000003 L 242.40270899999993 234.08409500000002 L 242.48405099999994 233.48145100000002 C 243.35001699999992 227.06819500000003 243.23082399999993 221.66815100000002 243.06591399999994 218.16420900000003 C 242.67523499999993 209.86197600000003 239.08223199999995 207.42052800000002 238.92949299999992 207.32078 L 237.69778399999993 206.51567200000002 L 238.00207499999993 207.95548600000004 C 238.00741899999994 207.98101700000004 238.50615799999994 210.37081000000003 238.45183099999994 212.45156400000005 C 234.71395599999994 213.75897400000005 228.21802199999993 216.63028900000006 225.21578799999995 219.04412900000005 C 217.32501599999995 225.38762100000005 211.91873799999993 238.11913600000005 218.68497099999993 251.06261500000005 C 220.87586299999992 255.65250300000005 225.52185899999992 267.13212300000004 221.35144599999992 274.581154 C 218.2372919999999 280.270051 214.12654999999992 284.128751 209.11629599999992 286.056617 L 209.02842299999992 286.093726 C 205.39593599999992 287.726207 203.01356399999992 286.081258 201.6542019999999 284.413449 C 199.32675099999992 281.559056 198.9105409999999 277.193303 200.7264869999999 274.681199 C 202.9527059999999 271.59999799999997 208.07666099999992 271.39308 215.1534199999999 274.096664 L 217.8430509999999 275.12501699999996 L 217.9083619999999 272.245687 C 217.9632829999999 269.8173 217.3885449999999 267.334883 216.2001789999999 264.86760699999996 C 213.7361679999999 259.75255799999996 209.3056979999999 255.90246599999998 205.3745619999999 252.48758499999997 L 205.25759599999992 252.39585299999996 C 200.29662199999993 248.79275699999997 196.62286999999992 243.52511699999997 194.6338489999999 237.16173399999997 L 194.4022909999999 236.44331199999996 L 194.1380779999999 236.59441799999996 C 192.96752399999988 235.45562899999996 188.8716259999999 231.22465499999996 187.1272249999999 226.19451099999995 L 191.6129119999999 226.19451099999995 C 191.6129119999999 226.19451099999995 190.56555899999992 219.80500399999994 190.56555899999992 219.80500399999994 L 193.26468999999992 217.22877699999995 L 193.35078199999992 216.50144799999995 C 193.41787399999993 215.92908499999996 193.67139999999992 213.15543999999994 192.67095199999991 210.74872499999995 C 193.4529039999999 210.57505699999996 194.51391299999992 210.57743199999996 195.3973949999999 210.68905399999994 L 195.6411239999999 212.41118999999995 L 196.3331249999999 210.82976999999994 L 196.4738409999999 210.85055099999994 L 196.5908069999999 210.24968899999993 C 200.3458999999999 201.92548799999994 207.0756189999999 194.41262999999992 216.0481809999999 188.52512799999994 C 217.1175019999999 187.84737699999994 218.11498199999988 187.20762399999992 219.04803999999987 186.60319899999993 L 219.11127299999987 186.56698099999994 C 237.89430999999988 175.81468999999993 245.03444899999988 154.71919399999993 237.74765699999986 131.52067899999994 C 236.16104199999987 126.22721199999995 233.55972899999986 120.11735499999995 230.80567699999986 113.64917799999995 C 222.82510199999987 94.90399199999995 213.78010299999985 73.65768599999996 224.54159699999985 62.58448099999995 C 229.65234199999986 57.326043999999946 234.68753299999986 55.573924999999946 239.50704999999985 57.37710599999995 C 245.61839099999986 59.663292999999946 252.49491099999986 68.92708299999995 255.47131799999985 81.36098699999995 C 256.20829499999985 84.43936799999994 258.78155299999986 91.62656099999995 258.78155299999986 91.62656099999995 C 258.78155299999986 91.62656099999995 260.2531319999999 84.20365399999996 259.45024999999987 80.83508399999995 C 267.08987099999985 80.60011199999995 275.1480779999999 78.48729699999996 275.2312009999999 78.46547699999995 L 275.39878299999987 78.42094699999996 L 274.77090599999985 78.71840999999995 L 279.30008499999985 77.89548999999995 C 279.34966199999985 77.88628699999995 284.39227499999987 77.00696199999996 296.92013799999984 77.87619399999996 C 303.5648039999998 78.35326199999996 309.9629199999998 79.40981799999996 315.93695899999983 81.01647199999995 C 339.5962139999998 87.37747999999995 355.4595459999998 101.57582299999996 363.0942689999998 123.21963599999995 L 363.0274739999998 123.24991699999995 L 363.38965399999984 124.08025899999996 C 363.78048199999984 125.23092199999995 364.12395899999984 126.31478999999996 364.42869499999983 127.35204999999995 C 365.29748199999983 131.36185699999996 364.6903849999998 135.29685299999994 362.62402999999983 139.04749299999995 C 358.5894349999998 146.37035499999993 346.8197749999998 156.61173499999995 313.66220299999986 163.81377199999994 C 313.32777999999985 163.88620799999995 311.94926999999984 164.23829399999994 309.4787279999999 164.88220299999995 C 301.4058269999999 166.53902799999994 294.8194959999999 166.64560399999993 289.90216099999986 165.20014899999995 C 283.8003199999999 163.40617099999994 281.10222799999985 160.12814599999996 281.0765489999999 160.09638099999995 L 279.9007999999999 158.62539599999994 L 279.9944619999999 160.50635699999995 C 280.00633699999986 160.74325799999994 280.36836799999986 166.33448499999994 287.7550569999999 168.83619799999994 C 294.1745479999999 171.01076199999994 303.1563129999999 170.73378299999993 314.25178399999993 167.95509099999995 C 337.9472569999999 175.57719699999996 357.19296399999996 191.78148299999995 362.16328999999996 208.29005999999995 C 362.27699099999995 208.73773799999995 362.518197 209.56214299999996 363.02183499999995 210.94525399999995 C 363.54328499999997 212.37675499999995 364.491632 213.54166799999996 365.2875379999999 214.33430799999994 L 363.8560369999999 218.31650599999995 L 364.7292769999999 219.22254999999996 C 364.7393709999999 219.23323699999995 365.6902409999999 220.22477899999996 367.52756199999993 221.92227499999996 C 366.5324579999999 222.90372299999996 364.79948599999994 224.36995799999997 363.1273729999999 225.63372899999996 L 360.96987899999993 227.31549099999995 L 363.19357499999995 228.91086399999995 C 363.20381699999996 228.91858299999996 364.1533519999999 229.64917699999995 365.621813 232.00008099999994 C 360.83584299999995 233.47314399999993 357.68190899999996 237.72727399999994 357.324776 238.22690399999993 C 355.58230499999996 240.60927599999994 353.573542 242.63421799999995 351.33381499999996 244.26135599999992 L 351.215067 244.3566509999999 C 347.30560199999996 247.75401699999992 342.874687 251.60470199999992 340.411566 256.7182669999999 C 339.222606 259.1870279999999 338.648017 261.6691479999999 338.703828 264.0957529999999 L 338.76824899999997 266.9747869999999 L 341.45832599999994 265.9467299999999 C 348.53493599999996 263.2434429999999 353.65903999999995 263.45065699999986 355.88555499999995 266.5312649999999 C 357.70120499999996 269.0433689999999 357.2849939999999 273.4091209999999 354.95754299999993 276.2635149999999 C 353.59818099999995 277.93221399999993 351.2153629999999 279.5777579999999 347.5656589999999 277.9357769999999 L 347.4791219999999 277.9004499999999 C 342.4857889999999 275.9791149999999 338.3725229999999 272.1162589999999 335.2506509999999 266.4142999999999 C 334.9148919999999 265.81432799999993 334.6244059999999 265.1561699999999 334.3861689999999 264.4558569999999 C 334.65112399999987 262.7286739999999 335.0388349999999 261.1140049999999 335.48591899999985 259.2520439999999 C 335.8095059999998 257.9036659999999 336.17643599999985 256.3756819999999 336.5368349999998 254.6202969999999 L 338.02800699999983 247.3612609999999 L 334.91355699999986 250.7897989999999 C 335.83266299999985 247.5859909999999 337.03750499999984 244.7767219999999 337.93657199999984 242.8924949999999 L 337.99060199999985 242.76602899999992 C 343.4167699999999 228.63982499999992 338.4016169999999 215.82904599999992 332.8607089999999 212.3743839999999 C 330.7032149999999 211.02986499999992 328.3414749999999 210.9128989999999 326.2769009999999 212.02170399999991 C 324.0227759999999 206.66737899999993 321.2191469999999 202.1745659999999 317.9374109999999 198.6590459999999 C 308.5189519999999 188.5702569999999 296.6073879999999 187.4035629999999 288.4669489999999 187.4035629999999 L 288.40119299999986 187.4035629999999 C 282.43338799999987 187.4083129999999 273.70811799999984 188.3363249999999 266.0313879999999 192.7302799999999 C 257.12755099999987 197.8269229999999 251.63369699999987 206.3434949999999 249.70271399999987 218.0433909999999 C 247.95593799999986 228.6318099999999 252.88485099999988 244.9340629999999 258.5921529999999 263.8107619999999 C 266.9282289999999 291.3848259999999 277.29785499999986 325.6883109999999 268.08319699999987 350.8918779999999 Z M 227.07403799999997 265.983834 C 226.76885699999997 259.821729 224.40681999999998 253.622218 222.32666099999997 249.266856 L 222.31686399999998 249.247263 C 216.74344899999997 238.582845 221.02785999999998 227.988192 227.74629699999997 222.219438 C 229.79127799999998 220.46316199999998 235.59283599999998 217.862889 238.85957999999997 216.59407099999999 C 239.18806499999997 220.326899 239.35520199999996 225.874486 238.53168799999997 232.35899099999997 L 238.51283699999996 232.47120699999996 C 237.22145799999996 241.22527399999996 233.27681399999997 252.77198499999997 227.07403699999998 265.98383399999994 Z M 335.477755 223.974228 C 336.055907 226.22538400000002 336.36851 228.81497000000002 336.252583 231.623052 L 334.91415 232.828933 C 335.234323 231.153999 335.557019 229.413754 335.524512 227.179817 L 335.477755 223.974228 Z M 332.487693 225.445807 C 331.595899 225.955234 330.978115 226.099809 330.74640899999997 226.099809 C 330.67738699999995 225.935641 330.59693599999997 225.61650699999998 330.558788 225.4654 L 328.081715 215.650918 C 328.89825299999995 215.15663099999998 329.73497699999996 215.211255 330.71212099999997 215.82072699999998 C 332.49407599999995 216.93160999999998 334.369693 219.80945599999998 335.424468 223.76998299999997 L 332.487693 225.44580699999997 Z M 308.820571 337.638163 C 308.681043 337.596601 308.54804499999995 337.561274 308.416384 337.53069600000003 C 301.521013 335.929386 288.35666299999997 337.521493 273.51426299999997 347.07265300000006 C 280.21874799999995 321.31542600000006 270.39996099999996 288.83530900000005 262.477424 262.6295130000001 C 256.918111 244.2399760000001 252.117 228.3580890000001 253.70999799999998 218.70451000000008 C 257.42234199999996 196.2101680000001 274.626334 191.47540800000007 288.40446 191.46472000000009 L 288.46561499999996 191.46472000000009 C 295.84933599999994 191.46472000000009 306.63012599999996 192.4978230000001 314.968873 201.4309020000001 C 319.08302899999995 205.8376220000001 322.36135099999996 211.9210580000001 324.71255199999996 219.5122890000001 L 325.24706399999997 221.2379870000001 L 325.280313 221.1465510000001 L 326.621269 226.4607990000001 C 326.78988999999996 227.1281600000001 327.044604 228.1369200000001 327.831306 228.9613250000001 C 328.354537 229.5090480000001 329.449835 230.3123750000001 331.265039 230.1253480000001 C 331.164846 230.81438000000009 331.036747 231.4838200000001 330.903008 232.1823520000001 C 330.575859 233.8929100000001 330.237428 235.66165400000008 330.270529 237.9463560000001 L 330.335692 242.4210590000001 L 332.796289 240.2037460000001 C 332.512186 242.66597600000011 331.959713 245.1406740000001 331.422232 247.5476860000001 L 327.53740700000003 264.9474630000001 L 330.84170500000005 261.3105230000001 C 330.25910000000005 264.0399350000001 329.89632600000004 266.6648480000001 329.96668400000004 270.4012390000001 C 330.01329200000004 271.6828220000001 330.39907300000004 272.6034120000001 331.14569800000004 273.21525800000006 C 331.68644500000005 273.6590770000001 332.26712000000003 273.8187920000001 332.78960900000004 273.85530700000004 C 331.94605600000006 276.64142100000004 331.02427900000004 278.91573200000005 330.13040700000005 281.12146700000005 C 328.93565900000004 284.069671 327.80280700000003 286.86498700000004 326.88711500000005 290.6411580000001 L 326.80933500000003 290.59840900000006 L 326.66253300000005 291.43795400000005 C 326.61503400000004 291.71018300000003 326.56516000000005 291.97706800000003 326.51528600000006 292.24365600000004 L 326.43824900000004 292.65927200000004 C 326.33701700000006 293.161871 326.240831 293.686141 326.14984100000004 294.211896 C 323.57450400000005 307.48964900000004 319.77874 317.381318 317.04784400000005 323.34155200000004 C 313.58843200000007 330.891519 310.30283700000007 335.66041900000005 308.82057100000003 337.63815900000003 Z M 312.30477199999996 339.779181 C 315.76373899999993 335.134075 325.78023999999994 319.803177 330.56739799999997 292.76318 C 331.45874699999996 288.65718799999996 332.64176899999995 285.73778 333.894258 282.646782 C 334.526589 281.08673699999997 335.227496 279.357179 335.908958 277.38804799999997 C 335.972933 277.512436 336.037354 277.63771499999996 336.10236799999996 277.76388399999996 C 339.626943 284.603147 344.86890299999993 291.80369999999994 349.94714099999993 298.77922599999994 C 358.9149529999999 311.0957179999999 368.1880949999999 323.83168599999993 368.1880949999999 334.70034999999996 C 368.1880949999999 339.790759 361.1625469999999 352.03362799999996 352.4381669999999 359.60289199999994 C 348.33425299999993 363.16353599999997 341.1201929999999 366.85658399999994 334.05946599999993 369.01125799999994 C 325.74758499999996 371.54889199999997 325.8644029999999 372.42821799999996 325.9084879999999 372.75922599999996 C 325.9243699999999 372.87886399999996 325.9893849999999 373.10448399999996 326.2464729999999 373.26924699999995 C 327.0345109999999 373.77451799999994 330.90953999999994 373.70044899999994 333.7009969999999 373.23688799999996 C 337.87808899999993 378.72035099999994 344.2577999999999 382.398853 351.0213609999999 383.16328999999996 C 351.8815379999999 383.260366 352.7521059999999 383.31677099999996 353.5999629999999 383.37139499999995 C 356.1619409999999 383.53645399999994 358.5817179999999 383.69260699999995 360.3074159999999 384.9465809999999 C 361.72258999999985 385.9743409999999 362.2277119999999 387.5204329999999 362.40212199999985 388.63665999999995 C 362.72852899999987 390.7186009999999 362.17071299999986 393.05109899999997 360.94642599999986 394.72395499999993 C 358.3405119999999 398.28519299999994 353.61391499999985 399.73183499999993 350.10789499999987 400.31814999999995 C 346.7120129999999 400.88516899999996 343.6180459999999 400.8718099999999 340.9125329999999 400.2789629999999 C 335.08202999999986 398.99797399999994 329.60094199999986 394.64706499999994 325.8747929999999 388.3421659999999 C 322.3536319999999 382.3846029999999 320.6352069999999 375.4203579999999 319.3028599999999 368.7814809999999 C 319.2966259999999 368.7504579999999 319.2831179999999 368.72314599999993 319.2753999999999 368.6927169999999 C 319.13631699999985 368.0624649999999 319.00955399999987 367.5592719999999 318.8930329999999 367.0985319999999 C 318.7270829999999 366.44245199999995 318.5838439999999 365.8757289999999 318.4551519999999 365.1246509999999 C 318.0934169999999 363.0112419999999 317.8339539999999 360.6033389999999 317.6049199999999 358.4789459999999 C 316.85562299999987 351.5197479999999 316.00910199999987 343.6628179999999 312.3047729999999 339.7791809999999 Z &#10;" stroke-width="0px" fill="#0c0c0c" /><path d="M 305.374753 91.504487 L 305.374362 91.503879 L 305.374319 91.503879 C 304.537912 90.235159 303.009969 89.50468099999999 301.41352 89.766943 C 299.248265 90.122674 297.781319 92.166284 298.137006 94.331582 C 298.264251 95.106255 298.610215 95.788978 299.09788 96.33338499999999 L 299.09653399999996 96.33442699999999 C 304.64331999999996 105.243642 301.875571 117.08996299999998 301.875571 117.08996299999998 L 309.716724 115.80188099999998 C 311.766802 102.47007599999998 306.227484 92.88929499999998 305.462926 91.64532099999998 C 305.43431599999997 91.59769599999998 305.40518599999996 91.55072299999998 305.374753 91.50448699999998 Z &#10;" stroke-width="0px" /><path d="M 351.070046 83.699064 C 351.041263 83.65113500000001 351.011915 83.60381400000001 350.981265 83.557275 L 350.981135 83.557058 L 350.981135 83.557058 C 350.144685 82.288338 348.616742 81.55785999999999 347.020292 81.820122 C 344.855037 82.17581 343.388091 84.219463 343.74377799999996 86.38471799999999 C 343.871023 87.159391 344.21698699999996 87.84215699999999 344.70465199999995 88.38656399999999 L 344.70330599999994 88.38760599999999 C 350.25013499999994 97.296821 347.48234299999996 109.14314199999998 347.48234299999996 109.14314199999998 L 355.323496 107.85505999999998 C 357.373357 94.52503499999997 351.835688 84.94507899999998 351.070046 83.69906499999998 Z &#10;" stroke-width="0px" /><circle cx="301.961288" cy="93.844101" r="2.717458" stroke-width="0px" fill="#fff" /><path d="M 350.403939 86.054072 C 350.403939 87.554883 349.18729199999996 88.77153 347.68648099999996 88.77153 C 346.18566999999996 88.77153 344.96902299999994 87.554883 344.96902299999994 86.054072 C 344.96902299999994 84.553261 346.18566999999996 83.33661400000001 347.68648099999996 83.33661400000001 C 349.18729199999996 83.33661400000001 350.403939 84.553261 350.403939 86.054072 Z &#10;" stroke-width="0px" fill="#fff" /><path d="M 317.556877 211.74405 C 303.660328 194.729244 277.027181 193.29446199999998 266.892586 214.53268599999998 C 264.001507 220.46312999999998 262.865632 227.294669 263.868227 233.812007 L 259.402971 231.406508 C 261.275781 230.676133 265.140403 229.097833 266.98349099999996 228.374323 C 268.637367 233.570526 270.16997499999997 238.917936 271.17948999999993 244.271231 C 271.1795359999999 244.271216 266.87376699999993 242.890963 266.87376699999993 242.890963 C 268.69850599999995 241.432464 270.8800309999999 240.514104 273.12407699999994 240.19719 L 275.88402199999996 239.807458 L 275.90723399999996 242.362523 C 275.940928 246.02838 275.67399399999994 249.689276 275.04016499999994 253.277261 L 272.76317299999994 251.57766 C 275.48938899999996 250.672481 278.30514299999993 250.525676 281.08793699999995 250.765772 C 280.95294999999993 251.55387 280.11345099999994 256.129017 279.96068299999996 257.004631 C 279.642862 258.70779300000004 279.30310099999997 260.408225 278.93974699999995 262.10463500000003 C 278.77829099999997 259.13295400000004 278.7015999999999 254.74446600000002 278.65448 251.71726500000003 C 278.654451 251.71721100000002 279.79145 252.92496800000004 279.79145 252.92496800000004 C 276.874558 253.16565400000005 274.172846 254.49029700000003 271.684614 255.85911500000003 C 271.684578 255.85900100000003 271.739238 252.94920900000002 271.739238 252.94920900000002 C 271.804006 249.49880900000002 271.62917 246.06394600000002 271.198256 242.67307300000002 L 273.98141300000003 244.838219 C 271.32371700000004 245.33445500000002 269.12592600000005 248.18675000000002 267.30320100000006 249.926593 C 265.78639000000004 244.482075 264.06901400000004 238.81399299999998 262.03859600000004 233.558461 C 262.03862200000003 233.558458 266.22795900000006 235.415113 266.22795900000006 235.415113 C 264.27090300000003 236.31375699999998 260.24957300000005 238.140095 258.30269100000004 239.03258 C 258.30266300000005 239.032581 257.48800700000004 234.960614 257.48800700000004 234.960614 C 254.25534700000003 219.159322 262.67883900000004 201.027288 278.160296 195.283289 C 292.934158 189.616916 311.167458 197.70806199999998 317.55687800000004 211.744052 L 317.55687800000004 211.744052 Z &#10;" stroke-width="0px" fill="#eeddcf" /><path d="M 347.646852 122.259262 C 350.47141000000005 120.928251 354.145755 119.50031200000001 358.57088100000004 118.498231 C 362.59879700000005 117.58610200000001 366.20159600000005 117.263851 369.13094900000004 117.19853900000001 C 369.900433 117.20254700000001 371.06579100000005 117.32159100000001 371.97806900000006 118.09968400000001 C 374.2618810000001 120.04758900000002 373.28933800000004 124.67310100000002 372.84359000000006 127.133401 C 372.27033600000004 130.297429 368.40764500000006 135.395017 365.0723070000001 136.89919700000002 C 361.5380820000001 138.493072 353.8009410000001 133.37046600000002 353.8009410000001 133.37046600000002 C 353.8009410000001 133.37046600000002 347.11515900000006 128.993433 345.4093510000001 125.38306300000002 C 344.81977000000006 124.13547200000002 346.07537600000006 122.62945700000002 347.6468510000001 122.25926100000002 Z &#10;" stroke-width="0px" /><path d="M 350.556015 126.523217 C 350.385909 126.523217 350.216842 126.452265 350.096611 126.31362800000001 C 349.498717 125.624892 349.702666 124.59208600000001 350.24519399999997 123.99181700000001 C 350.736363 123.44825000000002 351.427177 123.20333300000001 351.93170599999996 123.02432200000001 C 356.80925999999994 121.29209300000001 361.86434199999997 119.94223000000001 366.95623499999994 119.01214000000002 C 358.9564679999999 121.84511100000002 357.15496299999995 122.45967700000001 352.33841599999994 124.17023500000002 C 351.84264499999995 124.34598100000002 351.4111459999999 124.51519700000001 351.14737799999995 124.80701900000003 C 350.95114799999993 125.02432700000003 350.88672699999995 125.36899200000002 351.01482599999997 125.51683200000002 C 351.23495399999996 125.77035800000002 351.207791 126.15420900000002 350.95426499999996 126.37448600000002 C 350.839228 126.47423400000002 350.69717699999995 126.52321700000002 350.55601599999994 126.52321700000002 Z &#10;" stroke-width="0px" fill="#fff" /></g></g></svg>