<?xml version='1.0' encoding='utf-8'?>
<svg viewBox="0 0 432 432" width="432px" height="432px" xmlns="http://www.w3.org/2000/svg" xmlns:xlink="http://www.w3.org/1999/xlink" version="1.1"><g isolation="isolate"><g id="Layer_1"><path d="m256.625475,228.057646l4.498277,11.893928,6.632627-8.112494,2.726362-6.670853-4.524752-1.129217-.595707-5.693017-1.650187-3.683728.977344-4.957571s-6.991005-1.094449-7.279467-.606719l-.784498,18.95967Zm-59.327343-147.262786c-.494811,1.921796-.873638,3.863944-1.128133,5.794394.454889-3.577747,1.124393-5.782218,1.128133-5.794394Zm18.688982,134.503368c4.180418,2.462855,16.0862,3.471116,19.589981,14.287932,2.085484,6.438274,2.317082,13.93267-1.071115,20.415801-3.231275,6.767969-6.485556,16.92899-3.150039,24.345459-.481547.072626-.953135.140033-1.414243.202482-17.767838-34.743405-18.581725-53.064137-13.954585-59.251674Zm-98.372859-2.377781l.560575,4.201247,6.100307-7.417001,1.927996,8.641202,3.191189-3.312224c-4.216406,10.875228-6.668451,29.804328-5.917667,48.127934-1.955689,4.390502-4.174677,8.897914-6.562693,13.531695-9.710025,18.841249-32.366862,40.02-32.366862,57.966525,0,6.883432,8.827295,19.844098,16.477646,26.481548,4.604216,3.994499,12.19645,7.802484,19.626752,9.986585-3.713124,5.902208-10.16727,10.04335-17.108312,10.828599-3.524076.398707-7.400399.077038-10.269397,2.1618-3.803339,2.763915-3.86247,8.846555-1.086222,12.641025,2.776248,3.793794,7.526769,5.633926,12.163928,6.409039,3.302338.552107,6.71263.658879,9.982784-.059468,6.984714-1.534007,12.739181-6.752332,16.378138-12.907955,3.638788-6.156299,5.419199-13.218136,6.826414-20.229289l-.265072-.010812c3.132549-7.805187.954953-28.468999,9.641349-30.484832,8.117733-1.884057,25.567057,1.429262,42.680522,16.246954,5.21765,4.518224,18.949035,23.887928,23.830318,30.72338.407829.010137.799778.001352,1.201188.004055l-2.628422.108124c1.407299,7.011829,3.187625,14.072989,6.826498,20.229289,3.638873,6.156299,9.393425,11.373949,16.378054,12.908631,3.270238.717672,6.680531.6109,9.982868.058792,4.636991-.774437,9.387681-2.614569,12.163928-6.409039,2.776248-3.79447,2.717118-9.87711-1.086306-12.641025-2.868998-2.084762-6.745236-1.763094-10.269397-2.161125-7.633034-.863639-14.689126-5.778542-18.144358-12.639673l-6.884277.284501c9.225664-.852827,16.571156-3.643097,22.353922-7.042239l.001352.005406c35.357161,21.03346,121.447195,23.901444,159.832837-57.149515,27.333192-66.919176,1.893518-144.310819-27.722607-181.776395-20.81586-26.332878-42.588279-36.516789-35.446025-45.669469,10.163976-13.024864,28.835944,16.183431,28.835944,16.183431,19.42005-38.2515-5.350777-96.893123-74.149449-94.158267-48.108844,1.91244-75.914908,56.200728-19.42005,168.896146,19.541858,54.878915-4.527516,76.25364-26.933303,84.572415-2.477556.009461-5.508401.603466-9.16552,2.000966-.045277-1.996236.3982-4.153306,1.510185-6.461749,2.211808-4.591883,6.249387-8.190378,10.323965-11.731433,19.764694-14.352084,20.794573-54.787009-22.694512-73.658668-2.096419-.910267-5.674979-8.216734-7.679831-12.630212-1.02819-3.153836-2.304895-6.712461-3.866947-10.741425-5.723635-28.656864,36.513748-75.453524,15.009274-96.826897-14.389083-14.300725-29.692656,2.291549-34.456523,20.792208l-16.407619-5.240626c-4.712846-23.383125-14.226728-26.217996-19.817405-27.689156-9.401281-2.474008-18.240909,5.613653-18.240909,28.936634-8.782863,4.451322-37.853385,4.652027-54.731596,49.314593-2.535672,18.508093,13.711535,30.578764,47.005727,38.100803.338394,1.383985.125386,3.752025,1.500978,3.900566-20.242503-2.185859-16.569281-1.812878-43.127893,2.235379-10.564668,1.422542-21.213797,1.449998-36.197846-13.465631-14.263155-14.198027-15.195889-17.951396-31.868801-20.871652-11.204633-1.962489-11.041039,12.47609-8.792356,15.164426,1.996935,2.387366,7.554913,6.747044,14.06777,3.028478,8.075919-4.973019,11.890175,4.02898,11.890175,4.02898.260511.521022,6.923157,9.921365,17.864776,32.83489,0,0,3.156812,2.233332,6.923725-1.927723-1.703886,5.668032,2.454768,12.478322,2.454768,12.478322,0,0,.390771-4.088693,2.7354-5.756675,5.110689,4.915436,7.455317,13.010461,7.455317,13.010461,0,0,3.516942-5.470799,2.704738-10.575343,9.239767,2.32002,28.051384,12.671059,30.141555,20.045936" stroke-width="0px" fill="#c56439" /><path d="m121.497692,263.483681l-1.224459-8.679415,3.208574,2.685322c-.003653-1.054681-.000174-2.093358.010785-3.116031l-3.690252-17.084331.942655-.411226s1.510787,1.200802,1.779023,1.603156-1.195235-10.725457-1.195235-10.725457c0,0,2.285576.032355,4.5675.045054,6.738093-34.669474,26.185061-38.668668,40.606685-38.657535,11.067102.008524,32.493315,3.135862,36.759701,28.989541,4.266734,25.85368-34.261553,91.338338-18.118137,133.995588l.45054,1.115043s-20.803633-16.329546-38.685541-12.995552c-3.487422,1.623683-1.503481-.176041-1.503481-.176041,0,0-14.451891-16.640227-19.790875-51.802686l-2.779779-5.6895-3.033055-9.594063,3.674074-1.792244-1.978722-7.709624Z" stroke-width="0px" fill="#e7caae" /><path d="m107.126996,120.876194c2.972699.475695,5.979558.961004,8.75051,2.137884,3.916981,1.663622,7.163157,4.624087,11.037935,6.383767,11.460778,5.204763,27.25897-.257812,38.830935,4.694825,8.025369,3.434744,11.638686,11.64579,10.67102,20.321482-1.006647,9.025175-8.848391,15.461536-17.924362,15.155139-3.671774-.123956-7.466025-1.180324-11.052424-1.977211-12.152388-2.700224-43.329645-7.245464-56.921131-26.594429-.837611-1.192431-2.463044-6.901152-2.201749-9.954346.419442-4.90113,1.361729-10.94952,2.469052-11.450879,4.519096-2.046096,11.340763.483749,16.340215,1.283767Z" stroke-width="0px" fill="#e7caae" /><path d="m157.252692,120.384468c-3.850067-.980285-7.218035-1.809411-11.055134-1.915668.000003-.000045-2.235059-.099537-2.235059-.099537-1.592236-.042253-3.059881-.153975-4.700368.138392.371013-.847097,1.101807-1.465202,1.833724-1.97614,5.176089-3.320417,13.423313-1.985087,16.156837,3.852954h0Z" stroke-width="0px" /><path d="m117.614231,81.190211c-1.670844-.659195-4.506802-1.87209-6.154854-2.31087-.821374-.242383-2.1068-.527278-2.958361-.750004-1.157947-.273274-2.155779-.589333-3.439438-.61306.251204-.701844.831496-1.205763,1.418527-1.598958,4.20698-2.653623,10.896684.065019,11.134126,5.272892h0Z" stroke-width="0px" /><path d="m112.858829,111.362419c-3.850096-.98022-7.218034-1.809327-11.055134-1.915668.000003-.000045-2.235059-.099538-2.235059-.099538-1.592246-.04207-3.059886-.154114-4.700368.138485.371013-.847097,1.101807-1.465296,1.833724-1.976234,5.17609-3.320394,13.423238-1.985009,16.156837,3.852954h0Z" stroke-width="0px" /><path d="m204.404196,98.797199c.015412-1.75867.030824-3.51734.046237-5.27601.051654-5.894183.130451-11.937638,2.251514-17.437197,2.121063-5.499559,6.753698-10.427009,12.602347-11.160066,5.72824-.717964,11.688709,3.180249,13.326962,8.715982,0,0-21.057518-10.771045-28.22706,25.157292Z" opacity=".35" fill="#754123" mix-blend-mode="multiply" stroke-width="0px" /><path d="m232.631174,73.639952c-3.965654-7.87849-12.711989-10.470651-19.572222-4.541055-3.119348,2.629915-4.587523,6.388946-5.94561,10.192107-1.407416,3.983003-2.15636,8.09758-2.709032,12.314996-.944346-5.302946-.421985-10.967936,1.27194-16.142806,1.545368-5.556015,5.805531-10.573693,11.583591-11.927507,7.10979-1.84297,14.135274,2.998511,15.371334,10.104264h0Z" stroke-width="0px" /><path d="m111.982625,142.92007c4.584872,8.617555,21.593998,20.709303,24.585025,1.326311l-5.372015,1.070939-10.971096-.527615-8.241914-1.869635Z" stroke-width="0px" /><path d="m368.821166,110.740011c-6.258866-44.174881-36.637046-46.753362-46.660625-38.955344-10.323088,7.911603-20.649664,26.279235-.035421,65.394644,26.553467,50.385052,54.922141,185.286782-66.992941,183.476162,0,0,11.668982,22.210564,6.940981,40.879922-7.846291,9.918028-18.096308,17.944453-18.096308,17.944453,0,0,47.568908,22.674713,93.234957,4.404819,74.840772-31.509814,83.692692-103.666375,75.878644-150.871518-1.458605-8.727861-9.936762-74.992314-63.561278-119.848387-26.129916-20.043872,4.181205-34.528833,19.291991-2.424752Z" fill="#754123" mix-blend-mode="multiply" stroke-width="0px" opacity=".25" /><path d="m248.331031,420.475402c.427926,0,.850981-.192045,1.131742-.557347,2.306973-3.00731,3.237972-6.434892,2.553987-9.404627-.559435-2.429088-2.182422-4.424684-4.569761-5.618701-.702773-.351386-1.559668-.067494-1.912098.637366-.351734.704164-.06645,1.560016.637366,1.912098,1.636208.818278,2.696629,2.100664,3.06715,3.708691.492289,2.137542-.250493,4.700226-2.03804,7.029813-.479068.624841-.361128,1.518963.263366,1.998379.258495.198307.56361.294329.866289.294329Z" stroke-width="0px" /><path d="m100.391844,403.641565c.377131,0,.753219-.148904,1.033284-.443234.542387-.570568.519078-1.473039-.05149-2.015078-2.629831-2.49867-3.803322-5.00708-3.394183-7.255257.402181-2.208515,2.17268-3.616147,2.967301-3.95153.725039-.306158,1.064248-1.142527.75809-1.867566-.306158-.725039-1.141484-1.064596-1.867218-.758438-1.548883.654761-4.069123,2.810394-4.661956,6.066806-.411574,2.259309-.010437,5.798917,4.235074,9.832553.275543.261626.628668.391744.981098.391744Z" stroke-width="0px" /><path d="m128.32389,373.475614c-5.366972,4.91852-17.769202,7.651405-20.772072,7.642927,0,0,11.234819-4.937388,13.521139-8.659218l7.250933,1.01629Z" fill="#754123" mix-blend-mode="multiply" stroke-width="0px" opacity=".25" /><path d="m98.432718,388.905789c-3.590705.80472-3.43982,3.52065-4.998965,3.973305-1.559145.452655-2.41416-3.20102-2.363865-4.21585-.825315.59461.044761,5.52352.676215,7.43473s6.465675,4.576845,6.465675,4.576845l-1.30767-4.174485.60354-5.482155.92507-2.11239Z" fill="#754123" mix-blend-mode="multiply" stroke-width="0px" opacity=".25" /><path d="m97.251796,391.743647c.247145,6.509431,12.02489,4.957852,14.834024,4.756674,2.809133-.201177,10.8711-1.207064,18.113571-16.295582,3.169652-6.603496,4.027374-14.786795,5.061963-22.045488l-.000043-.000043c.000087-.000652.000261-.001305.000348-.001957.522818-3.667681,1.092516-7.096742,2.026907-9.96902,4.120874-15.97242,10.853356-21.005202,23.087818-22.704467,14.484986-2.011773,39.671901,23.948931,51.622427,51.305179,4.607335,9.115647,2.997916,7.137621,5.613309,18.001371,2.615305,10.863707,10.215947,19.212653,18.03377,19.916817,7.817823.704121,13.953862.100589,14.255584-4.124222.181521,5.442878,0,7.965422,0,7.965422l-4.325356,1.654038-12.652428-1.151877-10.583859-6.440502-8.802661-19.244443-3.569963-10.746636-21.358545-27.427568-20.386231-12.204889-16.228523-3.487117-7.242515,1.4753-3.695905,5.957432-2.071222,16.306497-.155993-.212832c-.682855,4.465606-1.649167,9.528787-3.207139,15.155968-6.179658,22.319769-21.717324,28.377616-31.675733,25.433495-9.958409-2.944165-6.693604-11.87155-6.693604-11.87155Z" fill="#754123" mix-blend-mode="multiply" stroke-width="0px" opacity=".25" /><path d="m237.768516,274.876008l-2.121617,1.016914s-.104145-3.420011,4.49737-4.945471c4.601515-1.52546-1.559145,2.833081-1.559145,2.833081l-.816609,1.095476Z" stroke-width="0px" /><path d="m250.532416,364.098809c-4.182264.101033-8.417766-.224129-12.511233.639042-4.94653,1.043049-9.499553,3.860408-12.64032,7.821682s-4.84573,9.036768-4.7334,14.090825c1.970954.686324,4.138818.220174,6.157643-.309017,10.752865-2.818626,21.497858-7.619496,28.408179-16.326744,2.318794-2.921761,4.178652-6.205409,6.918706-8.777193-3.535343,2.125198-7.520975,2.762876-11.599575,2.861405Z" fill="#754123" mix-blend-mode="multiply" stroke-width="0px" opacity=".25" /><path d="m110.546971,351.579706c-6.837562-6.002192-16.928117-6.425664-24.842989-10.912695,2.303274,5.454032,5.301802,10.614013,8.90004,15.315526,1.832936,2.394943,3.841282,4.69044,6.262536,6.488477,2.434118,1.807589,5.223348,3.067819,8.002654,4.279335,4.66753,2.034605,9.377256,3.972405,14.125284,5.811796,1.224998.474558,3.301533,1.332151,4.429108.530318-.81291-1.672616-3.41597-3.020635-4.692066-4.516802-1.527135-1.7905-2.784286-3.792446-4.01157-5.793912-2.412086-3.933653-4.657917-8.116413-8.172997-11.202043Z" fill="#754123" mix-blend-mode="multiply" stroke-width="0px" opacity=".25" /><path d="m233.032199,271.659864c.733347,2.634612,1.737713,5.37268,3.887126,7.063537,2.831707,2.227592,6.806435,2.036576,10.396889,1.737624,3.026092-.251961,6.052185-.503922,9.078277-.755883.310806-.025879.672155-.032421.875876.203731.200702.232652.146287.583768.074738.882581-.828606,3.460512-2.843979,7.099878-6.302771,7.935631-1.843975.445563-3.781135.00507-5.591355-.562271-3.544859-1.110995-7.006026-2.765388-9.616605-5.408376-3.226213-3.266274-4.810086-7.761153-5.252532-12.26148-.081182-.825736-.580115-6.085132.489106-5.991388.761387.066755,1.703802,6.231382,1.961252,7.156294Z" fill="#754123" mix-blend-mode="multiply" stroke-width="0px" opacity=".25" /><path d="m251.661918,248.786111c-4.274463,2.972111-8.792346,5.877456-11.705868,10.192068-3.181147,4.710936-4.08928,10.619045-4.002084,16.302795,1.441389-.152045,2.596217-1.325552,3.219549-2.634054.623332-1.308502.83345-2.767954,1.190911-4.172569.945236-3.714239,2.985445-7.142717,5.799092-9.745108,2.54589-2.354737,5.672298-4.019266,8.180754-6.413868,3.857926-3.682829,6.159115-8.924798,7.751896-13.932761-2.490554,4.430403-6.316778,7.540543-10.43425,10.403496Z" fill="#754123" mix-blend-mode="multiply" stroke-width="0px" opacity=".25" /><path d="m234.714982,253.378836c4.60978-4.256842,6.450635-10.785836,6.797213-17.050871.41924-7.578555-1.273265-15.657188-6.491896-21.168644s-14.517895-7.470709-20.606836-2.939148c-4.007365,2.982394-5.95783,8.115809-6.220024,13.104284-.262194,4.988475.948185,9.924917,2.186346,14.764399,2.960052,11.569671,6.130794,23.085438,9.510124,34.539665,2.623431,8.892113,8.691353,16.844921,15.313469,23.333345s14.038359,12.199689,19.998609,19.30092c-8.739034-14.47057-17.478069-28.941142-26.217105-43.411713-8.691983-14.392659-14.402939-30.582399-15.08943-47.38204-.13824-3.382976-1.386684-8.249027,1.063353-10.585895,2.142325-2.043371,5.491112,1.163666,8.276246,2.167633,2.785134,1.003968,6.768157,3.811345,8.444609,6.251514,6.33079,9.214819,5.290171,18.126326,3.035321,29.07655Z" fill="#754123" mix-blend-mode="multiply" stroke-width="0px" opacity=".25" /><path d="m161.590875,63.888485c-2.278379-.872468-4.730337-1.249536-6.969752-2.217641-2.819861-1.219033-5.222836-3.380001-6.733245-6.055131-2.53579,6.716897-4.049482,13.818603-4.472998,20.985721-.026659.451153-.01325.982275.352775,1.247371.217981.157873.505532.173236.774664.170493,1.725225-.01758,3.400045-.533184,5.074822-.94775,5.943007-1.4711,12.10426-1.690953,18.198939-1.548341,1.546914.036197,3.093353,1.318779,4.639045,1.389575,1.735847.079505,4.134,1.323888,2.82322-.390266-1.561935-2.0426-3.757077-5.482221-5.63304-7.24248-2.073641-1.945744-5.385028-4.369348-8.05443-5.391551Z" opacity=".35" fill="#754123" mix-blend-mode="multiply" stroke-width="0px" /><path d="m176.567284,151.784166c-5.802002,3.996959-12.693441,6.212877-19.666861,7.218022-6.97342,1.005145-14.06221.846682-21.094793.420448-3.069751-.186053-6.150138-.424698-9.148423-1.109006-2.669221-.609205-5.244819-1.565105-7.811398-2.518282-4.533907-1.683806-9.085314-3.375483-13.337874-5.679231-6.469014-3.504472-12.153697-8.3942-16.795981-14.101972,1.921671,7.465408,7.227551,13.989071,14.144887,17.391364,3.090913,1.520266,6.439516,2.429946,9.662125,3.646391,4.702853,1.775195,9.141383,4.205824,13.874784,5.897881,5.157911,1.843808,10.587204,2.783425,15.984984,3.714896,5.855739,1.010497,11.818206,2.023983,17.710971,1.258408,4.34713-.56477,8.987854-2.173733,12.416229-5.053936,2.889958-2.427875,4.100639-6.740806,4.06135-11.084982Z" fill="#754123" mix-blend-mode="multiply" stroke-width="0px" opacity=".25" /><path d="m366.189652,53.489081c-33.316956-22.923138-86.591034-36.572092-100.694985,21.351514-14.10395,57.923606,28.335513,102.270432,16.472691,154.835981,6.444558-32.332412-15.220208-59.821692-26.76537-88.681223-5.671821-14.1075-24.807003-82.92279,6.894181-111.929641,15.049667-22.03783,83.695378-20.451154,104.093483,24.423368Z" stroke-width="0px" opacity=".66" fill="#d8b58e" /><g opacity=".66"><path d="m150.629353,54.200453c5.84707-2.593916,11.187262.560526,16.022324,3.925458,2.412582,1.673413,4.52003,3.503578,6.495795,5.726532,2.095086,2.342168,3.783898,4.871752,5.497257,7.641272,1.113575-6.986697-2.997617-14.144055-8.728116-18.038094-2.940162-2.007881-6.264774-3.632407-9.93812-3.872607-3.577497-.272888-7.830462,1.238693-9.349141,4.617439h0Z" stroke-width="0px" fill="#d8b58e" /></g><g opacity=".66"><path d="m194.607085,82.062428c-18.601799-7.028502-41.675951-6.532844-60.366432-.000287,10.160995.996581,20.115645.664683,30.212093.657237,8.977807-.165863,21.229748.05175,30.154339-.656951h0Z" stroke-width="0px" fill="#d8b58e" /></g><path d="m164.159669,90.022916c-1.67065-.659186-4.507147-1.872098-6.154854-2.31087-.821602-.242381-2.106663-.527282-2.958361-.750005-1.157883-.273111-2.156072-.589271-3.439438-.61306.251204-.701844.831496-1.205763,1.418527-1.598958,4.206888-2.653477,10.896563.064981,11.134126,5.272892h0Z" stroke-width="0px" /><g opacity=".66"><path d="m215.910486,137.802032c-1.054682,7.510658-3.270824,15.479696-2.081611,23.064862.591683,3.888113,1.509601,7.730402,2.762779,11.449278,1.395143,3.91308,3.828753,7.516355,6.774832,10.387285,2.82573,2.838401,6.145997,4.90164,9.391445,7.132744,4.574708,3.162875,8.98111,6.646648,13.255228,10.23078,4.10275,3.547382,9.037875,7.008859,13.104251,10.651876-1.711948-7.857236-8.027737-13.511715-13.914122-18.486233-4.34254-3.73313-9.106374-7.080588-13.896221-10.225601-4.30749-2.950467-8.056267-6.708674-10.14941-11.514618-1.388765-3.369141-2.6162-6.886491-3.579321-10.388122-2.067288-7.305473-.875091-14.818373-1.667849-22.302252h0Z" stroke-width="0px" fill="#d8b58e" /></g><g opacity=".66"><path d="m249.410471,312.405c3.032982,11.89171,6.97075,24.583413,9.902037,36.440862,1.035469,4.058841,1.987691,8.065688,2.811884,12.391566.378175-1.026152.749044-2.097185.948047-3.178306,2.859879-14.784229-3.244462-34.798461-13.661968-45.654122h0Z" stroke-width="0px" fill="#d8b58e" /></g><g opacity=".66"><path d="m118.17483,278.117876c-10.789686,12.966628-36.581446,39.728554-32.208796,57.313417.51532-2.799316,1.391872-5.331384,2.582932-7.745686,3.607486-7.316711,8.582494-13.668229,13.273827-20.407747,6.336359-9.085353,12.90487-18.439692,16.352037-29.159984h0Z" stroke-width="0px" fill="#d8b58e" /></g><path d="m220.421828,386.996597c7.904327,4.553331,19.438647,10.588731,19.438647,10.588731l-12.010524-11.680768-7.428123,1.092037Z" fill="#754123" mix-blend-mode="multiply" stroke-width="0px" opacity=".25" /><path d="m258.100796,404.358388c.13412,4.42596-3.82242,6.77306-7.44366,3.88948-.674987,1.268183.60354,5.16362.60354,5.16362l-1.319569,4.294841,8.763229-5.096591-.60354-8.25135Z" fill="#754123" mix-blend-mode="multiply" stroke-width="0px" opacity=".25" /><path d="m149.496629,91.816677l.000391-.000609h.000043c.837848-1.270905,2.368422-2.002641,3.967621-1.739927,2.168984.356344,3.638457,2.403473,3.282157,4.572501-.127465.776007-.474024,1.459906-.962529,2.00525l.001348.001044c-5.556339,8.924559-2.783823,20.791282-2.783823,20.791282l-7.854657-1.290301c-2.053609-13.354766,3.49525-22.952047,4.261124-24.198163.028659-.047707.05784-.094761.088325-.141076Z" stroke-width="0px" /><path d="m103.722637,83.99781c.028833-.048011.058231-.095414.088934-.142033l.00013-.000217h0c.837891-1.270905,2.368465-2.002641,3.967664-1.739927,2.168984.3563,3.638457,2.403473,3.282157,4.572457-.127465.776007-.474024,1.459949-.962529,2.005294l.001348.001044c-5.556382,8.924559-2.783823,20.791282-2.783823,20.791282l-7.854657-1.290301c-2.053392-13.352983,3.493815-22.949437,4.260776-24.197598Z" stroke-width="0px" /><circle cx="152.915973" cy="94.16032" r="2.722138" stroke-width="0px" fill="#fff" /><circle cx="107.112029" cy="86.356875" r="2.722138" stroke-width="0px" fill="#fff" /><path d="m137.293256,212.263376c6.405883-14.055611,24.66266-22.16166,39.462731-16.484067,15.505743,5.754928,23.941078,23.912273,20.704194,39.739549.000035.000016-.814246,4.07189-.814246,4.07189-1.950751-.891384-5.968601-2.723107-7.932984-3.620565.000013.000009,4.189163-1.856646,4.189163-1.856646-2.030793,5.257684-3.75151,10.943609-5.269946,16.388923-1.835794-1.753133-4.023879-4.592707-6.687292-5.091865.000033-.000076,2.78319-2.165268,2.78319-2.165268-.431288,3.397003-.606312,6.83795-.540982,10.294433l.055034,2.909417c-2.494483-1.378087-5.194595-2.692079-8.118323-2.935874.000033-.000078,1.137406-1.207788,1.137406-1.207788-.043402,3.032548-.121215,7.40819-.284146,10.40506-.363518-1.69917-.70366-3.402606-1.021344-5.108812-.173664-.887279-.981681-5.491412-1.128014-6.247918,2.787201-.241085,5.605739-.091689,8.335637.814409.000002-.000044-2.277178,1.699511-2.277178,1.699511-.80687-4.399629-.945512-9.000847-.843619-13.488194-.000051,0,2.75952.389919,2.75952.389919,2.247042.317476,4.431749,1.237239,6.258921,2.697798l-4.305957,1.380253c1.011187-5.358401,2.547383-10.71718,4.202678-15.918249-.000051-.000013,3.217389,1.287113,3.217389,1.287113l4.37035,1.748365-4.465069,2.405499c1.004655-6.529787-.133467-13.374335-3.029688-19.316342-10.145187-21.272362-36.846182-19.841945-50.757425-2.790551h0Z" stroke-width="0px" fill="#eeddcf" /><path d="m132.668418,207.845991c-1.942456-11.728713-5.85017-12.510255-5.85017-12.510255l-7.015908,7.875772-3.665176-3.186516-37.644309-8.727227h-2.084114s-3.390731-1.563086-3.390731-1.563086l-1.949811,2.21456,2.995914-11.983844s-8.336456,5.210285-9.639027,3.907714-9.50877-20.307636-20.710883-29.236487l16.729238,36.434297,6.923725-1.927723,2.007691,10.230511,3.182476-3.508864,6.961119,11.465514,4.705717-8.347421,20.825433,9.46294,7.809342,9.900021,4.755313-5.425449,2.188085,5.425449,4.472797-8.641202,3.45491,10.510153,4.93837-12.368855Z" fill="#754123" mix-blend-mode="multiply" stroke-width="0px" opacity=".25" /><path d="m175.371591,158.766048c1.199308,16.640348-17.161376,16.640348-33.052745,14.425977,0,0-2.497687,1.432828-9.650428,1.693343s-12.638533-2.474885-21.55365-1.953857c-8.915117.521029-16.246515.390771-16.246515.390771,0,0,11.045188-3.393007,11.499626-3.742499s36.993024-1.388158,36.993024-1.388158h18.337745s8.364965-3.205799,8.364965-3.205799l5.307978-6.219778Z" fill="#754123" mix-blend-mode="multiply" stroke-width="0px" opacity=".25" /><path d="m36.680317,150.527285c-9.50877.130257-16.151884,1.432828-19.538569-5.080028-1.735232,2.978282-1.416656,4.117441-1.416656,4.117441l6.887456,6.172872,9.748536-1.50484,4.319234-3.705445Z" fill="#754123" mix-blend-mode="multiply" stroke-width="0px" opacity=".25" /><path d="m84.614607,173.391709c-15.997741.976928-27.340732-10.434564-37.122948-21.288825-10.811341-11.99617-24.748854-14.50536-30.34991-6.655628-4.217364,5.910524-.530247-4.928955-.530247-4.928955l6.456946-4.504158,13.61187,1.58338,11.592884,9.087175,9.008676,10.201097,10.920664,9.948682,16.412065,6.557231Z" stroke-width="0px" fill="#d8b58e" /><path d="m15.063025,152.603661c3.57214,3.903269,8.93846,7.217264,21.632871,2.409809,7.386883,2.988272,12.092296,14.180437,17.065992,26.010534,1.513058,3.59782,3.07815,7.319982,4.768936,10.940778l.432495.92581.994063.235169c1.881354.447362,3.587007.224357,4.989238-.235169.122991,2.513879.820389,5.930591,3.04774,9.786556l4.568907,7.910608-.635903-9.113485c-.001352-.04325-.033113-1.131245.660907-2.382778,1.574553,1.978666,4.014772,5.591352,5.39673,10.370425l1.260994,4.362796,2.521988-3.777576c.137858-.206787,2.740939-4.161415,3.17884-8.675584,21.142259,7.937639,22.964145,11.692238,25.061071,16.011784.310856.640634.629145,1.293431.997442,1.970556l1.446156,2.658494,3.51943-4.015448.608872,6.494186,6.881405-10.375831,1.66933,8.831688c-.51249,1.782691-.861358,3.061255-.861358,3.061255-.038181.151373-.118767.471014-.18795.635903-.232044,0-.850884-.145291-1.744257-.655501l-2.920019-1.666458c-.008954.005406-.018077.010812-.027031.015543-.003041.01284-.007687.026355-.010306.039195-.014022.167592-.030663.334508-.043165.501424l-.04156,2.847035c-.032522,2.238163.290752,3.981659.611491,5.65893,0,0-3.254358-3.120723-3.568846-3.835016-.004393.079741.684474,12.488976,3.569437,21.826818l-3.119879-3.434282s3.524752,17.439694,3.463594,17.598501c.022301.132452.018922.276391-.046206.440605-.758725,1.911088-2.578837,6.701649-7.150278,14.200711.012248-.008109.025257-.013515.037505-.021625-3.248107,5.514314-7.449477,11.284747-11.529715,16.888263l-.003886.005406.492386.358836-.49492-.355457c-9.364873,12.862679-19.048627,26.163934-19.048627,38.374491,0,7.505144,9.069898,20.982101,17.179522,28.018258,4.04704,3.511321,10.460472,6.984798,17.172595,9.356764-3.491808,3.933004-8.384917,6.545545-13.544281,7.128738-.748926.085147-1.517703.134479-2.331335.187189-3.087695.199353-6.223116.40141-8.905516,2.350341-1.987028,1.443453-3.310362,3.701213-3.726301,6.35768-.495089,3.161946.325047,6.575279,2.194069,9.129704,2.706643,3.699186,7.364498,6.194143,13.470453,7.214561,1.873667.312883,3.700875.47169,5.431025.47169,1.868768,0,3.659906-.185162,5.323577-.550756,6.938423-1.52387,13.387163-6.575279,17.692434-13.860121,3.818122-6.459722,5.647442-13.793895,7.05001-20.765177.91863-2.877445,1.334315-6.677997,1.776525-10.783998.83154-7.715309,1.773568-16.457795,6.079852-17.457265,7.177394-1.664431,23.989294,1.171792,40.888201,15.803646,2.979149,2.579429,9.59092,10.983352,19.651671,24.977951l1.536541,2.009076c1.435175,7.023317,3.897356,16.491584,7.628473,22.803311,4.305355,7.28349,10.753926,12.335575,17.692265,13.859445,1.664093.365594,3.456076.551431,5.326618.551431,1.727278,0,3.553219-.158807,5.427815-.47169,6.105616-1.020418,10.763387-3.516051,13.470706-7.215237,1.868684-2.555101,2.688904-5.968434,2.193731-9.13038-.415939-2.655791-1.739104-4.913551-3.725879-6.357004-2.682822-1.949607-5.818075-2.150988-8.850272-2.346287-.846745-.054738-1.626925-.104069-2.386157-.190568-6.099872-.689965-11.86625-4.287785-15.296647-9.388525.748926-.131776,1.415577-.27977,1.943357-.441956,3.925232-1.204905,7.70399-2.85582,11.237443-4.907469,6.295509,2.906503,27.40229,11.63277,53.582443,11.63277,11.433417,0,22.452247-1.688083,32.750533-5.015593,24.331743-7.754504,44.066365-20.928039,58.652942-39.15501,13.231651-16.534833,21.918723-36.75331,25.819965-60.094537,5.292491-31.66676,1.259304-67.582786-11.357054-101.132252-12.544051-33.356871-32.405043-61.372425-55.924337-78.886455-4.852056-4.100595-7.146646-8.553945-6.10815-11.889564.573901-1.843511,2.204881-3.026791,4.474467-3.246417,8.041032-.796737,16.357612,9.045908,21.032446,17.707977l1.738428,3.221414,1.817494-3.177488c14.528292-25.402337,8.30526-64.689123-27.255309-86.464582-21.558029-13.19989-49.723098-16.032058-70.085514-7.048321-15.447175,6.81653-25.34912,19.433903-28.634563,36.489082-9.330071,48.654362,8.536881,87.2228,21.582526,115.384322,4.492882,9.697354,8.369796,18.066813,10.658304,25.546953,5.78834,18.918963,4.987549,37.460169-2.197785,50.870224-5.825677,10.8732-15.572531,18.424297-28.968902,22.444475-1.314042.177053-2.71036.480475-4.163442.902834.219289-.868369.542984-1.749578.96737-2.630112,2.103346-4.366175,6.181641-7.910608,9.779461-11.038089,5.365982-3.911379,9.441912-9.585176,11.753058-16.38346,1.835402-1.812425,7.346337-7.753153,8.556817-14.772415l.410026-2.380075h-4.744946s.621374-3.792443.621374-3.792443l-3.152147-3.009221c-.02872-1.32722.179925-3.020709.872255-3.758654l1.030724-1.099484-.751123-1.306271c-1.223488-2.125984-3.76727-2.626733-5.822805-2.642951-4.284575-8.079552-11.207033-15.461029-20.581367-21.943051-.885939-.612927-1.828644-1.206932-2.881162-1.81648-17.248788-10.09133-23.381098-29.865823-16.001817-51.60479l.188203-.554135-.008785-.003379c1.589082-4.762854,3.921684-10.241352,6.18012-15.546852,8.49076-19.944112,18.114455-42.549422,5.448426-55.581044-7.906553-8.136317-14.877836-7.857898-19.333382-6.19144-6.851164,2.56321-11.461293,9.514895-14.122152,14.89473-1.675581,3.38833-3.053484,7.128738-4.064779,10.960375-6.868903-3.199113-11.662166-4.181688-13.084501-4.420236-4.497781-20.85911-12.756244-25.757118-21.017748-27.930407-4.248083-1.11773-8.259899-.348024-11.600671,2.226675-4.034539,3.109911-8.879583,10.327175-9.174474,27.052577-1.172383.272337-2.176245.522373-3.127566.777816-17.382761,4.673652-40.212258,16.371972-50.257044,45.566076-1.808117,4.289812-3.11971,11.011058.982237,18.456058,5.939545,10.781295,19.38474,18.846656,43.217255,24.811035,0,0-.413827.000676-1.035623.008109-2.424001-.038519-4.40765-.091229-6.117273-.136506-7.113195-.193271-9.775068-.263552-20.438779,1.408313-15.102193,2.766618-27.691859,3.916785-41.249909-8.124153-4.020854-3.57214-7.143605-7.029399-9.89941-10.079842-7.157796-7.92142-12.811995-14.180437-27.476287-15.37926l-.104745-.009461-.104745.002703c-7.282814.127045-10.18256,4.358741-11.262446,6.869916-1.888788,4.389827-1.033258,9.659511.949462,11.828745Zm164.25358-73.991149l-3.330213-1.577932c-.318965-.151373-7.931895-3.693104-18.205008-2.955835-4.268863.306126-8.537473.863639-12.699479,1.657673.33907-11.31786,3.015472-19.456203,7.564359-22.96347,1.609102-1.240045,3.456752-1.86919,5.439472-1.86919.858148,0,1.741385.117585,2.641938.354781,4.826123,1.269779,13.808508,3.63296,18.341092,26.124064l.24784,1.229908Zm68.88534,300.540937c6.463776-4.572286,10.631611-9.612882,12.917416-12.378149.583531-.705508,1.08732-1.315056,1.452914-1.706329,2.317228-2.475359,5.458901-9.360143.459188-27.659422-3.597651-13.170156-10.44476-27.994605-18.78685-40.676852-1.897573-3.142348-3.73044-6.271181-5.469206-9.333788,1.751268,1.277888,3.635832,2.309119,5.630885,3.080177,4.494065,2.009751,9.044219.948111,12.142304-2.850414,3.478208-4.265484,3.949729-10.723854,1.073974-14.703486-.619685-.856881-1.658687-1.961771-3.28764-2.813246,10.681281-4.704061,18.720286-11.986876,23.90516-21.663956,7.693347-14.358166,8.605304-34.03332,2.502052-53.980811-2.369939-7.746395-6.300746-16.232762-10.852589-26.057838-12.817571-27.668207-30.366571-65.548707-21.283327-112.91572,3.021891-15.685386,12.109867-27.280988,26.281857-33.533923,19.1962-8.470149,45.847705-5.739347,66.318582,6.794906,12.98871,7.953182,23.510339,20.411748,28.867367,34.180639,4.069172,10.458275,7.082447,26.432892-1.326206,43.601601-5.154465-8.353916-13.332341-16.649039-21.880542-16.649039-.419993,0-.839987.019597-1.26167.06082-3.919826.379785-6.897623,2.654439-7.966191,6.086019-1.543974,4.96018,1.234808,11.038765,7.432667,16.260469l.081431.064874c22.932215,17.06464,42.316111,44.439561,54.59509,77.092275,12.368181,32.889235,16.32906,68.059207,11.152464,99.02992-3.785347,22.647207-12.191128,42.236538-24.984202,58.222643-14.076368,17.589716-33.159882,30.315213-56.72006,37.82306-35.647575,11.522619-69.862678-.631849-80.994869-5.374429Zm-127.27397-95.865271c1.254659,3.096396,2.439712,6.020469,3.332578,10.133904,4.79546,27.086365,14.82918,42.444001,18.294126,47.096703-3.710758,3.89043-4.558686,11.761167-5.309301,18.73245-.229425,2.128012-.489345,4.539848-.851728,6.657048-.128904.752136-.272337,1.319786-.438577,1.977314-.11674.461554-.243701.965681-.383079,1.596853-.007687.03041-.021202.057441-.027453.088526-1.334653,6.65029-3.056018,13.626979-6.583304,19.594737-3.732552,6.315782-9.223045,10.673847-15.063589,11.957142-2.710191.594005-5.809458.607521-9.211219.039195-3.512081-.587247-8.246806-2.036106-10.857235-5.603516-1.226361-1.675919-1.785141-4.012069-1.458151-6.098183.174688-1.11773.680673-2.666603,2.098278-3.696483,1.728714-1.255588,4.15263-1.412367,6.71905-1.577932.849279-.054062,1.721365-.110827,2.582976-.208138,6.775224-.765652,13.165932-4.450646,17.350239-9.943336,2.796268.464257,6.677997.538592,7.467385.032437.25747-.164889.322598-.391273.338563-.510885.044179-.331805.161172-1.212338-8.165037-3.754599-7.072902-2.158422-14.299374-5.857607-18.410359-9.424341-8.73936-7.582858-15.777038-19.846801-15.777038-24.945514,0-10.887392,9.289102-23.645325,18.272332-35.982928,5.086972-6.988177,10.337988-14.200711,13.868652-21.051705.065128-.12637.129664-.252064.193694-.376406.6827,1.972584,1.384829,3.704592,2.018198,5.267657Zm6.073433-53.778079c.788037-.825796,1.043141-1.836077,1.212085-2.504418l1.343269-5.323746.033282.091905.535466-1.728629c2.355241-7.604483,5.639248-13.698611,9.760454-18.112765,8.353071-8.948597,19.152443-9.983206,26.548872-9.983206h.061326c13.801835.010137,31.035419,4.753393,34.754202,27.286395,1.595671,9.670323-3.213642,25.57939-8.782525,44.000984-7.936288,26.250433-17.771837,58.786914-11.055828,84.588634-14.868037-9.567605-28.055003-11.162432-34.962256-9.55882-.131945.03041-.265157.066226-.404873.107448-1.484844-1.980693-4.776116-6.757738-8.241484-14.320998-2.735617-5.970462-6.537858-15.879333-9.117625-29.179913-.091145-.526428-.187527-1.051504-.288978-1.554956l-.077123-.416277c-.050007-.266931-.09993-.534537-.147488-.80755l-.147065-.840663-.077883.042574c-.917278-3.782306-2.052072-6.582713-3.248951-9.535844-.8954-2.20978-2.163997-5.381863-3.008967-8.172808l3.175039-6.545545-.87859-5.12642,3.310025,3.643097-3.891528-17.430234c-.538423-2.411161-1.091797-4.889899-1.376382-7.356474l2.4648,2.221268.065297-4.482408c.033113-2.288846-.305872-4.060049-.633622-5.773811-.133972-.700102-.262285-1.370469-.362637-2.060434,1.818338.187189,2.915542-.617657,3.439689-1.166386ZM17.991153,142.444078c1.193417-2.774727,3.6681-4.226289,7.356474-4.316843,12.91674,1.08259,17.561334,6.223877,24.581948,13.993924,2.828113,3.130184,6.033984,6.679348,10.228512,10.404213,14.956902,13.288416,29.119769,11.994985,44.759878,9.131056,10.23054-1.601584,12.596424-1.542116,19.619065-1.350196,1.754393.047304,3.790415.101366,6.295678.139209.001436.003379.003717.008109.005153.011488,3.795821-.033113,6.607801-1.042043,9.766452-2.057731,11.114536,2.782837,20.111789,3.06058,26.542283.882561,7.399385-2.506445,8.119253-8.394462,8.131248-8.631659l.093764-1.884057-1.177705,1.473187c-.025848.032437-3.085583,3.603226-9.197957,5.400108-4.925884,1.447507-11.523548,1.340735-19.610364-.318965-2.474853-.644688-3.855712-.997442-4.190727-1.06975-33.21462-7.214561-45.004592-17.473483-49.046142-24.809008-2.069895-3.757302-2.678007-7.699091-1.807779-11.71589.305281-1.038664.649334-2.124633,1.040861-3.277503l.362806-.831202-.066902-.03041c7.647817-21.681527,23.538469-35.903862,47.238531-42.275733,5.984315-1.609693,12.393438-2.667955,19.049557-3.145727,12.549542-.871072,17.600613.010137,17.650282.018922l4.537145.824444-.628976-.298016.167761.044601c.083458.021625,8.155407,2.138148,15.808208,2.373993-.80434,3.374139.669861,10.809678.669861,10.809678,0,0,2.577739-7.199694,3.316022-10.28325,2.981514-12.455187,9.869676-21.734913,15.99168-24.02511,4.827897-1.806343,9.871704-.051359,14.991197,5.216298,10.779944,11.092151,1.719506,32.375647-6.274898,51.152698-2.758847,6.479319-5.36463,12.599803-6.953881,17.9026-7.299371,23.238509-.146812,44.369956,18.66842,55.141115l.063354.035816c.934764.605493,1.933896,1.246803,3.004997,1.92528,8.988129,5.897478,15.729311,13.423571,19.491006,21.761944l.117078.602114.141068-.020949.693006,1.584014.244292-1.724575c.884926-.112178,1.947918-.114206,2.73114.059468-1.002173,2.411161-.748251,5.189267-.681011,5.762999l.08633.728484,2.703771,2.580104-1.049139,6.400929h4.49322c-1.747213,5.038569-5.850174,9.277023-7.022979,10.417729l-.264565-.151373-.231959.719699c-1.99235,6.374574-5.672614,11.651016-10.641917,15.260324l-.117247.091905c-3.937903,3.420767-8.376047,7.277408-10.844311,12.401125-1.190376,2.471981-1.766135,4.958152-1.711228,7.390938l.06555,2.884203,2.69431-1.029879c7.088867-2.708501,12.221707-2.501039,14.451761.58522,1.819014,2.516582,1.402231,6.89019-.929358,9.749389-1.361684,1.670513-3.748179,3.318049-7.386883,1.682677l-.08802-.036492c-5.018972-1.931362-9.1368-5.796788-12.256172-11.495588-4.177634-7.461894.476421-18.961537,2.670996-23.558826,6.777842-12.966072,1.36236-25.719275-6.542166-32.073576-3.007193-2.418594-9.514388-5.294688-13.258682-6.604337-.0544-2.084086.444997-4.478353.450403-4.503357l.304774-1.442777-1.233625.806874c-.153063.099339-3.752234,2.54564-4.143676,10.861712-.165058,3.509969-.28467,8.919538.583024,15.34412l.081431.603466.054738-.007434c.346841,2.18748.834919,4.503357,1.453589,6.894244,3.885193,15.015018,13.121838,34.851006,26.71148,57.363735,8.350368,12.693059,14.879019,26.778213,18.396421,39.680762,3.14522,11.538162,3.302169,20.625292.409181,23.71493-.456654.488584-.994908,1.140706-1.618478,1.895546-3.476687,4.204665-11.618917,14.052716-26.253136,18.585807-.988995.306126-2.35693.696723-3.811364,1.110972-.337718-.012164-.67476.051359-.98494.208138-.075349.037843-.14225.087175-.211517.133803-7.020276,2.012454-7.004058,2.165855-6.904212,2.861226.028045.195299.140392.363566.316262.475745.520684.329778,3.368226.33586,6.360214.105421,3.88401,6.976689,11.337795,12.003094,19.270704,12.900522.874113.098663,1.780326.15678,2.579598.208138,2.568109.164889,4.993293.320993,6.722429,1.577256,1.417098,1.029879,1.923252,2.578077,2.098447,3.695807.326568,2.085438-.231959,4.42294-1.458489,6.098859-2.611528,3.568761-7.345661,5.01762-10.85732,5.604192-3.402521.568326-6.501282.55481-9.210966-.039871-5.839868-1.283294-11.330361-5.64136-15.063505-11.956466-3.442392-5.823819-5.767391-14.810934-7.139212-21.522044l.170295-.058117-.319303-.600087c-.099339-.363566-.287204-.681856-.544674-.929189-.500748-.801468-1.346141-2.044892-2.496984-3.346432-9.80514-13.604002-16.13883-21.581512-19.325103-24.340021-1.285998-1.112999-2.654102-2.225323-4.068834-3.306561-9.230732-25.246909,1.156925-59.609331,9.507293-87.230909,5.717215-18.909502,10.654419-35.239576,8.90484-45.846522-1.934403-11.719945-7.437735-20.250913-16.356936-25.356385-7.689799-4.401991-16.430257-5.33118-22.408321-5.33591h-.065719c-8.154562,0-20.0867,1.168413-29.521347,11.27461-3.287386,3.521457-6.095818,8.022111-8.353831,13.385727-.223512.479799-.477857,1.129218-.745632,1.865811l-2.131053-11.277313-6.015063,9.070236-.408843-4.356038-5.9164,6.749629c-2.476711-4.957477-5.883962-9.55409-29.903666-18.27833l-3.56741-1.296134.78187,3.715404c.327075,1.55428.045953,3.245066-.42371,4.734471-2.630112-5.648117-6.031281-8.955354-6.210361-9.127001l-1.377227-1.320462-1.452238,1.236666c-.608196.518994-1.110972,1.062316-1.525897,1.611045-.975817-3.619444-.316262-5.976543-.276391-6.111698l2.204374-7.513253-5.675824,5.366996c-.010137.008109-1.790801,1.594826-4.0391,1.529952-1.477242-3.223441-2.870687-6.538787-4.22291-9.754119-5.508232-13.100551-10.711015-25.475321-20.319842-28.633887l-.72443-.237872-.709562.281122c-12.315978,4.862868-15.83338,1.023122-17.720816-1.042043-.79944-.8731-1.477242-4.312788-.187189-7.310521Zm198.482537,90.582072l-.018922-.112178c-.824782-6.495538-.657528-12.053102-.328426-15.792158,3.272435,1.271131,9.08392,3.875563,11.13236,5.635278,6.730031,5.778542,11.021871,16.391569,5.438965,27.074202l-.009968.019597c-2.083749,4.362796-4.449802,10.573157-4.755589,16.745675-6.213402-13.23503-10.164821-24.801574-11.458421-33.570415Z" stroke-width="0px" fill="#0c0c0c" /><path d="m107.151727,122.624419c-2.829423-1.333304-6.510096-2.763702-10.942843-3.767508-4.034853-.9137-7.643857-1.236506-10.578255-1.30193-.770809.004015-1.938175.123264-2.852024.902697-2.287745,1.951259-1.313528,6.584738-.867012,9.049276.574241,3.169477,4.443585,8.275844,7.784667,9.782615,3.540312,1.59662,11.290778-3.534808,11.290778-3.534808,0,0,6.697297-4.384572,8.406042-8.00116.590597-1.24974-.667172-2.758349-2.241354-3.129182Z" stroke-width="0px" /><path d="m104.237553,126.895717c.170399,0,.339757-.071074.460196-.20995.598923-.689922.394623-1.724507-.148839-2.32581-.492015-.544503-1.184019-.789841-1.689416-.969162-4.885955-1.735213-9.949742-3.0874-15.050405-4.019092,8.013545,2.837851,9.818152,3.453475,14.642995,5.166979.496625.176049.928867.345556,1.193089.63788.196568.217682.2611.56294.13278.711036-.220507.253963-.193297.638475.060666.859131.115235.09992.257531.148987.398935.148987Z" stroke-width="0px" fill="#fff" /></g></g></svg>