<?xml version='1.0' encoding='utf-8'?>
<svg viewBox="0 0 216 216" width="216px" height="216px" version="1.1" xmlns="http://www.w3.org/2000/svg" xmlns:xlink="http://www.w3.org/1999/xlink"><g isolation="isolate"><g id="Layer_1"><path d="M 16.7401345 190.7769235 C 17.5738835 194.022817 19.7610245 196.7683485 23.064947 198.71644650000002 C 26.029492 200.46424950000002 29.6417185 201.40301300000002 33.2123885 201.3408655 C 38.250824 201.25531900000001 58.554598500000004 189.116188 68.5348785 174.168067 L 74.409403 180.001924 L 81.1465975 183.5970925 C 86.954201 184.9235285 99.933095 185.0499995 104.012363 183.834568 L 104.41894199999999 183.713268 L 104.24111049999999 184.0985075 C 103.64003999999998 185.4002345 102.37687449999999 186.57261200000002 101.0395815 187.813689 C 99.020164 189.687472 96.93223449999999 191.6250865 96.660433 194.356392 C 96.44010899999999 195.775862 96.8315255 197.2645925 97.7628015 198.548162 C 98.8756525 200.0818185 100.63431299999999 201.168837 102.467288 201.4559885 C 102.898202 201.5237515 103.339973 201.5580075 103.780808 201.5580075 C 107.12011 201.5580075 109.95100049999999 199.6027965 111.33789949999999 198.440153 C 114.60775349999999 195.573696 117.76838149999999 190.00607150000002 118.12086199999999 179.76709350000002 C 118.12104899999999 177.2551765 117.86918349999999 176.88453800000002 117.79702149999999 175.40519 C 117.79702149999999 175.40519 121.58969999999998 177.9365515 127.67434649999998 179.090023 C 131.52992149999997 179.766719 135.46093399999998 180.10984 139.35843999999997 180.10984 C 152.83114399999997 180.10984 165.95099299999998 175.97366549999998 176.30116249999998 168.463372 C 188.59381399999998 159.54315499999998 196.52098199999998 146.5146555 198.62295099999997 131.7742935 C 203.12171449999997 103.653887 191.33354299999996 80.97961749999999 183.90729799999997 69.967915 C 177.19031999999996 60.201407 170.83930099999998 55.33238 166.63648699999996 52.11044700000001 C 162.31255999999996 48.795480000000005 160.85265699999997 47.51902400000001 161.54676149999995 44.96068350000001 C 161.71878999999996 44.33321900000001 162.49301249999994 43.61384350000001 163.83442399999996 43.42084950000001 C 165.12885049999994 43.23234800000001 169.73749499999997 43.25293900000001 174.74635399999997 51.357377000000014 L 175.35116849999997 52.33601200000001 L 176.021687 51.40099250000001 C 180.89576849999997 44.60352250000001 181.43618899999998 35.99703800000001 177.5044275 27.78814700000001 C 174.8253485 22.194316000000008 170.336132 17.28242150000001 164.52178949999998 13.58352600000001 C 158.288888 9.61807000000001 150.8188405 7.29072300000001 142.926864 6.85307050000001 C 132.3631095 6.66999750000001 124.74892449999999 9.03740350000001 119.62569199999999 14.07771050000001 C 114.60073449999999 19.02086550000001 112.05287649999998 26.595365500000007 112.05287649999998 36.59080800000001 C 112.05287649999998 54.38238500000001 118.75375599999998 67.68736550000001 124.13868199999999 78.37972050000002 C 127.48322499999999 85.02051150000003 130.37158349999999 90.75567200000002 131.0707425 96.16961250000001 C 132.3335335 104.54454150000001 131.7143055 112.14225350000001 129.23009249999998 118.7515965 C 127.67116499999999 122.8993765 125.45351249999999 126.45544550000001 122.63890699999999 129.320967 L 118.71912549999999 132.025457 L 116.46609349999999 132.2031245 C 117.10301099999998 129.678525 117.94162699999998 118.5182625 118.08567099999999 116.64635200000001 C 118.16868999999998 115.56747600000001 118.62693399999999 100.46377600000001 114.83837349999999 102.79102950000001 C 113.95361499999999 103.334539 111.1039115 98.29647800000001 111.1039115 98.13652300000001 C 111.1039115 97.79106200000001 97.2224755 92.39462350000001 97.227249 92.04261100000001 C 97.3132635 85.76469 98.080747 80.62217650000001 98.080747 80.62217650000001 C 98.49341 67.1244355 104.2837915 58.23505850000001 106.69135 53.039102000000014 C 110.660737 44.47174050000001 112.61913 32.90351850000002 105.0753295 28.496853000000012 C 102.27906899999999 26.862862000000014 99.4964735 26.57814450000001 97.028359 27.673774000000012 C 93.81353949999999 29.100357500000012 91.17732699999999 32.80486900000001 89.404066 38.388779000000014 C 89.18056 39.06547500000001 89.0096545 39.63416150000001 88.866079 40.17832600000001 L 88.8076755 40.399960000000014 L 88.59989350000001 40.303182000000014 C 85.41745800000001 38.821190000000016 82.9643185 38.42827600000001 82.04090500000001 38.28039500000001 L 81.74402 38.231538000000015 L 81.71687750000001 38.103686500000016 C 79.73789350000001 28.761541000000015 75.80744200000001 24.065478000000017 69.70033300000001 23.747066000000018 C 68.06615500000001 23.65889900000002 66.52706950000001 24.232827000000018 65.25622950000002 25.404830500000017 C 62.761721000000016 27.705409000000017 61.35067450000002 32.17272400000002 61.06240050000002 38.682856000000015 L 61.05603600000002 38.828865000000015 L 60.91358350000002 38.861249000000015 C 57.58588750000002 39.61974750000002 54.487500500000024 40.68654950000001 51.70434350000002 42.032266000000014 C 42.53572400000002 46.46513800000001 36.518092000000024 53.914594500000014 33.819171000000026 64.17004550000001 C 33.213795000000026 66.65781500000001 33.65331950000002 69.11544700000002 35.12539050000002 71.47480350000001 C 37.16801950000002 74.748495 41.168667500000026 77.722587 46.774292000000024 80.16964250000001 C 46.92179850000002 80.150034 47.07538900000002 80.13913050000001 47.23955550000002 80.14455900000002 C 49.39889850000002 80.21639350000001 51.28728200000002 81.12759300000002 53.37399450000002 81.53328300000001 C 54.14353700000002 81.68289550000001 54.720741000000025 82.27849050000002 55.007236500000026 82.99257800000001 C 56.23202800000003 83.08327200000001 57.39148950000003 83.44062000000001 58.59999500000003 83.663424 C 59.77274700000003 83.87958300000001 59.71977200000003 85.7277205 58.59999500000003 85.981458 C 57.587385000000026 86.21086050000001 56.58507000000003 86.37601000000001 55.57667200000003 86.443352 C 57.39532700000003 97.953919 57.19252350000003 103.70273750000001 53.22236950000003 111.234144 C 54.00239500000003 112.3147045 55.096807500000025 111.749715 54.62985950000003 113.209431 C 54.33203850000003 114.1403325 52.50584100000003 115.642766 51.90776550000003 116.41904749999999 C 51.13962700000003 117.41630799999999 53.15329650000003 118.44872249999999 52.67099850000003 119.61808199999999 C 52.43635450000003 120.18681549999998 51.06461800000003 119.98146649999998 50.60300500000003 120.31543899999998 C 50.622847500000034 120.35486599999999 51.02418500000003 121.32135699999998 51.04608650000003 121.36335799999998 C 51.04608650000003 121.36335799999998 48.14162950000003 127.97426849999998 46.25839350000003 136.14160299999998 C 46.25839350000003 136.14160299999998 38.72750900000003 146.57603199999997 35.60319600000003 177.37163299999997 C 35.26278900000003 180.72743099999997 35.15038100000003 187.47281499999997 34.34302550000003 189.35913949999997 L 34.19608050000003 189.70263499999996 L 34.00289950000003 189.38291249999995 C 32.64033550000003 187.12875749999995 29.076030000000028 181.84865849999994 25.399784500000024 181.50272949999996 C 21.815075000000025 180.89491999999996 18.178701000000025 182.67248649999996 16.941742500000025 185.63778049999996 C 16.163215000000026 187.50388849999996 16.402445000000025 189.46246899999997 16.740137500000024 190.77692449999995 Z M 99.251106 113.02017500000001 C 107.3342045 114.15675250000001 109.79918799999999 121.46993850000001 110.4544505 123.03279700000002 C 111.625705 125.82674100000001 111.4624745 130.9531795 111.79239899999999 132.5716805 L 104.07114099999998 133.18056650000003 C 104.07114099999998 133.18056650000003 101.84899549999999 127.90318200000003 98.81809099999998 113.63355850000002 C 98.78645549999999 113.48441400000002 98.31861349999998 112.88904800000002 99.25110599999998 113.02017550000002 Z &#10;" stroke-width="0px" fill="#c56439" /><path d="M 96.9575055 197.4477585 C 98.082711 197.21463549999999 98.1399455 198.89559599999998 101.6037755 198.6417165 C 104.460556 198.43233 109.0307115 196.90980150000001 113.1134065 190.170588 C 115.434857 186.04999750000002 115.2218335 181.0219745 114.832663 176.308503 C 114.6356445 173.92230800000002 114.39501 171.4813595 113.3677055 169.318671 C 112.984151 168.5112925 112.46273 167.723382 111.6796165 167.29249149999998 C 110.7292475 166.76957299999998 109.57193849999999 166.85956549999997 108.4951215 166.99027149999998 C 107.7643275 167.07897649999998 107.006765 167.17170649999997 106.28317799999999 167.09121449999998 C 106.2779365 167.09105049999997 106.27438 167.09327349999998 106.26895149999999 167.09280549999997 C 106.23900099999999 167.09023149999996 106.20979899999999 167.08239299999997 106.17994199999998 167.07897699999998 C 106.11573549999999 167.070249 106.05162249999998 167.06096 105.98807099999998 167.04912 C 103.71023649999998 166.6530005 101.77617799999997 163.9160325 101.60396199999998 161.6101425 C 101.42463299999999 159.2097445 102.43078499999999 156.886305 103.56778349999998 154.764705 C 104.70487599999997 152.6431045 106.01343499999997 150.558451 106.52689999999997 148.20676949999998 C 106.64979099999996 147.64416649999998 106.73702199999997 147.03841649999998 106.77137149999997 146.42447649999997 C 107.14472399999997 147.45625049999998 107.60193849999997 148.47810299999998 107.72679499999997 149.03186099999996 C 108.21461499999997 151.19583699999995 108.10510799999997 153.44402499999995 107.99298049999997 155.65945499999995 C 107.93008449999998 156.90216999999996 107.86709449999998 158.14493149999996 107.80419849999997 159.38764649999996 C 107.86185349999997 159.41612299999997 107.91885299999997 159.44541849999996 107.97426149999997 159.47553249999996 C 110.30432249999997 160.74234799999996 112.19551399999997 162.69147549999997 113.82098799999997 164.78710299999995 C 114.76985949999997 166.01023299999994 115.64984499999997 167.30929249999994 116.19195049999998 168.75925099999995 C 116.89756749999998 170.64681549999995 116.99921199999997 172.69840649999995 117.07848749999998 174.71199799999994 C 117.18584149999998 177.43806199999995 117.26614649999998 180.16517849999994 117.31940249999998 182.89283349999994 C 117.35066349999998 184.49575099999993 117.37181599999998 186.10917399999994 117.10909349999999 187.69070499999995 C 116.70841099999998 190.10266199999995 115.65742649999999 192.36584899999994 114.37114299999999 194.44509749999995 C 112.65403899999998 197.22046299999994 110.3965145 199.80100899999994 107.4085705 201.11373299999994 C 104.42072 202.42648049999994 100.603332 202.20784149999994 98.25380299999999 199.94280599999993 C 97.56231899999999 199.27626549999994 97.00046499999999 198.40718399999994 96.95750449999998 197.44775949999993 C 96.91445049999999 196.48833499999992 96.01705649999998 197.64260199999993 96.95750449999998 197.44775949999993 Z &#10;" fill="#754123" mix-blend-mode="multiply" stroke-width="0px" opacity=".25" /><path d="M 106.4391085 143.5415455 C 106.743575 144.427521 106.8266875 145.43666800000003 106.7713725 146.4244755 C 106.3474785 145.253057 106.031874 144.0687925 106.4391085 143.5415455 Z &#10;" fill="#754123" mix-blend-mode="multiply" stroke-width="0px" opacity=".25" /><path d="M 56.667506 103.1038685 C 58.3573065 101.468592 67.787986 104.8296605 73.0558935 113.1284195 C 71.92928049999999 123.94638800000001 70.8493435 130.9728275 67.7671575 140.776953 C 64.68497149999999 150.5810785 67.42031999999999 169.88487049999998 71.6452875 176.758329 C 67.7158225 172.8073195 57.685148999999996 168.838348 52.774644499999994 148.455927 C 51.9120995 144.8801925 47.61326199999999 145.7504185 47.672515999999995 143.4910525 C 47.73177 141.231686 49.120811999999994 139.4611725 47.998459499999996 137.861325 C 46.876107 136.26147749999998 45.832356499999996 133.31605299999998 45.832356499999996 133.31605299999998 C 45.832356499999996 133.31605299999998 46.860681 134.12788799999998 47.40190449999999 133.53254249999998 C 47.943127999999994 132.93719699999997 48.72874949999999 131.01188249999998 48.071040999999994 129.51360949999997 C 47.413332499999996 128.01533649999996 47.347782499999994 125.84716999999998 47.347782499999994 125.84716999999998 L 50.16214399999999 125.14357949999997 C 50.16214399999999 125.14357949999997 48.64671849999999 119.13599999999997 48.75496299999999 118.59477649999997 C 48.86320749999999 118.05355299999997 49.34297899999999 115.41666399999997 49.34297899999999 115.41666399999997 L 51.839935999999994 117.07935099999997 C 51.839935999999994 117.07935099999997 53.537015 107.69183049999998 56.6675055 103.10386949999997 Z &#10;" stroke-width="0px" fill="#e7caae" /><path d="M 29.229243 114.2867145 C 29.8323725 112.34685350000001 28.9872985 109.94233700000001 29.632359 108.029244 C 30.6134275 105.11931200000001 32.372275 101.9908805 34.034251 99.389486 C 36.878526 94.93733300000001 42.255028499999995 92.055901 44.935323999999994 88.23505 C 45.17090399999999 87.899229 45.021993499999994 87.5284035 44.851555999999995 87.283511 C 44.96162449999999 87.10254400000001 45.065422 86.92162400000001 45.16547549999999 86.74061 C 45.239602999999995 86.7597035 45.31625799999999 86.7756615 45.399370999999995 86.782073 C 45.590306 86.975067 45.78133449999999 87.168014 45.972269499999996 87.3609615 C 46.115751499999995 88.0677015 47.133883999999995 88.526694 47.7379495 88.0793075 C 49.042952 87.11284 50.558732 87.0801285 52.0343595 86.47938549999999 C 52.51647 86.2831155 53.0111225 86.09601799999999 53.4748885 85.86025099999999 C 53.800601 85.69795649999999 54.1147075 85.51553849999999 54.417021 85.31304449999999 C 54.683113 85.08715149999999 54.8746095 85.15472749999999 54.9916975 85.51591299999998 C 55.7674175 85.91210299999999 56.104735500000004 86.28924599999998 57.0839325 86.21975149999999 C 58.6839485 86.10612649999999 60.162945 85.74269499999998 61.7984335 85.75373949999998 C 61.967935000000004 85.75486249999999 62.1154415 85.72289999999998 62.2478795 85.67259199999998 C 63.603424000000004 88.03718999999998 62.308997500000004 90.72721949999998 63.197874500000005 93.55895249999998 C 64.1474015 96.58358599999997 61.950433000000004 100.28678749999997 59.803164 102.11498899999998 C 59.4403875 102.42376049999999 58.476447 102.57112699999998 58.030651500000005 102.71554499999998 C 56.653674 103.16162149999998 56.74698850000001 101.91043599999998 55.254982000000005 101.76803049999998 C 53.34188900000001 101.58551899999998 49.087410000000006 101.47919449999998 47.31227700000001 102.15209999999998 C 45.12111150000001 102.98271349999997 41.903484000000006 104.44345949999997 40.27136500000001 106.10066199999997 C 39.14634650000001 107.24299549999998 38.17042600000001 109.06305449999996 37.40359750000001 110.46511599999997 C 36.74066050000001 111.67731849999997 35.60778000000001 111.59893249999996 36.95181200000001 112.95616149999996 C 36.54354800000001 113.70473849999996 37.68485250000001 115.54697949999996 38.25578500000001 116.27562099999996 C 38.60864000000001 116.72590899999996 39.07465250000001 117.57042149999995 39.33821750000001 118.06170499999996 C 40.795313000000014 120.77733299999996 40.33716250000001 121.78229149999996 39.66299400000001 124.50222499999997 C 39.52241350000001 125.06960099999996 38.16471650000001 125.96610599999997 37.76871400000001 126.39650499999996 C 36.61842500000001 127.64682449999997 34.33104350000001 127.58362399999996 32.78943100000001 126.45064999999997 C 31.22245450000001 125.29907399999996 29.269490000000008 123.37077149999996 28.730286000000007 121.57963349999997 C 28.210924500000008 119.85457399999997 28.823413500000008 116.42855599999997 29.22924400000001 114.28671549999997 Z &#10;" stroke-width="0px" fill="#c56439" /><path d="M 107.117655 158.9813225 C 116.9707175 161.9828515 113.990704 175.116539 120.793218 177.0225005 C 123.12512249999999 177.783882 125.605233 178.4393115 128.22459849999998 178.94118450000002 C 160.3732685 183.3792165 193.5376495 164.3392315 198.05514399999998 132.3210515 C 202.1255105 106.607257 192.8703525 84.5887835 183.4979655 70.54268050000002 C 170.611642 51.605811500000016 159.3139005 51.306866000000014 161.0882255 44.69685250000002 C 161.86162299999998 41.84772150000002 168.95824249999998 39.94697650000002 175.6449305 50.94148850000002 C 178.221007 39.26364050000002 163.61694 25.66525300000002 151.75589549999998 33.29460950000002 C 146.41235899999998 37.04048650000002 141.0670175 45.73694100000002 151.73756049999997 64.25676650000003 C 164.16715649999998 85.82961000000003 177.36513749999997 140.12633050000002 133.10840149999996 149.68628600000002 C 116.00972799999995 151.1583835 107.34621699999995 147.91763100000003 107.34621699999995 147.91763100000003 C 107.34621699999995 147.91763100000003 109.40833499999995 152.31299350000003 107.11765449999996 158.98132250000003 Z &#10;" fill="#754123" mix-blend-mode="multiply" stroke-width="0px" opacity=".25" /><path d="M 129.1117995 121.8198285 C 147.9463735 88.23214300000001 117.91160749999999 66.3821005 124.96358249999999 37.420297500000004 C 132.0155575 8.458494500000004 158.652597 15.282971500000002 175.311075 26.744540500000003 C 175.311075 26.744540500000003 168.72935249999998 7.806346000000001 138.096108 7.806346000000001 C 107.46286349999998 7.806346000000001 111.684406 43.595066 115.47296999999999 54.7644025 C 122.761445 82.4590935 139.79194149999998 90.685689 129.1117995 121.8198285 Z &#10;" stroke-width="0px" opacity=".66" fill="#d8b58e" /><path d="M 92.966783 49.3985995 C 92.974489 48.519264500000006 92.982195 47.6399295 92.9899015 46.7605945 C 93.01572850000001 43.813503000000004 93.055127 40.7917755 94.1156585 38.041996000000005 C 95.17618999999999 35.2922165 97.49250749999999 32.828491500000005 100.416832 32.461963000000004 C 103.280952 32.10298100000001 106.2611865 34.052087500000006 107.080313 36.819954 C 107.080313 36.819954 96.55155400000001 31.434431500000002 92.966783 49.3986 Z &#10;" opacity=".35" fill="#754123" mix-blend-mode="multiply" stroke-width="0px" /><path d="M 107.0803345 36.819976 C 105.0974355 32.880795 100.72433600000001 31.584613499999996 97.2941765 34.5494485 C 95.73445450000001 35.864326 95.00043050000001 37.743951499999994 94.32137150000001 39.64550199999999 C 93.61768650000002 41.637005499999994 93.24312050000002 43.69429399999999 92.96685550000001 45.803 C 92.49463700000001 43.1515225 92.7558305 40.3190405 93.60282550000001 37.731596999999994 C 94.37551350000001 34.953590999999996 96.5055485 32.44475049999999 99.39462100000001 31.767843499999994 C 102.94960700000001 30.846346999999994 106.46211750000002 33.267123999999995 107.08033500000002 36.8199755 L 107.08033500000002 36.8199755 Z &#10;" stroke-width="0px" /><path d="M 71.560123 31.9442425 C 70.4209335 31.508008500000003 69.19495450000001 31.319474500000002 68.075247 30.835422 C 66.6653165 30.2259055 65.463829 29.1454215 64.7086245 27.8078565 C 63.440729499999996 31.166305 62.6838835 34.717158 62.4721255 38.300717 C 62.458796 38.5262935 62.4655005 38.7918545 62.648512999999994 38.9244025 C 62.75750349999999 39.003339 62.901278999999995 39.0110205 63.035844999999995 39.009648999999996 C 63.89845749999999 39.000859 64.7358675 38.74305699999999 65.573256 38.535773999999996 C 68.5447595 37.80022399999999 71.625386 37.6902975 74.6727255 37.7616035 C 75.44618249999999 37.779702 76.219402 38.420993 76.992248 38.456390999999996 C 77.8601715 38.496143499999995 79.059248 39.118334999999995 78.403858 38.261258 C 77.6228905 37.239958 76.5253195 35.5201475 75.587338 34.640018 C 74.5505175 33.667145999999995 72.894824 32.455344 71.560123 31.944242499999998 Z &#10;" opacity=".35" fill="#754123" mix-blend-mode="multiply" stroke-width="0px" /><g opacity=".66"><path d="M 66.079362 27.1002265 C 69.002897 25.8032685 71.672993 27.380489500000003 74.090524 29.0629555 C 75.296815 29.899662 76.350539 30.8147445 77.3384215 31.9262215 C 78.3859645 33.0973055 79.23037049999999 34.3620975 80.08704999999999 35.7468575 C 80.64383749999999 32.253508999999994 78.5882415 28.674829999999996 75.72299199999999 26.727810499999997 C 74.252911 25.723869999999998 72.590605 24.911606999999997 70.75393199999999 24.791506999999996 C 68.9651835 24.655062999999995 66.83870099999999 25.410853499999995 66.07936149999999 27.100226499999994 L 66.07936149999999 27.100226499999994 Z &#10;" stroke-width="0px" fill="#d8b58e" /></g><g opacity=".66"><path d="M 88.0682275 41.031214 C 78.767328 37.516963 67.23025200000001 37.764792 57.885011500000005 41.0310705 C 62.965509000000004 41.529361 67.942834 41.363412 72.99105800000001 41.359688999999996 C 77.47996150000002 41.276757499999995 83.60593200000001 41.385563999999995 88.0682275 41.03121349999999 L 88.0682275 41.03121349999999 Z &#10;" stroke-width="0px" fill="#d8b58e" /></g><path d="M 44.264537 61.3980085 C 45.7508865 61.635856000000004 47.254315999999996 61.878510500000004 48.639792 62.4669505 C 50.598282499999996 63.298761500000005 52.2213705 64.778994 54.1587595 65.658834 C 59.889148500000005 68.26121549999999 67.7882445 65.529928 73.57422700000001 68.0062465 C 77.58691150000001 69.7236185 79.39357000000001 73.8291415 78.909737 78.1669875 C 78.40641350000001 82.679575 74.412884 85.48979650000001 69.874899 85.33659800000001 C 68.039012 85.27462000000001 66.2145435 85.15439500000001 64.4213445 84.75595150000001 C 58.3451505 83.40583950000001 42.756522000000004 81.13321950000001 35.960779 71.45873700000001 C 35.541973500000005 70.86252150000001 34.729257000000004 68.00816100000002 34.8599045 66.48156400000002 C 35.0696255 64.03099900000002 35.540769 61.00680400000002 36.0944305 60.75612450000002 C 38.353978500000004 59.73307650000002 41.764812 60.99799900000002 44.264538 61.39800800000002 Z &#10;" stroke-width="0px" fill="#e7caae" /><path d="M 78.984681 76.8519945 C 76.08368 78.850474 72.63796049999999 79.958433 69.15125049999999 80.4610055 C 65.66454049999999 80.963578 62.12014549999999 80.88434649999999 58.60385399999999 80.6712295 C 57.06897849999999 80.578203 55.52878499999999 80.45888049999999 54.029642499999994 80.1167265 C 52.695032 79.812124 51.40723299999999 79.334174 50.123943499999996 78.8575855 C 47.856989999999996 78.0156825 45.5812865 77.169844 43.455006499999996 76.01797 C 40.220499499999995 74.26573400000001 37.378158 71.82087 35.057016 68.96698400000001 C 36.0178515 72.69968800000001 38.6707915 75.96151950000001 42.129459499999996 77.66266600000002 C 43.674915999999996 78.42279900000001 45.349217499999995 78.87763900000002 46.960522 79.48586150000001 C 49.3119485 80.37345900000001 51.5312135 81.58877350000002 53.897914 82.43480200000002 C 56.4768695 83.35670600000002 59.191516 83.82651450000002 61.890406 84.29225000000002 C 64.8182755 84.79749850000002 67.799509 85.30424150000002 70.7458915 84.92145400000003 C 72.9194565 84.63906900000002 75.2398185 83.83458750000003 76.95400599999999 82.39448600000003 C 78.398985 81.18054850000003 79.0043255 79.02408300000003 78.984681 76.85199500000003 Z &#10;" fill="#754123" mix-blend-mode="multiply" stroke-width="0px" opacity=".25" /><path d="M 57.603481 83.2193585 C 60.534144500000004 83.2770135 63.4194145 83.776252 66.3298615 84.080344 C 66.3389405 84.08127999999999 66.347738 84.081327 66.3567235 84.082216 C 66.7062095 84.2059495 67.057567 84.314333 67.4120135 84.39782 C 68.7060655 84.702567 70.0174325 84.670698 71.320376 84.6269885 C 72.35844399999999 84.592171 73.408867 84.5475725 74.4001375 84.12882599999999 C 75.2003795 83.79085249999999 75.9373505 83.21505249999998 76.6278985 82.548278 C 76.9969455 82.19200649999999 77.73972 79.51915199999999 78.561489 79.810047 C 82.47013249999999 81.19367 85.688041 85.5026215 80.795053 88.542605 C 79.43024299999999 89.5901265 72.9156185 86.7397675 71.36108999999999 86.7889055 C 67.087611 86.7889055 65.23320249999999 86.219283 61.17377649999999 85.8540265 C 60.86004399999999 85.826088 60.53629749999999 85.7873865 60.20702799999999 85.7404485 C 59.50590399999999 84.7036905 58.509017499999985 84.1349575 57.60348099999999 83.219359 Z &#10;" fill="#754123" mix-blend-mode="multiply" stroke-width="0px" opacity=".25" /><path d="M 46.692351 72.419946 C 48.984787000000004 76.7287235 57.48935 82.7745975 58.9848635 73.0831015 L 56.298856 73.618571 L 50.813308 73.3547635 L 46.692351 72.41994600000001 Z &#10;" stroke-width="0px" /><path d="M 69.3274955 61.15215 C 67.40233549999999 60.662051999999996 65.7184645 60.24746 63.799835 60.194316 C 63.799836500000005 60.1942935 62.6823055 60.1445005 62.6823055 60.1445005 C 61.886255 60.123471 61.1522 60.0675095 60.3321215 60.213743 C 60.517628 59.7901945 60.883024999999996 59.481142 61.2489835 59.225626 C 63.837224500000005 57.565487 67.960492 58.2330985 69.3274955 61.15215 L 69.3274955 61.15215 Z &#10;" stroke-width="0px" /><path d="M 49.5081715 41.5550215 C 48.672876 41.2254495 47.254650500000004 40.618986 46.430838 40.399586500000005 C 46.019996500000005 40.278405500000005 45.3775275 40.13597800000001 44.9516575 40.024584000000004 C 44.3728555 39.88799900000001 43.873613000000006 39.7299365 43.231938500000005 39.718054 C 43.357353 39.367132000000005 43.64759300000001 39.1151725 43.941202000000004 38.9185285 C 46.0446985 37.5917775 49.389277500000006 38.951102 49.5081715 41.5550215 L 49.5081715 41.5550215 Z &#10;" stroke-width="0px" /><path d="M 47.13047 56.6411255 C 45.2053395 56.150983000000004 43.521508000000004 55.736475500000005 41.602903000000005 55.6832915 C 41.60290450000001 55.683268500000004 40.4853735 55.633522500000005 40.4853735 55.633522500000005 C 39.6893205 55.61245350000001 38.9552655 55.5564765 38.1351895 55.70276500000001 C 38.320696000000005 55.279216500000004 38.686093 54.97011700000001 39.052051500000005 54.714648000000004 C 41.640184500000004 53.05447650000001 45.763495000000006 53.722079 47.13047 56.641125 L 47.13047 56.641125 Z &#10;" stroke-width="0px" /><path d="M 72.7808905 45.971374 C 71.945517 45.641779 70.52740349999999 45.035326999999995 69.7034635 44.815939 C 69.292788 44.694786 68.6500655 44.5522815 68.224283 44.440937 C 67.6453635 44.3043725 67.146358 44.146324 66.504564 44.134406999999996 C 66.630072 43.783485 66.920312 43.531525499999994 67.21382750000001 43.334928 C 69.31731500000001 42.008089999999996 72.6619725 43.3674855 72.78089050000001 45.971374 L 72.78089050000001 45.971374 Z &#10;" stroke-width="0px" /><path d="M 65.449353 46.86825 L 65.4495485 46.867945500000005 L 65.44957000000001 46.867945500000005 C 65.86849400000001 46.232493000000005 66.63378100000001 45.866625000000006 67.43338050000001 45.99798200000001 C 68.51787250000001 46.17615400000001 69.252609 47.19971850000001 69.07445900000002 48.28423250000001 C 69.01072650000002 48.67223600000001 68.83744700000003 49.01418550000001 68.59319450000002 49.28685750000001 L 68.59386850000003 49.28737950000001 C 65.81569900000002 53.74965900000001 67.20195700000002 59.683020500000005 67.20195700000002 59.683020500000005 L 63.27462850000002 59.037870000000005 C 62.24782400000002 52.360487000000006 65.02225350000002 47.5618465 65.40519050000002 46.9387885 C 65.41952000000002 46.914935 65.43411050000002 46.891408 65.44935300000002 46.8682505 Z &#10;" stroke-width="0px" /><path d="M 42.5623575 42.9588165 C 42.576774 42.934810999999996 42.591473 42.911109499999995 42.606824499999995 42.8878 L 42.606889499999994 42.887691499999995 L 42.606889499999994 42.887691499999995 C 43.025834999999994 42.252238999999996 43.791121999999994 41.886371 44.590721499999994 42.017728 C 45.67521349999999 42.195878 46.409949999999995 43.2194645 46.23179999999999 44.3039565 C 46.16806749999999 44.69196 45.99478799999999 45.033930999999995 45.75053549999999 45.3066035 L 45.75120949999999 45.3071255 C 42.97301849999999 49.769405 44.35929799999999 55.702766499999996 44.35929799999999 55.702766499999996 L 40.43196949999999 55.057615999999996 C 39.405273499999986 48.3811245 42.178876999999986 43.582897499999994 42.56235749999999 42.958816999999996 Z &#10;" stroke-width="0px" /><circle cx="67.159025" cy="48.0400715" r="1.361069" stroke-width="0px" fill="#fff" /><circle cx="44.2570535" cy="44.138349" r="1.361069" stroke-width="0px" fill="#fff" /><path d="M 44.276902 62.272121 C 42.8621905 61.605469 41.021854 60.89027 38.8054805 60.388366999999995 C 36.788054 59.93151699999999 34.983552 59.77011399999999 33.516353 59.737401999999996 C 33.1309485 59.739409499999994 32.5472655 59.799034 32.090341 60.1887505 C 30.9464685 61.164379999999994 31.433577000000003 63.4811195 31.656835 64.7133885 C 31.9439555 66.298127 33.8786275 68.8513105 35.5491685 69.60469599999999 C 37.3193245 70.40300599999999 41.1945575 67.83729199999999 41.1945575 67.83729199999999 C 41.1945575 67.83729199999999 44.543206000000005 65.645006 45.3975785 63.83671199999999 C 45.692877 63.21184199999999 45.063992500000005 62.457537499999994 44.2769015 62.27212099999999 Z &#10;" stroke-width="0px" /><path d="M 42.819815 64.40777 C 42.9050145 64.40777 42.9896935 64.372233 43.049913 64.302795 C 43.349374499999996 63.957834000000005 43.247224499999994 63.4405415 42.9754935 63.13989 C 42.729486 62.8676385 42.383483999999996 62.7449695 42.1307855 62.655309 C 39.687808000000004 61.7877025 37.1559145 61.111609 34.605583 60.645763 C 38.61235550000001 62.0646885 39.514659 62.3725005 41.9270805 63.2292525 C 42.175393 63.317277000000004 42.391514 63.4020305 42.523625 63.5481925 C 42.621909 63.6570335 42.654175 63.8296625 42.590015 63.9037105 C 42.4797615 64.030692 42.4933665 64.222948 42.620348 64.333276 C 42.6779655 64.383236 42.7491135 64.4077695 42.8198155 64.4077695 Z &#10;" stroke-width="0px" fill="#fff" /><path d="M 54.0035995 81.9384985 C 57.7515715 83.135549 59.262487 84.2025235 61.1748095 86.283739 &#10;" fill="none" stroke="#0c0c0c" stroke-miterlimit="10" stroke-width="3.450306px" /><path d="M 103.6792635 96.850221 C 105.1964085 97.2121795 106.709585 97.7613745 108.266132 97.66185800000001 C 105.689045 95.5688365 102.068406 95.163509 99.431519 93.146347 C 99.18306849999999 92.956288 98.93678949999999 92.748468 98.638317 92.65485050000001 C 98.33984450000001 92.56123300000002 97.9683195 92.6149795 97.78848 92.87092450000002 C 97.648578 93.07003200000001 97.65671800000001 93.33269050000001 97.648071 93.57588100000001 C 97.5917215 95.16064150000001 95.950045 96.34778750000001 98.2624015 96.341385 C 100.10111599999999 96.33629400000001 101.881149 96.421229 103.67926299999999 96.8502205 Z &#10;" fill="#754123" mix-blend-mode="multiply" stroke-width="0px" opacity=".25" /><path d="M 105.8205665 106.936451 C 108.27850649999999 109.480851 110.1396325 112.5321605 111.9154975 115.591857 C 112.7231535 116.983394 113.5268665 118.405114 113.914232 119.96672550000001 C 114.3981315 121.91750100000002 114.203891 123.96587300000002 113.966203 125.96166550000001 C 113.79963649999999 127.36027100000001 113.61318499999999 128.756508 113.40692299999999 130.1498125 C 113.30054399999999 130.868404 113.180185 131.6099695 112.78768299999999 132.221224 C 112.66799799999998 132.407613 112.51204849999999 132.587317 112.3001815 132.65195300000002 C 111.90137399999999 132.77362050000002 111.48714249999999 132.41762250000002 111.37893299999999 132.01495450000002 C 111.27072349999999 131.6122865 111.3763645 131.1874975 111.46213599999999 130.77946050000003 C 111.78609399999999 129.23830600000002 111.82250699999999 127.63537950000003 111.54981849999999 126.08433250000003 C 111.06974849999999 123.35370500000003 109.64255499999999 120.84730600000003 107.78113599999999 118.79257650000002 C 105.91971699999999 116.73784700000003 103.63544149999998 115.10641100000002 101.25034249999999 113.69287050000003 C 100.57132999999999 113.29045050000002 99.86753999999999 112.89190550000002 99.35910649999998 112.28817050000002 C 98.71345799999999 111.52149950000002 98.45356899999999 110.51038950000002 98.23128949999999 109.53302600000002 C 97.68213599999999 107.11839250000003 96.911205 104.45062450000002 96.82168549999999 101.97728500000002 C 98.05258199999999 101.46656800000002 100.61940249999999 103.00904300000002 101.69027349999999 103.63824700000002 C 103.2139345 104.53349350000002 104.5942475 105.66700000000002 105.82056699999998 106.93645050000002 Z &#10;" fill="#754123" mix-blend-mode="multiply" stroke-width="0px" opacity=".25" /><path d="M 110.917253 100.6112035 C 111.026872 100.76866150000001 111.1361595 100.9893065 111.01173200000001 101.1353445 C 110.94273950000002 101.2163195 110.8273855 101.235763 110.7219625 101.25000800000001 C 110.37631 101.29671300000001 110.0178655 101.34251750000001 109.6841845 101.240959 C 109.3505035 101.1394005 109.047985 100.84683150000001 109.0528425 100.49807150000001 C 109.055121 100.33449 109.12262299999999 100.17962650000001 109.191726 100.03134050000001 C 109.3943465 99.59654750000001 109.6069525 99.08127550000002 109.915561 98.713507 C 110.1056 98.9184455 110.173416 99.393763 110.31451899999999 99.66016300000001 C 110.49032949999999 99.99209050000002 110.70293399999998 100.30335200000002 110.91725349999999 100.61120400000001 Z &#10;" fill="#754123" mix-blend-mode="multiply" stroke-width="0px" opacity=".25" /><path d="M 113.796806 105.1394525 C 113.8300565 105.243268 113.868712 105.3496945 113.9451835 105.42738200000001 C 114.075724 105.559999 114.2854435 105.57714100000001 114.4684735 105.543553 C 114.8669105 105.47043550000001 115.207393 105.2003045 115.44952550000001 104.87554300000001 C 115.691658 104.55078150000001 115.848544 104.1718845 116.0029715 103.7973845 C 115.527795 103.930327 115.052507 104.0628695 114.5771075 104.195012 C 114.52033999999999 104.210791 114.456312 104.22578700000001 114.40525099999999 104.196387 C 114.35316399999999 104.166396 114.33440549999999 104.10170550000001 114.32031549999999 104.0432555 C 114.10528099999999 103.151223 113.879836 101.931579 113.06438499999999 101.375066 C 112.78193049999999 101.845731 113.25984449999999 102.6344945 113.36336749999998 103.11888900000001 C 113.50734249999998 103.792561 113.58600049999998 104.4812655 113.79680649999999 105.1394525 Z &#10;" fill="#754123" mix-blend-mode="multiply" stroke-width="0px" opacity=".25" /><path d="M 52.1017445 170.220899 C 51.247268500000004 179.2171625 47.39421 188.0579805 40.729653500000005 194.160977 C 38.256353000000004 196.42587600000002 35.080816500000005 198.3872205 31.757745000000007 197.935359 C 30.38105300000001 197.74816 29.08951100000001 197.154384 27.898972000000008 196.438185 C 24.358283500000006 194.3081945 21.53583250000001 191.0067715 19.98223800000001 187.177976 C 19.70572700000001 186.4965215 19.30087050000001 185.67334 18.565494000000008 185.665607 C 17.90674300000001 185.658681 17.465849500000008 186.3381865 17.24889900000001 186.960226 C 16.213279000000007 189.9295515 17.343834000000008 193.333309 19.42577600000001 195.69019600000001 C 22.86565400000001 199.58435100000003 28.54018750000001 200.94253200000003 33.68406800000001 200.2092585 C 38.82794900000001 199.4759855 43.53419800000001 196.92762150000001 47.85552050000001 194.0425965 C 55.39554750000001 189.008682 62.15472900000001 182.807599 67.818188 175.728225 C 68.03044750000001 175.46289900000002 68.2476005 175.18296600000002 68.3156575 174.85006950000002 C 68.387265 174.49980750000003 68.2833625 174.137516 68.145455 173.807679 C 67.1670305 171.467558 64.6580475 170.2304255 62.830687999999995 168.4713815 C 61.665237499999996 167.349501 60.760510499999995 165.9875675 59.921604499999994 164.604409 C 57.61051749999999 160.7939705 55.7228035 156.726957 54.30433849999999 152.5022055 C 53.775116499999996 150.9259725 53.296516499999996 149.2980315 52.33942549999999 147.9383955 C 51.53919199999999 146.80159600000002 49.19043049999999 144.38202950000002 47.71229349999999 144.68401250000002 C 48.781711499999986 148.94094950000002 50.693277499999986 152.89064100000002 51.490203499999986 157.28388800000002 C 52.26302049999999 161.544227 52.511513499999985 165.906684 52.10174449999999 170.22089900000003 Z &#10;" fill="#754123" mix-blend-mode="multiply" stroke-width="0px" opacity=".25" /><path d="M 62.1424905 160.94187 C 63.707127 160.2205525 64.16509 158.24559299999999 64.350316 156.532654 C 64.75839250000001 152.7599345 64.77570750000001 148.947133 65.33512850000001 145.1938815 C 65.46878300000002 144.2970725 65.63781650000001 143.39946750000001 65.84821950000001 142.512018 C 65.92375100000001 137.27668100000002 67.42848650000002 132.0672235 68.54826350000002 126.90348700000001 C 69.88808350000002 120.72522200000002 70.15361450000002 114.99897600000001 68.18108800000002 108.9584135 C 69.60851350000002 108.535736 71.58927600000001 111.21116450000001 72.00465300000002 112.43455200000001 C 72.30200600000002 113.31023200000001 72.31211450000002 114.25358150000001 72.31922750000003 115.17830550000001 C 72.33401550000002 117.09944750000001 72.34871000000003 119.02180650000001 72.25942000000002 120.9409365 C 71.90609700000002 128.5375955 69.92664450000002 135.980126 67.31298900000002 143.12177 C 67.20376300000001 143.420293 67.09032500000002 143.718044 66.97267550000002 144.0140395 C 66.87664650000002 145.0860595 66.90369550000003 146.17031699999998 66.93261650000002 147.248327 C 66.98596600000002 149.24114 67.03931550000003 151.23395299999999 67.09266500000003 153.2267655 C 67.14320650000002 155.1138855 67.19412250000002 157.005639 67.45328850000003 158.8755605 C 67.77104550000003 161.16827700000002 68.39879050000003 163.4058655 68.82727100000002 165.6804945 C 69.35992300000002 168.50843700000001 69.58305500000003 171.384277 69.80534450000002 174.2533785 C 67.13515700000002 173.845021 65.04507500000003 171.751944 63.474822500000016 169.55406349999998 C 61.90457000000001 167.35618299999996 60.004674000000016 165.26322249999998 58.66972100000002 162.91498049999998 C 58.161310000000014 162.0206285 57.77710050000002 161.05575199999998 57.53169300000002 160.05668949999998 C 58.96145850000002 160.83224549999997 60.66536550000002 161.62284699999998 62.14249050000002 160.94186949999997 Z &#10;" fill="#754123" mix-blend-mode="multiply" stroke-width="0px" opacity=".25" /><path d="M 78.8901685 122.1125765 C 78.974003 123.878288 78.976299 125.68437250000001 78.430466 127.365691 C 77.43351799999999 130.4365675 75.2248965 133.988935 72.74953599999999 135.12093099999998 C 64.93101949999999 138.74632699999998 73.95420299999999 127.57914699999998 72.12861249999999 111.92184349999998 C 75.30917699999999 114.52306699999998 78.69530449999999 118.00838599999997 78.89016849999999 122.11257649999997 Z &#10;" fill="#754123" mix-blend-mode="multiply" stroke-width="0px" opacity=".25" /><path d="M 78.207935 117.896862 C 73.34454600000001 104.1080295 61.509794500000005 96.638487 50.54100050000001 98.7135065 C 39.57220650000001 100.78852599999999 31.96662150000001 110.10901 35.43060300000001 116.52486449999999 C 35.43060300000001 116.52486449999999 36.466574500000014 116.5778965 37.55163900000001 119.66564399999999 C 38.6367035 122.75339149999998 36.814881500000006 124.81884499999998 34.58538800000001 124.09721399999998 C 32.35589450000001 123.37558299999998 29.66964250000001 121.95006399999998 28.96422800000001 119.19012199999997 C 28.96422800000001 119.19012199999997 29.32504350000001 123.44774599999997 30.91263200000001 124.89100849999997 C 32.50022050000001 126.33427099999997 34.23213550000001 127.77000899999997 35.74756100000001 126.94389549999997 C 37.26298650000001 126.11778149999996 39.50004300000001 125.82912899999997 39.42788000000001 122.79827799999997 C 39.355717000000006 119.76742699999997 39.53723500000001 117.97955799999997 38.25578450000001 116.27561999999998 C 36.97433400000001 114.57168249999998 36.21931400000001 111.98192699999997 36.21931400000001 111.98192699999997 L 41.75126550000001 104.90182449999998 L 46.78851850000001 102.37611549999997 L 50.75749000000001 101.05763299999997 L 61.942773500000015 104.20061399999997 L 71.87708150000002 111.12442599999997 L 78.20793500000002 117.89686299999997 Z &#10;" fill="#754123" mix-blend-mode="multiply" stroke-width="0px" opacity=".25" /><path d="M 100.1156065 189.3907265 C 100.5132005 188.8698205 101.02994149999999 188.426669 101.6037755 188.034644 C 101.01431099999999 188.85404949999997 100.4524565 189.46934649999997 100.1156065 189.3907265 Z &#10;" fill="#754123" mix-blend-mode="multiply" stroke-width="0px" opacity=".25" /><path d="M 103.6985375 179.661423 C 104.36447 179.31294350000002 108.6708005 176.90959700000002 109.9762715 177.3272205 C 109.982355 177.320154 109.9875965 177.3124325 109.9936805 177.30538950000002 C 110.156069 177.11880700000003 110.346723 176.93199 110.59053949999999 176.890644 C 111.16549699999999 176.79311750000002 111.51750999999999 177.509521 111.58274599999999 178.0891115 C 111.71855299999999 179.294037 111.48437699999998 180.538109 110.91990249999999 181.611252 C 109.7674605 183.8019495 107.43496599999999 185.068531 105.20795349999999 186.149115 C 104.07947199999998 186.6966955 102.72982449999999 187.26542899999998 101.60377649999998 188.034644 C 102.48956449999999 186.80351149999998 103.43787499999998 185.11081299999998 103.78062149999998 184.6118785 C 104.29071699999999 183.86957199999998 104.80708399999997 183.11996549999998 105.47404549999997 182.51477699999998 C 105.51138999999998 182.48089549999997 105.55201049999998 182.45082799999997 105.59010399999997 182.417882 C 104.17381599999997 183.09251849999998 102.71643999999996 183.608113 101.64776599999996 183.947748 C 97.87857999999996 185.145701 93.88317349999996 185.4499095 89.92838699999996 185.488892 C 85.06899999999996 185.536798 79.85619599999995 185.06696349999999 76.07858649999996 182.0099455 C 74.02706599999996 180.34977099999998 72.58953199999996 178.0687075 71.18999749999996 175.8312355 C 70.82141799999997 175.241911 80.99383749999996 185.07504949999998 103.69853749999996 179.6614225 Z &#10;" fill="#754123" mix-blend-mode="multiply" stroke-width="0px" opacity=".25" /><path d="M 62.7784285 122.851315 C 63.2292205 121.1821775 63.792275999999994 119.5459295 64.3836815 117.924725 C 64.383686 117.92472599999999 65.15790799999999 118.734983 65.15790799999999 118.734983 C 63.78558499999999 119.479558 62.08997349999999 119.624705 60.53727049999999 119.659838 C 61.12112049999999 118.3720225 61.76038899999999 116.987653 62.452167499999995 115.76112649999999 C 62.9360435 114.89667699999998 63.45100599999999 114.04930949999999 63.9989145 113.22337599999999 L 65.03445549999999 114.67967599999999 C 63.18930499999999 115.19559249999999 61.193420499999995 115.21954649999999 59.29255199999999 115.11119249999999 C 59.29255599999999 115.11124499999998 59.93237499999999 113.87096349999999 59.93237499999999 113.87096349999999 C 60.394923999999996 112.974178 60.963236499999994 112.28508049999999 61.35689899999999 111.60295649999999 C 62.89747899999999 109.273018 60.670838999999994 107.0835245 58.95413599999999 105.59299999999999 C 61.09160849999999 106.43125899999998 63.50621699999999 108.2006785 63.20959649999999 110.837161 C 63.06733749999999 112.227824 62.04378649999999 113.5477605 61.56148849999999 114.6457435 C 61.56149899999999 114.6457475 60.751429499999986 113.3563755 60.751429499999986 113.3563755 C 62.03677699999999 113.3209495 63.314917999999984 113.145879 64.55552699999998 112.8276075 L 66.98142999999999 112.205244 C 66.07339999999999 113.5606765 64.88110649999999 115.3225145 64.035879 116.69408999999999 C 63.52822249999999 117.50513849999999 63.03497399999999 118.32634599999999 62.553611999999994 119.156398 L 61.831616 117.9711975 C 63.245417499999995 118.10093400000001 64.826658 117.598798 66.182309 117.17900850000001 C 65.110197 119.08655100000001 64.01600450000001 121.04682650000001 62.778428500000004 122.85131600000001 L 62.778428500000004 122.85131600000001 Z &#10;" stroke-width="0px" fill="#eeddcf" /><path d="M 53.880563 88.558613 C 53.8433415 88.560451 53.802419 88.560515 53.773607000000005 88.536879 C 53.744800000000005 88.5132475 53.736852000000006 88.473079 53.731772500000005 88.436167 C 53.63300900000001 87.718443 53.911263500000004 86.955387 53.652111500000004 86.2788355 C 54.0380935 86.43750849999999 54.42407600000001 86.5961815 54.810058000000005 86.754854 C 55.07723300000001 86.86468649999999 55.346500000000006 86.97515999999999 55.629876 87.031229 C 55.991874 87.102854 56.364735 87.083466 56.7335925 87.072659 C 57.162999 87.060078 57.592758 87.059538 58.022223 87.07104100000001 C 58.173725499999996 87.07509950000001 58.350531 87.07232400000001 58.4785725 87.14557950000001 C 58.315794 87.36810950000002 57.6903325 87.35637650000001 57.4243595 87.43351650000001 C 57.019256 87.55100850000001 56.6283495 87.7116505 56.23874 87.87185950000001 C 55.482049 88.18301450000001 54.709264 88.51769650000001 53.880563 88.55861250000001 Z &#10;" fill="#754123" mix-blend-mode="multiply" stroke-width="0px" opacity=".25" /><path d="M 49.2397185 88.661278 C 49.2472025 88.7932045 49.3134755 88.9141265 49.385022 89.02521999999999 C 49.6133065 89.37968899999998 49.91286 89.68805199999998 50.260565 89.92651149999999 C 50.292632499999996 89.94850399999999 50.328115 89.97078549999999 50.3669475 89.968786 C 50.422461000000006 89.965927 50.462345500000005 89.91574299999999 50.4919935 89.86872149999999 C 50.602755 89.69305349999999 50.6802845 89.4957185 50.718982 89.29168849999999 C 50.7683585 89.03135099999999 50.7738215 89.01093549999999 50.5653845 88.900667 C 50.448206 88.8386765 49.2395345 88.6580385 49.2397185 88.6612775 Z &#10;" fill="#754123" mix-blend-mode="multiply" stroke-width="0px" opacity=".25" /><path d="M 45.6581705 90.180543 C 45.725863499999996 90.409908 45.840474 90.6221635 45.954278499999994 90.8324945 C 45.98317599999999 90.8859025 46.01508549999999 90.94235499999999 46.068994999999994 90.970306 C 46.16140599999999 91.01821899999999 46.27161949999999 90.96310849999999 46.36067549999999 90.90921449999999 C 46.59830999999999 90.76540549999999 46.85855899999999 90.59033199999999 46.90981549999999 90.31734099999998 C 46.943934999999996 90.13562149999998 46.8750885 89.95201349999998 46.80615349999999 89.78044949999999 C 46.637283 89.36016849999999 46.299671999999994 88.66372499999999 45.730765999999996 88.7406475 C 45.195418999999994 88.81303249999999 45.556377999999995 89.8356355 45.6581705 90.180543 Z &#10;" fill="#754123" mix-blend-mode="multiply" stroke-width="0px" opacity=".25" /><path d="M 55.9129075 87.1008355 C 56.9935015 87.372352 59.065753 86.634442 60.215421500000005 86.53091450000001 C 61.741493000000006 86.39349200000001 63.273614 86.32319650000001 64.80585400000001 86.31994650000001 C 67.870427 86.31344650000001 70.9355565 86.57504750000001 73.9545355 87.10184450000001 C 74.79913950000001 87.24922400000001 77.6699055 87.38958650000001 78.187736 88.09426600000002 C 78.9477365 89.12849850000002 76.134553 88.90427850000002 75.506829 88.94098800000002 C 72.4130295 89.12191500000002 69.3064795 89.08040100000002 66.2185045 88.81851550000002 C 62.74460799999999 88.52390100000002 59.294259 87.95045450000002 55.912907 87.10083500000002 Z &#10;" stroke-width="0px" opacity=".66" fill="#d8b58e" /><path d="M 38.5232985 98.3992305 C 35.900888 101.5707085 33.325702500000006 104.9993145 32.510318000000005 109.03298000000001 C 32.214392000000004 110.49691100000001 32.161257500000005 111.997714 32.117534500000005 113.4906155 C 32.10555600000001 113.8996205 32.0932705 114.31459000000001 31.972505500000004 114.705543 C 31.843974000000003 115.1216375 31.599108500000003 115.48991550000001 31.381341000000003 115.8670525 C 30.194158 117.923053 29.773391000000004 120.410131 30.218189000000002 122.742232 C 29.1362115 121.3144005 28.981323000000003 119.4121785 28.867175000000003 117.624345 C 28.673707000000004 114.594161 28.490019000000004 111.4792905 29.420875000000002 108.589143 C 29.909323500000003 107.07259450000001 30.690534500000002 105.66878150000001 31.500783500000004 104.29692250000001 C 33.658635000000004 100.6433935 36.07885350000001 97.1101615 39.09195450000001 94.1225505 C 40.97877100000001 92.25169600000001 42.914933000000005 90.292758 44.876413500000005 88.522703 C 46.20713800000001 89.889825 39.532296 97.17897300000001 38.523298000000004 98.3992305 Z &#10;" stroke-width="0px" opacity=".66" fill="#d8b58e" /><path d="M 43.3312325 150.646337 C 41.2759435 158.54383149999998 40.0770555 166.6540485 39.564081 174.798463 C 39.223133000000004 180.211635 39.0787545 185.9811575 36.023756500000005 190.4628605 C 35.8287655 190.74891300000002 35.438739000000005 191.05267800000001 35.18728850000001 190.814728 C 35.053340000000006 190.6879715 35.05986000000001 190.4765995 35.076189500000005 190.2929075 C 35.403073500000005 186.615802 35.729957000000006 182.93869700000002 36.056841000000006 179.261592 C 36.50767100000001 174.190215 36.95850800000001 169.1187665 37.451825500000005 164.0513455 C 37.60958900000001 162.430779 37.771772000000006 160.8100065 38.00428850000001 159.198467 C 39.158142000000005 151.2012755 42.066803500000006 143.461986 46.46576100000001 136.684404 C 47.64323000000001 136.982854 48.59164350000001 138.03605 48.76553050000001 139.23824150000002 C 49.07965000000001 141.40995450000003 46.82138900000001 142.6241885 45.79689500000001 144.2479605 C 44.56992250000001 146.192651 43.90565500000001 148.439105 43.331232000000014 150.64633700000002 Z &#10;" stroke-width="0px" opacity=".66" fill="#d8b58e" /><path d="M 29.5219465 187.7261435 C 28.436445499999998 186.9578965 27.308678 186.23382800000002 26.0784985 185.728681 C 23.727089499999998 184.7631255 21.036418499999996 184.64914249999998 18.611773999999997 185.412373 C 18.441022999999998 184.172211 19.824505999999996 183.33815 21.003904499999997 182.9184145 C 22.364970999999997 182.43402500000002 23.810349499999997 182.0207 25.238259 182.24026400000002 C 27.318756 182.56017300000002 28.958841 184.14821950000004 30.3009815 185.76978300000002 C 32.0416155 187.8728025 33.542753499999996 190.17389350000002 34.7663195 192.614787 C 35.018732 193.11855350000002 35.1164435 194.19466500000001 34.337663 193.6118415 C 33.961765 193.330527 33.602014499999996 191.7815435 33.276866 191.297796 C 32.309466 189.85852400000002 30.925243 188.719305 29.521946999999997 187.7261435 Z &#10;" stroke-width="0px" opacity=".66" fill="#d8b58e" /><path d="M 99.828878 192.431112 C 98.590585 194.41227800000001 97.7274915 196.9047395 98.6199965 199.06386500000002 C 97.0954085 198.15804900000003 96.349248 196.24504000000002 96.5277165 194.48066500000002 C 96.70618499999999 192.71629000000001 97.685203 191.110262 98.935046 189.8521775 C 99.4297285 189.35423350000002 102.69855 186.3695485 103.074395 187.475592 C 103.36461299999999 188.3296505 100.31701149999999 191.6501395 99.82887749999999 192.4311125 Z &#10;" stroke-width="0px" opacity=".66" fill="#d8b58e" /><path d="M 70.157115 146.026547 C 71.788874 154.8301775 71.8929225 163.9148655 70.46322450000001 172.7535595 C 69.31347050000001 171.718549 68.68422900000002 170.2317315 68.21164100000001 168.7586935 C 66.49610300000002 163.4114325 66.40499700000001 157.6986015 66.32913950000001 152.083397 C 66.29117850000002 149.27337799999998 66.27319650000001 146.44239349999998 66.665811 143.653223 C 66.9177635 141.863328 67.50509050000001 137.21245 69.3493795 136.382268 C 69.0877525 139.7162405 69.548774 142.7444355 70.157115 146.02654650000002 Z &#10;" stroke-width="0px" opacity=".66" fill="#d8b58e" /><path d="M 16.514195 190.824774 C 17.3610475 194.121209 19.5787005 196.907174 22.9273615 198.8816655 C 25.8387445 200.598208 29.3478285 201.5354735 32.8439965 201.5354735 C 32.954439 201.5354735 33.064882000000004 201.5345375 33.1753245 201.5326655 C 33.964054000000004 201.5192815 35.145230000000005 201.300104 36.617768500000004 200.919451 L 36.61833000000001 200.9216505 C 36.644349500000004 200.914818 36.67289600000001 200.905318 36.69900950000001 200.898275 C 37.04718500000001 200.807534 37.40603000000001 200.710803 37.78546650000001 200.6025365 C 37.78733850000001 200.58809950000003 37.790520500000014 200.57391950000002 37.79239250000001 200.55950600000003 C 45.45505950000001 197.93768400000002 60.15152550000001 187.87391700000003 69.13828900000001 175.71559850000003 C 69.56564650000001 176.02273250000002 70.02613650000002 176.34575400000003 70.51189700000002 176.68110650000003 C 74.35482950000002 184.67815200000004 85.55139050000002 186.21498250000002 92.02876350000003 186.21498250000002 C 93.67810400000002 186.21498250000002 95.37836100000003 186.1230715 97.12841050000003 185.93887550000002 L 97.18569100000003 185.93101350000003 C 99.20613800000004 185.59428000000003 101.06550700000004 185.21833000000004 102.69659650000003 184.69522450000002 C 102.12435350000003 185.62320100000002 101.21993950000002 186.81359600000002 99.77547950000003 188.21081350000003 L 99.63115500000004 188.34765000000002 C 98.67835250000003 189.24485700000002 95.77857500000003 191.97485150000003 95.82181650000004 195.43994600000002 C 95.84559000000004 197.34966950000003 96.75590000000004 199.12236900000002 98.52747650000003 200.70881350000002 C 99.93908450000004 201.97291500000003 101.63578450000003 202.61685200000002 103.47362650000004 202.61685200000002 C 104.46836000000003 202.61685200000002 105.50390100000004 202.42835050000002 106.55853550000003 202.04741650000003 C 111.93447650000003 200.10587050000004 116.73929700000004 193.58338450000002 117.73477950000003 186.87557900000002 C 118.07172350000003 184.41373550000003 118.39537700000002 180.65121800000003 118.06002400000003 176.58346200000003 C 121.00538200000003 177.68590050000003 124.19848750000003 178.62623150000002 127.64121250000002 179.27889650000003 C 131.5471415 179.96439050000004 135.4710415 180.30152150000004 139.35843850000003 180.30152150000004 C 152.83544800000004 180.30152150000004 165.89408550000005 176.25182950000004 176.41366300000004 168.61855150000002 C 188.74861950000005 159.66763550000002 196.70330500000006 146.59364800000003 198.81219950000005 131.8046165 C 203.32107100000005 103.62131350000001 191.50837750000005 80.8959415 184.06528550000004 69.85934200000001 C 177.33089900000004 60.06756350000001 170.96527900000004 55.18749200000001 166.75310500000003 51.958258500000014 C 162.50499050000002 48.70150800000001 161.06960900000004 47.45107150000001 161.73151700000003 45.01141000000001 C 161.88669850000002 44.445531500000016 162.60626100000002 43.791111500000014 163.86193900000004 43.610472000000016 C 165.12772500000003 43.427399000000015 169.63772000000003 43.45603950000002 174.58330850000004 51.458084000000014 L 175.33937350000005 52.68137800000002 L 176.17742800000005 51.51274400000002 C 181.09344050000004 44.65668350000002 181.64022550000004 35.97925300000002 177.67739000000006 27.70540700000002 C 174.98277450000006 22.079191500000018 170.46922300000006 17.13996750000002 164.62474250000005 13.421791000000018 C 158.36432400000007 9.438926000000018 150.86245400000004 7.101097000000019 142.93004450000006 6.661385000000019 C 132.30152200000006 6.481307000000019 124.64765250000006 8.868180500000019 119.49128700000006 13.941059000000019 C 114.42832950000006 18.92165200000002 111.86119100000006 26.54220150000002 111.86119100000006 36.59080600000002 C 111.86119100000006 54.427870500000026 118.57330200000007 67.75531400000003 123.96665150000007 78.46414200000002 C 127.30352000000006 85.08995750000003 130.18551400000007 90.81220200000003 130.88111600000008 96.19825100000003 C 132.14016350000009 104.54734800000003 131.52318150000008 112.10593700000003 129.05057450000007 118.68420600000003 C 128.18416050000008 120.98953450000003 127.09620600000007 123.11167300000002 125.82648900000007 125.03302550000004 L 125.82592750000006 125.03269800000004 C 125.81413450000007 125.05190850000004 125.80149900000006 125.06931750000004 125.78961250000006 125.08843400000003 C 125.49085550000007 125.53841800000004 125.18517250000006 125.98084400000003 124.86638600000006 126.40796750000004 C 124.86994250000006 126.40944150000004 124.87303150000007 126.41161750000003 124.87658800000007 126.41311550000005 C 122.90565300000007 128.98453600000005 120.44146950000007 130.51426150000003 117.75387350000007 131.35486650000004 C 118.21370850000007 129.64396350000004 118.72530150000007 127.27564500000004 118.81496600000007 126.41482350000004 C 119.59021800000006 121.30151200000005 119.56953350000006 115.43990350000004 118.74392700000007 108.85854600000005 C 118.97304900000007 105.73442050000004 118.85914300000007 104.02433600000005 117.61291850000006 101.63849200000004 L 117.16918200000006 100.78911250000004 L 115.22389200000006 101.80509200000004 L 114.59895450000006 100.03538750000004 L 112.49932550000005 99.37647500000004 C 112.06925400000006 98.63042500000005 111.79314700000006 97.77814400000004 111.91332400000006 97.50727850000004 L 112.26412000000006 96.71854900000004 L 111.51619800000006 96.28754150000003 C 110.66204500000006 95.79550950000004 109.27308700000006 95.79195300000003 108.20759550000005 96.43804300000004 C 103.23083950000006 93.19594000000004 100.45329850000006 92.07012600000003 98.21505450000005 91.33853650000003 C 98.42059050000005 85.90840400000003 99.02390700000005 80.49231050000003 99.61954900000005 75.69839350000004 C 99.63546000000005 75.70120150000004 99.65212000000005 75.70120150000004 99.66775050000005 75.70475800000004 C 100.13731950000006 67.64739850000004 104.91612050000005 57.32643050000004 106.86524800000005 53.11959200000004 C 110.86832950000004 44.47941300000004 112.82709700000005 32.80299450000004 105.17210450000005 28.33137400000004 C 102.32006100000005 26.66499900000004 99.47719000000005 26.37728600000004 96.95067200000004 27.498561000000038 C 93.67501500000004 28.952006000000036 90.99677850000003 32.73967750000004 89.22202000000004 38.32864150000004 C 89.02593750000004 38.92264550000004 88.84099250000004 39.52203150000004 88.68075700000004 40.12942000000004 C 85.24617500000004 38.52987200000004 82.61567200000005 38.18324100000004 81.90443950000004 38.06400050000004 C 79.90523850000004 28.626387500000043 75.91264000000004 23.879034500000042 69.71062500000004 23.555568000000044 C 68.01860500000004 23.465154500000043 66.43384500000003 24.057989000000042 65.12631550000003 25.263874000000044 C 62.58940850000003 27.603388000000045 61.161234000000036 32.116846000000045 60.87090050000003 38.674337000000044 C 57.80237050000003 39.37377650000004 54.65391000000003 40.393219000000045 51.62085300000003 41.85967400000004 C 42.399445500000034 46.31819150000004 36.347558000000035 53.80920400000004 33.63291250000003 64.12474350000004 C 33.01349700000003 66.67035500000004 33.462381500000035 69.17160250000003 34.96271800000003 71.57625900000004 C 37.38412850000003 75.45719800000003 42.56501600000003 78.92374300000003 49.679775000000035 81.54474600000003 C 54.798609000000035 83.22998050000004 60.36454850000003 84.56310850000003 60.39655850000003 84.57125150000003 L 60.405169500000035 84.53769750000004 C 62.80758000000004 85.03932300000004 64.99584350000003 85.41145850000004 66.97604450000003 85.59378300000003 C 66.97595100000002 85.59490600000004 66.97613800000003 85.59593550000002 66.97595100000002 85.59705900000003 C 67.01423150000002 85.60042850000004 67.05073400000002 85.60211300000003 67.08882700000002 85.60538900000003 C 67.28350550000002 85.62265750000003 67.47219450000003 85.63431000000003 67.66275500000002 85.64778800000003 C 67.82373950000002 85.65892600000004 67.98565950000003 85.67114000000004 68.14421050000001 85.67970400000003 C 68.35526850000001 85.69116950000003 68.5621145 85.69823600000002 68.76811850000001 85.70460050000003 C 68.93790100000001 85.71012250000003 69.10656000000002 85.71442800000003 69.27316000000002 85.71658050000002 C 69.34925300000002 85.71737600000002 69.42927750000001 85.72210250000002 69.50471550000002 85.72210250000002 C 69.55319800000002 85.72210250000002 69.59737500000001 85.71765650000002 69.64548300000001 85.71723550000002 C 71.41359650000001 85.71335150000002 72.99433150000002 85.51731550000001 74.32132900000002 85.06786950000001 C 78.02097350000003 83.81471900000001 78.50851300000002 80.87067100000002 78.51450300000002 80.75208550000002 L 78.56148800000003 79.81004650000003 L 77.97258500000002 80.54664350000003 C 77.95966900000002 80.56283550000003 76.30218550000002 82.34826400000003 73.24591650000002 83.24668750000004 C 71.56887150000001 83.73956150000004 69.32482500000002 83.88276300000004 66.89686300000002 83.65551300000004 C 65.08110950000003 83.47740050000004 63.075076000000024 83.13456000000004 60.89692050000002 82.68202600000004 C 60.67172950000002 82.62554100000004 59.876074000000024 82.43151750000004 58.74768600000002 82.21320600000004 C 47.69358450000002 79.67667300000004 39.63828400000003 75.44886900000004 36.589034500000025 70.56168400000004 C 35.37191800000002 68.61077850000004 35.00240300000002 66.60352850000004 35.49097150000002 64.59515550000005 C 40.87664650000002 44.12983500000004 58.99459100000002 39.75733200000005 71.27498100000003 39.24545750000004 C 76.07306300000002 39.08166550000004 78.53378350000003 39.379767000000044 78.55615250000002 39.38374500000004 L 80.59410200000002 39.66930500000004 C 80.63584550000002 39.68006850000004 84.67168550000002 40.73835350000004 88.49805850000001 40.85628350000004 C 88.40586700000001 41.24306700000004 88.37404450000001 41.73711100000004 88.379005 42.26812550000004 C 88.3666505 44.14387400000004 88.83313050000001 46.26105200000004 88.83313050000001 46.26105200000004 C 88.83313050000001 46.26105200000004 89.64245100000001 43.86786100000004 90.139818 42.15141200000004 C 90.2209655 41.88733200000004 90.27768400000001 41.696257000000045 90.2945315 41.62535800000004 C 91.85813850000001 35.06636950000004 94.4765675 30.693445500000042 97.728077 29.250670000000042 C 99.6954555 28.37779800000004 101.874921 28.625077500000042 104.205263 29.986518000000043 C 110.74927600000001 33.809147000000046 108.79107 44.403226500000045 105.12586900000001 52.31392200000005 C 102.0491025 58.95471300000005 98.61583100000001 67.25392350000004 97.86566250000001 74.26937750000005 C 97.26777400000002 79.01177000000004 96.62177750000001 84.45009250000004 96.35072500000001 89.98687700000005 C 96.3498825 92.45368100000005 96.43673950000002 93.07609150000005 96.62205850000001 96.64816550000005 C 97.46189150000001 95.39164550000005 97.84853450000001 94.16811750000005 98.0285185 93.29688350000005 C 100.21051150000001 94.03853450000005 102.877891 95.20670050000005 107.728948 98.41684050000005 L 108.403959 98.86347850000004 L 108.957483 98.27298400000004 C 109.226102 97.98583300000004 109.6367995 97.87436050000004 109.98347749999999 97.85882350000004 C 110.0619105 99.11300400000005 110.867768 100.40406050000004 111.0718065 100.71283250000005 L 111.259653 100.99670800000004 L 113.110692 101.57737500000005 L 114.152504 104.52713200000005 L 116.32364 103.39322200000005 C 116.9712275 104.94803100000006 117.0145625 106.28560500000005 116.82521849999999 108.81165500000006 L 116.8180115 108.90787100000006 L 116.830179 109.00352550000005 C 117.9679265 117.99716800000004 117.5180125 125.74145050000006 115.549043 131.88714450000006 C 114.487295 132.07604350000005 113.4040205 132.17991150000006 112.31325799999999 132.21545450000005 C 114.139962 124.83114050000005 108.07965099999998 116.23284550000005 103.94778199999999 113.66449000000006 C 102.75331549999999 112.92199650000006 101.38307699999999 112.34778800000005 99.91400149999998 111.94879000000006 C 99.66428849999998 110.67888550000006 99.42318649999999 109.42727950000005 99.19032099999998 108.20178600000006 C 99.03345499999999 107.40248000000005 98.10667199999999 103.60287550000005 96.62205949999998 101.55500500000005 C 96.72538899999998 102.59260500000005 96.79755099999998 106.20076000000005 97.30830199999998 108.56531100000005 C 98.34328149999999 114.01332050000005 99.51771849999999 119.92256850000005 101.08207449999999 126.17961800000005 C 101.52702749999999 127.81173700000005 102.006424 129.47305800000004 102.4700965 131.07971900000004 C 105.7019505 142.27655400000003 109.043686 153.85469700000004 103.9661275 164.15713300000004 C 103.9661275 164.15713300000004 106.575665 163.06529400000005 107.466788 160.32009000000005 C 107.47071899999999 160.30588700000004 107.47399499999999 160.29159000000004 107.47783249999999 160.27738700000006 C 117.4502505 166.11760850000007 116.6655455 180.55280250000007 115.8370375 186.60490100000007 C 114.939082 192.65622750000006 110.6694405 198.52466800000008 105.90748649999999 200.24457950000007 C 104.27405699999998 200.83441850000008 101.88980399999998 201.14609200000007 99.8063675 199.28092000000007 C 98.45110399999999 198.06717300000005 97.755315 196.76694350000005 97.7384675 195.41598550000006 C 97.705709 192.79325100000005 100.143873 190.49772700000005 100.94505099999999 189.74334700000006 L 101.10828149999999 189.58854000000005 C 103.96949749999999 186.82087300000006 104.9946495 184.69924900000007 105.36163749999999 183.57488600000005 C 105.87510249999998 183.29042550000005 106.34963199999999 182.97533650000005 106.77895499999998 182.62154500000005 C 108.74960899999998 180.99782600000006 109.03067649999998 178.65014550000006 109.03067649999998 178.65014550000006 C 109.03067649999998 178.65014550000006 106.75948699999998 180.39902500000005 105.42930699999998 181.20565500000006 C 103.28765399999997 182.50431650000007 100.46134899999998 183.43933600000005 96.89891549999999 184.03551650000006 C 88.75554149999999 184.88779750000006 81.77537299999999 183.66076000000007 76.14990649999999 180.38716200000005 C 76.14990649999999 180.38716200000005 70.18741049999998 177.26339100000004 68.52336699999998 162.56189100000006 C 67.09734549999997 152.95618050000007 67.62503699999998 143.13257950000005 69.93422599999998 136.26884350000006 C 73.77295349999999 127.89110650000006 73.61852099999999 116.97992500000007 73.47943799999999 113.83062250000006 L 73.47775349999999 113.80198250000007 C 75.49071299999999 116.10696000000007 77.3748845 118.87982150000006 78.99053099999999 122.21659600000007 C 78.99053099999999 122.21659600000007 78.99053099999999 117.60252300000006 76.28000399999999 114.35026500000006 C 65.94911499999999 100.96984600000006 51.211747999999986 100.64450800000006 50.967089499999986 100.64450800000006 L 50.96540499999998 100.64450800000006 C 46.13540699999999 100.69008900000006 39.42788249999998 104.30718250000005 36.03663499999998 110.20070650000005 C 35.31454549999998 111.43055200000005 34.62905149999998 114.53558400000006 35.43060399999998 116.52486400000005 C 35.57258849999998 115.93909650000005 35.73123299999998 115.40508700000005 35.88950299999998 114.93331850000006 C 36.254150999999986 115.71502850000006 36.68759199999998 116.34338200000006 37.09782149999998 116.89409850000006 C 37.72060599999998 117.73009400000005 38.25821899999998 118.45190250000006 38.458326499999984 119.31242000000006 C 39.030569499999984 121.77435700000007 38.75296549999998 123.59123400000006 37.60960199999998 124.86675400000006 C 37.354647499999984 125.15128450000006 37.11597899999998 125.34390400000005 36.87993099999998 125.45603150000005 C 36.58098699999998 125.59736100000005 36.18825999999998 125.65670050000006 35.679474499999976 125.63985300000004 C 33.20218749999998 125.56123250000005 30.879146499999976 123.78366600000004 30.155278499999977 121.41345250000005 C 29.506661499999975 119.29014400000005 29.419242999999977 117.42778000000004 29.880107499999976 115.55212500000005 L 29.890496499999976 115.50991350000005 C 29.893678499999975 115.51010050000005 29.896860999999976 115.51014750000006 29.899949499999977 115.51028800000006 C 29.899762499999976 115.49662300000006 29.900604499999975 115.48333250000006 29.90041749999998 115.46966750000006 L 29.905752499999977 115.44785950000006 L 29.900698499999976 115.44486450000007 C 29.786698999999977 104.24662550000006 38.328134999999975 95.94385850000006 43.15382749999998 91.25902750000006 C 43.156822499999976 91.25612600000007 43.158600999999976 91.25317800000006 43.161595999999975 91.25032300000007 C 43.207083499999975 91.20287000000006 43.25603399999997 91.14675950000006 43.307604999999974 91.08433150000006 C 43.358520999999975 91.02438350000006 43.40887549999997 90.96457600000006 43.45118049999997 90.90383250000006 C 43.90118799999997 90.31951550000007 44.53464249999997 89.36877200000006 45.32926849999997 88.64565300000007 L 46.81481699999997 90.59318900000007 L 49.00907099999997 88.36332200000007 L 50.93152349999997 88.62220750000007 L 51.22204399999997 88.44479700000008 C 51.53783549999997 88.25161600000008 52.81503999999997 87.42404400000008 53.41779549999997 86.32139500000008 C 53.72535049999997 86.48247300000008 54.04984599999997 86.75755000000008 54.17152049999997 87.13151100000007 L 54.42235649999997 87.90110050000007 L 55.22325349999997 87.78270200000007 C 62.44452399999997 86.71533850000007 60.50878099999997 87.37083500000007 63.19122949999997 87.30513050000008 C 66.89209099999997 87.21448300000007 72.29742049999997 87.95903600000007 76.18378849999996 88.59005700000007 C 76.83362249999996 88.69558600000008 78.98650699999996 89.10923150000008 80.79505349999997 88.54260400000007 C 78.59134649999997 87.11358700000007 75.42528999999996 86.59731400000007 75.04585349999996 86.53750650000006 C 71.99744649999997 86.05689350000006 67.92566599999996 85.55699950000006 63.457976499999965 85.40691900000006 C 60.855271499999965 85.31950100000006 62.62488249999996 84.80486550000006 55.62852199999997 85.78761900000006 C 54.93750599999997 84.75076750000007 53.67799099999997 84.16504650000006 52.69589299999997 84.24844050000006 L 51.83574999999997 84.32181950000006 L 51.81899649999997 85.18481700000007 C 51.81300649999997 85.48104700000006 51.20164049999997 86.13584150000007 50.49574249999997 86.62932400000007 L 48.31477899999997 86.33580850000007 L 46.99854499999997 87.67356950000007 L 45.667522999999974 85.92876150000006 L 44.905561499999976 86.50970900000006 C 43.568174999999975 87.52980700000006 42.74509549999998 88.50324750000006 42.04163149999998 89.80043450000005 C 41.988656499999976 89.85191200000006 41.93923799999998 89.89997350000004 41.88523349999998 89.95243350000005 C 36.79906449999998 94.89044100000005 27.760542999999977 103.66989000000005 28.075772499999978 115.78555250000005 C 27.660863499999977 118.03984800000005 27.735271999999977 120.11944750000005 28.30302249999998 121.97895700000005 C 29.26144099999998 125.11702850000005 32.33736499999998 127.47076900000005 35.61695249999998 127.57578350000006 C 35.691079999999985 127.57803000000006 35.76408449999998 127.57915300000006 35.83577899999998 127.57915300000006 C 36.56694749999998 127.57915300000006 37.17981099999998 127.45691700000006 37.70974899999998 127.20551950000007 C 38.18296799999998 126.98107750000007 38.62193099999998 126.63870500000006 39.051721999999984 126.15930850000007 C 40.62506299999998 124.40383050000007 41.06009499999998 121.95275050000006 40.344650999999985 118.87401850000006 C 40.053007499999985 117.61890250000006 39.34018349999999 116.66235600000006 38.65075899999999 115.73725750000006 C 37.91537899999999 114.75019900000005 37.312342499999986 113.43092300000005 37.03408299999999 112.22971750000005 C 39.98983049999999 105.91477950000005 46.96045199999999 102.50340900000005 50.98262699999999 102.46550300000006 L 50.984124499999986 102.46550300000006 C 51.06442949999999 102.46550300000006 52.835256999999984 102.50495350000006 55.52079399999999 103.10859800000006 L 55.15024899999999 103.67756550000006 C 52.703848499999985 107.27537800000006 51.63891849999999 112.90290400000006 51.24488149999999 115.65124350000005 C 50.82725799999999 115.34162950000005 50.35628549999999 114.98615350000004 49.92649449999999 114.65632300000004 L 48.71106299999999 113.72355000000005 L 48.40406949999999 115.22463550000005 C 48.35596149999999 115.45956050000005 47.32940549999999 120.64363050000004 49.18858749999999 124.72608050000005 C 48.29081899999999 125.04561550000005 47.55141449999999 124.91046350000005 47.54186749999999 124.90859200000006 L 46.38933199999999 124.67011050000005 L 46.38933199999999 125.84716800000005 C 46.38933199999999 128.96801800000006 46.68546849999999 130.39591150000004 47.30376049999999 131.73863300000005 C 47.217652499999986 131.91215900000006 47.15176149999999 132.09130100000004 47.09111149999999 132.25602900000004 C 47.03514149999999 132.40802800000003 46.94753599999999 132.64632250000005 46.87509299999999 132.76294250000004 C 46.793103499999994 132.74310000000003 46.62481849999999 132.68376050000003 46.345716499999995 132.50667800000005 L 44.6361005 131.42265450000005 L 44.8811335 133.43196350000005 C 44.977256 134.22055300000005 45.205723 134.96192300000004 45.494465 135.63637250000005 L 45.4589925 135.61292700000004 C 42.0266565 140.80467200000004 39.3805235 148.04241500000003 37.593972 157.12530100000004 C 36.209881 164.16162700000004 35.4160035 172.24472500000005 35.4160035 179.30201650000004 C 35.4160035 183.92198600000003 34.598259 187.34784050000005 34.0418335 189.14473450000003 C 32.4213205 186.49055200000004 28.997501500000002 181.65264500000004 25.391546000000005 181.31378250000003 C 21.718857000000007 180.69118500000002 17.996749500000007 182.51423900000003 16.724598500000006 185.56414350000003 C 15.925667000000006 187.47929550000003 16.169202500000004 189.48186600000002 16.514195500000007 190.82477450000002 Z M 80.193046 39.2675465 C 79.35808 38.9923755 73.9281345 37.2719025 69.2705395 37.4653645 C 68.719449 37.504862 68.3810075 37.5086055 67.62279 37.5829205 C 67.6162385 37.5835755 67.60931199999999 37.583763 67.602854 37.584418 C 67.58862749999999 37.585822 67.57412 37.587647 67.55998699999999 37.589098 C 67.53668149999999 37.591438 67.516933 37.5931225 67.4929725 37.595603 C 67.4927855 37.595884 67.49259799999999 37.596118 67.4925045 37.5963985 C 65.9843995 37.750924499999996 64.4133045 37.9694235 62.80729899999999 38.2714095 C 63.19459749999999 31.127729499999997 64.96402099999999 28.020919 66.42579649999999 26.673049999999996 C 67.3581955 25.812906999999996 68.42948999999999 25.407825499999998 69.6106655 25.469785499999997 C 74.9476705 25.748138499999996 78.396479 30.197857999999997 80.154578 39.073149 L 80.193046 39.267547 Z M 110.471485 131.692748 C 110.439569 131.909445 110.374052 132.0768175 110.2832645 132.2085295 C 108.3595955 132.138286 106.443133 131.8991495 104.6135275 131.594379 C 104.513006 131.2453145 104.4123905 130.89648400000002 104.311869 130.548098 C 103.8500685 128.94817600000002 103.372544 127.29378100000001 102.936576 125.69498200000001 C 101.933138 121.68076250000001 101.090872 117.80132100000002 100.340423 114.08838600000001 C 101.2745065 114.40862300000002 102.1527135 114.80551500000001 102.93592100000001 115.29230550000001 C 106.54552650000001 117.53616500000001 112.045669 125.11885500000001 110.47148550000001 131.69274850000002 Z M 117.8225725 174.441015 C 116.95278900000001 168.273864 114.36300050000001 161.8182755 107.931489 158.33733999999998 C 109.5202735 150.29088449999998 107.531181 141.88991199999998 105.1941 133.62652549999999 C 107.1242275 133.91720999999998 109.2025165 134.1299995 111.3154355 134.1299995 C 116.212916 134.1299995 121.2927205 132.9889995 125.12864 129.048838 C 125.12339850000001 129.0746705 125.1172215 129.100339 125.11207350000001 129.1261945 C 125.2720285 128.939635 125.43310600000001 128.746454 125.5945585 128.5486865 C 126.260023 127.80441450000001 126.88524100000001 126.97157800000001 127.4597305 126.035295 L 127.44943500000001 126.02900050000001 C 131.43744750000002 120.021313 134.956172 110.36595000000001 132.77942050000001 95.93244100000001 C 132.04469550000002 90.24220650000001 129.09456400000002 84.38443550000001 125.67851400000002 77.60194100000001 C 120.37651350000002 67.07431450000001 113.77802800000002 53.97243550000001 113.77802800000002 36.59080750000001 C 113.77802800000002 27.07513600000001 116.15254700000003 19.914328000000012 120.83550650000002 15.307368000000011 C 125.60663300000002 10.61373850000001 132.81143050000003 8.41237150000001 142.86134550000003 8.57653800000001 C 157.53001350000002 9.39063200000001 170.53230650000003 17.22457900000001 175.94868050000002 28.53354150000001 C 179.37521350000003 35.687610500000005 179.15975650000001 43.14511600000001 175.40489050000002 49.21796950000001 C 173.35383800000002 46.26166050000001 168.87154700000002 40.95217250000001 163.58882750000004 41.71310450000001 C 161.72945850000005 41.980788000000004 160.27442200000004 43.07735300000001 159.88225700000004 44.50693150000001 C 158.84933650000005 48.31421100000001 161.52972600000004 50.36900750000001 165.58690550000003 53.479374500000006 C 169.70305050000002 56.635042000000006 175.92359750000003 61.40392200000001 182.48090100000002 70.93831300000001 C 189.76113700000002 81.73343600000001 201.3243045 103.96855450000001 196.91689050000002 131.5178415 C 194.87950250000003 145.8046395 187.19905250000002 158.42393950000002 175.28789650000002 167.0671135 C 162.151575 176.599258 144.91033950000002 180.3634835 127.98545750000002 177.3933225 C 124.30350250000002 176.695287 120.91478200000003 175.6582485 117.82257250000002 174.44101500000002 Z M 69.083442 173.2945165 C 66.54719 171.379575 65.20708900000001 170.01572399999998 63.983608000000004 168.5201845 C 58.873104000000005 162.2739925 56.37691100000001 158.5084565 53.923210000000005 148.6665105 L 53.863121500000005 148.49597949999998 C 52.874191 146.35863149999997 51.290929000000006 145.52113849999998 50.018778000000005 144.84818699999997 C 49.113147500000004 144.36916499999998 48.490550000000006 144.01612249999997 48.1030645 143.43826349999998 C 49.968798 142.14421149999998 49.8830645 139.58100399999998 49.51617 138.25606549999998 L 49.445412000000005 138.00054949999998 L 49.253541000000006 137.81766399999998 C 49.23744250000001 137.80212699999998 47.87843550000001 136.4818685 47.168794000000005 134.67603599999998 C 47.28560100000001 134.66124799999997 47.399600500000005 134.634854 47.51116650000001 134.5970415 C 48.38029450000001 134.302777 48.687101000000006 133.4694025 48.89001600000001 132.91812449999998 C 48.91828200000001 132.84081449999996 48.95609450000001 132.73823399999998 48.98866550000001 132.66036249999996 L 49.765695500000014 132.33652199999997 L 49.27881150000001 131.40917749999997 C 48.68167200000001 130.27180449999997 48.37804800000001 129.27164249999996 48.31758550000001 126.84003049999997 C 49.047630500000004 126.79267099999997 50.032630000000005 126.58713549999997 51.012201000000005 125.94525699999997 L 51.78155650000001 125.44096399999997 L 51.30946050000001 124.65157899999997 C 49.89186250000001 122.28136549999996 49.90608900000001 119.05999399999997 50.07418650000001 117.17067449999998 C 50.72767050000001 117.65493799999997 51.35139150000001 118.09858049999997 51.59006000000001 118.21220549999998 L 52.830762500000006 118.80316799999999 L 52.956742000000006 117.43461399999998 C 52.96422950000001 117.35224999999998 53.74912200000001 109.14691599999998 56.745864000000005 104.73950149999999 L 57.480121000000004 103.61214299999999 C 61.445109 104.76130899999998 66.652765 107.06113899999998 71.427261 111.65204699999998 L 71.56522100000001 113.93077099999998 C 71.69906250000001 116.96139449999998 71.85181050000001 127.52177999999998 68.17163400000001 135.51390349999997 L 68.13438300000001 135.60749899999996 C 64.37708350000001 146.71462249999996 65.61329350000001 163.47561899999997 69.08344200000002 173.29451649999996 Z M 18.493553000000006 186.30205049999998 C 19.526660500000006 183.825325 22.666229500000007 182.78416849999996 25.103457500000005 183.20909199999997 L 25.187693500000005 183.21994899999996 C 28.245085500000005 183.47668149999996 31.937804000000007 189.17562049999995 33.205836500000004 191.52964199999997 C 33.231294500000004 191.57681399999996 33.205836500000004 191.52964199999997 33.27921550000001 191.66713399999998 C 34.09012750000001 193.06329849999997 34.604341000000005 194.55165499999998 34.604341000000005 194.55165499999998 C 34.604341000000005 194.55165499999998 35.804516500000005 193.03292699999997 35.311736 191.2916755 C 35.5518085 190.7343375 37.332838 186.3619045 37.332838 179.302016 C 37.332838 165.775237 40.1827285 147.8235885 46.528974500000004 137.50514800000002 C 47.003972000000005 138.19995450000002 47.4609055 138.718193 47.718948000000005 138.9904155 C 47.8475485 139.64820500000002 48.072552 141.54913050000002 46.53608750000001 142.10228 L 45.68642700000001 142.40815 L 45.94119400000001 143.2744705 C 46.49359500000001 145.151997 47.89022750000001 145.89065300000001 49.12250650000001 146.5424525 C 50.27672650000001 147.15306999999999 51.36805100000001 147.73055449999998 52.08630300000001 149.222093 C 54.61619050000001 159.3292885 57.33401800000001 163.4199755 62.499930500000005 169.73393049999999 C 63.760475500000005 171.2747005 65.124724 172.67627 67.598735 174.5735925 C 58.511075500000004 186.8666185 42.933408 197.277087 36.1305095 199.0680845 L 36.135844500000005 199.0883945 C 34.85218150000001 199.4168215 33.8273105 199.6045505 33.14275250000001 199.61620299999998 C 27.175100500000006 199.718035 19.952332500000008 196.50415099999998 18.37075500000001 190.34781049999998 C 18.098579000000008 189.2886835 17.89903350000001 187.72732249999999 18.49355250000001 186.30204949999998 Z &#10;" stroke-width="0px" fill="#0c0c0c" /></g></g></svg>