<?xml version='1.0' encoding='utf-8'?>
<svg viewBox="0 0 432 432" width="216px" height="216px" xmlns="http://www.w3.org/2000/svg" xmlns:xlink="http://www.w3.org/1999/xlink" version="1.1"><g isolation="isolate"><g id="Layer_1"><path d="M 236.428993 227.687783 L 240.919536 239.561262 L 247.54076 231.462716 L 250.262435 224.803332 L 245.745463 223.67605600000002 L 245.15078 217.992827 L 243.50343 214.315433 L 244.479094 209.366385 C 244.479094 209.366385 237.500108 208.273818 237.212143 208.76071000000002 L 236.428993 227.68778300000002 Z M 72.27381599999998 396.099138 C 75.04525499999998 399.886847 79.78762999999998 401.723982 84.41682599999999 402.497526 C 87.71343999999999 403.048358 91.11793699999998 403.155243 94.38242499999998 402.43818 C 101.35517499999999 400.906504 107.09975399999999 395.69773599999996 110.73238899999998 389.552059 C 114.36498099999999 383.406339 116.14233499999999 376.357267 117.54706999999999 369.357818 L 117.282507 369.346878 C 120.409678 361.555303 118.235784 340.926883 126.90726599999999 338.9144 C 135.01102799999998 337.033678 152.43027 340.34158 169.514315 355.133863 C 174.723082 359.643931 188.43080600000002 378.98066700000004 193.303726 385.80433400000004 C 193.71081600000002 385.81405900000004 194.10205900000003 385.80559300000004 194.50289700000002 385.80815400000006 L 191.87902100000002 385.91647100000006 C 193.283756 392.9159200000001 195.06111 399.96499200000005 198.69374500000004 406.11071200000004 C 202.32633700000002 412.256389 208.07091600000004 417.46515600000004 215.04366600000003 418.99683300000004 C 218.30815400000003 419.71389600000003 221.71265100000002 419.60701200000005 225.00930800000003 419.05617900000004 C 229.63841700000003 418.282635 234.38083500000005 416.44550000000004 237.15227400000003 412.65779100000003 C 239.92380000000003 408.87012500000003 239.86475800000002 402.79773100000006 236.06797500000005 400.03879400000005 C 233.20389100000006 397.95758800000004 229.33417400000005 398.2786320000001 225.81619300000006 397.88078900000005 C 218.19618900000006 397.01898500000004 211.15232700000004 392.11233300000004 207.70294100000007 385.26331200000004 L 200.83047600000006 385.546977 C 210.04033000000007 384.69607 217.37324000000007 381.910521 223.14599400000006 378.51705100000004 L 223.14738300000005 378.52273800000006 C 258.443794 399.52004500000004 344.38585200000006 402.3827390000001 382.705414 321.47088900000006 C 409.991662 254.66699200000005 384.59573 177.40878900000007 355.030527 140.00742500000007 C 334.250332 113.71943000000007 312.51538500000004 103.55308600000006 319.645466 94.41625300000007 C 329.791926 81.41408800000006 348.431829 110.57185400000007 348.431829 110.57185400000007 C 367.818446 72.38591900000007 343.090216 13.845286000000073 274.409852 16.57569900000007 C 226.38361 18.48498700000007 198.62541199999998 72.67965500000007 255.023061 185.18130400000007 C 274.53141 239.96613700000006 250.503442 261.30367600000005 228.136218 269.6087040000001 C 225.66277000000002 269.6176470000001 222.637187 270.2111120000001 218.986318 271.6060780000001 C 218.941211 269.6127850000001 219.3839 267.4598590000001 220.493943 265.1553770000001 C 222.70196 260.5713750000001 226.732569 256.9790710000001 230.800165 253.4442030000001 C 250.53096599999998 239.1169230000001 251.559 198.7512770000001 208.144762 179.9117140000001 C 206.05183399999999 179.0035010000001 202.47954399999998 171.7091430000001 200.47804499999998 167.3036580000001 C 199.45165999999998 164.1551280000001 198.17720899999998 160.6026340000001 196.61783499999999 156.5804910000001 C 190.904037 127.97325300000011 233.06878799999998 81.25649500000011 211.601181 59.92021500000011 C 197.236956 45.64390300000011 181.959613 62.20780900000011 177.203997 80.67670600000011 L 160.82459799999998 75.44488600000011 C 156.11977599999997 52.10202800000011 146.62226299999998 49.272154000000114 141.04122299999997 47.803471000000116 C 131.65610799999996 45.33371300000012 122.83163599999997 53.40721600000012 122.83163599999997 76.69059700000011 C 114.06390599999997 81.13380800000012 85.04336999999998 81.3346400000001 68.19419199999997 125.9198750000001 C 65.66287299999998 144.3965430000001 81.88216299999998 156.4466040000001 115.11911699999997 163.9552950000001 C 115.45691799999997 165.3366730000001 115.96555299999997 166.63174500000008 116.61749499999998 167.84906400000008 L 114.69882999999997 168.15491300000008 C 87.83060599999997 176.5891200000001 74.45889299999997 192.2740550000001 70.52416899999997 207.70797100000007 C 69.78691999999997 210.59982400000007 66.22381299999998 212.38074700000007 67.54590999999998 214.87920200000008 C 68.83292099999998 217.31135300000008 64.83984799999998 220.4932660000001 66.02124299999998 222.03095400000007 C 72.34751799999998 230.26515300000005 64.52936999999999 231.57030300000005 67.62791599999998 233.27766500000007 C 72.54835199999998 235.98892600000008 78.01178399999998 242.16778100000008 82.31747099999998 245.29429300000007 C 86.38506799999999 248.82916100000006 90.41567599999999 252.42146500000007 92.62369299999999 257.00546700000007 C 93.73369299999999 259.3099490000001 94.176425 261.46287500000005 94.13127499999999 263.45621200000005 C 67.47886599999998 253.27241600000005 73.941115 285.58357500000005 88.11483999999999 279.2006860000001 C 92.39451199999999 277.5549190000001 97.41251999999999 274.0689780000001 101.38582299999999 266.81199900000007 C 105.56690299999998 259.34298800000005 102.15294199999998 248.5299550000001 98.770108 241.44450300000008 C 91.97652599999999 223.75887500000007 102.555386 207.3095370000001 109.09881899999999 214.3592600000001 L 109.416563 214.68590400000008 C 105.207438 225.5423940000001 102.759604 244.43952300000007 103.509053 262.7312050000001 C 101.55678499999999 267.1140720000001 99.34160499999999 271.6143290000001 96.95767599999999 276.2400510000001 C 87.26432399999999 295.0486590000001 64.64647299999999 316.1912710000001 64.64647299999999 334.1064270000001 C 64.64647299999999 340.9780230000001 73.45861499999998 353.9167180000001 81.09581099999998 360.5428540000001 C 85.69209899999998 364.5306560000001 93.27125099999998 368.3319540000001 100.68881699999999 370.5120130000001 C 96.98203099999999 376.4040240000001 90.53897099999999 380.53847800000005 83.609895 381.32213700000005 C 80.091915 381.7199800000001 76.222241 381.39893600000005 73.35811299999999 383.48014200000006 C 69.56132999999998 386.23907800000006 69.50233099999998 392.31147300000003 72.27381399999999 396.09913900000004 Z M 177.203651 80.678184 C 176.70969100000002 82.596676 176.331515 84.53548500000001 176.077458 86.462616 C 176.531565 82.89102 177.199917 80.69033999999999 177.203651 80.678184 Z M 195.860502 214.95030300000002 C 200.033732 217.408924 211.91904499999998 218.41545100000002 215.416802 229.21367 C 217.49870099999998 235.640875 217.7299 243.122385 214.34752899999998 249.59437 C 211.12180899999998 256.350703 207.873124 266.494255 211.20290599999998 273.897972 C 210.722187 273.97047299999997 210.251409 274.037764 209.79109499999998 274.100106 C 192.05380499999998 239.41643499999998 191.24131699999998 221.12720099999999 195.860502 214.950303 Z &#10;" stroke-width="0px" fill="#c56439" /><path d="M 101.533533 263.052911 L 100.31117900000001 254.388419 L 103.51423700000001 257.069124 C 103.51059000000001 256.016257 103.51406300000001 254.979365 103.52500400000001 253.958451 L 99.841097 236.903493 L 100.782131 236.492974 C 100.782131 236.492974 102.290321 237.691711 102.558096 238.093374 C 102.825871 238.49503700000002 101.36491600000001 227.386357 101.36491600000001 227.386357 C 101.36491600000001 227.386357 103.64656300000001 227.418657 105.924563 227.431334 C 112.651071 192.821466 132.064605 188.829149 146.461433 188.840263 C 157.50950699999999 188.848772 178.89888200000001 191.970733 183.157933 217.77996299999998 C 187.41733100000002 243.58919299999997 148.955285 308.96126499999997 165.07094600000002 351.545174 L 165.52071100000003 352.658299 C 165.52071100000003 352.658299 144.75284600000003 336.356828 126.90168100000002 339.68509 C 123.42025500000003 341.305981 125.40078500000003 339.509352 125.40078500000003 339.509352 C 125.40078500000003 339.509352 110.97374100000003 322.89773399999996 105.64393600000002 287.795729 L 102.86893700000003 282.11601 L 99.84109700000003 272.53844200000003 L 103.50885400000003 270.74927900000006 L 101.53353400000003 263.05291100000005 Z &#10;" stroke-width="0px" fill="#e7caae" /><path d="M 87.187545 120.690606 C 90.155133 121.16548300000001 93.156822 121.649958 95.923011 122.824814 C 99.833258 124.485575 103.073852 127.440951 106.941968 129.197606 C 118.383041 134.39342000000002 134.154072 128.940238 145.706141 133.88435900000002 C 153.717712 137.31319800000003 157.324817 145.510127 156.358814 154.170903 C 155.353898 163.180561 147.525636 169.60585600000002 138.465269 169.29998600000002 C 134.799808 169.17624300000003 131.01208 168.12169200000002 127.431848 167.326175 C 115.300353 164.630593 84.176699 160.09316800000002 70.60858 140.777469 C 69.77240900000001 139.587088 68.149771 133.888182 68.410616 130.840238 C 68.82933700000001 125.947534 69.770003 119.909544 70.875423 119.409047 C 75.386749 117.366469 82.196688 119.891964 87.187544 120.690607 Z &#10;" stroke-width="0px" fill="#e7caae" /><path d="M 137.227343 120.19971 C 133.382465 119.223801 130.0215 118.397184 126.19092799999999 118.2905 C 126.19093099999999 118.290455 123.95998799999998 118.190495 123.95998799999998 118.190495 C 122.37072999999998 118.147942 120.90532699999999 118.035324 119.26748199999999 118.326173 C 119.63737199999998 117.479918 120.36704199999998 116.862375 121.097462 116.351811 C 126.264624 113.034167 134.50099 114.368438 137.227344 120.199711 L 137.227344 120.199711 Z &#10;" stroke-width="0px" /><path d="M 97.656644 81.072842 C 95.989139 80.41614799999999 93.155587 79.207183 91.511898 78.76908499999999 C 90.691928 78.52738199999999 89.409459 78.24259099999999 88.559527 78.01982899999999 C 87.403265 77.74653099999999 86.407861 77.43014399999998 85.125705 77.40527199999998 C 85.37616 76.70398899999998 85.95532899999999 76.20044499999999 86.541612 75.80743699999998 C 90.741153 73.15532399999998 97.423608 75.87138299999998 97.656644 81.07284099999998 L 97.656644 81.07284099999998 Z &#10;" stroke-width="0px" /><path d="M 92.909478 111.193198 C 89.06476699999999 110.217219 85.70372499999999 109.390665 81.873437 109.283988 C 81.87344 109.283943 79.64249699999999 109.183983 79.64249699999999 109.183983 C 78.05342699999999 109.14144 76.58746 109.0288 74.949991 109.319661 C 75.319881 108.473406 76.049551 107.855863 76.779971 107.345299 C 81.94695300000001 104.027692 90.183764 105.361768 92.90947800000001 111.19319899999999 L 92.90947800000001 111.19319899999999 Z &#10;" stroke-width="0px" /><path d="M 184.297497 98.649572 C 184.312883 96.89392600000001 184.32826799999998 95.13828000000001 184.343654 93.38263300000001 C 184.395219 87.49858400000001 184.47388099999998 81.46552000000001 186.591297 75.97541600000001 C 188.70871300000002 70.48531200000001 193.333383 65.56633400000001 199.171977 64.83453700000001 C 204.890369 64.11780800000001 210.84059 68.00931800000001 212.476026 73.53553300000002 C 212.476026 73.53553300000002 191.454712 62.78300700000001 184.297496 98.649572 Z &#10;" opacity=".35" fill="#754123" mix-blend-mode="multiply" stroke-width="0px" /><path d="M 212.475913 73.5355 C 208.515932 65.673032 199.78636799999998 63.085642 192.93907 69.004273 C 189.82565799999998 71.629181 188.359814 75.38132399999999 187.00412999999998 79.177474 C 185.62821799999998 83.092073 184.84501099999997 87.19605100000001 184.29766399999997 91.470653 C 183.35330699999997 86.176992 183.87447799999998 80.521174 185.56535199999996 75.354906 C 187.10773999999995 69.80755 191.36131599999996 64.797679 197.13041099999995 63.446304999999995 C 204.22890999999996 61.60638599999999 211.24340099999995 66.44081399999999 212.47591299999996 73.5355 L 212.47591299999996 73.5355 Z &#10;" stroke-width="0px" /><path d="M 92.034825 142.696582 C 96.61181499999999 151.29932100000002 113.591697 163.37028 116.577581 144.020612 L 111.21480199999999 145.08971 L 100.26256899999998 144.56300199999998 L 92.03482499999998 142.69658199999998 Z &#10;" stroke-width="0px" /><path d="M 348.431788 110.57185 C 342.183683 66.47291799999999 311.857731 63.898871 301.851386 71.683482 C 291.546047 79.581482 281.23722499999997 97.917536 301.81602599999997 136.965693 C 328.32383999999996 187.264119 356.64374 321.93391399999996 234.93826499999994 320.126407 C 234.93826499999994 320.126407 246.58718399999995 342.29878399999996 241.86731199999994 360.936045 C 234.03451099999995 370.837021 223.80211599999996 378.849646 223.80211599999996 378.849646 C 223.80211599999996 378.849646 271.28923899999995 401.485374 316.87677599999995 383.246892 C 391.58887599999997 351.791252 400.425577 279.758749 392.624963 232.63476500000002 C 391.168866 223.92190900000003 382.705285 157.771384 329.172965 112.99243200000002 C 303.087974 92.98302100000002 333.34698099999997 78.52296400000003 348.431787 110.57184900000003 Z &#10;" fill="#754123" mix-blend-mode="multiply" stroke-width="0px" opacity=".25" /><path d="M 228.148809 419.774718 C 228.575999 419.774718 228.998327 419.583003 229.278605 419.218329 C 231.581611 416.21619 232.51101 412.79450099999997 231.828201 409.82987099999997 C 231.26972800000001 407.40495899999996 229.649531 405.41279499999996 227.266297 404.22083 C 226.56473300000002 403.870048 225.709311 404.15345199999996 225.357486 404.8571 C 225.006357 405.560054 225.29115 406.414434 225.993756 406.765911 C 227.62715 407.582782 228.685748 408.86296300000004 229.055633 410.468225 C 229.547075 412.602092 228.80557 415.16037 227.021097 417.485952 C 226.542852 418.109719 226.66058999999998 419.002303 227.28401 419.480895 C 227.542061 419.678861 227.846651 419.77471799999995 228.14881 419.77471799999995 Z &#10;" stroke-width="0px" /><path d="M 80.463972 402.969823 C 80.84045499999999 402.969823 81.215896 402.82117500000004 81.49548 402.527351 C 82.036935 401.957764 82.013665 401.056844 81.444078 400.515737 C 78.818769 398.021363 77.647295 395.517265 78.05573100000001 393.272954 C 78.45722 391.068236 80.224676 389.663024 81.01793 389.32821800000005 C 81.74172200000001 389.02258600000005 82.080348 388.18765500000006 81.77471600000001 387.46386300000006 C 81.46908400000002 386.74007100000006 80.63519500000001 386.40109700000005 79.91070800000001 386.70672900000005 C 78.36448800000001 387.36036500000006 75.84858100000001 389.51229100000006 75.25676700000001 392.76310400000006 C 74.84590000000001 395.01852900000006 75.24634800000001 398.55205100000006 79.48456000000002 402.57875200000007 C 79.75962900000002 402.83992800000004 80.11214700000002 402.9698220000001 80.46397200000001 402.9698220000001 Z &#10;" stroke-width="0px" /><path d="M 108.347995 372.855736 C 102.99025 377.76579899999996 90.609344 380.493986 87.611636 380.485523 C 87.611636 380.485523 98.827139 375.556624 101.10952900000001 371.841193 L 108.34799500000001 372.855736 Z &#10;" fill="#754123" mix-blend-mode="multiply" stroke-width="0px" opacity=".25" /><path d="M 78.508214 388.259382 C 74.923682 389.062718 75.074308 391.773979 73.517843 392.225856 C 71.961379 392.67773300000005 71.107834 389.030339 71.158042 388.01725400000004 C 70.33414599999999 388.61084200000005 71.202726 393.53127800000004 71.833095 395.439202 C 72.463464 397.347126 78.287653 400.00817800000004 78.287653 400.00817800000004 L 76.98223100000001 395.84087000000005 L 77.58473300000001 390.36814000000004 L 78.50821300000001 388.259382 Z &#10;" fill="#754123" mix-blend-mode="multiply" stroke-width="0px" opacity=".25" /><path d="M 77.329322 391.092361 C 77.576042 397.5906 89.333538 396.04168899999996 92.137842 395.84085699999997 C 94.94214500000001 395.640026 102.990251 394.63586799999996 110.22027 379.573292 C 113.384472 372.98114899999996 114.24072 364.811919 115.27353 357.565707 L 115.27348699999999 357.56566399999997 C 115.27357399999998 357.56501299999996 115.27374699999999 357.56436199999996 115.273834 357.56370999999996 C 115.79575299999999 353.90233499999994 116.364471 350.47916999999995 117.29725699999999 347.61182999999994 C 121.41104599999998 331.66687199999996 128.13195299999998 326.64274199999994 140.34537999999998 324.94639799999993 C 154.80546199999998 322.93808299999995 179.94907399999997 348.85415399999994 191.87905299999997 376.16336899999993 C 196.47846699999997 385.26334399999996 194.87181499999997 383.2887179999999 197.48271099999997 394.1337899999999 C 200.09351999999996 404.97881899999993 207.68109399999997 413.3134109999999 215.48547499999995 414.0163649999999 C 223.28985699999996 414.71927499999987 229.41534599999994 414.1167809999999 229.71654999999996 409.89923299999987 C 229.89775799999995 415.33275299999985 229.71654999999996 417.8509599999999 229.71654999999996 417.8509599999999 L 225.39862999999997 419.50215399999985 L 212.76795499999997 418.35225699999984 L 202.20229299999997 411.9228279999998 L 193.41476599999996 392.7114709999998 L 189.85094099999995 381.9833119999998 L 168.52911799999995 354.6028989999998 L 148.17793699999996 342.4189939999998 L 131.97731599999995 338.9378719999998 L 124.74725299999994 340.4106359999998 L 121.05770199999995 346.35782599999976 L 118.99004099999995 362.63628799999975 L 118.83431599999994 362.42382199999975 C 118.15263499999995 366.8817509999997 117.18798399999994 371.93622599999975 115.63269099999994 377.55373299999974 C 109.46365699999994 399.8351279999997 93.95270499999994 405.8825599999997 84.01141799999994 402.94349999999974 C 74.07013099999993 400.00439699999976 77.32932199999993 391.09235999999976 77.32932199999993 391.09235999999976 Z &#10;" fill="#754123" mix-blend-mode="multiply" stroke-width="0px" opacity=".25" /><path d="M 217.604454 274.425651 L 215.48648500000002 275.44081700000004 C 215.48648500000002 275.44081700000004 215.382519 272.02668600000004 219.97612300000003 270.50384800000006 C 224.56972700000006 268.9810100000001 218.41965900000002 273.3320580000001 218.41965900000002 273.3320580000001 L 217.60445400000003 274.4256510000001 Z &#10;" stroke-width="0px" /><path d="M 95.522438 263.091857 C 96.463141 263.541395 97.417103 265.499528 97.668146 267.005783 L 95.502427 266.275707 L 94.605426 263.641812 L 95.52243899999999 263.091857 Z &#10;" stroke-width="0px" /><path d="M 230.346409 363.495053 C 226.171336 363.595912 221.943116 363.27130999999997 217.856686 364.132996 C 212.918661 365.17425199999997 208.373465 367.986767 205.238099 371.941231 C 202.102733 375.895695 200.400701 380.962462 200.51283700000002 386.00783 C 202.48040300000002 386.692974 204.644539 386.227625 206.659893 385.699345 C 217.394271 382.885565 228.12079 378.092949 235.01923000000002 369.400671 C 237.33403700000002 366.483933 239.19069800000003 363.20592999999997 241.92604000000003 360.63856799999996 C 238.39677600000002 362.76011199999994 234.41799500000002 363.39669399999997 230.34640800000003 363.495054 Z &#10;" fill="#754123" mix-blend-mode="multiply" stroke-width="0px" opacity=".25" /><path d="M 90.60164 350.997474 C 83.775834 345.005602 73.702627 344.582857 65.801364 340.103541 C 68.100678 345.548196 71.09405000000001 350.699305 74.686102 355.392735 C 76.515887 357.78356 78.52078 360.075111 80.937871 361.87005600000003 C 83.367804 363.67453700000004 86.15223900000001 364.93260100000003 88.926766 366.142034 C 93.586271 368.17314100000004 98.28790000000001 370.10761 103.027765 371.943838 C 104.250657 372.41758000000004 106.323622 373.273699 107.449259 372.473245 C 106.637747 370.80350500000003 104.039162 369.457804 102.76526 367.96420800000004 C 101.240751 366.17678600000005 99.985761 364.178282 98.760588 362.18025800000004 C 96.352649 358.253369 94.11068 354.0778 90.601643 350.997474 Z &#10;" fill="#754123" mix-blend-mode="multiply" stroke-width="0px" opacity=".25" /><path d="M 212.876281 271.215037 C 213.608368 273.845119 214.611006 276.57848 216.75672400000002 278.26643 C 219.58356300000003 280.49019200000004 223.55145600000003 280.299504 227.135737 280.00106700000003 C 230.15662700000001 279.749539 233.177516 279.498011 236.198406 279.246483 C 236.508678 279.22064900000004 236.869405 279.214118 237.072776 279.449864 C 237.273133 279.682116 237.218812 280.032628 237.147385 280.330927 C 236.32020300000002 283.785489 234.308296 287.418598 230.85545000000002 288.252915 C 229.01464500000003 288.69771199999997 227.08081600000003 288.257976 225.27370800000003 287.69160999999997 C 221.73494400000004 286.582525 218.27972700000004 284.930976 215.67363700000004 282.292533 C 212.45297100000005 279.031875 210.87182100000004 274.544724 210.43013500000004 270.05213399999997 C 210.34909300000004 269.22781799999996 209.85101700000004 263.97746399999994 210.91840000000005 264.07104699999996 C 211.67847800000004 264.13768699999997 212.61927300000005 270.29171499999995 212.87628000000004 271.21503699999994 Z &#10;" fill="#754123" mix-blend-mode="multiply" stroke-width="0px" opacity=".25" /><path d="M 98.270122 269.180559 C 96.645164 270.472904 94.808165 271.46778 92.979924 272.45174000000003 C 92.129429 272.90947700000004 91.274686 273.36809500000004 90.366094 273.69570100000004 C 88.41392900000001 274.39958400000006 86.299268 274.47098700000004 84.225069 274.53498800000006 C 82.81522600000001 274.57849000000004 81.372223 274.61754200000007 80.03070100000001 274.18180100000006 C 78.676462 273.7419300000001 77.52329700000001 272.85001500000004 76.400394 271.97449200000005 C 75.869286 272.76465600000006 76.29113500000001 273.82878100000005 76.77149100000001 274.65078700000004 C 77.29474000000002 275.546195 77.87993900000001 276.40539300000006 78.52152000000001 277.220205 C 78.85819300000001 277.647782 79.21546200000002 278.06791200000004 79.65861100000001 278.38380700000005 C 80.288836 278.83305800000005 81.05296700000001 279.044794 81.79965200000001 279.248437 C 83.55107900000002 279.726102 85.384016 280.20702200000005 87.15986400000001 279.83016200000003 C 88.50314200000001 279.54509900000005 89.69342400000001 278.79156500000005 90.84096400000001 278.037371 C 93.12853300000002 276.533921 95.39161600000001 274.960989 97.33057300000002 273.02869 C 99.26953100000001 271.096391 100.88391300000002 268.77397299999996 101.64588600000002 266.144765 C 101.79579900000002 265.627485 101.98999300000001 265.02704900000003 102.00764900000001 264.50613400000003 C 101.14217500000001 266.36845100000005 99.87672800000001 267.90280600000006 98.27012100000002 269.180558 Z &#10;" fill="#754123" mix-blend-mode="multiply" stroke-width="0px" opacity=".25" /><path d="M 90.898463 248.157886 C 89.632721 247.08731899999998 88.24084 246.177595 86.85301000000001 245.270871 C 82.58400700000001 242.481764 78.31500300000002 239.692657 74.046 236.90355 C 76.343338 242.23613799999998 81.13053300000001 246.010411 85.73363300000001 249.549582 C 87.65417700000002 251.02622499999998 89.59924800000002 252.526572 91.064777 254.45561099999998 C 92.54321100000001 256.401637 93.47606400000001 258.715766 94.08931700000001 261.081503 C 94.39263700000001 262.251617 95.319146 266.710947 97.225621 266.386147 C 98.775132 266.122161 97.92423000000001 261.416328 97.732766 260.298205 C 96.933863 255.632724 94.523021 251.22355199999998 90.89846299999999 248.157886 Z &#10;" fill="#754123" mix-blend-mode="multiply" stroke-width="0px" opacity=".25" /><path d="M 231.47397 248.38061 C 227.20685600000002 251.347612 222.69674 254.247961 219.788228 258.555155 C 216.61255 263.257992 215.70597800000002 269.15594300000004 215.793024 274.829921 C 217.231935 274.678138 218.384777 273.50664800000004 219.007038 272.200396 C 219.62929899999997 270.894144 219.839055 269.437201 220.195901 268.035001 C 221.139511 264.327147 223.176213 260.90456400000005 225.98502299999998 258.306648 C 228.526536 255.955959 231.64756899999998 254.29429199999998 234.15171199999997 251.903808 C 238.00300499999997 248.227311 240.30023799999998 242.994354 241.890281 237.995002 C 239.40400899999997 242.417788 235.584364 245.522581 231.47396999999998 248.380611 Z &#10;" fill="#754123" mix-blend-mode="multiply" stroke-width="0px" opacity=".25" /><path d="M 214.55617 252.965439 C 219.158024 248.715916 220.99571400000002 242.198147 221.341697 235.943884 C 221.760216 228.378359 220.07062100000002 220.313615 214.860963 214.811635 C 209.651305 209.309655 200.368028 207.35377 194.289556 211.87753999999998 C 190.289081 214.854806 188.341969 219.97939499999998 188.080226 224.95929399999997 C 187.81848300000001 229.93919199999996 189.026781 234.86714699999996 190.26281300000002 239.69830899999997 C 193.21777600000001 251.24808899999996 196.383067 262.74405599999994 199.75658700000002 274.178591 C 202.37550800000002 283.055416 208.43299700000003 290.994551 215.04372800000002 297.471819 C 221.654458 303.94908699999996 229.057951 309.650533 235.007954 316.739555 C 226.28394500000002 302.293864 217.559934 287.848171 208.835924 273.40247899999997 C 200.158885 259.034565 194.457748 242.87265999999997 193.772437 226.10190299999996 C 193.634435 222.72474399999996 192.388137 217.86705899999995 194.833961 215.53420799999998 C 196.972602 213.49434999999997 200.315632 216.69587299999998 203.09597699999998 217.69811499999997 C 205.876322 218.70035699999997 209.85249799999997 221.50290699999996 211.52606799999998 223.93888099999998 C 217.845973 233.13785699999997 216.80714299999997 242.03404299999997 214.55616999999998 252.96543999999997 Z &#10;" fill="#754123" mix-blend-mode="multiply" stroke-width="0px" opacity=".25" /><path d="M 99.922486 208.035215 C 98.322034 208.957492 96.90471600000001 210.17395299999998 95.638118 211.518486 C 94.595956 212.624774 93.64653100000001 213.826888 92.90391000000001 215.152968 C 90.99409800000001 218.56327 90.548759 222.659055 91.094829 226.529372 C 91.640899 230.399689 93.121032 234.080446 94.868792 237.57657 C 96.154129 240.14768800000002 97.590701 242.643192 99.168611 245.045886 C 97.983876 239.264931 97.406566 233.359684 97.44924999999999 227.458734 C 97.472883 224.191532 97.72988799999999 220.777697 99.419693 217.98131899999998 C 101.109498 215.18494099999998 104.63851 213.248596 107.70781199999999 214.368663 C 107.98792099999999 214.470882 108.27252299999999 214.598301 108.56999199999998 214.577763 C 108.90683299999999 214.554506 109.20024899999999 214.345079 109.45434199999998 214.122724 C 112.61952299999999 211.352891 112.43706699999998 206.445729 114.85965399999998 203.150223 C 112.52660999999998 203.52799100000001 109.86118899999998 204.79204900000002 107.44246499999998 205.392286 C 104.86054499999999 206.03302200000002 102.24666199999999 206.69588800000002 99.92248599999998 208.03521600000002 Z &#10;" fill="#754123" mix-blend-mode="multiply" stroke-width="0px" opacity=".25" /><path d="M 148.037318 168.917258 C 145.372609 170.27734800000002 142.357911 170.762518 139.39101 171.147253 C 122.968625 173.276834 105.646942 173.04980600000002 90.95650599999999 180.693165 C 97.631553 175.137057 105.545807 171.278829 113.571799 167.960691 C 115.61133099999999 167.1175 117.698852 166.296801 119.896186 166.090928 C 122.258916 165.869557 124.621088 166.36963599999999 126.958424 166.779961 C 131.33759899999998 167.548736 135.823909 167.95588899999998 140.266322 167.598355 C 142.478743 167.420295 144.681151 167.056257 146.811299 166.42508899999999 C 148.248406 165.999271 151.42096899999999 163.93401599999999 152.653965 164.43055299999997 C 152.046146 166.40295199999997 149.816524 168.009135 148.037317 168.91725799999998 Z &#10;" fill="#754123" mix-blend-mode="multiply" stroke-width="0px" opacity=".25" /><path d="M 141.557785 63.800876 C 139.283324 62.929908000000005 136.835581 62.553489 134.60001599999998 61.587048 C 131.785003 60.370111 129.38616 58.212858000000004 127.87834699999998 55.542328000000005 C 125.34691699999998 62.247677 123.83582699999998 69.337173 123.41303899999997 76.491968 C 123.38642599999997 76.942345 123.39981199999997 77.472555 123.76520699999998 77.737194 C 123.98281299999998 77.894796 124.26986999999997 77.910132 124.53853899999997 77.907394 C 126.26079799999997 77.889845 127.93273799999997 77.375126 129.60463599999997 76.961274 C 135.53742499999998 75.492703 141.68808599999997 75.273229 147.77228599999998 75.415595 C 149.31654099999997 75.45173 150.86031999999997 76.732106 152.40335499999998 76.802781 C 154.13621799999999 76.88215 156.53024699999997 78.124393 155.22172099999997 76.413186 C 153.66247099999998 74.37409799999999 151.47110399999997 70.94039099999999 149.59836599999997 69.18315799999999 C 147.52829099999997 67.240759 144.22259599999998 64.821322 141.55778399999997 63.80087599999999 Z &#10;" opacity=".35" fill="#754123" mix-blend-mode="multiply" stroke-width="0px" /><path d="M 156.508445 151.545439 C 150.716418 155.53552599999998 143.836828 157.74763399999998 136.875397 158.751051 C 129.913966 159.754468 122.837364 159.59627799999998 115.81687199999999 159.170777 C 112.75239799999999 158.985044 109.67730699999998 158.74680899999998 106.68417799999999 158.06367799999998 C 104.01954599999999 157.45552099999998 101.448376 156.501264 98.88620999999999 155.549725 C 94.360098 153.868814 89.816516 152.180046 85.57126799999999 149.880258 C 79.11337599999999 146.381811 73.43846699999999 141.500491 68.80416399999999 135.802531 C 70.72253099999999 143.255104 76.01928899999999 149.767551 82.92473199999999 153.163994 C 86.010331 154.681646 89.35317599999999 155.589762 92.57024499999999 156.804116 C 97.26501299999998 158.576259 101.69591099999998 161.00270899999998 106.42117399999998 162.691857 C 111.57021699999999 164.532495 116.99017499999998 165.470497 122.37867499999999 166.400366 C 128.224346 167.409126 134.176562 168.42086999999998 140.059196 167.65661 C 144.39885199999998 167.092811 149.639155 165.543747 153.061636 162.668496 C 155.94662499999998 160.244795 156.812412 155.13131 156.508445 151.54544 Z &#10;" fill="#754123" mix-blend-mode="multiply" stroke-width="0px" opacity=".25" /><path d="M 345.804797 53.419351 C 312.545123 30.535624 259.362637 16.910137 245.282936 74.734156 C 231.203235 132.558175 273.569733 176.828756 261.727306 229.30392999999998 C 268.160784 197.02710699999997 246.533266 169.58508799999998 235.007953 140.775175 C 229.34588399999998 126.69192999999999 210.24360099999998 57.994952999999995 241.890281 29.037972999999994 C 256.914073 7.038031999999994 325.441763 8.621979999999994 345.804798 53.41935099999999 Z &#10;" stroke-width="0px" opacity=".66" fill="#d8b58e" /><g opacity=".66"><path d="M 130.615109 54.129501 C 136.452126 51.540045 141.78313699999998 54.689063 146.609886 58.04821 C 149.01832 59.718745999999996 151.122145 61.545764999999996 153.09451299999998 63.764896 C 155.185997 66.103037 156.87190599999997 68.628272 158.58231899999998 71.39303100000001 C 159.69397999999998 64.41834600000001 155.58985499999997 57.27329300000001 149.86920899999998 53.38595000000001 C 146.934102 51.381521000000006 143.61520599999997 49.75978800000001 139.948175 49.52000100000001 C 136.376828 49.24758200000001 132.13117599999998 50.75656500000001 130.615108 54.129501000000005 L 130.615108 54.129501000000005 Z &#10;" stroke-width="0px" fill="#d8b58e" /></g><g opacity=".66"><path d="M 174.51723 81.943572 C 155.947413 74.927154 132.912932 75.42196 114.25458500000002 81.943286 C 124.39811000000002 82.938153 134.33564600000003 82.606826 144.414734 82.599393 C 153.377105 82.43381500000001 165.60798200000002 82.651054 174.51722900000001 81.943572 L 174.51722900000001 81.943572 Z &#10;" stroke-width="0px" fill="#d8b58e" /></g><path d="M 144.121965 89.890385 C 142.45445999999998 89.233691 139.620907 88.024726 137.977219 87.58662799999999 C 137.15724899999998 87.34492499999999 135.87478 87.06013399999999 135.024848 86.83737199999999 C 133.868944 86.56411099999998 132.872978 86.24760399999998 131.591026 86.22281399999999 C 131.841481 85.52153099999998 132.42065 85.01798699999999 133.006932 84.62497999999998 C 137.206736 81.97283499999998 143.888979 84.68892299999997 144.121964 89.89038399999998 L 144.121964 89.89038399999998 Z &#10;" stroke-width="0px" /><g opacity=".66"><path d="M 195.784005 137.587344 C 194.73113600000002 145.085089 192.51880400000002 153.040426 193.705973 160.612551 C 194.296639 164.493979 195.212979 168.32966299999998 196.464002 172.042144 C 197.856746 175.948496 200.286173 179.545576 203.227186 182.41157 C 206.048058 185.245091 209.362616 187.30478300000001 212.602484 189.53205 C 217.169326 192.68948699999999 221.568153 196.167271 225.834923 199.74524 C 229.930619 203.286523 234.85726 206.742049 238.916644 210.378803 C 237.207639 202.535075 230.902709 196.890319 225.026444 191.924353 C 220.69137 188.197642 215.93572699999999 184.855938 211.154115 181.716333 C 206.854031 178.770939 203.111699 175.019193 201.022155 170.221512 C 199.635777 166.858164 198.410453 163.346861 197.44898799999999 159.851251 C 195.38525399999997 152.558338 196.575401 145.05835499999998 195.78400599999998 137.58734299999998 L 195.78400599999998 137.58734299999998 Z &#10;" stroke-width="0px" fill="#d8b58e" /></g><g opacity=".66"><path d="M 97.816632 178.012728 C 94.563041 180.066193 91.707987 182.316234 88.867693 184.60291700000002 C 80.405009 191.51835200000002 71.23185600000001 200.36941000000002 70.635881 212.04244200000002 C 75.206306 206.08798900000002 79.60118 201.165263 84.807596 195.93311400000002 C 89.865948 190.661437 94.988848 184.978426 97.816631 178.012728 L 97.816631 178.012728 Z &#10;" stroke-width="0px" fill="#d8b58e" /></g><g opacity=".66"><path d="M 229.226393 311.89012 C 232.25416 323.761384 236.185158 336.43126700000005 239.111406 348.26833000000005 C 240.145095 352.320192 241.09568 356.32015100000007 241.918455 360.638591 C 242.29598 359.61420300000003 242.666211 358.54501200000004 242.864872 357.465749 C 245.719834 342.70693900000003 239.62598799999998 322.727116 229.226393 311.890119 L 229.226393 311.890119 Z &#10;" stroke-width="0px" fill="#d8b58e" /></g><g opacity=".66"><path d="M 98.216384 277.661945 C 87.445249 290.60628 61.697832000000005 317.322194 66.062965 334.876824 C 66.577399 332.082321 67.452444 329.554606 68.641456 327.144455 C 72.24274000000001 319.840324 77.20919400000001 313.499725 81.892461 306.771795 C 88.21792599999999 297.702063 94.775144 288.363806 98.216384 277.661946 L 98.216384 277.661946 Z &#10;" stroke-width="0px" fill="#d8b58e" /></g><path d="M 200.28759 386.353473 C 208.178327 390.898975 219.692817 396.923999 219.692817 396.923999 L 207.70294199999998 385.263314 L 200.28758999999997 386.353474 Z &#10;" fill="#754123" mix-blend-mode="multiply" stroke-width="0px" opacity=".25" /><path d="M 237.901777 403.685413 C 238.03566600000002 408.10376399999996 234.08592900000002 410.446828 230.47091500000002 407.568206 C 229.79708800000003 408.834209 231.073417 412.722948 231.073417 412.722948 L 229.75611700000002 417.010405 L 238.50427900000003 411.922577 L 237.90177700000004 403.685413 Z &#10;" fill="#754123" mix-blend-mode="multiply" stroke-width="0px" opacity=".25" /><path d="M 68.444485 388.184454 C 67.950198 391.34106 68.768963 394.748223 70.634783 397.29802900000004 C 73.33673399999999 400.991077 77.98658999999999 403.481509 84.082049 404.50036300000005 C 85.952471 404.812669 87.776581 404.9711970000001 89.503764 404.9711970000001 C 91.369287 404.9711970000001 93.157328 404.78624800000006 94.818161 404.4213960000001 C 101.744704 402.9005370000001 108.182303 397.85733000000005 112.480221 390.5849350000001 C 116.291719 384.1366480000001 118.117908 376.8152700000001 119.518089 369.8560720000001 C 120.435117 366.9832730000001 120.850139 363.1891410000001 121.291583 359.0904220000001 C 122.121628 351.3884580000001 123.06210800000001 342.6608130000001 127.360917 341.6630370000001 C 134.525994 340.00146200000006 151.309025 342.8327000000001 168.178891 357.4392380000001 C 171.152923 360.0145750000001 177.753355 368.40379000000013 187.796723 382.3744350000001 L 189.33064399999998 384.3803770000001 C 190.763333 391.3915270000001 193.22125799999998 400.84308700000014 196.94592199999997 407.1439790000001 C 201.24383999999998 414.4154830000001 207.68143999999998 419.4586900000001 214.60783399999997 420.9798460000001 C 216.26911199999998 421.3449950000001 218.05804299999997 421.5302410000001 219.92534799999996 421.5302410000001 C 221.64956199999995 421.5302410000001 223.47233599999996 421.3717130000001 225.34379699999997 421.0594070000001 C 231.43880999999996 420.0405530000001 236.08866599999996 417.54982400000006 238.79135899999997 413.8564800000001 C 240.65688199999997 411.3057830000001 241.47564699999998 407.8986200000001 240.98135999999997 404.7420140000001 C 240.56604099999996 402.09097600000007 239.24527099999997 399.83714800000007 237.26189099999996 398.3955530000001 C 234.58354099999997 396.44987500000013 231.45365299999997 396.24830100000014 228.42677899999995 396.05355500000013 C 227.58159399999997 395.99922800000013 226.80260999999996 395.94935400000014 226.04470399999997 395.86326200000013 C 219.95533099999997 395.17467500000015 214.19874899999996 391.58315600000014 210.77436699999996 386.4908170000001 C 211.52188299999995 386.3593040000001 212.18746199999995 386.2119090000001 212.71440499999994 386.0499670000001 C 216.63277599999995 384.8467580000001 220.40508799999995 383.19913600000007 223.93248299999993 381.1510380000001 C 230.21719499999995 384.0523370000001 251.28775399999992 392.7633580000001 277.4228949999999 392.7633580000001 C 288.83660899999995 392.7633580000001 299.8364889999999 391.0786280000001 310.11705499999994 387.7563690000001 C 334.40685899999994 380.0155150000001 354.10766599999994 366.86422800000014 368.66907999999995 348.66884300000015 C 381.87796 332.1626410000002 390.55009099999995 311.97882900000013 394.444713 288.67759800000016 C 399.72808699999996 257.06522800000016 395.701952 221.21119700000014 383.10729399999997 187.71935100000016 C 370.584775 154.41987600000016 350.757799 126.45216400000015 327.27903999999995 108.96867000000016 C 322.43532899999997 104.87484900000015 320.14468899999997 100.42894200000016 321.18135499999994 97.09926200000015 C 321.7543119999999 95.25897200000016 323.38233999999994 94.07773100000016 325.6480429999999 93.85864200000015 C 333.6753749999999 93.06333100000015 341.9776079999999 102.88909400000014 346.64438499999994 111.53599100000014 L 348.37987999999996 114.75197100000014 L 350.19434199999995 111.57992800000014 C 364.6975699999999 86.22139600000014 358.48529399999995 47.00176300000014 322.98572399999995 25.26414000000014 C 301.46481499999993 12.08672800000014 273.34807499999994 9.25964700000014 253.02087499999993 18.228053000000138 C 237.60002599999993 25.032286000000138 227.71518599999993 37.628132000000136 224.43537899999993 54.654150000000136 C 215.12141799999992 103.22485300000014 232.95759099999992 141.72695300000012 245.98092799999992 169.83983400000014 C 250.46602199999992 179.52072500000014 254.3362999999999 187.87580000000014 256.62070499999993 195.34294100000014 C 262.3992559999999 214.22914000000014 261.59978799999993 232.73861200000013 254.42684499999993 246.12561300000013 C 248.61118499999992 256.9803230000001 238.88101399999994 264.5184160000001 225.50766899999994 268.53148800000014 C 224.19580599999995 268.70871900000014 222.80200699999995 269.01122800000013 221.35150599999994 269.43307900000013 C 221.57029799999995 268.56622200000015 221.89358799999994 267.6866000000001 222.31721999999993 266.8072750000001 C 224.41697299999993 262.4486470000001 228.48823199999993 258.91026800000014 232.07974999999993 255.78839600000012 C 237.43644999999992 251.88397800000013 241.50533399999995 246.2197210000001 243.81259799999992 239.43300400000012 C 245.64487199999994 237.6238860000001 251.14644499999991 231.69333800000013 252.35470099999992 224.68575000000013 L 252.7640829999999 222.30990900000012 L 248.0272449999999 222.30990900000012 C 248.0272449999999 222.30990900000012 248.6477009999999 218.5242380000001 248.6477009999999 218.5242380000001 L 245.5008919999999 215.5199260000001 C 245.4720959999999 214.19529700000012 245.68049799999991 212.5046300000001 246.3716079999999 211.7678010000001 L 247.40055499999988 210.6702770000001 L 246.6506639999999 209.3661320000001 C 245.4293459999999 207.24381700000012 242.88992999999988 206.7441870000001 240.8379729999999 206.7278590000001 C 236.5606869999999 198.66193400000012 229.6501759999999 191.2936510000001 220.2919809999999 184.82250500000012 C 219.4076089999999 184.21095500000013 218.4665349999999 183.61781100000013 217.4156189999999 183.00893400000012 C 200.1964869999999 172.93498800000012 194.07475599999992 153.19499500000012 201.44140599999992 131.49299600000012 L 201.6293239999999 130.93992900000012 L 201.6205659999999 130.93666300000012 C 203.20688399999992 126.18201200000013 205.5353749999999 120.71250200000013 207.7900929999999 115.41636300000012 C 216.2661419999999 95.50656100000012 225.8734099999999 72.94037700000013 213.2291749999999 59.93069600000012 C 205.3360279999999 51.80836600000012 198.3768289999999 52.08653200000012 193.9289929999999 53.74988800000012 C 187.0895809999999 56.30889700000012 182.4873729999999 63.248502000000116 179.8309909999999 68.61945200000012 C 178.1582839999999 72.00153000000012 176.7827419999999 75.73569400000012 175.7732399999999 79.56084800000012 C 168.9161649999999 76.36683700000012 164.1310849999999 75.38598200000013 162.7113099999999 75.14789300000012 C 158.22116999999992 54.324625000000125 149.97697499999992 49.43519700000012 141.7296629999999 47.26538300000013 C 137.4888919999999 46.149750000000125 133.4839839999999 46.91804700000013 130.1489599999999 49.488336000000125 C 126.1213409999999 52.593287000000124 121.2846059999999 59.798292000000124 120.9902609999999 76.49478700000012 C 119.8198559999999 76.76642200000012 118.8177749999999 77.01579200000012 117.8680919999999 77.27109900000012 C 100.51522099999991 81.93639200000013 77.7249009999999 93.61521000000012 67.6974149999999 122.75911600000012 C 65.8924529999999 127.04115100000011 64.58311299999991 133.75127700000013 68.67797299999991 141.18338700000012 C 74.60733299999991 151.94606800000014 89.66986199999991 160.4154380000001 113.46137199999991 166.36973500000013 C 91.37284999999991 175.03949100000014 74.08187499999991 190.72455400000013 68.96356099999991 206.81424800000013 L 68.92006999999991 206.80652900000013 L 68.6800519999999 207.72029100000012 L 68.48248599999991 208.40012100000013 C 68.37056599999991 208.74508300000014 68.22064799999991 209.18444800000012 68.02129999999991 209.73187400000012 C 67.5191459999999 211.1108300000001 66.01001399999991 212.2463530000001 65.99487399999991 212.2576340000001 L 64.76657899999991 213.1506150000001 L 66.3180149999999 217.4653060000001 C 65.6402639999999 218.12524500000012 64.6246749999999 219.0888810000001 63.2909919999999 220.2843720000001 L 62.6159119999999 220.8899840000001 L 62.6159119999999 221.7966210000001 C 62.6159119999999 222.4791220000001 62.6156149999999 223.7304240000001 67.4691229999999 227.6384050000001 C 66.4003949999999 228.96303400000008 65.3140039999999 230.6896220000001 64.23369799999989 232.78076600000009 L 62.70378499999989 235.7432200000001 L 66.0377699999999 235.7432200000001 C 69.94248499999989 235.7432200000001 73.1590589999999 239.4101430000001 74.0518909999999 240.53408900000008 C 76.0426929999999 243.32257800000008 78.4088859999999 245.7319650000001 81.0661579999999 247.67022100000008 C 84.6171539999999 250.7588440000001 88.6879669999999 254.29603600000007 90.7889079999999 258.6579290000001 C 91.2125399999999 259.5369570000001 91.5358299999999 260.4159860000001 91.7547709999999 261.28314000000006 C 81.81679099999991 258.38748200000003 77.43055499999991 261.9107210000001 75.68199799999991 264.32812300000006 C 72.81112799999991 268.30082100000004 73.28181399999991 274.7479210000001 76.75369399999991 279.0059100000001 C 79.8443949999999 282.79781500000007 84.38648699999992 283.8582300000001 88.90334599999991 281.84041300000007 C 90.36972899999991 281.27458100000007 91.79024699999991 280.55734600000005 93.14203899999991 279.70058300000005 C 89.89948999999991 285.20571800000005 85.70532699999991 290.96586300000007 81.63213899999991 296.55976200000003 L 81.6282799999999 296.56540300000006 L 82.1197459999999 296.92313000000007 L 81.62575599999991 296.56866900000006 C 72.27691299999991 309.40943200000004 62.60982599999991 322.68748200000005 62.60982599999991 334.87691400000006 C 62.60982599999991 342.36928900000004 71.66417599999991 355.82338200000004 79.75978799999992 362.8472980000001 C 83.79987499999991 366.35257600000006 90.20229599999992 369.8198550000001 96.90292199999992 372.1879780000001 C 93.41708899999992 376.1143650000001 88.53240999999991 378.7220600000001 83.38188499999993 379.3045170000001 C 82.63422099999993 379.3891250000001 81.86681499999993 379.4387020000001 81.05458199999993 379.4912470000001 C 77.97219299999992 379.6901490000001 74.84215699999993 379.8920200000001 72.16440099999993 381.8374010000001 C 70.18072399999993 383.27840200000014 68.85965799999992 385.53252700000013 68.44448699999992 388.1844560000001 Z M 159.253085 78.499542 L 155.928451 76.924356 C 155.610208 76.77354700000001 148.010367 73.23783900000001 137.754886 73.973777 C 133.493335 74.27925499999999 129.23208 74.835587 125.077253 75.628524 C 125.415683 64.329995 128.087503 56.205586999999994 132.628556 52.704612999999995 C 134.234913 51.46666999999999 136.079359 50.838198999999996 138.058731 50.838198999999996 C 138.915346 50.838198999999996 139.797046 50.95575899999999 140.696113 51.19266 C 145.513848 52.46028999999999 154.48077 54.819208999999994 159.005644 77.271693 L 159.253084 78.499542 Z M 228.02006799999998 378.52375 C 234.47251099999997 373.959392 238.633424 368.92717 240.915158 366.16718000000003 C 241.497615 365.46271 242.00051 364.85412900000006 242.365659 364.46345 C 244.67886099999998 361.992611 247.81498299999998 355.11980200000005 242.82402399999998 336.851981 C 239.23250499999997 323.70455300000003 232.397102 308.90505 224.069338 296.24508000000003 C 222.175018 293.107771 220.345416 289.984711 218.609624 286.926962 C 220.35788399999998 288.202607 222.239142 289.232445 224.23083499999998 290.001929 C 228.71711599999998 292.007871 233.259505 290.948644 236.352285 287.15614500000004 C 239.82446199999998 282.89815600000003 240.295296 276.45076000000006 237.424278 272.478061 C 236.80589999999998 271.623079 235.76864099999997 270.519914 234.142394 269.669682 C 244.805327 264.974108 252.830581 257.703792 258.006489 248.043088 C 265.686485 233.709966 266.59698099999997 214.068533 260.504343 194.155168 C 258.138299 186.421736 254.214287 177.950585 249.670413 168.14204 C 236.874774 140.521665 219.355953 102.70592500000001 228.423514 55.42036700000001 C 231.44029500000002 39.76232000000002 240.512605 28.186218000000014 254.66018400000002 21.943958000000016 C 273.82336100000003 13.488838000000015 300.429039 16.214984000000015 320.864893 28.727707000000017 C 333.831231 36.667166000000016 344.334746 49.10418700000002 349.68254 62.84950900000002 C 353.744596 73.28949400000002 356.752767 89.23669100000002 348.35850500000004 106.37611400000003 C 343.21287800000005 98.03647600000002 335.04928300000006 89.75532100000004 326.51579000000004 89.75532100000004 C 326.09631400000006 89.75532100000004 325.677136 89.77521100000004 325.25617600000004 89.81617900000003 C 321.34314800000004 90.19498400000003 318.37030400000003 92.46632700000004 317.30365500000005 95.89189600000003 C 315.76231200000007 100.84307400000003 318.53625400000004 106.91136900000004 324.72359400000005 112.12438500000003 L 324.80493600000005 112.18939900000004 C 347.69767600000006 129.22462100000004 367.04817700000007 156.55198700000005 379.306186 189.14907000000005 C 391.652959 221.98157100000006 395.60695400000003 257.09075800000005 390.439359 288.00815800000004 C 386.66051600000003 310.617091 378.269223 330.17272900000006 365.49822500000005 346.131208 C 351.44594100000006 363.6907 332.3952770000001 376.394309 308.87555000000003 383.889356 C 273.28929400000004 395.391834 239.13305600000004 383.258213 228.02007000000003 378.523749 Z M 176.266932 263.987318 C 181.974234 245.110619 186.903147 228.808366 185.156371 218.21994700000002 C 183.225388 206.52005100000002 177.731534 198.00347900000003 168.827697 192.90683600000003 C 161.150967 188.51288100000002 152.42569600000002 187.58486900000003 146.45789200000002 187.58011900000002 L 146.39213600000002 187.58011900000002 C 138.25169700000004 187.58011900000002 126.34013400000002 188.74681300000003 116.92167400000002 198.83560200000002 C 113.63993800000003 202.35112200000003 110.83630900000003 206.84393400000002 108.58218400000003 212.19826000000003 C 106.51761000000003 211.08945500000004 104.15587000000002 211.20642100000003 101.99837600000002 212.55094000000003 C 96.45746800000002 216.00560200000004 91.44231600000002 228.81638100000004 96.86848300000003 242.94258500000004 L 96.92251300000002 243.06905100000003 C 97.82158000000003 244.95327700000004 99.02642200000003 247.76254700000004 99.94552800000002 250.96635500000002 L 96.83107800000002 247.53781700000002 L 98.32225000000003 254.79685300000003 C 98.68264900000003 256.55223800000005 99.04957900000002 258.08022200000005 99.37316600000003 259.4286 C 99.82025000000003 261.290561 100.20796100000003 262.90523 100.47291600000003 264.63241300000004 C 100.23467900000003 265.33272600000004 99.94419300000003 265.99088500000005 99.60843400000003 266.59085600000003 C 96.48656200000003 272.292815 92.37329600000002 276.15567200000004 87.37996300000003 278.07700600000004 L 87.29342600000003 278.11233300000004 C 83.64372100000003 279.754314 81.26090400000002 278.10877100000005 79.90154200000002 276.44007100000005 C 77.57409100000002 273.58567800000003 77.15788100000002 269.21992500000005 78.97353000000003 266.707821 C 81.20004600000003 263.62721400000004 86.32415000000003 263.419999 93.40075900000002 266.123286 L 96.09083600000002 267.151343 L 96.15525700000002 264.272309 C 96.21106800000003 261.845704 95.63647900000002 259.363584 94.44751900000001 256.89482300000003 C 91.98439900000001 251.78125800000004 87.55348400000001 247.93057300000004 83.64401800000002 244.53320700000003 L 83.52527000000002 244.43791200000004 C 81.28554300000002 242.81077400000004 79.27678100000001 240.78583200000003 77.53430900000002 238.40346000000005 C 77.17717600000002 237.90383000000006 74.02324200000002 233.64970000000005 69.23727200000002 232.17663700000006 C 70.70573300000002 229.82573300000007 71.65526800000002 229.09513900000005 71.66551000000001 229.08742000000007 L 73.88920600000002 227.49204700000007 L 71.73171200000002 225.81028500000008 C 70.05959900000002 224.54651500000008 68.32662700000002 223.08028000000007 67.33152300000002 222.09883100000008 C 69.16884400000002 220.40133500000007 70.11971500000001 219.40979400000006 70.12980800000003 219.39910600000007 L 71.00304800000002 218.49306200000007 L 69.57154700000002 214.51086400000005 C 70.36745200000003 213.71822400000005 71.31580000000002 212.55331100000006 71.83725000000003 211.12181000000007 C 72.34088800000002 209.73869800000006 72.58209400000003 208.91429400000007 72.69579500000003 208.46661600000007 C 77.66612100000003 191.95803900000007 96.91182700000003 175.75375300000007 120.60730100000004 168.13164700000007 C 131.70277200000004 170.91033900000008 140.68453700000003 171.18731700000006 147.10402800000003 169.01275400000006 C 154.49071700000002 166.51104100000006 154.85274900000002 160.91981400000006 154.86462300000002 160.68291300000007 L 154.95828500000002 158.80195200000006 L 153.78253600000002 160.27293700000007 C 153.75685700000002 160.30470200000008 151.05876500000002 163.58272700000006 144.95692400000001 165.37670500000007 C 140.039589 166.82215900000008 133.453258 166.71558300000007 125.38035700000002 165.05875900000007 C 122.90981500000002 164.41485100000006 121.53130500000002 164.06276400000007 121.19688200000002 163.99032800000006 C 88.03931000000001 156.78829100000007 76.26965000000001 146.54691200000008 72.23505500000002 139.22404900000006 C 70.16870000000002 135.47340900000006 69.56160300000002 131.53841300000008 70.43039000000002 127.52860600000007 C 70.73512600000002 126.49134600000006 71.07860300000002 125.40747800000007 71.46943100000001 124.25681500000007 L 71.83161100000001 123.42647300000007 L 71.76481600000001 123.39619200000007 C 79.399539 101.75237900000008 95.26287100000002 87.55403600000007 118.92212600000002 81.19302800000007 C 124.89616500000002 79.58637400000006 131.294281 78.52981800000006 137.938947 78.05275000000007 C 150.46681 77.18351800000008 155.50942300000003 78.06284400000007 155.55900000000003 78.07204600000007 L 160.08817900000003 78.89496600000007 L 159.460302 78.59750300000007 L 159.62788400000002 78.64203300000007 C 159.71100700000002 78.66385300000007 167.76921400000003 80.77666800000007 175.408835 81.01164000000007 C 174.605953 84.38021000000008 176.07753200000002 91.80311700000007 176.07753200000002 91.80311700000007 C 176.07753200000002 91.80311700000007 178.65079100000003 84.61592400000008 179.38776700000003 81.53754300000007 C 182.36417300000002 69.10363900000007 189.24069400000002 59.839848000000075 195.35203500000003 57.553662000000074 C 200.17155100000002 55.75048100000007 205.20674300000002 57.50260100000008 210.31748800000003 62.76103700000007 C 221.07898200000002 73.83424300000007 212.03398300000003 95.08054800000008 204.05340800000002 113.82573400000007 C 201.29935600000002 120.29391100000007 198.698043 126.40376800000007 197.11142800000002 131.69723500000006 C 189.82463500000003 154.89575000000008 196.96477500000003 175.99124600000005 215.747812 186.74353700000006 L 215.811045 186.77975500000005 C 216.744104 187.38418000000004 217.74158300000002 188.02393200000006 218.810904 188.70168400000006 C 227.783466 194.58918600000007 234.513185 202.10204400000006 238.268278 210.42624500000005 L 238.385244 211.02710700000006 L 238.52596 211.00632600000006 L 239.217961 212.58774600000007 L 239.46169 210.86561000000006 C 240.345172 210.75398700000005 241.406181 210.75161200000005 242.188133 210.92528100000007 C 241.187685 213.33199600000006 241.44121099999998 216.10564100000008 241.50830299999998 216.67800400000007 L 241.594395 217.40533300000007 L 244.29352599999999 219.98156000000006 L 243.246173 226.37106700000007 L 247.73186 226.37106700000007 C 245.987459 231.40121200000007 241.89156 235.63218600000008 240.72100700000001 236.77097400000008 L 240.456794 236.61986800000008 L 240.225236 237.3382900000001 C 238.236215 243.70167300000008 234.562464 248.9693120000001 229.601489 252.57240900000008 L 229.484523 252.6641410000001 C 225.553386 256.07902300000006 221.122917 259.9291140000001 218.658906 265.0441630000001 C 217.47054 267.5114400000001 216.895802 269.9938560000001 216.950723 272.4222430000001 L 217.01603400000002 275.3015730000001 L 219.705665 274.2732200000001 C 226.78242300000002 271.5696360000001 231.90637900000002 271.7765530000001 234.132598 274.8577550000001 C 235.948544 277.36985900000013 235.532334 281.7356110000001 233.204883 284.59000500000013 C 231.845521 286.2578140000001 229.463149 287.90276400000016 225.830662 286.2702820000001 L 225.742789 286.23317300000014 C 220.732534 284.30530700000014 216.621792 280.44660700000014 213.50763899999998 274.75771000000015 C 209.337226 267.30867800000016 213.98322299999998 255.82905900000014 216.17411399999997 251.23917100000014 C 222.94034699999997 238.29569200000014 217.53406999999999 225.56417700000014 209.64329699999996 219.22068500000015 C 206.64106299999997 216.80684500000015 200.14512899999997 213.93553000000014 196.40725399999997 212.62812000000014 C 196.35292699999997 210.54736700000015 196.85166699999996 208.15757300000013 196.85700999999997 208.13204200000013 L 197.16130099999998 206.6922280000001 L 195.92959199999999 207.4973360000001 C 195.776853 207.5970840000001 192.18384999999998 210.03853300000011 191.79317099999997 218.3407650000001 C 191.62825999999998 221.84470700000008 191.50906799999998 227.2447510000001 192.37503399999997 233.65800700000008 L 192.45637599999998 234.26065100000008 L 192.511148 234.2532290000001 C 192.857297 236.43699600000008 193.344607 238.74901000000008 193.962243 241.13553800000008 C 197.840685 256.1250370000001 207.061578 275.92707600000006 220.62774 298.4006370000001 C 228.96381599999998 311.07188800000006 235.481273 325.13307800000007 238.992637 338.01332400000007 C 242.132321 349.5315360000001 242.28906800000001 358.60325300000005 239.401128 361.6874220000001 C 238.945138 362.17547400000007 238.407805 362.82621100000006 237.785271 363.5796640000001 C 234.31457799999998 367.7773890000001 226.186311 377.6084960000001 211.577397 382.13337000000007 C 210.590011 382.43914500000005 209.224415 382.82893400000006 207.77257799999998 383.24262000000004 C 207.43533499999998 383.23059700000005 207.09883399999998 383.29412700000006 206.789349 383.45028 C 206.713944 383.48827900000003 206.64729699999998 383.537708 206.578127 383.58387100000004 C 199.569797 385.59322700000007 199.585976 385.74611500000003 199.685724 386.44004600000005 C 199.713778 386.63508900000005 199.825995 386.80371 200.001444 386.91503600000004 C 200.52126099999998 387.244857 203.363928 387.25079500000004 206.350874 387.02072100000004 C 210.228129 393.985114 217.66914500000001 399.00338400000004 225.588417 399.89859200000006 C 226.460914 399.9974490000001 227.365474 400.05533900000006 228.163457 400.10640000000006 C 230.727216 400.27116200000006 233.148181 400.4270180000001 234.874473 401.68128900000005 C 236.289053 402.70904900000005 236.794323 404.25484500000005 236.969179 405.37077400000004 C 237.295141 407.452715 236.737621 409.78580700000003 235.513334 411.45895900000005 C 232.906232 415.02168100000006 228.18008099999997 416.46802600000007 224.67465399999998 417.05374800000004 C 221.27788099999998 417.62106400000005 218.18450899999996 417.607408 215.47943999999998 417.01367100000004 C 209.649531 415.73268200000007 204.168591 411.38236700000004 200.441848 405.07776400000006 C 197.00544299999999 399.26403400000004 194.684375 390.29206600000003 193.314771 383.59262800000005 L 193.484877 383.534887 L 193.166188 382.935806 C 193.067034 382.573032 192.879413 382.25493700000004 192.622324 382.008388 C 192.122545 381.20803 191.278696 379.96682100000004 190.12981399999998 378.66742700000003 C 180.341456 365.08686700000004 174.01859599999997 357.12336200000004 170.83779599999997 354.36960700000003 C 169.55413499999997 353.25813000000005 168.18824199999997 352.148138 166.77588899999998 351.06842600000004 C 157.56122999999997 325.86486 167.93085699999997 291.56137400000006 176.26693299999997 263.98731000000004 Z M 196.346246 232.64777 L 196.327395 232.53555400000002 C 195.503881 226.051049 195.671018 220.503462 195.999503 216.77063400000003 C 199.266247 218.03945100000004 205.067805 220.63972500000003 207.112786 222.39600100000004 C 213.831224 228.16475500000004 218.115634 238.75940900000003 212.542219 249.42382600000005 L 212.532422 249.44341900000003 C 210.452262 253.79878100000005 208.090226 259.99829200000005 207.785045 266.16039700000005 C 201.582269 252.94854800000005 197.637624 241.40183700000006 196.346245 232.64777000000004 Z M 99.33457200000001 227.356381 C 99.30206500000001 229.590319 99.624761 231.330563 99.944934 233.005497 L 98.60650100000001 231.799616 C 98.49057400000001 228.99153399999997 98.803177 226.40194799999998 99.38132900000001 224.150792 L 99.33457200000001 227.356381 Z M 99.434617 223.946546 C 100.48939200000001 219.986019 102.365009 217.10817300000002 104.146964 215.99729000000002 C 105.12410799999999 215.387818 105.960832 215.33319500000002 106.77736999999999 215.82748100000003 L 104.30029699999999 225.64196300000003 C 104.26214899999998 225.79306900000003 104.18169799999998 226.11220300000002 104.112676 226.27637200000004 C 103.88096999999999 226.27637200000004 103.26318599999999 226.13179700000003 102.371392 225.62237000000005 L 99.434617 223.94654600000004 Z M 117.81124 323.518119 C 115.080344 317.557884 111.28458 307.666216 108.709243 294.388463 C 108.618253 293.862708 108.522067 293.338438 108.420835 292.835839 L 108.34379799999999 292.420223 C 108.29392399999999 292.153635 108.24404999999999 291.88675 108.196551 291.614521 L 108.049749 290.77497600000004 L 107.971969 290.81772500000005 C 107.056277 287.0415540000001 105.923426 284.24623700000006 104.728677 281.29803400000003 C 103.834805 279.092299 102.913027 276.817987 102.06947500000001 274.031874 C 102.591964 273.995359 103.17263900000002 273.835644 103.71338600000001 273.39182500000004 C 104.46001100000001 272.779978 104.84579200000002 271.859388 104.89240000000001 270.57780600000007 C 104.96275800000001 266.84141500000004 104.599984 264.21650200000005 104.017379 261.4870900000001 L 107.32167700000001 265.12403000000006 L 103.436852 247.72425300000006 C 102.899371 245.31724100000005 102.346898 242.84254300000006 102.06279500000001 240.38031300000006 L 104.523392 242.59762600000005 L 104.588555 238.12292300000004 C 104.621656 235.83822100000003 104.283225 234.06947700000003 103.956076 232.35891900000004 C 103.82233699999999 231.66038700000004 103.694238 230.99094800000003 103.594045 230.30191500000004 C 105.40924899999999 230.48894200000004 106.50454699999999 229.68561500000004 107.027778 229.13789200000005 C 107.81448 228.31348700000004 108.069194 227.30472700000004 108.237815 226.63736600000004 L 109.578771 221.32311800000005 L 109.61202 221.41455400000004 L 110.14653200000001 219.68885600000004 C 112.49773300000001 212.09762400000005 115.77605500000001 206.01418900000004 119.89021100000001 201.60746900000004 C 128.228958 192.67439000000005 139.009749 191.64128700000003 146.393469 191.64128700000003 L 146.45462400000002 191.64128700000003 C 160.23275 191.65197400000002 177.436741 196.38673500000004 181.149086 218.88107700000003 C 182.742084 228.53465600000004 177.940973 244.41654300000005 172.38166 262.80608 C 164.459123 289.01187600000003 154.64033600000002 321.491993 161.34482100000002 347.24922000000004 C 146.50242100000003 337.69806000000005 133.338071 336.10595300000006 126.44270000000003 337.707263 C 126.31103900000004 337.73784 126.17804100000004 337.773168 126.03851300000004 337.81473 C 124.55624700000004 335.83699 121.27065200000004 331.06809 117.81124000000004 323.518123 Z M 117.254166 358.655509 C 117.025132 360.779902 116.76566799999999 363.18780499999997 116.40393399999999 365.301214 C 116.275241 366.052292 116.13200199999999 366.619015 115.96605299999999 367.275095 C 115.84953199999998 367.735835 115.72276899999999 368.239028 115.58368599999999 368.86928 C 115.57596699999999 368.89970900000003 115.56245999999999 368.927021 115.55622599999998 368.95804400000003 C 114.22387899999998 375.596921 112.50545399999999 382.561166 108.98429299999998 388.518729 C 105.25814399999997 394.823628 99.77705599999999 399.174537 93.94655299999998 400.455526 C 91.24103899999999 401.048373 88.14707299999998 401.061732 84.75119099999998 400.49471300000005 C 81.24517099999997 399.90839700000004 76.51857399999997 398.46175600000004 73.91265999999997 394.90051800000003 C 72.68837299999997 393.227662 72.13055699999997 390.895164 72.45696399999997 388.81322300000005 C 72.63137399999997 387.69699600000007 73.13649699999998 386.150904 74.55166999999997 385.123144 C 76.27736799999997 383.86917 78.69714599999998 383.71301700000004 81.25912299999997 383.54795800000005 C 82.10697999999998 383.49333400000006 82.97754799999997 383.4369290000001 83.83772499999998 383.33985300000006 C 90.60128699999999 382.5754160000001 96.98099699999997 378.89691500000004 101.15808899999998 373.41345100000007 C 103.94954599999997 373.8770120000001 107.82457499999998 373.95108000000005 108.61261299999998 373.44581000000005 C 108.86970099999998 373.28104800000006 108.93471599999998 373.05542800000006 108.95059799999999 372.93578900000006 C 108.99468299999998 372.60478000000006 109.11150099999999 371.72545500000007 100.79961999999999 369.18782100000004 C 93.73889299999999 367.03314700000004 86.52483299999999 363.34010000000006 82.420919 359.77945500000004 C 73.696539 352.21019100000007 66.670991 339.967323 66.670991 334.87691300000006 C 66.670991 324.00825000000003 75.944133 311.2722820000001 84.911945 298.95578900000004 C 89.990183 291.98026300000004 95.23214300000001 284.779711 98.756718 277.94044700000006 C 98.82173200000001 277.81427800000006 98.88615300000001 277.6889990000001 98.950128 277.56461100000007 C 99.63159 279.5337420000001 100.332498 281.2632990000001 100.96482800000001 282.8233450000001 C 102.21731700000001 285.9143430000001 103.40034000000001 288.83375100000006 104.29168800000001 292.9397430000001 C 109.07884600000001 319.9797400000001 119.095347 335.3106380000001 122.554314 339.9557440000001 C 118.849985 343.8393820000001 118.00346400000001 351.6963110000001 117.25416700000001 358.6555090000001 Z &#10;" stroke-width="0px" fill="#0c0c0c" /><path d="M 129.484331 91.681051 L 129.484722 91.680443 L 129.484765 91.680443 C 130.32117200000002 90.411723 131.849115 89.68124499999999 133.44556400000002 89.943507 C 135.61081900000002 90.299238 137.07776500000003 92.342848 136.722078 94.508146 C 136.59483300000002 95.28281899999999 136.248869 95.965542 135.76120400000002 96.50994899999999 L 135.76255000000003 96.51099099999999 C 130.21576400000004 105.420206 132.98351300000004 117.266527 132.98351300000004 117.266527 L 125.14236000000004 115.978445 C 123.09228200000004 102.64663999999999 128.63160000000005 93.06585899999999 129.39615800000004 91.821885 C 129.42476800000003 91.77426 129.45389800000004 91.72728699999999 129.48433100000005 91.681051 Z &#10;" stroke-width="0px" /><path d="M 83.789039 83.875628 C 83.817822 83.82769900000001 83.84717 83.78037800000001 83.87782 83.733839 L 83.87795 83.733622 L 83.87795 83.733622 C 84.7144 82.464902 86.242343 81.73442399999999 87.838793 81.996686 C 90.004048 82.352374 91.47099399999999 84.396027 91.115307 86.56128199999999 C 90.988062 87.33595499999998 90.642098 88.01872099999999 90.154433 88.56312799999999 L 90.155779 88.56416999999999 C 84.60895 97.473385 87.376742 109.319706 87.376742 109.319706 L 79.53558899999999 108.031624 C 77.485728 94.70159899999999 83.02339699999999 85.12164299999999 83.78903899999999 83.87562899999999 Z &#10;" stroke-width="0px" /><circle cx="132.897797" cy="94.020665" r="2.717458" stroke-width="0px" fill="#fff" /><circle cx="87.172603" cy="86.230636" r="2.717458" stroke-width="0px" fill="#fff" /><path d="M 117.301975 211.920629 C 123.6947 197.88607399999998 141.922394 189.792228 156.699001 195.46005499999998 C 172.180599 201.20557399999998 180.60340200000002 219.334626 177.370811 235.13717499999998 C 177.370846 235.13719099999997 176.556565 239.20915899999997 176.556565 239.20915899999997 C 174.60713900000002 238.31827899999996 170.59381100000002 236.48844599999998 168.63088100000002 235.59168299999996 C 168.630895 235.59169199999997 172.820231 233.73503699999995 172.820231 233.73503699999995 C 170.79189200000002 238.98551599999996 169.07293900000002 244.66521099999994 167.55608800000002 250.10313499999995 C 165.72321200000002 248.35277599999995 163.537031 245.51346499999994 160.87778200000002 245.01487299999997 C 160.87781400000003 245.01479799999996 163.66097200000002 242.84960499999997 163.66097200000002 242.84960499999997 C 163.230058 246.24057199999996 163.05484700000002 249.67538799999997 163.119615 253.12578699999997 L 163.17427500000002 256.035532 C 160.68358400000002 254.658886 157.98670400000003 253.345441 155.06737100000004 253.101623 C 155.06740400000004 253.101545 156.20477700000004 251.893789 156.20477700000004 251.893789 C 156.16101900000004 254.921199 156.08276900000004 259.289399 155.91913400000004 262.28116 C 155.55632100000005 260.584875 155.21579800000004 258.884515 154.89853900000006 257.181192 C 154.72476700000004 256.293965 153.91737300000005 251.699146 153.77089900000004 250.942306 C 156.55447900000004 250.701192 159.36925300000004 250.849591 162.09605300000004 251.754282 C 162.09605500000004 251.754238 159.81868800000004 253.45383999999999 159.81868800000004 253.45383999999999 C 159.01228800000004 249.06040599999997 158.87385300000003 244.46516799999998 158.97525600000003 239.98398999999998 C 158.97520500000002 239.98398999999998 161.73477600000004 240.37376899999998 161.73477600000004 240.37376899999998 C 163.97882300000003 240.69068399999998 166.16034800000003 241.608996 167.98546100000004 243.06749599999998 L 163.67931700000005 244.447749 C 164.68876700000004 239.09669699999998 166.22309200000007 233.744847 167.87544400000004 228.550793 C 167.87539300000003 228.55078 171.09320800000003 229.837906 171.09320800000003 229.837906 L 175.45625800000002 231.583089 L 170.991002 233.988588 C 171.99359700000002 227.47125 170.857348 220.639711 167.966743 214.709029 C 157.84095200000002 193.476272 131.190729 194.9038 117.301978 211.920631 L 117.301978 211.920631 Z &#10;" stroke-width="0px" fill="#eeddcf" /><path d="M 87.212233 122.435826 C 84.387675 121.104815 80.71333 119.67687600000001 76.288204 118.674795 C 72.26028799999999 117.76266600000001 68.657489 117.440415 65.72813599999999 117.37510300000001 C 64.95865199999999 117.37911100000001 63.79329399999999 117.49815500000001 62.881015999999995 118.27624800000001 C 60.597204 120.22415300000002 61.56974699999999 124.84966500000002 62.015494999999994 127.309965 C 62.58874899999999 130.473993 66.45143999999999 135.571581 69.786778 137.075761 C 73.321003 138.669636 81.058144 133.54703 81.058144 133.54703 C 81.058144 133.54703 87.743926 129.169997 89.449734 125.559627 C 90.039315 124.312036 88.783709 122.806021 87.21223400000001 122.43582500000001 Z &#10;" stroke-width="0px" /><path d="M 84.303069 126.69978 C 84.473175 126.69978 84.642242 126.628828 84.762473 126.49019100000001 C 85.360367 125.801455 85.156418 124.76864900000001 84.61389 124.16838000000001 C 84.122721 123.62481300000002 83.431907 123.37989600000002 82.927378 123.20088500000001 C 78.049824 121.46865600000001 72.994742 120.11879300000001 67.902849 119.18870300000002 C 75.90261600000001 122.02167400000002 77.704121 122.63624000000002 82.520668 124.34679800000002 C 83.016439 124.52254400000002 83.447938 124.69176000000002 83.711706 124.98358200000003 C 83.907936 125.20089000000003 83.972357 125.54555500000002 83.84425800000001 125.69339500000002 C 83.62413000000001 125.94692100000002 83.65129300000001 126.33077200000002 83.90481900000002 126.55104900000002 C 84.01985600000002 126.65079700000003 84.16190700000001 126.69978000000002 84.30306800000002 126.69978000000002 Z &#10;" stroke-width="0px" fill="#fff" /></g></g></svg>