<?xml version='1.0' encoding='utf-8'?>
<svg viewBox="0 0 216 216" width="216px" height="216px" version="1.1" xmlns="http://www.w3.org/2000/svg" xmlns:xlink="http://www.w3.org/1999/xlink"><g isolation="isolate"><g id="Layer_1"><path d="M 192.1417225 189.5830835 C 192.479415 188.26862749999998 192.71864549999998 186.3100475 191.94011749999999 184.4439395 C 190.70315899999997 181.4786455 187.06678449999998 179.701079 183.48207549999998 180.3088885 C 179.8058295 180.6548175 176.24152449999997 185.93491649999999 174.87896049999998 188.18907149999998 L 174.68577949999997 188.508794 L 174.53883449999998 188.1652985 C 173.73147949999998 186.278974 173.21352149999998 183.4123295 172.61376149999998 180.09305750000001 C 171.50428 173.9516925 169.98466249999998 165.54100950000003 165.39361399999999 157.11778500000003 L 165.35729899999998 157.05133200000003 L 165.37639249999998 156.97795300000004 C 169.36711949999997 141.58485550000003 166.57984399999998 133.24249750000004 165.08250249999998 128.76058150000006 C 164.79741049999998 127.90811350000006 164.57240699999997 127.23460000000006 164.46252549999997 126.70709550000005 L 164.33916649999998 126.10134500000005 L 164.47001299999997 124.89583450000005 L 164.13175849999996 125.03491750000005 L 164.08832999999996 124.80354950000005 C 163.90282349999995 123.81817550000005 163.71900199999996 122.80603350000004 163.53817549999997 121.77947750000004 L 163.52694399999996 121.71508400000005 L 163.55726899999996 121.65724200000005 C 164.15272399999995 120.51893300000005 164.74237599999995 119.08561100000006 165.02129049999996 116.32791200000005 L 165.13304349999996 115.22254850000006 L 164.06006399999995 115.51026100000006 C 163.53667749999997 115.65046700000006 162.99775449999996 115.68584600000005 162.45752099999996 115.61415200000006 L 162.22802449999995 115.58401400000007 L 162.30046749999994 115.36406450000007 C 162.39649649999993 115.07335650000007 162.55205249999995 114.78115150000006 162.76170649999995 114.40021750000007 C 163.18812799999995 113.62374900000006 163.71843999999996 112.65840450000007 163.71843999999996 111.18595950000007 L 163.71600649999996 110.23764950000006 L 162.78772599999996 110.43682100000007 C 162.59884999999997 110.47744150000007 161.98448899999997 110.56485950000007 161.41935899999996 110.48811150000006 L 161.26455199999995 110.46677150000006 L 161.25406949999996 110.31084150000007 C 160.94351949999995 105.64136000000006 160.85484499999995 103.08411650000006 161.14480399999997 102.70767500000007 L 161.39020699999998 102.15261400000007 C 161.48249199999998 102.03936350000006 161.67679499999997 101.59691850000007 161.77806549999997 101.46794400000007 C 162.77616849999995 100.19523200000008 164.39797099999996 98.69600050000007 167.26910799999996 98.62224750000007 C 168.75821299999996 98.59229700000007 170.44508099999996 99.37120700000007 171.42296749999997 100.32138900000007 C 173.86543699999996 102.69328750000007 175.96924399999997 106.87019200000007 175.53136299999997 117.79604150000007 L 174.70955199999997 118.17006000000008 L 174.53265649999997 118.18559700000007 C 171.95447349999998 118.41247250000008 170.02865199999997 119.23742350000008 168.80872749999997 120.63761300000007 C 167.33628249999998 122.32738700000007 168.03052749999998 123.78066000000007 168.14396549999998 124.85944200000007 C 168.29970849999998 126.33787700000008 169.00612999999998 127.03031100000007 170.7307215 127.56736200000007 C 171.06916299999997 127.67275050000008 171.4972455 128.03202700000008 172.18068 128.03202700000008 C 173.602958 128.03184000000007 175.1445745 127.51860500000008 177.392927 124.89549600000008 C 178.730033 123.33188900000007 178.774272 122.95768200000008 179.21754049999998 121.32930650000009 C 179.28960899999998 121.06499250000009 179.463982 120.45047150000009 179.54129199999997 120.17829550000009 C 179.97276749999997 118.6564320000001 181.21104849999998 116.9273530000001 182.03094549999997 115.1509095000001 C 182.78513849999996 113.5171055000001 183.51923399999998 112.1539915000001 183.97934949999998 110.69483700000009 C 184.86270399999998 107.8944585000001 183.98629849999998 108.19693850000009 184.66074799999998 106.80498550000009 C 184.8806975 106.35142150000009 184.473427 106.60144150000009 184.80681449999997 105.88225350000009 L 185.06179649999999 105.05847950000009 L 185.13395949999997 104.11251550000009 C 184.82602999999997 103.77931550000008 185.7834275 103.47852550000009 185.00500399999999 102.98783450000009 L 184.845307 102.21567050000009 L 184.845307 101.24146850000008 C 185.61615999999998 100.05692350000008 184.602039 99.15406550000009 185.491571 98.39575450000008 L 186.649385 96.44262100000007 L 185.74795 96.25961600000008 C 185.467538 96.20158700000007 185.3682815 96.02249450000008 185.0420075 96.08857250000008 L 184.439286 95.93793100000008 L 183.744112 95.98262550000008 C 183.875333 95.60019400000009 183.5396805 95.91384100000008 183.654616 95.54058200000009 C 183.9745255 94.50223300000009 184.002944 93.92967550000009 184.556655 93.01487300000008 L 185.8916725 90.99430550000008 L 184.732324 91.62130900000008 C 183.992545 91.79595850000008 183.481513 92.00898150000008 183.070816 92.18007450000009 C 182.8901765 92.2555125000001 182.741734 92.31728550000008 182.6069565 92.36314750000008 L 182.21160899999998 92.49811250000008 L 181.5618855 91.60769250000007 C 182.60435249999998 89.01266250000008 183.2297415 85.83822800000007 183.205781 85.42753100000007 L 183.10788 83.96014000000007 L 181.94804399999998 84.88430250000006 C 181.89806399999998 84.92436150000006 180.682258 85.86930200000006 177.95600699999997 85.55145150000006 C 176.98748049999998 85.43820100000005 175.68350699999996 84.88355350000006 174.17362399999996 84.24130100000005 C 171.78281949999996 83.22447900000004 168.80760449999997 81.95888000000005 165.40241099999997 81.66798500000004 L 164.48311549999997 81.56839950000004 L 165.24928849999998 81.28667700000004 C 172.44060849999997 78.64148000000004 177.50543749999997 75.21794200000004 179.896055 71.38651500000005 C 181.3681255 69.02715850000004 181.8076505 66.56952700000005 181.2022745 64.08175700000004 C 178.50335349999997 53.82630600000004 172.48572149999998 46.376849500000034 163.31710199999998 41.94397750000004 C 160.533945 40.598261000000036 157.435558 39.53145900000004 154.10786199999998 38.77296050000004 L 153.9654095 38.74057650000004 L 153.959045 38.59456750000004 C 153.6707705 32.08443600000004 152.2597245 27.61712050000004 149.765216 25.31654200000004 C 148.49437550000002 24.144538500000042 146.95529050000002 23.57061050000004 145.3211125 23.658777500000042 C 139.2140035 23.97718950000004 135.283552 28.673252500000043 133.304568 38.01539800000004 L 133.2774255 38.14324950000004 L 132.9805405 38.19210650000004 C 132.05712699999998 38.339987500000035 129.6039875 38.73290150000004 126.42155199999999 40.21489350000004 L 126.21377 40.31167150000004 L 126.1553665 40.09003750000004 C 126.011791 39.545873000000036 125.8408855 38.97718650000004 125.6173795 38.30049050000004 C 123.8441185 32.716580500000035 121.20790649999999 29.01206900000004 117.9930865 27.58548550000004 C 115.524972 26.48985600000004 112.7423765 26.77457350000004 109.946116 28.40856450000004 C 102.402315 32.81523000000004 104.3607085 44.38345200000004 108.3300955 52.95081350000004 C 111.0816175 58.88907650000004 119.4544875 76.96050400000004 113.480471 83.86598300000004 C 110.02174149999999 87.61542050000004 108.2020565 88.65807500000004 106.09484649999999 89.86545750000005 C 103.85061249999998 91.15146050000004 101.30705999999999 92.60893000000004 96.40096899999999 97.65504000000004 L 96.31692 97.74133500000005 L 96.2027335 97.70314800000006 C 95.14734999999999 97.34991850000006 93.856293 97.57754300000006 93.132987 98.24431750000005 L 92.625325 98.71248250000005 L 93.0380815 99.26600650000005 C 93.311755 99.63365000000005 93.10996300000001 100.73751550000004 92.9076095 101.38968950000005 L 92.88552100000001 101.46119650000004 L 91.00069400000001 102.55570300000004 L 90.76633100000001 104.54385950000004 L 88.6166285 103.97386250000004 L 88.420078 104.71495200000004 C 87.7377665 107.28677050000005 88.0043265 108.94004200000003 88.9052775 111.90177950000003 C 89.5516485 118.48678750000003 90.8252965 124.23654900000002 92.69795599999999 129.02845350000004 L 93.03864399999999 129.90057700000003 L 92.382539 129.23267900000002 C 89.567934 126.36715800000002 87.350281 122.81108900000002 85.7913535 118.66330850000001 C 83.3071405 112.05396550000002 82.6879125 104.45625400000002 83.9507035 96.08132450000002 C 84.649862 90.66738400000003 87.53822050000001 84.93222350000002 90.88276400000001 78.29143250000003 C 96.26769000000002 67.59907750000002 102.9685695 54.29409650000002 102.9685695 36.502520000000025 C 102.9685695 26.507077500000026 100.4207115 18.932577500000026 95.395754 13.989422500000025 C 90.272521 8.949115500000024 82.65833649999999 6.5817095000000245 72.094582 6.764782500000025 C 64.202606 7.202435500000025 56.7325585 9.529782000000026 50.4996565 13.495238000000025 C 44.685314 17.194134000000027 40.1960975 22.106028000000023 37.5170185 27.699859000000025 C 33.585257 35.90874950000003 34.1256775 44.51523450000002 38.999759 51.312704500000024 L 39.6702775 52.24772400000003 L 40.275092 51.26908900000003 C 45.283951 43.16465100000003 49.8925955 43.14406000000003 51.187022 43.332561500000025 C 52.5284335 43.525555500000024 53.3026555 44.24493100000002 53.4746845 44.872395500000025 C 54.168789000000004 47.430736000000024 52.708886 48.70719200000003 48.384959 52.02215900000002 C 44.1821445 55.24409200000002 37.8311255 60.113119500000025 31.114148000000004 69.87962700000003 C 23.687903000000006 80.89133000000002 11.899731500000005 103.56559900000002 16.398495000000004 131.68600550000002 C 18.500463500000002 146.42636750000003 26.427632000000003 159.45486750000003 38.72028350000001 168.37508400000002 C 49.07045300000001 175.8853775 62.190302 180.021552 75.66300600000001 180.021552 C 79.5605115 180.021552 83.49152450000001 179.67843050000002 87.34709950000001 179.00173500000002 C 93.43174600000002 177.84826350000003 99.375437 175.69238400000003 105.01045050000002 172.594184 L 105.48254650000001 172.33455 L 105.28038000000001 172.833976 C 104.45879850000001 174.863876 104.042298 177.166888 104.04248550000001 179.6788055 C 104.39496650000001 189.9177835 108.3665995 195.485408 111.63645350000002 198.351865 C 113.02335250000002 199.514509 115.85424300000001 201.4697195 119.19354500000001 201.4697195 C 119.63438000000002 201.4697195 120.07615100000001 201.4354635 120.50706500000001 201.36770049999998 C 122.34004000000002 201.0805495 124.0987005 199.9935305 125.21155150000001 198.45987399999999 C 126.14282700000001 197.1763045 126.53424350000002 195.68757399999998 126.31392000000001 194.268104 C 126.04211850000002 191.536799 123.95418900000001 189.59918399999998 121.93477150000001 187.725401 C 120.59747850000001 186.48432400000002 119.33431300000001 185.3119465 118.73324250000002 184.0102195 L 118.55541100000002 183.62498 L 118.96199000000001 183.74627999999998 C 123.04125800000001 184.96171149999998 128.14970300000002 184.9085495 133.95730650000002 183.5821135 L 134.02694150000002 183.5662025 L 134.08983750000002 183.5997095 C 148.48108850000003 191.2464655 170.63103500000003 200.061481 175.66947050000002 200.14702699999998 C 179.24014050000002 200.2091745 182.85236700000002 199.27041099999997 185.816912 197.522608 C 189.1208345 195.5745105 191.3079755 192.8289785 192.1417245 189.58308499999998 Z M 117.30441049999999 116.25733949999999 L 117.29692299999999 116.30114199999998 C 116.98992949999999 118.34058899999998 116.2140225 120.99065299999998 115.3158795 124.05890199999999 C 114.52181499999999 126.77092649999999 113.5347565 130.1427995 112.69894799999999 133.823725 L 112.67255399999999 133.9397835 L 112.5566825 133.967675 C 112.5398355 133.971606 110.87739149999999 134.37107200000003 110.35812299999999 134.566312 L 110.23888249999999 134.6110505 L 110.15146449999999 134.518391 C 107.26909599999999 131.466989 103.73118449999998 132.0010455 101.87874149999999 132.591633 L 101.72131399999999 132.641613 L 101.6484965 132.493545 C 98.6028975 126.30145100000001 102.11329199999999 116.11975350000002 105.099177 113.1761735 C 107.2354015 111.07046100000001 110.45995549999999 109.5759275 113.946015 109.07594 C 115.4356815 108.807321 116.833999 108.8198625 118.095854 109.11525 L 118.2362475 109.1480085 L 118.243735 109.2921455 C 118.287725 110.153599 118.160622 112.061263 117.30441 116.2573385 Z &#10;" stroke-width="0px" fill="#c56439" /><path d="M 115.625681 164.7973055 C 111.0060055 168.96876849999998 100.971148 176.5775375 86.8401425 179.285054 C 52.7541365 185.3298275 21.483820499999993 164.2509495 16.966325999999995 132.23276950000002 C 12.895959499999995 106.51897500000001 22.151117499999994 84.50050150000001 31.523504499999994 70.45439850000002 C 44.40982799999999 51.51752950000002 55.70756949999999 51.21858400000002 53.933244499999994 44.60857050000003 C 53.15984699999999 41.75943950000003 46.063227499999996 39.85869450000003 39.37653949999999 50.85320650000003 C 36.80046299999999 39.17535850000003 51.404529999999994 25.57697100000003 63.26557449999999 33.20632750000003 C 68.609111 36.95220450000003 73.95445249999999 45.64865900000003 63.28390949999999 64.16848450000003 C 50.85431349999999 85.74132800000004 37.65633249999999 140.03804850000003 81.9130685 149.59800400000003 C 99.35651999999999 152.74580900000004 110.656735 145.60791500000002 110.656735 145.60791500000002 C 110.656735 145.60791500000002 109.59856599999999 156.14371900000003 115.625681 164.79730500000002 Z &#10;" fill="#754123" mix-blend-mode="multiply" stroke-width="0px" opacity=".25" /><path d="M 85.909671 121.731547 C 67.075097 88.14386150000001 97.109863 66.29381900000001 90.057888 37.33201600000001 C 83.005913 8.37021300000001 56.36887350000001 15.194690000000008 39.710395500000004 26.65625900000001 C 39.710395500000004 26.65625900000001 46.292118 7.718064500000008 76.9253625 7.718064500000008 C 107.55860700000001 7.718064500000008 103.3370645 43.50678450000001 99.5485005 54.67612100000001 C 92.2600255 82.370812 75.229529 90.5974075 85.909671 121.731547 Z &#10;" stroke-width="0px" opacity=".66" fill="#d8b58e" /><path d="M 122.054687 49.310318 C 122.046981 48.430983000000005 122.039275 47.551648 122.0315685 46.672313 C 122.0057415 43.7252215 121.96634300000001 40.703494000000006 120.90581150000001 37.953714500000004 C 119.84528000000002 35.203935 117.5289625 32.740210000000005 114.60463800000001 32.3736815 C 111.74051800000001 32.014699500000006 108.76028350000001 33.963806000000005 107.941157 36.7316725 C 107.941157 36.7316725 118.46991600000001 31.34615 122.054687 49.3103185 Z &#10;" opacity=".35" fill="#754123" mix-blend-mode="multiply" stroke-width="0px" /><path d="M 107.941187 36.731687 C 108.5611475 33.178027 112.0699405 30.7582965 115.6269255 31.679613 C 118.5160755 32.3567425 120.6458525 34.865108 121.4186345 37.643372 C 122.2655875 40.2307265 122.5268155 43.063289 122.0546305 45.7147075 C 121.778408 43.606216 121.4038245 41.548636 120.700107 39.5572025 C 120.02111500000001 37.6558645 119.2869755 35.7758125 117.727227 34.461125 C 114.298511 31.495855500000005 109.921445 32.7941025 107.941187 36.7316875 L 107.941187 36.7316875 Z &#10;" stroke-width="0px" /><path d="M 143.4613475 31.8559605 C 144.60053699999997 31.4197265 145.826516 31.2311925 146.94622349999997 30.747139999999998 C 148.35615399999998 30.137623499999997 149.55764149999996 29.057139499999998 150.31284599999998 27.719574499999997 C 151.580741 31.078022999999998 152.33758699999998 34.628876 152.549345 38.212435 C 152.56267449999999 38.4380115 152.55597 38.7035725 152.37295749999998 38.8361205 C 152.26396699999998 38.915057 152.12019149999998 38.9227385 151.9856255 38.921367 C 151.123013 38.912577 150.285603 38.654774999999994 149.4482145 38.447492 C 146.476711 37.71194199999999 143.3960845 37.6020155 140.348745 37.6733215 C 139.575288 37.69142 138.80206850000002 38.332711 138.0292225 38.368109 C 137.161299 38.407861499999996 135.9622225 39.030052999999995 136.6176125 38.172976 C 137.39858 37.151675999999995 138.496151 35.4318655 139.4341325 34.551736 C 140.470953 33.578863999999996 142.1266465 32.367062 143.46134750000002 31.8559605 Z &#10;" opacity=".35" fill="#754123" mix-blend-mode="multiply" stroke-width="0px" /><g opacity=".66"><path d="M 148.9421085 27.011945 C 146.0185735 25.714987 143.3484775 27.292208000000002 140.93094649999998 28.974674 C 139.72465549999998 29.8113805 138.67093149999997 30.726463 137.68304899999998 31.83794 C 136.635506 33.009024 135.79109999999997 34.273816 134.9344205 35.658576 C 134.37763299999997 32.16522749999999 136.43322899999998 28.586548499999996 139.2984785 26.639528999999996 C 140.76855949999998 25.635588499999997 142.43086549999998 24.823325499999996 144.2675385 24.703225499999995 C 146.056287 24.566781499999994 148.1827695 25.322571999999994 148.942109 27.011944999999994 L 148.942109 27.011944999999994 Z &#10;" stroke-width="0px" fill="#d8b58e" /></g><g opacity=".66"><path d="M 126.9532425 40.942932 C 136.254142 37.428681 147.79121800000001 37.67651 157.1364585 40.9427885 C 152.055961 41.441079 147.07863600000002 41.27513 142.030412 41.271406999999996 C 137.54150850000002 41.188475499999996 131.41553800000003 41.297281999999996 126.95324250000002 40.94293149999999 L 126.95324250000002 40.94293149999999 Z &#10;" stroke-width="0px" fill="#d8b58e" /></g><path d="M 161.780272 121.563201 C 162.39238699999999 120.46738450000001 162.97043299999999 119.43221750000001 163.318421 117.28869250000001 L 163.355485 117.0603195 L 163.12411699999998 117.0663095 C 161.98356149999998 117.0949495 161.201103 116.7705475 161.11536949999999 116.73329650000001 L 160.68688899999998 116.5470415 L 160.65600249999997 116.08093550000001 C 160.58599299999997 115.02611350000001 161.01877899999997 114.238601 161.40083599999997 113.54356050000001 C 161.64025349999997 113.10759250000001 161.86656749999997 112.69577200000002 162.01313799999997 112.19016900000001 L 162.08314749999997 111.94831800000001 L 161.83137549999998 111.94513600000002 C 160.96861199999998 111.93427900000002 159.4478715 111.69879250000002 158.95630749999998 110.24356900000002 C 158.5976495 109.18668800000002 158.320981 107.75748400000002 157.999948 106.09972000000002 C 156.877363 100.30147600000002 155.34015 92.36045600000001 148.741664 92.36045600000001 C 145.7522225 92.36045600000001 143.335211 93.31775100000002 141.5578315 95.20557350000001 C 139.14868199999998 97.76466300000001 137.88664 102.21063850000002 138.181466 107.09183300000001 C 138.5092375 120.64334450000001 145.5468735 134.588706 152.000661 140.828721 C 152.893937 141.709455 153.8566605 142.652711 154.728971 143.504805 C 155.624119 144.31889900000002 156.506912 145.1782935 157.3576955 146.0642685 L 157.6175165 146.3364445 C 157.7880475 146.515025 157.9585785 146.693418 158.123494 146.872747 L 158.396606 147.169632 L 158.454261 146.7703535 C 159.078169 142.453914 160.326172 139.0766125 161.237231 136.6105575 C 161.69697250000002 135.3674215 162.0938175 134.2938805 162.2819445 133.452644 L 162.31938250000002 133.285295 L 162.15727500000003 133.229512 C 161.85440000000003 133.1250595 161.58709100000002 132.9487255 161.36321050000004 132.70519 L 161.20615700000005 132.53391 L 161.17040350000005 132.3042265 C 160.97591200000005 131.0564105 161.44576150000006 129.9364465 161.90232050000006 128.8481175 C 162.13069350000006 128.30283 162.36711600000007 127.7391975 162.54307550000007 127.125585 L 162.60410000000007 126.912936 L 162.38489900000008 126.88279800000001 C 161.5339285000001 126.76636500000001 160.83551850000006 126.26581600000002 160.46562900000006 125.8360255 L 160.20973900000007 125.5383915 L 160.30127550000006 125.156896 C 160.69924400000005 123.49894450000001 161.24846250000007 122.5154425 161.78027250000005 121.5632015 Z &#10;" stroke-width="0px" fill="#e7caae" /><path d="M 170.7569335 61.3097265 C 169.270584 61.547574 167.7671545 61.7902285 166.3816785 62.378668499999996 C 164.42318799999998 63.2104795 162.8001 64.69071199999999 160.862711 65.57055199999999 C 155.132322 68.1729335 147.233226 65.44164599999999 141.44724349999998 67.9179645 C 137.43455899999998 69.6353365 135.62790049999998 73.7408595 136.11173349999999 78.0787055 C 136.61505699999998 82.591293 140.60858649999997 85.4015145 145.1465715 85.248316 C 146.9824585 85.186338 148.806927 85.066113 150.600126 84.6676695 C 156.67631999999998 83.3175575 172.2649485 81.0449375 179.0606915 71.370455 C 179.47949699999998 70.77423950000001 180.2922135 67.91987900000001 180.161566 66.39328200000001 C 179.951845 63.942717000000016 179.48070149999998 60.91852200000001 178.92704 60.66784250000001 C 176.667492 59.64479450000001 173.25665850000001 60.909717000000015 170.7569325 61.30972600000001 Z &#10;" stroke-width="0px" fill="#e7caae" /><path d="M 136.0367895 76.7637125 C 138.9377905 78.762192 142.38351 79.87015099999999 145.87022 80.37272349999999 C 149.35692999999998 80.87529599999999 152.90132499999999 80.79606449999999 156.41761649999998 80.58294749999999 C 157.95249199999998 80.489921 159.4926855 80.37059849999999 160.99182799999997 80.02844449999999 C 162.32643849999997 79.72384199999999 163.61423749999997 79.245892 164.89752699999997 78.76930349999999 C 167.16448049999997 77.92740049999999 169.44018399999996 77.08156199999999 171.56646399999997 75.929688 C 174.80097099999998 74.177452 177.64331249999998 71.73258799999999 179.96445449999996 68.878702 C 179.00361899999996 72.611406 176.35067899999996 75.8732375 172.89201099999997 77.57438400000001 C 171.34655449999997 78.334517 169.67225299999996 78.78935700000001 168.06094849999997 79.3975795 C 165.70952199999996 80.285177 163.49025699999996 81.50049150000001 161.12355649999998 82.34652000000001 C 158.54460099999997 83.26842400000001 155.82995449999999 83.73823250000001 153.13106449999998 84.20396800000002 C 150.203195 84.70921650000001 147.2219615 85.21595950000001 144.275579 84.83317200000002 C 142.102014 84.55078700000001 139.78165199999998 83.74630550000002 138.0674645 82.30620400000002 C 136.6224855 81.09226650000002 136.017145 78.93580100000003 136.0367895 76.76371300000002 Z &#10;" fill="#754123" mix-blend-mode="multiply" stroke-width="0px" opacity=".25" /><path d="M 118.504048 70.9371785 C 119.972863 76.2638215 119.472645 82.4548095 115.8451115 86.6227275 C 113.0421295 89.843263 108.8575345 91.410866 105.02525750000001 93.2929405 C 102.26720200000001 94.6474525 99.616077 96.2196245 97.1046515 97.990024 C 98.5957375 95.92520950000001 100.4272905 94.1068565 102.502836 92.6307445 C 106.46257750000001 89.81460650000001 111.4822625 88.05217350000001 113.982766 83.88592 C 114.4092715 83.175291 114.74613649999999 82.415283 115.08184349999999 81.657522 C 116.1013555 79.35627 117.14393899999999 76.8576505 116.60828849999999 74.3983325 C 116.36635599999998 73.28755199999999 115.81499849999999 72.27215799999999 115.42757399999999 71.203389 C 114.9500295 69.88601 114.72375349999999 68.4937495 114.40942999999999 67.12819400000001 C 113.99376999999998 65.32238650000001 113.42086549999999 63.55724700000001 112.77560749999999 61.82146500000001 C 112.43121299999999 60.89502350000001 110.67460899999999 57.89434950000001 111.23054549999999 57.127600500000014 C 114.51016499999999 60.73316000000001 117.215104 66.26284750000002 118.504049 70.93717900000001 Z &#10;" stroke-width="0px" opacity=".66" fill="#d8b58e" /><path d="M 157.5676225 83.1261085 C 154.5853875 83.1691625 151.6516355 83.682768 148.6915825 83.9920545 C 148.6825035 83.99299049999999 148.673706 83.9930375 148.66472050000002 83.9939265 C 148.3152345 84.11766 147.96387700000002 84.2260435 147.6094305 84.3095305 C 146.3153785 84.6142775 145.0040115 84.5824085 143.701068 84.538699 C 142.66299999999998 84.50388149999999 141.612577 84.459283 140.6213065 84.04053649999999 C 139.8210645 83.70256299999998 139.0840935 83.12676299999998 138.39354550000002 82.4599885 C 138.02449850000002 82.10371699999999 136.69619050000003 78.8826265 136.459955 79.7217575 C 136.24721250000002 80.4773075 137.23174400000002 82.8640235 137.5188015 83.3930255 C 137.95973 84.2057155 138.52523449999998 84.8719285 139.15092049999998 85.3521675 C 140.5157305 86.399689 142.10582549999998 86.651461 143.66035399999998 86.7005985 C 147.93387199999998 86.7005985 149.78824799999998 86.1310235 153.8476835 85.765742 C 157.531567 85.43774400000001 162.52746399999998 83.7262615 163.14638449999998 82.3311755 C 162.05852349999998 81.724536 162.54063399999998 82.656165 161.3954925 82.3233865 C 160.1803415 82.8215955 158.88086099999998 83.1071555 157.567622 83.1261085 Z &#10;" fill="#754123" mix-blend-mode="multiply" stroke-width="0px" opacity=".25" /><path d="M 121.153746 106.929629 C 119.0896535 105.983255 116.8091545 105.56399250000001 114.53908 105.51046450000001 C 113.08909799999999 105.47627400000002 111.628295 105.58933850000001 110.2251355 105.95643550000001 C 105.54080149999999 107.18195850000001 101.92843249999999 111.20989200000001 100.29247099999999 115.76714150000001 C 98.65650899999999 120.324391 98.7724435 125.34393500000002 99.61253199999999 130.112493 C 99.19081249999999 125.6678855 99.6097825 121.047426 101.55451249999999 117.02866900000001 C 103.4992425 113.00991200000001 107.11857199999999 109.66787450000001 111.48666449999999 108.744753 C 112.56370999999999 108.517137 113.6659675 108.43598 114.76528699999999 108.378251 C 116.37833199999999 108.29354400000001 118.01972949999998 108.260851 119.58215899999999 108.670652 C 120.30491249999999 108.86022 122.390356 109.7756095 123.7902075 109.6071895 C 123.36233 108.0608825 121.787162 107.22004650000001 121.153746 106.929629 Z &#10;" fill="#754123" mix-blend-mode="multiply" stroke-width="0px" opacity=".25" /><path d="M 101.1366395 138.5347485 C 102.6673195 139.4807385 104.3420995 140.4629105 106.1338345 140.2968885 C 107.763998 140.1458375 109.14013 139.07259399999998 110.41302200000001 138.043033 C 110.951845 139.2059515 110.69150100000002 140.658847 109.88063250000002 141.651421 C 109.06976400000002 142.6439945 107.77507250000002 143.182552 106.49349700000002 143.1991085 C 105.21192150000002 143.215665 103.95225200000002 142.74355749999998 102.90467000000002 142.005125 C 102.36569600000003 141.6252065 101.87863750000002 141.177405 101.39329900000003 140.731 C 100.62661950000003 140.0258225 99.85994000000002 139.32064549999998 99.09326050000003 138.615468 C 98.82393950000002 138.3677515 97.48891700000003 136.989968 98.31950700000003 136.8436385 C 98.63434500000002 136.788172 99.37429250000002 137.4455845 99.64601850000003 137.6135165 C 100.14289100000002 137.9205935 100.63976350000003 138.22767 101.13663900000003 138.5347485 Z &#10;" fill="#754123" mix-blend-mode="multiply" stroke-width="0px" opacity=".25" /><path d="M 168.907339 193.9539705 C 171.20417700000002 194.848546 173.563792 195.6724085 176.0202625 195.876078 C 182.5339335 196.416136 189.126861 191.97477650000002 191.073515 185.7353765 C 192.192667 189.831279 190.214551 194.3951765 186.83073249999998 196.960074 C 183.446914 199.524971 178.92091299999998 200.26143299999998 174.72014149999998 199.6430105 C 172.25600649999998 199.2802495 169.87724899999998 198.4894515 167.5270225 197.6648355 C 158.41966299999999 194.4693685 149.510517 190.70909 140.867787 186.4127855 C 134.5459905 183.270218 128.30740849999998 179.799621 123.040629 175.09835750000002 C 117.7738495 170.3970935 113.497603 164.3441075 111.9494215 157.4561485 C 110.695032 151.8752915 111.273041 146.051419 112.1857435 140.40461150000002 C 113.8149995 130.3245545 116.4846135 120.44607700000002 119.149578 110.58909900000002 C 119.7302375 108.44139750000002 122.219893 108.99030600000002 123.79020700000001 109.60718950000002 C 124.3096735 110.36416500000001 123.33711050000001 116.32854800000001 122.969558 118.39498450000002 C 122.59492300000001 120.50123800000001 122.082711 122.57397850000002 121.51809100000001 124.63396500000002 C 111.94942150000001 157.4561485 148.2739525 182.8767105 168.907339 193.95397050000003 Z &#10;" fill="#754123" mix-blend-mode="multiply" stroke-width="0px" opacity=".25" /><path d="M 120.7614555 188.989875 C 120.968788 189.007799 119.6575605 186.84357250000002 119.7344325 186.65018500000002 C 119.7726295 186.55409300000002 119.748863 186.44523150000003 119.717039 186.34684500000003 C 119.4403 185.49129050000002 118.6065665 184.86888250000004 118.460518 183.98162400000004 C 118.39755899999999 183.59914250000003 118.453751 183.15483950000004 118.18498749999999 182.87551500000004 C 118.04488649999999 182.72990900000005 117.84355749999999 182.66406650000005 117.6508155 182.60340450000004 C 117.18605749999999 182.45713100000003 115.02242749999999 181.51984650000003 114.1976 181.41471950000005 C 114.11626 185.41974650000006 119.65876949999999 188.89454650000005 120.7614555 188.98987500000004 Z &#10;" fill="#754123" mix-blend-mode="multiply" stroke-width="0px" opacity=".25" /><path d="M 132.199299 181.799959 C 130.638687 180.6674995 128.87525349999999 179.8465265 127.26166599999999 178.7908625 C 122.74586799999999 175.836613 119.642427 171.232648 116.219264 167.0544495 C 116.244067 166.8579925 116.21514599999999 166.6546095 116.10601349999999 166.4457975 C 115.5207605 165.3266755 114.22586599999998 165.8566135 113.43114649999998 166.362404 C 111.93090349999999 167.317172 110.45359149999999 168.3077875 109.00080149999998 169.3331735 C 108.03199399999998 170.01698249999998 107.05700949999998 170.73303499999997 106.36262399999998 171.6944485 C 104.83720399999999 173.8064785 104.94493249999998 176.648086 105.17498999999998 179.24321 C 105.27654099999998 180.388258 105.38941749999998 181.532276 105.51361849999998 182.675078 C 105.97897549999998 186.95838450000002 106.67925749999998 191.4185865 109.22337149999998 194.8957545 C 110.87533299999998 197.153466 113.27877299999999 198.8759985 115.98218649999998 199.5954675 C 118.68559999999998 200.31493650000002 121.67270199999999 199.999894 124.10899399999998 198.62478800000002 C 125.26658349999998 197.97139750000002 126.37082399999998 196.95139350000002 126.49942399999998 195.62828000000002 C 126.58141349999998 194.78512450000002 126.22163249999997 193.91131650000003 125.56992649999998 193.37024050000002 C 124.91812699999998 192.8292115 123.99302899999998 192.63645150000002 123.17940249999998 192.872125 C 121.69338599999998 193.302571 120.86160249999998 194.93291150000002 119.45476799999999 195.576662 C 118.639457 195.949687 117.710428 195.95502199999999 116.81378249999999 195.9520735 C 115.57420299999998 195.9479555 114.29213149999998 195.931857 113.16290099999999 195.4205445 C 111.93389799999999 194.86411900000002 111.02583399999999 193.78159300000002 110.28043899999999 192.6570895 C 107.2212685 188.0416595 106.26902749999999 182.08654900000002 107.736325 176.74734450000003 C 108.22049449999999 174.98554900000002 108.98554449999999 173.24663700000002 110.2990645 171.97654550000001 C 110.96612 171.331532 111.7393125 170.831591 112.523924 170.34690650000002 C 112.61939149999999 170.3469535 112.72496699999999 170.34452000000002 112.85169549999999 170.33937200000003 C 113.57135149999999 170.30988950000003 114.20003299999999 170.33796800000002 114.86998999999999 170.64865850000004 C 115.79901949999999 171.07947900000005 116.54591199999999 171.82173800000004 117.21081449999998 172.60054700000003 C 118.49812749999998 174.10846500000002 119.55631899999999 175.81171650000005 120.33802899999998 177.63383450000003 C 120.69219449999997 178.45953450000005 120.95444899999998 179.51594750000004 120.34467449999998 180.17579600000005 C 119.96523799999999 180.58630600000004 119.36734999999999 180.69328600000006 118.81373199999999 180.77031500000004 C 117.30993249999999 180.97954800000005 115.82579399999999 180.57805300000004 114.1976 181.41472050000004 C 114.4828835 181.56916850000005 117.61964049999999 182.07321200000004 119.251853 182.67685650000004 C 122.4501065 183.85962350000005 125.96752049999999 183.68834350000003 129.372339 183.50124600000004 C 130.3036145 183.45004900000004 131.23826 183.39852500000003 132.1544665 183.22420300000005 C 132.35148500000003 183.18676500000004 132.56263650000002 183.13472550000006 132.690582 182.98038650000004 C 132.9972945 182.61040350000005 132.588282 182.08215000000004 132.199299 181.79995950000003 Z &#10;" fill="#754123" mix-blend-mode="multiply" stroke-width="0px" opacity=".25" /><path d="M 138.7289545 111.6334755 C 147.60913799999997 141.616733 163.14638449999998 140.5342865 164.174251 154.6361925 L 164.174251 156.12152 L 158.7583405 148.8691265 L 149.34105350000002 139.3435945 L 142.08866 127.78794149999999 L 138.348338 116.39572249999999 L 138.72895450000001 111.63347499999999 Z &#10;" fill="#754123" mix-blend-mode="multiply" stroke-width="0px" opacity=".25" /><path d="M 159.0997845 100.993235 C 159.385519 99.744748 159.7658045 98.48154149999999 160.54899699999999 97.468144 C 161.59463499999998 96.11515999999999 163.27293049999997 95.35112799999999 164.96910949999997 95.1345585 C 177.88346349999998 93.1231165 178.78360599999996 105.9681515 177.87245349999998 112.0294315 C 177.475341 114.4739605 176.96017299999997 116.9166965 176.01524099999997 119.205916 C 176.87517949999997 113.90259 176.17975599999997 108.356554 174.03704799999997 103.429733 C 173.72095049999996 102.7029155 173.37139149999996 101.9846735 172.90067149999996 101.3470185 C 172.21794649999995 100.42217450000001 171.29286699999997 99.68959500000001 170.27127799999997 99.16252250000001 C 167.90766399999995 97.9430535 164.74727999999996 97.946809 162.81782299999998 99.777375 C 162.25853499999997 100.307997 161.82871049999997 100.95874850000001 161.42955899999998 101.61832500000001 C 161.0967715 102.16824350000002 160.51240099999998 106.27136750000001 159.97798899999998 106.18464150000001 C 158.9826575 106.02311600000002 158.96417599999998 101.5857665 159.09978549999997 100.99323500000001 Z &#10;" fill="#754123" mix-blend-mode="multiply" stroke-width="0px" opacity=".25" /><path d="M 182.085069 86.03309 C 181.002622 87.440271 180.809596 88.3332895 179.673027 89.03688 C 178.53645799999998 89.7404705 179.162463 92.04066999999999 179.162463 92.04066999999999 L 181.96989250000001 89.03688 L 182.0850695 86.03309 Z &#10;" fill="#754123" mix-blend-mode="multiply" stroke-width="0px" opacity=".25" /><path d="M 183.221638 92.9066275 C 182.22037450000002 93.5831565 180.86731600000002 94.719726 181.625029 96.316335 C 183.365678 94.92304449999999 183.221638 92.9066275 183.221638 92.9066275 Z &#10;" fill="#754123" mix-blend-mode="multiply" stroke-width="0px" opacity=".25" /><path d="M 185.007675 96.884619 C 183.6275555 97.34465900000001 182.328619 98.567537 184.249962 104.112514 C 185.35947000000002 101.9179965 185.49157150000002 98.395753 185.49157150000002 98.395753 L 185.0076745 96.8846185 Z &#10;" fill="#754123" mix-blend-mode="multiply" stroke-width="0px" opacity=".25" /><path d="M 168.5848475 123.918728 C 170.5570105 124.676441 175.53626549999998 125.542398 178.783606 120.3466535 C 178.783606 122.186813 176.997569 125.9212545 176.997569 125.9212545 L 173.966718 127.7879415 C 173.966718 127.7879415 171.7021275 128.0085225 171.216425 127.7879415 C 170.73072249999998 127.5673605 169.09570749999997 127.274313 168.987463 127.0578235 C 168.8792185 126.84133399999999 168.83170099999998 126.4492755 168.584848 126.004854 C 168.337995 125.56043249999999 168.584848 123.91872799999999 168.584848 123.91872799999999 Z &#10;" fill="#754123" mix-blend-mode="multiply" stroke-width="0px" opacity=".25" /><path d="M 174.237363 193.3576985 C 167.30966999999998 188.989986 170.7751405 181.7221905 169.04240499999997 171.411483 L 171.63988399999997 178.74465800000002 L 174.50794099999996 189.89386000000002 L 174.26439049999996 191.78814200000002 L 174.23736299999996 193.35769850000003 Z &#10;" fill="#754123" mix-blend-mode="multiply" stroke-width="0px" opacity=".25" /><path d="M 94.844288 99.298389 C 95.57952900000001 100.231184 95.96818350000001 101.666169 94.290577 102.6403115 C 93.631125 101.74660949999999 94.02802199999999 100.4115915 94.02802199999999 100.4115915 L 94.84428799999999 99.298389 Z &#10;" fill="#754123" mix-blend-mode="multiply" stroke-width="0px" opacity=".25" /><path d="M 92.6129705 103.614454 C 92.801249 104.0558295 93.459648 105.489891 92.24645050000001 106.72126449999999 C 91.14149750000001 105.16785949999999 91.8631285 103.87542149999999 91.8631285 103.87542149999999 L 92.6129705 103.61445399999998 Z &#10;" fill="#754123" mix-blend-mode="multiply" stroke-width="0px" opacity=".25" /><path d="M 89.8788575 106.0934255 C 90.347703 107.15884349999999 90.997171 108.3134535 91.10541549999999 109.90104199999999 C 91.21365999999999 111.48863049999999 90.86729999999999 114.38751699999999 91.22088799999999 116.4420105 C 91.57447599999999 118.496504 89.91515399999999 116.0709885 89.87885749999998 115.710173 C 89.84256099999998 115.3493575 88.79619599999998 108.06088249999999 88.79619599999998 108.06088249999999 L 89.12092999999999 104.81354199999998 L 89.87885749999998 106.09342549999998 Z &#10;" fill="#754123" mix-blend-mode="multiply" stroke-width="0px" opacity=".25" /><path d="M 142.763222 115.404778 C 141.4934995 113.948482 140.953943 111.9817755 140.935637 110.06097399999999 C 141.898173 110.56221299999999 142.876936 111.12131199999999 143.82103650000002 111.64888499999999 L 142.97811750000002 112.4315755 C 142.728966 112.0254645 142.47148500000003 111.62379899999999 142.23066350000002 111.21314849999999 C 141.256617 109.5874875 140.19504400000002 107.81174499999999 139.26191550000001 106.16094749999999 C 140.80950700000002 106.25437099999999 142.528174 106.39675849999999 143.92763200000002 107.11985299999999 C 143.92764400000002 107.119794 142.67177900000002 108.26587149999999 142.67177900000002 108.26587149999999 C 142.01962500000002 106.78648499999998 140.6330585 105.40345299999998 140.0954805 103.751938 C 140.095468 103.75194549999999 139.5440965 102.082201 139.5440965 102.082201 L 141.2655055 102.5400235 C 142.407065 102.8083805 143.7375935 103.08698600000001 144.90318499999998 103.156428 C 144.90318949999997 103.156397 144.16238099999998 104.7171495 144.16238099999998 104.7171495 C 143.44977749999998 103.823718 142.7047475 102.8764555 142.17206199999998 101.8090485 C 141.995623 101.4576905 141.7968315 100.9132475 141.80050099999997 100.4738975 C 141.66944549999997 97.86937950000001 143.70449049999996 95.698351 146.13441699999996 95.1697625 C 149.94264449999994 94.01955500000001 154.17984249999995 96.616003 154.34513599999997 100.674662 C 153.67503099999996 98.15990049999999 151.40719349999998 96.338936 148.91002949999998 96.2231825 C 146.490311 96.15068249999999 143.40213749999998 97.7244805 143.68443549999998 100.48850399999999 C 144.27013399999998 102.12435649999999 145.876863 103.702942 146.94500699999998 105.100416 C 146.94507049999999 105.100377 144.90281599999997 105.068648 144.90281599999997 105.068648 C 143.43295799999999 104.9950545 142.16718549999996 104.71677249999999 140.74697999999998 104.380997 C 140.7469865 104.380955 141.91702449999997 103.1690795 141.91702449999997 103.1690795 C 142.43187949999998 104.6390325 143.78824149999997 106.0422565 144.36940049999995 107.603878 C 144.36941499999995 107.6038705 145.21710949999996 109.86804 145.21710949999996 109.86804 C 143.90409149999996 109.18333849999999 142.19118049999997 108.1106215 140.69175199999995 107.96280549999999 C 140.69176499999995 107.96276199999998 141.52457849999996 106.72711349999999 141.52457849999996 106.72711349999999 C 142.70156849999995 109.06217649999999 143.92045899999997 111.63640499999998 145.03627799999995 114.01250499999999 C 143.88742649999995 113.143925 142.31377649999996 112.04167 141.18210899999994 111.18523599999999 C 141.18211249999993 111.1852565 141.85834049999994 110.82271399999999 141.85834049999994 110.82271399999999 C 141.71279399999995 112.385877 142.04765399999994 113.98474149999998 142.76322199999993 115.4047775 L 142.76322199999993 115.4047775 Z &#10;" stroke-width="0px" fill="#eeddcf" /><path d="M 144.144168 133.360714 C 146.5266915 141.6888965 148.8359115 146.5959885 156.62952850000002 153.8123005 C 164.42314550000003 161.02861249999998 166.60974900000002 163.77081099999998 168.47513500000002 167.81194549999998 L 164.17425100000003 156.12151999999998 L 156.30965150000003 146.39229149999997 L 149.34105350000004 139.34359449999997 L 145.08342950000005 133.36071349999997 L 144.14416800000006 133.36071349999997 Z &#10;" stroke-width="0px" opacity=".66" fill="#d8b58e" /><path d="M 176.2939785 119.34539 C 173.3984335 120.4007755 170.6923165 120.6984485 169.014524 123.13395399999999 C 169.203952 121.4561615 170.151093 120.15722549999998 170.151093 120.15722549999998 C 170.151093 120.15722549999998 172.417577 118.86421099999998 172.5194055 118.83706249999999 C 172.62123400000002 118.80991399999999 174.129085 118.81583599999999 174.50794150000002 118.83706249999999 C 174.88679800000003 118.85828899999998 176.2939785 119.3453905 176.2939785 119.3453905 Z &#10;" stroke-width="0px" opacity=".66" fill="#d8b58e" /><path d="M 101.0307665 134.855523 C 105.01485699999999 134.7431955 108.370442 135.257139 109.777623 136.840327 C 111.184804 138.423515 108.5869315 134.3868905 108.5869315 134.3868905 C 108.5869315 134.3868905 107.39624 133.49365749999998 107.071506 133.360714 C 106.74677199999999 133.22777050000002 104.14713449999999 132.9030365 103.9315275 132.957159 C 103.71592050000001 133.01128149999997 101.4427825 133.877498 101.4427825 133.877498 L 101.03076650000001 134.8555235 Z &#10;" stroke-width="0px" opacity=".66" fill="#d8b58e" /><path d="M 175.635774 190.3356855 C 177.9898115 185.636236 185.972113 180.06146700000002 191.07351549999998 185.7353765 C 191.38760349999998 183.419531 189.1750955 182.384591 189.1750955 182.384591 L 184.9896345 180.9456335 C 184.9896345 180.9456335 182.5360885 180.4404915 182.391762 180.9456335 C 182.2474355 181.45077550000002 180.010379 183.0565555 180.010379 183.0565555 L 176.33006 187.5124775 L 175.635774 190.33568599999998 Z &#10;" stroke-width="0px" opacity=".66" fill="#d8b58e" /><path d="M 164.675716 131.441733 C 164.675716 131.441733 165.505592 147.678435 165.072613 153.4514845 L 166.94885399999998 140.8229385 L 164.6757155 131.441733 Z &#10;" stroke-width="0px" opacity=".66" fill="#d8b58e" /><path d="M 163.9180035 83.141706 C 167.093181 84.571787 176.263639 89.1902265 180.175617 86.95317 L 166.02610399999998 82.4943555 L 163.91800299999997 83.1417055 Z &#10;" stroke-width="0px" opacity=".66" fill="#d8b58e" /><path d="M 168.329119 72.3316645 C 166.03668299999998 76.64044200000001 157.53212 82.686316 156.0366065 72.99482 L 158.722614 73.53028950000001 L 164.208162 73.26648200000001 L 168.329119 72.33166450000002 Z &#10;" stroke-width="0px" /><path d="M 145.693979 61.063861 C 147.0613515 58.144754500000005 151.183941 57.477252500000006 153.772477 59.137384000000004 C 154.1384495 59.392853 154.5038465 59.7019055 154.689353 60.12547250000001 C 153.8696935 59.97927950000001 153.13502200000002 60.03519000000001 152.33917050000002 60.056241500000006 C 152.33916900000003 60.056258500000006 151.221638 60.106004500000004 151.221638 60.106004500000004 C 149.30230550000002 60.1592575 147.62007200000002 60.57357450000001 145.693979 61.0638615 L 145.693979 61.0638615 Z &#10;" stroke-width="0px" /><path d="M 165.5133035 41.4667325 C 165.6324755 38.862673 168.9766275 37.503544 171.080277 38.8303295 C 171.373882 39.026883999999995 171.664122 39.278842999999995 171.78954 39.6297795 C 171.14832199999998 39.641642499999996 170.6484315 39.7998335 170.06981399999998 39.936291 C 169.6410345 40.0478665 169.0038875 40.189339499999996 168.59062799999998 40.3112795 C 167.7720015 40.528983 166.34085699999997 41.140607499999994 165.51330349999998 41.4667325 L 165.51330349999998 41.4667325 Z &#10;" stroke-width="0px" /><path d="M 167.8910045 56.5528365 C 169.25834600000002 53.633703499999996 173.3809235 52.966258499999995 175.969409 54.6263595 C 176.3353815 54.8818285 176.7007785 55.190928 176.88628500000002 55.6144945 C 176.066629 55.4682095 175.33195750000002 55.524212 174.53610250000003 55.545217 C 174.53610100000003 55.545234 173.41857000000002 55.59498 173.41857000000002 55.59498 C 171.49926800000003 55.648311 169.817078 56.062549 167.8910045 56.552837 L 167.8910045 56.552837 Z &#10;" stroke-width="0px" /><path d="M 142.2405845 45.883085 C 142.359755 43.2789755 145.7039765 41.919998 147.80765150000002 43.246682 C 148.101163 43.443236 148.39140250000003 43.695242 148.5169145 44.046178499999996 C 147.8755715 44.057942 147.37591450000002 44.216204999999995 146.7971885 44.3526435 C 146.36849750000002 44.464183999999996 145.7311005 44.6056945 145.3180025 44.727632 C 144.4992485 44.945324 143.0682155 45.556937 142.2405845 45.883085 L 142.2405845 45.883085 Z &#10;" stroke-width="0px" /><path d="M 149.5721175 46.779968 L 149.571922 46.7796635 L 149.5719005 46.7796635 C 149.1529765 46.144211 148.3876895 45.778343 147.58809 45.9097 C 146.50359799999998 46.087872000000004 145.76886149999999 47.1114365 145.9470115 48.1959505 C 146.010744 48.583954000000006 146.1840235 48.925903500000004 146.428276 49.198575500000004 L 146.427602 49.1990975 C 149.2057715 53.661377 147.8195135 59.5947385 147.8195135 59.5947385 L 151.746842 58.949588 C 152.77364649999998 52.272205 149.999217 47.473564499999995 149.61628 46.850506499999995 C 149.6019505 46.82665299999999 149.58736 46.80312599999999 149.5721175 46.779968499999995 Z &#10;" stroke-width="0px" /><path d="M 172.459113 42.870535 C 172.4446965 42.846529499999995 172.4299975 42.822827999999994 172.414646 42.7995185 L 172.414581 42.799409999999995 L 172.414581 42.799409999999995 C 171.9956355 42.163957499999995 171.2303485 41.798089499999996 170.430749 41.9294465 C 169.34625699999998 42.1075965 168.61152049999998 43.131183 168.7896705 44.215675 C 168.853403 44.6036785 169.0266825 44.945649499999995 169.270935 45.218322 L 169.270261 45.218844 C 172.048452 49.6811235 170.6621725 55.614484999999995 170.6621725 55.614484999999995 L 174.58950099999998 54.969334499999995 C 175.61619699999997 48.292843 172.8425935 43.49461599999999 172.45911299999997 42.870535499999995 Z &#10;" stroke-width="0px" /><circle cx="147.862445" cy="47.9517895" r="1.361069" stroke-width="0px" fill="#fff" /><circle cx="170.764417" cy="44.050067" r="1.361069" stroke-width="0px" fill="#fff" /><path d="M 170.744568 62.183839 C 172.1592795 61.517187 173.99961599999997 60.801988 176.21598949999998 60.300084999999996 C 178.23341599999998 59.84323499999999 180.037918 59.68183199999999 181.50511699999998 59.649119999999996 C 181.89052149999998 59.651127499999994 182.47420449999998 59.710752 182.931129 60.1004685 C 184.07500149999998 61.076097999999995 183.587893 63.3928375 183.364635 64.6251065 C 183.0775145 66.209845 181.1428425 68.7630285 179.4723015 69.516414 C 177.70214549999997 70.314724 173.8269125 67.74901 173.8269125 67.74901 C 173.8269125 67.74901 170.478264 65.556724 169.62389149999998 63.7484305 C 169.32859299999998 63.123560499999996 169.95747749999998 62.369256 170.74456849999999 62.1838395 Z &#10;" stroke-width="0px" /><path d="M 172.201655 64.319488 C 172.1164555 64.319488 172.03177649999998 64.283951 171.971557 64.21451300000001 C 171.67209549999998 63.86955200000001 171.77424549999998 63.35225950000001 172.0459765 63.05160800000001 C 172.29198399999999 62.779356500000006 172.63798599999998 62.65668750000001 172.8906845 62.56702700000001 C 175.333662 61.69942050000001 177.8655555 61.02332700000001 180.415887 60.55748100000001 C 176.4091145 61.97640650000001 175.506811 62.28421850000001 173.0943895 63.14097050000001 C 172.846077 63.22899500000001 172.629956 63.31374850000001 172.497845 63.45991050000001 C 172.399561 63.568751500000005 172.367295 63.741380500000005 172.431455 63.81542850000001 C 172.5417085 63.94241000000001 172.5281035 64.13466600000001 172.401122 64.244994 C 172.3435045 64.294954 172.2723565 64.31948750000001 172.2016545 64.31948750000001 Z &#10;" stroke-width="0px" fill="#fff" /><path d="M 192.1170135 184.3701865 C 190.844863 181.320282 187.1227555 179.49722799999998 183.45006600000002 180.1198255 C 179.78093350000003 180.4646315 176.29899200000003 185.46918499999998 174.71498100000002 188.0898605 C 173.91623650000002 186.2237525 173.40894900000004 183.41607349999998 172.80244950000002 180.0589885 C 171.67013050000003 173.79155 170.16006000000002 165.4622485 165.5618985 157.0260145 C 169.56469900000002 141.586915 166.77208900000002 133.2129215 165.26426450000002 128.6999315 C 164.98104450000002 127.85251749999999 164.757538 127.1833095 164.65027750000002 126.66797249999999 C 164.611061 126.47914349999999 164.57212500000003 126.28488599999999 164.5330025 126.0922665 L 164.695391 124.59595449999999 L 164.2766445 124.76807649999999 C 164.0913255 123.7836385 163.907691 122.77187049999999 163.727145 121.746157 C 164.3513335 120.5529075 164.933966 119.0971225 165.2120385 116.3471915 L 165.351683 114.96553399999999 L 164.010459 115.32512799999999 C 163.40995 115.485738 162.8736475 115.4756295 162.4826055 115.42415199999999 C 162.5728315 115.15047849999999 162.7263285 114.86220449999999 162.929618 114.49250199999999 C 163.366335 113.69750149999999 163.910125 112.70819649999999 163.910125 111.18595849999998 L 163.90713 110.00066449999998 L 162.747481 110.24944149999999 C 162.545502 110.29287 161.991884 110.36217749999999 161.4942365 110.30316549999999 C 161.1829375 104.36663399999999 161.4752365 100.13429049999999 167.326175 99.57954949999998 C 169.055259 99.54080099999999 170.619428 100.23003849999998 171.84234700000002 101.57781449999999 C 174.45085500000002 104.45306949999998 175.421815 110.09519599999999 174.59817400000003 117.51750999999999 C 171.89850400000003 117.74101599999999 169.88807200000002 118.59310999999998 168.61498550000002 120.05563399999998 C 167.11221550000002 121.78172299999999 167.07758500000003 123.86815499999999 167.1906485 124.95835599999998 C 167.34863800000002 126.48003249999998 168.6952905 127.93300949999998 170.46555650000002 128.491775 C 170.843308 128.6108285 171.41405350000002 128.73905449999998 172.1229465 128.73905449999998 C 173.66221900000002 128.73886749999997 175.85085700000002 128.13461449999997 178.1173665 125.52292449999997 C 179.48685650000002 123.94153399999998 179.787298 122.86069299999997 180.2419855 121.22445549999998 C 180.3097485 120.98129449999998 180.381443 120.72278349999998 180.461935 120.44461749999998 C 180.8926615 118.95644849999998 181.7417605 117.14649749999998 182.5627805 115.39626099999998 C 183.3237125 113.77406299999998 184.11066350000002 112.09664349999998 184.578267 110.64235599999998 C 185.7650585 106.95225799999997 185.79950150000002 106.26788749999997 185.94457450000002 103.38776549999997 L 185.95955 103.07384599999997 C 186.0366725 102.21725949999997 186.05857400000002 101.39174699999998 186.078042 100.66338649999997 C 186.123342 98.96631199999997 186.15890850000002 97.62583649999998 186.797043 97.08766249999998 L 188.3119805 95.80970899999998 L 186.369686 95.41567199999999 C 185.9979245 95.34023399999998 185.40977 95.19291449999999 184.8408965 95.05046199999998 C 184.6890845 95.01246199999999 184.53914450000002 94.97483699999998 184.3933225 94.93870899999999 C 184.5354005 94.561332 184.60522300000002 94.2788605 184.6668085 94.03027049999999 C 184.7725715 93.60310049999998 184.8560585 93.26578199999999 185.372519 92.42435799999998 L 186.57821700000002 90.46053649999999 L 184.33548050000002 90.99009999999998 C 183.165536 91.26620699999998 182.87857250000002 91.26882749999999 182.2065565 91.04700599999998 C 183.4525005 88.63561049999998 183.4605495 85.53778499999999 183.460175 85.38653449999998 L 183.44033249999998 83.42832849999998 L 181.89394699999997 84.64825299999998 C 181.84546449999996 84.68643999999998 180.68188449999997 85.57840549999999 178.03593849999996 85.27983549999998 C 177.09549049999995 85.17369799999997 175.80518249999994 84.63421349999997 174.31121049999996 84.00936949999998 C 171.91216949999995 83.00621249999998 168.92628449999995 81.75764799999997 165.49507199999996 81.47723549999998 C 165.44050599999997 81.47105799999997 165.38462949999996 81.46665899999998 165.32959499999996 81.46104349999997 C 172.45071849999997 78.83952599999998 177.63591149999996 75.37115599999997 180.05872549999995 71.48797049999997 C 181.55906199999995 69.08331399999997 182.00794649999995 66.58206649999997 181.38853099999994 64.03645499999998 C 178.67388599999995 53.720915999999974 172.62199799999993 46.22990299999998 163.40059049999994 41.77138549999998 C 160.36753349999992 40.304930499999976 157.21907299999992 39.28548799999998 154.15054299999994 38.58604849999998 C 153.86020949999994 32.028557499999984 152.43203499999993 27.515099499999984 149.89512799999994 25.175585499999983 C 148.58759849999996 23.969700499999984 147.00283849999994 23.376866499999984 145.31081849999995 23.467279499999982 C 139.10880349999996 23.790745499999982 135.11620449999995 28.53809899999998 133.11700399999995 37.97571199999998 C 132.40577149999996 38.09495249999998 129.77526849999995 38.44158399999998 126.34068649999995 40.04113149999998 C 126.18045099999995 39.43374299999998 125.99550599999995 38.834357499999975 125.79942349999995 38.24035299999998 C 124.02466499999994 32.651388499999975 121.34642849999994 28.86371749999998 118.07077149999995 27.410272499999977 C 115.54425349999995 26.288997999999978 112.70138249999995 26.576710499999976 109.84933899999994 28.243085499999978 C 102.19434649999994 32.71470599999998 104.15311399999995 44.391124499999975 108.15619549999994 53.03130349999998 C 110.89480099999994 58.94204949999998 119.22836099999994 76.92886649999998 113.33558549999994 83.74056299999998 C 109.90119049999994 87.46341949999999 108.09311199999993 88.49952199999998 105.99956699999994 89.69904249999998 C 103.73998349999994 90.99384299999997 101.18856899999994 92.45580549999998 96.26357149999994 97.52138349999997 C 95.08202149999994 97.12584849999998 93.72788099999994 97.43527549999997 93.00307699999993 98.10336049999997 L 92.36849899999993 98.68851999999997 L 92.88439749999993 99.38056549999997 C 93.06129299999994 99.61829799999998 92.97967799999994 100.51045099999997 92.72453649999993 101.33296849999998 L 90.82155199999993 102.43814449999998 L 90.60178949999992 104.30200599999998 L 88.48053999999992 103.73949699999997 L 88.23475799999991 104.66571849999997 C 87.54458449999991 107.26748749999997 87.81020849999992 108.96063099999996 88.72182899999991 111.95755999999997 C 89.36614049999991 118.55913449999997 90.63698099999992 124.28137899999997 92.51946799999992 129.09836699999997 C 89.75231599999992 126.28123449999997 87.51987499999991 122.71730349999997 85.97086849999992 118.59591749999997 C 83.49826149999993 112.01764849999996 82.88127949999992 104.45905949999997 84.14032699999993 96.10996249999997 C 84.83592899999992 90.72391349999997 87.71792299999993 85.00166899999996 91.05479149999992 78.37585349999996 C 96.44814099999992 67.66702599999996 103.16025199999993 54.339581999999965 103.16025199999993 36.50251749999996 C 103.16025199999993 26.45391299999996 100.59311349999993 18.83336349999996 95.53015599999993 13.85277049999996 C 90.37379049999993 8.77989199999996 82.71992099999993 6.393018499999959 72.09139849999994 6.573096499999959 C 64.15898899999993 7.012808499999959 56.65711899999994 9.35063799999996 50.39670049999994 13.333502499999959 C 44.55222049999994 17.051678999999957 40.03866899999994 21.99090299999996 37.34405299999994 27.61711849999996 C 33.38121749999994 35.89096449999996 33.92800299999994 44.56839449999996 38.84401499999994 51.424455499999965 L 39.68206949999994 52.59308949999996 L 40.43813449999994 51.36979549999996 C 45.38372299999994 43.367750999999956 49.893717999999936 43.33911049999996 51.15950399999994 43.52218349999996 C 52.415181999999945 43.70282299999996 53.13474449999994 44.35724299999996 53.289925999999944 44.923121499999965 C 53.95183349999994 47.362782999999965 52.51645249999994 48.613219499999964 48.26833799999994 51.86996999999997 C 44.056163999999946 55.099203499999966 37.690543999999946 59.979274999999966 30.956157499999943 69.77105349999997 C 23.513065499999943 80.80765299999996 11.700371999999941 103.53302499999997 16.209243499999943 131.71632799999998 C 18.318138499999943 146.50535999999997 26.272823499999944 159.57934699999998 38.60777999999994 168.530263 C 49.127357499999945 176.16354099999998 62.18599499999994 180.213233 75.66300449999994 180.213233 C 79.55040199999995 180.213233 83.47430149999994 179.876102 87.38023049999994 179.190608 C 94.30311849999994 177.8782115 100.25495249999994 175.4275055 105.10273399999994 172.7621385 C 104.43071799999994 174.422383 103.85061299999994 176.710139 103.85079999999994 179.6788025 C 104.20571449999994 189.99247 108.20299299999994 195.59678399999999 111.51009749999993 198.49599949999998 C 112.99583299999993 199.74156899999997 115.83215249999994 201.66140099999998 119.19354299999993 201.66140099999998 C 119.63288049999993 201.66140099999998 120.08139049999994 201.62864249999998 120.53682599999993 201.5571355 C 122.41903249999993 201.2623095 124.22467749999993 200.14646349999998 125.36673049999993 198.5723735 C 126.32851849999993 197.246686 126.73154049999994 195.7089115 126.50335499999993 194.2387125 C 126.22575049999993 191.4458215 124.11086549999993 189.48312299999998 122.06524149999993 187.58481799999998 C 120.74975599999993 186.3639575 119.48949199999993 185.19073749999998 118.90732799999992 183.92981849999998 C 120.88125799999992 184.51811349999997 123.08590099999992 184.81532599999997 125.49514399999993 184.81532599999997 C 128.10355799999994 184.81532599999997 130.95251299999993 184.46509149999997 134.00007749999992 183.76892799999996 C 147.92175949999992 191.16625199999996 170.3872169999999 200.24904399999997 175.66628649999993 200.33870849999997 C 175.77672899999993 200.34058049999996 175.88717199999994 200.34151649999995 175.99761449999994 200.34151649999995 C 179.49378249999995 200.34151649999995 183.00286649999995 199.40425049999996 185.91424949999993 197.68770849999996 C 189.26291099999992 195.71321699999996 191.48056349999993 192.92725199999995 192.32741599999991 189.63081699999995 C 192.6724089999999 188.28790799999996 192.9159449999999 186.28533799999994 192.1170129999999 184.37018599999996 Z M 163.508038 129.63813349999998 C 163.516836 129.61702749999998 163.5260085 129.59498599999998 163.5349 129.57374 C 164.9310645 133.76246799999998 167.26852 141.2489415 164.174251 154.636193 C 162.9670555 152.6792975 161.5795015 150.72726849999998 159.9779885 148.80308449999998 C 160.464124 143.85464149999999 161.85111600000002 140.090603 162.87289850000002 137.32607149999998 C 163.61024400000002 135.33042749999998 164.143177 133.88849449999998 164.143177 132.6580875 L 164.143177 131.501434 L 163.00674 131.7163295 C 162.952642 131.726625 162.9073415 131.731679 162.8691545 131.7329895 C 162.89498700000001 131.1000965 163.17277850000002 130.4378145 163.5080375 129.638134 Z M 161.8461555 112.25425899999998 C 161.705575 112.73964549999998 161.48150750000002 113.14734749999998 161.2497645 113.56908899999998 C 160.8551655 114.28696699999998 160.4081535 115.10049949999998 160.4819065 116.21110399999998 L 160.520655 116.79364249999998 L 161.0562085 117.02650799999998 C 161.17189249999998 117.07667499999998 161.98243 117.40575699999998 163.14638399999998 117.37543199999998 C 162.8038245 119.48582449999998 162.23101949999997 120.51125699999997 161.62994899999998 121.58741849999997 C 161.092336 122.55014249999996 160.53637849999998 123.54543749999996 160.13204599999997 125.22959549999997 L 160.01767199999998 125.70655849999997 L 160.33758149999997 126.07850699999997 C 160.70990449999996 126.51110549999997 161.44481699999997 127.06275749999998 162.37609249999997 127.19023499999997 C 162.20256649999996 127.79486199999997 161.96895199999997 128.35156849999998 161.74039149999996 128.89685599999999 C 161.27578299999996 130.00446549999998 160.79545099999996 131.14988799999998 160.99817899999996 132.45124049999998 L 161.04291749999996 132.7382045 L 161.23928099999995 132.95216399999998 C 161.48618599999995 133.22078299999998 161.78176099999996 133.41433899999998 162.11215299999995 133.52815099999998 C 161.92720799999995 134.35497399999997 161.53579149999996 135.41447549999998 161.07473999999996 136.66154249999997 C 160.13925249999997 139.19311499999998 158.90725449999996 142.53349299999996 158.28184899999997 146.86050849999998 C 158.07163349999996 146.631995 157.85261999999997 146.405026 157.63585249999997 146.17758849999998 L 157.63997049999998 146.173283 C 157.63678849999997 146.1701945 157.59382799999997 146.1284975 157.52821749999998 146.064806 C 156.69315799999998 145.1940865 155.8112075 144.33174400000001 154.87515799999997 143.480446 C 154.00808899999998 142.6333125 153.04545849999997 141.690291 152.15246349999998 140.809697 C 145.72450899999998 134.5947655 138.71719749999997 120.7171675 138.39036199999998 107.20459149999999 C 138.09834399999997 102.36832249999999 139.34110549999997 97.9756965 141.7146885 95.45442 C 143.4544425 93.6064695 145.824469 92.669578 148.75887649999999 92.669578 C 155.199186 92.669578 156.71917749999997 100.520934 157.82903349999998 106.253661 C 158.15100199999998 107.9164795 158.428981 109.3526095 158.79194449999997 110.42259349999999 C 159.26572499999997 111.82502899999999 160.62885049999997 112.2389085 161.84615449999998 112.25425849999999 Z M 162.4136255 125.23231049999998 C 162.31544399999999 125.19936499999999 162.2250305 125.15738749999998 162.1467845 125.11129149999998 C 162.1962965 124.94314699999998 162.2484295 124.78614049999997 162.301685 124.63386049999998 C 162.338936 124.83424849999999 162.376187 125.03398149999998 162.4136255 125.23231049999998 Z M 134.866866 38.984859499999985 C 136.62496449999998 30.109568499999984 140.0737735 25.659848999999987 145.4107785 25.381495999999984 C 146.59195449999999 25.319535999999985 147.66324899999998 25.724617499999983 148.59564749999998 26.584760499999984 C 150.05742249999997 27.932629999999985 151.8268465 31.039440499999984 152.21414499999997 38.18311999999999 C 150.60813899999997 37.88113399999999 149.03704449999998 37.66263499999999 147.52893949999998 37.50810899999999 C 147.528846 37.50782799999999 147.52865849999998 37.50759399999999 147.52847149999997 37.50731349999999 C 147.50451099999998 37.50483299999999 147.48476249999996 37.50314849999999 147.46145699999997 37.50080849999999 C 147.44732399999998 37.499357999999994 147.43281699999997 37.49753249999999 147.41858999999997 37.49612849999999 C 147.41213199999996 37.49547349999999 147.40520599999996 37.49528599999999 147.39865399999996 37.49463099999999 C 146.64043649999996 37.42031599999999 146.30199499999998 37.416572499999994 145.75090449999996 37.37707499999999 C 141.09330949999998 37.183612999999994 135.66336399999997 38.90408649999999 134.82839799999996 39.17925699999999 L 134.86686599999996 38.98485899999999 Z M 87.03598649999998 177.30503349999998 C 70.11110449999998 180.27519449999997 52.86986949999998 176.510969 39.73354749999998 166.97882449999997 C 27.82239149999998 158.33565049999999 20.141940999999978 145.71635049999998 18.10455349999998 131.42955249999997 C 13.697139499999981 103.88026599999998 25.26030699999998 81.64514699999998 32.54054299999998 70.85002399999996 C 39.09784699999998 61.31563299999996 45.31839399999998 56.54675299999996 49.434538499999974 53.39108549999996 C 53.49171799999998 50.28071849999996 56.172107499999974 48.22592199999996 55.13918699999997 44.41864249999996 C 54.747021499999974 42.98906399999996 53.291985499999974 41.89249899999996 51.43261649999997 41.62481549999996 C 46.149896999999974 40.863883499999964 41.66760649999998 46.17337149999996 39.616553499999974 49.129680499999964 C 35.861687499999974 43.05682749999996 35.64623049999997 35.59932149999996 39.07276349999997 28.445252499999963 C 44.48913749999997 17.136289999999963 57.49143049999997 9.302342999999965 72.16009849999998 8.488248999999964 C 82.21001349999997 8.324082499999964 89.41481149999997 10.525449499999965 94.18593749999998 15.219078999999965 C 98.86889699999998 19.826038999999966 101.24341599999998 26.986846499999963 101.24341599999998 36.502518499999965 C 101.24341599999998 53.88414699999997 94.64492999999999 66.98602549999997 89.34292999999998 77.51365199999996 C 85.92687999999998 84.29614649999996 82.97674849999999 90.15391749999996 82.24202349999999 95.84415199999997 C 78.67444199999998 119.49986399999997 90.4052395 130.33045949999996 94.42816349999998 133.28269699999996 C 96.22800599999998 136.67534849999996 98.41411699999998 139.48700499999995 100.98172349999999 141.69997799999996 C 102.91933849999998 143.52902199999997 104.77870749999998 144.21732349999996 106.38106299999998 144.21713649999995 C 107.91996099999999 144.21713649999995 109.22131349999998 143.58180999999996 110.12525899999999 142.71193299999996 C 110.52640949999999 142.32580449999995 110.86709749999999 141.86667149999997 111.14095799999998 141.36359549999995 C 110.79484149999999 144.00930749999995 110.57901049999998 146.76742799999994 110.57901049999998 149.61572749999993 C 110.57901049999998 155.79443749999993 111.77534849999998 160.61694749999992 113.70585049999998 164.63228999999993 C 108.56249449999999 168.87081099999992 99.38648099999997 174.96355349999993 87.03598749999998 177.30503299999992 Z M 110.29064149999998 134.3868905 C 107.40144049999998 131.327814 103.85182949999998 131.76181649999998 101.82052549999997 132.40893599999998 C 98.83707399999997 126.34319599999998 102.20707499999997 116.29646299999999 105.23376799999997 113.31263749999998 C 107.34172699999996 111.23481649999998 110.51461599999998 109.76180999999998 113.97315849999997 109.26575349999997 C 115.71113399999997 108.95239549999998 117.07191999999996 109.07257249999998 118.05233299999996 109.30188149999998 C 118.09070699999997 110.05116049999998 117.99963849999996 111.89166999999998 117.11665849999996 116.21896649999998 L 117.10804749999996 116.26801049999997 C 116.80217749999996 118.29978249999998 116.02776749999995 120.94479249999998 115.13112249999996 124.00761299999998 C 114.29999399999996 126.84645949999998 113.33801899999996 130.14336249999997 112.51203849999996 133.7811405 C 112.51203849999996 133.7811405 110.82722499999996 134.1851925 110.29064199999996 134.386891 Z M 112.02524749999998 136.0533125 C 111.92650399999998 136.5443145 111.83094299999998 137.0397625 111.73940649999997 137.541435 C 111.65741699999997 137.142718 111.52245199999997 136.7476045 111.34143799999997 136.360727 C 111.57140249999996 136.2645575 111.79968199999996 136.162585 112.02524699999996 136.0533125 Z M 118.01760849999998 181.590586 C 116.14607199999998 180.909585 114.19759999999998 181.41472 114.19759999999998 181.41472 C 114.86437449999998 181.86510199999998 115.93389099999997 182.75407199999998 116.69004949999999 183.1002355 C 116.96587549999998 185.462072 118.88982549999999 187.2531165 120.76145549999998 188.98987549999998 C 122.63355349999998 190.727196 124.40176049999998 192.36829999999998 124.59812399999998 194.449865 L 124.60598599999999 194.512574 C 124.80740349999999 195.7592665 124.28701249999999 196.7963055 123.81510349999999 197.4467945 C 122.9660045 198.616926 121.62964749999999 199.44562100000002 120.23994099999999 199.6635115 C 117.04926899999998 200.1640605 114.172142 198.2264455 112.75753899999998 197.040777 C 109.75106299999997 194.40493949999998 106.09784149999999 189.2416475 105.76707499999998 179.64585799999998 C 105.76707499999998 174.09250699999998 108.04490949999997 171.24261599999997 108.42902599999998 170.80164049999996 C 110.86297799999998 169.26573749999997 112.93312449999998 167.73264249999997 114.61147949999997 166.36867499999997 C 117.07893899999998 170.73874449999997 120.43405849999998 174.14141049999998 123.97103399999997 177.41566349999997 C 125.42906549999998 178.76549849999998 128.05825799999997 180.47272799999996 131.38810649999996 182.34328149999996 C 126.06532799999997 183.28377649999996 121.52472749999997 183.02783949999997 118.01760849999997 181.59058599999997 Z M 190.47085449999997 189.1538545 C 188.88927699999996 195.310195 181.66650899999996 198.5240785 175.69885699999998 198.422247 C 169.17300149999997 198.3112425 132.30571699999996 182.519241 125.27313499999997 176.0091095 C 121.79297199999996 172.78727 118.49943849999997 169.435754 116.12697849999996 165.0946525 C 115.86640849999996 164.618719 115.62568099999996 164.050594 115.23819499999996 163.324246 C 113.53906149999996 159.6165055 112.49584549999996 155.1979065 112.49584549999996 149.615728 C 112.49584549999996 139.831437 115.08226449999997 130.99676649999998 116.97064849999995 124.54616149999998 C 117.88339199999996 121.42830699999999 118.67221549999995 118.73425249999998 118.99979999999995 116.57799849999998 C 119.66573249999995 113.31039099999998 119.96739049999995 110.40116049999997 119.96739049999995 109.96617549999998 C 122.65873049999995 110.22576249999997 122.90226599999995 109.92812899999998 123.79020699999995 109.60718999999997 C 123.11875249999996 108.76445549999997 119.61434799999995 107.68202349999997 118.19375499999995 107.36669999999998 L 118.19908999999996 107.37839949999999 C 117.02577649999995 107.13776549999999 115.51037099999995 107.04173649999998 113.66728749999996 107.37381349999998 C 109.84596849999996 107.92115999999999 106.28147599999996 109.58828399999999 103.88823799999996 111.94764049999998 C 100.28780449999996 115.49678349999998 96.41107699999996 127.29693499999998 100.57065049999996 134.11125249999998 L 101.03076599999996 134.85552449999997 L 101.81565799999996 134.46991099999997 C 101.97626799999996 134.39129049999997 105.77849349999995 132.58321199999997 109.03056399999996 136.29128049999997 C 110.51760999999996 137.98685749999996 110.01949449999995 140.15321999999998 108.79601349999996 141.33083899999997 C 107.49690749999996 142.58108849999996 105.10404349999996 142.96426849999997 102.28288699999996 140.29230299999998 L 102.24881799999996 140.26160349999998 C 95.92138499999996 134.81846099999999 91.90033299999996 124.93420999999998 90.62050749999996 111.67752449999998 L 90.61133499999995 111.58149549999997 L 90.58306899999995 111.48921049999997 C 89.84197949999995 109.06695799999997 89.58964599999996 107.75268899999998 89.87885599999996 106.09342749999998 L 92.24644899999996 106.72126649999997 L 92.61296899999995 103.61445599999998 L 94.29057549999995 102.64031349999998 L 94.41131399999995 102.32208849999998 C 94.54234799999995 101.97597199999998 95.04401999999995 100.53909349999998 94.84428699999995 99.29839099999998 C 95.18591049999995 99.23717949999998 95.61102149999995 99.25552399999998 95.93635999999995 99.47640949999997 L 96.60631699999995 99.93053499999998 L 97.16639249999994 99.34612449999997 C 102.21718249999995 94.07575949999998 104.62445999999994 92.69634849999997 106.95255549999995 91.36223749999998 C 109.09065199999995 90.13707199999997 111.11006949999995 88.97985649999998 114.76478849999995 85.01758299999997 C 120.79121849999996 78.05220249999998 114.87204899999995 62.966659999999976 109.89557399999995 52.225635499999974 C 106.23037249999996 44.31493999999997 104.27216649999995 33.72086049999997 110.81617999999996 29.898231499999973 C 113.14652199999996 28.536790499999974 115.32598749999995 28.289511499999975 117.29336599999996 29.162383499999972 C 120.54487499999996 30.605158999999972 123.16330399999997 34.97808299999997 124.72691149999996 41.537071499999975 C 124.74375849999996 41.60796999999997 124.80047749999996 41.79904549999998 124.88162499999996 42.06312549999998 C 125.37899149999996 43.779573999999975 126.18831249999995 46.172765499999976 126.18831249999995 46.172765499999976 C 126.18831249999995 46.172765499999976 126.65479249999996 44.05558749999997 126.64243799999996 42.17983899999997 C 126.64739849999995 41.648824499999975 126.61557599999996 41.15478049999997 126.52338449999995 40.76799699999997 C 130.34975749999995 40.65006649999997 134.38559749999996 39.591781999999974 134.42734099999996 39.58101849999997 L 136.46529049999995 39.295458499999974 C 136.48765999999995 39.29148049999998 138.94838049999996 38.993378999999976 143.74646199999995 39.15717099999998 C 156.02685249999996 39.669044999999976 174.14479699999995 44.04154799999998 179.53047149999995 64.50686899999998 C 180.01903999999996 66.51524199999999 179.64952499999995 68.52249199999999 178.43240849999995 70.47339749999998 C 175.38315949999995 75.36058249999998 167.32785899999996 79.58838649999997 156.27375699999996 82.12491949999998 C 155.14536899999996 82.34323099999997 154.34971349999995 82.53725449999997 154.12452249999996 82.59373949999997 C 151.94636699999995 83.04627399999997 149.94033349999995 83.38911449999998 148.12457999999995 83.56722649999998 C 145.69661799999994 83.79447649999997 143.45257149999995 83.65127549999997 141.77552649999996 83.15840099999997 C 138.71925749999997 82.25997749999996 137.06177399999996 80.47454899999997 137.04885799999997 80.45835699999996 L 136.45995499999998 79.72175999999996 L 136.50694 80.66379899999995 C 136.51292999999998 80.78238449999995 137.00046949999998 83.72643249999996 140.70011399999999 84.97958299999995 C 142.0271115 85.42902899999994 143.6078465 85.62506449999995 145.37596 85.62894899999995 C 145.424068 85.62936999999995 145.468245 85.63381599999995 145.5167275 85.63381599999995 C 145.5921655 85.63381599999995 145.6721895 85.62908949999995 145.74828300000001 85.62829399999995 C 145.914883 85.62614149999996 146.08354200000002 85.62183599999996 146.25332450000002 85.61631399999996 C 146.45932850000003 85.60994949999996 146.6661745 85.60288299999996 146.87723250000002 85.59141749999996 C 147.0357835 85.58285349999996 147.19770350000002 85.57063949999996 147.35868800000003 85.55950149999997 C 147.54924850000003 85.54602349999996 147.73793700000002 85.53437099999996 147.93261600000002 85.51710249999996 C 147.97070950000003 85.51382649999996 148.0072115 85.51214199999997 148.04549200000002 85.50877249999996 C 148.045305 85.50764949999996 148.04549200000002 85.50661999999997 148.04539850000003 85.50549649999996 C 150.02559950000003 85.32317249999997 152.21386300000003 84.95103649999996 154.61627350000003 84.44941099999997 L 154.62488450000004 84.48296499999996 C 154.68263300000004 84.46827049999996 160.01074650000004 83.12241349999996 164.27823550000005 83.30759199999997 C 164.60085950000004 83.32415849999997 164.91852250000005 83.34793149999997 165.22570300000004 83.38377899999998 C 166.14658950000003 83.46258649999997 167.03883600000003 83.62240099999998 167.89888550000003 83.83111899999997 C 167.90496900000002 83.82358449999997 167.91161450000004 83.81665849999997 167.91769800000003 83.80917099999998 C 170.02986850000002 84.30372999999997 171.94492700000004 85.09760749999998 173.57180500000004 85.77795349999998 C 175.20111600000004 86.45932899999998 176.60841900000003 87.04785799999998 177.82104250000003 87.18469449999998 C 179.37884650000004 87.35990549999998 180.56956900000003 87.19480299999998 181.42578150000003 86.94490249999998 C 181.25057050000004 88.23970299999998 180.84586350000004 89.90383199999998 179.99826250000004 90.95603299999999 L 179.12763700000005 92.0368745 L 180.44677250000004 92.46816299999999 C 180.72568700000005 92.5595125 180.96117350000003 92.64281249999999 181.16858150000004 92.71600399999998 C 181.86175000000006 92.96084999999998 182.33197400000003 93.11004099999998 182.92593150000005 93.12071099999999 C 182.87782350000003 93.27963599999998 182.84188250000005 93.42545799999999 182.80612900000006 93.56978249999999 C 182.70710500000007 93.96943549999999 182.61369650000006 94.347 182.18727550000006 95.15978349999999 L 181.59369250000006 96.29060499999999 L 182.84543950000005 96.54443599999999 C 183.21738800000006 96.619874 183.80610400000006 96.76738049999999 184.37516500000007 96.90983299999999 C 184.45809050000005 96.930611 184.54026750000006 96.951202 184.62150850000006 96.971606 C 184.23215100000007 97.97944299999999 184.19864400000006 99.2339975 184.16195450000006 100.6124725 C 184.14229950000006 101.34663599999999 184.12208300000006 102.105696 184.04795500000006 102.9392575 L 184.03017200000005 103.291364 C 183.88884250000004 106.098856 183.86338450000005 106.6048335 182.75352900000004 110.055514 C 182.32336400000005 111.39336850000001 181.56280650000005 113.0144435 180.82733250000004 114.58216900000001 C 179.97486450000005 116.3996075 179.09338150000005 118.27881850000001 178.62072400000005 119.91187350000001 C 178.53817250000006 120.19677850000001 178.46460650000006 120.461841 178.39515850000006 120.71117950000001 C 177.96929900000006 122.24352550000002 177.75552650000006 123.01269400000001 176.66906950000006 124.26724850000001 C 174.19627500000007 127.1170455 172.08270050000007 126.9923765 171.04248000000007 126.66366900000001 C 169.86879200000007 126.293405 169.16439200000008 125.40686800000002 169.09737750000008 124.76068450000001 C 169.01632400000008 123.9797235 169.03373250000007 122.4938005 170.0606630000001 121.31430950000001 C 171.0973270000001 120.1234 172.92356350000009 119.47440850000001 175.4888300000001 119.3853055 L 176.3044215000001 119.3568525 L 176.40644050000012 118.547251 C 177.7579600000001 107.811655 175.44259350000013 102.69328900000001 173.2620045000001 100.2899425 C 171.6444865000001 98.5069475 169.5704090000001 97.59869599999999 167.2421265000001 97.66421299999999 L 167.1811020000001 97.66795699999999 C 162.6621220000001 98.08483149999999 160.7352705000001 100.38877949999998 159.96020600000008 103.23244599999998 C 159.95693000000009 103.22425649999998 159.95290550000007 103.21639449999998 159.9497235000001 103.20815799999998 C 159.8645515000001 103.53410449999998 159.7904240000001 103.89702099999998 159.7260300000001 104.28759549999998 C 159.6696855000001 104.61003199999998 159.6248530000001 104.93658699999997 159.59003550000008 105.26627749999999 C 158.41728350000008 99.25477599999999 156.5088700000001 90.75274399999999 148.7588785000001 90.75274399999999 C 145.2748780000001 90.75274399999999 142.4353765000001 91.8925505 140.3189940000001 94.14052849999999 C 136.38536050000008 98.31882099999999 136.3217155000001 104.74939599999999 136.47558650000008 107.28564799999998 C 136.81683600000008 121.42400349999998 143.95012650000007 135.54551199999997 150.81330050000008 142.18106149999997 C 151.6375965000001 142.99403249999997 152.5214190000001 143.86016549999997 153.33551300000008 144.65600849999996 L 153.33027150000007 144.66190499999996 C 153.40439900000007 144.72845149999995 153.47375350000007 144.79612099999997 153.54722600000008 144.86285449999997 C 154.7526430000001 146.04047349999996 155.76890350000008 147.02818749999997 156.14628050000007 147.39475449999998 C 166.99166400000007 158.71803699999998 169.33192700000006 171.63085249999997 170.91612500000008 180.3996785 C 171.6498205000001 184.46069549999999 172.24864500000007 187.758628 173.4703475000001 189.8722025 C 173.4973030000001 189.918813 173.4622985000001 189.842907 173.5521500000001 190.01044299999998 C 172.9925420000001 191.78814999999997 174.2373630000001 193.3577005 174.2373630000001 193.3577005 C 174.2373630000001 193.3577005 174.7514835000001 191.86934399999998 175.5623950000001 190.4731795 C 175.63577400000008 190.33568749999998 175.6103160000001 190.38286 175.63577400000008 190.33568749999998 C 176.90390000000008 187.981666 180.5966185000001 182.28272699999997 183.6539170000001 182.02599449999997 L 183.7381530000001 182.01513749999998 C 186.1753810000001 181.59021349999998 189.3149500000001 182.63137049999997 190.3480575000001 185.108096 C 190.9425765000001 186.533369 190.7430305000001 188.09473 190.47085500000009 189.153857 Z &#10;" stroke-width="0px" fill="#0c0c0c" /></g></g></svg>