<?xml version='1.0' encoding='utf-8'?>
<svg viewBox="0 0 432 432" width="432px" height="432px" xmlns="http://www.w3.org/2000/svg" xmlns:xlink="http://www.w3.org/1999/xlink" version="1.1"><g isolation="isolate"><g id="Layer_1"><path d="m384.283445,379.166167c.675385-2.628912,1.153846-6.546072-.40321-10.278288-2.473917-5.930588-9.746666-9.485721-16.916084-8.270102-7.352492.691858-14.481102,11.252056-17.20623,15.760366l-.386362.639445-.29389-.686991c-1.61471-3.772649-2.650626-9.505938-3.850146-16.144482-2.218963-12.28273-5.258198-29.104096-14.440295-45.950545l-.07263-.132906.038187-.146758c7.981454-30.786195,2.406903-47.470911-.58778-56.434743-.570184-1.704936-1.020191-3.051963-1.239954-4.106972l-.246718-1.211501.261693-2.411021-.676509.278166-.086857-.462736c-.371013-1.970748-.738656-3.995032-1.100309-6.048144l-.022463-.128787.06065-.115684c1.19091-2.276618,2.370214-5.143262,2.928043-10.65866l.223506-2.210727-2.145959.575425c-1.046773.280412-2.124619.35117-3.205086.207782l-.458993-.060276.144886-.439899c.192058-.581416.50317-1.165826.922478-1.927694.852843-1.552937,1.913467-3.483626,1.913467-6.428516l-.004867-1.89662-1.856561.398343c-.377752.081241-1.606474.256077-2.736734.102581l-.309614-.04268-.020965-.31186c-.6211-9.338963-.798449-14.45345-.218531-15.206333l.490806-1.110122c.18457-.226501.573176-1.111391.775717-1.36934,1.996206-2.545424,5.239811-5.543887,10.982085-5.691393,2.97821-.059901,6.351946,1.497919,8.307719,3.398283,4.884939,4.743797,9.092553,13.097606,8.216791,34.949305l-1.643622.748037-.353791.031074c-5.156366.453751-9.008009,2.103653-11.447858,4.904032-2.94489,3.379548-1.5564,6.286094-1.329524,8.443658.311486,2.95687,1.724329,4.341738,5.173512,5.41584.676883.210777,1.533048.92933,2.899917.92933,2.844556-.000374,5.927789-1.026844,10.424494-6.273062,2.674212-3.127214,2.76269-3.875628,3.649227-7.132379.144137-.528628.492883-1.75767.647503-2.302022.862951-3.043727,3.339513-6.501885,4.979307-10.054772,1.508386-3.267608,2.976577-5.993836,3.896808-8.912145,1.766709-5.600757.013898-4.995797,1.362797-7.779703.439899-.907128-.374642-.407088.292133-1.845464l.509964-1.647548.144326-1.891928c-.615859-.6664,1.298936-1.26798-.257911-2.249362l-.319394-1.544328v-1.948404c1.541706-2.36909-.486536-4.174806,1.292528-5.691428l2.315628-3.906267-1.80287-.36601c-.560824-.116058-.759337-.474243-1.411885-.342087l-1.205443-.301283-1.390348.089389c.262442-.764863-.408863-.137569-.178992-.884087.639819-2.076698.696656-3.221813,1.804078-5.051418l2.670035-4.041135-2.318697,1.254007c-1.479558.349299-2.501622.775345-3.323016,1.117531-.361279.150876-.658164.274422-.927719.366146l-.790695.26993-1.299447-1.78084c2.084934-5.19006,3.335712-11.538929,3.287791-12.360323l-.195802-2.934782-2.319672,1.848325c-.09996.080118-2.531572,1.969999-7.984074,1.334298-1.937053-.226501-4.545-1.335796-7.564766-2.620301-4.781609-2.033644-10.732039-4.564842-17.542426-5.146632l-1.838591-.199171,1.532346-.563445c14.38264-5.290394,24.512298-12.13747,29.293533-19.800324,2.944141-4.718713,3.823191-9.633976,2.612439-14.609516-5.397842-20.510902-17.433106-35.409815-35.770345-44.275559-5.566314-2.691433-11.763088-4.825037-18.41848-6.342034l-.284905-.064768-.012729-.292018c-.576549-13.020263-3.398641-21.954894-8.387658-26.556051-2.541681-2.344007-5.619851-3.491863-8.888207-3.315529-12.214218.636824-20.075121,10.02895-24.033089,28.713241l-.054285.255703-.59377.097714c-1.846827.295762-6.753106,1.08159-13.117977,4.045574l-.415564.193556-.116807-.443268c-.287151-1.088329-.628962-2.225702-1.075974-3.579094-3.546522-11.16782-8.818946-18.576843-15.248586-21.43001-4.936229-2.191259-10.50142-1.621824-16.093941,1.646158-15.087602,8.813331-11.170815,31.949775-3.232041,49.084498,5.503044,11.876526,22.248784,48.019381,10.300751,61.830339-6.917459,7.498875-10.556829,9.584184-14.771249,11.998949-4.488468,2.572006-9.575573,5.486945-19.387755,15.579165l-.168098.17259-.228373-.076374c-2.110767-.706459-4.692881-.25121-6.139493,1.082339l-1.015324.93633.825513,1.107048c.547347.735287.143763,2.943018-.260944,4.247366l-.044177.143014-3.769654,2.189013-.468726,3.976313-4.299405-1.139994-.393101,1.482179c-1.364623,5.143637-.831503,8.45018.970399,14.373655,1.292742,13.170016,3.840038,24.669539,7.585357,34.253348l.681376,1.744247-1.31221-1.335796c-5.62921-5.731042-10.064516-12.84318-13.182371-21.138741-4.968426-13.218686-6.206882-28.414109-3.6813-45.163968,1.398317-10.827881,7.175034-22.298202,13.864121-35.579784,10.769852-21.38471,24.171611-47.994672,24.171611-83.577825,0-19.990885-5.095716-35.139885-15.145631-45.026195-10.246466-10.080614-25.474835-14.815426-46.602344-14.44928-15.783952.875306-30.724047,5.529999-43.189851,13.460911-11.628685,7.397792-20.607118,17.22158-25.965276,28.409242-7.863523,16.417781-6.782682,33.630751,2.965481,47.225691l1.341037,1.870039,1.209629-1.95727c10.017718-16.208876,19.235007-16.250058,21.82386-15.873055,2.682823.385988,4.231267,1.824739,4.575325,3.079668,1.388209,5.116681-1.531597,7.669593-10.179451,14.299527-8.405629,6.443866-21.107667,16.181921-34.541622,35.714936-14.85249,22.023406-38.428833,67.371944-29.431306,123.612757,4.203937,29.480724,20.058274,55.537724,44.643577,73.378157,20.700339,15.020587,46.940037,23.292936,73.885445,23.292936,7.795011,0,15.657037-.686243,23.368187-2.039634,12.169293-2.306943,24.056675-6.618702,35.326702-12.815102l.944192-.519268-.404333.998852c-1.643163,4.0598-2.476164,8.665824-2.475789,13.689659.704962,20.477956,8.648228,31.613205,15.187936,37.346119,2.773798,2.325288,8.435579,6.235709,15.114183,6.235709.88167,0,1.765212-.068512,2.62704-.204038,3.66595-.574302,7.183271-2.74834,9.408973-5.815653,1.862551-2.567139,2.645384-5.5446,2.204737-8.38354-.543603-5.46261-4.719462-9.33784-8.758297-13.085406-2.674586-2.482154-5.200917-4.826909-6.403058-7.430363l-.355663-.770479.813158.2426c8.158536,2.430863,18.375426,2.324539,29.990633-.328333l.13927-.031822.125792.067014c28.782502,15.293512,73.082395,32.923543,83.159266,33.094635,7.14134.124295,14.365793-1.753232,20.294883-5.248838,6.607845-3.896195,10.982127-9.387259,12.649625-15.879046Zm-149.674624-146.651488l-.014975.087605c-.613987,4.078894-2.165801,9.379022-3.962087,15.51552-1.588129,5.424049-3.562246,12.167795-5.233863,19.529646l-.052788.232117-.231743.055783c-.033694.007862-3.358582.806794-4.397119,1.197274l-.238481.089477-.174836-.185319c-5.764737-6.102804-12.84056-5.034691-16.545446-3.853516l-.314855.09996-.145635-.296136c-6.091198-12.384188.929591-32.747583,6.901361-38.634743,4.272449-4.211425,10.721557-7.200492,17.693676-8.200467,2.979333-.537238,5.775968-.512155,8.299678.07862l.280787.065517.014975.288274c.08798,1.722907-.166226,5.538235-1.87865,13.930386Z" stroke-width="0px" fill="#c56439" /><path d="m231.251362,329.594611c-9.239351,8.342926-29.309066,23.560464-57.571077,28.975497-68.172012,12.089547-130.712644-30.068209-139.747633-94.104569-8.140733-51.427589,10.369583-95.464536,29.114357-123.556742,25.772647-37.873738,48.36813-38.471629,44.81948-51.691656-1.546795-5.698262-15.740034-9.499752-29.11341,12.489272-5.152153-23.355696,24.055981-50.552471,47.77807-35.293758,10.687073,7.491754,21.377756,24.884663.03667,61.924314-24.859192,43.145687-51.255154,151.739128,37.258318,170.859039,34.886903,6.29561,57.487333-7.980178,57.487333-7.980178,0,0-2.116338,21.071608,9.937892,38.37878Z" fill="#754123" mix-blend-mode="multiply" stroke-width="0px" opacity=".25" /><path d="m171.819342,243.463094c-37.669148-67.175371,22.400384-110.875456,8.296434-168.799062-14.10395-57.923606-67.378029-44.274652-100.694985-21.351514,0,0,13.163445-37.876389,74.429934-37.876389s52.823404,71.57744,45.246276,93.916113c-14.57695,55.389382-48.637943,71.842573-27.277659,134.110852Z" stroke-width="0px" opacity=".66" fill="#d8b58e" /><path d="m244.109374,98.620636c-.015412-1.75867-.030824-3.51734-.046237-5.27601-.051654-5.894183-.130451-11.937638-2.251514-17.437197-2.121063-5.499559-6.753698-10.427009-12.602347-11.160066-5.72824-.717964-11.688709,3.180249-13.326962,8.715982,0,0,21.057518-10.771045,28.22706,25.157292Z" opacity=".35" fill="#754123" mix-blend-mode="multiply" stroke-width="0px" /><path d="m215.882374,73.463374c1.239921-7.10732,8.257507-11.946781,15.371477-10.104148,5.7783,1.354259,10.037854,6.37099,11.583418,11.927518,1.693906,5.174709,2.216362,10.839834,1.271992,16.142671-.552445-4.216983-1.301612-8.332143-2.709047-12.31501-1.357984-3.802676-2.826263-7.56278-5.94576-10.192155-6.857432-5.930539-15.611564-3.334045-19.57208,4.541125h0Z" stroke-width="0px" /><path d="m286.922695,63.711921c2.278379-.872468,4.730337-1.249536,6.969752-2.217641,2.819861-1.219033,5.222836-3.380001,6.733245-6.055131,2.53579,6.716897,4.049482,13.818603,4.472998,20.985721.026659.451153.01325.982275-.352775,1.247371-.217981.157873-.505532.173236-.774664.170493-1.725225-.01758-3.400045-.533184-5.074822-.94775-5.943007-1.4711-12.10426-1.690953-18.198939-1.548341-1.546914.036197-3.093353,1.318779-4.639045,1.389575-1.735847.079505-4.134,1.323888-2.82322-.390266,1.561935-2.0426,3.757077-5.482221,5.63304-7.24248,2.073641-1.945744,5.385028-4.369348,8.05443-5.391551Z" opacity=".35" fill="#754123" mix-blend-mode="multiply" stroke-width="0px" /><g opacity=".66"><path d="m297.884217,54.02389c-5.84707-2.593916-11.187262.560526-16.022324,3.925458-2.412582,1.673413-4.52003,3.503578-6.495795,5.726532-2.095086,2.342168-3.783898,4.871752-5.497257,7.641272-1.113575-6.986697,2.997617-14.144055,8.728116-18.038094,2.940162-2.007881,6.264774-3.632407,9.93812-3.872607,3.577497-.272888,7.830462,1.238693,9.349141,4.617439h0Z" stroke-width="0px" fill="#d8b58e" /></g><g opacity=".66"><path d="m253.906485,81.885864c18.601799-7.028502,41.675951-6.532844,60.366432-.000287-10.160995.996581-20.115645.664683-30.212093.657237-8.977807-.165863-21.229748.05175-30.154339-.656951h0Z" stroke-width="0px" fill="#d8b58e" /></g><path d="m323.560544,243.126402c1.22423-2.191633,2.380322-4.261967,3.076298-8.549017l.074128-.456746-.462736.01198c-2.281111.05728-3.846028-.591524-4.017495-.666026l-.856961-.37251-.061773-.932212c-.140019-2.109644.725553-3.684669,1.489667-5.07475.478835-.871936.931463-1.695577,1.224604-2.706783l.140019-.483702-.503544-.006364c-1.725527-.021714-4.767008-.492687-5.750136-3.403134-.717316-2.113762-1.270653-4.97217-1.912719-8.287698-2.24517-11.596488-5.319596-27.478528-18.516568-27.478528-5.978883,0-10.812906,1.91459-14.367665,5.690235-4.818299,5.118179-7.342383,14.01013-6.752731,23.772519.655543,27.103023,14.730815,54.993746,27.63839,67.473776,1.786552,1.761468,3.711999,3.64798,5.45662,5.352168,1.790296,1.628188,3.555882,3.346977,5.257449,5.118927l.519642.544352c.341062.357161.682124.713947,1.011955,1.072605l.546224.59377.11531-.798557c1.247816-8.632879,3.743822-15.387482,5.56594-20.319592.919483-2.486272,1.713173-4.633354,2.089427-6.315827l.074876-.334698-.324215-.111566c-.60575-.208905-1.140368-.561573-1.588129-1.048644l-.314107-.34256-.071507-.459367c-.388983-2.495632.550716-4.73556,1.463834-6.912218.456746-1.090575.929591-2.21784,1.28151-3.445065l.122049-.425298-.438402-.060276c-1.701941-.232866-3.098761-1.233964-3.83854-2.093545l-.51178-.595268.183073-.762991c.795937-3.315903,1.894374-5.282907,2.957994-7.187389Z" stroke-width="0px" fill="#e7caae" /><path d="m341.513867,122.619453c-2.972699.475695-5.979558.961004-8.75051,2.137884-3.916981,1.663622-7.163157,4.624087-11.037935,6.383767-11.460778,5.204763-27.25897-.257812-38.830935,4.694825-8.025369,3.434744-11.638686,11.64579-10.67102,20.321482,1.006647,9.025175,8.993706,14.645618,18.069676,14.339221,3.671774-.123956,7.320711-.364406,10.907109-1.161293,12.152388-2.700224,43.329645-7.245464,56.921131-26.594429.837611-1.192431,2.463044-6.901152,2.201749-9.954346-.419442-4.90113-1.361729-10.94952-2.469052-11.450879-4.519096-2.046096-11.340763.483749-16.340215,1.283767Z" stroke-width="0px" fill="#e7caae" /><path d="m272.073579,153.527425c5.802002,3.996959,12.693441,6.212877,19.666861,7.218022,6.97342,1.005145,14.06221.846682,21.094793.420448,3.069751-.186053,6.150138-.424698,9.148423-1.109006,2.669221-.609205,5.244819-1.565105,7.811398-2.518282,4.533907-1.683806,9.085314-3.375483,13.337874-5.679231,6.469014-3.504472,12.153697-8.3942,16.795981-14.101972-1.921671,7.465408-7.227551,13.989071-14.144887,17.391364-3.090913,1.520266-6.439516,2.429946-9.662125,3.646391-4.702853,1.775195-9.141383,4.205824-13.874784,5.897881-5.157911,1.843808-10.587204,2.783425-15.984984,3.714896-5.855739,1.010497-11.818206,2.023983-17.710971,1.258408-4.34713-.56477-8.987854-2.173733-12.416229-5.053936-2.889958-2.427875-4.100639-6.740806-4.06135-11.084982Z" fill="#754123" mix-blend-mode="multiply" stroke-width="0px" opacity=".25" /><path d="m237.008096,141.874357c2.93763,10.653286,1.937194,23.035262-5.317873,31.371098-5.605964,6.441071-13.975154,9.576277-21.639708,13.340426-5.516111,2.709024-10.818361,5.853368-15.841212,9.394167,2.982172-4.129629,6.645278-7.766335,10.796369-10.718559,7.919483-5.632276,17.958853-9.157142,22.95986-17.489649.853011-1.421258,1.526741-2.941274,2.198155-4.456796,2.039024-4.602504,4.124191-9.599743,3.05289-14.518379-.483865-2.221561-1.58658-4.252349-2.361429-6.389887-.955089-2.634758-1.407641-5.419279-2.036288-8.15039-.83132-3.611615-1.977129-7.141894-3.267645-10.613458-.688789-1.852883-4.201997-7.854231-3.090124-9.387729,6.559239,7.211119,11.969117,18.270494,14.547007,27.619157Z" stroke-width="0px" opacity=".66" fill="#d8b58e" /><path d="m315.135245,166.252217c-5.96447.086108-11.831974,1.113319-17.75208,1.731892-.018158.001872-.035753.001966-.053724.003744-.698972.247467-1.401687.464234-2.11058.631208-2.588104.609494-5.210838.545756-7.816725.458337-2.076136-.069635-4.176982-.158832-6.159523-.996325-1.600484-.675947-3.074426-1.827547-4.455522-3.161096-.738094-.712543-3.39471-7.154724-3.867181-5.476462-.425485,1.5111,1.543578,6.284532,2.117693,7.342536.881857,1.62538,2.012866,2.957806,3.264238,3.918284,2.72962,2.095043,5.90981,2.598587,9.018867,2.696862,8.547036,0,12.255788-1.13915,20.374659-1.869713,7.367767-.655996,17.359561-4.078961,18.597402-6.869133-2.175722-1.213279-1.211501.649979-3.501784-.015578-2.430302.996418-5.029263,1.567538-7.655741,1.605444Z" fill="#754123" mix-blend-mode="multiply" stroke-width="0px" opacity=".25" /><path d="m242.307492,213.859258c-4.128185-1.892748-8.689183-2.731273-13.229332-2.838329-2.899964-.068381-5.82157.157748-8.627889.891942-9.368668,2.451046-16.593406,10.506913-19.865329,19.621412-3.271924,9.114499-3.040055,19.153587-1.359878,28.690703-.843439-8.889215-.005499-18.130134,3.883961-26.167648,3.88946-8.037514,11.128119-14.721589,19.864304-16.567832,2.154091-.455232,4.358606-.617546,6.557245-.733004,3.22609-.169414,6.508885-.2348,9.633744.584802,1.445507.379136,5.616394,2.209915,8.416097,1.873075-.855755-3.092614-4.006091-4.774286-5.272923-5.355121Z" fill="#754123" mix-blend-mode="multiply" stroke-width="0px" opacity=".25" /><path d="m202.273279,277.069497c3.06136,1.89198,6.41092,3.856324,9.99439,3.52428,3.260327-.302102,6.012591-2.448589,8.558375-4.507711,1.077646,2.325837.556958,5.231628-1.064779,7.216776-1.621737,1.985147-4.21112,3.062262-6.774271,3.095375s-5.08249-.911102-7.177654-2.387967c-1.077948-.759837-2.052065-1.65544-3.022742-2.54825-1.533359-1.410355-3.066718-2.820709-4.600077-4.231064-.538642-.495433-3.208687-3.251-1.547507-3.543659.629676-.110933,2.109571,1.203892,2.653023,1.539756.993745.614154,1.98749,1.228307,2.981241,1.842464Z" fill="#754123" mix-blend-mode="multiply" stroke-width="0px" opacity=".25" /><path d="m337.814678,387.907941c4.593676,1.789151,9.312906,3.436876,14.225847,3.844215,13.027342,1.080116,26.213197-7.802603,30.106505-20.281403,2.238304,8.191805-1.717928,17.3196-8.485565,22.449395-6.767637,5.129794-15.819639,6.602718-24.221182,5.365873-4.92827-.725522-9.685785-2.307118-14.386238-3.95635-18.214719-6.390934-36.033011-13.911491-53.318471-22.5041-12.643593-6.285135-25.120757-13.226329-35.654316-22.628856-10.533559-9.402528-19.086052-21.5085-22.182415-35.284418-2.508779-11.161714-1.352761-22.809459.472644-34.103074,3.258512-20.160114,8.59774-39.917069,13.927669-59.631025,1.161319-4.295403,6.14063-3.197586,9.281258-1.963819,1.038933,1.513951-.906193,13.442717-1.641298,17.57559-.74927,4.212507-1.773694,8.357988-2.902934,12.477961-19.137339,65.644367,53.511723,116.485491,94.778496,138.640011Z" fill="#754123" mix-blend-mode="multiply" stroke-width="0px" opacity=".25" /><path d="m241.522911,377.97975c.414665.035848-2.20779-4.292605-2.054046-4.67938.076394-.192184.028861-.409907-.034787-.60668-.553478-1.711109-2.220945-2.955925-2.513042-4.730442-.125918-.764963-.013534-1.653569-.551061-2.212218-.280202-.291212-.68286-.422897-1.068344-.544221-.929516-.292547-5.256776-2.167116-6.906431-2.37737-.16268,8.010054,10.922339,14.959654,13.127711,15.150311Z" fill="#754123" mix-blend-mode="multiply" stroke-width="0px" opacity=".25" /><path d="m264.398598,363.599918c-3.121224-2.264919-6.648091-3.906865-9.875266-6.018193-9.031596-5.908499-15.238478-15.116429-22.084804-23.472826.049606-.392914-.008236-.79968-.226501-1.217304-1.170506-2.238244-3.760295-1.178368-5.349734-.166787-3.000486,1.909536-5.95511,3.890767-8.86069,5.941539-1.937615,1.367618-3.887584,2.799723-5.276355,4.72255-3.05084,4.22406-2.835383,9.907275-2.375268,15.097523.203102,2.290096.428855,4.578132.677257,6.863736.930714,8.566613,2.331278,17.487017,7.419506,24.441353,3.303923,4.515423,8.110803,7.960488,13.51763,9.399426,5.406827,1.438938,11.381031.808853,16.253615-1.941359,2.315179-1.306781,4.52366-3.346789,4.78086-5.993016.163979-1.686311-.555583-3.433927-1.858995-4.516079-1.303599-1.082058-3.153795-1.467578-4.781048-.996231-2.972033.860892-4.6356,4.121573-7.449269,5.409074-1.630622.74605-3.48868.75672-5.281971.750823-2.479159-.008236-5.043302-.040433-7.301763-1.063058-2.458006-1.112851-4.274134-3.277903-5.764924-5.52691-6.118341-9.23086-8.022823-21.141081-5.088228-31.81949.968339-3.523591,2.498439-7.001415,5.125479-9.541598,1.334111-1.290027,2.880496-2.289909,4.449719-3.259278.190935.000094.402086-.004773.655543-.015069,1.439312-.058965,2.696675-.002808,4.036589.618573,1.858059.861641,3.351844,2.346159,4.681649,3.903777,2.574626,3.015836,4.691009,6.422339,6.254429,10.066575.708331,1.6514,1.23284,3.764226.013291,5.083923-.758873.82102-1.954649,1.03498-3.061885,1.189038-3.007599.418466-5.975876-.384524-9.232264,1.288811.570567.308896,6.844081,1.316983,10.108506,2.524272,6.396507,2.365534,13.431335,2.022974,20.240972,1.648779,1.862551-.102394,3.731842-.205442,5.564255-.554086.394037-.074876.81634-.178955,1.072231-.487633.613425-.739966-.2046-1.796473-.982566-2.360854Z" fill="#754123" mix-blend-mode="multiply" stroke-width="0px" opacity=".25" /><path d="m277.457909,223.266951c17.760367,59.966515,48.83486,57.801622,50.890593,86.005434v2.970655l-10.831821-14.504787-18.834574-19.051064-14.504787-23.111306-7.480644-22.784438.761233-9.524495Z" fill="#754123" mix-blend-mode="multiply" stroke-width="0px" opacity=".25" /><path d="m318.199569,201.98647c.571469-2.496974,1.33204-5.023387,2.898425-7.050182,2.091276-2.705968,5.447867-4.234032,8.840225-4.667171,25.828708-4.022884,27.628993,21.667186,25.806688,33.789746-.794225,4.889058-1.824561,9.77453-3.714425,14.352969,1.719877-10.606652.32903-21.698724-3.956386-31.552366-.632195-1.453635-1.331313-2.890119-2.272753-4.165429-1.36545-1.849688-3.215609-3.314847-5.258787-4.368992-4.727228-2.438938-11.047996-2.431427-14.90691,1.229705-1.118576,1.061244-1.978225,2.362747-2.776528,3.6819-.665575,1.099837-1.834316,9.306085-2.90314,9.132633-1.990663-.323051-2.027626-9.19775-1.756407-10.382813Z" fill="#754123" mix-blend-mode="multiply" stroke-width="0px" opacity=".25" /><path d="m364.170138,172.06618c-2.164894,2.814362-2.550946,4.600399-4.824084,6.00758-2.273138,1.407181-1.021128,6.00758-1.021128,6.00758l5.614859-6.00758.230354-6.00758Z" fill="#754123" mix-blend-mode="multiply" stroke-width="0px" opacity=".25" /><path d="m366.443276,185.813255c-2.002527,1.353058-4.708644,3.626197-3.193218,6.819415,3.481298-2.786581,3.193218-6.819415,3.193218-6.819415Z" fill="#754123" mix-blend-mode="multiply" stroke-width="0px" opacity=".25" /><path d="m370.01535,193.769238c-2.760239.92008-5.358112,3.365836-1.515426,14.45579,2.219016-4.389035,2.483219-11.433522,2.483219-11.433522l-.967794-3.022269Z" fill="#754123" mix-blend-mode="multiply" stroke-width="0px" opacity=".25" /><path d="m337.169695,247.837456c3.944326,1.515426,13.902836,3.24734,20.397517-7.144149,0,3.680319-3.572074,11.149202-3.572074,11.149202l-6.061702,3.733374s-4.529181.441162-5.500586,0-4.241435-1.027257-4.457924-1.460236-.311524-1.217096-.80523-2.105939,0-4.172252,0-4.172252Z" fill="#754123" mix-blend-mode="multiply" stroke-width="0px" opacity=".25" /><path d="m348.474726,386.715397c-13.855386-8.735425-6.924445-23.271016-10.389916-43.892431l5.194958,14.66635,5.736114,22.298404-.487101,3.788564-.054055,3.139113Z" fill="#754123" mix-blend-mode="multiply" stroke-width="0px" opacity=".25" /><path d="m189.688576,198.596778c1.470482,1.86559,2.247791,4.73556-1.107422,6.683845-1.318904-1.787404-.52511-4.45744-.52511-4.45744l1.632532-2.226405Z" fill="#754123" mix-blend-mode="multiply" stroke-width="0px" opacity=".25" /><path d="m185.225941,207.228908c.376557.882751,1.693355,3.750874-.73304,6.213621-2.209906-3.10681-.766644-5.691686-.766644-5.691686l1.499684-.521935Z" fill="#754123" mix-blend-mode="multiply" stroke-width="0px" opacity=".25" /><path d="m179.757715,212.186851c.937691,2.130836,2.236627,4.440056,2.453116,7.615233.216489,3.175177-.476231,8.97295.230945,13.081937s-2.611468-.742044-2.684061-1.463675-2.165323-15.298581-2.165323-15.298581l.649468-6.494681,1.515855,2.559767Z" fill="#754123" mix-blend-mode="multiply" stroke-width="0px" opacity=".25" /><path d="m285.526444,230.809556c-2.539445-2.912592-3.618558-6.846005-3.65517-10.687608,1.925072,1.002478,3.882598,2.120676,5.770799,3.175822l-1.685838,1.565381c-.498303-.812222-1.013265-1.615553-1.494908-2.436854-1.948093-3.251322-4.071239-6.802807-5.937496-10.104402,3.095183.186847,6.532517.471622,9.331433,1.917811.000024-.000118-2.511706,2.292037-2.511706,2.292037-1.304308-2.958773-4.077441-5.724837-5.152597-9.027867-.000025.000015-1.102768-3.339474-1.102768-3.339474l3.442818.915645c2.283119.536714,4.944176,1.093925,7.275359,1.232809.000009-.000062-1.481608,3.121443-1.481608,3.121443-1.425207-1.786863-2.915267-3.681388-3.980638-5.816202-.352878-.702716-.750461-1.791602-.743122-2.670302-.262111-5.209036,3.807979-9.551093,8.667832-10.60827,7.616455-2.300415,16.090851,2.892481,16.421438,11.009799-1.34021-5.029523-5.875885-8.671452-10.870213-8.902959-4.839437-.145-11.015784,3.002596-10.451188,8.530643,1.171397,3.271705,4.384855,6.428876,6.521143,9.223824.000127-.000078-4.084382-.063536-4.084382-.063536-2.939716-.147187-5.471261-.703751-8.311672-1.375302.000013-.000084,2.340089-2.423835,2.340089-2.423835,1.02971,2.939906,3.742434,5.746354,4.904752,8.869597.000029-.000015,1.695418,4.528324,1.695418,4.528324-2.626036-1.369403-6.051858-3.514837-9.050715-3.810469.000026-.000087,1.665653-2.471384,1.665653-2.471384,2.35398,4.670126,4.791761,9.818583,7.023399,14.570783-2.297703-1.73716-5.445003-3.94167-7.708338-5.654538.000007.000041,1.352463-.725044,1.352463-.725044-.291093,3.126326.378627,6.324055,1.809763,9.164127h0Z" stroke-width="0px" fill="#eeddcf" /><path d="m288.288336,266.721428c4.765047,16.656365,9.383487,26.470549,24.970721,40.903173,15.587234,14.432624,19.960441,19.917021,23.691213,27.99929l-8.601768-23.380851-15.729199-19.458457-13.937196-14.097394-8.515248-11.965762h-1.878523Z" stroke-width="0px" opacity=".66" fill="#d8b58e" /><path d="m352.587957,238.69078c-5.79109,2.110771-11.203324,2.706117-14.558909,7.577128.378856-3.355585,2.273138-5.953457,2.273138-5.953457,0,0,4.532968-2.586029,4.736625-2.640326s3.219359-.042453,3.977072,0,3.572074,1.016656,3.572074,1.016656Z" stroke-width="0px" opacity=".66" fill="#d8b58e" /><path d="m202.061533,269.711046c7.968181-.224655,14.679351.803232,17.493713,3.969608,2.814362,3.166376-2.381383-4.906873-2.381383-4.906873,0,0-2.381383-1.786466-3.030851-2.052353s-5.848743-.915355-6.279957-.80711-4.97749,1.840678-4.97749,1.840678l-.824032,1.956051Z" stroke-width="0px" opacity=".66" fill="#d8b58e" /><path d="m351.271548,380.671371c4.708075-9.398899,20.672678-20.548437,30.875483-9.200618.628176-4.631691-3.79684-6.701571-3.79684-6.701571l-8.370922-2.877915s-4.907092-1.010284-5.195745,0-4.762766,4.221844-4.762766,4.221844l-7.360638,8.911844-1.388572,5.646417Z" stroke-width="0px" opacity=".66" fill="#d8b58e" /><path d="m329.351432,262.883466s1.659752,32.473404.793794,44.019503l3.752482-25.257092-4.546277-18.762411Z" stroke-width="0px" opacity=".66" fill="#d8b58e" /><path d="m327.836007,166.283412c6.350355,2.860162,24.691271,12.097041,32.515227,7.622928l-28.299026-8.917629-4.216202,1.2947Z" stroke-width="0px" opacity=".66" fill="#d8b58e" /><path d="m336.658238,144.663329c-4.584872,8.617555-21.593998,20.709303-24.585025,1.326311l5.372015,1.070939,10.971096-.527615,8.241914-1.869635Z" stroke-width="0px" /><path d="m291.387958,122.127722c2.734745-5.838213,10.979924-7.173217,16.156996-3.852954.731945.510938,1.462739,1.129043,1.833752,1.976177-1.639319-.292386-3.108662-.180565-4.700365-.138462-.000003.000034-2.235065.099526-2.235065.099526-3.838665.106506-7.203132.93514-11.055318,1.915714h0Z" stroke-width="0px" /><path d="m331.026607,82.933465c.238344-5.208119,6.926648-7.926377,11.133947-5.272806.58721.393109,1.16769.897027,1.418526,1.5989-1.282436.023726-2.282217.340108-3.439452.613023-.857559.223151-2.131853.506097-2.958372.749977-1.637253.435407-4.499542,1.658656-6.154649,2.310906h0Z" stroke-width="0px" /><path d="m335.782009,113.105673c2.734683-5.838266,10.979838-7.173156,16.156809-3.852954.731945.510938,1.462739,1.129137,1.833752,1.97627-1.639312-.29257-3.108655-.180565-4.700365-.138555-.000003.000034-2.235065.099526-2.235065.099526-3.838604.106662-7.202984.935138-11.055131,1.915714h0Z" stroke-width="0px" /><path d="m284.481169,91.76617c.238341-5.208219,6.926784-7.926174,11.134134-5.272806.587023.393108,1.167502.89712,1.418526,1.598993-1.282686.023527-2.282.340053-3.439452.61293-.857382.223081-2.132176.506102-2.958372.749977-1.637508.435384-4.499574,1.65861-6.154836,2.310906h0Z" stroke-width="0px" /><path d="m299.144235,93.559936l-.000391-.000609h-.000043c-.837848-1.270905-2.368422-2.002641-3.967621-1.739927-2.168984.356344-3.638457,2.403473-3.282157,4.572501.127465.776007.474024,1.459906.962529,2.00525l-.001348.001044c5.556339,8.924559,2.783823,20.791282,2.783823,20.791282l7.854657-1.290301c2.053609-13.354766-3.49525-22.952047-4.261124-24.198163-.028659-.047707-.05784-.094761-.088325-.141076Z" stroke-width="0px" /><path d="m344.918226,85.74107c-.028833-.048011-.058231-.095414-.088934-.142033l-.00013-.000217h0c-.837891-1.270905-2.368465-2.002641-3.967664-1.739927-2.168984.3563-3.638457,2.403473-3.282157,4.572457.127465.776007.474024,1.459949.962529,2.005294l-.001348.001044c5.556382,8.924559,2.783823,20.791282,2.783823,20.791282l7.854657-1.290301c2.053392-13.352983-3.493815-22.949437-4.260776-24.197598Z" stroke-width="0px" /><circle cx="295.72489" cy="95.903579" r="2.722138" stroke-width="0px" fill="#fff" /><circle cx="341.528834" cy="88.100134" r="2.722138" stroke-width="0px" fill="#fff" /><path d="m341.489136,124.367678c2.829423-1.333304,6.510096-2.763702,10.942843-3.767508,4.034853-.9137,7.643857-1.236506,10.578255-1.30193.770809.004015,1.938175.123264,2.852024.902697,2.287745,1.951259,1.313528,6.584738.867012,9.049276-.574241,3.169477-4.443585,8.275844-7.784667,9.782615-3.540312,1.59662-11.290778-3.534808-11.290778-3.534808,0,0-6.697297-4.384572-8.406042-8.001159-.590597-1.24974.667172-2.758349,2.241354-3.129182Z" stroke-width="0px" /><path d="m344.40331,128.638976c-.170399,0-.339757-.071074-.460196-.20995-.598923-.689922-.394623-1.724507.148839-2.32581.492015-.544503,1.184019-.789841,1.689416-.969162,4.885955-1.735213,9.949742-3.0874,15.050405-4.019092-8.013545,2.837851-9.818152,3.453475-14.642995,5.166979-.496625.176049-.928867.345556-1.193089.63788-.196568.217682-.2611.56294-.13278.711036.220507.253963.193297.638475-.060666.859131-.115235.09992-.257531.148987-.398935.148987Z" stroke-width="0px" fill="#fff" /><path d="m384.234027,368.740373c-2.544301-6.099809-9.988516-9.745917-17.333895-8.500722-7.338265.689612-14.302148,10.698719-17.47017,15.94007-1.597489-3.732216-2.612064-9.347574-3.825063-16.061744-2.264638-12.534877-5.284779-29.19348-14.481102-46.065948,8.005601-30.878199,2.420381-47.626186-.595268-56.652166-.56644-1.694828-1.013453-3.033244-1.227974-4.063918-.078433-.377658-.156305-.766173-.23455-1.151412l.324777-2.992624-.837493.344244c-.370638-1.968876-.737907-3.992412-1.098999-6.043839,1.248377-2.386499,2.413642-5.298069,2.969787-10.797931l.279289-2.763315-2.682448.719188c-1.201018.32122-2.273623.301003-3.055707.198048.180452-.547347.487446-1.123895.894025-1.8633.873434-1.590001,1.961014-3.568611,1.961014-6.613087l-.00599-2.370588-2.319298.497554c-.403958.086857-1.511194.225472-2.506489.107448-.622598-11.873063-.038-20.33775,11.663877-21.447232,3.458168-.077497,6.586506,1.300978,9.032344,3.99653,5.217016,5.75051,7.158936,17.034763,5.511654,31.879391-5.39934.447012-9.420204,2.1512-11.966377,5.076248-3.00554,3.452178-3.074801,7.625042-2.848674,9.805444.315979,3.043353,3.009284,5.949307,6.549816,7.066838.755503.238107,1.896994.494559,3.31478.494559,3.078545-.000374,7.455821-1.20888,11.98884-6.43226,2.73898-3.162781,3.339863-5.324463,4.249238-8.596938.135526-.486322.278915-1.003344.439899-1.559676.861453-2.976338,2.559651-6.59624,4.201691-10.096713,1.521864-3.244396,3.095766-6.599235,4.030973-9.50781,2.373583-7.380196,2.442469-8.748937,2.732615-14.509181l.029951-.627839c.154245-1.713173.198048-3.364198.236984-4.820919.0906-3.394149.161733-6.0751,1.438002-7.151448l3.029875-2.555907-3.884589-.788074c-.743523-.150876-1.919832-.445515-3.057579-.73042-.303624-.076-.603504-.15125-.895148-.223506.284156-.754754.423801-1.319697.546972-1.816877.211526-.85434.3785-1.528977,1.411421-3.211825l2.411396-3.927643-4.485473,1.059127c-2.339889.552214-2.913816.557455-4.257848.113812,2.491888-4.822791,2.507986-11.018442,2.507237-11.320943l-.039685-3.916412-3.092771,2.439849c-.096965.076374-2.424125,1.860305-7.716017,1.263165-1.880896-.212275-4.461512-1.291244-7.449456-2.540932-4.798082-2.006314-10.769852-4.503443-17.632277-5.064268-.109132-.012355-.220885-.021153-.330954-.032384,14.242247-5.243035,24.612633-12.179775,29.458261-19.946146,3.000673-4.809313,3.898442-9.811808,2.659611-14.903031-5.42929-20.631078-17.533066-35.613104-35.975881-44.530139-6.066114-2.93291-12.363035-4.971795-18.500095-6.370674-.580667-13.114982-3.437016-22.141898-8.51083-26.820926-2.615059-2.41177-5.784579-3.597438-9.168619-3.416612-12.40403.646932-20.389228,10.141639-24.387629,29.016865-1.422465.238481-6.683471.931744-13.552635,4.130839-.320471-1.214777-.690361-2.413548-1.082526-3.601557-3.549517-11.177929-8.90599-18.753271-15.457304-21.660161-5.053036-2.242549-10.738778-1.667124-16.442865,1.665626-15.309985,8.943241-11.39245,32.296078-3.386287,49.576436,5.477211,11.821492,22.144331,47.795126,10.35878,61.418519-6.86879,7.445713-10.484947,9.517918-14.672037,11.916959-4.519167,2.589601-9.621996,5.513526-19.471991,15.644682-2.3631-.79107-5.071381-.172216-6.520989,1.163954l-1.269156,1.170319,1.031797,1.384091c.353791.475465.190561,2.259771-.319722,3.904806l-3.805969,2.210352-.439525,3.727723-4.242499-1.125018-.491564,1.852443c-1.380347,5.203538-.849099,8.589825.974142,14.583683,1.288623,13.203149,3.830304,24.647638,7.595278,34.281614-5.534304-5.634265-9.999186-12.762127-13.097199-21.004899-4.945214-13.156538-6.179178-28.273716-3.661083-44.97191,1.391204-10.772098,7.155192-22.216587,13.828929-35.468218,10.786699-21.417655,24.210921-48.072543,24.210921-83.746672,0-20.097209-5.134277-35.338308-15.260192-45.299494-10.312731-10.145757-25.62047-14.919504-46.877515-14.559348-15.864819.879424-30.868559,5.555083-43.389396,13.520812-11.68896,7.436353-20.716063,17.314801-26.105295,28.567232-7.925671,16.547692-6.8321,33.902552,2.999924,47.614674l1.676109,2.337268,1.51213-2.446588c9.891177-16.004089,18.911167-16.06137,21.442739-15.695224,2.511356.361279,3.950481,1.670119,4.260844,2.801876,1.323815,4.879323-1.546947,7.380196-10.043176,13.893697-8.424348,6.458467-21.155588,16.21861-34.624361,35.802167-14.886184,22.073199-38.511571,67.523943-29.493828,123.890549,4.21779,29.578064,20.12716,55.726038,44.797073,73.62787,21.039155,15.266556,47.15643,23.36594,74.110449,23.36594,7.774795,0,15.622594-.674262,23.434452-2.04525,13.845776-2.624793,25.749444-7.526205,35.445007-12.856939-1.344032,3.320489-2.504242,7.896001-2.503868,13.833328.709829,20.627335,8.704386,31.835963,15.318595,37.634394,2.971471,2.491139,8.64411,6.330803,15.366891,6.330803.878675,0,1.775695-.065517,2.686566-.208531,3.764413-.589652,7.375703-2.821344,9.659809-5.969524,1.923576-2.651375,2.72962-5.726924,2.273249-8.667322-.555209-5.585782-4.784979-9.511179-8.876227-13.307789-2.630971-2.441721-5.151499-4.788161-6.315827-7.309999,3.94786,1.17659,8.357146,1.771015,13.175632,1.771015,5.216828,0,10.914738-.700469,17.009867-2.092796,27.843364,14.794648,72.774279,32.960232,83.332418,33.139561.220885.003744.441771.005616.662656.005616,6.992336,0,14.010504-1.874532,19.83327-5.307616,6.697323-3.948983,11.132628-9.520913,12.826333-16.113783.689986-2.685818,1.177058-6.690958-.420806-10.521262Zm-57.217951-109.464106c.017596-.042212.035941-.086295.053724-.128787,2.792329,8.377456,7.46724,23.350403,1.278702,50.124906-2.414391-3.913791-5.189499-7.817849-8.392525-11.666217.972271-9.896886,3.746255-17.424963,5.78982-22.954026,1.474691-3.991288,2.540557-6.875154,2.540557-9.335968v-2.313307l-2.272874.429791c-.108196.020591-.198797.030699-.275171.03332.051665-1.265786.607248-2.59035,1.277766-4.189711Zm-3.323765-34.767749c-.281161.970773-.729296,1.786177-1.192782,2.62966-.789198,1.435756-1.683222,3.062821-1.535716,5.28403l.077497,1.165077,1.071107.465731c.231368.100334,1.852443.758498,4.180351.697848-.685119,4.220785-1.830729,6.27165-3.03287,8.423973-1.075226,1.925448-2.187141,3.916038-2.995806,7.284354l-.228748.953926.639819.743897c.744646.865197,2.214471,1.968501,4.077022,2.223456-.347052,1.209254-.814281,2.322667-1.271402,3.413242-.929217,2.215219-1.889881,4.506064-1.484425,7.108769l.089477.573928.392727.427919c.49381.537238,1.08496.92435,1.745744,1.151974-.36989,1.653646-1.152723,3.772649-2.074826,6.266783-1.870975,5.063145-4.334971,11.743901-5.585782,20.397932-.420431-.457027-.858458-.910965-1.291993-1.36584l.008236-.008611c-.006364-.006177-.092285-.089571-.223506-.216954-1.670119-1.741439-3.43402-3.466124-5.306119-5.16872-1.734138-1.694267-3.659399-3.58031-5.445389-5.341498-12.855909-12.429863-26.870532-40.185059-27.524203-67.210211-.584036-9.672538,1.901487-18.45779,6.648653-23.500343,3.479508-3.695901,8.219561-5.569684,14.088376-5.569684,12.880619,0,15.920602,15.702712,18.140314,27.168166.643937,3.325637,1.199895,6.197897,1.925822,8.337865.947561,2.804871,3.673812,3.63263,6.10842,3.66333Zm1.13494,25.956103c-.196363-.065891-.37719-.149846-.533682-.242038.099024-.336289.20329-.650302.309801-.954862.074502.400776.149004.800242.223881,1.1969Zm-55.093519-172.494902c3.516197-17.750582,10.413815-26.650021,21.087825-27.206727,2.362352-.12392,4.504941.686243,6.369738,2.406529,2.92355,2.695739,6.462398,8.90936,7.236995,23.196719-3.212012-.603972-6.354201-1.04097-9.370411-1.350022-.000187-.000562-.000562-.00103-.000936-.001591-.047921-.004961-.087418-.00833-.134029-.01301-.028266-.002901-.05728-.006552-.085734-.00936-.012916-.00131-.026768-.001685-.039872-.002995-1.516435-.14863-2.193318-.156117-3.295499-.235112-9.31519-.386924-20.175081,3.054023-21.845013,3.604364l.076936-.388796Zm-95.661759,276.640348c-33.849764,5.940322-68.332234-1.588129-94.604878-20.652418-23.822312-17.286348-39.183213-42.524948-43.257988-71.098544-8.814828-55.098573,14.311507-99.568811,28.871979-121.159057,13.114608-19.068782,25.555702-28.606542,33.787991-34.917877,8.114359-6.220734,13.475138-10.330327,11.409297-17.944886-.784331-2.859157-3.694403-5.052287-7.413141-5.587654-10.565439-1.521864-19.53002,9.097112-23.632126,15.00973-7.509732-12.145706-7.940646-27.060718-1.08758-41.368856,10.832748-22.617925,36.837334-38.285819,66.17467-39.914007,20.09983-.328333,34.509426,4.074401,44.051678,13.46166,9.365919,9.21392,14.114957,23.535535,14.114957,42.566879,0,34.763257-13.196972,60.967014-23.800972,82.022267-6.8321,13.564989-12.732363,25.280531-14.201813,36.661-7.135163,47.311424,16.326432,68.972615,24.37228,74.87709,3.599685,6.785303,7.971907,12.408616,13.10712,16.834562,3.87523,3.658088,7.593968,5.034691,10.798679,5.034317,3.077796,0,5.680501-1.270653,7.488392-3.010407.802301-.772257,1.483677-1.690523,2.031398-2.696675-.692233,5.291424-1.123895,10.807665-1.123895,16.504264,0,12.35742,2.392676,22.00244,6.25368,30.033125-10.286712,8.477042-28.638739,20.662527-53.339726,25.345486Zm46.50931-85.836286c-5.778402-6.118153-12.877624-5.250148-16.940232-3.955909-5.966903-12.13148.773099-32.224946,6.826485-38.192597,4.215918-4.155642,10.561696-7.101655,17.478781-8.093768,3.475951-.626716,6.197523-.386362,8.158349.072256.076748,1.498558-.105389,5.179577-1.871349,13.83417l-.017222.098088c-.61174,4.063544-2.16056,9.353564-3.95385,15.479205-1.662257,5.677693-3.586207,12.271499-5.238168,19.547055,0,0-3.369627.808104-4.442793,1.211501Zm3.469212,3.332844c-.197487.982004-.388609,1.9729-.571682,2.976245-.163979-.797434-.433909-1.587661-.795937-2.361416.459929-.192339.916488-.396284,1.367618-.614829Zm11.984722,91.074547c-3.743073-1.362002-7.640017-.351732-7.640017-.351732,1.333549.900764,3.472582,2.678704,4.984899,3.371031.551652,4.723673,4.399552,8.305762,8.142812,11.77928,3.744196,3.474641,7.28061,6.756849,7.673337,10.919979l.015724.125418c.402835,2.493385-.637947,4.567463-1.581765,5.868441-1.698198,2.340263-4.370912,3.997653-7.150325,4.433434-6.381344,1.001098-12.135598-2.874132-14.964804-5.245469-6.012952-5.271675-13.319395-15.598259-13.980928-34.789838,0-11.106702,4.555669-16.806484,5.323902-17.688435,4.867904-3.071806,9.008197-6.137996,12.364907-8.865931,4.934919,8.740139,11.645158,15.545471,18.719109,22.093977,2.916063,2.69967,8.174448,6.114129,14.834145,9.855236-10.645557,1.88099-19.726758,1.369116-26.740996-1.505391Zm144.906492,15.126537c-3.163155,12.312681-17.608691,18.740448-29.543995,18.536785-13.051711-.222009-86.78628-31.806012-100.851444-44.826275-6.960326-6.443679-13.547393-13.146711-18.292313-21.828914-.52114-.951867-1.002595-2.088117-1.777567-3.540813-3.398267-7.415481-5.484699-16.252679-5.484699-27.417036,0-19.568582,5.172838-37.237923,8.949606-50.139133,1.825487-6.235709,3.403134-11.623818,4.058303-15.936326,1.331865-6.535215,1.935181-12.353676,1.935181-13.223646,5.38268.519174,5.869751-.076093,7.645633-.717971-1.342909-1.685469-8.351718-3.850333-11.192904-4.48098l.01067.023399c-2.346627-.481268-5.377438-.673326-9.063605-.009172-7.642638,1.094693-14.771623,4.428941-19.558099,9.147654-7.200867,7.098286-14.954322,30.698589-6.635175,44.327224l.920231,1.488544,1.569784-.771227c.32122-.157241,7.925671-3.773398,14.429812,3.642739,2.974092,3.391154,1.977861,7.723879-.469101,10.079117-2.598212,2.500499-7.38394,3.266859-13.026253-2.077072l-.068138-.061399c-12.654866-10.886285-20.69697-30.654787-23.256621-57.168158l-.018345-.192058-.056532-.18457c-1.482179-4.844505-1.986846-7.473043-1.408426-10.791566l4.735186,1.255678.73304-6.213621,3.355213-1.948285.241477-.63645c.262068-.692233,1.265412-3.56599.865946-6.047395.683247-.122423,1.533469-.085734,2.184146.356037l1.339914.908251,1.120151-1.168821c10.10158-10.54073,14.916135-13.299552,19.572326-15.967774,4.276193-2.450331,8.315028-4.764762,15.624466-12.689309,12.05286-13.930761.214521-44.101846-9.738429-65.583895-7.330403-15.821391-11.246815-37.00955,1.841212-44.654808,4.660684-2.722882,9.019615-3.21744,12.954372-1.471696,6.503018,2.885551,11.739876,11.631399,14.867091,24.749376.033694.141797.147132.523948.309427,1.052108.994733,3.432897,2.613375,8.21928,2.613375,8.21928,0,0,.93296-4.234356.908251-7.985853.009921-1.062029-.053724-2.050117-.238107-2.823684,7.652746-.235861,15.724426-2.35243,15.807913-2.373957l4.075899-.57112c.044739-.007956,4.96618-.604159,14.562343-.276575,24.560781,1.023748,60.79667,9.768754,71.568019,50.699396.977137,4.016746.238107,8.031246-2.196126,11.933057-6.098498,9.77437-22.209099,18.229978-44.317303,23.303044-2.256776.436623-3.848087.82467-4.298469.93764-4.356311.905069-8.368378,1.59075-11.999885,1.946974-4.855924.4545-9.344017.168098-12.698107-.817651-6.112538-1.796847-9.427505-5.367704-9.453337-5.400088l-1.177806-1.473194.09397,1.884078c.01198.237171.987059,6.125267,8.386348,8.631568,2.653995.898892,5.815465,1.290963,9.351692,1.298732.096216.000842.18457.009734.281535.009734.150876,0,.310924-.009453.463111-.011044.3332-.004305.670518-.012916,1.010083-.02396.412008-.012729.8257-.026862,1.247816-.049793.317102-.017128.640942-.041556.962911-.063832.381121-.026956.758498-.050261,1.147856-.084798.076187-.006552.149191-.009921.225752-.01666-.000374-.002246,0-.004305-.000187-.006552,3.960402-.364648,8.336929-1.10892,13.14175-2.112171l.017222.067108c.115497-.029389,10.771724-2.721103,19.306702-2.350746.645248.033133,1.280574.080679,1.894935.152374,1.841773.157615,3.626266.477244,5.346365.89468.012167-.015069.025458-.028921.037625-.043896,4.224341.989118,8.054458,2.576873,11.308214,3.937565,3.258622,1.362751,6.073228,2.539809,8.498475,2.813482,3.115608.350422,5.497053.020217,7.209478-.479584-.350422,2.589601-1.159836,5.917859-2.855038,8.022261l-1.741251,2.161683,2.638271.862577c.557829.182699,1.028802.349299,1.443618.495682,1.386337.489692,2.326785.788074,3.5147.809414-.096216.31785-.168098.609494-.239605.898143-.198048.799306-.384865,1.554435-1.237707,3.180002l-1.187166,2.261643,2.503494.507662c.743897.150876,1.921329.445889,3.059451.730794.165851.041556.330205.082738.492687.123546-.778715,2.015674-.845729,4.524783-.919108,7.281733-.03931,1.468327-.079743,2.986447-.227999,4.65357l-.035566.704213c-.282659,5.614984-.333575,6.626939-2.553286,13.5283-.86033,2.675709-2.381445,5.917859-3.852393,9.05331-1.704936,3.634877-3.467902,7.393299-4.413217,10.659409-.165103.56981-.312235,1.099935-.451131,1.598612-.851719,3.064692-1.279264,4.603029-3.452178,7.112138-4.945589,5.699594-9.172738,5.450256-11.253179,4.792841-2.347376-.740528-3.756176-2.513602-3.890205-3.805969-.162107-1.561922-.12729-4.533768,1.926571-6.89275,2.073328-2.381819,5.725801-3.679802,10.856334-3.858008l1.631183-.056906.204038-1.619203c2.703039-21.471192-1.927694-31.707924-6.288872-36.514617-3.235036-3.56599-7.383191-5.382493-12.039756-5.251459l-.122049.007488c-9.03796.833749-12.891663,5.441645-14.441792,11.128978-.006552-.016379-.014601-.032103-.020965-.048576-.170344.651893-.318599,1.377726-.447387,2.158875-.112689.644873-.202354,1.297983-.271989,1.957364-2.345504-12.023003-6.162331-29.027067-21.662314-29.027067-6.968001,0-12.647004,2.279613-16.879769,6.775569-7.867267,8.356585-7.994557,21.217735-7.686815,26.290239.682499,28.276711,14.94908,56.519728,28.675428,69.790827,1.648592,1.625942,3.416237,3.358208,5.044425,4.949894l-.010483.011793c.148255.133093.286964.268432.433909.401899,2.410834,2.355238,4.443355,4.330666,5.198109,5.0638,21.690767,22.646565,26.371293,48.472196,29.539689,66.009848,1.467391,8.122034,2.66504,14.717899,5.108445,18.945048.053911.093221-.016098-.058591.163605.276481-1.119216,3.555414,1.370426,6.694515,1.370426,6.694515,0,0,1.028241-2.976713,2.650064-5.769042.146758-.274984.095842-.180639.146758-.274984,2.536252-4.708043,9.921689-16.105921,16.036286-16.619386l.168472-.021714c4.874456-.849848,11.153594,1.232466,13.219809,6.185917,1.189038,2.850546.789946,5.973268.245595,8.091522Z" stroke-width="0px" fill="#0c0c0c" /></g></g></svg>