<svg xmlns="http://www.w3.org/2000/svg" width="216" height="216" viewBox="0 0 216 216" version="1.1">
<g id="surface1">
<path style=" stroke:none;fill-rule:nonzero;fill:rgb(8.627451%,13.333333%,18.039216%);fill-opacity:1;" d="M 130.960938 148.527344 C 130.914062 155.648438 129.996094 159.878906 125.691406 162.8125 C 116.601562 169 111.777344 160.070312 110.925781 155.632812 C 108.609375 143.5625 110.222656 129.9375 110.222656 117.6875 C 110.222656 109.355469 110.519531 101.027344 110.910156 92.703125 C 111.304688 92.699219 111.695312 92.675781 112.089844 92.675781 C 118.359375 92.613281 125.667969 93.011719 131.960938 92.789062 C 136.484375 92.625 136.324219 84.460938 129.113281 84.886719 C 123.460938 85.21875 117.066406 85.125 111.28125 85.039062 C 111.882812 73.203125 112.546875 55.824219 112.679688 43.976562 C 112.703125 42.222656 102.574219 42.570312 102.542969 45.59375 C 102.417969 56.558594 101.808594 74.238281 101.191406 85.28125 C 100.386719 85.320312 91.148438 85.34375 88.691406 85.703125 C 83.066406 86.496094 80.738281 93.449219 87.847656 93.375 C 92.152344 93.335938 96.457031 93.160156 100.761719 93 C 99.542969 114.84375 98.519531 136.753906 100.746094 158.363281 C 101.851562 169.105469 111.839844 175.144531 121.894531 172.441406 C 134.40625 169.09375 139.652344 157.925781 141.140625 145.800781 C 141.320312 144.390625 130.980469 145.339844 130.960938 148.527344 Z M 130.960938 148.527344 " />
<path style=" stroke:none;fill-rule:nonzero;fill:rgb(8.627451%,13.333333%,18.039216%);fill-opacity:1;" d="M 117.101562 175.265625 C 113.226562 175.265625 109.480469 174.144531 106.339844 171.984375 C 101.90625 168.933594 99.152344 164.175781 98.574219 158.585938 C 96.457031 138.03125 97.222656 117.679688 98.449219 95.269531 C 94.96875 95.402344 91.398438 95.527344 87.867188 95.558594 C 87.824219 95.558594 87.78125 95.5625 87.738281 95.5625 C 83.21875 95.5625 81.425781 93.15625 81.253906 90.890625 C 80.996094 87.488281 84.261719 84.125 88.386719 83.539062 C 90.128906 83.285156 94.539062 83.191406 99.121094 83.132812 C 99.703125 71.960938 100.246094 55.636719 100.363281 45.570312 C 100.371094 44.765625 100.679688 43.238281 102.660156 42.125 C 105.460938 40.546875 111.183594 40.246094 113.402344 41.5625 C 114.34375 42.121094 114.875 43.007812 114.863281 44.003906 C 114.734375 55.265625 114.125 71.519531 113.574219 82.886719 C 118.632812 82.960938 124.105469 82.996094 128.984375 82.707031 C 132.109375 82.53125 134.726562 83.679688 136.152344 85.878906 C 137.382812 87.78125 137.53125 90.246094 136.535156 92.160156 C 135.640625 93.875 134 94.898438 132.039062 94.96875 C 128.332031 95.105469 124.28125 95.023438 120.359375 94.945312 C 117.785156 94.894531 115.335938 94.859375 112.996094 94.851562 C 112.703125 101.378906 112.40625 109.507812 112.40625 117.6875 C 112.40625 121.25 112.269531 124.988281 112.136719 128.605469 C 111.804688 137.582031 111.464844 146.867188 113.066406 155.222656 C 113.480469 157.371094 115.195312 161.21875 118.027344 162.390625 C 119.847656 163.140625 122.011719 162.675781 124.464844 161.007812 C 127.683594 158.8125 128.730469 155.777344 128.777344 148.515625 C 128.785156 147.394531 129.289062 145.804688 131.644531 144.585938 C 134.265625 143.226562 140.171875 142.273438 142.222656 143.703125 C 143.019531 144.257812 143.425781 145.144531 143.308594 146.070312 C 141.40625 161.558594 134.195312 171.40625 122.457031 174.550781 C 120.679688 175.03125 118.875 175.265625 117.101562 175.265625 Z M 103.074219 90.726562 L 102.941406 93.121094 C 101.652344 116.289062 100.757812 137.175781 102.917969 158.140625 C 103.359375 162.433594 105.453125 166.074219 108.816406 168.386719 C 112.339844 170.8125 116.902344 171.523438 121.328125 170.335938 C 127.96875 168.554688 136.25 163.097656 138.726562 147.332031 C 136.839844 147.398438 133.886719 148.054688 133.140625 148.777344 C 133.074219 156.175781 132.007812 161.148438 126.921875 164.617188 C 122.257812 167.789062 118.605469 167.351562 116.363281 166.425781 C 111.574219 164.449219 109.34375 158.972656 108.78125 156.046875 C 107.085938 147.203125 107.433594 137.667969 107.773438 128.445312 C 107.910156 124.703125 108.039062 121.167969 108.039062 117.6875 C 108.039062 108.539062 108.40625 99.472656 108.726562 92.601562 L 108.824219 90.546875 L 111.386719 90.507812 C 111.617188 90.5 111.847656 90.492188 112.078125 90.492188 C 114.738281 90.46875 117.640625 90.523438 120.445312 90.578125 C 124.308594 90.65625 128.296875 90.734375 131.882812 90.605469 C 132.265625 90.59375 132.5 90.453125 132.660156 90.144531 C 132.886719 89.710938 132.929688 88.9375 132.484375 88.253906 C 131.933594 87.398438 130.78125 86.96875 129.238281 87.066406 C 123.464844 87.40625 116.976562 87.308594 111.25 87.222656 L 108.988281 87.1875 L 109.101562 84.925781 C 109.660156 73.957031 110.316406 57.082031 110.484375 45.15625 C 108.847656 44.941406 105.679688 45.285156 104.722656 45.960938 C 104.589844 56.742188 103.988281 74.332031 103.371094 85.40625 L 103.261719 87.371094 L 101.292969 87.464844 C 101.105469 87.472656 100.476562 87.480469 99.582031 87.492188 C 96.945312 87.527344 90.773438 87.605469 89.003906 87.863281 C 86.792969 88.175781 85.546875 89.789062 85.605469 90.5625 C 85.628906 90.832031 86.3125 91.191406 87.824219 91.195312 C 91.691406 91.15625 95.636719 91.007812 99.453125 90.863281 Z M 133.144531 148.542969 Z M 138.976562 145.535156 C 138.976562 145.535156 138.976562 145.539062 138.976562 145.542969 C 138.976562 145.539062 138.976562 145.535156 138.976562 145.535156 Z M 138.976562 145.535156 " />
</g>
</svg>