<svg xmlns="http://www.w3.org/2000/svg" width="216" height="216" viewBox="0 0 216 216" version="1.1">
<g id="surface1">
<path style=" stroke:none;fill-rule:nonzero;fill:rgb(8.627451%,13.333333%,18.039216%);fill-opacity:1;" d="M 136.796875 64.984375 C 136.019531 63.675781 134.867188 62.75 133.117188 62.691406 C 128.308594 62.53125 126.109375 63.65625 125.207031 66.261719 C 123.707031 70.605469 125.617188 114.589844 125.539062 123.457031 C 124.023438 134.410156 119.871094 143.832031 109.757812 144.566406 C 83.339844 146.503906 83.132812 87.765625 83.753906 67.308594 C 81.195312 64.433594 75.871094 64.523438 72.644531 67.152344 C 72.339844 67.546875 72.152344 67.941406 72.132812 68.316406 C 71.230469 89.925781 71.164062 167.371094 111.664062 149.253906 C 117.027344 146.851562 121.664062 144.058594 125.464844 140.679688 C 125.480469 144.703125 129.046875 149.269531 132.082031 152.726562 C 133.957031 154.863281 144.859375 150.8125 143.839844 147.929688 C 140.429688 138.300781 134.015625 147.339844 136.796875 64.984375 Z M 136.796875 64.984375 " />
<path style=" stroke:none;fill-rule:nonzero;fill:rgb(8.627451%,13.333333%,18.039216%);fill-opacity:1;" d="M 134.089844 155.5 C 132.609375 155.5 131.289062 155.132812 130.441406 154.167969 C 128.03125 151.425781 125.367188 148.074219 124.074219 144.632812 C 120.828125 147.0625 117.027344 149.242188 112.558594 151.246094 C 103.496094 155.296875 95.621094 155.125 89.148438 150.734375 C 68.714844 136.875 69.289062 84.078125 69.953125 68.226562 C 69.992188 67.40625 70.3125 66.601562 70.914062 65.824219 L 71.066406 65.621094 L 71.265625 65.460938 C 75.515625 61.996094 82.113281 62.183594 85.386719 65.859375 L 85.964844 66.507812 L 85.9375 67.375 C 85.417969 84.449219 85.675781 125.566406 99.253906 138.574219 C 102.234375 141.433594 105.621094 142.675781 109.597656 142.390625 C 117.128906 141.84375 121.628906 135.59375 123.359375 123.296875 C 123.375 120.550781 123.210938 114.546875 123.023438 107.617188 C 122.429688 85.699219 122.058594 68.6875 123.144531 65.546875 C 124.777344 60.835938 129.375 60.382812 133.191406 60.507812 C 135.515625 60.585938 137.414062 61.746094 138.675781 63.867188 L 139 64.417969 L 138.980469 65.058594 C 136.726562 131.832031 140.542969 137.867188 143.609375 142.714844 C 144.390625 143.949219 145.199219 145.226562 145.898438 147.199219 C 146.3125 148.367188 146.421875 150.671875 142.515625 152.960938 C 140.703125 154.023438 137.066406 155.5 134.089844 155.5 Z M 133.570312 151.117188 C 135.167969 151.535156 140.472656 149.617188 141.625 148.242188 C 141.128906 146.960938 140.5625 146.066406 139.917969 145.050781 C 136.367188 139.4375 132.34375 133.070312 134.59375 65.628906 C 134.074219 65.003906 133.546875 64.890625 133.046875 64.875 C 128.058594 64.691406 127.582031 66.070312 127.269531 66.976562 C 126.363281 69.734375 127.027344 94.300781 127.386719 107.496094 C 127.582031 114.589844 127.746094 120.71875 127.722656 123.472656 L 127.703125 123.753906 C 126.574219 131.914062 124.195312 137.929688 120.59375 141.765625 C 121.816406 140.894531 122.953125 139.992188 124.011719 139.050781 L 127.628906 135.832031 L 127.648438 140.671875 C 127.660156 143.9375 130.988281 148.160156 133.570312 151.117188 Z M 74.304688 68.628906 C 73.015625 100.0625 76.878906 137.136719 91.597656 147.121094 C 96.808594 150.65625 103.082031 150.699219 110.773438 147.257812 C 111.480469 146.941406 112.167969 146.621094 112.839844 146.296875 C 111.90625 146.523438 110.929688 146.671875 109.914062 146.746094 C 104.707031 147.125 100.105469 145.4375 96.230469 141.726562 C 82.140625 128.222656 80.941406 90.339844 81.542969 68.242188 C 79.714844 66.941406 76.464844 67.078125 74.304688 68.628906 Z M 74.304688 68.628906 " />
</g>
</svg>