<svg xmlns="http://www.w3.org/2000/svg" width="216" height="216" viewBox="0 0 216 216" version="1.1">
<g id="surface1">
<path style=" stroke:none;fill-rule:nonzero;fill:rgb(8.627451%,13.333333%,18.039216%);fill-opacity:1;" d="M 128.023438 69.988281 C 124.984375 83.460938 113.148438 134.492188 112.570312 137.085938 C 110.242188 131.445312 90.230469 76.683594 84.035156 66.039062 C 82.535156 63.46875 76.152344 68.585938 74.921875 70.164062 C 74.839844 70.269531 86.152344 95.652344 87.578125 99.429688 C 91.910156 109.164062 105.144531 142.144531 108.503906 151.628906 C 109.65625 154.859375 115.105469 150.636719 115.820312 149.085938 C 119.101562 141.957031 125.992188 120.082031 131.828125 100.160156 C 136.027344 85.824219 139.6875 72.503906 141.054688 66.421875 C 142.203125 61.332031 128.738281 66.808594 128.023438 69.988281 Z M 128.023438 69.988281 " />
<path style=" stroke:none;fill-rule:nonzero;fill:rgb(8.627451%,13.333333%,18.039216%);fill-opacity:1;" d="M 110.140625 155 C 110.078125 155 110.015625 154.996094 109.953125 154.996094 C 108.320312 154.921875 107.011719 153.941406 106.445312 152.363281 C 103.195312 143.175781 89.9375 110.101562 85.585938 100.316406 L 85.539062 100.199219 C 84.746094 98.101562 80.695312 88.871094 77.441406 81.457031 C 76.195312 78.625 75.058594 76.03125 74.234375 74.136719 C 72.414062 69.949219 72.378906 69.871094 73.203125 68.816406 C 74.027344 67.761719 79.191406 62.894531 82.976562 63.15625 C 84.253906 63.242188 85.300781 63.875 85.921875 64.9375 C 90.773438 73.277344 103.632812 107.347656 110.542969 125.652344 C 111.085938 127.09375 111.589844 128.425781 112.042969 129.632812 C 112.597656 127.242188 113.265625 124.355469 114.003906 121.152344 C 117.929688 104.167969 123.863281 78.503906 125.894531 69.507812 C 126.621094 66.289062 132.222656 63.75 135.085938 62.859375 C 138.414062 61.820312 140.804688 61.949219 142.203125 63.234375 C 142.761719 63.753906 143.632812 64.914062 143.183594 66.902344 C 141.835938 72.90625 138.285156 85.886719 133.921875 100.777344 C 128.390625 119.65625 121.253906 142.503906 117.800781 150 C 116.996094 151.75 113.253906 155 110.140625 155 Z M 89.597656 98.597656 C 94.066406 108.648438 106.9375 140.753906 110.453125 150.59375 C 111.445312 150.332031 113.417969 148.886719 113.851562 148.136719 C 117.1875 140.890625 124.246094 118.28125 129.730469 99.546875 C 133.875 85.414062 137.390625 72.585938 138.796875 66.5 C 136.515625 66.578125 130.945312 69.082031 130.136719 70.546875 C 128.085938 79.621094 122.175781 105.195312 118.257812 122.132812 C 116.324219 130.511719 114.890625 136.703125 114.699219 137.5625 L 113.1875 144.308594 L 110.550781 137.917969 C 110 136.582031 108.511719 132.644531 106.457031 127.195312 C 100.183594 110.574219 87.238281 76.273438 82.378906 67.542969 C 81.242188 67.785156 78.867188 69.402344 77.480469 70.648438 C 78.269531 72.484375 79.875 76.140625 81.4375 79.703125 C 84.851562 87.484375 88.71875 96.292969 89.597656 98.597656 Z M 130.117188 70.582031 Z M 130.117188 70.582031 " />
</g>
</svg>