<svg xmlns="http://www.w3.org/2000/svg" width="216" height="216" viewBox="0 0 216 216" version="1.1">
<g id="surface1">
<path style=" stroke:none;fill-rule:nonzero;fill:rgb(8.627451%,13.333333%,18.039216%);fill-opacity:1;" d="M 143.273438 69.25 C 140.234375 82.722656 128.398438 133.753906 127.820312 136.34375 C 125.488281 130.707031 112.402344 95.679688 106.210938 85.035156 C 104.710938 82.464844 100.765625 85.085938 99.539062 86.664062 C 93.816406 93.976562 86.746094 127.339844 85.105469 133.753906 C 83.855469 127.824219 77.230469 85.734375 72.746094 71.113281 C 71.65625 67.589844 60.785156 73.460938 61.765625 76.640625 C 66.25 91.257812 77.042969 151.542969 79.339844 152.980469 C 82.0625 154.683594 87.277344 152.285156 87.941406 149.925781 C 90.640625 140.371094 93.757812 128.253906 96.25 118.628906 C 97.863281 112.417969 102.015625 98.363281 102.285156 97.488281 C 105.921875 105.34375 120.242188 140.972656 123.753906 150.886719 C 124.902344 154.121094 130.355469 149.898438 131.066406 148.34375 C 134.347656 141.21875 141.242188 119.339844 147.078125 99.421875 C 151.277344 85.085938 154.9375 71.761719 156.304688 65.683594 C 157.449219 60.589844 143.984375 66.070312 143.273438 69.25 Z M 143.273438 69.25 " />
<path style=" stroke:none;fill-rule:nonzero;fill:rgb(8.627451%,13.333333%,18.039216%);fill-opacity:1;" d="M 81.597656 155.742188 C 80.324219 155.742188 79.152344 155.4375 78.183594 154.832031 C 76.511719 153.785156 75.484375 150.332031 68.386719 116.097656 C 65.105469 100.273438 61.710938 83.910156 59.679688 77.28125 C 58.429688 73.226562 64.703125 69.367188 68.183594 68.292969 C 72.203125 67.050781 74.253906 68.601562 74.832031 70.464844 C 78.226562 81.542969 82.722656 107.511719 85.410156 123.035156 C 89.480469 106.054688 93.75 90.519531 97.820312 85.320312 C 99.042969 83.746094 101.96875 81.621094 104.648438 81.78125 C 106.121094 81.878906 107.34375 82.644531 108.097656 83.933594 C 113.109375 92.546875 122.289062 116.164062 127.21875 128.851562 C 127.238281 128.894531 127.253906 128.941406 127.273438 128.988281 C 127.832031 126.566406 128.511719 123.628906 129.265625 120.363281 C 133.1875 103.394531 139.117188 77.753906 141.144531 68.765625 C 141.867188 65.550781 147.460938 63.015625 150.320312 62.121094 C 153.652344 61.078125 156.050781 61.203125 157.449219 62.492188 C 158.007812 63.011719 158.882812 64.171875 158.433594 66.160156 C 157.09375 72.109375 153.460938 85.40625 149.171875 100.035156 C 143.644531 118.910156 136.503906 141.753906 133.046875 149.257812 C 132.226562 151.046875 128.347656 154.382812 125.199219 154.253906 C 123.566406 154.183594 122.257812 153.199219 121.695312 151.621094 C 118.785156 143.398438 108.089844 116.636719 102.683594 103.863281 C 101.269531 108.714844 99.332031 115.445312 98.363281 119.175781 L 97.695312 121.757812 C 95.265625 131.144531 92.511719 141.777344 90.042969 150.519531 C 89.429688 152.691406 87.105469 154.277344 85.132812 155.039062 C 83.917969 155.507812 82.71875 155.742188 81.597656 155.742188 Z M 80.847656 151.28125 C 81.476562 151.464844 82.433594 151.375 83.421875 151.015625 C 84.929688 150.472656 85.753906 149.601562 85.84375 149.328125 C 88.296875 140.636719 91.042969 130.027344 93.46875 120.664062 L 94.136719 118.082031 C 95.777344 111.761719 99.9375 97.691406 100.203125 96.839844 L 101.890625 91.433594 L 104.269531 96.574219 C 107.910156 104.4375 121.957031 139.375 125.699219 149.851562 C 126.695312 149.589844 128.664062 148.148438 129.101562 147.394531 C 132.441406 140.140625 139.496094 117.535156 144.980469 98.808594 C 149.117188 84.703125 152.632812 71.878906 154.046875 65.761719 C 151.765625 65.835938 146.195312 68.339844 145.386719 69.804688 C 143.339844 78.871094 137.433594 104.421875 133.519531 121.347656 C 131.578125 129.75 130.140625 135.960938 129.949219 136.820312 L 128.4375 143.566406 L 125.800781 137.175781 C 125.316406 136 124.40625 133.664062 123.152344 130.433594 C 118.609375 118.753906 109.164062 94.449219 104.324219 86.132812 C 103.738281 86.09375 102.007812 87.046875 101.261719 88.003906 C 96.730469 93.796875 90.875 118.785156 88.375 129.457031 C 87.875 131.601562 87.480469 133.28125 87.21875 134.296875 L 84.898438 143.375 L 82.96875 134.203125 C 82.644531 132.675781 82 128.949219 81.109375 123.792969 C 78.648438 109.578125 74.097656 83.289062 70.792969 72.199219 C 70.144531 72.222656 68.734375 72.574219 67.003906 73.5625 C 65.144531 74.625 64.132812 75.738281 63.914062 76.203125 C 66.015625 83.152344 69.394531 99.449219 72.660156 115.210938 C 75.703125 129.878906 79.457031 147.988281 80.847656 151.28125 Z M 63.851562 75.996094 C 63.851562 75.996094 63.851562 76 63.851562 76 C 63.851562 76 63.851562 75.996094 63.851562 75.996094 Z M 63.851562 75.996094 " />
</g>
</svg>