<svg xmlns="http://www.w3.org/2000/svg" width="216" height="216" viewBox="0 0 216 216" version="1.1">
<g id="surface1">
<path style=" stroke:none;fill-rule:nonzero;fill:rgb(8.627451%,13.333333%,18.039216%);fill-opacity:1;" d="M 141.917969 68.492188 C 131.207031 79.519531 120.691406 90.742188 110.183594 101.972656 C 99.75 90.53125 89.304688 79.105469 78.664062 67.863281 C 77.734375 66.882812 72.382812 74.332031 74.144531 76.191406 C 84.234375 86.851562 94.140625 97.679688 104.035156 108.523438 C 94.070312 119.164062 84.09375 129.796875 73.925781 140.253906 C 72.15625 142.078125 77.460938 149.628906 78.398438 148.671875 C 89.230469 137.527344 99.976562 126.671875 110.71875 115.828125 C 120.953125 127.050781 131.207031 138.261719 141.65625 149.300781 C 142.582031 150.277344 147.941406 142.828125 146.183594 140.972656 C 136.339844 130.578125 126.675781 120.023438 117.027344 109.453125 C 126.976562 99.410156 136.933594 89.339844 146.957031 79.027344 C 148.726562 77.203125 142.859375 67.535156 141.917969 68.492188 Z M 141.917969 68.492188 " />
<path style=" stroke:none;fill-rule:nonzero;fill:rgb(8.627451%,13.333333%,18.039216%);fill-opacity:1;" d="M 141.859375 151.574219 C 140.882812 151.574219 140.25 150.988281 140.070312 150.800781 C 130.226562 140.402344 120.527344 129.816406 110.652344 118.996094 C 99.429688 130.328125 89.90625 139.964844 79.964844 150.191406 C 79.652344 150.511719 77.988281 151.976562 75.59375 149.640625 C 73.773438 147.867188 69.441406 141.734375 72.363281 138.730469 C 81.730469 129.097656 90.945312 119.304688 101.0625 108.503906 C 91.460938 97.984375 82.039062 87.703125 72.558594 77.691406 C 69.636719 74.609375 74.300781 68.34375 75.882812 66.84375 C 78.296875 64.550781 79.941406 66.039062 80.25 66.363281 C 90.222656 76.898438 99.769531 87.316406 110.203125 98.753906 C 120.824219 87.40625 130.507812 77.109375 140.355469 66.972656 L 140.359375 66.964844 C 140.539062 66.78125 142.1875 65.222656 144.34375 67.324219 C 145.589844 68.539062 151.769531 77.203125 148.523438 80.550781 C 138.945312 90.402344 129.570312 99.890625 120.039062 109.515625 C 129.347656 119.707031 138.496094 129.679688 147.765625 139.46875 C 150.6875 142.558594 146.015625 148.824219 144.433594 150.324219 C 143.429688 151.277344 142.554688 151.574219 141.859375 151.574219 Z M 110.785156 112.660156 L 112.332031 114.355469 C 122.320312 125.308594 132.117188 136.019531 142.035156 146.523438 C 143.039062 145.296875 144.25 143.191406 144.347656 142.207031 C 134.671875 131.984375 125.140625 121.578125 115.414062 110.925781 L 114.015625 109.394531 L 115.476562 107.917969 C 125.410156 97.890625 135.152344 88.035156 145.105469 77.800781 C 145.03125 76.5 143.378906 73.207031 142.117188 71.425781 C 132.269531 81.59375 122.523438 91.980469 111.777344 103.460938 L 110.164062 105.1875 L 108.570312 103.441406 C 97.949219 91.796875 88.304688 81.25 78.285156 70.640625 C 77.28125 71.867188 76.070312 73.972656 75.976562 74.953125 C 85.84375 85.382812 95.644531 96.085938 105.648438 107.050781 L 107.007812 108.542969 L 105.628906 110.015625 C 95.042969 121.316406 85.480469 131.496094 75.753906 141.507812 C 75.847656 142.503906 77.054688 144.644531 78.058594 145.890625 C 88.042969 135.628906 97.691406 125.875 109.167969 114.292969 Z M 110.785156 112.660156 " />
</g>
</svg>