<svg xmlns="http://www.w3.org/2000/svg" width="216" height="216" viewBox="0 0 216 216" version="1.1">
<g id="surface1">
<path style=" stroke:none;fill-rule:nonzero;fill:rgb(8.627451%,13.333333%,18.039216%);fill-opacity:1;" d="M 135.210938 46.652344 C 133.359375 44.46875 129.671875 43.027344 127.226562 45.230469 C 126.667969 45.730469 126.210938 46.289062 125.804688 46.875 C 121.222656 67.421875 112.460938 99.695312 110.289062 109.53125 C 105.96875 99.945312 85.765625 58.6875 81.441406 46.324219 C 79.589844 41.023438 68.6875 44.039062 70.511719 49.257812 C 75.269531 62.863281 108.492188 124.582031 108.570312 124.703125 C 107.285156 130.371094 101.832031 150.410156 99.0625 166.09375 C 100.011719 170.523438 103.261719 173.335938 108.453125 172.203125 C 109.921875 171.878906 131.207031 76.148438 136.46875 48.996094 C 136.167969 48.140625 135.789062 47.332031 135.210938 46.652344 Z M 135.210938 46.652344 " />
<path style=" stroke:none;fill-rule:nonzero;fill:rgb(8.627451%,13.333333%,18.039216%);fill-opacity:1;" d="M 106.25 174.632812 C 104.375 174.632812 102.664062 174.160156 101.207031 173.21875 C 99.042969 171.824219 97.566406 169.519531 96.929688 166.550781 L 96.839844 166.132812 L 96.914062 165.714844 C 98.980469 154.007812 102.585938 139.679688 104.742188 131.121094 C 105.382812 128.574219 105.910156 126.476562 106.257812 125.011719 C 102.203125 117.507812 72.890625 62.671875 68.453125 49.976562 C 67.292969 46.660156 69.289062 43.363281 73.308594 41.960938 C 77.164062 40.617188 82.046875 41.433594 83.503906 45.605469 C 86.578125 54.394531 98.019531 78.484375 105.59375 94.425781 C 107.117188 97.636719 108.484375 100.507812 109.621094 102.917969 C 110.660156 98.730469 112.027344 93.390625 113.523438 87.554688 C 116.855469 74.554688 121.003906 58.375 123.671875 46.402344 L 123.765625 45.980469 L 124.011719 45.625 C 124.570312 44.828125 125.144531 44.167969 125.765625 43.609375 C 127.09375 42.410156 128.773438 41.847656 130.617188 41.964844 C 132.894531 42.117188 135.292969 43.375 136.878906 45.238281 C 137.566406 46.054688 138.089844 47.019531 138.53125 48.28125 L 138.722656 48.835938 L 138.609375 49.414062 C 136.078125 62.488281 129.582031 92.65625 123.167969 121.140625 C 119.878906 135.75 116.996094 148.203125 114.832031 157.148438 C 110.773438 173.929688 110.5625 173.976562 108.917969 174.335938 C 108 174.535156 107.109375 174.632812 106.25 174.632812 Z M 101.292969 166.03125 C 101.605469 167.234375 102.25 168.695312 103.574219 169.550781 C 104.484375 170.136719 105.609375 170.363281 106.933594 170.238281 C 110.144531 160.332031 128.710938 77.375 134.207031 49.191406 C 134.007812 48.71875 133.792969 48.351562 133.546875 48.0625 C 132.726562 47.097656 131.433594 46.398438 130.324219 46.324219 C 129.667969 46.277344 129.132812 46.449219 128.6875 46.855469 C 128.394531 47.117188 128.117188 47.421875 127.835938 47.792969 C 125.148438 59.789062 121.050781 75.769531 117.753906 88.640625 C 115.371094 97.929688 113.316406 105.949219 112.417969 110 L 111 116.421875 L 108.296875 110.425781 C 107.097656 107.765625 104.691406 102.703125 101.648438 96.296875 C 94.039062 80.273438 82.535156 56.058594 79.382812 47.046875 C 78.832031 45.476562 76.292969 45.542969 74.746094 46.082031 C 74.46875 46.179688 72.0625 47.070312 72.574219 48.539062 C 77.210938 61.796875 109.417969 121.6875 110.453125 123.601562 L 110.898438 124.308594 L 110.699219 125.1875 C 110.363281 126.675781 109.75 129.109375 108.972656 132.1875 C 106.863281 140.582031 103.34375 154.558594 101.292969 166.03125 Z M 101.292969 166.03125 " />
</g>
</svg>