<svg xmlns="http://www.w3.org/2000/svg" width="216" height="216" viewBox="0 0 216 216" version="1.1">
<g id="surface1">
<path style=" stroke:none;fill-rule:nonzero;fill:rgb(8.627451%,13.333333%,18.039216%);fill-opacity:1;" d="M 143.769531 134.363281 C 132.398438 135.445312 94.25 140.472656 86.542969 141.300781 C 89.15625 138.453125 92.136719 135.804688 94.574219 132.980469 C 101.132812 125.390625 137.476562 84.078125 148.242188 70.410156 C 150.644531 67.359375 146.214844 65.699219 143.949219 65.585938 C 123.363281 64.554688 99.871094 66.65625 79.222656 67.800781 C 71.355469 68.238281 68.082031 81.53125 78.871094 80.929688 C 90.546875 80.28125 102.285156 78.777344 113.886719 77.335938 C 118.730469 76.738281 124.140625 75.6875 129.398438 75.105469 C 119.765625 86.816406 72.003906 139.292969 68.113281 145.78125 C 66.140625 149.070312 69.792969 150.335938 72.410156 150.605469 C 82.246094 151.609375 128.867188 144.558594 141.722656 143.332031 C 149.496094 142.589844 154.570312 133.332031 143.769531 134.363281 Z M 143.769531 134.363281 " />
<path style=" stroke:none;fill-rule:nonzero;fill:rgb(8.627451%,13.333333%,18.039216%);fill-opacity:1;" d="M 74.792969 152.882812 C 73.769531 152.882812 72.894531 152.847656 72.1875 152.777344 C 70.34375 152.585938 67.0625 151.898438 65.8125 149.40625 C 65.3125 148.402344 64.980469 146.765625 66.242188 144.660156 C 68.542969 140.820312 83.339844 124.050781 103.992188 100.78125 C 111.796875 91.984375 119.273438 83.558594 124.054688 78.027344 C 123.035156 78.183594 122.023438 78.339844 121.023438 78.5 C 118.625 78.875 116.363281 79.230469 114.15625 79.503906 L 112.46875 79.714844 C 101.507812 81.078125 90.175781 82.488281 78.992188 83.109375 C 74.085938 83.382812 71.855469 81.140625 70.96875 79.78125 C 69.441406 77.449219 69.421875 74.167969 70.914062 71.21875 C 72.585938 67.90625 75.648438 65.8125 79.101562 65.621094 C 83.390625 65.382812 87.804688 65.105469 92.289062 64.820312 C 109.664062 63.71875 127.632812 62.582031 144.058594 63.402344 C 146.128906 63.507812 149.621094 64.566406 150.757812 67.058594 C 151.152344 67.933594 151.578125 69.703125 149.957031 71.761719 C 141.234375 82.835938 116.324219 111.371094 102.941406 126.703125 C 99.859375 130.230469 97.488281 132.945312 96.226562 134.410156 C 95.042969 135.777344 93.738281 137.109375 92.441406 138.402344 C 96.039062 137.960938 100.660156 137.378906 105.667969 136.746094 C 119.4375 135.011719 136.574219 132.855469 143.5625 132.1875 C 151.050781 131.476562 152.003906 135.34375 152.121094 136.542969 C 152.507812 140.613281 147.554688 144.96875 141.929688 145.503906 C 138.039062 145.875 130.960938 146.792969 122.765625 147.859375 C 105.320312 150.121094 84.03125 152.882812 74.792969 152.882812 Z M 134.492188 72.347656 L 131.082031 76.492188 C 127.304688 81.089844 117.566406 92.0625 107.257812 103.679688 C 91.664062 121.25 72.257812 143.117188 69.984375 146.90625 C 69.777344 147.253906 69.734375 147.460938 69.734375 147.511719 C 69.867188 147.703125 70.878906 148.253906 72.632812 148.433594 C 79.210938 149.101562 104.058594 145.882812 122.203125 143.527344 C 130.4375 142.460938 137.550781 141.535156 141.515625 141.160156 C 144.152344 140.90625 146.308594 139.441406 147.277344 138.097656 C 147.753906 137.433594 147.789062 137.023438 147.773438 136.949219 C 147.667969 136.8125 146.683594 136.277344 143.976562 136.535156 C 137.050781 137.195312 119.953125 139.347656 106.214844 141.078125 C 97.398438 142.1875 89.789062 143.148438 86.773438 143.472656 L 81.019531 144.09375 L 84.933594 139.824219 C 86.121094 138.53125 87.382812 137.273438 88.605469 136.058594 C 90.152344 134.519531 91.617188 133.066406 92.921875 131.554688 C 94.1875 130.089844 96.566406 127.367188 99.652344 123.832031 C 112.058594 109.621094 137.875 80.046875 146.527344 69.058594 C 146.625 68.9375 146.679688 68.847656 146.714844 68.785156 C 146.34375 68.394531 145.027344 67.824219 143.839844 67.765625 C 127.660156 66.953125 109.816406 68.085938 92.5625 69.175781 C 88.070312 69.460938 83.644531 69.742188 79.34375 69.980469 C 77.46875 70.085938 75.773438 71.285156 74.808594 73.1875 C 74.03125 74.726562 73.957031 76.375 74.621094 77.390625 C 75.449219 78.660156 77.328125 78.832031 78.75 78.75 C 89.785156 78.136719 101.042969 76.734375 111.929688 75.382812 L 113.621094 75.171875 C 115.757812 74.90625 117.984375 74.554688 120.34375 74.1875 C 123.226562 73.730469 126.210938 73.261719 129.15625 72.9375 Z M 134.492188 72.347656 " />
</g>
</svg>